<svg width="88" height="37" viewBox="0 0 88 37" fill="none" xmlns="http://www.w3.org/2000/svg">
<path d="M12.5676 9.50045C14.2634 9.50045 15.9591 9.49908 17.6552 9.50113C18.4403 9.50181 19.1952 9.65324 19.8944 10.0265C21.0668 10.6524 21.7747 11.6335 21.9585 12.9782C22.1169 14.138 21.8138 15.1892 21.124 16.1131C20.0836 17.5061 19.1334 18.9585 18.3016 20.4909C18.0479 20.9582 17.821 21.4405 17.566 21.9071C17.1275 22.7094 16.5951 23.4464 16.028 24.1567C15.1624 25.241 14.2226 26.2545 13.2223 27.2096C12.7283 27.6816 12.0008 27.5633 11.6656 26.9638C10.9286 25.645 10.1947 24.3245 9.4481 23.0116C8.77668 21.8305 8.07551 20.668 7.28979 19.5615C6.81154 18.8877 6.30255 18.2407 5.71234 17.6647C5.38916 17.3495 5.03891 17.0713 4.65825 16.8303C3.76357 16.2642 3.21247 15.4548 3.04704 14.3862C2.94945 13.7562 3.00225 13.1324 3.21915 12.5355C3.82808 10.8599 5.01418 9.88159 6.72365 9.55958C6.95759 9.51583 7.19989 9.50386 7.43851 9.50318C9.14798 9.4984 10.8578 9.50045 12.5676 9.50045ZM13.3339 24.2329L13.36 24.2514C13.3797 24.2244 13.3974 24.1956 13.4191 24.1707C13.5899 23.9755 13.7637 23.7831 13.9325 23.5862C14.5598 22.8533 15.1624 22.0989 15.657 21.2641C15.909 20.8392 16.1262 20.3925 16.3558 19.9539C17.2468 18.2519 18.2715 16.6382 19.4155 15.1037C19.6347 14.8097 19.8376 14.5113 19.9449 14.1534C20.2299 13.2011 19.873 12.2853 19.0255 11.8215C18.6044 11.5911 18.1452 11.506 17.6719 11.5053C16.2823 11.5022 14.8927 11.5036 13.503 11.5032C13.4733 11.5032 13.4439 11.506 13.4095 11.5077C13.374 11.8632 13.3359 12.2105 13.3059 12.5588C13.251 13.1939 13.1936 13.829 13.1511 14.4652C13.104 15.1724 13.0532 15.8803 13.0395 16.5886C13.0234 17.4281 13.0375 18.2683 13.0532 19.1082C13.0649 19.7259 13.0953 20.3432 13.1271 20.9602C13.1638 21.674 13.2099 22.387 13.2547 23.1004C13.2784 23.4782 13.3075 23.8555 13.3343 24.2332L13.3339 24.2329ZM11.212 22.1187C11.2217 22.1173 11.2314 22.116 11.2411 22.1146C10.9537 18.5739 11.0236 15.0401 11.4513 11.5029C11.3955 11.5029 11.3658 11.5029 11.336 11.5029C10.066 11.5029 8.7964 11.5005 7.52641 11.5053C7.32722 11.506 7.12336 11.5169 6.92952 11.56C5.98672 11.7695 5.33535 12.3308 5.04325 13.2814C4.81131 14.0369 5.05361 14.7526 5.74709 15.1649C6.15716 15.4086 6.52646 15.7122 6.87805 16.0376C7.52875 16.6399 8.0959 17.3191 8.62294 18.0342C9.52229 19.2542 10.3033 20.5535 11.065 21.8657C11.1141 21.9502 11.1629 22.0346 11.2117 22.1187H11.212Z" fill="black"/>
<path d="M33.5435 17.446C33.4595 17.446 33.3035 17.416 33.0755 17.356C32.8595 17.296 32.6315 17.224 32.3915 17.14C32.1635 17.044 31.9835 16.942 31.8515 16.834C31.4435 16.486 31.1495 16.102 30.9695 15.682C30.7895 15.25 30.6815 14.812 30.6455 14.368C30.6215 13.924 30.6395 13.504 30.6995 13.108C30.8315 12.34 31.1075 11.578 31.5275 10.822C31.9475 10.054 32.4515 9.418 33.0395 8.914C33.3515 8.638 33.6635 8.404 33.9755 8.212C34.2875 8.02 34.6235 7.882 34.9835 7.798C35.1155 7.762 35.3015 7.744 35.5415 7.744C35.7935 7.732 35.9615 7.726 36.0455 7.726C36.2855 7.726 36.5495 7.78 36.8375 7.888C37.1375 7.984 37.3955 8.104 37.6115 8.248C37.8275 8.38 37.9355 8.506 37.9355 8.626C37.9355 8.71 37.9295 8.794 37.9175 8.878C37.9055 8.962 37.8515 8.98 37.7555 8.932H37.5755L37.7555 9.472C37.8035 9.568 37.8455 9.7 37.8815 9.868C37.9175 10.024 37.9355 10.168 37.9355 10.3C37.9355 10.42 37.9175 10.6 37.8815 10.84C37.8575 11.068 37.8155 11.314 37.7555 11.578C37.7075 11.842 37.6535 12.088 37.5935 12.316C37.5455 12.544 37.4975 12.712 37.4495 12.82C37.4135 12.892 37.3895 12.964 37.3775 13.036C37.3775 13.096 37.3775 13.15 37.3775 13.198C37.3295 13.294 37.2515 13.462 37.1435 13.702C37.0355 13.942 36.9575 14.11 36.9095 14.206C36.8615 14.254 36.8195 14.296 36.7835 14.332C36.7595 14.368 36.7715 14.41 36.8195 14.458C36.8195 14.494 36.7895 14.578 36.7295 14.71C36.6695 14.83 36.6035 14.944 36.5315 15.052C36.4715 15.16 36.4235 15.214 36.3875 15.214C36.3875 15.214 36.3695 15.22 36.3335 15.232C36.3095 15.232 36.2975 15.25 36.2975 15.286C36.2975 15.334 36.2135 15.46 36.0455 15.664C35.8895 15.868 35.7035 16.078 35.4875 16.294C35.3675 16.414 35.1755 16.57 34.9115 16.762C34.6475 16.942 34.3835 17.104 34.1195 17.248C33.8675 17.38 33.6755 17.446 33.5435 17.446ZM33.5075 15.718C33.6395 15.718 33.7655 15.7 33.8855 15.664C34.0055 15.616 34.1075 15.55 34.1915 15.466C34.4075 15.322 34.6115 15.13 34.8035 14.89C35.0075 14.65 35.1755 14.374 35.3075 14.062C35.4395 13.882 35.5415 13.696 35.6135 13.504C35.6975 13.3 35.8235 12.958 35.9915 12.478C36.0875 12.346 36.1535 12.184 36.1895 11.992C36.2255 11.8 36.2435 11.638 36.2435 11.506C36.2435 11.374 36.2435 11.194 36.2435 10.966C36.2555 10.738 36.2855 10.546 36.3335 10.39C36.3335 10.078 36.3275 9.898 36.3155 9.85C36.3035 9.79 36.2555 9.712 36.1715 9.616C36.1235 9.58 36.0575 9.544 35.9735 9.508C35.9015 9.472 35.8235 9.454 35.7395 9.454C35.6555 9.454 35.5415 9.478 35.3975 9.526C35.2655 9.562 35.1515 9.61 35.0555 9.67C34.9715 9.718 34.8755 9.724 34.7675 9.688C34.6715 9.652 34.6235 9.604 34.6235 9.544C34.6235 9.376 34.5395 9.388 34.3715 9.58C34.2155 9.76 34.0055 10.012 33.7415 10.336C33.5255 10.552 33.3395 10.774 33.1835 11.002C33.0395 11.218 32.9675 11.35 32.9675 11.398C32.9675 11.446 32.9495 11.506 32.9135 11.578C32.8775 11.65 32.8415 11.734 32.8055 11.83C32.7455 11.914 32.6735 12.052 32.5895 12.244C32.5055 12.436 32.4215 12.628 32.3375 12.82C32.2655 13 32.2175 13.138 32.1935 13.234C32.1935 13.282 32.1935 13.414 32.1935 13.63C32.1935 13.834 32.1935 14.026 32.1935 14.206C32.1935 14.41 32.1995 14.56 32.2115 14.656C32.2235 14.752 32.2415 14.83 32.2655 14.89C32.3015 14.95 32.3495 15.04 32.4095 15.16C32.4575 15.244 32.5295 15.346 32.6255 15.466C32.7335 15.574 32.8055 15.652 32.8415 15.7C32.9735 15.82 33.0575 15.868 33.0935 15.844C33.1415 15.808 33.2795 15.766 33.5075 15.718ZM39.289 16.564C39.037 16.648 38.827 16.69 38.659 16.69C38.491 16.678 38.305 16.6 38.101 16.456C37.861 16.216 37.777 15.976 37.849 15.736C37.933 15.484 38.149 15.238 38.497 14.998C38.737 14.854 38.911 14.782 39.019 14.782C39.139 14.77 39.313 14.812 39.541 14.908C39.949 15.16 40.129 15.442 40.081 15.754C40.033 16.054 39.769 16.324 39.289 16.564ZM46.4754 17.824C46.4394 17.848 46.3494 17.854 46.2054 17.842C46.0734 17.83 45.9294 17.794 45.7734 17.734C45.6294 17.686 45.5154 17.626 45.4314 17.554C45.3834 17.506 45.3354 17.452 45.2874 17.392C45.2394 17.32 45.2154 17.2 45.2154 17.032C45.2274 16.864 45.2694 16.594 45.3414 16.222C45.3894 15.982 45.4494 15.73 45.5214 15.466C45.5934 15.202 45.6594 14.974 45.7194 14.782C45.7794 14.59 45.8094 14.494 45.8094 14.494C45.8694 14.47 45.9534 14.29 46.0614 13.954C46.1814 13.618 46.3134 13.21 46.4574 12.73C46.5054 12.562 46.5894 12.28 46.7094 11.884C46.8294 11.488 46.9494 11.104 47.0694 10.732C47.1774 10.384 47.2794 10.114 47.3754 9.922C47.4714 9.73 47.5194 9.634 47.5194 9.634C47.5194 9.634 47.4474 9.676 47.3034 9.76C47.1594 9.844 46.9734 9.958 46.7454 10.102C46.5174 10.246 46.2774 10.414 46.0254 10.606C45.8214 10.726 45.5874 10.894 45.3234 11.11C45.0714 11.314 44.8374 11.482 44.6214 11.614C44.2974 11.866 44.0754 12.028 43.9554 12.1C43.8474 12.172 43.7394 12.178 43.6314 12.118C43.4754 11.986 43.3254 11.794 43.1814 11.542C43.0494 11.278 43.0194 11.086 43.0914 10.966C43.1154 10.954 43.1934 10.9 43.3254 10.804C43.4694 10.708 43.6314 10.594 43.8114 10.462C43.9914 10.33 44.1534 10.21 44.2974 10.102C44.4534 9.994 44.5614 9.922 44.6214 9.886C44.6574 9.886 44.7234 9.844 44.8194 9.76C44.9154 9.676 45.0174 9.598 45.1254 9.526C45.1854 9.454 45.3954 9.292 45.7554 9.04C46.1154 8.788 46.5054 8.506 46.9254 8.194C47.3694 7.918 47.7654 7.696 48.1134 7.528C48.4614 7.36 48.6594 7.282 48.7074 7.294C48.7434 7.294 48.8274 7.336 48.9594 7.42C49.1034 7.504 49.2414 7.6 49.3734 7.708C49.5054 7.816 49.5774 7.906 49.5894 7.978C49.6614 8.062 49.6254 8.254 49.4814 8.554C49.4334 8.662 49.3554 8.86 49.2474 9.148C49.1394 9.424 49.0194 9.748 48.8874 10.12C48.7674 10.48 48.6474 10.84 48.5274 11.2C48.4194 11.548 48.3294 11.848 48.2574 12.1C48.1614 12.472 48.0714 12.76 47.9874 12.964C47.9154 13.168 47.8434 13.366 47.7714 13.558C47.7114 13.738 47.6394 13.99 47.5554 14.314C47.4714 14.506 47.3814 14.752 47.2854 15.052C47.2014 15.34 47.1234 15.628 47.0514 15.916C46.9794 16.192 46.9254 16.42 46.8894 16.6C46.7934 16.864 46.7154 17.122 46.6554 17.374C46.5954 17.626 46.5354 17.776 46.4754 17.824ZM52.0769 18.454C51.8609 18.466 51.6809 18.364 51.5369 18.148C51.3929 17.932 51.3269 17.752 51.3389 17.608C51.3509 17.416 51.4049 17.14 51.5009 16.78C51.5969 16.42 51.7049 16.054 51.8249 15.682C51.9449 15.31 52.0529 15.016 52.1489 14.8C52.1969 14.608 52.2389 14.44 52.2749 14.296C52.3229 14.14 52.3529 14.038 52.3649 13.99C52.4009 13.942 52.4549 13.816 52.5269 13.612C52.6109 13.408 52.6769 13.21 52.7249 13.018C52.7489 12.922 52.7969 12.742 52.8689 12.478C52.9529 12.202 53.0489 11.884 53.1569 11.524C53.2769 11.164 53.3909 10.81 53.4989 10.462C53.6189 10.114 53.7209 9.808 53.8049 9.544C53.8889 9.28 53.9429 9.106 53.9669 9.022C54.0629 8.878 54.1349 8.74 54.1829 8.608C54.2309 8.476 54.2609 8.386 54.2729 8.338C54.3449 8.29 54.3869 8.23 54.3989 8.158C54.4109 8.074 54.4169 8.008 54.4169 7.96C54.4169 7.9 54.4349 7.852 54.4709 7.816C54.5189 7.78 54.5429 7.738 54.5429 7.69C54.5909 7.654 54.6209 7.648 54.6329 7.672C54.6449 7.696 54.6809 7.678 54.7409 7.618L54.8309 7.006L56.4329 6.988C56.4089 7.132 56.3729 7.312 56.3249 7.528C56.2769 7.732 56.1629 8.008 55.9829 8.356C55.9229 8.596 55.8509 8.812 55.7669 9.004C55.6949 9.196 55.6649 9.322 55.6769 9.382C55.6529 9.406 55.5989 9.526 55.5149 9.742C55.4429 9.958 55.3529 10.222 55.2449 10.534C55.1489 10.846 55.0469 11.158 54.9389 11.47C54.8429 11.782 54.7529 12.058 54.6689 12.298C54.5969 12.526 54.5489 12.67 54.5249 12.73C54.4289 12.922 54.3209 13.204 54.2009 13.576C54.0809 13.948 53.9009 14.452 53.6609 15.088C53.5649 15.28 53.4449 15.568 53.3009 15.952C53.1689 16.336 53.0609 16.684 52.9769 16.996C52.8449 17.464 52.7249 17.8 52.6169 18.004C52.5209 18.208 52.4309 18.328 52.3469 18.364C52.2629 18.412 52.1729 18.442 52.0769 18.454ZM52.2389 7.87C51.7469 7.918 51.4109 7.858 51.2309 7.69C51.0629 7.522 51.0029 7.342 51.0509 7.15C51.0869 7.006 51.1709 6.886 51.3029 6.79C51.4469 6.682 51.7049 6.592 52.0769 6.52C52.2089 6.496 52.3769 6.466 52.5809 6.43C52.7969 6.394 53.0009 6.358 53.1929 6.322C53.5889 6.274 53.9129 6.232 54.1649 6.196C54.4289 6.16 54.6989 6.13 54.9749 6.106C55.2509 6.082 55.5989 6.058 56.0189 6.034C56.3669 6.01 56.6609 5.992 56.9009 5.98C57.1529 5.956 57.2789 5.944 57.2789 5.944C57.3149 5.944 57.4409 5.956 57.6569 5.98C57.8729 6.004 58.1069 6.034 58.3589 6.07C58.6109 6.106 58.7969 6.148 58.9169 6.196C59.1929 6.256 59.4149 6.364 59.5829 6.52C59.7509 6.676 59.8589 6.856 59.9069 7.06C59.9429 7.204 59.9429 7.318 59.9069 7.402C59.8709 7.474 59.8049 7.534 59.7089 7.582C59.4329 7.666 59.2049 7.738 59.0249 7.798C58.8569 7.846 58.6889 7.84 58.5209 7.78C58.4609 7.72 58.3889 7.666 58.3049 7.618C58.2329 7.57 58.1009 7.534 57.9089 7.51C57.7289 7.474 57.4409 7.444 57.0449 7.42C56.7089 7.456 56.4149 7.474 56.1629 7.474C55.9109 7.474 55.7849 7.504 55.7849 7.564L54.7229 7.618L53.8409 7.708C53.7209 7.72 53.5529 7.738 53.3369 7.762C53.1209 7.774 52.9109 7.792 52.7069 7.816C52.5029 7.828 52.3469 7.846 52.2389 7.87ZM59.6551 18.13C59.2111 17.806 58.8571 17.506 58.5931 17.23C58.3411 16.942 58.2031 16.666 58.1791 16.402C58.1551 16.186 58.1551 15.892 58.1791 15.52C58.2151 15.148 58.2571 14.782 58.3051 14.422C58.3531 14.062 58.3951 13.792 58.4311 13.612C58.4911 13.552 58.5151 13.474 58.5031 13.378C58.5031 13.27 58.5031 13.216 58.5031 13.216C58.4911 13.156 58.5331 13 58.6291 12.748C58.7251 12.484 58.8151 12.148 58.8991 11.74C59.1391 11.02 59.3671 10.42 59.5831 9.94C59.8111 9.448 60.0331 9.028 60.2491 8.68C60.4651 8.332 60.6811 8.014 60.8971 7.726C61.3891 7.222 61.8511 6.82 62.2831 6.52C62.7271 6.22 63.1351 5.986 63.5071 5.818C63.7471 5.674 63.9691 5.56 64.1731 5.476C64.3771 5.392 64.5451 5.38 64.6771 5.44C65.3491 5.584 65.9191 5.878 66.3871 6.322C66.8551 6.766 67.1671 7.408 67.3231 8.248C67.4071 8.776 67.4551 9.256 67.4671 9.688C67.4911 10.108 67.4611 10.528 67.3771 10.948C67.2931 11.356 67.1371 11.806 66.9091 12.298C66.6931 12.79 66.3871 13.366 65.9911 14.026C65.4991 14.998 64.9591 15.814 64.3711 16.474C63.7951 17.122 63.2131 17.614 62.6251 17.95C62.0491 18.286 61.4971 18.466 60.9691 18.49C60.4531 18.526 60.0151 18.406 59.6551 18.13ZM61.0951 16.942C61.3711 16.906 61.5931 16.852 61.7611 16.78C61.9411 16.708 62.1271 16.57 62.3191 16.366C62.5111 16.162 62.7811 15.862 63.1291 15.466C63.4411 15.106 63.6991 14.8 63.9031 14.548C64.1191 14.296 64.2991 14.038 64.4431 13.774C64.5991 13.51 64.7431 13.198 64.8751 12.838C65.0191 12.466 65.1751 11.992 65.3431 11.416C65.4391 11.056 65.5051 10.792 65.5411 10.624C65.5891 10.444 65.6191 10.294 65.6311 10.174C65.6431 10.054 65.6431 9.892 65.6311 9.688C65.6311 9.472 65.6311 9.148 65.6311 8.716C65.6191 8.512 65.5771 8.284 65.5051 8.032C65.4331 7.768 65.3491 7.582 65.2531 7.474C65.1331 7.342 64.9531 7.228 64.7131 7.132C64.4731 7.036 64.2211 7.048 63.9571 7.168C63.8131 7.228 63.6331 7.354 63.4171 7.546C63.2011 7.726 62.9791 7.942 62.7511 8.194C62.5231 8.446 62.3071 8.698 62.1031 8.95C61.8991 9.202 61.7371 9.43 61.6171 9.634C61.4971 9.838 61.4371 9.982 61.4371 10.066C61.4371 10.066 61.4311 10.096 61.4191 10.156C61.4191 10.216 61.3951 10.276 61.3471 10.336C61.1911 10.504 61.0291 10.78 60.8611 11.164C60.6931 11.548 60.5371 11.986 60.3931 12.478C60.2491 12.97 60.1291 13.462 60.0331 13.954C59.9371 14.446 59.8771 14.89 59.8531 15.286C59.8531 15.478 59.8531 15.64 59.8531 15.772C59.8531 15.904 59.8651 16.024 59.8891 16.132C59.9251 16.228 59.9791 16.336 60.0511 16.456C60.1231 16.576 60.2671 16.696 60.4831 16.816C60.7111 16.936 60.9151 16.978 61.0951 16.942ZM68.059 18.076C67.999 18.172 67.939 18.256 67.879 18.328C67.831 18.4 67.777 18.442 67.717 18.454C67.681 18.394 67.585 18.31 67.429 18.202C67.273 18.094 67.123 17.98 66.979 17.86C66.835 17.74 66.751 17.632 66.727 17.536C66.727 17.404 66.775 17.152 66.871 16.78C66.967 16.408 67.093 15.988 67.249 15.52C67.405 15.04 67.561 14.572 67.717 14.116C67.885 13.648 68.029 13.258 68.149 12.946C68.233 12.73 68.305 12.544 68.365 12.388C68.425 12.22 68.473 12.088 68.509 11.992C68.557 11.86 68.641 11.668 68.761 11.416C68.881 11.164 69.007 10.906 69.139 10.642C69.283 10.378 69.403 10.15 69.499 9.958C69.595 9.766 69.643 9.67 69.643 9.67C69.655 9.574 69.721 9.394 69.841 9.13C69.961 8.866 70.111 8.56 70.291 8.212C70.471 7.864 70.657 7.522 70.849 7.186C71.041 6.838 71.215 6.532 71.371 6.268C71.515 6.052 71.623 5.932 71.695 5.908C71.779 5.872 71.851 5.878 71.911 5.926C72.175 5.902 72.403 5.908 72.595 5.944C72.799 5.968 72.955 6.016 73.063 6.088C73.183 6.148 73.249 6.22 73.261 6.304C73.285 6.34 73.285 6.496 73.261 6.772C73.249 7.036 73.225 7.27 73.189 7.474C73.117 8.062 73.081 8.608 73.081 9.112C73.081 9.604 73.111 10.15 73.171 10.75C73.243 11.338 73.321 12.07 73.405 12.946L73.675 14.692L73.999 13.99C74.119 13.726 74.227 13.462 74.323 13.198C74.419 12.922 74.515 12.688 74.611 12.496C74.707 12.22 74.809 11.956 74.917 11.704C75.037 11.44 75.097 11.308 75.097 11.308C75.205 11.152 75.307 10.942 75.403 10.678C75.511 10.414 75.607 10.15 75.691 9.886C75.787 9.622 75.859 9.424 75.907 9.292C75.931 9.208 75.967 9.082 76.015 8.914C76.075 8.746 76.135 8.56 76.195 8.356C76.267 8.152 76.333 7.954 76.393 7.762C76.465 7.522 76.531 7.306 76.591 7.114C76.651 6.922 76.705 6.76 76.753 6.628C76.801 6.484 76.831 6.388 76.843 6.34C76.843 6.34 76.867 6.31 76.915 6.25C76.963 6.19 77.017 6.094 77.077 5.962L77.725 5.818C78.001 6.046 78.157 6.262 78.193 6.466C78.241 6.658 78.205 6.91 78.085 7.222C78.073 7.342 78.043 7.474 77.995 7.618C77.947 7.75 77.923 7.816 77.923 7.816C77.995 7.816 78.001 7.9 77.941 8.068C77.893 8.224 77.857 8.362 77.833 8.482C77.809 8.566 77.767 8.71 77.707 8.914C77.659 9.118 77.605 9.334 77.545 9.562C77.485 9.79 77.431 9.988 77.383 10.156C77.359 10.252 77.293 10.432 77.185 10.696C77.077 10.948 76.951 11.236 76.807 11.56C76.663 11.884 76.513 12.214 76.357 12.55C76.213 12.874 76.081 13.156 75.961 13.396C75.841 13.636 75.757 13.798 75.709 13.882C75.673 13.954 75.631 14.044 75.583 14.152C75.547 14.26 75.499 14.344 75.439 14.404C75.379 14.596 75.271 14.812 75.115 15.052C74.959 15.292 74.791 15.526 74.611 15.754C74.443 15.982 74.293 16.174 74.161 16.33C74.005 16.498 73.849 16.624 73.693 16.708C73.537 16.792 73.357 16.786 73.153 16.69C72.961 16.594 72.721 16.378 72.433 16.042C72.373 15.946 72.307 15.736 72.235 15.412C72.163 15.088 72.085 14.716 72.001 14.296C71.929 13.864 71.857 13.438 71.785 13.018C71.713 12.586 71.659 12.22 71.623 11.92C71.575 11.68 71.557 11.494 71.569 11.362C71.581 11.218 71.587 11.068 71.587 10.912C71.587 10.72 71.587 10.576 71.587 10.48C71.599 10.372 71.611 10.27 71.623 10.174C71.635 10.066 71.641 9.928 71.641 9.76C71.653 9.628 71.647 9.55 71.623 9.526C71.599 9.49 71.551 9.52 71.479 9.616C71.275 9.916 71.101 10.192 70.957 10.444C70.813 10.696 70.705 10.9 70.633 11.056C70.585 11.188 70.495 11.41 70.363 11.722C70.231 12.022 70.087 12.358 69.931 12.73C69.775 13.102 69.625 13.45 69.481 13.774C69.349 14.098 69.247 14.344 69.175 14.512C69.091 14.692 69.001 14.938 68.905 15.25C68.821 15.55 68.737 15.868 68.653 16.204C68.569 16.528 68.497 16.816 68.437 17.068C68.389 17.32 68.353 17.482 68.329 17.554C68.317 17.566 68.275 17.638 68.203 17.77C68.143 17.902 68.095 18.004 68.059 18.076Z" fill="black"/>
<rect x="28" y="21.5" width="30" height="15" rx="7.5" fill="#A0E5E2"/>
<path d="M34.3173 30.436C34.2693 30.436 34.2093 30.436 34.1373 30.436C34.0653 30.428 33.9853 30.408 33.8973 30.376C33.7773 30.376 33.6813 30.352 33.6093 30.304C33.5453 30.248 33.4973 30.192 33.4653 30.136C33.3773 30.016 33.3813 29.924 33.4773 29.86C33.5813 29.788 33.7813 29.736 34.0773 29.704C34.2133 29.672 34.4133 29.648 34.6773 29.632C34.9493 29.608 35.2413 29.592 35.5533 29.584C35.8653 29.568 36.1613 29.556 36.4413 29.548C36.7213 29.54 36.9413 29.536 37.1013 29.536C37.3093 29.536 37.4933 29.556 37.6533 29.596C37.8213 29.636 37.9493 29.7 38.0373 29.788C38.1573 29.908 38.1853 30.036 38.1213 30.172C38.0573 30.3 37.9333 30.348 37.7493 30.316C37.7093 30.316 37.6333 30.32 37.5213 30.328C37.4093 30.336 37.2853 30.344 37.1493 30.352C37.0213 30.36 36.9093 30.368 36.8133 30.376C36.7653 30.376 36.6333 30.38 36.4173 30.388C36.2013 30.396 35.9493 30.404 35.6613 30.412C35.3813 30.42 35.1133 30.428 34.8573 30.436C34.6093 30.436 34.4293 30.436 34.3173 30.436ZM35.9253 32.308C35.8053 32.396 35.7093 32.392 35.6373 32.296C35.5733 32.192 35.5253 31.992 35.4933 31.696C35.4613 31.56 35.4333 31.36 35.4093 31.096C35.3933 30.824 35.3773 30.532 35.3613 30.22C35.3533 29.908 35.3453 29.612 35.3373 29.332C35.3293 29.052 35.3253 28.832 35.3253 28.672C35.3253 28.464 35.3453 28.28 35.3853 28.12C35.4253 27.952 35.4853 27.824 35.5653 27.736C35.6853 27.616 35.8133 27.588 35.9493 27.652C36.0853 27.716 36.1373 27.84 36.1053 28.024C36.1133 28.064 36.1173 28.14 36.1173 28.252C36.1253 28.364 36.1333 28.488 36.1413 28.624C36.1493 28.752 36.1573 28.864 36.1653 28.96C36.1653 29.008 36.1693 29.14 36.1773 29.356C36.1853 29.572 36.1933 29.824 36.2013 30.112C36.2093 30.392 36.2133 30.66 36.2133 30.916C36.2213 31.164 36.2253 31.344 36.2253 31.456C36.2253 31.504 36.2213 31.564 36.2133 31.636C36.2133 31.708 36.1973 31.788 36.1653 31.876C36.1653 31.996 36.1373 32.092 36.0813 32.164C36.0333 32.228 35.9813 32.276 35.9253 32.308ZM44.0551 32.464C43.9991 32.464 43.8951 32.444 43.7431 32.404C43.5991 32.364 43.4471 32.316 43.2871 32.26C43.1351 32.196 43.0151 32.128 42.9271 32.056C42.6551 31.824 42.4591 31.568 42.3391 31.288C42.2191 31 42.1471 30.708 42.1231 30.412C42.1071 30.116 42.1191 29.836 42.1591 29.572C42.2471 29.06 42.4311 28.552 42.7111 28.048C42.9911 27.536 43.3271 27.112 43.7191 26.776C43.9271 26.592 44.1351 26.436 44.3431 26.308C44.5511 26.18 44.7751 26.088 45.0151 26.032C45.1031 26.008 45.2271 25.996 45.3871 25.996C45.5551 25.988 45.6671 25.984 45.7231 25.984C45.8831 25.984 46.0591 26.02 46.2511 26.092C46.4511 26.156 46.6231 26.236 46.7671 26.332C46.9111 26.42 46.9831 26.504 46.9831 26.584C46.9831 26.64 46.9791 26.696 46.9711 26.752C46.9631 26.808 46.9271 26.82 46.8631 26.788H46.7431L46.8631 27.148C46.8951 27.212 46.9231 27.3 46.9471 27.412C46.9711 27.516 46.9831 27.612 46.9831 27.7C46.9831 27.78 46.9711 27.9 46.9471 28.06C46.9311 28.212 46.9031 28.376 46.8631 28.552C46.8311 28.728 46.7951 28.892 46.7551 29.044C46.7231 29.196 46.6911 29.308 46.6591 29.38C46.6351 29.428 46.6191 29.476 46.6111 29.524C46.6111 29.564 46.6111 29.6 46.6111 29.632C46.5791 29.696 46.5271 29.808 46.4551 29.968C46.3831 30.128 46.3311 30.24 46.2991 30.304C46.2671 30.336 46.2391 30.364 46.2151 30.388C46.1991 30.412 46.2071 30.44 46.2391 30.472C46.2391 30.496 46.2191 30.552 46.1791 30.64C46.1391 30.72 46.0951 30.796 46.0471 30.868C46.0071 30.94 45.9751 30.976 45.9511 30.976C45.9511 30.976 45.9391 30.98 45.9151 30.988C45.8991 30.988 45.8911 31 45.8911 31.024C45.8911 31.056 45.8351 31.14 45.7231 31.276C45.6191 31.412 45.4951 31.552 45.3511 31.696C45.2711 31.776 45.1431 31.88 44.9671 32.008C44.7911 32.128 44.6151 32.236 44.4391 32.332C44.2711 32.42 44.1431 32.464 44.0551 32.464ZM44.0311 31.312C44.1191 31.312 44.2031 31.3 44.2831 31.276C44.3631 31.244 44.4311 31.2 44.4871 31.144C44.6311 31.048 44.7671 30.92 44.8951 30.76C45.0311 30.6 45.1431 30.416 45.2311 30.208C45.3191 30.088 45.3871 29.964 45.4351 29.836C45.4911 29.7 45.5751 29.472 45.6871 29.152C45.7511 29.064 45.7951 28.956 45.8191 28.828C45.8431 28.7 45.8551 28.592 45.8551 28.504C45.8551 28.416 45.8551 28.296 45.8551 28.144C45.8631 27.992 45.8831 27.864 45.9151 27.76C45.9151 27.552 45.9111 27.432 45.9031 27.4C45.8951 27.36 45.8631 27.308 45.8071 27.244C45.7751 27.22 45.7311 27.196 45.6751 27.172C45.6271 27.148 45.5751 27.136 45.5191 27.136C45.4631 27.136 45.3871 27.152 45.2911 27.184C45.2031 27.208 45.1271 27.24 45.0631 27.28C45.0071 27.312 44.9431 27.316 44.8711 27.292C44.8071 27.268 44.7751 27.236 44.7751 27.196C44.7751 27.084 44.7191 27.092 44.6071 27.22C44.5031 27.34 44.3631 27.508 44.1871 27.724C44.0431 27.868 43.9191 28.016 43.8151 28.168C43.7191 28.312 43.6711 28.4 43.6711 28.432C43.6711 28.464 43.6591 28.504 43.6351 28.552C43.6111 28.6 43.5871 28.656 43.5631 28.72C43.5231 28.776 43.4751 28.868 43.4191 28.996C43.3631 29.124 43.3071 29.252 43.2511 29.38C43.2031 29.5 43.1711 29.592 43.1551 29.656C43.1551 29.688 43.1551 29.776 43.1551 29.92C43.1551 30.056 43.1551 30.184 43.1551 30.304C43.1551 30.44 43.1591 30.54 43.1671 30.604C43.1751 30.668 43.1871 30.72 43.2031 30.76C43.2271 30.8 43.2591 30.86 43.2991 30.94C43.3311 30.996 43.3791 31.064 43.4431 31.144C43.5151 31.216 43.5631 31.268 43.5871 31.3C43.6751 31.38 43.7311 31.412 43.7551 31.396C43.7871 31.372 43.8791 31.344 44.0311 31.312ZM47.8854 31.876C47.7174 31.932 47.5774 31.96 47.4654 31.96C47.3534 31.952 47.2294 31.9 47.0934 31.804C46.9334 31.644 46.8774 31.484 46.9254 31.324C46.9814 31.156 47.1254 30.992 47.3574 30.832C47.5174 30.736 47.6334 30.688 47.7054 30.688C47.7854 30.68 47.9014 30.708 48.0534 30.772C48.3254 30.94 48.4454 31.128 48.4134 31.336C48.3814 31.536 48.2054 31.716 47.8854 31.876ZM50.2643 32.404C50.2323 32.388 50.1763 32.344 50.0963 32.272C50.0243 32.2 49.9523 32.12 49.8803 32.032C49.8083 31.936 49.7603 31.864 49.7363 31.816C49.7123 31.776 49.7123 31.704 49.7363 31.6C49.7683 31.496 49.8003 31.444 49.8323 31.444C49.8563 31.46 49.8883 31.432 49.9283 31.36C49.9683 31.288 50.0083 31.212 50.0483 31.132C50.0883 31.044 50.1083 30.992 50.1083 30.976C50.1163 30.944 50.1363 30.92 50.1683 30.904C50.2083 30.88 50.2443 30.856 50.2763 30.832C50.3163 30.768 50.3683 30.704 50.4323 30.64C50.5043 30.568 50.5603 30.508 50.6003 30.46C50.6643 30.38 50.7803 30.26 50.9483 30.1C51.1163 29.94 51.2803 29.776 51.4403 29.608C51.6083 29.424 51.7563 29.264 51.8843 29.128C52.0123 28.984 52.0803 28.884 52.0883 28.828C52.0883 28.828 52.1003 28.816 52.1243 28.792C52.1563 28.76 52.1923 28.732 52.2323 28.708C52.2723 28.684 52.3243 28.644 52.3883 28.588C52.4603 28.532 52.5203 28.48 52.5683 28.432C52.5843 28.368 52.6203 28.296 52.6763 28.216C52.7403 28.128 52.8123 28.044 52.8923 27.964C52.9563 27.868 53.0163 27.764 53.0723 27.652C53.1283 27.532 53.1643 27.444 53.1803 27.388C53.2043 27.3 53.1963 27.248 53.1563 27.232C53.1163 27.208 53.0083 27.168 52.8323 27.112C52.6403 27.048 52.4603 27.036 52.2923 27.076C52.1243 27.116 51.9003 27.236 51.6203 27.436C51.5083 27.46 51.4043 27.492 51.3083 27.532C51.2203 27.572 51.1443 27.588 51.0803 27.58C51.0483 27.564 51.0123 27.528 50.9723 27.472C50.9323 27.416 50.8883 27.364 50.8403 27.316L50.7203 26.8L51.0923 26.596C51.4203 26.388 51.7323 26.232 52.0283 26.128C52.3323 26.016 52.5963 25.996 52.8203 26.068C52.9083 26.068 52.9883 26.08 53.0603 26.104C53.1323 26.12 53.1683 26.128 53.1683 26.128C53.2323 26.12 53.3243 26.152 53.4443 26.224C53.5723 26.296 53.6963 26.388 53.8163 26.5C53.9443 26.612 54.0323 26.724 54.0803 26.836C54.2083 27.028 54.2563 27.26 54.2243 27.532C54.1923 27.804 54.0763 28.088 53.8763 28.384C53.8363 28.432 53.7483 28.532 53.6123 28.684C53.4763 28.836 53.3203 29.008 53.1443 29.2C52.9763 29.384 52.8203 29.548 52.6763 29.692C52.5403 29.836 52.4523 29.928 52.4123 29.968C52.3563 29.992 52.2603 30.068 52.1243 30.196C51.9963 30.324 51.8563 30.468 51.7043 30.628C51.5603 30.78 51.4363 30.916 51.3323 31.036C51.2363 31.148 51.1963 31.204 51.2123 31.204C51.2043 31.236 51.2443 31.236 51.3323 31.204C51.4283 31.164 51.5123 31.132 51.5843 31.108C51.7043 31.068 51.8443 31.032 52.0043 31C52.1723 30.96 52.3403 30.928 52.5083 30.904C52.6763 30.88 52.8203 30.864 52.9403 30.856C53.0683 30.848 53.1443 30.856 53.1683 30.88C53.1843 30.92 53.1963 30.936 53.2043 30.928C53.2203 30.912 53.2283 30.904 53.2283 30.904C53.2443 30.848 53.3443 30.832 53.5283 30.856C53.7203 30.88 53.8923 30.916 54.0443 30.964C54.1323 30.988 54.2003 31.02 54.2483 31.06C54.3043 31.1 54.3323 31.136 54.3323 31.168C54.3323 31.168 54.3403 31.188 54.3563 31.228C54.3803 31.26 54.4163 31.304 54.4643 31.36C54.5923 31.464 54.5923 31.576 54.4643 31.696C54.3443 31.816 54.1243 31.848 53.8043 31.792C53.5963 31.792 53.4243 31.804 53.2883 31.828C53.2563 31.844 53.1883 31.852 53.0843 31.852C52.9803 31.852 52.8803 31.856 52.7843 31.864C52.6403 31.848 52.4963 31.856 52.3523 31.888C52.2083 31.912 52.0363 31.956 51.8363 32.02C51.7643 32.044 51.6523 32.08 51.5003 32.128C51.3483 32.176 51.1843 32.224 51.0083 32.272C50.8323 32.32 50.6723 32.356 50.5283 32.38C50.3923 32.404 50.3043 32.412 50.2643 32.404Z" fill="black"/>
</svg>
