<svg width="98" height="89" viewBox="0 0 98 89" fill="none" xmlns="http://www.w3.org/2000/svg">
<path d="M30.0932 36.9825C37.0058 35.452 49.6128 36.9825 56.5 36.9825C61.8347 36.9825 74.8713 35.4137 81.2728 38.8606C87.3767 42.1474 82.2118 44.0255 79.4514 46.0858C74.2657 49.9563 87.3767 51.0686 85.4482 56.1281C84.397 58.8858 80.6585 59.2908 76 59.8958C75.1913 60.0009 79.5 70.0003 74.5 70.0003C69.5 70.0003 74.515 59.7796 73.5 60.0003C70.5473 60.6424 64.5069 62.4579 61.722 64.3679C51.3716 71.4665 46.0873 62.0471 33 57.9055C32 57.5891 34 61.9289 31 61.5003C28.5251 61.1468 31.5 57.0003 29.5937 57.0003C27.0773 56.4571 24.2926 56.1281 21.1717 56.1281C2.83204 56.1281 19.6271 39.2997 30.0932 36.9825Z" fill="black"/>
<path d="M60.0107 57.0904C62.2189 57.2419 67.5557 56.7427 71.2368 53.5342M45.2591 52.7045C42.377 51.8552 35.7141 50.204 32.1191 50.3937C27.6253 50.6307 28.9389 47.0566 30.3841 45.9789M56 42.5002C62.1667 41.8336 71.7368 41.0002 71 44.0002C70.6316 45.5002 69.2 46.2002 68 47.0002" stroke="white" stroke-width="1.87815" stroke-linecap="round" stroke-linejoin="round"/>
<path d="M64.4426 22.9231L67.8361 25.6923L68.2787 26.6923M71.6721 30.3077L68.7213 27.6923L68.2787 26.6923M64.4426 30.3077C64.7869 29.7436 65.5934 28.5231 66.0656 28.1538C66.6557 27.6923 72.7049 23.5385 72.7049 22.9231M69.1639 22L68.2787 26.6923M68.2787 26.6923L67.8361 28.1538L68.7213 32M68.2787 26.6923L64 26.1538M68.2787 26.6923H73" stroke="black" stroke-width="1.5" stroke-linecap="round" stroke-linejoin="round"/>
<path d="M47.6771 25.6573L50.2312 24.1793L50.9553 24.1425M54.0274 22.8711L51.6795 24.1057L50.9553 24.1425M52.1971 27.4601C51.9389 27.1039 51.3961 26.2939 51.2896 25.9041C51.1565 25.4168 50.1455 20.563 49.7689 20.4128M48.3074 22.4351L50.9553 24.1425M50.9553 24.1425L51.7379 24.7803L54.3162 25.1573M50.9553 24.1425L49.5425 26.727M50.9553 24.1425L52.1506 21.1456" stroke="black" stroke-width="1.5" stroke-linecap="round" stroke-linejoin="round"/>
<path d="M32.0916 28.4856L31.9977 30.9404L31.7077 31.4487M31.2458 34.1527L31.4177 31.957L31.7077 31.4487M28.8807 30.6599C29.2386 30.6602 30.0332 30.6905 30.3482 30.8098C30.7419 30.9591 34.527 32.6585 34.7946 32.4773M34.0375 30.4948L31.7077 31.4487M31.7077 31.4487L30.9274 31.6652L29.5446 33.2253M31.7077 31.4487L30.542 29.223M31.7077 31.4487L33.2523 33.7297" stroke="black" stroke-width="1.5" stroke-linecap="round" stroke-linejoin="round"/>
<path d="M13.8771 29.3C13.8171 29.34 13.7371 29.34 13.6371 29.3C13.5371 29.28 13.4271 29.22 13.3071 29.12C13.1871 29.04 13.0571 28.94 12.9171 28.82C12.8371 28.74 12.7871 28.65 12.7671 28.55C12.7471 28.43 12.7671 28.23 12.8271 27.95C12.8871 27.67 12.9771 27.22 13.0971 26.6C13.1771 26.2 13.2671 25.8 13.3671 25.4C13.4671 25 13.5571 24.67 13.6371 24.41C13.7171 24.13 13.7571 23.99 13.7571 23.99C13.8571 23.95 13.9971 23.65 14.1771 23.09C14.3771 22.53 14.5971 21.85 14.8371 21.05C14.9171 20.77 15.0571 20.3 15.2571 19.64C15.4571 18.98 15.6571 18.34 15.8571 17.72C16.0371 17.14 16.1871 16.62 16.3071 16.16C16.4271 15.68 16.4871 15.44 16.4871 15.44C16.4871 15.44 16.3371 15.53 16.0371 15.71C15.7571 15.87 15.3971 16.09 14.9571 16.37C14.5171 16.63 14.0871 16.92 13.6671 17.24C13.3271 17.44 12.9171 17.72 12.4371 18.08C11.9771 18.44 11.5671 18.73 11.2071 18.95C10.6671 19.37 10.3371 19.61 10.2171 19.67C10.0971 19.71 9.94707 19.68 9.76707 19.58C9.50707 19.36 9.32707 19.13 9.22707 18.89C9.14707 18.65 9.16707 18.43 9.28707 18.23C9.32707 18.21 9.44707 18.13 9.64707 17.99C9.86707 17.85 10.1071 17.69 10.3671 17.51C10.6271 17.33 10.8671 17.16 11.0871 17C11.3271 16.84 11.4971 16.73 11.5971 16.67C11.6571 16.67 11.7671 16.6 11.9271 16.46C12.0871 16.32 12.2571 16.19 12.4371 16.07C12.5371 15.95 12.8871 15.68 13.4871 15.26C14.0871 14.84 14.7371 14.37 15.4371 13.85C16.1771 13.39 16.7971 13.02 17.2971 12.74C17.8171 12.46 18.1171 12.33 18.1971 12.35C18.2571 12.35 18.3471 12.39 18.4671 12.47C18.6071 12.55 18.7371 12.65 18.8571 12.77C18.9771 12.89 19.0471 13.01 19.0671 13.13C19.1871 13.27 19.1271 13.59 18.8871 14.09C18.8071 14.27 18.6771 14.6 18.4971 15.08C18.3171 15.54 18.1171 16.08 17.8971 16.7C17.6971 17.3 17.4971 17.9 17.2971 18.5C17.1171 19.08 16.9671 19.58 16.8471 20C16.6871 20.62 16.5371 21.1 16.3971 21.44C16.2771 21.78 16.1571 22.11 16.0371 22.43C15.9371 22.73 15.8171 23.15 15.6771 23.69C15.5371 24.01 15.3871 24.42 15.2271 24.92C15.0871 25.4 14.9571 25.88 14.8371 26.36C14.7171 26.82 14.6271 27.2 14.5671 27.5C14.4071 27.94 14.2771 28.33 14.1771 28.67C14.0771 29.01 13.9771 29.22 13.8771 29.3Z" fill="black"/>
</svg>
