<svg width="24" height="24" viewBox="0 0 24 24" fill="none" xmlns="http://www.w3.org/2000/svg">
<path fill-rule="evenodd" clip-rule="evenodd" d="M6.38212 16.7137L6.4181 16.6853L6.52486 16.6008C6.6181 16.5268 6.75386 16.4187 6.92298 16.2829C7.26134 16.0112 7.73254 15.6293 8.26327 15.189C9.33074 14.3035 10.6168 13.2002 11.5502 12.2857C12.7418 11.1181 14.0298 9.64738 15.0287 8.45609C15.0622 8.41619 15.0953 8.37663 15.128 8.33742C14.1891 8.44001 13.1198 8.52262 12.2244 8.49963C11.3514 8.47721 10.2717 8.34487 9.43612 8.22405C9.01279 8.16284 8.6416 8.10301 8.37598 8.05844C8.24306 8.03614 8.13626 8.01761 8.06225 8.00457L7.97658 7.98933L7.95368 7.9852L7.94574 7.98376C7.94574 7.98376 7.9449 7.9836 8.11823 7.03712L7.94574 7.98376C7.40249 7.88427 7.04191 7.36307 7.14139 6.81982C7.24088 6.2766 7.76188 5.91686 8.30511 6.01631L8.31085 6.01735L8.3305 6.0209L8.40924 6.0349C8.47844 6.04709 8.57986 6.06469 8.70692 6.08601C8.96127 6.12869 9.31717 6.18605 9.72233 6.24463C10.5437 6.36339 11.5265 6.48105 12.2757 6.50029C13.2264 6.5247 14.4772 6.40796 15.5233 6.27747C16.0394 6.21311 16.4929 6.14707 16.8171 6.09716C16.8932 6.08545 16.962 6.07464 17.0228 6.06497C17.5674 5.9783 17.9111 6.00937 18.1903 6.27747C18.4537 6.53028 18.5 6.75326 18.5 7.37028L18.5 16.375C18.5 16.9272 18.0523 17.375 17.5 17.375C16.9478 17.375 16.5 16.9272 16.5 16.375L16.5 9.81404C15.495 11.01 14.1861 12.503 12.9499 13.7142C11.9545 14.6895 10.6155 15.8363 9.54019 16.7283C8.99953 17.1768 8.51987 17.5656 8.17524 17.8423C8.00286 17.9807 7.86409 18.0913 7.76816 18.1674L7.65751 18.255L7.61877 18.2856L7.61795 18.2862C7.18372 18.6275 6.55506 18.5521 6.21379 18.1179C5.87253 17.6836 5.9479 17.055 6.38212 16.7137Z" fill="black"/>
</svg>
