<svg width="160" height="39" viewBox="0 0 160 39" fill="none" xmlns="http://www.w3.org/2000/svg">
<path d="M4.60746 30.67C4.02746 30.63 3.60746 30.5 3.34746 30.28C3.08746 30.08 2.95746 29.75 2.95746 29.29C3.07746 28.87 3.19746 28.52 3.31746 28.24C3.45746 27.96 3.54746 27.69 3.58746 27.43C3.64746 27.19 3.70746 26.96 3.76746 26.74C3.82746 26.52 3.90746 26.25 4.00746 25.93C4.16746 25.45 4.34746 24.86 4.54746 24.16C4.76746 23.46 4.99746 22.76 5.23746 22.06C5.47746 21.34 5.68746 20.75 5.86746 20.29C6.02746 19.83 6.15746 19.44 6.25746 19.12C6.37746 18.8 6.49746 18.49 6.61746 18.19C6.73746 17.89 6.86746 17.54 7.00746 17.14C7.00746 17.14 7.05746 16.99 7.15746 16.69C7.27746 16.37 7.39746 16.01 7.51746 15.61C7.65746 15.19 7.77746 14.82 7.87746 14.5C7.99746 14.18 8.05746 14.02 8.05746 14.02C8.27746 13.56 8.46746 13.13 8.62746 12.73C8.80746 12.31 8.95746 11.87 9.07746 11.41C8.97746 11.25 8.90746 11.07 8.86746 10.87C8.84746 10.67 8.85746 10.49 8.89746 10.33C8.97746 10.05 9.12746 9.83 9.34746 9.67C9.56746 9.51 9.85746 9.47 10.2175 9.55C10.4975 9.61 10.8675 9.66 11.3275 9.7C11.8075 9.74 12.2375 9.76 12.6175 9.76C13.0175 9.76 13.2175 9.76 13.2175 9.76C13.3375 9.7 13.6875 9.62 14.2675 9.52C14.8475 9.42 15.5475 9.31 16.3675 9.19C17.1875 9.07 18.0175 8.96 18.8575 8.86C19.7175 8.76 20.4775 8.67 21.1375 8.59C21.3775 8.55 21.6175 8.55 21.8575 8.59C22.1175 8.63 22.3475 8.67 22.5475 8.71C22.9875 8.79 23.3475 9.02 23.6275 9.4C23.9275 9.78 24.0275 10.18 23.9275 10.6C23.8075 10.96 23.6475 11.16 23.4475 11.2C23.2675 11.24 22.9375 11.14 22.4575 10.9C22.2775 11.18 22.1775 11.35 22.1575 11.41C22.1375 11.47 22.1175 11.56 22.0975 11.68C22.0975 11.8 21.9975 12.08 21.7975 12.52C21.7175 12.64 21.5975 12.88 21.4375 13.24C21.2975 13.6 21.1475 14.01 20.9875 14.47C20.8475 14.91 20.7275 15.32 20.6275 15.7C20.5275 16.08 20.4775 16.35 20.4775 16.51C20.4575 16.53 20.3675 16.81 20.2075 17.35C20.0675 17.89 19.8875 18.56 19.6675 19.36C19.4875 19.96 19.2975 20.59 19.0975 21.25C18.9175 21.91 18.7375 22.56 18.5575 23.2C18.3775 23.82 18.2175 24.38 18.0775 24.88C17.9375 25.38 17.8275 25.77 17.7475 26.05C17.6675 26.31 17.6275 26.42 17.6275 26.38C17.6075 26.82 17.5575 27.24 17.4775 27.64C17.4175 28.04 17.3775 28.44 17.3575 28.84C17.4175 29.02 17.4075 29.17 17.3275 29.29C17.2675 29.41 17.1975 29.48 17.1175 29.5C16.8575 29.72 16.4875 29.83 16.0075 29.83C15.5275 29.83 15.1875 29.7 14.9875 29.44C14.8475 29.16 14.7475 28.93 14.6875 28.75C14.6275 28.57 14.6075 28.4 14.6275 28.24C14.6675 27.66 14.7375 27.09 14.8375 26.53C14.9375 25.95 15.0275 25.4 15.1075 24.88C15.2275 24.3 15.3575 23.79 15.4975 23.35C15.6375 22.89 15.7275 22.69 15.7675 22.75L16.3675 20.59C16.5475 20.09 16.6675 19.67 16.7275 19.33C16.7875 18.97 16.8575 18.6 16.9375 18.22C17.0375 17.84 17.1875 17.36 17.3875 16.78C17.5875 16.3 17.7475 15.81 17.8675 15.31C18.0075 14.81 18.1375 14.31 18.2575 13.81C18.3375 13.55 18.4375 13.24 18.5575 12.88C18.6775 12.5 18.7975 12.17 18.9175 11.89C19.0375 11.59 19.1175 11.44 19.1575 11.44C18.6975 11.48 18.3175 11.53 18.0175 11.59C17.7375 11.65 17.4375 11.71 17.1175 11.77C16.8175 11.81 16.3875 11.87 15.8275 11.95C15.5475 11.97 15.1975 12.02 14.7775 12.1C14.3775 12.16 13.9675 12.22 13.5475 12.28C13.1275 12.34 12.7775 12.39 12.4975 12.43C12.3775 12.45 12.2675 12.47 12.1675 12.49C12.0875 12.49 12.0275 12.49 11.9875 12.49C11.9075 12.71 11.7375 13.11 11.4775 13.69C11.2175 14.27 10.9375 14.91 10.6375 15.61C10.3375 16.31 10.0675 16.94 9.82746 17.5C9.72746 17.76 9.62746 18.03 9.52746 18.31C9.42746 18.57 9.31746 18.83 9.19746 19.09C9.09746 19.35 8.99746 19.62 8.89746 19.9C8.79746 20.16 8.69746 20.43 8.59746 20.71C8.49746 20.97 8.39746 21.23 8.29746 21.49C8.09746 22.13 7.91746 22.7 7.75746 23.2C7.61746 23.7 7.47746 24.14 7.33746 24.52C7.21746 24.9 7.10746 25.24 7.00746 25.54C6.90746 25.84 6.80746 26.12 6.70746 26.38C6.58746 26.76 6.46746 27.13 6.34746 27.49C6.24746 27.83 6.14746 28.25 6.04746 28.75C6.02746 28.93 5.99746 29.11 5.95746 29.29C5.91746 29.45 5.87746 29.62 5.83746 29.8C5.69746 30.1 5.53746 30.32 5.35746 30.46C5.19746 30.62 4.94746 30.69 4.60746 30.67ZM24.3629 30.55C23.6229 30.01 23.0329 29.51 22.5929 29.05C22.1729 28.57 21.9429 28.11 21.9029 27.67C21.8629 27.31 21.8629 26.82 21.9029 26.2C21.9629 25.58 22.0329 24.97 22.1129 24.37C22.1929 23.77 22.2629 23.32 22.3229 23.02C22.4229 22.92 22.4629 22.79 22.4429 22.63C22.4429 22.45 22.4429 22.36 22.4429 22.36C22.4229 22.26 22.4929 22 22.6529 21.58C22.8129 21.14 22.9629 20.58 23.1029 19.9C23.5029 18.7 23.8829 17.7 24.2429 16.9C24.6229 16.08 24.9929 15.38 25.3529 14.8C25.7129 14.22 26.0729 13.69 26.4329 13.21C27.2529 12.37 28.0229 11.7 28.7429 11.2C29.4829 10.7 30.1629 10.31 30.7829 10.03C31.1829 9.79 31.5529 9.6 31.8929 9.46C32.2329 9.32 32.5129 9.3 32.7329 9.4C33.8529 9.64 34.8029 10.13 35.5829 10.87C36.3629 11.61 36.8829 12.68 37.1429 14.08C37.2829 14.96 37.3629 15.76 37.3829 16.48C37.4229 17.18 37.3729 17.88 37.2329 18.58C37.0929 19.26 36.8329 20.01 36.4529 20.83C36.0929 21.65 35.5829 22.61 34.9229 23.71C34.1029 25.33 33.2029 26.69 32.2229 27.79C31.2629 28.87 30.2929 29.69 29.3129 30.25C28.3529 30.81 27.4329 31.11 26.5529 31.15C25.6929 31.21 24.9629 31.01 24.3629 30.55ZM26.7629 28.57C27.2229 28.51 27.5929 28.42 27.8729 28.3C28.1729 28.18 28.4829 27.95 28.8029 27.61C29.1229 27.27 29.5729 26.77 30.1529 26.11C30.6729 25.51 31.1029 25 31.4429 24.58C31.8029 24.16 32.1029 23.73 32.3429 23.29C32.6029 22.85 32.8429 22.33 33.0629 21.73C33.3029 21.11 33.5629 20.32 33.8429 19.36C34.0029 18.76 34.1129 18.32 34.1729 18.04C34.2529 17.74 34.3029 17.49 34.3229 17.29C34.3429 17.09 34.3429 16.82 34.3229 16.48C34.3229 16.12 34.3229 15.58 34.3229 14.86C34.3029 14.52 34.2329 14.14 34.1129 13.72C33.9929 13.28 33.8529 12.97 33.6929 12.79C33.4929 12.57 33.1929 12.38 32.7929 12.22C32.3929 12.06 31.9729 12.08 31.5329 12.28C31.2929 12.38 30.9929 12.59 30.6329 12.91C30.2729 13.21 29.9029 13.57 29.5229 13.99C29.1429 14.41 28.7829 14.83 28.4429 15.25C28.1029 15.67 27.8329 16.05 27.6329 16.39C27.4329 16.73 27.3329 16.97 27.3329 17.11C27.3329 17.11 27.3229 17.16 27.3029 17.26C27.3029 17.36 27.2629 17.46 27.1829 17.56C26.9229 17.84 26.6529 18.3 26.3729 18.94C26.0929 19.58 25.8329 20.31 25.5929 21.13C25.3529 21.95 25.1529 22.77 24.9929 23.59C24.8329 24.41 24.7329 25.15 24.6929 25.81C24.6929 26.13 24.6929 26.4 24.6929 26.62C24.6929 26.84 24.7129 27.04 24.7529 27.22C24.8129 27.38 24.9029 27.56 25.0229 27.76C25.1429 27.96 25.3829 28.16 25.7429 28.36C26.1229 28.56 26.4629 28.63 26.7629 28.57ZM51.3894 30.97C51.3494 31.03 51.1694 31.07 50.8494 31.09C50.5294 31.11 50.1894 31.06 49.8294 30.94C49.4894 30.82 49.2394 30.59 49.0794 30.25C48.9194 29.91 48.9594 29.42 49.1994 28.78C49.8594 27.06 50.4794 25.33 51.0594 23.59C51.6394 21.85 52.2194 20.11 52.7994 18.37C52.9794 17.77 53.1594 17.21 53.3394 16.69C53.5194 16.15 53.6894 15.62 53.8494 15.1C54.0294 14.58 54.1794 14.06 54.2994 13.54C54.3394 13.36 54.3794 13.18 54.4194 13C54.4794 12.82 54.5194 12.63 54.5394 12.43C54.5594 12.35 54.5694 12.28 54.5694 12.22C54.5694 12.14 54.5794 12.06 54.5994 11.98C54.2794 11.88 53.9194 11.85 53.5194 11.89C53.1394 11.93 52.7594 11.91 52.3794 11.83C52.0794 11.77 51.7494 11.75 51.3894 11.77C51.0294 11.77 50.6594 11.78 50.2794 11.8C49.8994 11.82 49.5294 11.85 49.1694 11.89C48.8094 11.93 48.4694 11.95 48.1494 11.95C48.1094 11.97 48.0694 11.99 48.0294 12.01C47.9894 12.03 47.9494 12.05 47.9094 12.07C47.6894 12.61 47.4594 13.15 47.2194 13.69C46.9994 14.23 46.7794 14.77 46.5594 15.31C46.4194 15.69 46.2494 16.06 46.0494 16.42C45.8694 16.78 45.6994 17.14 45.5394 17.5C45.4394 17.74 45.3394 17.99 45.2394 18.25C45.1394 18.51 45.0394 18.77 44.9394 19.03C44.8394 19.27 44.7294 19.52 44.6094 19.78C44.3094 20.5 43.9994 21.22 43.6794 21.94C43.3594 22.64 43.0594 23.35 42.7794 24.07C42.4994 24.81 42.2094 25.57 41.9094 26.35C41.6294 27.11 41.3794 27.87 41.1594 28.63C41.0994 28.83 41.0294 29.09 40.9494 29.41C40.8894 29.73 40.8094 29.99 40.7094 30.19C40.5294 30.61 40.2294 30.84 39.8094 30.88C39.3894 30.94 38.9994 30.88 38.6394 30.7C38.2194 30.48 37.9494 30.25 37.8294 30.01C37.7294 29.77 37.7494 29.42 37.8894 28.96C38.1694 28.02 38.4694 27.08 38.7894 26.14C39.1294 25.2 39.4894 24.27 39.8694 23.35C40.2694 22.41 40.6794 21.51 41.0994 20.65C41.4394 19.95 41.7394 19.23 41.9994 18.49C42.2594 17.75 42.5594 17.04 42.8994 16.36C43.1794 15.84 43.4394 15.32 43.6794 14.8C43.9194 14.26 44.1394 13.71 44.3394 13.15C44.3794 13.03 44.4194 12.91 44.4594 12.79C44.4994 12.67 44.5394 12.55 44.5794 12.43C44.4994 12.49 44.3994 12.53 44.2794 12.55C44.1594 12.57 44.0194 12.57 43.8594 12.55C43.6594 12.53 43.4494 12.5 43.2294 12.46C43.0094 12.42 42.8294 12.4 42.6894 12.4C42.3694 12.14 42.1394 11.76 41.9994 11.26C41.8594 10.76 41.8894 10.32 42.0894 9.94C42.2694 9.62 42.5194 9.46 42.8394 9.46H45.1494C45.3694 9.46 45.5394 9.41 45.6594 9.31C45.7794 9.19 45.9194 9.09 46.0794 9.01C46.2394 8.91 46.4894 8.91 46.8294 9.01C47.1694 9.09 47.4794 9.14 47.7594 9.16C48.0394 9.16 48.3394 9.14 48.6594 9.1C48.7394 9.08 48.8194 9.07 48.8994 9.07C48.9794 9.05 49.0594 9.03 49.1394 9.01L52.4694 8.95C52.6694 8.95 52.8494 8.97 53.0094 9.01C53.1694 9.05 53.3394 9.08 53.5194 9.1C53.8394 9.12 54.2394 9.14 54.7194 9.16C55.1994 9.16 55.6694 9.2 56.1294 9.28C56.5894 9.34 56.9494 9.47 57.2094 9.67C57.3694 9.79 57.5294 9.97 57.6894 10.21C57.8694 10.43 57.9594 10.64 57.9594 10.84C57.9594 10.88 57.9194 11.04 57.8394 11.32C57.7794 11.6 57.6894 11.96 57.5694 12.4C57.4494 12.82 57.3194 13.29 57.1794 13.81C57.0394 14.31 56.8894 14.81 56.7294 15.31C56.5894 15.81 56.4594 16.27 56.3394 16.69C56.2194 17.07 56.1194 17.39 56.0394 17.65C55.9594 17.89 55.8994 18.05 55.8594 18.13C55.5594 18.91 55.2494 19.78 54.9294 20.74C54.6294 21.68 54.3294 22.62 54.0294 23.56C53.8894 24 53.7494 24.43 53.6094 24.85C53.4894 25.27 53.3594 25.68 53.2194 26.08C53.0994 26.42 52.9194 26.95 52.6794 27.67C52.4594 28.39 52.2294 29.06 51.9894 29.68C51.8894 29.98 51.7894 30.24 51.6894 30.46C51.5894 30.68 51.4894 30.85 51.3894 30.97ZM61.0827 29.77C60.0427 29.39 59.2327 28.64 58.6527 27.52C58.0727 26.38 57.9127 25.05 58.1727 23.53C58.2127 22.95 58.3027 22.43 58.4427 21.97C58.6027 21.51 58.7227 21.05 58.8027 20.59C58.8027 20.55 58.8227 20.49 58.8627 20.41C58.9027 20.31 58.9127 20.22 58.8927 20.14C58.9327 20.02 59.0227 19.8 59.1627 19.48C59.3027 19.14 59.4427 18.82 59.5827 18.52C59.7227 18.2 59.8127 18.02 59.8527 17.98C59.9527 17.94 60.0027 17.89 60.0027 17.83C60.0027 17.75 60.0027 17.71 60.0027 17.71C60.0027 17.55 60.1127 17.26 60.3327 16.84C60.5527 16.42 60.8327 15.96 61.1727 15.46C61.5327 14.94 61.8927 14.44 62.2527 13.96C62.6127 13.48 62.9327 13.08 63.2127 12.76C63.4927 12.44 63.6727 12.28 63.7527 12.28C63.8127 12.28 63.8627 12.24 63.9027 12.16C63.9427 12.08 63.9827 12.03 64.0227 12.01C64.0827 11.93 64.2627 11.81 64.5627 11.65C64.8827 11.49 65.2527 11.32 65.6727 11.14C66.1127 10.94 66.5427 10.76 66.9627 10.6C67.3827 10.44 67.7427 10.33 68.0427 10.27C68.9227 9.95 69.7127 9.95 70.4127 10.27C71.1127 10.59 71.6727 11.19 72.0927 12.07C72.5127 12.95 72.7327 14.07 72.7527 15.43C72.6727 15.87 72.6227 16.29 72.6027 16.69C72.6027 17.07 72.5727 17.35 72.5127 17.53C72.4927 17.97 72.4227 18.47 72.3027 19.03C72.1827 19.59 72.0627 20.08 71.9427 20.5C71.8227 20.9 71.7327 21.11 71.6727 21.13C71.6727 21.21 71.6527 21.29 71.6127 21.37C71.5727 21.43 71.5527 21.49 71.5527 21.55C71.5727 21.65 71.5027 21.88 71.3427 22.24C71.1827 22.6 70.9927 23 70.7727 23.44C70.5527 23.88 70.3527 24.26 70.1727 24.58C69.9927 24.9 69.8827 25.06 69.8427 25.06C69.8427 25.06 69.8227 25.07 69.7827 25.09C69.7427 25.09 69.7327 25.13 69.7527 25.21C69.7727 25.25 69.7027 25.35 69.5427 25.51C69.3827 25.67 69.2027 25.83 69.0027 25.99C68.8227 26.13 68.6827 26.2 68.5827 26.2C68.5827 26.2 68.5627 26.21 68.5227 26.23C68.5027 26.25 68.5227 26.29 68.5827 26.35C68.6027 26.39 68.4427 26.55 68.1027 26.83C67.7827 27.09 67.3727 27.4 66.8727 27.76C66.3727 28.1 65.8727 28.42 65.3727 28.72C64.8727 29 64.4727 29.17 64.1727 29.23C64.1127 29.31 64.0527 29.36 63.9927 29.38C63.9327 29.38 63.8527 29.39 63.7527 29.41C63.6127 29.55 63.3627 29.66 63.0027 29.74C62.6627 29.84 62.3127 29.89 61.9527 29.89C61.5927 29.91 61.3027 29.87 61.0827 29.77ZM64.1127 26.62C64.5127 26.48 64.9127 26.29 65.3127 26.05C65.7327 25.79 66.0927 25.52 66.3927 25.24C66.7127 24.94 66.9127 24.66 66.9927 24.4C67.0527 24.18 67.1127 24.02 67.1727 23.92C67.2527 23.8 67.3327 23.71 67.4127 23.65C67.5727 23.49 67.7727 23.19 68.0127 22.75C68.2727 22.31 68.5227 21.83 68.7627 21.31C69.0027 20.79 69.2027 20.3 69.3627 19.84C69.5427 19.36 69.6427 19.01 69.6627 18.79C69.6627 18.75 69.6927 18.58 69.7527 18.28C69.8127 17.98 69.8827 17.76 69.9627 17.62C70.0027 17.54 70.0127 17.47 69.9927 17.41C69.9927 17.33 69.9827 17.12 69.9627 16.78C69.9627 16.44 69.9727 15.83 69.9927 14.95C69.9727 14.23 69.9027 13.7 69.7827 13.36C69.6827 13 69.5527 12.78 69.3927 12.7C69.3527 12.66 69.2527 12.62 69.0927 12.58C68.9527 12.54 68.8027 12.52 68.6427 12.52C68.4827 12.5 68.3327 12.52 68.1927 12.58C68.0927 12.6 67.9527 12.65 67.7727 12.73C67.6127 12.79 67.4727 12.82 67.3527 12.82C67.1927 12.9 67.0827 13 67.0227 13.12C66.9627 13.22 66.9327 13.3 66.9327 13.36C66.9327 13.52 66.8627 13.67 66.7227 13.81C66.5827 13.93 66.4227 13.94 66.2427 13.84C65.9227 13.86 65.7027 13.9 65.5827 13.96C65.4827 14.02 65.3827 14.15 65.2827 14.35C65.2027 14.53 65.0327 14.84 64.7727 15.28C64.2127 15.72 63.8127 16.15 63.5727 16.57C63.3327 16.99 63.1927 17.31 63.1527 17.53C62.7327 18.29 62.4227 18.88 62.2227 19.3C62.0227 19.7 61.8827 20.06 61.8027 20.38C61.7227 20.7 61.6627 21.09 61.6227 21.55C61.4427 21.89 61.3127 22.25 61.2327 22.63C61.1527 23.01 61.0827 23.26 61.0227 23.38C60.9827 23.48 60.9627 23.67 60.9627 23.95C60.9627 24.21 60.9727 24.51 60.9927 24.85C61.0327 25.17 61.0727 25.47 61.1127 25.75C61.1727 26.01 61.2327 26.2 61.2927 26.32C61.4127 26.78 61.7027 27.04 62.1627 27.1C62.6227 27.16 63.2727 27 64.1127 26.62ZM89.1491 11.59C88.7091 11.61 88.2691 11.65 87.8291 11.71C87.4091 11.75 86.9991 11.81 86.5991 11.89C86.5591 11.91 86.5191 11.94 86.4791 11.98C86.4391 12 86.3991 12.03 86.3591 12.07C85.9391 13.27 85.4291 14.45 84.8291 15.61C84.2491 16.75 83.7191 17.92 83.2391 19.12C82.4991 20.9 81.6191 22.61 80.5991 24.25C79.5791 25.89 78.4591 27.45 77.2391 28.93C77.0791 29.13 76.8491 29.38 76.5491 29.68C76.2491 30 75.9391 30.29 75.6191 30.55C75.3191 30.83 75.0391 31.02 74.7791 31.12C74.4391 31.24 74.0891 31.23 73.7291 31.09C73.3691 30.95 73.0591 30.73 72.7991 30.43C72.5391 30.13 72.3891 29.81 72.3491 29.47C72.4491 29.19 72.5991 28.95 72.7991 28.75C73.0191 28.55 73.2891 28.45 73.6091 28.45C73.7091 28.45 73.8891 28.32 74.1491 28.06C74.4091 27.8 74.7091 27.47 75.0491 27.07C75.3891 26.67 75.7291 26.26 76.0691 25.84C76.4091 25.42 76.7091 25.04 76.9691 24.7C77.2291 24.36 77.3991 24.13 77.4791 24.01C77.7191 23.67 77.9391 23.31 78.1391 22.93C78.3391 22.55 78.5491 22.18 78.7691 21.82C78.9891 21.44 79.2391 21.11 79.5191 20.83C79.5591 20.67 79.5991 20.53 79.6391 20.41C79.6791 20.27 79.7391 20.13 79.8191 19.99L79.8791 19.87C79.9791 19.67 80.1191 19.38 80.2991 19C80.4791 18.6 80.6691 18.19 80.8691 17.77C81.0691 17.33 81.2491 16.96 81.4091 16.66C81.5091 16.5 81.5891 16.36 81.6491 16.24C81.7291 16.12 81.7991 16.05 81.8591 16.03C82.0191 15.45 82.1991 14.9 82.3991 14.38C82.6191 13.86 82.8591 13.33 83.1191 12.79C82.7391 12.95 82.3791 13.13 82.0391 13.33C81.7191 13.51 81.3991 13.68 81.0791 13.84C80.7591 13.98 80.4091 14.07 80.0291 14.11C79.6691 14.15 79.2491 14.1 78.7691 13.96C78.4491 13.24 78.3391 12.68 78.4391 12.28C78.5391 11.86 78.7691 11.52 79.1291 11.26C79.4691 11.04 79.8691 10.86 80.3291 10.72C80.7891 10.56 81.2391 10.41 81.6791 10.27L82.6691 9.94L82.9091 9.85L83.1791 9.76C83.5791 9.62 83.9891 9.5 84.4091 9.4C84.8491 9.3 85.2591 9.16 85.6391 8.98C85.7991 8.98 86.0591 8.97 86.4191 8.95C86.7991 8.91 87.1691 8.86 87.5291 8.8C87.9091 8.74 88.1591 8.68 88.2791 8.62C88.4991 8.62 88.7791 8.65 89.1191 8.71C89.4791 8.75 89.8191 8.83 90.1391 8.95C90.4591 9.07 90.6791 9.23 90.7991 9.43C90.8791 9.51 90.9591 9.59 91.0391 9.67C91.1391 9.75 91.2191 9.84 91.2791 9.94L91.9091 10.42C91.9691 10.66 92.0291 10.9 92.0891 11.14C92.1691 11.38 92.2191 11.62 92.2391 11.86C92.2591 12.02 92.2291 12.32 92.1491 12.76C92.0891 13.2 91.9991 13.68 91.8791 14.2C91.7591 14.72 91.6391 15.2 91.5191 15.64C91.4191 16.06 91.3391 16.35 91.2791 16.51C91.1191 17.09 90.9991 17.67 90.9191 18.25C90.8391 18.83 90.6891 19.4 90.4691 19.96C90.4091 20.12 90.3491 20.29 90.2891 20.47C90.2491 20.63 90.2091 20.8 90.1691 20.98C89.8891 22.38 89.4891 23.72 88.9691 25C88.4691 26.28 88.0491 27.6 87.7091 28.96C87.5691 29.14 87.4591 29.34 87.3791 29.56C87.3191 29.78 87.2091 29.98 87.0491 30.16C86.6891 30.52 86.3191 30.69 85.9391 30.67C85.5791 30.67 85.2491 30.52 84.9491 30.22C84.6491 29.94 84.4391 29.59 84.3191 29.17C84.5791 28.67 84.8091 28.16 85.0091 27.64C85.2291 27.1 85.4391 26.56 85.6391 26.02C85.8391 25.48 86.0191 24.95 86.1791 24.43C86.3591 23.87 86.4991 23.31 86.5991 22.75C86.6991 22.19 86.8691 21.64 87.1091 21.1C87.2091 20.76 87.2891 20.41 87.3491 20.05C87.4091 19.67 87.4791 19.31 87.5591 18.97C87.8391 17.81 88.1191 16.68 88.3991 15.58C88.6991 14.46 88.9291 13.32 89.0891 12.16C89.1091 12.06 89.1191 11.97 89.1191 11.89C89.1191 11.79 89.1291 11.69 89.1491 11.59ZM95.2375 32.23C95.2375 32.23 95.1375 32.19 94.9375 32.11C94.7375 32.05 94.5175 31.99 94.2775 31.93C94.0575 31.87 93.8875 31.84 93.7675 31.84C93.4475 31.76 93.2175 31.58 93.0775 31.3C92.9375 31.04 92.9075 30.75 92.9875 30.43C93.0675 30.35 93.1275 30.18 93.1675 29.92C93.2075 29.66 93.2275 29.45 93.2275 29.29C93.3075 29.13 93.3575 29.02 93.3775 28.96C93.3975 28.88 93.4475 28.68 93.5275 28.36C93.5875 28.02 93.6875 27.55 93.8275 26.95C93.9875 26.33 94.1575 25.67 94.3375 24.97C94.5375 24.27 94.7275 23.6 94.9075 22.96C95.0875 22.32 95.2475 21.78 95.3875 21.34C95.5475 20.9 95.6575 20.65 95.7175 20.59C95.7175 20.59 95.7175 20.56 95.7175 20.5C95.7175 20.42 95.7175 20.34 95.7175 20.26C95.7175 20.26 95.7275 20.17 95.7475 19.99C95.7875 19.79 95.8875 19.57 96.0475 19.33C96.1275 19.11 96.1975 18.87 96.2575 18.61C96.3175 18.35 96.3475 18.18 96.3475 18.1C96.4275 18 96.5375 17.76 96.6775 17.38C96.8375 16.98 96.9875 16.59 97.1275 16.21C97.2475 15.89 97.3775 15.55 97.5175 15.19C97.6775 14.83 97.8075 14.52 97.9075 14.26C98.0275 14 98.0875 13.87 98.0875 13.87C98.0875 13.79 98.0875 13.75 98.0875 13.75C98.0875 13.73 98.0875 13.72 98.0875 13.72C98.1675 13.64 98.3575 13.24 98.6575 12.52C98.9775 11.78 99.4075 10.83 99.9475 9.67C100.027 9.51 100.147 9.26 100.307 8.92C100.467 8.56 100.547 8.34 100.547 8.26C100.847 7.96 101.137 7.86 101.417 7.96C101.717 8.04 101.977 8.21 102.197 8.47C102.437 8.73 102.607 8.97 102.707 9.19L103.007 9.67L101.897 11.83C101.577 12.39 101.297 12.9 101.057 13.36C100.837 13.82 100.727 14.09 100.727 14.17C100.727 14.17 100.677 14.29 100.577 14.53C100.497 14.77 100.397 15.08 100.277 15.46C100.157 15.82 100.037 16.18 99.9175 16.54C99.6975 17.16 99.4875 17.68 99.2875 18.1C99.0875 18.5 98.9875 18.74 98.9875 18.82C98.9875 18.78 99.1875 18.75 99.5875 18.73C100.007 18.71 100.527 18.7 101.147 18.7C101.767 18.7 102.397 18.7 103.037 18.7C103.697 18.68 104.287 18.67 104.807 18.67C105.327 18.65 105.687 18.62 105.887 18.58L107.447 18.43L108.287 15.76C108.447 15.2 108.657 14.52 108.917 13.72C109.177 12.92 109.407 12.24 109.607 11.68C109.927 10.76 110.267 10.12 110.627 9.76C110.987 9.38 111.287 9.19 111.527 9.19C111.587 9.19 111.697 9.25 111.857 9.37C112.037 9.47 112.217 9.59 112.397 9.73C112.577 9.87 112.687 10 112.727 10.12C112.967 10.34 113.077 10.59 113.057 10.87C113.057 11.15 112.897 11.52 112.577 11.98C112.257 12.52 111.987 13.11 111.767 13.75C111.567 14.37 111.387 14.88 111.227 15.28C111.227 15.52 111.197 15.72 111.137 15.88C111.077 16.02 111.007 16.13 110.927 16.21C110.887 16.25 110.807 16.4 110.687 16.66C110.567 16.92 110.457 17.18 110.357 17.44C110.257 17.7 110.207 17.86 110.207 17.92C110.207 18.06 110.177 18.23 110.117 18.43C110.057 18.63 109.987 18.77 109.907 18.85C109.867 18.97 109.777 19.27 109.637 19.75C109.497 20.23 109.337 20.8 109.157 21.46C108.977 22.1 108.787 22.73 108.587 23.35C108.387 23.95 108.207 24.45 108.047 24.85C108.047 24.99 107.997 25.17 107.897 25.39C107.797 25.59 107.747 25.77 107.747 25.93C107.667 26.17 107.567 26.47 107.447 26.83C107.327 27.19 107.267 27.42 107.267 27.52C107.167 27.98 107.057 28.51 106.937 29.11C106.837 29.71 106.747 30.24 106.667 30.7C106.607 31.16 106.577 31.42 106.577 31.48C106.057 31.54 105.667 31.47 105.407 31.27C105.147 31.07 104.907 30.93 104.687 30.85C104.307 30.63 104.077 30.35 103.997 30.01C103.937 29.69 104.017 29.3 104.237 28.84C104.337 28.68 104.457 28.29 104.597 27.67C104.757 27.03 104.917 26.4 105.077 25.78C105.197 25.48 105.327 25.1 105.467 24.64C105.607 24.18 105.737 23.73 105.857 23.29C105.997 22.83 106.117 22.44 106.217 22.12C106.317 21.8 106.387 21.62 106.427 21.58C106.427 21.5 106.427 21.43 106.427 21.37C106.427 21.31 106.427 21.28 106.427 21.28C106.387 21.24 106.187 21.21 105.827 21.19C105.467 21.15 105.007 21.14 104.447 21.16C103.907 21.16 103.317 21.18 102.677 21.22C102.037 21.24 101.427 21.29 100.847 21.37C100.627 21.37 100.307 21.37 99.8875 21.37C99.4875 21.37 99.2075 21.37 99.0475 21.37C98.8275 21.37 98.6375 21.37 98.4775 21.37C98.3375 21.37 98.2675 21.37 98.2675 21.37C98.2275 21.43 98.1475 21.63 98.0275 21.97C97.9275 22.31 97.7975 22.72 97.6375 23.2C97.4975 23.68 97.3475 24.17 97.1875 24.67C97.0475 25.17 96.9175 25.63 96.7975 26.05C96.6975 26.45 96.6275 26.74 96.5875 26.92C96.5075 27.28 96.3975 27.73 96.2575 28.27C96.1375 28.81 95.9975 29.36 95.8375 29.92C95.6975 30.5 95.5675 31 95.4475 31.42C95.3475 31.84 95.2775 32.11 95.2375 32.23ZM113.905 31.12C113.625 31.38 113.225 31.45 112.705 31.33C112.205 31.21 111.795 30.95 111.475 30.55C111.335 30.35 111.235 30.12 111.175 29.86C111.115 29.6 111.125 29.31 111.205 28.99L114.985 16.66C115.205 15.92 115.415 15.25 115.615 14.65C115.815 14.05 115.995 13.45 116.155 12.85C116.275 12.39 116.385 11.92 116.485 11.44C116.585 10.96 116.675 10.44 116.755 9.88C116.995 9.52 117.285 9.35 117.625 9.37C117.985 9.39 118.325 9.53 118.645 9.79C118.985 10.03 119.245 10.33 119.425 10.69C119.605 11.05 119.645 11.4 119.545 11.74C119.385 12.48 119.175 13.21 118.915 13.93C118.655 14.65 118.405 15.36 118.165 16.06C117.845 17.02 117.475 18.1 117.055 19.3C116.655 20.5 116.255 21.72 115.855 22.96C115.775 23.26 115.685 23.56 115.585 23.86C115.505 24.16 115.415 24.45 115.315 24.73L115.225 24.97C115.825 24.13 116.355 23.41 116.815 22.81C117.275 22.19 117.725 21.6 118.165 21.04C119.205 19.7 120.305 18.42 121.465 17.2C122.645 15.96 123.865 14.77 125.125 13.63C125.265 13.51 125.485 13.28 125.785 12.94C126.105 12.58 126.435 12.2 126.775 11.8C127.135 11.38 127.455 11 127.735 10.66C128.035 10.32 128.235 10.09 128.335 9.97C128.535 9.73 128.725 9.51 128.905 9.31C129.085 9.11 129.345 9.02 129.685 9.04C130.005 9.04 130.325 9.18 130.645 9.46C130.965 9.72 131.215 10.04 131.395 10.42C131.575 10.78 131.605 11.12 131.485 11.44C130.865 13.16 130.335 14.63 129.895 15.85C129.475 17.07 129.105 18.14 128.785 19.06C128.485 19.96 128.195 20.83 127.915 21.67C127.655 22.41 127.385 23.17 127.105 23.95C126.825 24.71 126.625 25.48 126.505 26.26C126.385 26.96 126.265 27.67 126.145 28.39C126.045 29.11 125.885 29.82 125.665 30.52C125.545 30.96 125.295 31.18 124.915 31.18C124.535 31.18 124.155 31.06 123.775 30.82C123.415 30.58 123.155 30.33 122.995 30.07C122.915 29.93 122.865 29.79 122.845 29.65C122.845 29.53 122.855 29.42 122.875 29.32C123.035 28.56 123.205 27.8 123.385 27.04C123.565 26.28 123.755 25.53 123.955 24.79C124.095 24.29 124.275 23.73 124.495 23.11C124.715 22.49 124.955 21.88 125.215 21.28C125.475 20.66 125.715 20.12 125.935 19.66C126.115 19.26 126.255 18.84 126.355 18.4C126.455 17.96 126.605 17.54 126.805 17.14C127.025 16.72 127.205 16.28 127.345 15.82C127.485 15.36 127.595 14.82 127.675 14.2L127.705 13.93C127.445 14.43 127.165 14.85 126.865 15.19C126.585 15.51 126.305 15.82 126.025 16.12C125.805 16.36 125.575 16.6 125.335 16.84C125.115 17.06 124.895 17.28 124.675 17.5C124.455 17.72 124.175 18.01 123.835 18.37C123.515 18.73 123.195 19.09 122.875 19.45C122.555 19.79 122.275 20.08 122.035 20.32C121.075 21.36 120.155 22.43 119.275 23.53C118.395 24.61 117.515 25.71 116.635 26.83C116.295 27.27 115.995 27.71 115.735 28.15C115.495 28.59 115.285 29.07 115.105 29.59C114.985 29.93 114.805 30.21 114.565 30.43C114.345 30.67 114.125 30.9 113.905 31.12ZM136.408 30.76C136.328 30.84 136.238 30.87 136.138 30.85C136.038 30.85 135.878 30.8 135.658 30.7C135.278 30.6 134.938 30.38 134.638 30.04C134.358 29.7 134.318 29.31 134.518 28.87C134.598 28.73 134.698 28.43 134.818 27.97C134.958 27.49 135.108 26.94 135.268 26.32C135.428 25.7 135.588 25.08 135.748 24.46C135.908 23.84 136.048 23.3 136.168 22.84C136.288 22.36 136.368 22.04 136.408 21.88C136.408 21.72 136.448 21.4 136.528 20.92C136.628 20.44 136.718 19.9 136.798 19.3C137.018 18.88 137.168 18.42 137.248 17.92C137.348 17.42 137.418 17.06 137.458 16.84C137.538 16.52 137.628 16.18 137.728 15.82C137.848 15.46 137.948 15.1 138.028 14.74C138.108 14.42 138.188 14.09 138.268 13.75C138.368 13.41 138.418 13.19 138.418 13.09V12.61H137.308C137.008 12.63 136.668 12.63 136.288 12.61C135.908 12.59 135.488 12.58 135.028 12.58C134.088 12.54 133.458 12.45 133.138 12.31C132.838 12.15 132.668 11.85 132.628 11.41C132.588 11.17 132.638 10.96 132.778 10.78C132.918 10.58 133.248 10.42 133.768 10.3C134.288 10.18 135.088 10.14 136.168 10.18C137.008 10.14 137.668 10.14 138.148 10.18C138.628 10.2 138.908 10.21 138.988 10.21C139.068 10.13 139.118 10.05 139.138 9.97C139.158 9.89 139.188 9.81 139.228 9.73C139.228 9.63 139.238 9.52 139.258 9.4C139.298 9.26 139.398 9.16 139.558 9.1C139.718 8.8 140.018 8.68 140.458 8.74C140.918 8.78 141.258 8.96 141.478 9.28C141.558 9.46 141.578 9.65 141.538 9.85C141.518 10.05 141.578 10.23 141.718 10.39C141.798 10.31 142.008 10.26 142.348 10.24C142.688 10.22 143.048 10.2 143.428 10.18C143.888 10.18 144.298 10.17 144.658 10.15C145.018 10.11 145.268 10.09 145.408 10.09C145.588 9.99 145.818 9.94 146.098 9.94C146.398 9.94 146.698 9.96 146.998 10C147.458 10 147.778 10.12 147.958 10.36C148.158 10.58 148.288 10.74 148.348 10.84C148.348 10.92 148.348 11 148.348 11.08C148.368 11.16 148.418 11.24 148.498 11.32C148.578 11.4 148.618 11.46 148.618 11.5C148.618 11.52 148.578 11.61 148.498 11.77C148.418 11.85 148.278 11.92 148.078 11.98C147.878 12.02 147.658 12.04 147.418 12.04C147.278 12.04 147.038 12.06 146.698 12.1C146.358 12.12 146.068 12.13 145.828 12.13C145.368 12.21 144.918 12.28 144.478 12.34C144.038 12.38 143.468 12.42 142.768 12.46C142.468 12.46 142.188 12.48 141.928 12.52C141.668 12.54 141.538 12.6 141.538 12.7C141.458 12.7 141.348 12.91 141.208 13.33C141.088 13.75 140.968 14.19 140.848 14.65C140.728 15.17 140.598 15.62 140.458 16C140.338 16.38 140.238 16.63 140.158 16.75C140.238 16.83 140.268 16.93 140.248 17.05C140.248 17.17 140.188 17.38 140.068 17.68C139.988 17.96 139.908 18.18 139.828 18.34C139.768 18.5 139.738 18.66 139.738 18.82C139.738 18.82 139.688 18.98 139.588 19.3C139.508 19.6 139.428 19.98 139.348 20.44C139.308 20.88 139.248 21.25 139.168 21.55C139.108 21.85 139.038 22.04 138.958 22.12C138.958 22.12 138.918 22.19 138.838 22.33C138.758 22.45 138.718 22.59 138.718 22.75C138.718 22.93 138.678 23.23 138.598 23.65C138.538 24.05 138.468 24.43 138.388 24.79C138.308 25.15 138.238 25.35 138.178 25.39C138.378 25.43 138.348 25.7 138.088 26.2C138.088 26.4 138.058 26.6 137.998 26.8C137.938 27 137.908 27.14 137.908 27.22C137.788 27.6 137.618 28.06 137.398 28.6C137.178 29.14 136.968 29.62 136.768 30.04C136.588 30.46 136.468 30.7 136.408 30.76ZM151.213 26.8C152.193 26.58 153.053 26.25 153.793 25.81C154.533 25.37 155.143 24.85 155.623 24.25C156.103 23.65 156.433 23.03 156.613 22.39C156.813 21.63 156.793 20.89 156.553 20.17C156.313 19.43 155.823 18.76 155.083 18.16C154.363 17.56 153.353 17.11 152.053 16.81C152.013 16.93 151.923 17.17 151.783 17.53C151.663 17.87 151.523 18.26 151.363 18.7C151.203 19.14 151.053 19.58 150.913 20.02C150.773 20.46 150.653 20.84 150.553 21.16C150.453 21.46 150.403 21.65 150.403 21.73C150.403 21.89 150.373 22.04 150.313 22.18C150.273 22.3 150.223 22.43 150.163 22.57C150.043 22.81 149.923 23.2 149.803 23.74C149.683 24.28 149.573 24.84 149.473 25.42C149.393 25.82 149.333 26.2 149.293 26.56C149.253 26.92 149.233 27.2 149.233 27.4C149.613 27.4 149.953 27.32 150.253 27.16C150.553 27 150.873 26.88 151.213 26.8ZM153.163 13.9C153.263 13.92 153.363 13.97 153.463 14.05C153.563 14.11 153.653 14.18 153.733 14.26C153.833 14.32 153.933 14.38 154.033 14.44C154.153 14.48 154.263 14.52 154.363 14.56C154.883 14.8 155.383 15.09 155.863 15.43C156.363 15.75 156.823 16.11 157.243 16.51C157.683 16.91 158.063 17.35 158.383 17.83C158.723 18.29 158.983 18.78 159.163 19.3C159.363 19.82 159.493 20.34 159.553 20.86C159.573 20.96 159.583 21.07 159.583 21.19C159.583 21.31 159.583 21.42 159.583 21.52C159.583 21.76 159.563 22 159.523 22.24C159.503 22.48 159.463 22.72 159.403 22.96C159.283 23.46 159.093 23.96 158.833 24.46C158.593 24.94 158.273 25.4 157.873 25.84C157.173 26.64 156.443 27.3 155.683 27.82C154.923 28.34 154.123 28.78 153.283 29.14C152.443 29.48 151.523 29.81 150.523 30.13C150.223 30.21 149.903 30.27 149.563 30.31C149.243 30.35 148.923 30.36 148.603 30.34C148.363 30.32 148.113 30.25 147.853 30.13C147.613 30.01 147.383 29.86 147.163 29.68C146.903 29.46 146.683 29.21 146.503 28.93C146.343 28.65 146.243 28.38 146.203 28.12C146.103 27.12 146.183 26.06 146.443 24.94C146.703 23.82 146.973 22.8 147.253 21.88C147.333 21.6 147.403 21.33 147.463 21.07C147.543 20.81 147.623 20.55 147.703 20.29C147.903 19.65 148.123 19.02 148.363 18.4C148.603 17.78 148.793 17.13 148.933 16.45C148.993 16.17 149.093 15.81 149.233 15.37C149.393 14.91 149.573 14.43 149.773 13.93C149.973 13.41 150.173 12.9 150.373 12.4C150.593 11.88 150.803 11.4 151.003 10.96C151.203 10.52 151.373 10.17 151.513 9.91C151.553 9.67 151.603 9.44 151.663 9.22C151.743 8.98 151.803 8.74 151.843 8.5C151.943 7.96 152.183 7.63 152.563 7.51C152.943 7.37 153.333 7.39 153.733 7.57C154.153 7.73 154.483 7.99 154.723 8.35C154.963 8.71 155.003 9.11 154.843 9.55C154.583 10.29 154.343 10.88 154.123 11.32C153.923 11.74 153.753 12.14 153.613 12.52C153.533 12.74 153.463 12.97 153.403 13.21C153.343 13.45 153.263 13.68 153.163 13.9Z" fill="black"/>
</svg>
