<svg width="151" height="53" viewBox="0 0 151 53" fill="none" xmlns="http://www.w3.org/2000/svg">
<g filter="url(#filter0_d_100_18510)">
<rect y="0.5" width="147" height="48" rx="24" fill="#94DEFF" shape-rendering="crispEdges"/>
<path fill-rule="evenodd" clip-rule="evenodd" d="M24.7097 14.5222C25.2497 14.6379 25.5936 15.1695 25.4779 15.7095C25.2363 16.8372 24.9182 18.7433 24.7595 20.7537C24.6881 21.6578 24.6509 22.5618 24.6631 23.4132C27.944 23.3039 31.2596 22.9169 33.6638 22.0582C34.1839 21.8725 34.7561 22.1435 34.9419 22.6636C35.1276 23.1837 34.8566 23.756 34.3365 23.9417C31.6669 24.8951 28.1423 25.2943 24.8065 25.4095C24.8501 25.7098 24.9043 25.9937 24.9703 26.2574C25.8044 29.5938 25.6752 32.5324 25.4865 33.6644C25.3957 34.2091 24.8805 34.5772 24.3357 34.4864C23.791 34.3956 23.4229 33.8803 23.5137 33.3356C23.6584 32.4675 23.7959 29.8061 23.03 26.7425C22.9284 26.3361 22.8508 25.9011 22.7937 25.4468C19.4988 25.4572 16.5127 25.2262 14.8587 24.9899C14.312 24.9118 13.9321 24.4053 14.0102 23.8585C14.0883 23.3118 14.5948 22.9319 15.1415 23.01C16.6677 23.228 19.5024 23.4512 22.6633 23.4471C22.6493 22.4982 22.6924 21.5255 22.7657 20.5963C22.932 18.4899 23.264 16.4961 23.5223 15.2904C23.638 14.7504 24.1696 14.4064 24.7097 14.5222Z" fill="black"/>
<path d="M42.5645 30.702C42.2165 30.678 41.9645 30.6 41.8085 30.468C41.6525 30.348 41.5745 30.15 41.5745 29.874C41.6465 29.622 41.7185 29.412 41.7905 29.244C41.8745 29.076 41.9285 28.914 41.9525 28.758C41.9885 28.614 42.0245 28.476 42.0605 28.344C42.0965 28.212 42.1445 28.05 42.2045 27.858C42.3005 27.57 42.4085 27.216 42.5285 26.796C42.6605 26.376 42.7985 25.956 42.9425 25.536C43.0865 25.104 43.2125 24.75 43.3205 24.474C43.4165 24.198 43.4945 23.964 43.5545 23.772C43.6265 23.58 43.6985 23.394 43.7705 23.214C43.8425 23.034 43.9205 22.824 44.0045 22.584C44.0045 22.584 44.0345 22.494 44.0945 22.314C44.1665 22.122 44.2385 21.906 44.3105 21.666C44.3945 21.414 44.4665 21.192 44.5265 21C44.5985 20.808 44.6345 20.712 44.6345 20.712C44.7665 20.436 44.8805 20.178 44.9765 19.938C45.0845 19.686 45.1745 19.422 45.2465 19.146C45.1865 19.05 45.1445 18.942 45.1205 18.822C45.1085 18.702 45.1145 18.594 45.1385 18.498C45.1865 18.33 45.2765 18.198 45.4085 18.102C45.5405 18.006 45.7145 17.982 45.9305 18.03C46.0985 18.066 46.3205 18.096 46.5965 18.12C46.8845 18.144 47.1425 18.156 47.3705 18.156C47.6105 18.156 47.7305 18.156 47.7305 18.156C47.8025 18.12 48.0125 18.072 48.3605 18.012C48.7085 17.952 49.1285 17.886 49.6205 17.814C50.1125 17.742 50.6105 17.676 51.1145 17.616C51.6305 17.556 52.0865 17.502 52.4825 17.454C52.6265 17.43 52.7705 17.43 52.9145 17.454C53.0705 17.478 53.2085 17.502 53.3285 17.526C53.5925 17.574 53.8085 17.712 53.9765 17.94C54.1565 18.168 54.2165 18.408 54.1565 18.66C54.0845 18.876 53.9885 18.996 53.8685 19.02C53.7605 19.044 53.5625 18.984 53.2745 18.84C53.1665 19.008 53.1065 19.11 53.0945 19.146C53.0825 19.182 53.0705 19.236 53.0585 19.308C53.0585 19.38 52.9985 19.548 52.8785 19.812C52.8305 19.884 52.7585 20.028 52.6625 20.244C52.5785 20.46 52.4885 20.706 52.3925 20.982C52.3085 21.246 52.2365 21.492 52.1765 21.72C52.1165 21.948 52.0865 22.11 52.0865 22.206C52.0745 22.218 52.0205 22.386 51.9245 22.71C51.8405 23.034 51.7325 23.436 51.6005 23.916C51.4925 24.276 51.3785 24.654 51.2585 25.05C51.1505 25.446 51.0425 25.836 50.9345 26.22C50.8265 26.592 50.7305 26.928 50.6465 27.228C50.5625 27.528 50.4965 27.762 50.4485 27.93C50.4005 28.086 50.3765 28.152 50.3765 28.128C50.3645 28.392 50.3345 28.644 50.2865 28.884C50.2505 29.124 50.2265 29.364 50.2145 29.604C50.2505 29.712 50.2445 29.802 50.1965 29.874C50.1605 29.946 50.1185 29.988 50.0705 30C49.9145 30.132 49.6925 30.198 49.4045 30.198C49.1165 30.198 48.9125 30.12 48.7925 29.964C48.7085 29.796 48.6485 29.658 48.6125 29.55C48.5765 29.442 48.5645 29.34 48.5765 29.244C48.6005 28.896 48.6425 28.554 48.7025 28.218C48.7625 27.87 48.8165 27.54 48.8645 27.228C48.9365 26.88 49.0145 26.574 49.0985 26.31C49.1825 26.034 49.2365 25.914 49.2605 25.95L49.6205 24.654C49.7285 24.354 49.8005 24.102 49.8365 23.898C49.8725 23.682 49.9145 23.46 49.9625 23.232C50.0225 23.004 50.1125 22.716 50.2325 22.368C50.3525 22.08 50.4485 21.786 50.5205 21.486C50.6045 21.186 50.6825 20.886 50.7545 20.586C50.8025 20.43 50.8625 20.244 50.9345 20.028C51.0065 19.8 51.0785 19.602 51.1505 19.434C51.2225 19.254 51.2705 19.164 51.2945 19.164C51.0185 19.188 50.7905 19.218 50.6105 19.254C50.4425 19.29 50.2625 19.326 50.0705 19.362C49.8905 19.386 49.6325 19.422 49.2965 19.47C49.1285 19.482 48.9185 19.512 48.6665 19.56C48.4265 19.596 48.1805 19.632 47.9285 19.668C47.6765 19.704 47.4665 19.734 47.2985 19.758C47.2265 19.77 47.1605 19.782 47.1005 19.794C47.0525 19.794 47.0165 19.794 46.9925 19.794C46.9445 19.926 46.8425 20.166 46.6865 20.514C46.5305 20.862 46.3625 21.246 46.1825 21.666C46.0025 22.086 45.8405 22.464 45.6965 22.8C45.6365 22.956 45.5765 23.118 45.5165 23.286C45.4565 23.442 45.3905 23.598 45.3185 23.754C45.2585 23.91 45.1985 24.072 45.1385 24.24C45.0785 24.396 45.0185 24.558 44.9585 24.726C44.8985 24.882 44.8385 25.038 44.7785 25.194C44.6585 25.578 44.5505 25.92 44.4545 26.22C44.3705 26.52 44.2865 26.784 44.2025 27.012C44.1305 27.24 44.0645 27.444 44.0045 27.624C43.9445 27.804 43.8845 27.972 43.8245 28.128C43.7525 28.356 43.6805 28.578 43.6085 28.794C43.5485 28.998 43.4885 29.25 43.4285 29.55C43.4165 29.658 43.3985 29.766 43.3745 29.874C43.3505 29.97 43.3265 30.072 43.3025 30.18C43.2185 30.36 43.1225 30.492 43.0145 30.576C42.9185 30.672 42.7685 30.714 42.5645 30.702ZM54.4178 30.63C53.9738 30.306 53.6198 30.006 53.3558 29.73C53.1038 29.442 52.9658 29.166 52.9418 28.902C52.9178 28.686 52.9178 28.392 52.9418 28.02C52.9778 27.648 53.0198 27.282 53.0678 26.922C53.1158 26.562 53.1578 26.292 53.1938 26.112C53.2538 26.052 53.2778 25.974 53.2658 25.878C53.2658 25.77 53.2658 25.716 53.2658 25.716C53.2538 25.656 53.2958 25.5 53.3918 25.248C53.4878 24.984 53.5778 24.648 53.6618 24.24C53.9018 23.52 54.1298 22.92 54.3458 22.44C54.5738 21.948 54.7958 21.528 55.0118 21.18C55.2278 20.832 55.4438 20.514 55.6598 20.226C56.1518 19.722 56.6138 19.32 57.0458 19.02C57.4898 18.72 57.8978 18.486 58.2698 18.318C58.5098 18.174 58.7318 18.06 58.9358 17.976C59.1398 17.892 59.3078 17.88 59.4398 17.94C60.1118 18.084 60.6818 18.378 61.1498 18.822C61.6178 19.266 61.9298 19.908 62.0858 20.748C62.1698 21.276 62.2178 21.756 62.2298 22.188C62.2538 22.608 62.2238 23.028 62.1398 23.448C62.0558 23.856 61.8998 24.306 61.6718 24.798C61.4558 25.29 61.1498 25.866 60.7538 26.526C60.2618 27.498 59.7218 28.314 59.1338 28.974C58.5578 29.622 57.9758 30.114 57.3878 30.45C56.8118 30.786 56.2598 30.966 55.7318 30.99C55.2158 31.026 54.7778 30.906 54.4178 30.63ZM55.8578 29.442C56.1338 29.406 56.3558 29.352 56.5238 29.28C56.7038 29.208 56.8898 29.07 57.0818 28.866C57.2738 28.662 57.5438 28.362 57.8918 27.966C58.2038 27.606 58.4618 27.3 58.6658 27.048C58.8818 26.796 59.0618 26.538 59.2058 26.274C59.3618 26.01 59.5058 25.698 59.6378 25.338C59.7818 24.966 59.9378 24.492 60.1058 23.916C60.2018 23.556 60.2678 23.292 60.3038 23.124C60.3518 22.944 60.3818 22.794 60.3938 22.674C60.4058 22.554 60.4058 22.392 60.3938 22.188C60.3938 21.972 60.3938 21.648 60.3938 21.216C60.3818 21.012 60.3398 20.784 60.2678 20.532C60.1958 20.268 60.1118 20.082 60.0158 19.974C59.8958 19.842 59.7158 19.728 59.4758 19.632C59.2358 19.536 58.9838 19.548 58.7198 19.668C58.5758 19.728 58.3958 19.854 58.1798 20.046C57.9638 20.226 57.7418 20.442 57.5138 20.694C57.2858 20.946 57.0698 21.198 56.8658 21.45C56.6618 21.702 56.4998 21.93 56.3798 22.134C56.2598 22.338 56.1998 22.482 56.1998 22.566C56.1998 22.566 56.1938 22.596 56.1818 22.656C56.1818 22.716 56.1578 22.776 56.1098 22.836C55.9538 23.004 55.7918 23.28 55.6238 23.664C55.4558 24.048 55.2998 24.486 55.1558 24.978C55.0118 25.47 54.8918 25.962 54.7958 26.454C54.6998 26.946 54.6398 27.39 54.6158 27.786C54.6158 27.978 54.6158 28.14 54.6158 28.272C54.6158 28.404 54.6278 28.524 54.6518 28.632C54.6878 28.728 54.7418 28.836 54.8138 28.956C54.8858 29.076 55.0298 29.196 55.2458 29.316C55.4738 29.436 55.6778 29.478 55.8578 29.442ZM70.6336 30.882C70.6096 30.918 70.5016 30.942 70.3096 30.954C70.1176 30.966 69.9136 30.936 69.6976 30.864C69.4936 30.792 69.3436 30.654 69.2476 30.45C69.1516 30.246 69.1756 29.952 69.3196 29.568C69.7156 28.536 70.0876 27.498 70.4356 26.454C70.7836 25.41 71.1316 24.366 71.4796 23.322C71.5876 22.962 71.6956 22.626 71.8036 22.314C71.9116 21.99 72.0136 21.672 72.1096 21.36C72.2176 21.048 72.3076 20.736 72.3796 20.424C72.4036 20.316 72.4276 20.208 72.4516 20.1C72.4876 19.992 72.5116 19.878 72.5236 19.758C72.5356 19.71 72.5416 19.668 72.5416 19.632C72.5416 19.584 72.5476 19.536 72.5596 19.488C72.3676 19.428 72.1516 19.41 71.9116 19.434C71.6836 19.458 71.4556 19.446 71.2276 19.398C71.0476 19.362 70.8496 19.35 70.6336 19.362C70.4176 19.362 70.1956 19.368 69.9676 19.38C69.7396 19.392 69.5176 19.41 69.3016 19.434C69.0856 19.458 68.8816 19.47 68.6896 19.47C68.6656 19.482 68.6416 19.494 68.6176 19.506C68.5936 19.518 68.5696 19.53 68.5456 19.542C68.4136 19.866 68.2756 20.19 68.1316 20.514C67.9996 20.838 67.8676 21.162 67.7356 21.486C67.6516 21.714 67.5496 21.936 67.4296 22.152C67.3216 22.368 67.2196 22.584 67.1236 22.8C67.0636 22.944 67.0036 23.094 66.9436 23.25C66.8836 23.406 66.8236 23.562 66.7636 23.718C66.7036 23.862 66.6376 24.012 66.5656 24.168C66.3856 24.6 66.1996 25.032 66.0076 25.464C65.8156 25.884 65.6356 26.31 65.4676 26.742C65.2996 27.186 65.1256 27.642 64.9456 28.11C64.7776 28.566 64.6276 29.022 64.4956 29.478C64.4596 29.598 64.4176 29.754 64.3696 29.946C64.3336 30.138 64.2856 30.294 64.2256 30.414C64.1176 30.666 63.9376 30.804 63.6856 30.828C63.4336 30.864 63.1996 30.828 62.9836 30.72C62.7316 30.588 62.5696 30.45 62.4976 30.306C62.4376 30.162 62.4496 29.952 62.5336 29.676C62.7016 29.112 62.8816 28.548 63.0736 27.984C63.2776 27.42 63.4936 26.862 63.7216 26.31C63.9616 25.746 64.2076 25.206 64.4596 24.69C64.6636 24.27 64.8436 23.838 64.9996 23.394C65.1556 22.95 65.3356 22.524 65.5396 22.116C65.7076 21.804 65.8636 21.492 66.0076 21.18C66.1516 20.856 66.2836 20.526 66.4036 20.19C66.4276 20.118 66.4516 20.046 66.4756 19.974C66.4996 19.902 66.5236 19.83 66.5476 19.758C66.4996 19.794 66.4396 19.818 66.3676 19.83C66.2956 19.842 66.2116 19.842 66.1156 19.83C65.9956 19.818 65.8696 19.8 65.7376 19.776C65.6056 19.752 65.4976 19.74 65.4136 19.74C65.2216 19.584 65.0836 19.356 64.9996 19.056C64.9156 18.756 64.9336 18.492 65.0536 18.264C65.1616 18.072 65.3116 17.976 65.5036 17.976H66.8896C67.0216 17.976 67.1236 17.946 67.1956 17.886C67.2676 17.814 67.3516 17.754 67.4476 17.706C67.5436 17.646 67.6936 17.646 67.8976 17.706C68.1016 17.754 68.2876 17.784 68.4556 17.796C68.6236 17.796 68.8036 17.784 68.9956 17.76C69.0436 17.748 69.0916 17.742 69.1396 17.742C69.1876 17.73 69.2356 17.718 69.2836 17.706L71.2816 17.67C71.4016 17.67 71.5096 17.682 71.6056 17.706C71.7016 17.73 71.8036 17.748 71.9116 17.76C72.1036 17.772 72.3436 17.784 72.6316 17.796C72.9196 17.796 73.2016 17.82 73.4776 17.868C73.7536 17.904 73.9696 17.982 74.1256 18.102C74.2216 18.174 74.3176 18.282 74.4136 18.426C74.5216 18.558 74.5756 18.684 74.5756 18.804C74.5756 18.828 74.5516 18.924 74.5036 19.092C74.4676 19.26 74.4136 19.476 74.3416 19.74C74.2696 19.992 74.1916 20.274 74.1076 20.586C74.0236 20.886 73.9336 21.186 73.8376 21.486C73.7536 21.786 73.6756 22.062 73.6036 22.314C73.5316 22.542 73.4716 22.734 73.4236 22.89C73.3756 23.034 73.3396 23.13 73.3156 23.178C73.1356 23.646 72.9496 24.168 72.7576 24.744C72.5776 25.308 72.3976 25.872 72.2176 26.436C72.1336 26.7 72.0496 26.958 71.9656 27.21C71.8936 27.462 71.8156 27.708 71.7316 27.948C71.6596 28.152 71.5516 28.47 71.4076 28.902C71.2756 29.334 71.1376 29.736 70.9936 30.108C70.9336 30.288 70.8736 30.444 70.8136 30.576C70.7536 30.708 70.6936 30.81 70.6336 30.882ZM76.4496 30.162C75.8256 29.934 75.3396 29.484 74.9916 28.812C74.6436 28.128 74.5476 27.33 74.7036 26.418C74.7276 26.07 74.7816 25.758 74.8656 25.482C74.9616 25.206 75.0336 24.93 75.0816 24.654C75.0816 24.63 75.0936 24.594 75.1176 24.546C75.1416 24.486 75.1476 24.432 75.1356 24.384C75.1596 24.312 75.2136 24.18 75.2976 23.988C75.3816 23.784 75.4656 23.592 75.5496 23.412C75.6336 23.22 75.6876 23.112 75.7116 23.088C75.7716 23.064 75.8016 23.034 75.8016 22.998C75.8016 22.95 75.8016 22.926 75.8016 22.926C75.8016 22.83 75.8676 22.656 75.9996 22.404C76.1316 22.152 76.2996 21.876 76.5036 21.576C76.7196 21.264 76.9356 20.964 77.1516 20.676C77.3676 20.388 77.5596 20.148 77.7276 19.956C77.8956 19.764 78.0036 19.668 78.0516 19.668C78.0876 19.668 78.1176 19.644 78.1416 19.596C78.1656 19.548 78.1896 19.518 78.2136 19.506C78.2496 19.458 78.3576 19.386 78.5376 19.29C78.7296 19.194 78.9516 19.092 79.2036 18.984C79.4676 18.864 79.7256 18.756 79.9776 18.66C80.2296 18.564 80.4456 18.498 80.6256 18.462C81.1536 18.27 81.6276 18.27 82.0476 18.462C82.4676 18.654 82.8036 19.014 83.0556 19.542C83.3076 20.07 83.4396 20.742 83.4516 21.558C83.4036 21.822 83.3736 22.074 83.3616 22.314C83.3616 22.542 83.3436 22.71 83.3076 22.818C83.2956 23.082 83.2536 23.382 83.1816 23.718C83.1096 24.054 83.0376 24.348 82.9656 24.6C82.8936 24.84 82.8396 24.966 82.8036 24.978C82.8036 25.026 82.7916 25.074 82.7676 25.122C82.7436 25.158 82.7316 25.194 82.7316 25.23C82.7436 25.29 82.7016 25.428 82.6056 25.644C82.5096 25.86 82.3956 26.1 82.2636 26.364C82.1316 26.628 82.0116 26.856 81.9036 27.048C81.7956 27.24 81.7296 27.336 81.7056 27.336C81.7056 27.336 81.6936 27.342 81.6696 27.354C81.6456 27.354 81.6396 27.378 81.6516 27.426C81.6636 27.45 81.6216 27.51 81.5256 27.606C81.4296 27.702 81.3216 27.798 81.2016 27.894C81.0936 27.978 81.0096 28.02 80.9496 28.02C80.9496 28.02 80.9376 28.026 80.9136 28.038C80.9016 28.05 80.9136 28.074 80.9496 28.11C80.9616 28.134 80.8656 28.23 80.6616 28.398C80.4696 28.554 80.2236 28.74 79.9236 28.956C79.6236 29.16 79.3236 29.352 79.0236 29.532C78.7236 29.7 78.4836 29.802 78.3036 29.838C78.2676 29.886 78.2316 29.916 78.1956 29.928C78.1596 29.928 78.1116 29.934 78.0516 29.946C77.9676 30.03 77.8176 30.096 77.6016 30.144C77.3976 30.204 77.1876 30.234 76.9716 30.234C76.7556 30.246 76.5816 30.222 76.4496 30.162ZM78.2676 28.272C78.5076 28.188 78.7476 28.074 78.9876 27.93C79.2396 27.774 79.4556 27.612 79.6356 27.444C79.8276 27.264 79.9476 27.096 79.9956 26.94C80.0316 26.808 80.0676 26.712 80.1036 26.652C80.1516 26.58 80.1996 26.526 80.2476 26.49C80.3436 26.394 80.4636 26.214 80.6076 25.95C80.7636 25.686 80.9136 25.398 81.0576 25.086C81.2016 24.774 81.3216 24.48 81.4176 24.204C81.5256 23.916 81.5856 23.706 81.5976 23.574C81.5976 23.55 81.6156 23.448 81.6516 23.268C81.6876 23.088 81.7296 22.956 81.7776 22.872C81.8016 22.824 81.8076 22.782 81.7956 22.746C81.7956 22.698 81.7896 22.572 81.7776 22.368C81.7776 22.164 81.7836 21.798 81.7956 21.27C81.7836 20.838 81.7416 20.52 81.6696 20.316C81.6096 20.1 81.5316 19.968 81.4356 19.92C81.4116 19.896 81.3516 19.872 81.2556 19.848C81.1716 19.824 81.0816 19.812 80.9856 19.812C80.8896 19.8 80.7996 19.812 80.7156 19.848C80.6556 19.86 80.5716 19.89 80.4636 19.938C80.3676 19.974 80.2836 19.992 80.2116 19.992C80.1156 20.04 80.0496 20.1 80.0136 20.172C79.9776 20.232 79.9596 20.28 79.9596 20.316C79.9596 20.412 79.9176 20.502 79.8336 20.586C79.7496 20.658 79.6536 20.664 79.5456 20.604C79.3536 20.616 79.2216 20.64 79.1496 20.676C79.0896 20.712 79.0296 20.79 78.9696 20.91C78.9216 21.018 78.8196 21.204 78.6636 21.468C78.3276 21.732 78.0876 21.99 77.9436 22.242C77.7996 22.494 77.7156 22.686 77.6916 22.818C77.4396 23.274 77.2536 23.628 77.1336 23.88C77.0136 24.12 76.9296 24.336 76.8816 24.528C76.8336 24.72 76.7976 24.954 76.7736 25.23C76.6656 25.434 76.5876 25.65 76.5396 25.878C76.4916 26.106 76.4496 26.256 76.4136 26.328C76.3896 26.388 76.3776 26.502 76.3776 26.67C76.3776 26.826 76.3836 27.006 76.3956 27.21C76.4196 27.402 76.4436 27.582 76.4676 27.75C76.5036 27.906 76.5396 28.02 76.5756 28.092C76.6476 28.368 76.8216 28.524 77.0976 28.56C77.3736 28.596 77.7636 28.5 78.2676 28.272ZM93.2895 19.254C93.0255 19.266 92.7615 19.29 92.4975 19.326C92.2455 19.35 91.9995 19.386 91.7595 19.434C91.7355 19.446 91.7115 19.464 91.6875 19.488C91.6635 19.5 91.6395 19.518 91.6155 19.542C91.3635 20.262 91.0575 20.97 90.6975 21.666C90.3495 22.35 90.0315 23.052 89.7435 23.772C89.2995 24.84 88.7715 25.866 88.1595 26.85C87.5475 27.834 86.8755 28.77 86.1435 29.658C86.0475 29.778 85.9095 29.928 85.7295 30.108C85.5495 30.3 85.3635 30.474 85.1715 30.63C84.9915 30.798 84.8235 30.912 84.6675 30.972C84.4635 31.044 84.2535 31.038 84.0375 30.954C83.8215 30.87 83.6355 30.738 83.4795 30.558C83.3235 30.378 83.2335 30.186 83.2095 29.982C83.2695 29.814 83.3595 29.67 83.4795 29.55C83.6115 29.43 83.7735 29.37 83.9655 29.37C84.0255 29.37 84.1335 29.292 84.2895 29.136C84.4455 28.98 84.6255 28.782 84.8295 28.542C85.0335 28.302 85.2375 28.056 85.4415 27.804C85.6455 27.552 85.8255 27.324 85.9815 27.12C86.1375 26.916 86.2395 26.778 86.2875 26.706C86.4315 26.502 86.5635 26.286 86.6835 26.058C86.8035 25.83 86.9295 25.608 87.0615 25.392C87.1935 25.164 87.3435 24.966 87.5115 24.798C87.5355 24.702 87.5595 24.618 87.5835 24.546C87.6075 24.462 87.6435 24.378 87.6915 24.294L87.7275 24.222C87.7875 24.102 87.8715 23.928 87.9795 23.7C88.0875 23.46 88.2015 23.214 88.3215 22.962C88.4415 22.698 88.5495 22.476 88.6455 22.296C88.7055 22.2 88.7535 22.116 88.7895 22.044C88.8375 21.972 88.8795 21.93 88.9155 21.918C89.0115 21.57 89.1195 21.24 89.2395 20.928C89.3715 20.616 89.5155 20.298 89.6715 19.974C89.4435 20.07 89.2275 20.178 89.0235 20.298C88.8315 20.406 88.6395 20.508 88.4475 20.604C88.2555 20.688 88.0455 20.742 87.8175 20.766C87.6015 20.79 87.3495 20.76 87.0615 20.676C86.8695 20.244 86.8035 19.908 86.8635 19.668C86.9235 19.416 87.0615 19.212 87.2775 19.056C87.4815 18.924 87.7215 18.816 87.9975 18.732C88.2735 18.636 88.5435 18.546 88.8075 18.462L89.4015 18.264L89.5455 18.21L89.7075 18.156C89.9475 18.072 90.1935 18 90.4455 17.94C90.7095 17.88 90.9555 17.796 91.1835 17.688C91.2795 17.688 91.4355 17.682 91.6515 17.67C91.8795 17.646 92.1015 17.616 92.3175 17.58C92.5455 17.544 92.6955 17.508 92.7675 17.472C92.8995 17.472 93.0675 17.49 93.2715 17.526C93.4875 17.55 93.6915 17.598 93.8835 17.67C94.0755 17.742 94.2075 17.838 94.2795 17.958C94.3275 18.006 94.3755 18.054 94.4235 18.102C94.4835 18.15 94.5315 18.204 94.5675 18.264L94.9455 18.552C94.9815 18.696 95.0175 18.84 95.0535 18.984C95.1015 19.128 95.1315 19.272 95.1435 19.416C95.1555 19.512 95.1375 19.692 95.0895 19.956C95.0535 20.22 94.9995 20.508 94.9275 20.82C94.8555 21.132 94.7835 21.42 94.7115 21.684C94.6515 21.936 94.6035 22.11 94.5675 22.206C94.4715 22.554 94.3995 22.902 94.3515 23.25C94.3035 23.598 94.2135 23.94 94.0815 24.276C94.0455 24.372 94.0095 24.474 93.9735 24.582C93.9495 24.678 93.9255 24.78 93.9015 24.888C93.7335 25.728 93.4935 26.532 93.1815 27.3C92.8815 28.068 92.6295 28.86 92.4255 29.676C92.3415 29.784 92.2755 29.904 92.2275 30.036C92.1915 30.168 92.1255 30.288 92.0295 30.396C91.8135 30.612 91.5915 30.714 91.3635 30.702C91.1475 30.702 90.9495 30.612 90.7695 30.432C90.5895 30.264 90.4635 30.054 90.3915 29.802C90.5475 29.502 90.6855 29.196 90.8055 28.884C90.9375 28.56 91.0635 28.236 91.1835 27.912C91.3035 27.588 91.4115 27.27 91.5075 26.958C91.6155 26.622 91.6995 26.286 91.7595 25.95C91.8195 25.614 91.9215 25.284 92.0655 24.96C92.1255 24.756 92.1735 24.546 92.2095 24.33C92.2455 24.102 92.2875 23.886 92.3355 23.682C92.5035 22.986 92.6715 22.308 92.8395 21.648C93.0195 20.976 93.1575 20.292 93.2535 19.596C93.2655 19.536 93.2715 19.482 93.2715 19.434C93.2715 19.374 93.2775 19.314 93.2895 19.254ZM96.9425 31.638C96.9425 31.638 96.8825 31.614 96.7625 31.566C96.6425 31.53 96.5105 31.494 96.3665 31.458C96.2345 31.422 96.1325 31.404 96.0605 31.404C95.8685 31.356 95.7305 31.248 95.6465 31.08C95.5625 30.924 95.5445 30.75 95.5925 30.558C95.6405 30.51 95.6765 30.408 95.7005 30.252C95.7245 30.096 95.7365 29.97 95.7365 29.874C95.7845 29.778 95.8145 29.712 95.8265 29.676C95.8385 29.628 95.8685 29.508 95.9165 29.316C95.9525 29.112 96.0125 28.83 96.0965 28.47C96.1925 28.098 96.2945 27.702 96.4025 27.282C96.5225 26.862 96.6365 26.46 96.7445 26.076C96.8525 25.692 96.9485 25.368 97.0325 25.104C97.1285 24.84 97.1945 24.69 97.2305 24.654C97.2305 24.654 97.2305 24.636 97.2305 24.6C97.2305 24.552 97.2305 24.504 97.2305 24.456C97.2305 24.456 97.2365 24.402 97.2485 24.294C97.2725 24.174 97.3325 24.042 97.4285 23.898C97.4765 23.766 97.5185 23.622 97.5545 23.466C97.5905 23.31 97.6085 23.208 97.6085 23.16C97.6565 23.1 97.7225 22.956 97.8065 22.728C97.9025 22.488 97.9925 22.254 98.0765 22.026C98.1485 21.834 98.2265 21.63 98.3105 21.414C98.4065 21.198 98.4845 21.012 98.5445 20.856C98.6165 20.7 98.6525 20.622 98.6525 20.622C98.6525 20.574 98.6525 20.55 98.6525 20.55C98.6525 20.538 98.6525 20.532 98.6525 20.532C98.7005 20.484 98.8145 20.244 98.9945 19.812C99.1865 19.368 99.4445 18.798 99.7685 18.102C99.8165 18.006 99.8885 17.856 99.9845 17.652C100.08 17.436 100.128 17.304 100.128 17.256C100.308 17.076 100.482 17.016 100.65 17.076C100.83 17.124 100.986 17.226 101.118 17.382C101.262 17.538 101.364 17.682 101.424 17.814L101.604 18.102L100.938 19.398C100.746 19.734 100.578 20.04 100.434 20.316C100.302 20.592 100.236 20.754 100.236 20.802C100.236 20.802 100.206 20.874 100.146 21.018C100.098 21.162 100.038 21.348 99.9665 21.576C99.8945 21.792 99.8225 22.008 99.7505 22.224C99.6185 22.596 99.4925 22.908 99.3725 23.16C99.2525 23.4 99.1925 23.544 99.1925 23.592C99.1925 23.568 99.3125 23.55 99.5525 23.538C99.8045 23.526 100.116 23.52 100.488 23.52C100.86 23.52 101.238 23.52 101.622 23.52C102.018 23.508 102.372 23.502 102.684 23.502C102.996 23.49 103.212 23.472 103.332 23.448L104.268 23.358L104.772 21.756C104.868 21.42 104.994 21.012 105.15 20.532C105.306 20.052 105.444 19.644 105.564 19.308C105.756 18.756 105.96 18.372 106.176 18.156C106.392 17.928 106.572 17.814 106.716 17.814C106.752 17.814 106.818 17.85 106.914 17.922C107.022 17.982 107.13 18.054 107.238 18.138C107.346 18.222 107.412 18.3 107.436 18.372C107.58 18.504 107.646 18.654 107.634 18.822C107.634 18.99 107.538 19.212 107.346 19.488C107.154 19.812 106.992 20.166 106.86 20.55C106.74 20.922 106.632 21.228 106.536 21.468C106.536 21.612 106.518 21.732 106.482 21.828C106.446 21.912 106.404 21.978 106.356 22.026C106.332 22.05 106.284 22.14 106.212 22.296C106.14 22.452 106.074 22.608 106.014 22.764C105.954 22.92 105.924 23.016 105.924 23.052C105.924 23.136 105.906 23.238 105.87 23.358C105.834 23.478 105.792 23.562 105.744 23.61C105.72 23.682 105.666 23.862 105.582 24.15C105.498 24.438 105.402 24.78 105.294 25.176C105.186 25.56 105.072 25.938 104.952 26.31C104.832 26.67 104.724 26.97 104.628 27.21C104.628 27.294 104.598 27.402 104.538 27.534C104.478 27.654 104.448 27.762 104.448 27.858C104.4 28.002 104.34 28.182 104.268 28.398C104.196 28.614 104.16 28.752 104.16 28.812C104.1 29.088 104.034 29.406 103.962 29.766C103.902 30.126 103.848 30.444 103.8 30.72C103.764 30.996 103.746 31.152 103.746 31.188C103.434 31.224 103.2 31.182 103.044 31.062C102.888 30.942 102.744 30.858 102.612 30.81C102.384 30.678 102.246 30.51 102.198 30.306C102.162 30.114 102.21 29.88 102.342 29.604C102.402 29.508 102.474 29.274 102.558 28.902C102.654 28.518 102.75 28.14 102.846 27.768C102.918 27.588 102.996 27.36 103.08 27.084C103.164 26.808 103.242 26.538 103.314 26.274C103.398 25.998 103.47 25.764 103.53 25.572C103.59 25.38 103.632 25.272 103.656 25.248C103.656 25.2 103.656 25.158 103.656 25.122C103.656 25.086 103.656 25.068 103.656 25.068C103.632 25.044 103.512 25.026 103.296 25.014C103.08 24.99 102.804 24.984 102.468 24.996C102.144 24.996 101.79 25.008 101.406 25.032C101.022 25.044 100.656 25.074 100.308 25.122C100.176 25.122 99.9845 25.122 99.7325 25.122C99.4925 25.122 99.3245 25.122 99.2285 25.122C99.0965 25.122 98.9825 25.122 98.8865 25.122C98.8025 25.122 98.7605 25.122 98.7605 25.122C98.7365 25.158 98.6885 25.278 98.6165 25.482C98.5565 25.686 98.4785 25.932 98.3825 26.22C98.2985 26.508 98.2085 26.802 98.1125 27.102C98.0285 27.402 97.9505 27.678 97.8785 27.93C97.8185 28.17 97.7765 28.344 97.7525 28.452C97.7045 28.668 97.6385 28.938 97.5545 29.262C97.4825 29.586 97.3985 29.916 97.3025 30.252C97.2185 30.6 97.1405 30.9 97.0685 31.152C97.0085 31.404 96.9665 31.566 96.9425 31.638ZM108.143 30.972C107.975 31.128 107.735 31.17 107.423 31.098C107.123 31.026 106.877 30.87 106.685 30.63C106.601 30.51 106.541 30.372 106.505 30.216C106.469 30.06 106.475 29.886 106.523 29.694L108.791 22.296C108.923 21.852 109.049 21.45 109.169 21.09C109.289 20.73 109.397 20.37 109.493 20.01C109.565 19.734 109.631 19.452 109.691 19.164C109.751 18.876 109.805 18.564 109.853 18.228C109.997 18.012 110.171 17.91 110.375 17.922C110.591 17.934 110.795 18.018 110.987 18.174C111.191 18.318 111.347 18.498 111.455 18.714C111.563 18.93 111.587 19.14 111.527 19.344C111.431 19.788 111.305 20.226 111.149 20.658C110.993 21.09 110.843 21.516 110.699 21.936C110.507 22.512 110.285 23.16 110.033 23.88C109.793 24.6 109.553 25.332 109.313 26.076C109.265 26.256 109.211 26.436 109.151 26.616C109.103 26.796 109.049 26.97 108.989 27.138L108.935 27.282C109.295 26.778 109.613 26.346 109.889 25.986C110.165 25.614 110.435 25.26 110.699 24.924C111.323 24.12 111.983 23.352 112.679 22.62C113.387 21.876 114.119 21.162 114.875 20.478C114.959 20.406 115.091 20.268 115.271 20.064C115.463 19.848 115.661 19.62 115.865 19.38C116.081 19.128 116.273 18.9 116.441 18.696C116.621 18.492 116.741 18.354 116.801 18.282C116.921 18.138 117.035 18.006 117.143 17.886C117.251 17.766 117.407 17.712 117.611 17.724C117.803 17.724 117.995 17.808 118.187 17.976C118.379 18.132 118.529 18.324 118.637 18.552C118.745 18.768 118.763 18.972 118.691 19.164C118.319 20.196 118.001 21.078 117.737 21.81C117.485 22.542 117.263 23.184 117.071 23.736C116.891 24.276 116.717 24.798 116.549 25.302C116.393 25.746 116.231 26.202 116.063 26.67C115.895 27.126 115.775 27.588 115.703 28.056C115.631 28.476 115.559 28.902 115.487 29.334C115.427 29.766 115.331 30.192 115.199 30.612C115.127 30.876 114.977 31.008 114.749 31.008C114.521 31.008 114.293 30.936 114.065 30.792C113.849 30.648 113.693 30.498 113.597 30.342C113.549 30.258 113.519 30.174 113.507 30.09C113.507 30.018 113.513 29.952 113.525 29.892C113.621 29.436 113.723 28.98 113.831 28.524C113.939 28.068 114.053 27.618 114.173 27.174C114.257 26.874 114.365 26.538 114.497 26.166C114.629 25.794 114.773 25.428 114.929 25.068C115.085 24.696 115.229 24.372 115.361 24.096C115.469 23.856 115.553 23.604 115.613 23.34C115.673 23.076 115.763 22.824 115.883 22.584C116.015 22.332 116.123 22.068 116.207 21.792C116.291 21.516 116.357 21.192 116.405 20.82L116.423 20.658C116.267 20.958 116.099 21.21 115.919 21.414C115.751 21.606 115.583 21.792 115.415 21.972C115.283 22.116 115.145 22.26 115.001 22.404C114.869 22.536 114.737 22.668 114.605 22.8C114.473 22.932 114.305 23.106 114.101 23.322C113.909 23.538 113.717 23.754 113.525 23.97C113.333 24.174 113.165 24.348 113.021 24.492C112.445 25.116 111.893 25.758 111.365 26.418C110.837 27.066 110.309 27.726 109.781 28.398C109.577 28.662 109.397 28.926 109.241 29.19C109.097 29.454 108.971 29.742 108.863 30.054C108.791 30.258 108.683 30.426 108.539 30.558C108.407 30.702 108.275 30.84 108.143 30.972ZM121.645 30.756C121.597 30.804 121.543 30.822 121.483 30.81C121.423 30.81 121.327 30.78 121.195 30.72C120.967 30.66 120.763 30.528 120.583 30.324C120.415 30.12 120.391 29.886 120.511 29.622C120.559 29.538 120.619 29.358 120.691 29.082C120.775 28.794 120.865 28.464 120.961 28.092C121.057 27.72 121.153 27.348 121.249 26.976C121.345 26.604 121.429 26.28 121.501 26.004C121.573 25.716 121.621 25.524 121.645 25.428C121.645 25.332 121.669 25.14 121.717 24.852C121.777 24.564 121.831 24.24 121.879 23.88C122.011 23.628 122.101 23.352 122.149 23.052C122.209 22.752 122.251 22.536 122.275 22.404C122.323 22.212 122.377 22.008 122.437 21.792C122.509 21.576 122.569 21.36 122.617 21.144C122.665 20.952 122.713 20.754 122.761 20.55C122.821 20.346 122.851 20.214 122.851 20.154V19.866H122.185C122.005 19.878 121.801 19.878 121.573 19.866C121.345 19.854 121.093 19.848 120.817 19.848C120.253 19.824 119.875 19.77 119.683 19.686C119.503 19.59 119.401 19.41 119.377 19.146C119.353 19.002 119.383 18.876 119.467 18.768C119.551 18.648 119.749 18.552 120.061 18.48C120.373 18.408 120.853 18.384 121.501 18.408C122.005 18.384 122.401 18.384 122.689 18.408C122.977 18.42 123.145 18.426 123.193 18.426C123.241 18.378 123.271 18.33 123.283 18.282C123.295 18.234 123.313 18.186 123.337 18.138C123.337 18.078 123.343 18.012 123.355 17.94C123.379 17.856 123.439 17.796 123.535 17.76C123.631 17.58 123.811 17.508 124.075 17.544C124.351 17.568 124.555 17.676 124.687 17.868C124.735 17.976 124.747 18.09 124.723 18.21C124.711 18.33 124.747 18.438 124.831 18.534C124.879 18.486 125.005 18.456 125.209 18.444C125.413 18.432 125.629 18.42 125.857 18.408C126.133 18.408 126.379 18.402 126.595 18.39C126.811 18.366 126.961 18.354 127.045 18.354C127.153 18.294 127.291 18.264 127.459 18.264C127.639 18.264 127.819 18.276 127.999 18.3C128.275 18.3 128.467 18.372 128.575 18.516C128.695 18.648 128.773 18.744 128.809 18.804C128.809 18.852 128.809 18.9 128.809 18.948C128.821 18.996 128.851 19.044 128.899 19.092C128.947 19.14 128.971 19.176 128.971 19.2C128.971 19.212 128.947 19.266 128.899 19.362C128.851 19.41 128.767 19.452 128.647 19.488C128.527 19.512 128.395 19.524 128.251 19.524C128.167 19.524 128.023 19.536 127.819 19.56C127.615 19.572 127.441 19.578 127.297 19.578C127.021 19.626 126.751 19.668 126.487 19.704C126.223 19.728 125.881 19.752 125.461 19.776C125.281 19.776 125.113 19.788 124.957 19.812C124.801 19.824 124.723 19.86 124.723 19.92C124.675 19.92 124.609 20.046 124.525 20.298C124.453 20.55 124.381 20.814 124.309 21.09C124.237 21.402 124.159 21.672 124.075 21.9C124.003 22.128 123.943 22.278 123.895 22.35C123.943 22.398 123.961 22.458 123.949 22.53C123.949 22.602 123.913 22.728 123.841 22.908C123.793 23.076 123.745 23.208 123.697 23.304C123.661 23.4 123.643 23.496 123.643 23.592C123.643 23.592 123.613 23.688 123.553 23.88C123.505 24.06 123.457 24.288 123.409 24.564C123.385 24.828 123.349 25.05 123.301 25.23C123.265 25.41 123.223 25.524 123.175 25.572C123.175 25.572 123.151 25.614 123.103 25.698C123.055 25.77 123.031 25.854 123.031 25.95C123.031 26.058 123.007 26.238 122.959 26.49C122.923 26.73 122.881 26.958 122.833 27.174C122.785 27.39 122.743 27.51 122.707 27.534C122.827 27.558 122.809 27.72 122.653 28.02C122.653 28.14 122.635 28.26 122.599 28.38C122.563 28.5 122.545 28.584 122.545 28.632C122.473 28.86 122.371 29.136 122.239 29.46C122.107 29.784 121.981 30.072 121.861 30.324C121.753 30.576 121.681 30.72 121.645 30.756ZM130.528 28.38C131.116 28.248 131.632 28.05 132.076 27.786C132.52 27.522 132.886 27.21 133.174 26.85C133.462 26.49 133.66 26.118 133.768 25.734C133.888 25.278 133.876 24.834 133.732 24.402C133.588 23.958 133.294 23.556 132.85 23.196C132.418 22.836 131.812 22.566 131.032 22.386C131.008 22.458 130.954 22.602 130.87 22.818C130.798 23.022 130.714 23.256 130.618 23.52C130.522 23.784 130.432 24.048 130.348 24.312C130.264 24.576 130.192 24.804 130.132 24.996C130.072 25.176 130.042 25.29 130.042 25.338C130.042 25.434 130.024 25.524 129.988 25.608C129.964 25.68 129.934 25.758 129.898 25.842C129.826 25.986 129.754 26.22 129.682 26.544C129.61 26.868 129.544 27.204 129.484 27.552C129.436 27.792 129.4 28.02 129.376 28.236C129.352 28.452 129.34 28.62 129.34 28.74C129.568 28.74 129.772 28.692 129.952 28.596C130.132 28.5 130.324 28.428 130.528 28.38ZM131.698 20.64C131.758 20.652 131.818 20.682 131.878 20.73C131.938 20.766 131.992 20.808 132.04 20.856C132.1 20.892 132.16 20.928 132.22 20.964C132.292 20.988 132.358 21.012 132.418 21.036C132.73 21.18 133.03 21.354 133.318 21.558C133.618 21.75 133.894 21.966 134.146 22.206C134.41 22.446 134.638 22.71 134.83 22.998C135.034 23.274 135.19 23.568 135.298 23.88C135.418 24.192 135.496 24.504 135.532 24.816C135.544 24.876 135.55 24.942 135.55 25.014C135.55 25.086 135.55 25.152 135.55 25.212C135.55 25.356 135.538 25.5 135.514 25.644C135.502 25.788 135.478 25.932 135.442 26.076C135.37 26.376 135.256 26.676 135.1 26.976C134.956 27.264 134.764 27.54 134.524 27.804C134.104 28.284 133.666 28.68 133.21 28.992C132.754 29.304 132.274 29.568 131.77 29.784C131.266 29.988 130.714 30.186 130.114 30.378C129.934 30.426 129.742 30.462 129.538 30.486C129.346 30.51 129.154 30.516 128.962 30.504C128.818 30.492 128.668 30.45 128.512 30.378C128.368 30.306 128.23 30.216 128.098 30.108C127.942 29.976 127.81 29.826 127.702 29.658C127.606 29.49 127.546 29.328 127.522 29.172C127.462 28.572 127.51 27.936 127.666 27.264C127.822 26.592 127.984 25.98 128.152 25.428C128.2 25.26 128.242 25.098 128.278 24.942C128.326 24.786 128.374 24.63 128.422 24.474C128.542 24.09 128.674 23.712 128.818 23.34C128.962 22.968 129.076 22.578 129.16 22.17C129.196 22.002 129.256 21.786 129.34 21.522C129.436 21.246 129.544 20.958 129.664 20.658C129.784 20.346 129.904 20.04 130.024 19.74C130.156 19.428 130.282 19.14 130.402 18.876C130.522 18.612 130.624 18.402 130.708 18.246C130.732 18.102 130.762 17.964 130.798 17.832C130.846 17.688 130.882 17.544 130.906 17.4C130.966 17.076 131.11 16.878 131.338 16.806C131.566 16.722 131.8 16.734 132.04 16.842C132.292 16.938 132.49 17.094 132.634 17.31C132.778 17.526 132.802 17.766 132.706 18.03C132.55 18.474 132.406 18.828 132.274 19.092C132.154 19.344 132.052 19.584 131.968 19.812C131.92 19.944 131.878 20.082 131.842 20.226C131.806 20.37 131.758 20.508 131.698 20.64Z" fill="black"/>
</g>
<defs>
<filter id="filter0_d_100_18510" x="0" y="0.5" width="151" height="52" filterUnits="userSpaceOnUse" color-interpolation-filters="sRGB">
<feFlood flood-opacity="0" result="BackgroundImageFix"/>
<feColorMatrix in="SourceAlpha" type="matrix" values="0 0 0 0 0 0 0 0 0 0 0 0 0 0 0 0 0 0 127 0" result="hardAlpha"/>
<feOffset dx="4" dy="4"/>
<feComposite in2="hardAlpha" operator="out"/>
<feColorMatrix type="matrix" values="0 0 0 0 0 0 0 0 0 0 0 0 0 0 0 0 0 0 1 0"/>
<feBlend mode="normal" in2="BackgroundImageFix" result="effect1_dropShadow_100_18510"/>
<feBlend mode="normal" in="SourceGraphic" in2="effect1_dropShadow_100_18510" result="shape"/>
</filter>
</defs>
</svg>
