<svg width="390" height="734" viewBox="0 0 390 734" fill="none" xmlns="http://www.w3.org/2000/svg">
<g clip-path="url(#clip0_82_9032)">
<rect y="132" width="390" height="555" fill="#84BCE6"/>
<rect y="-77" width="390" height="209" fill="#A0E5E2"/>
<rect y="491" width="390" height="284" fill="#587C5F"/>
<path d="M379.737 69.473C381.379 67.0163 387.263 64.0137 390 62.8195V176H0V50.5358C3.93421 46.6119 20.5076 42.6765 32.3289 50.5358C46.1842 59.7473 44.3026 78.6854 40.0263 86.8744C56.8579 86.0555 64.4868 97.1106 66.1974 102.741C67.2237 101.034 73.2789 93.5279 89.2895 77.15C105.3 60.772 142.145 65.2078 158.566 69.473C177.45 55.5519 196.539 63.6725 203.724 69.473C238.618 53.5047 256.579 67.9375 261.197 77.15C282.134 64.4571 296.947 78.3442 301.737 86.8744C307.724 80.5621 322.058 65.6856 331.5 56.6777C343.303 45.4179 356.645 44.9061 366.908 51.0478C375.118 55.9612 378.882 65.3785 379.737 69.473Z" fill="#7DBB89"/>
<path d="M0 150.662L4.61842 148.13C6.32895 147.286 9.75 146.711 9.75 151.169C9.75 156.74 9.23684 158.26 10.2632 158.26C11.0842 158.26 21.5526 157.922 26.6842 157.753C26.6842 156.909 27.1974 155.221 29.25 155.221C29.1037 154.499 29.1326 153.159 30.1714 152.787C28.3693 153.011 25.6579 152.826 25.6579 150.662C25.6579 149.987 26.5816 148.738 30.2763 149.143H71.8421V133.948C71.6711 132.26 72.2526 128.782 75.9474 128.377H79.0263V120.779C79.0263 119.597 79.6421 117.132 82.1053 116.727C85.1842 116.221 87.2368 116.727 87.2368 118.247C87.2368 119.462 86.5526 120.104 86.2105 120.273H87.75C88.6053 120.273 90.3158 121.083 90.3158 124.325V135.974C90.8289 136.143 91.8553 136.987 91.8553 139.013C91.8553 141.545 91.3421 148.13 94.4211 149.649V132.935C94.25 131.416 94.6263 128.377 97.5 128.377C96.9868 128.039 96.0632 126.958 96.4737 125.338C96.8842 123.717 98.6974 123.987 99.5526 124.325L103.658 125.338C104.513 125.675 106.018 126.756 105.197 128.377C104.494 129.764 103.741 130.013 103.324 129.95C104.566 130.349 106.737 131.512 106.737 133.442V143.065C110.158 143.234 116.795 144.382 115.974 147.623C117 147.117 119.155 147.826 119.566 154.714C119.737 153.364 121.824 151.27 128.803 153.701C137.526 156.74 147.276 149.143 146.25 160.792C153.434 162.143 167.597 162.818 166.776 154.714C165.955 146.61 167.803 146.61 168.829 147.623C168.658 146.61 169.239 144.787 172.934 145.597C177.553 146.61 178.579 146.61 178.579 148.636C203.724 150.325 259.042 155.525 279.158 162.818C304.303 171.935 318.671 165.351 319.697 156.234C319.526 153.87 319.8 149.143 322.263 149.143L323.289 130.909C323.289 128.377 325.034 123.413 332.013 123.818L331.5 108.623C331.329 107.273 332.218 104.571 337.145 104.571H348.434C349.803 104.571 352.539 105.281 352.539 108.117C352.539 111.662 355.105 109.13 355.105 113.688V125.844H356.132C356.132 125.338 356.439 124.223 357.671 123.818C356.816 123.312 355.618 121.691 357.671 119.26C360.237 116.221 362.803 114.701 363.829 115.714V104.571C363.658 102.714 364.547 99 369.474 99C375.632 99 376.658 102.039 376.658 104.571C376.658 106.597 377 122.636 377.171 130.403C379.737 129.896 385.074 130.403 385.895 136.481C386.921 144.078 385.382 147.623 390 149.143V177H0V150.662Z" fill="#5F99C4"/>
<path d="M-5.19304 213.865C0.88882 214.957 14.0818 217.421 18.1987 218.544C23.3449 219.947 30.3624 221.351 36.9121 221.351H119.251L186.619 220.415H282.058C302.399 213.865 260.257 213.865 236.678 213.865C207.204 213.865 167.438 213.865 151.064 211.526C134.69 209.187 120.187 211.058 108.023 214.801C100.555 217.099 94.498 216.751 85.7374 216.249C80.2288 215.933 73.6514 215.556 64.9823 215.737C42.5262 216.204 25.2163 215.737 16.3274 212.462C12.0915 210.901 9.13045 210.509 6.58364 210.172C3.7861 209.802 1.48835 209.498 -1.45036 207.783C-2.69792 207.316 -5.00591 207.128 -4.25737 210.123C-5.50493 210.434 -7.43865 211.62 -5.19304 213.865Z" fill="#47759F"/>
<path d="M-5.66082 229.304C-6.95271 229.304 -8 230.351 -8 231.643C-8 232.935 -6.95271 233.982 -5.66082 233.982H17.2631V244.742C17.2631 246.034 18.3104 247.082 19.6023 247.082C20.8942 247.082 21.9415 246.034 21.9415 244.742V233.982H47.4074L45.8568 240.96C45.5765 242.221 46.3717 243.471 47.6328 243.751C48.8939 244.031 50.1435 243.236 50.4237 241.975L52.1999 233.982H74.857C74.6753 234.424 74.5325 234.87 74.4187 235.295C74.0015 236.853 73.8712 238.516 73.8712 239.596C73.8712 240.888 74.9185 241.935 76.2104 241.935C77.5023 241.935 78.5495 240.888 78.5495 239.596C78.5495 238.806 78.6532 237.568 78.9377 236.506C79.0799 235.975 79.2416 235.586 79.3911 235.341C79.4426 235.257 79.4812 235.208 79.5037 235.182C80.0554 234.936 80.4676 234.5 80.6934 233.982H102.784C102.718 234.276 102.665 234.568 102.623 234.846C102.461 235.909 102.409 237.013 102.409 237.725C102.409 239.017 103.456 240.064 104.748 240.064C106.04 240.064 107.088 239.017 107.088 237.725C107.088 237.189 107.129 236.328 107.248 235.551C107.307 235.161 107.377 234.854 107.446 234.644C107.459 234.602 107.471 234.569 107.481 234.544C107.626 234.371 107.742 234.181 107.829 233.982H195.041C196.332 233.982 197.38 232.935 197.38 231.643C197.38 230.351 196.332 229.304 195.041 229.304H-5.66082Z" fill="#47759F"/>
<path d="M379.231 153.182C385.795 153.182 388.974 155.126 390 156.098V177H368.462L310 176.514C315.47 175.704 327.949 172.917 334.103 168.25C341.795 162.417 350 162.417 357.179 157.07C364.359 151.723 371.026 153.182 379.231 153.182Z" fill="#47759F"/>
<path d="M371.855 172.612C375.954 168.881 385.518 168.259 390.02 168.415V243.505C318.103 243.505 296.863 240.395 295 238.841C296.863 229.979 315.96 234.643 317.823 224.849C319.687 215.054 330.4 208.058 340.181 205.726C348.006 203.861 353.068 200.285 354.621 198.73C351.64 187.164 357.105 183.339 360.21 182.873C360.21 180.541 361.142 174.944 365.334 174.944C368.687 174.944 371.078 173.39 371.855 172.612Z" fill="#5F99C4"/>
<path d="M21.541 339.43C9.59562 340.878 0.877895 345.161 -1.98779 347.122L-12 362.054L-1.98779 557.071C-1.98779 557.071 21.541 597.171 33.3054 617.251C55.8618 655.75 132.398 734.442 132.398 734.442L191 802L401 785V403L342.347 373.365L318.366 362.054L296.195 349.837L269.498 336.715L207.962 303.684L91.2225 325.403C72.9726 329.475 33.4864 337.982 21.541 339.43Z" fill="#C98D75"/>
<path d="M209.772 352.551L263.616 382.867C268.424 385.885 275.06 390.03 282 394.332C287 394.332 298.592 392.504 303.5 395.5C311.33 400.28 314.746 411 314.746 414.088C314.746 416.019 327.787 411.902 335 416.5C338.603 418.797 342.5 426.5 341 430.61C343 429 356.892 428.496 361.5 431.5C366.552 434.794 364.647 446.005 369.5 449.2C382.178 457.546 393.205 464.919 397.5 468L403.5 723.5L358.184 677.43L345.062 664.308L306.602 627.205L276.286 595.984L252.757 571.098L229.681 550.284L216.106 540.329L202.984 529.017L181.718 510.466L118.824 450.286L82.1731 412.278L61.3591 391.012L168.596 352.551H209.772Z" fill="#5CBE8F"/>
<path d="M80 358C78.4917 357.849 51.5856 361.058 48.6897 362.506C45.0699 364.316 41.9025 363.864 40.0926 364.316C38.2827 364.768 36.0203 364.316 36.0203 365.673C36.0203 367.031 35.1154 366.578 35.5679 367.483C36.0203 368.388 40.5451 374.723 42.355 375.628C44.1649 376.533 46.8798 378.343 48.6897 380.153C50.4996 381.963 55.4769 387.392 57.2868 389.202C59.0967 391.012 81.7205 412.279 84.4354 414.993C87.1503 417.708 99.8196 429.925 103.439 433.545C107.059 437.165 118.824 450.287 121.991 452.549C125.158 454.811 196.65 527.208 218.369 541.687C240.088 556.166 269.046 586.935 280.81 600.509C290.222 611.369 368.67 688.074 392.5 711M80 328C64.6158 330.413 9.14321 341.059 1.17962 343.955C-5.05604 346.222 -12.5345 356.479 -11.2461 370.5M241.445 346.669C263.315 358.283 309.407 382.687 318.818 387.392C330.583 393.275 383.783 432.57 396 438M396 400C375.035 388.537 297.009 348.57 280.358 341.692C263.707 334.814 223.346 312.281 205.247 301.874M396 469.5C392.711 465.921 379.038 456.558 370.5 450.5C364.839 446.484 369.359 437.014 362.5 432.5C356.841 428.776 347.5 427.5 341 430.419C343.5 424 339 418 331 414.738C324.5 412.087 318.994 416.595 316 414.738C316 409.5 311.762 401.252 306.5 398C292 389.038 284.782 395.414 283.073 394.179C276.557 389.474 228.474 363.26 205.247 350.742C199.214 350.289 177.917 352.009 140.995 362.506C94.8424 375.628 98.4622 382.868 85.7928 384.677C75.6573 386.125 64.9789 389.504 60.9066 391.012M175.5 785C170.794 777.76 107.512 705.635 98.4622 695.982C79.4581 684.67 55.9293 643.947 43.7124 633.087C33.9389 624.4 12.7932 585.728 3.44198 567.478C0.79465 562.244 -4.4 547.947 -4 532.637C-3.5 513.5 -6.5 429.5 -8 417.5C-9.2 407.9 -10.664 382.167 -11.2461 370.5M382 785C372.226 779.932 291.67 706.841 276.738 691.004C265.879 684.67 210.224 629.468 199.365 617.251C188.505 605.034 127.873 556.619 103.439 532.637C79.0057 508.656 46.8798 454.811 32.4005 433.545C17.9212 412.279 26.9708 425.853 2.53705 398.704C-6.59102 388.562 -10.4776 378.862 -11.2461 370.5" stroke="black" stroke-width="4" stroke-linecap="round" stroke-linejoin="round"/>
<path d="M289.753 501.076C289.495 500.729 289.376 500.271 289.346 499.773C289.314 499.253 289.379 498.675 289.498 498.103C289.737 496.958 290.2 495.808 290.59 495.14C290.939 494.539 291.508 493.612 292.208 492.856C292.9 492.109 293.758 491.489 294.685 491.592L294.769 491.602L294.805 491.678C295.011 492.117 295.086 492.44 295.013 492.728C294.941 493.011 294.733 493.227 294.48 493.47C294.44 493.508 294.399 493.547 294.356 493.588C293.839 494.076 293.07 494.804 292.237 496.427L289.753 501.076ZM289.753 501.076V501.187L289.912 501.177C290.309 501.152 290.6 500.899 290.821 500.555C291.042 500.212 291.208 499.755 291.353 499.268C291.441 498.975 291.523 498.662 291.605 498.351C291.658 498.148 291.711 497.946 291.765 497.751C291.905 497.25 292.052 496.788 292.237 496.427L289.753 501.076ZM304.027 487.846L304.027 487.846C309.114 488.978 313.546 492.954 314.513 498.355L314.513 498.355L314.513 498.357C315.503 503.473 313.587 508.173 309.551 511.265L309.643 511.384L309.551 511.265C306.79 513.381 303.862 514.286 300.955 514.167C298.047 514.047 295.148 512.9 292.45 510.89C288.008 507.581 286.764 500.529 288.948 495.208C291.282 489.522 298.171 486.542 304.027 487.846ZM286.343 505.758C286.738 506.983 287.449 508.385 288.301 509.656C289.153 510.925 290.155 512.074 291.137 512.783C297.336 517.259 304.945 518.166 310.962 512.894L310.962 512.894C316.822 507.757 317.979 501.586 316.289 496.351C314.603 491.127 310.084 486.849 304.619 485.475L304.582 485.62L304.619 485.475C298.818 484.017 292.661 486.654 288.856 491.247L288.856 491.247L288.75 491.37C285.572 495.088 284.874 501.211 286.343 505.758ZM312.467 503.66L312.355 503.743L312.315 503.633C311.769 503.835 311.489 504.185 311.183 504.654C311.128 504.738 311.073 504.825 311.014 504.917C310.746 505.34 310.42 505.853 309.873 506.477C309.299 507.131 308.268 508.018 307.148 508.834C306.028 509.65 304.832 510.384 303.93 510.739C303.341 510.971 303.095 511.016 302.865 511.036C302.817 511.04 302.768 511.043 302.716 511.046C302.51 511.059 302.258 511.074 301.806 511.173L301.806 511.173C301.537 511.232 301.338 511.349 301.217 511.512C301.095 511.676 301.066 511.871 301.108 512.056C301.188 512.418 301.533 512.743 301.995 512.833C302.894 513.052 303.979 512.893 305.088 512.504C306.202 512.114 307.357 511.488 308.401 510.755L308.401 510.755C309.143 510.234 310.644 508.959 311.722 507.583C312.261 506.896 312.704 506.172 312.887 505.496C313.072 504.813 312.997 504.16 312.467 503.66ZM298.687 489.783L298.622 489.835L298.631 489.918C298.676 490.321 298.72 490.528 298.828 490.69C298.882 490.769 298.947 490.832 299.017 490.898C299.025 490.906 299.033 490.914 299.042 490.922C299.108 490.983 299.183 491.054 299.276 491.154L299.325 491.207L299.397 491.201C299.863 491.163 300.772 491.051 301.289 490.979C301.839 490.902 302.183 490.676 302.247 490.335C302.308 490.006 302.086 489.68 301.765 489.457C301.106 488.998 299.879 488.845 298.687 489.783ZM312.646 498.638L312.573 498.615L312.512 498.661C312.1 498.964 311.905 499.368 311.804 499.828C311.722 500.2 311.7 500.621 311.677 501.061C311.672 501.156 311.667 501.251 311.662 501.347L311.657 501.43L311.725 501.479C311.725 501.479 311.725 501.479 311.725 501.479C311.725 501.479 311.728 501.481 311.733 501.485L311.754 501.502C311.759 501.506 311.764 501.511 311.77 501.515C311.785 501.528 311.802 501.543 311.822 501.559C311.877 501.604 311.95 501.662 312.034 501.724C312.2 501.845 312.421 501.987 312.648 502.065C312.872 502.141 313.139 502.167 313.357 501.997C313.568 501.831 313.685 501.516 313.707 501.039L313.708 501.022C313.724 500.689 313.737 500.399 313.733 500.147C313.728 499.892 313.705 499.667 313.64 499.47C313.574 499.27 313.466 499.103 313.299 498.964C313.134 498.827 312.919 498.724 312.646 498.638ZM299.635 511.764L299.635 511.764C299.507 511.427 299.202 511.151 298.853 510.952C298.502 510.75 298.085 510.613 297.703 510.562C297.328 510.513 296.951 510.543 296.705 510.717C296.576 510.809 296.485 510.939 296.456 511.107C296.428 511.271 296.461 511.457 296.548 511.66L296.587 511.751H296.592C296.775 512.137 296.996 512.332 297.277 512.457C297.421 512.521 297.578 512.565 297.741 512.61C297.755 512.613 297.768 512.617 297.782 512.621C297.935 512.663 298.099 512.707 298.28 512.771C298.469 512.838 298.67 512.889 298.859 512.91C299.046 512.931 299.235 512.923 299.393 512.859C299.56 512.792 299.687 512.663 299.733 512.465C299.775 512.277 299.741 512.044 299.635 511.764ZM296.163 491.698L296.206 491.754L296.277 491.757C296.649 491.772 296.856 491.766 297.025 491.702C297.112 491.67 297.182 491.624 297.255 491.572C297.285 491.551 297.317 491.527 297.35 491.501C297.357 491.496 297.363 491.491 297.37 491.486C297.412 491.455 297.457 491.421 297.51 491.383L297.575 491.337L297.573 491.257C297.562 490.754 297.402 490.398 297.162 490.187C296.922 489.975 296.616 489.923 296.354 490.004C296.091 490.085 295.874 490.3 295.814 490.61C295.754 490.918 295.854 491.292 296.163 491.698ZM309.693 504.872L309.78 504.861L309.814 504.78C309.975 504.389 310.025 504.111 309.965 503.854C309.909 503.618 309.761 503.42 309.589 503.19C309.582 503.18 309.574 503.169 309.566 503.159L309.517 503.093L309.435 503.099C309.365 503.104 309.303 503.109 309.251 503.112C309.209 503.115 309.173 503.118 309.145 503.12C309.078 503.125 309.025 503.13 308.976 503.142C308.924 503.154 308.881 503.171 308.832 503.193C308.812 503.202 308.79 503.212 308.766 503.224C308.76 503.226 308.754 503.229 308.749 503.232C308.717 503.246 308.68 503.264 308.635 503.284L308.567 503.314L308.55 503.387L308.356 504.236L308.337 504.32L308.4 504.379C308.441 504.418 308.481 504.457 308.519 504.493C308.572 504.543 308.62 504.59 308.664 504.629C308.743 504.7 308.823 504.763 308.918 504.81C309.113 504.904 309.338 504.915 309.693 504.872Z" fill="white" stroke="white" stroke-width="0.3"/>
<path d="M200.935 531.89C200.677 531.543 200.558 531.085 200.528 530.588C200.497 530.068 200.561 529.49 200.681 528.917C200.919 527.772 201.382 526.623 201.772 525.954C202.122 525.354 202.691 524.426 203.39 523.671C204.082 522.923 204.941 522.303 205.868 522.407L205.951 522.416L205.987 522.492C206.194 522.932 206.268 523.254 206.195 523.542C206.124 523.825 205.916 524.042 205.662 524.284C205.623 524.322 205.581 524.361 205.538 524.402C205.022 524.891 204.252 525.619 203.42 527.241L200.935 531.89ZM200.935 531.89V532.002L201.095 531.991C201.492 531.966 201.783 531.713 202.004 531.369C202.224 531.026 202.391 530.569 202.536 530.082C202.623 529.789 202.706 529.476 202.787 529.165C202.841 528.962 202.894 528.76 202.948 528.565C203.087 528.064 203.235 527.602 203.42 527.241L200.935 531.89ZM215.209 518.66L215.209 518.66C220.296 519.792 224.729 523.768 225.695 529.169L225.695 529.169L225.695 529.171C226.685 534.287 224.769 538.987 220.734 542.079L220.825 542.199L220.734 542.079C217.973 544.195 215.045 545.101 212.138 544.981C209.229 544.861 206.33 543.714 203.632 541.705C199.19 538.396 197.946 531.343 200.131 526.022C202.465 520.337 209.353 517.357 215.209 518.66ZM197.526 536.572C197.921 537.797 198.631 539.2 199.484 540.47C200.336 541.74 201.337 542.888 202.319 543.598C208.519 548.073 216.127 548.98 222.144 543.708L222.144 543.708C228.005 538.572 229.161 532.4 227.472 527.166C225.785 521.941 221.267 517.663 215.801 516.289L215.765 516.435L215.801 516.289C210 514.831 203.844 517.468 200.038 522.061L200.038 522.061L199.933 522.184C196.754 525.902 196.056 532.026 197.526 536.572ZM223.65 534.474L223.538 534.557L223.497 534.448C222.951 534.649 222.671 534.999 222.365 535.468C222.31 535.552 222.255 535.639 222.197 535.731C221.928 536.154 221.603 536.667 221.056 537.291C220.481 537.945 219.451 538.832 218.331 539.648C217.21 540.464 216.015 541.198 215.112 541.553C214.523 541.785 214.277 541.83 214.048 541.85C213.999 541.854 213.95 541.857 213.898 541.86C213.692 541.873 213.44 541.889 212.989 541.987L212.989 541.987C212.719 542.046 212.52 542.163 212.4 542.326C212.278 542.491 212.249 542.686 212.29 542.87C212.37 543.232 212.715 543.557 213.178 543.647C214.077 543.866 215.161 543.707 216.271 543.318C217.384 542.929 218.539 542.303 219.584 541.569L219.584 541.569C220.326 541.048 221.826 539.773 222.905 538.397C223.443 537.71 223.886 536.986 224.069 536.31C224.255 535.628 224.179 534.974 223.65 534.474ZM209.87 520.598L209.804 520.649L209.813 520.732C209.858 521.136 209.902 521.342 210.011 521.504C210.064 521.583 210.129 521.647 210.199 521.712C210.207 521.72 210.216 521.728 210.225 521.736C210.29 521.798 210.365 521.869 210.458 521.968L210.507 522.021L210.58 522.015C211.045 521.978 211.955 521.865 212.471 521.793C213.022 521.716 213.366 521.49 213.429 521.149C213.491 520.821 213.268 520.494 212.948 520.271C212.289 519.812 211.061 519.659 209.87 520.598ZM223.828 529.452L223.756 529.43L223.694 529.475C223.283 529.778 223.087 530.182 222.986 530.643C222.905 531.014 222.883 531.435 222.86 531.875C222.855 531.97 222.85 532.066 222.844 532.162L222.839 532.245L222.907 532.293C222.907 532.293 222.907 532.293 222.907 532.293C222.908 532.293 222.91 532.295 222.915 532.299L222.936 532.317C222.941 532.321 222.947 532.325 222.952 532.33C222.967 532.342 222.985 532.357 223.004 532.373C223.059 532.418 223.132 532.476 223.216 532.538C223.383 532.66 223.604 532.801 223.83 532.879C224.054 532.956 224.322 532.982 224.539 532.811C224.751 532.645 224.867 532.331 224.889 531.854L224.89 531.836C224.906 531.504 224.92 531.213 224.915 530.962C224.911 530.706 224.887 530.481 224.822 530.285C224.756 530.085 224.648 529.917 224.481 529.778C224.317 529.642 224.101 529.538 223.828 529.452ZM210.817 542.579L210.817 542.578C210.689 542.241 210.384 541.966 210.036 541.766C209.684 541.564 209.268 541.427 208.885 541.376C208.511 541.327 208.133 541.357 207.887 541.531C207.758 541.623 207.667 541.753 207.639 541.922C207.61 542.085 207.643 542.271 207.73 542.474L207.769 542.565H207.774C207.957 542.951 208.178 543.146 208.46 543.271C208.604 543.335 208.761 543.379 208.923 543.424C208.937 543.427 208.951 543.431 208.964 543.435C209.118 543.477 209.281 543.521 209.462 543.585C209.652 543.652 209.852 543.703 210.041 543.724C210.228 543.745 210.417 543.738 210.576 543.674C210.742 543.606 210.869 543.478 210.915 543.279C210.958 543.091 210.924 542.858 210.817 542.579ZM207.346 522.512L207.388 522.568L207.459 522.571C207.831 522.586 208.038 522.58 208.208 522.516C208.294 522.484 208.365 522.439 208.437 522.386C208.467 522.365 208.499 522.341 208.532 522.316C208.539 522.311 208.546 522.305 208.553 522.3C208.594 522.269 208.64 522.235 208.693 522.197L208.757 522.151L208.755 522.072C208.744 521.569 208.584 521.212 208.344 521.001C208.104 520.79 207.799 520.737 207.536 520.818C207.273 520.899 207.056 521.114 206.996 521.424C206.937 521.732 207.037 522.107 207.346 522.512ZM220.875 535.686L220.963 535.675L220.996 535.594C221.157 535.203 221.208 534.925 221.147 534.669C221.092 534.432 220.943 534.234 220.772 534.005C220.764 533.994 220.756 533.984 220.748 533.973L220.699 533.907L220.617 533.913C220.548 533.919 220.486 533.923 220.433 533.926C220.391 533.929 220.355 533.932 220.327 533.934C220.26 533.939 220.208 533.945 220.158 533.956C220.106 533.968 220.063 533.985 220.014 534.007C219.994 534.016 219.972 534.027 219.948 534.038C219.942 534.04 219.937 534.043 219.931 534.046C219.899 534.061 219.862 534.078 219.817 534.098L219.749 534.129L219.732 534.201L219.538 535.051L219.519 535.135L219.582 535.194C219.623 535.232 219.664 535.271 219.702 535.308C219.754 535.358 219.803 535.404 219.846 535.443C219.925 535.514 220.005 535.577 220.1 535.624C220.295 535.719 220.521 535.729 220.875 535.686Z" fill="white" stroke="white" stroke-width="0.3"/>
<path d="M291.565 425.853C291.308 425.506 291.188 425.048 291.158 424.55C291.127 424.031 291.191 423.453 291.311 422.88C291.55 421.735 292.013 420.585 292.402 419.917C292.752 419.317 293.321 418.389 294.02 417.633C294.713 416.886 295.571 416.266 296.498 416.369L296.581 416.379L296.617 416.455C296.824 416.894 296.898 417.217 296.826 417.505C296.754 417.788 296.546 418.004 296.293 418.247C296.253 418.285 296.211 418.324 296.168 418.365C295.652 418.854 294.882 419.582 294.05 421.204L291.565 425.853ZM291.565 425.853V425.965L291.725 425.954C292.122 425.929 292.413 425.676 292.634 425.332C292.854 424.989 293.021 424.532 293.166 424.045C293.253 423.752 293.336 423.439 293.417 423.128C293.471 422.925 293.524 422.723 293.578 422.528C293.717 422.027 293.865 421.565 294.05 421.204L291.565 425.853ZM305.839 412.623L305.839 412.623C310.926 413.755 315.359 417.731 316.325 423.132L316.325 423.132L316.326 423.134C317.315 428.25 315.399 432.95 311.364 436.042L311.455 436.161L311.364 436.042C308.603 438.158 305.675 439.064 302.768 438.944C299.859 438.824 296.96 437.677 294.263 435.668C289.82 432.359 288.576 425.306 290.761 419.985C293.095 414.3 299.983 411.319 305.839 412.623ZM288.156 430.535C288.551 431.76 289.261 433.162 290.114 434.433C290.966 435.703 291.967 436.851 292.95 437.56C299.149 442.036 306.757 442.943 312.774 437.671L312.774 437.671C318.635 432.534 319.792 426.363 318.102 421.129C316.415 415.904 311.897 411.626 306.431 410.252L306.395 410.397L306.431 410.252C300.63 408.794 294.474 411.431 290.668 416.024L290.668 416.024L290.563 416.147C287.384 419.865 286.686 425.988 288.156 430.535ZM314.28 428.437L314.168 428.52L314.127 428.411C313.582 428.612 313.301 428.962 312.995 429.431C312.941 429.515 312.885 429.602 312.827 429.694C312.559 430.117 312.233 430.63 311.686 431.254C311.111 431.908 310.081 432.795 308.961 433.611C307.84 434.427 306.645 435.161 305.742 435.516C305.153 435.748 304.908 435.793 304.678 435.813C304.629 435.817 304.58 435.82 304.529 435.823C304.322 435.836 304.07 435.851 303.619 435.95L303.619 435.95C303.35 436.009 303.15 436.126 303.03 436.289C302.908 436.454 302.879 436.648 302.92 436.833C303.001 437.195 303.345 437.52 303.808 437.61C304.707 437.829 305.792 437.67 306.901 437.281C308.015 436.891 309.169 436.265 310.214 435.532L310.214 435.532C310.956 435.011 312.456 433.736 313.535 432.36C314.073 431.673 314.516 430.949 314.7 430.273C314.885 429.591 314.809 428.937 314.28 428.437ZM300.5 414.56L300.434 414.612L300.444 414.695C300.488 415.098 300.532 415.305 300.641 415.467C300.694 415.546 300.76 415.609 300.829 415.675C300.837 415.683 300.846 415.691 300.855 415.699C300.92 415.761 300.995 415.831 301.088 415.931L301.138 415.984L301.21 415.978C301.675 415.941 302.585 415.828 303.101 415.756C303.652 415.679 303.996 415.453 304.06 415.112C304.121 414.783 303.898 414.457 303.578 414.234C302.919 413.775 301.691 413.622 300.5 414.56ZM314.458 423.415L314.386 423.393L314.324 423.438C313.913 423.741 313.717 424.145 313.616 424.605C313.535 424.977 313.513 425.398 313.49 425.838C313.485 425.933 313.48 426.028 313.474 426.125L313.469 426.208L313.537 426.256C313.537 426.256 313.537 426.256 313.537 426.256C313.538 426.256 313.54 426.258 313.545 426.262L313.567 426.279C313.571 426.283 313.577 426.288 313.582 426.293C313.597 426.305 313.615 426.32 313.635 426.336C313.689 426.381 313.762 426.439 313.846 426.501C314.013 426.622 314.234 426.764 314.46 426.842C314.684 426.918 314.952 426.944 315.169 426.774C315.381 426.608 315.497 426.294 315.52 425.817L315.52 425.799C315.536 425.466 315.55 425.176 315.545 424.925C315.541 424.669 315.517 424.444 315.452 424.248C315.386 424.047 315.278 423.88 315.111 423.741C314.947 423.604 314.731 423.501 314.458 423.415ZM301.448 436.541L301.448 436.541C301.319 436.204 301.014 435.929 300.666 435.729C300.314 435.527 299.898 435.39 299.515 435.339C299.141 435.29 298.763 435.32 298.517 435.494C298.388 435.586 298.298 435.716 298.269 435.884C298.241 436.048 298.273 436.234 298.361 436.437L298.4 436.528H298.404C298.587 436.914 298.808 437.109 299.09 437.234C299.234 437.298 299.391 437.342 299.554 437.387C299.567 437.39 299.581 437.394 299.594 437.398C299.748 437.44 299.911 437.484 300.092 437.548C300.282 437.615 300.482 437.666 300.671 437.687C300.858 437.708 301.048 437.7 301.206 437.636C301.372 437.569 301.5 437.44 301.545 437.242C301.588 437.054 301.554 436.821 301.448 436.541ZM297.976 416.475L298.019 416.531L298.089 416.534C298.462 416.549 298.668 416.543 298.838 416.479C298.924 416.447 298.995 416.402 299.067 416.349C299.097 416.328 299.129 416.304 299.162 416.278C299.169 416.273 299.176 416.268 299.183 416.263C299.224 416.232 299.27 416.198 299.323 416.16L299.387 416.114L299.386 416.035C299.374 415.531 299.214 415.175 298.974 414.964C298.734 414.753 298.429 414.7 298.166 414.781C297.903 414.862 297.686 415.077 297.626 415.387C297.567 415.695 297.667 416.07 297.976 416.475ZM311.505 429.649L311.593 429.638L311.626 429.557C311.787 429.166 311.838 428.888 311.778 428.631C311.722 428.395 311.574 428.197 311.402 427.967C311.394 427.957 311.386 427.947 311.378 427.936L311.329 427.87L311.247 427.876C311.178 427.881 311.116 427.886 311.064 427.889C311.021 427.892 310.985 427.895 310.957 427.897C310.89 427.902 310.838 427.907 310.788 427.919C310.736 427.931 310.693 427.948 310.644 427.97C310.625 427.979 310.603 427.989 310.578 428.001C310.573 428.003 310.567 428.006 310.561 428.009C310.529 428.024 310.492 428.041 310.447 428.061L310.379 428.091L310.363 428.164L310.168 429.013L310.149 429.098L310.212 429.156C310.253 429.195 310.294 429.234 310.332 429.27C310.384 429.321 310.433 429.367 310.476 429.406C310.555 429.477 310.636 429.54 310.731 429.587C310.925 429.682 311.151 429.692 311.505 429.649Z" fill="white" stroke="white" stroke-width="0.3"/>
<path d="M286.7 541.984C286.315 540.655 285.351 539.718 284.504 538.932C284.465 538.897 284.428 538.862 284.39 538.827C283.997 538.464 283.631 538.125 283.389 537.798C283.12 537.434 282.977 537.048 283.146 536.629L283.146 536.629C283.345 536.14 283.748 535.947 284.163 535.922C284.569 535.898 284.995 536.029 285.297 536.192L285.297 536.192C286.05 536.601 286.798 537.401 287.426 538.283C288.055 539.168 288.576 540.153 288.868 540.949L288.868 540.95C288.96 541.205 289.098 541.518 289.246 541.853C289.318 542.015 289.391 542.182 289.464 542.35C289.68 542.857 289.884 543.381 289.933 543.771M286.7 541.984L289.784 543.789M286.7 541.984L286.742 542.153C286.801 542.391 286.846 542.653 286.893 542.926L286.9 542.965C286.949 543.25 287.001 543.547 287.073 543.828C287.217 544.388 287.451 544.927 287.946 545.228M286.7 541.984L288.024 545.1M289.933 543.771L289.784 543.789M289.933 543.771C289.933 543.771 289.933 543.771 289.933 543.771L289.784 543.789M289.933 543.771C290.001 544.32 289.793 544.851 289.42 545.163C289.039 545.483 288.498 545.564 287.946 545.228M289.784 543.789C289.909 544.794 289.019 545.705 288.024 545.1M287.946 545.228C287.946 545.228 287.946 545.228 287.946 545.228L288.024 545.1M287.946 545.228L288.024 545.1M258.488 549.69H258.491L258.453 549.509C257.618 545.558 258.67 541.086 260.948 537.335C263.226 533.583 266.718 530.572 270.736 529.526L270.736 529.526L270.741 529.524C278.635 527.188 285.22 529.051 289.682 532.981C294.149 536.915 296.499 542.927 295.904 548.903L296.053 548.918L295.904 548.903C294.955 558.438 286.922 565.058 278.576 565.507C268.46 566.052 260.606 559.327 258.488 549.69ZM255.827 549.623L255.828 549.623C256.699 557.538 261.601 563.148 267.872 565.971C274.141 568.793 281.785 568.835 288.158 565.616L288.158 565.616C296.611 561.344 299.217 553.219 298.473 544.468C297.232 529.844 282.247 522.882 269.189 527.054L269.189 527.054C260.024 529.984 254.803 540.298 255.827 549.623ZM288.09 565.483C296.47 561.247 299.064 553.195 298.323 544.481C297.092 529.978 282.228 523.045 269.234 527.197C260.156 530.099 254.962 540.328 255.975 549.595L288.09 565.483ZM287.301 559.933L287.326 559.996L287.39 560.019C287.785 560.16 288.127 560.207 288.431 560.173C288.736 560.14 288.992 560.027 289.216 559.862C289.628 559.56 289.933 559.078 290.231 558.606C290.251 558.576 290.27 558.545 290.289 558.515L290.289 558.515L290.291 558.512C292.148 555.438 293.562 553 294.233 550.367C294.906 547.727 294.829 544.902 293.732 541.05L293.732 541.05C292.79 537.748 291.03 535.964 289.728 535.43C289.403 535.297 289.097 535.238 288.836 535.262C288.573 535.286 288.348 535.395 288.209 535.601C288.072 535.804 288.037 536.075 288.096 536.388C288.156 536.701 288.311 537.07 288.575 537.489C291.066 541.499 292.581 545.349 291.865 549.343L291.865 549.344C291.786 549.787 291.553 550.418 291.224 551.155C290.896 551.89 290.478 552.719 290.036 553.554C289.594 554.389 289.129 555.229 288.708 555.985C288.63 556.124 288.554 556.261 288.48 556.394C288.154 556.977 287.864 557.496 287.648 557.901C287.636 557.916 287.622 557.933 287.604 557.954C287.585 557.977 287.562 558.005 287.543 558.032C287.502 558.089 287.463 558.143 287.427 558.193C287.329 558.327 287.249 558.437 287.187 558.532C287.102 558.665 287.042 558.786 287.023 558.921C287.003 559.056 287.028 559.19 287.077 559.343C287.118 559.473 287.18 559.631 287.259 559.829C287.273 559.862 287.287 559.897 287.301 559.933ZM265.064 558.222L264.976 558.264L264.978 558.361C264.996 559.187 265.16 559.63 265.509 559.945C265.677 560.097 265.88 560.212 266.106 560.328C266.172 560.362 266.241 560.396 266.311 560.432C266.486 560.519 266.674 560.613 266.883 560.731C267.184 560.902 267.495 561.086 267.813 561.275C268.372 561.606 268.953 561.95 269.549 562.26C270.488 562.748 271.484 563.16 272.533 563.319L272.533 563.319C272.605 563.329 272.73 563.36 272.901 563.404C272.955 563.418 273.013 563.433 273.075 563.45C273.204 563.484 273.348 563.521 273.501 563.56C273.952 563.674 274.49 563.796 274.982 563.847C275.229 563.873 275.469 563.882 275.683 563.861C275.897 563.841 276.097 563.792 276.255 563.692C276.418 563.589 276.532 563.435 276.567 563.225C276.6 563.023 276.558 562.784 276.446 562.505L276.446 562.505C276.296 562.135 275.983 561.906 275.57 561.727C275.207 561.57 274.743 561.441 274.201 561.291C274.131 561.272 274.06 561.252 273.987 561.232C272.712 560.877 270.987 560.361 268.91 559.086L268.907 559.084L268.604 558.907L268.603 558.906C268.463 558.826 268.369 558.778 268.287 558.736C268.157 558.67 268.057 558.619 267.848 558.477L267.847 558.477C267.714 558.387 267.615 558.3 267.525 558.217C267.508 558.201 267.491 558.185 267.474 558.169C267.403 558.103 267.331 558.035 267.253 557.976C267.043 557.819 266.792 557.728 266.328 557.728C265.993 557.728 265.812 557.784 265.637 557.885C265.578 557.92 265.525 557.954 265.471 557.99C265.367 558.059 265.254 558.133 265.064 558.222ZM286.887 542.118V542.267H286.891H286.922C286.912 542.221 286.902 542.176 286.891 542.131C286.89 542.126 286.889 542.122 286.888 542.118L286.887 542.118ZM261.663 554.626L261.708 554.67L261.771 554.669C262.436 554.662 262.893 554.599 263.177 554.439C263.325 554.355 263.43 554.243 263.49 554.1C263.549 553.96 263.559 553.803 263.542 553.638C263.512 553.33 263.383 552.941 263.231 552.48C263.223 552.457 263.215 552.433 263.207 552.409C263.043 551.91 262.848 551.31 262.691 550.59C262.435 549.409 262.34 548.356 262.261 547.479C262.241 547.257 262.222 547.047 262.202 546.849C262.152 546.362 262.094 545.941 261.988 545.612C261.881 545.283 261.718 545.02 261.441 544.888C261.171 544.76 260.932 544.698 260.721 544.705C260.506 544.713 260.328 544.791 260.188 544.928C259.92 545.189 259.814 545.644 259.782 546.137C259.725 547.009 259.892 548.147 260.018 549.011C260.037 549.136 260.054 549.255 260.07 549.367L260.07 549.367C260.191 550.216 260.347 550.786 260.51 551.385C260.574 551.616 260.638 551.853 260.702 552.111L260.702 552.111C260.789 552.462 260.844 552.722 260.888 552.932L260.891 552.943C260.935 553.153 260.97 553.32 261.019 553.476C261.118 553.794 261.269 554.061 261.642 554.601L261.65 554.612L261.66 554.622L261.663 554.626ZM286.888 535.442L286.987 535.472L287.05 535.391C287.235 535.157 287.374 535.022 287.481 534.924C287.494 534.911 287.508 534.899 287.522 534.887C287.607 534.809 287.689 534.734 287.745 534.64C287.814 534.523 287.841 534.385 287.851 534.186C287.861 533.987 287.855 533.704 287.844 533.285L287.842 533.194L287.761 533.154C287.661 533.104 287.511 533.01 287.316 532.88C287.214 532.812 287.103 532.737 286.984 532.656C286.876 532.582 286.761 532.504 286.639 532.422C286.129 532.08 285.516 531.683 284.893 531.367C284.275 531.052 283.631 530.808 283.063 530.786C282.776 530.775 282.503 530.82 282.261 530.946C282.017 531.073 281.816 531.278 281.667 531.569C281.477 531.941 281.48 532.264 281.636 532.536C281.785 532.795 282.059 532.981 282.353 533.124C282.65 533.269 282.992 533.38 283.299 533.476C283.338 533.488 283.377 533.5 283.415 533.512C283.68 533.594 283.906 533.664 284.063 533.737L284.063 533.737C284.561 533.97 284.877 534.226 285.199 534.488C285.251 534.53 285.302 534.571 285.354 534.613C285.738 534.92 286.158 535.217 286.888 535.442Z" fill="white" stroke="white" stroke-width="0.3"/>
<path d="M254.651 506.837L254.651 506.837C254.991 506.659 255.46 506.548 255.858 506.643C256.06 506.691 256.249 506.794 256.386 506.974C256.522 507.153 256.596 507.394 256.596 507.699M254.651 506.837L256.446 507.699M254.651 506.837C254.15 507.098 253.896 507.286 253.743 507.446C253.666 507.527 253.617 507.598 253.577 507.662C253.568 507.677 253.559 507.691 253.551 507.705C253.524 507.748 253.503 507.782 253.473 507.819C253.403 507.908 253.281 508.017 252.933 508.185C252.584 508.353 252.021 508.573 251.084 508.89C247.462 510.115 244.537 509.944 242.252 509.529C241.464 509.386 240.757 509.215 240.118 509.06C239.826 508.99 239.549 508.923 239.285 508.863C238.456 508.677 237.746 508.564 237.181 508.697L237.113 508.713L237.082 508.775C236.876 509.174 236.763 509.508 236.772 509.795C236.783 510.097 236.928 510.324 237.182 510.504C237.428 510.676 237.781 510.809 238.225 510.936C238.639 511.054 239.149 511.17 239.75 511.308C239.797 511.319 239.845 511.33 239.893 511.341L239.893 511.341C242.787 512.002 244.938 512.401 247.059 512.281C249.184 512.16 251.269 511.519 254.038 510.119L254.06 510.108L254.063 510.105M254.651 506.837L253.973 509.982M256.596 507.699H256.446M256.596 507.699C256.596 507.699 256.596 507.698 256.596 507.698L256.446 507.699M256.596 507.699C256.597 508.03 256.533 508.306 256.406 508.544C256.279 508.781 256.095 508.972 255.868 509.141C255.642 509.309 255.371 509.459 255.066 509.612C254.924 509.684 254.774 509.757 254.616 509.833L254.58 509.851C254.415 509.931 254.243 510.015 254.063 510.105M256.446 507.699C256.448 508.777 255.727 509.127 254.55 509.699C254.368 509.787 254.176 509.88 253.973 509.982M254.063 510.105L254.077 510.091L254.08 510.088L253.973 509.982M254.063 510.105C254.055 510.109 254.048 510.112 254.041 510.116L253.979 509.994L253.973 509.982M226.209 486.846C227.742 482.37 230.766 478.506 235.333 476.607H235.336L235.364 476.596C240.785 474.354 247.49 474.039 252.794 476.01C263.423 479.966 266.926 492.374 262.514 502.042C259.45 508.759 253.057 514.649 245.232 513.695C234.749 512.419 228.394 507.932 226.043 500.73C224.637 496.421 224.672 491.331 226.209 486.846ZM246.774 516.499V516.487C259.289 515.665 264.691 505.963 266.614 498.306L266.614 498.305C268.327 491.238 266.738 485.207 263.184 480.698C259.634 476.193 254.131 473.215 248.025 472.226C231.732 468.338 218.026 484.943 223.448 501.105C226.73 510.889 236.614 516.508 246.624 516.499L246.774 516.499ZM257.614 480.767L257.613 480.692L257.554 480.648C253.443 477.559 247.442 474.556 239.563 476.874L239.563 476.873L239.555 476.876C239.309 476.963 238.99 477.06 238.627 477.17C238.478 477.215 238.322 477.263 238.161 477.312C237.61 477.483 237.002 477.68 236.437 477.907C235.874 478.133 235.344 478.393 234.952 478.691C234.564 478.988 234.281 479.346 234.28 479.773V479.773C234.28 480.16 234.35 480.463 234.509 480.675C234.673 480.894 234.914 480.992 235.196 481.009C235.474 481.025 235.802 480.965 236.17 480.858C236.539 480.75 236.959 480.592 237.422 480.405C240.802 479.04 243.88 478.382 246.791 478.558C249.698 478.734 252.448 479.743 255.171 481.727L255.171 481.727L255.179 481.732L255.217 481.756C255.518 481.95 255.809 482.136 256.073 482.272C256.343 482.412 256.612 482.514 256.853 482.498C256.978 482.49 257.096 482.45 257.2 482.369C257.302 482.29 257.381 482.177 257.442 482.035C257.561 481.757 257.617 481.343 257.614 480.767ZM258.698 489.934H258.823L258.826 489.787C258.835 489.377 258.707 488.908 258.499 488.431C258.29 487.952 257.997 487.453 257.663 486.98C256.999 486.038 256.162 485.179 255.494 484.773C255.327 484.671 255.125 484.54 254.898 484.394C254.34 484.033 253.629 483.574 252.902 483.193C252.388 482.925 251.858 482.69 251.356 482.554C250.857 482.418 250.37 482.375 249.951 482.507L249.883 482.528L249.857 482.595C249.748 482.868 249.707 483.11 249.735 483.329C249.764 483.55 249.862 483.734 250.009 483.893C250.153 484.049 250.345 484.181 250.564 484.305C250.783 484.429 251.038 484.549 251.312 484.676C251.335 484.687 251.357 484.697 251.38 484.707C252.474 485.215 253.923 485.888 255.121 487.524L255.121 487.524C255.394 487.897 255.617 488.243 255.817 488.556C255.858 488.619 255.897 488.681 255.936 488.741C256.166 489.096 256.378 489.409 256.614 489.643C256.855 489.882 257.126 490.045 257.473 490.099C257.811 490.151 258.207 490.097 258.698 489.934ZM259.371 487.622L259.415 487.695H259.5C260.03 487.695 260.454 487.664 260.759 487.573C261.068 487.48 261.291 487.311 261.344 487.018C261.393 486.75 261.289 486.419 261.087 486.026C260.881 485.625 260.555 485.128 260.117 484.516C259.892 484.201 259.735 483.99 259.483 483.907C259.358 483.866 259.22 483.858 259.059 483.867C258.898 483.876 258.698 483.902 258.447 483.935L258.375 483.944L258.338 484.007C258.275 484.112 258.217 484.205 258.163 484.29L258.15 484.311C258.102 484.387 258.057 484.458 258.019 484.523C257.936 484.663 257.869 484.8 257.854 484.947C257.839 485.102 257.882 485.247 257.974 485.406C258.065 485.562 258.208 485.74 258.408 485.963C258.702 486.29 258.822 486.504 258.927 486.73C258.95 486.781 258.974 486.834 258.998 486.889C259.084 487.084 259.185 487.312 259.371 487.622Z" fill="white" stroke="white" stroke-width="0.3"/>
<path d="M168.22 475.549L168.22 475.549C168.442 475.433 168.75 475.358 169.017 475.422C169.154 475.455 169.285 475.526 169.38 475.651C169.475 475.776 169.523 475.941 169.523 476.141C169.523 476.141 169.523 476.142 169.523 476.142H169.373C169.375 476.822 168.922 477.043 168.183 477.403C168.069 477.459 167.948 477.518 167.821 477.582L168.22 475.549ZM168.22 475.549C167.904 475.715 167.738 475.837 167.636 475.944C167.584 475.999 167.551 476.047 167.525 476.089C167.519 476.1 167.513 476.11 167.507 476.118C167.491 476.145 167.48 476.163 167.464 476.184C167.427 476.23 167.359 476.295 167.144 476.399C166.928 476.503 166.578 476.641 165.99 476.841C163.728 477.609 161.902 477.502 160.475 477.242C159.982 477.152 159.54 477.045 159.14 476.947C158.957 476.903 158.782 476.86 158.615 476.822C158.096 476.705 157.638 476.63 157.269 476.718L157.201 476.734L157.17 476.795C157.04 477.049 156.963 477.27 156.969 477.465C156.976 477.676 157.079 477.835 157.25 477.956C157.412 478.071 157.642 478.156 157.922 478.237C158.183 478.311 158.504 478.385 158.881 478.472C158.911 478.479 158.941 478.486 158.971 478.493L158.971 478.493C160.788 478.91 162.144 479.164 163.485 479.087C164.829 479.01 166.145 478.602 167.887 477.718L167.909 477.707L167.911 477.705L168.22 475.549ZM170.796 464.992H170.92L170.923 464.846C170.929 464.576 170.845 464.272 170.713 463.967C170.58 463.661 170.394 463.343 170.183 463.043C169.764 462.445 169.233 461.896 168.805 461.635L168.727 461.763M170.796 464.992L165.325 460.343C166.138 460.085 167.503 460.972 168.346 461.519C168.49 461.613 168.619 461.696 168.727 461.763M170.796 464.992C170.487 465.095 170.232 465.13 170.01 465.096C169.777 465.06 169.597 464.95 169.439 464.793C169.286 464.64 169.15 464.438 169.006 464.214C168.982 464.176 168.957 464.137 168.931 464.097C168.805 463.9 168.667 463.683 168.496 463.45L168.496 463.45C167.753 462.429 166.854 462.01 166.168 461.69C166.155 461.684 166.141 461.677 166.127 461.671C165.955 461.591 165.793 461.514 165.654 461.435C165.514 461.356 165.388 461.269 165.292 461.164C165.193 461.057 165.125 460.931 165.106 460.778C165.087 460.628 165.115 460.466 165.186 460.288L165.212 460.221L165.28 460.2C165.557 460.112 165.875 460.142 166.194 460.229C166.514 460.317 166.851 460.466 167.175 460.637C167.634 460.878 168.084 461.17 168.435 461.398C168.577 461.49 168.702 461.572 168.805 461.635L168.727 461.763M170.796 464.992L168.727 461.763M150.448 463.007C151.405 460.199 153.29 457.779 156.133 456.587H156.135L156.163 456.575C159.554 455.167 163.747 454.969 167.062 456.207C173.696 458.688 175.89 466.476 173.131 472.551L173.268 472.613L173.131 472.551C171.212 476.777 167.218 480.466 162.342 479.869L162.342 479.869C155.776 479.066 151.811 476.245 150.344 471.73C149.466 469.023 149.487 465.825 150.448 463.007ZM175.809 470.231L175.81 470.229C176.888 465.756 175.888 461.936 173.646 459.078C171.409 456.224 167.942 454.34 164.099 453.714C153.824 451.252 145.195 461.774 148.609 472C150.678 478.198 156.907 481.753 163.209 481.748L163.359 481.748V481.736C171.212 481.192 174.603 475.059 175.809 470.231ZM170.162 459.155L170.162 459.081L170.102 459.036C167.515 457.083 163.73 455.178 158.761 456.647L158.761 456.646L158.753 456.649C158.6 456.703 158.401 456.764 158.174 456.833C158.081 456.862 157.982 456.892 157.88 456.923C157.534 457.031 157.151 457.156 156.794 457.3C156.439 457.443 156.1 457.609 155.848 457.802C155.6 457.993 155.406 458.233 155.405 458.528V458.529C155.405 458.778 155.45 458.983 155.56 459.13C155.675 459.285 155.844 459.352 156.033 459.363C156.216 459.374 156.43 459.334 156.663 459.266C156.897 459.197 157.163 459.096 157.454 458.978C159.57 458.119 161.494 457.707 163.31 457.818C165.123 457.928 166.839 458.56 168.54 459.805L168.54 459.805L168.547 459.81L168.573 459.826C168.761 459.948 168.945 460.067 169.113 460.154C169.284 460.243 169.465 460.313 169.632 460.302C169.721 460.296 169.806 460.268 169.881 460.209C169.954 460.152 170.009 460.072 170.05 459.977C170.129 459.791 170.164 459.52 170.162 459.155ZM171.161 463.507L171.205 463.58H171.29C171.623 463.58 171.896 463.561 172.096 463.501C172.301 463.439 172.464 463.321 172.503 463.108C172.537 462.919 172.463 462.696 172.336 462.447C172.205 462.191 171.998 461.875 171.723 461.488C171.585 461.293 171.476 461.142 171.297 461.083C171.209 461.054 171.114 461.05 171.01 461.055C170.906 461.061 170.779 461.078 170.622 461.099L170.55 461.108L170.513 461.171C170.474 461.237 170.437 461.295 170.404 461.348L170.395 461.362C170.365 461.409 170.337 461.454 170.312 461.496C170.259 461.586 170.212 461.681 170.201 461.787C170.19 461.899 170.222 462.002 170.284 462.109C170.344 462.212 170.437 462.328 170.563 462.469C170.743 462.671 170.816 462.801 170.88 462.94C170.894 462.971 170.908 463.003 170.923 463.037C170.977 463.161 171.042 463.309 171.161 463.507Z" fill="white" stroke="white" stroke-width="0.3"/>
<path d="M346.963 588.741L346.963 588.741C347.249 588.591 347.645 588.496 347.983 588.577C348.156 588.618 348.318 588.707 348.436 588.863C348.553 589.017 348.615 589.224 348.615 589.481C348.615 589.482 348.615 589.482 348.615 589.482H348.465C348.467 590.382 347.868 590.674 346.891 591.15C346.74 591.224 346.581 591.301 346.413 591.387L346.963 588.741ZM346.963 588.741C346.546 588.959 346.332 589.117 346.203 589.254C346.137 589.323 346.096 589.384 346.062 589.438C346.054 589.451 346.046 589.464 346.039 589.475C346.017 589.511 346.001 589.538 345.977 589.567C345.923 589.637 345.825 589.726 345.537 589.865C345.249 590.004 344.783 590.188 344.006 590.452C341.004 591.472 338.581 591.33 336.687 590.984C336.034 590.865 335.448 590.723 334.918 590.594C334.676 590.535 334.445 590.479 334.226 590.429C333.538 590.274 332.943 590.178 332.467 590.291L332.4 590.307L332.368 590.368C332.197 590.702 332.1 590.986 332.108 591.231C332.117 591.492 332.243 591.689 332.459 591.842C332.667 591.989 332.963 592.1 333.333 592.206C333.677 592.304 334.101 592.402 334.599 592.517C334.638 592.526 334.678 592.535 334.719 592.544L334.719 592.544C337.121 593.096 338.909 593.43 340.674 593.329C342.443 593.228 344.177 592.691 346.478 591.523L346.5 591.512L346.502 591.51L346.963 588.741ZM350.339 574.688H350.463L350.467 574.541C350.474 574.194 350.366 573.799 350.193 573.4C350.019 572.998 349.774 572.58 349.497 572.185C348.944 571.398 348.247 570.677 347.688 570.336L347.61 570.464M350.339 574.688L343.111 568.587C344.186 568.246 345.991 569.418 347.106 570.142C347.297 570.266 347.467 570.377 347.61 570.464M350.339 574.688C349.931 574.823 349.599 574.869 349.314 574.825C349.019 574.779 348.789 574.64 348.587 574.438C348.388 574.24 348.211 573.977 348.021 573.681C347.988 573.63 347.955 573.579 347.922 573.526C347.755 573.265 347.571 572.977 347.345 572.667L347.345 572.667C346.354 571.307 345.156 570.749 344.248 570.325C344.229 570.317 344.211 570.308 344.193 570.299C343.965 570.193 343.752 570.093 343.569 569.989C343.387 569.885 343.225 569.773 343.103 569.64C342.978 569.504 342.894 569.346 342.869 569.156C342.845 568.968 342.881 568.762 342.972 568.531L342.998 568.465L343.066 568.444C343.42 568.331 343.83 568.369 344.247 568.483C344.666 568.597 345.108 568.793 345.535 569.018C346.14 569.336 346.732 569.72 347.195 570.021C347.384 570.144 347.551 570.252 347.689 570.337L347.61 570.464M350.339 574.688L347.61 570.464M323.389 572.094C324.66 568.368 327.164 565.152 330.944 563.571H330.947L330.974 563.559C335.469 561.692 341.029 561.43 345.425 563.071C354.231 566.365 357.137 576.698 353.479 584.753C350.937 590.352 345.639 595.253 339.159 594.459L339.141 594.608L339.159 594.459C330.464 593.396 325.199 589.657 323.252 583.662C322.086 580.071 322.115 575.831 323.389 572.094ZM356.93 581.652L356.931 581.651C358.354 575.749 357.034 570.711 354.079 566.943C351.127 563.18 346.554 560.693 341.48 559.867C327.932 556.619 316.544 570.493 321.049 583.989C323.778 592.163 331.993 596.855 340.312 596.848L340.462 596.848V596.836C350.85 596.139 355.334 588.039 356.93 581.652ZM349.46 567.015L349.46 566.941L349.4 566.897C345.984 564.318 340.995 561.808 334.443 563.744L334.443 563.744L334.435 563.747C334.232 563.819 333.967 563.899 333.666 563.991C333.543 564.029 333.413 564.069 333.279 564.11C332.821 564.253 332.316 564.417 331.846 564.607C331.378 564.796 330.935 565.014 330.607 565.265C330.282 565.514 330.04 565.819 330.04 566.187V566.187C330.04 566.512 330.098 566.771 330.234 566.954C330.377 567.144 330.584 567.228 330.824 567.243C331.059 567.257 331.335 567.205 331.641 567.115C331.949 567.025 332.298 566.893 332.683 566.737C335.486 565.599 338.038 565.052 340.448 565.198C342.857 565.345 345.135 566.184 347.392 567.836L347.392 567.837L347.399 567.841L347.432 567.862C347.681 568.023 347.923 568.179 348.143 568.294C348.368 568.411 348.597 568.498 348.805 568.485C348.913 568.477 349.016 568.443 349.107 568.372C349.196 568.302 349.264 568.204 349.315 568.084C349.416 567.847 349.463 567.497 349.46 567.015ZM350.871 572.747L350.915 572.82H351C351.44 572.82 351.795 572.794 352.053 572.717C352.315 572.638 352.51 572.492 352.556 572.235C352.598 572.003 352.509 571.72 352.34 571.392C352.168 571.056 351.898 570.64 351.534 570.129C351.348 569.868 351.213 569.684 350.994 569.611C350.886 569.576 350.768 569.57 350.633 569.577C350.498 569.585 350.331 569.607 350.123 569.634L350.051 569.643L350.014 569.706C349.962 569.794 349.913 569.871 349.869 569.942L349.858 569.959C349.818 570.023 349.781 570.082 349.748 570.137C349.679 570.254 349.621 570.372 349.609 570.501C349.595 570.636 349.633 570.763 349.712 570.898C349.788 571.03 349.909 571.18 350.075 571.367C350.317 571.638 350.415 571.814 350.501 572.001C350.521 572.043 350.54 572.086 350.56 572.132C350.631 572.295 350.716 572.487 350.871 572.747Z" fill="white" stroke="white" stroke-width="0.3"/>
<path d="M298.614 590.287L298.615 590.288C301.414 587.725 305.663 585.372 309.71 586.249L298.614 590.287ZM298.614 590.287L298.607 590.295M298.614 590.287L298.607 590.295M298.607 590.295C298.388 590.527 298.238 590.841 298.163 591.146C298.09 591.448 298.085 591.766 298.189 592.002C298.242 592.122 298.327 592.228 298.451 592.29C298.576 592.351 298.722 592.359 298.88 592.32C299.188 592.243 299.574 591.98 300.05 591.482L300.05 591.483M298.607 590.295L300.05 591.483M300.05 591.483L300.056 591.476M300.05 591.483L300.056 591.476M300.056 591.476C300.928 590.448 302.491 589.535 304.15 588.94L304.15 588.94M300.056 591.476L304.15 588.94M304.15 588.94C306.076 588.248 307.268 588.167 308.224 588.244C308.593 588.274 308.926 588.328 309.259 588.381C309.362 588.397 309.466 588.414 309.57 588.43C310.009 588.496 310.458 588.549 310.976 588.528L310.986 588.528M304.15 588.94L310.986 588.528M310.986 588.528L310.996 588.526M310.986 588.528L310.996 588.526M310.996 588.526C311.335 588.467 311.585 588.326 311.704 588.105M310.996 588.526L311.704 588.105M306.221 590.816C306.374 590.712 306.523 590.513 306.613 590.304C306.702 590.098 306.754 589.835 306.641 589.618C306.52 589.384 306.25 589.273 305.856 589.292C305.461 589.31 304.898 589.458 304.112 589.793C301.452 590.926 299.552 593.201 298.212 595.64C298.015 595.999 297.868 596.341 297.814 596.702C297.76 597.066 297.803 597.438 297.968 597.853L298.006 597.947L298.108 597.947L298.11 597.947L298.11 597.947L298.12 597.947C298.62 597.914 298.949 597.772 299.198 597.513C299.433 597.267 299.585 596.926 299.76 596.534L299.766 596.521L299.769 596.513C300.127 595.711 300.631 594.579 302.16 593.158C303.151 592.237 304.001 591.764 304.679 591.468C304.957 591.346 305.205 591.254 305.427 591.173C305.477 591.154 305.526 591.136 305.573 591.119C305.825 591.024 306.049 590.935 306.221 590.816ZM306.221 590.816L306.137 590.693L306.222 590.816C306.222 590.816 306.222 590.816 306.221 590.816ZM317.071 597.534C317.063 597.33 317.053 597.154 317.028 597.008C317.003 596.862 316.961 596.731 316.88 596.623C316.714 596.403 316.43 596.335 316.029 596.301L315.926 596.293L315.881 596.385C315.799 596.556 315.73 596.807 315.668 597.087C315.608 597.358 315.551 597.669 315.493 597.984L315.486 598.024C315.364 598.689 315.241 599.348 315.078 599.725L315.078 599.725C314.829 600.3 314.291 601.14 313.669 601.927C313.045 602.716 312.353 603.43 311.806 603.765L311.734 603.809L311.734 603.893L311.734 603.894C311.727 604.366 311.765 604.717 311.858 604.954C311.905 605.074 311.971 605.175 312.06 605.245C312.153 605.317 312.26 605.347 312.373 605.344C312.586 605.338 312.824 605.215 313.07 605.043C313.322 604.867 313.61 604.62 313.929 604.331C314.763 603.573 315.568 602.447 316.155 601.23C316.741 600.013 317.115 598.689 317.071 597.534ZM317.071 597.534L316.921 597.539L317.071 597.534C317.071 597.534 317.071 597.534 317.071 597.534ZM311.704 588.105C311.825 587.881 311.786 587.621 311.649 587.385M311.704 588.105L311.649 587.385M311.649 587.385C311.379 586.918 310.692 586.462 309.71 586.249L311.649 587.385ZM315.067 604.875L315.066 604.875C312.536 607.717 308.884 608.252 307.108 608.261C301.802 608.286 297.556 604.257 296.154 599.308C295.25 596.112 295.599 593.282 297.756 590.516L297.838 590.412L297.836 590.41C301.61 585.669 308.413 583.461 313.602 587.291C313.664 587.337 313.722 587.38 313.778 587.421C314.015 587.595 314.203 587.732 314.441 587.934C314.538 588.018 314.636 588.094 314.729 588.167C314.772 588.201 314.815 588.234 314.856 588.267C314.987 588.372 315.114 588.48 315.24 588.615C317.505 591.057 318.566 593.895 318.511 596.732C318.457 599.57 317.285 602.417 315.067 604.875ZM311.5 584.438C308.35 583.496 304.615 583.725 301.127 584.977L301.117 584.977L301.086 584.992C298.988 585.999 298.21 586.864 296.81 588.421C296.655 588.592 296.493 588.772 296.321 588.962L296.315 588.968L296.31 588.975C295.19 590.53 294.338 592.634 293.967 594.8C293.597 596.965 293.706 599.208 294.527 601.036C295.934 604.169 297.504 606.428 299.63 607.901C301.758 609.375 304.425 610.048 308.001 610.043L308.001 610.043C311.396 610.037 314.578 608.311 316.755 605.79C317.878 604.49 319.241 602.303 319.651 600.678L319.651 600.678C320.189 598.547 320.35 596.802 320.146 595.187L319.997 595.206L320.146 595.187C319.869 593.001 318.801 590.642 317.261 588.668C315.721 586.695 313.699 585.093 311.5 584.438ZM306.222 607.146L306.244 607.22L306.317 607.245C307.045 607.498 308.263 607.486 309.253 607.214C309.749 607.078 310.206 606.871 310.52 606.585C310.84 606.293 311.015 605.911 310.918 605.451L310.9 605.365L310.816 605.339C310.275 605.168 309.806 605.295 309.373 605.479C309.239 605.536 309.101 605.601 308.967 605.666C308.889 605.703 308.812 605.74 308.737 605.774C308.526 605.871 308.318 605.956 308.101 606.009C307.85 606.071 307.595 606.077 307.351 606.071C307.285 606.069 307.217 606.066 307.151 606.063C306.982 606.056 306.817 606.048 306.68 606.06C306.487 606.076 306.281 606.135 306.182 606.344C306.094 606.532 306.119 606.797 306.222 607.146ZM297.962 595.685C298.168 595.476 298.19 595.188 298.149 594.945C298.107 594.702 297.996 594.469 297.882 594.33L297.882 594.33C297.71 594.119 297.545 594.022 297.347 594.008C297.256 594.001 297.165 594.013 297.077 594.029C297.033 594.037 296.988 594.047 296.942 594.056L296.939 594.057C296.892 594.067 296.844 594.077 296.792 594.087L296.513 594.139L296.658 594.284C296.558 594.748 296.554 595.093 296.62 595.345C296.693 595.62 296.851 595.784 297.047 595.859C297.234 595.93 297.435 595.912 297.592 595.87C297.672 595.849 297.746 595.821 297.807 595.79C297.866 595.761 297.922 595.725 297.962 595.685ZM317.053 594.444L317.086 594.395L317.075 594.336C317.069 594.302 317.064 594.268 317.058 594.235C317.037 594.114 317.018 594.002 316.994 593.905C316.963 593.781 316.92 593.661 316.838 593.564C316.664 593.36 316.379 593.327 315.96 593.377L315.909 593.383L315.872 593.419C315.339 593.943 315.304 594.593 315.628 594.932C315.792 595.104 316.035 595.174 316.297 595.095C316.552 595.019 316.813 594.807 317.053 594.444Z" fill="white" stroke="white" stroke-width="0.3"/>
<path d="M343.023 474.281L343.023 474.281C345.823 471.718 350.071 469.365 354.118 470.242L343.023 474.281ZM343.023 474.281L343.016 474.289M343.023 474.281L343.016 474.289M343.016 474.289C342.797 474.521 342.646 474.835 342.572 475.14C342.499 475.441 342.494 475.759 342.597 475.995C342.65 476.116 342.735 476.222 342.86 476.283C342.985 476.345 343.131 476.353 343.289 476.313C343.597 476.237 343.983 475.973 344.458 475.476L344.458 475.476M343.016 474.289L344.458 475.476M344.458 475.476L344.464 475.469M344.458 475.476L344.464 475.469M344.464 475.469C345.336 474.441 346.9 473.528 348.559 472.933L348.559 472.933M344.464 475.469L348.559 472.933M348.559 472.933C350.485 472.241 351.677 472.16 352.633 472.238C353.001 472.268 353.334 472.321 353.667 472.374C353.771 472.391 353.875 472.407 353.979 472.423C354.418 472.49 354.867 472.542 355.385 472.522L355.395 472.521M348.559 472.933L355.395 472.521M355.395 472.521L355.405 472.52M355.395 472.521L355.405 472.52M355.405 472.52C355.744 472.46 355.994 472.319 356.113 472.099M355.405 472.52L356.113 472.099M350.63 474.81C350.782 474.705 350.931 474.506 351.022 474.297C351.11 474.092 351.162 473.828 351.05 473.611C350.929 473.378 350.659 473.267 350.265 473.285C349.869 473.303 349.307 473.451 348.521 473.786C345.861 474.919 343.961 477.194 342.621 479.634C342.423 479.992 342.277 480.335 342.223 480.695C342.169 481.059 342.211 481.431 342.377 481.846L342.415 481.941L342.516 481.941L342.519 481.941L342.519 481.941L342.528 481.94C343.029 481.907 343.358 481.765 343.606 481.506C343.842 481.261 343.994 480.919 344.169 480.527L344.174 480.514L344.178 480.506C344.535 479.705 345.04 478.572 346.569 477.151C347.56 476.231 348.41 475.757 349.087 475.461C349.365 475.34 349.614 475.248 349.836 475.166C349.886 475.148 349.935 475.13 349.982 475.112C350.234 475.018 350.458 474.928 350.63 474.81ZM350.63 474.81L350.545 474.686L350.63 474.81C350.63 474.81 350.63 474.81 350.63 474.81ZM361.48 481.527C361.472 481.323 361.462 481.148 361.437 481.002C361.412 480.855 361.37 480.724 361.289 480.617C361.123 480.397 360.839 480.328 360.437 480.295L360.335 480.286L360.29 480.379C360.207 480.55 360.139 480.801 360.077 481.08C360.016 481.352 359.959 481.663 359.902 481.977L359.895 482.017C359.773 482.683 359.65 483.342 359.486 483.718L359.486 483.718C359.238 484.293 358.7 485.134 358.078 485.921C357.454 486.71 356.762 487.423 356.214 487.758L356.142 487.802L356.142 487.886L356.142 487.887C356.136 488.359 356.174 488.71 356.267 488.947C356.314 489.068 356.379 489.169 356.469 489.238C356.562 489.31 356.669 489.34 356.782 489.337C356.995 489.332 357.233 489.208 357.479 489.037C357.731 488.861 358.019 488.614 358.337 488.324C359.171 487.566 359.977 486.441 360.564 485.223C361.149 484.007 361.524 482.683 361.48 481.527ZM361.48 481.527L361.33 481.533L361.48 481.527C361.48 481.527 361.48 481.527 361.48 481.527ZM356.113 472.099C356.234 471.874 356.194 471.615 356.058 471.378M356.113 472.099L356.058 471.378M356.058 471.378C355.787 470.911 355.101 470.455 354.118 470.242L356.058 471.378ZM359.476 488.868L359.475 488.869C356.945 491.711 353.292 492.245 351.516 492.254C346.211 492.28 341.965 488.251 340.563 483.302C339.659 480.105 340.007 477.275 342.165 474.51L342.247 474.405L342.245 474.403C346.019 469.662 352.821 467.455 358.011 471.285C358.073 471.331 358.131 471.373 358.187 471.414C358.423 471.588 358.611 471.726 358.849 471.928C358.947 472.011 359.045 472.087 359.138 472.16C359.181 472.194 359.223 472.227 359.264 472.26C359.396 472.365 359.522 472.473 359.648 472.608C361.914 475.051 362.975 477.889 362.92 480.726C362.865 483.563 361.694 486.411 359.476 488.868ZM355.909 468.431C352.759 467.49 349.023 467.718 345.536 468.971L345.526 468.971L345.495 468.985C343.397 469.993 342.619 470.857 341.218 472.414C341.064 472.586 340.902 472.766 340.73 472.955L340.724 472.961L340.719 472.968C339.599 474.524 338.747 476.628 338.376 478.794C338.006 480.959 338.114 483.202 338.936 485.03C340.342 488.162 341.913 490.422 344.039 491.894C346.167 493.368 348.834 494.041 352.409 494.037L352.409 494.037C355.804 494.03 358.987 492.304 361.164 489.783C362.287 488.484 363.649 486.296 364.06 484.672L364.06 484.672C364.597 482.541 364.759 480.796 364.555 479.181L364.406 479.199L364.555 479.181C364.278 476.994 363.21 474.635 361.67 472.662C360.13 470.689 358.107 469.087 355.909 468.431ZM350.631 491.139L350.653 491.213L350.725 491.238C351.454 491.491 352.671 491.479 353.662 491.207C354.158 491.071 354.615 490.865 354.929 490.578C355.248 490.286 355.424 489.905 355.327 489.444L355.309 489.358L355.225 489.332C354.683 489.162 354.215 489.288 353.781 489.472C353.647 489.529 353.51 489.595 353.376 489.659C353.298 489.696 353.22 489.733 353.145 489.767C352.935 489.864 352.726 489.949 352.51 490.003C352.259 490.064 352.004 490.071 351.76 490.064C351.693 490.062 351.626 490.059 351.559 490.056C351.391 490.049 351.225 490.042 351.089 490.053C350.896 490.07 350.689 490.129 350.591 490.338C350.503 490.526 350.528 490.791 350.631 491.139ZM342.37 479.679C342.576 479.47 342.599 479.181 342.557 478.939C342.516 478.696 342.404 478.462 342.291 478.323L342.29 478.323C342.119 478.113 341.954 478.015 341.756 478.001C341.665 477.994 341.574 478.006 341.485 478.023C341.442 478.031 341.396 478.04 341.351 478.05L341.348 478.05C341.301 478.06 341.252 478.07 341.201 478.08L340.921 478.132L341.066 478.277C340.967 478.741 340.963 479.086 341.029 479.338C341.102 479.613 341.26 479.777 341.456 479.852C341.642 479.923 341.843 479.905 342.001 479.864C342.081 479.843 342.155 479.814 342.216 479.784C342.274 479.755 342.331 479.719 342.37 479.679ZM361.461 478.438L361.494 478.388L361.484 478.329C361.478 478.295 361.472 478.261 361.467 478.228C361.446 478.108 361.427 477.995 361.403 477.899C361.372 477.774 361.328 477.654 361.247 477.558C361.073 477.353 360.788 477.321 360.368 477.371L360.317 477.377L360.281 477.413C359.747 477.937 359.712 478.587 360.037 478.926C360.201 479.098 360.444 479.167 360.705 479.088C360.961 479.012 361.222 478.8 361.461 478.438Z" fill="white" stroke="white" stroke-width="0.3"/>
<path d="M326.91 435.646L326.82 435.766C326.878 435.809 326.932 435.85 326.984 435.888C327.206 436.053 327.381 436.183 327.603 436.373C327.695 436.452 327.786 436.525 327.874 436.594C327.914 436.626 327.954 436.657 327.992 436.688C328.115 436.787 328.233 436.889 328.35 437.016C332.576 441.622 332.33 447.74 328.188 452.378L328.188 452.379C325.824 455.062 322.412 455.568 320.753 455.576C315.798 455.6 311.83 451.796 310.519 447.119C309.674 444.099 310 441.425 312.016 438.813L312.096 438.709L312.095 438.707C315.623 434.231 321.975 432.151 326.82 435.766L326.91 435.646ZM326.91 435.646C326.967 435.689 327.021 435.729 327.072 435.767C327.294 435.932 327.474 436.065 327.701 436.26M326.91 435.646C321.94 431.937 315.438 434.131 311.895 438.72L327.701 436.26M327.701 436.26C327.79 436.337 327.877 436.405 327.964 436.473C328.132 436.606 328.296 436.736 328.46 436.915L327.701 436.26ZM317.947 438.117C315.457 439.19 313.678 441.342 312.425 443.649C312.241 443.989 312.103 444.314 312.052 444.655C312.002 445.001 312.041 445.353 312.197 445.747L312.234 445.842L312.337 445.842L312.339 445.842L312.339 445.842L312.349 445.842C312.819 445.81 313.129 445.675 313.363 445.428C313.584 445.195 313.727 444.871 313.89 444.501L313.896 444.488L313.9 444.48C314.234 443.723 314.705 442.654 316.134 441.311C317.059 440.442 317.853 439.995 318.486 439.715C318.746 439.601 318.978 439.514 319.185 439.437C319.232 439.419 319.277 439.402 319.322 439.386C319.558 439.297 319.768 439.211 319.93 439.099C320.075 438.998 320.215 438.809 320.3 438.61C320.383 438.415 320.432 438.164 320.325 437.956C320.21 437.731 319.953 437.625 319.582 437.643C319.21 437.66 318.683 437.8 317.947 438.117ZM317.947 438.117L318.007 438.255L317.947 438.117ZM330.08 445.443C330.073 445.25 330.063 445.084 330.04 444.945C330.016 444.806 329.976 444.681 329.9 444.578C329.742 444.366 329.472 444.301 329.096 444.269L328.993 444.261L328.948 444.354C328.871 444.517 328.807 444.755 328.748 445.019C328.692 445.276 328.639 445.57 328.585 445.867L328.578 445.905C328.465 446.535 328.349 447.156 328.197 447.511L328.197 447.512C327.965 448.054 327.462 448.848 326.881 449.592C326.297 450.338 325.651 451.011 325.14 451.327L325.069 451.371L325.069 451.455L325.069 451.456C325.063 451.902 325.099 452.235 325.186 452.46C325.231 452.575 325.292 452.672 325.378 452.739C325.466 452.808 325.569 452.837 325.678 452.835C325.88 452.829 326.105 452.711 326.335 452.549C326.571 452.382 326.841 452.148 327.139 451.874C327.92 451.157 328.674 450.092 329.222 448.94C329.771 447.789 330.122 446.537 330.08 445.443ZM330.08 445.443L329.93 445.448L330.08 445.443C330.08 445.443 330.08 445.443 330.08 445.443ZM324.864 433.054C321.916 432.164 318.421 432.38 315.158 433.564L315.148 433.564L315.117 433.579C313.154 434.532 312.425 435.351 311.115 436.823C310.971 436.985 310.819 437.155 310.658 437.334L310.652 437.34L310.647 437.347C309.599 438.819 308.802 440.809 308.455 442.858C308.108 444.905 308.21 447.027 308.979 448.757C310.295 451.719 311.764 453.857 313.754 455.25C315.747 456.645 318.243 457.282 321.588 457.278L321.588 457.278C324.767 457.271 327.746 455.637 329.783 453.253C330.834 452.024 332.108 449.954 332.492 448.417L332.493 448.417C332.995 446.402 333.147 444.752 332.955 443.224L332.807 443.242L332.955 443.224C332.696 441.155 331.697 438.924 330.256 437.057C328.816 435.191 326.922 433.675 324.864 433.054ZM312.803 438.587L312.803 438.587L312.796 438.595C312.59 438.815 312.449 439.114 312.379 439.403C312.311 439.688 312.306 439.991 312.403 440.216C312.453 440.331 312.534 440.433 312.653 440.492C312.772 440.552 312.912 440.559 313.062 440.522C313.353 440.449 313.715 440.197 314.16 439.727L314.16 439.727L314.166 439.72C314.98 438.75 316.441 437.888 317.991 437.326L317.991 437.326C319.79 436.672 320.904 436.596 321.796 436.669C322.14 436.697 322.451 436.748 322.762 436.798C322.859 436.814 322.956 436.829 323.054 436.844C323.465 436.907 323.886 436.957 324.371 436.938L324.381 436.937L324.391 436.935C324.71 436.879 324.947 436.744 325.06 436.532C325.175 436.317 325.137 436.07 325.008 435.845C324.754 435.4 324.109 434.968 323.189 434.767C319.398 433.936 315.422 436.164 312.803 438.587ZM319.915 454.532L319.937 454.606L320.01 454.631C320.693 454.871 321.834 454.86 322.762 454.602C323.227 454.473 323.656 454.277 323.951 454.005C324.252 453.727 324.417 453.364 324.326 452.926L324.308 452.84L324.224 452.814C323.714 452.651 323.273 452.772 322.867 452.947C322.741 453.001 322.612 453.063 322.486 453.124C322.414 453.159 322.342 453.194 322.272 453.226C322.075 453.317 321.881 453.397 321.679 453.448C321.446 453.506 321.209 453.512 320.981 453.505C320.919 453.504 320.857 453.501 320.795 453.498C320.636 453.491 320.481 453.484 320.352 453.495C320.17 453.511 319.972 453.567 319.879 453.769C319.795 453.949 319.819 454.202 319.915 454.532ZM312.207 443.701C312.403 443.5 312.423 443.225 312.384 442.995C312.345 442.764 312.241 442.542 312.133 442.409L312.133 442.409C311.972 442.209 311.815 442.115 311.626 442.101C311.539 442.095 311.453 442.106 311.37 442.122C311.329 442.129 311.287 442.138 311.244 442.147L311.242 442.148C311.197 442.157 311.152 442.167 311.104 442.176L310.827 442.229L310.97 442.373C310.878 442.81 310.874 443.136 310.936 443.375C311.005 443.637 311.154 443.795 311.341 443.867C311.518 443.935 311.709 443.918 311.857 443.878C311.933 443.858 312.003 443.831 312.061 443.802C312.115 443.774 312.17 443.74 312.207 443.701ZM330.062 442.526L330.094 442.477L330.084 442.418C330.078 442.386 330.073 442.354 330.068 442.323C330.048 442.209 330.03 442.103 330.008 442.011C329.979 441.893 329.938 441.778 329.86 441.686C329.694 441.488 329.422 441.458 329.029 441.505L328.978 441.511L328.942 441.548C328.441 442.045 328.406 442.664 328.713 442.989C328.869 443.154 329.101 443.22 329.349 443.145C329.591 443.072 329.837 442.869 330.062 442.526Z" fill="white" stroke="white" stroke-width="0.3"/>
<path d="M237.604 433.138C237.683 433.196 237.757 433.249 237.828 433.301C238.132 433.52 238.374 433.695 238.68 433.95C238.805 434.055 238.929 434.15 239.048 434.242C239.104 434.284 239.158 434.326 239.211 434.368C239.381 434.501 239.544 434.639 239.708 434.811C242.618 437.897 243.981 441.484 243.911 445.07C243.84 448.657 242.335 452.254 239.487 455.358L239.486 455.359C236.232 458.953 231.537 459.629 229.255 459.64C222.431 459.672 216.977 454.576 215.177 448.326C214.016 444.288 214.463 440.707 217.237 437.211L217.321 437.105L217.318 437.103C222.159 431.098 230.918 428.284 237.604 433.138ZM237.604 433.138L237.692 433.017M237.604 433.138C237.604 433.138 237.604 433.138 237.604 433.138L237.692 433.017M237.692 433.017C237.77 433.074 237.844 433.127 237.915 433.178C238.219 433.398 238.466 433.576 238.776 433.835M237.692 433.017C230.881 428.072 221.971 430.997 217.116 437.115L238.776 433.835M238.776 433.835C238.899 433.938 239.018 434.03 239.136 434.12C239.367 434.297 239.591 434.47 239.817 434.708L238.776 433.835ZM218.4 436.973L218.4 436.973C221.985 433.746 227.415 430.792 232.58 431.893L218.4 436.973ZM218.4 436.973L218.392 436.981M218.4 436.973L218.392 436.981M218.392 436.981C218.118 437.268 217.928 437.657 217.834 438.037C217.741 438.412 217.736 438.805 217.864 439.091C217.929 439.238 218.032 439.362 218.181 439.434C218.33 439.507 218.506 439.517 218.701 439.47C219.083 439.376 219.57 439.051 220.178 438.426L220.179 438.426M218.392 436.981L220.179 438.426M220.179 438.426L220.184 438.419M220.179 438.426L220.184 438.419M220.184 438.419C221.309 437.115 223.32 435.962 225.45 435.21L225.45 435.21M220.184 438.419L225.45 435.21M225.45 435.21C227.923 434.336 229.457 434.233 230.689 434.331C231.163 434.369 231.592 434.437 232.02 434.504C232.152 434.525 232.284 434.545 232.418 434.565C232.979 434.649 233.551 434.715 234.211 434.689L234.22 434.689M225.45 435.21L234.22 434.689M234.22 434.689L234.23 434.687M234.22 434.689L234.23 434.687M234.23 434.687C234.657 434.614 234.963 434.44 235.107 434.177M234.23 434.687L235.107 434.177M217.724 446.562L217.724 446.561L217.721 446.561L217.62 446.561L217.582 446.468C217.372 445.95 217.319 445.488 217.387 445.036C217.455 444.588 217.641 444.161 217.893 443.711C217.893 443.711 217.893 443.71 217.893 443.71L218.024 443.784L217.724 446.562ZM217.724 446.562L217.734 446.561M217.724 446.562L217.734 446.561M217.734 446.561C218.367 446.52 218.777 446.344 219.087 446.027C219.383 445.722 219.576 445.298 219.802 444.8L219.807 444.788L219.812 444.778C220.27 443.766 220.92 442.333 222.885 440.535M217.734 446.561L222.885 440.535M222.885 440.535C224.158 439.372 225.252 438.773 226.124 438.398C226.482 438.244 226.802 438.128 227.086 438.025C227.15 438.001 227.212 437.979 227.273 437.957C227.597 437.838 227.879 437.726 228.094 437.58M222.885 440.535L228.094 437.58M228.094 437.58C228.094 437.58 228.094 437.58 228.094 437.58L228.01 437.456L228.094 437.58ZM228.094 437.58C228.281 437.454 228.468 437.21 228.582 436.951M228.094 437.58L228.582 436.951M241.981 446.081C241.971 445.823 241.958 445.605 241.926 445.423C241.895 445.241 241.842 445.083 241.744 444.954C241.544 444.693 241.198 444.607 240.683 444.565L240.581 444.556L240.536 444.648C240.433 444.859 240.346 445.172 240.266 445.524C240.189 445.865 240.116 446.257 240.043 446.653L240.033 446.704C239.878 447.541 239.719 448.376 239.508 448.856L239.507 448.856C239.188 449.585 238.496 450.648 237.697 451.641C236.897 452.636 236.007 453.54 235.298 453.967L235.225 454.01L235.225 454.095L235.225 454.097C235.217 454.691 235.266 455.128 235.382 455.419C235.441 455.567 235.521 455.687 235.629 455.769C235.739 455.853 235.866 455.889 236.002 455.885C236.261 455.878 236.556 455.73 236.871 455.514C237.191 455.294 237.559 454.984 237.967 454.619C239.031 453.668 240.06 452.253 240.81 450.722C241.56 449.192 242.037 447.529 241.981 446.081ZM241.981 446.081C241.981 446.081 241.981 446.081 241.981 446.081L241.831 446.087L241.981 446.081C241.981 446.081 241.981 446.081 241.981 446.081ZM235.107 434.177C235.254 433.909 235.208 433.596 235.037 433.305M235.107 434.177L235.037 433.305M235.037 433.305C234.699 432.73 233.833 432.159 232.58 431.893L235.037 433.305ZM228.582 436.951C228.694 436.696 228.755 436.377 228.619 436.118M228.582 436.951L228.619 436.118M228.619 436.118C228.474 435.844 228.15 435.706 227.653 435.729M228.619 436.118L227.653 435.729M227.653 435.729C227.154 435.752 226.439 435.936 225.433 436.357L227.653 435.729ZM234.871 429.609C230.843 428.425 226.063 428.712 221.599 430.291L221.588 430.291L221.558 430.305C218.877 431.571 217.885 432.656 216.09 434.618C215.892 434.834 215.685 435.061 215.464 435.3L215.458 435.306L215.453 435.313C214.022 437.268 212.931 439.915 212.457 442.64C211.983 445.365 212.123 448.184 213.171 450.479C214.973 454.425 216.981 457.266 219.698 459.116C222.415 460.967 225.823 461.815 230.399 461.809L230.399 461.809C234.735 461.801 238.802 459.632 241.586 456.462C243.022 454.826 244.764 452.074 245.288 450.034L245.288 450.034C245.977 447.351 246.183 445.156 245.921 443.126L245.773 443.145L245.921 443.126C245.568 440.378 244.202 437.41 242.233 434.927C240.263 432.445 237.677 430.432 234.871 429.609ZM228.161 458.185L228.183 458.259L228.256 458.284C229.178 458.599 230.729 458.585 231.992 458.244C232.625 458.073 233.203 457.815 233.598 457.46C234 457.1 234.217 456.632 234.096 456.067L234.078 455.981L233.994 455.955C233.315 455.744 232.726 455.9 232.175 456.13C232.003 456.202 231.83 456.283 231.658 456.364C231.558 456.411 231.458 456.458 231.361 456.502C231.09 456.624 230.82 456.733 230.538 456.801C230.212 456.88 229.88 456.888 229.565 456.879C229.478 456.877 229.391 456.873 229.305 456.87C229.09 456.86 228.883 456.851 228.711 456.866C228.468 456.886 228.224 456.957 228.108 457.201C228.001 457.424 228.029 457.746 228.161 458.185ZM217.503 443.723C217.754 443.472 217.784 443.123 217.732 442.823C217.68 442.522 217.539 442.234 217.398 442.064L217.398 442.064C217.183 441.805 216.981 441.69 216.743 441.674C216.632 441.666 216.52 441.68 216.408 441.7C216.353 441.71 216.295 441.722 216.236 441.734L216.233 441.735C216.173 441.747 216.11 441.76 216.043 441.773L215.76 441.825L215.909 441.971C215.778 442.563 215.772 442.997 215.856 443.311C215.947 443.647 216.141 443.843 216.378 443.932C216.605 444.017 216.852 443.996 217.049 443.945C217.149 443.919 217.241 443.884 217.317 443.847C217.389 443.812 217.457 443.769 217.503 443.723ZM241.964 442.165L241.997 442.114L241.987 442.055C241.979 442.011 241.971 441.968 241.964 441.926C241.938 441.775 241.914 441.635 241.883 441.514C241.844 441.359 241.79 441.215 241.691 441.1C241.484 440.86 241.141 440.816 240.604 440.879L240.553 440.885L240.517 440.92C239.843 441.571 239.809 442.367 240.205 442.774C240.404 442.979 240.698 443.062 241.018 442.968C241.332 442.876 241.659 442.617 241.964 442.165Z" fill="white" stroke="white" stroke-width="0.3"/>
<path d="M141.004 470.872C137.837 468.61 127.567 477.913 123.358 480.827C111.593 488.971 120.643 501.188 122 512.5C190.022 587.762 274.023 681.14 293.932 692.362C313.841 703.583 348.983 690.703 364.066 682.86C340.236 659.934 290.222 611.368 280.81 600.509C269.046 586.935 240.087 556.166 218.369 541.687C196.65 527.208 144.171 473.134 141.004 470.872Z" fill="#C98D75"/>
<path d="M135 465.5C138.167 467.762 196.65 527.208 218.369 541.687C240.088 556.166 269.046 586.935 280.811 600.509C290.222 611.369 340.236 659.934 364.066 682.86" stroke="black" stroke-width="4" stroke-linecap="round" stroke-linejoin="round"/>
<path d="M216.505 421.513L225.629 414.31L221.307 400.864L216.985 391.741L215.545 387.419L216.505 383.097L216.985 375.894V364.37L215.064 360.528L219.386 352.365L220.347 346.602L219.386 336.518L223.708 321.632L219.386 282.256L190.094 261.608L125.748 268.331C118.865 277.614 104.139 298.679 100.298 308.667C96.4563 318.655 107.341 357.647 113.263 375.894L124.308 397.023L129.59 404.226C128.95 409.188 128.149 420.648 130.07 426.795C131.991 432.941 151.038 434.798 160.322 434.958L181.451 433.518L197.777 429.196L207.862 424.874L216.505 421.513Z" fill="#FD8582"/>
<path d="M215.545 385.498C215.225 386.619 215.641 390.684 219.867 397.983C224.092 405.282 225.469 411.909 225.629 414.31C225.629 414.47 224.476 415.654 219.867 419.112C214.104 423.433 208.342 423.433 200.659 427.755C192.976 432.077 180.491 433.518 173.288 434.478C166.085 435.438 147.837 433.998 138.714 432.077C129.59 430.156 129.358 426.315 129.11 421.993C128.911 418.535 129.192 407.747 129.358 402.785M215.545 385.498L211.703 392.701M215.545 385.498C216.185 384.698 217.37 381.464 216.985 374.934C216.505 366.77 217.466 363.409 214.584 358.127M212.183 362.929C215.225 359.888 221.115 351.884 220.347 344.201C219.578 336.518 220.987 329.475 221.787 326.914M221.787 326.914C223.068 323.393 225.245 315.582 223.708 312.508L221.787 309.627M221.787 326.914C220.187 331.076 215.737 340.072 210.743 342.761C204.5 346.122 204.5 346.122 201.139 346.122C197.778 346.122 182.411 346.122 181.931 344.201C181.547 342.665 180.17 340.36 179.53 339.399M170.887 315.39C171.527 316.03 172.807 318.175 172.807 321.632C172.807 325.954 173.768 338.919 172.807 339.88C171.847 340.84 162.243 350.444 155.52 351.884C148.798 353.325 144.476 352.845 137.753 352.845C132.375 352.845 125.908 349.003 123.347 347.083M122.387 358.607C123.668 361.168 127.477 366.77 132.471 368.691C137.465 370.612 141.275 371.092 142.555 371.092M122.867 367.251C122.387 369.492 122.291 374.838 125.748 378.295C130.07 382.617 135.352 386.458 140.634 388.859M122.867 385.498C124.788 388.059 130.07 393.853 135.832 396.543M159.842 361.969C161.923 359.247 167.333 353.517 172.327 352.365M182.892 351.404C186.893 352.365 195.281 355.054 196.817 358.127M179.05 356.206V363.889M176.649 364.85C174.248 366.61 168.774 370.324 166.085 371.092C163.396 371.861 161.443 373.013 160.803 373.493M184.812 369.171C188.334 369.492 195.857 369.94 197.778 369.171C199.698 368.403 201.779 366.931 202.58 366.29M205.941 386.939C204.981 389.02 202.195 393.277 198.738 393.661C195.281 394.046 189.934 393.821 187.693 393.661M179.53 391.741C177.129 393.501 171.559 397.023 168.486 397.023C165.412 397.023 162.723 397.023 161.763 397.023M152.159 391.26C155.04 392.221 160.899 394.334 161.283 395.102M152.639 406.146C152.319 408.547 153.119 413.83 158.882 415.75C166.085 418.151 172.327 418.151 176.649 416.711M184.812 419.112C186.253 416.711 189.806 412.965 192.495 417.191M199.698 415.75C202.74 414.63 208.822 411.333 208.822 407.107C208.822 401.825 207.862 398.463 207.862 397.023M185.773 411.429V403.265M183.372 384.058L181.931 381.176M107.501 356.206C109.422 364.209 114.608 381.945 119.986 388.859C120.786 390.14 122.579 393.181 123.347 395.102C123.967 396.652 126.789 400.204 129.358 402.785M132.951 405.666C132.1 405.326 130.767 404.202 129.358 402.785" stroke="black" stroke-width="4" stroke-linecap="round" stroke-linejoin="round"/>
<path d="M273.168 380.696C277.778 388.379 282.452 404.706 284.212 411.909C284.853 413.99 286.325 419.016 287.094 422.473C288.054 426.795 296.217 431.597 298.138 433.037C300.059 434.478 302.46 440.24 300.539 441.201C298.618 442.161 297.178 440.721 295.737 438.8C294.585 437.263 291.526 436.239 290.14 435.919C290.809 437.901 290.325 440.31 285.173 439.28C277.97 437.839 275.089 425.835 273.648 423.434C272.208 421.033 258.762 415.27 255.881 412.869C253 410.468 252.52 409.028 248.678 404.226C244.837 399.424 237.634 384.058 237.153 382.137C236.769 380.6 236.993 374.876 237.153 372.207C235.205 371.616 233.058 370.367 230.911 369.652C228.03 368.691 221.787 354.766 220.827 345.162C220.059 337.479 224.028 324.994 226.109 319.712C194.896 327.875 190.574 271.692 207.381 271.692C207.381 270.54 207.061 269.291 206.901 268.811C209.782 268.811 222.748 273.613 226.589 275.053C230.431 276.494 238.594 283.217 240.035 284.177C241.475 285.138 247.237 289.459 246.757 305.786C246.277 322.113 244.356 322.113 244.837 322.113C245.221 322.113 246.277 320.512 246.757 319.712C247.237 320.672 248.966 323.841 252.039 328.835C255.881 335.078 258.762 349.003 258.762 351.885C258.762 354.766 260.203 358.127 260.203 360.048C260.203 361.969 267.406 371.092 273.168 380.696Z" fill="#FD8582"/>
<path d="M108.941 286.098C114.704 283.793 116.465 279.141 116.625 277.103C131.991 266.89 159.842 322.593 107.981 329.796C109.582 333.157 112.879 340.744 113.263 344.201C113.743 348.523 113.263 360.528 113.743 367.251C114.224 373.973 112.303 378.775 110.382 383.577C108.845 387.419 103.659 394.142 101.258 397.023C102.539 398.623 105.58 402.593 107.501 405.666C109.902 409.508 112.303 417.191 114.224 421.993C116.144 426.795 115.184 437.839 115.664 440.721C116.144 443.602 119.986 444.562 123.827 444.562C127.669 444.562 133.912 451.285 134.872 454.646C135.832 458.008 131.03 458.008 128.149 457.527C125.844 457.143 123.667 454.166 122.867 452.725C122.867 457.527 126.709 459.448 127.669 460.889C128.629 462.329 130.55 464.25 126.709 464.73C124.579 464.996 122.942 464.202 121.924 463.37C122.204 463.828 122.306 464.331 121.907 464.73C120.946 465.691 119.026 465.21 116.625 465.21C114.224 465.21 111.342 460.409 109.902 458.488C108.749 456.951 108.461 453.046 108.461 451.285C105.74 450.485 99.1455 448.212 94.5356 445.523C88.7733 442.161 83.4911 436.879 78.209 430.156C72.9269 423.434 73.4071 418.632 72.9269 411.909C72.4467 405.186 74.8476 395.102 74.8476 393.661C74.8476 392.221 68.6051 385.018 68.1249 382.137C67.6447 379.256 68.6051 369.652 70.0457 361.488C71.1982 354.958 73.8696 346.282 75.0613 342.761C73.6453 339.401 73.046 335.132 72.4467 331.236C71.4863 324.994 73.8872 314.91 75.3278 310.588C76.7684 306.266 84.9317 297.142 87.8129 294.741C90.6941 292.34 101.739 288.979 108.941 286.098Z" fill="#FD8582"/>
<path d="M207.381 271.692C207.381 270.54 207.061 269.291 206.901 268.811C209.782 268.811 222.748 273.613 226.589 275.053C230.431 276.494 238.594 283.217 240.035 284.177C241.475 285.138 247.237 289.459 246.757 305.786C246.277 322.113 244.356 322.113 244.837 322.113C245.221 322.113 246.277 320.512 246.757 319.712C247.237 320.672 248.966 323.841 252.039 328.835C255.881 335.078 258.762 349.003 258.762 351.885C258.762 354.766 260.203 358.127 260.203 360.048C260.203 361.969 267.406 371.092 273.168 380.696C277.778 388.379 282.452 404.706 284.212 411.909C284.853 413.99 286.325 419.016 287.094 422.473C288.054 426.795 296.217 431.597 298.138 433.037C300.059 434.478 302.46 440.24 300.539 441.201C298.618 442.161 297.178 440.721 295.737 438.8C294.585 437.263 291.526 436.239 290.14 435.919M116.625 277.103C116.465 279.141 114.704 283.793 108.941 286.098C101.739 288.979 90.6941 292.34 87.8129 294.741C84.9317 297.142 76.7684 306.266 75.3278 310.588C73.8872 314.91 71.4863 324.994 72.4467 331.236C73.046 335.132 73.6453 339.401 75.0613 342.761M78.6892 347.563C77.0643 346.48 75.9145 344.785 75.0613 342.761M75.0613 342.761C73.8696 346.282 71.1982 354.958 70.0457 361.488C68.6051 369.652 67.6447 379.256 68.1249 382.137C68.6051 385.018 74.8476 392.221 74.8476 393.661C74.8476 395.102 72.4467 405.186 72.9269 411.909C73.4071 418.632 72.9269 423.434 78.209 430.156C83.4911 436.879 88.7733 442.161 94.5356 445.523C99.1455 448.212 105.74 450.485 108.461 451.285C108.461 453.046 108.749 456.951 109.902 458.488C111.342 460.409 114.224 465.21 116.625 465.21C119.026 465.21 120.946 465.691 121.907 464.73C122.675 463.962 121.587 462.81 120.946 462.329C121.587 463.29 123.635 465.114 126.709 464.73C130.55 464.25 128.629 462.329 127.669 460.889C126.709 459.448 122.867 457.527 122.867 452.725C123.667 454.166 125.844 457.143 128.149 457.527C131.03 458.008 135.832 458.008 134.872 454.646C133.912 451.285 127.669 444.562 123.827 444.562C119.986 444.562 116.144 443.602 115.664 440.721C115.184 437.839 116.144 426.795 114.224 421.993C112.303 417.191 109.902 409.508 107.501 405.666C105.58 402.593 102.539 398.623 101.258 397.023M101.258 397.023L99.3376 399.424M101.258 397.023C103.659 394.142 108.845 387.419 110.382 383.577C112.303 378.775 114.224 373.973 113.743 367.251C113.263 360.528 113.743 348.523 113.263 344.201C112.879 340.744 109.582 333.157 107.981 329.796M226.109 319.712C224.028 324.994 220.059 337.479 220.827 345.162C221.787 354.766 228.03 368.691 230.911 369.652C233.058 370.367 235.205 371.616 237.153 372.207M239.074 372.533C238.462 372.533 237.82 372.408 237.153 372.207M237.153 372.207C236.993 374.876 236.769 380.6 237.153 382.137C237.634 384.058 244.837 399.424 248.678 404.226C252.52 409.028 253 410.468 255.881 412.869C258.762 415.27 272.208 421.033 273.648 423.434C275.089 425.835 277.97 437.839 285.173 439.28C290.325 440.31 290.809 437.901 290.14 435.919M287.574 432.557L289.014 433.998C289.425 434.408 289.874 435.129 290.14 435.919M252.039 375.414C250.119 374.134 246.373 371.188 246.757 369.652C247.237 367.731 248.678 364.37 250.599 363.409" stroke="black" stroke-width="4" stroke-linecap="round" stroke-linejoin="round"/>
<path d="M116.905 277.449C116.829 277.846 116.814 278.17 116.841 278.415C121.803 290.269 143.636 310.13 191.271 294.741C191.752 293.301 196.554 289.939 199.435 288.979C201.042 288.443 204.609 286.01 207.598 283.826C208.897 282.877 210.087 281.975 210.959 281.296C211.92 282.736 218.162 288.019 233.529 291.86C248.895 295.702 263.301 290.9 267.142 288.979C270.984 287.058 270.984 281.776 271.464 276.494C271.944 271.212 279.147 256.326 279.147 255.365C279.147 254.405 290.192 243.361 291.632 240.96C292.109 240.165 292.218 238.16 292.132 235.677C291.959 230.658 290.993 223.683 290.672 220.791C290.561 219.797 290.019 218.549 289.231 217.18C286.596 212.602 281.217 206.683 280.108 204.465C278.667 201.584 280.108 195.341 258.019 173.252C235.93 151.163 181.187 174.213 172.544 184.297C163.9 194.381 158.138 219.351 156.698 221.752C155.257 224.153 147.094 239.039 143.252 243.841C139.41 248.643 132.688 260.648 124.524 267.37C119.102 271.836 117.277 275.507 116.905 277.449Z" fill="url(#paint0_linear_82_9032)"/>
<path d="M200.876 227.994L180.707 227.514C180.067 228.154 179.171 230.107 180.707 232.796C182.628 236.158 185.99 237.598 190.311 239.999C194.633 242.4 202.796 240.96 205.678 240.479C208.559 239.999 212.4 233.757 212.4 230.875C212.4 228.571 204.717 227.994 200.876 227.994Z" fill="white"/>
<path d="M278.667 227.994C276.746 226.458 275.946 222.872 275.786 221.272C276.266 217.91 285.87 216.47 288.271 216.47C290.192 216.47 291.312 221.272 291.632 223.673L292.113 235.677C291.472 235.517 289.616 235.101 287.311 234.717C284.429 234.237 281.068 229.915 278.667 227.994Z" fill="white"/>
<path d="M117.322 275.534C117.161 276.014 116.841 277.262 116.841 278.415C116.681 276.974 117.994 272.748 124.524 267.37C132.688 260.648 139.41 248.643 143.252 243.841C147.094 239.039 155.257 224.153 156.698 221.752C158.138 219.351 163.9 194.381 172.544 184.297C181.187 174.213 235.93 151.163 258.019 173.252C280.108 195.341 278.667 201.584 280.108 204.465C281.217 206.683 286.596 212.602 289.231 217.18M191.271 294.741C191.752 293.301 196.554 289.939 199.435 288.979C201.042 288.443 204.609 286.01 207.598 283.826C208.897 282.877 210.087 281.975 210.959 281.296L209.519 279.855C210.479 281.296 218.162 288.019 233.529 291.86C248.895 295.702 263.301 290.9 267.142 288.979C270.984 287.058 270.984 281.776 271.464 276.494C271.944 271.212 279.147 256.326 279.147 255.365C279.147 254.405 290.192 243.361 291.632 240.96C292.109 240.165 292.218 238.16 292.132 235.677M209.039 269.291C207.758 266.41 204.621 260.648 202.316 260.648C199.435 260.648 187.43 254.885 185.989 247.202M227.766 282.736C229.207 280.175 231.896 273.805 231.128 268.811C231.288 268.171 233.144 266.602 239.291 265.449C246.974 264.009 247.454 263.049 250.816 263.529C254.177 264.009 264.741 268.811 265.221 270.251M265.221 270.251C265.542 270.251 266.182 269.963 266.182 268.811M265.221 270.251L265.702 281.776M265.221 282.256C265.221 283.377 264.837 285.618 263.301 285.618C261.38 285.618 261.86 284.177 261.38 285.137C260.9 286.098 261.38 288.979 259.939 288.019C258.499 287.058 257.538 285.137 256.578 286.098C255.618 287.058 253.217 291.38 252.256 289.459C251.296 287.538 252.736 285.618 250.816 287.058C248.895 288.499 248.895 291.38 247.454 289.939C246.014 288.499 245.533 286.578 243.613 288.019C241.692 289.459 239.291 290.42 238.331 288.499C237.37 286.578 236.89 288.979 234.969 288.979C233.048 288.979 232.568 285.618 231.608 286.578C230.647 287.538 230.167 288.499 228.727 288.499M241.212 277.935C241.532 277.134 243.517 275.534 248.895 275.534C254.273 275.534 258.179 274.893 259.459 274.573M292.132 235.677C291.959 230.658 290.993 223.683 290.672 220.791C290.561 219.797 290.019 218.549 289.231 217.18M292.132 235.677C290.045 235.677 285.102 234.717 282.028 230.875C278.187 226.074 274.825 224.633 275.306 222.232C275.786 219.831 277.707 218.39 280.108 217.91C282.508 217.43 286.83 216.451 289.231 217.18M212.88 231.356C212.72 230.075 210.383 227.61 202.316 227.994C192.232 228.474 179.747 227.034 179.747 227.994C179.747 228.955 181.668 235.197 184.069 236.638C186.47 238.078 191.752 240.96 193.672 240.96C195.593 240.96 202.316 241.44 204.237 240.96C206.158 240.479 213.36 236.158 212.88 231.356Z" stroke="black" stroke-width="4" stroke-linecap="round" stroke-linejoin="round"/>
<path d="M173.984 197.742C173.984 196.59 175.585 194.381 175.905 193.901C179.267 188.618 193.192 181.415 202.796 178.534C205.907 177.601 221.664 186.427 226.373 186.19C228.913 186.062 220.207 176.676 222.748 176.684C225.475 176.691 233.548 184.723 235.89 184.83C239.813 185.011 237.476 177.331 238.811 177.574C240.333 177.851 242.692 184.607 245.406 186.19C247.671 176.221 260.981 191.028 264.741 193.42C270.023 196.782 274.536 203.985 280.298 203.985C284.258 203.985 281.205 199.494 281.205 196.612C281.205 193.731 281.886 192.611 278.486 188.456C274.407 183.471 272.286 183.135 269.876 178.534C264.594 168.45 259.433 166.894 251.75 163.532C244.067 160.171 231.229 158.013 225.467 159.454C218.879 161.101 209.904 163.532 204.622 163.532C199.34 163.532 189.966 168.355 184.684 171.236C179.401 174.117 171.103 177.682 167.262 183.924C163.42 190.167 158.854 196.126 158.854 204.769C158.854 213.413 158.138 226.074 159.579 230.395C161.019 234.717 161.499 241.92 164.861 240.96C168.222 239.999 166.782 224.633 167.262 219.831C167.644 216.009 168.702 209.747 171.103 203.985C173.504 198.222 173.984 199.183 173.984 197.742Z" fill="black"/>
<circle cx="3.84156" cy="3.84156" r="3.84156" transform="matrix(-1 0 0 1 198.955 229.915)" fill="black"/>
<path d="M283.663 224.803C284.429 227.034 286.112 228.123 287.905 227.642C289.698 227.162 290.706 225.11 290.157 223.061C289.607 221.012 287.708 219.741 285.915 220.222C283.465 220.879 283.114 222.754 283.663 224.803Z" fill="black"/>
<path d="M197.39 194C196.557 195.5 194.99 199.3 195.39 202.5C196.057 203 197.29 203.1 196.89 199.5M220.89 204.5C221.557 206.167 222.69 210.2 221.89 213C221.223 213.167 220.09 212.5 220.89 208.5M267.89 202.5C267.89 204.5 268.79 209.1 272.39 211.5C273.057 211.833 273.59 211.5 270.39 207.5M248.89 190C250.223 191.667 252.89 195.5 252.89 197.5C252.223 197.833 250.79 197.5 250.39 193.5M134.39 275.5C133.39 277 131.59 280.4 132.39 282C133.19 283.6 133.723 280.667 133.89 279M151.89 247C153.557 249 156.59 253.5 155.39 255.5C153.89 258 154.39 251.5 153.39 250.5M89.8899 310.5C88.7232 312.833 86.8899 317.6 88.8899 318C91.3899 318.5 88.8899 314.5 89.3899 313.5" stroke="white" stroke-width="3" stroke-linecap="round" stroke-linejoin="round"/>
</g>
<defs>
<linearGradient id="paint0_linear_82_9032" x1="159.307" y1="287.696" x2="204.494" y2="163.989" gradientUnits="userSpaceOnUse">
<stop stop-color="#FD8582"/>
<stop offset="1" stop-color="#FF3E39"/>
</linearGradient>
<clipPath id="clip0_82_9032">
<rect width="390" height="734" fill="white"/>
</clipPath>
</defs>
</svg>
