<svg width="66" height="86" viewBox="0 0 66 86" fill="none" xmlns="http://www.w3.org/2000/svg">
<path d="M25.0106 64.6562C24.5505 64.1542 28.4477 52.3146 30.4539 46.4575L20.0951 45.0991C16.7485 43.9312 9.67862 41.4491 8.17261 40.8635C6.29011 40.1314 8.17261 39.5039 5.45344 37.4645C2.73427 35.4251 1.68848 32.2353 1.68848 29.5684C1.68848 26.9015 3.20493 25.6988 4.40764 21.8815C5.61035 18.0642 8.43408 16.3386 10.1597 14.2469C11.5402 12.5736 15.7201 11.7718 17.6375 11.58L23.9125 9.85446L45.7705 11.8416C48.8383 13.0791 55.936 16.0666 59.7847 18.1165C64.5955 20.6788 64.857 26.2741 63.9157 30.5097C62.9745 34.7453 61.5103 39.2424 57.5361 42.4322C53.562 45.622 40.123 47.0862 37.2992 47.0862C35.0402 47.0862 32.7324 51.8971 31.8609 54.3025C29.7692 57.9629 25.4707 65.1583 25.0106 64.6562Z" fill="#94DEFF"/>
<path fill-rule="evenodd" clip-rule="evenodd" d="M27.4404 8.99026C28.1925 9.08447 28.9884 9.16683 29.9051 9.17905C31.9158 9.20586 34.4101 9.52593 36.9033 9.85368C37.0068 9.86729 37.1103 9.88091 37.2138 9.89453C39.6353 10.2132 42.0571 10.5319 44.1658 10.6288C46.5704 10.7394 48.0139 11.2333 49.5545 11.9248C49.8775 12.0698 50.2009 12.2213 50.5366 12.3786C51.7627 12.9531 53.1534 13.6047 55.2932 14.2982C58.2717 15.2634 60.6498 16.9973 62.3327 18.8039C63.9885 20.5812 65.0633 22.5312 65.2865 23.9979C65.2941 24.0476 65.3015 24.0966 65.3089 24.1449C65.4749 25.2327 65.5875 25.9705 65.487 26.9829C65.3872 27.9881 65.0786 29.2611 64.49 31.5386C64.2014 32.6554 64.0318 33.5432 63.892 34.3101C63.8765 34.395 63.8613 34.4791 63.8462 34.5624C63.7275 35.2187 63.617 35.8295 63.4572 36.406C63.0725 37.7938 62.4138 38.9513 60.8428 40.6577C57.7885 43.9753 55.0933 45.9039 51.7248 46.2524C50.6269 46.3659 49.9061 46.4978 49.1185 46.6419C48.862 46.6889 48.5985 46.7371 48.3125 46.7864C47.1475 46.9873 45.7137 47.1853 43.0932 47.3425C40.528 47.4964 39.01 47.6824 38.0447 47.8499C37.3287 47.9742 36.931 48.0838 36.58 48.1805C36.5272 48.195 36.4755 48.2093 36.4239 48.2232C36.382 48.2719 36.3273 48.3398 36.2591 48.4306C36.0516 48.7069 35.7804 49.1135 35.4595 49.628C34.8209 50.6519 34.0287 52.0332 33.2268 53.4907C31.6137 56.4227 30.9409 57.0672 30.4999 58.1452C30.0834 59.1632 29.3314 60.359 28.6009 61.4028C27.8604 62.4609 27.0968 63.4264 26.6134 63.9993C26.4234 64.2245 26.1438 64.3544 25.8491 64.3544C25.4517 64.3544 25.1095 64.1621 24.8952 63.8674C24.7191 63.6251 24.6637 63.3636 24.6415 63.1997C24.596 62.8631 24.6352 62.4763 24.6896 62.1313C24.8037 61.4086 25.0553 60.4638 25.3382 59.508C25.6149 58.573 25.9353 57.5822 26.2181 56.7079L26.2466 56.6199C26.5413 55.7087 26.7828 54.9579 26.9033 54.5C27.2686 53.1117 27.9819 50.9094 29.2993 47.823C26.988 47.7798 25.5249 47.5135 24.3169 47.1918C23.8689 47.0725 23.4834 46.9554 23.1211 46.8453C22.2773 46.589 21.5591 46.3708 20.4701 46.2517C19.5861 46.1551 18.9526 46.004 18.4613 45.806C17.9495 45.5998 17.6392 45.3605 17.4109 45.1771C17.196 45.0045 17.1406 44.9615 17.0287 44.9188C16.9052 44.8718 16.6494 44.809 16.0776 44.809C15.269 44.809 14.33 44.5612 13.4292 44.2412C12.5074 43.9137 11.5347 43.4768 10.63 43.031C9.02934 42.2423 7.58311 41.3965 6.93889 41.0197C6.85493 40.9706 6.78459 40.9295 6.72931 40.8975C6.29515 40.6461 6.02775 40.3159 5.83775 39.9901C5.72894 39.8034 5.61547 39.5546 5.52711 39.3608C5.49281 39.2856 5.46229 39.2187 5.4373 39.1669C5.22701 38.7313 4.91826 38.2066 4.02763 37.5983C2.79977 36.7599 2.02114 35.7544 1.53372 34.452C1.06514 33.2 0.878367 31.7024 0.748617 29.9118C0.597953 27.8327 1.38838 26.0676 2.12409 24.6356C2.25187 24.3869 2.37494 24.1539 2.49263 23.9311C2.73058 23.4807 2.9466 23.0718 3.13527 22.6581C3.41082 22.054 3.56628 21.5637 3.59361 21.1355C3.64705 20.2983 4.00794 19.4441 4.4973 18.6486C4.99471 17.84 5.67019 17.0188 6.44892 16.2332C8.00457 14.664 10.046 13.1632 12.1121 12.1301C14.2088 11.0818 15.4135 10.9031 16.5443 10.7644C16.581 10.7599 16.6175 10.7554 16.654 10.751C17.6219 10.633 18.5147 10.5242 20.1469 9.74263C22.1576 8.77978 23.6917 8.62746 25.2276 8.73514C25.7837 8.77412 26.3524 8.84866 26.9172 8.92269C27.0922 8.94562 27.2667 8.9685 27.4404 8.99026ZM25.0877 10.7302C23.8557 10.6439 22.6735 10.7502 21.0107 11.5465C19.0847 12.4688 17.9476 12.6078 16.8773 12.7386C16.8474 12.7422 16.8176 12.7458 16.7879 12.7495C15.8102 12.8695 14.842 13.0012 13.0065 13.919C11.1405 14.852 9.27565 16.2226 7.86927 17.6413C7.16698 18.3497 6.59751 19.0516 6.20081 19.6965C5.79607 20.3545 5.61371 20.8843 5.58954 21.2629C5.53927 22.0506 5.26788 22.802 4.95492 23.4881C4.74197 23.955 4.48047 24.4503 4.22726 24.93C4.11598 25.1408 4.00631 25.3486 3.90305 25.5495C3.19011 26.9373 2.63536 28.2765 2.74339 29.7673C2.87233 31.5467 3.04765 32.7913 3.40684 33.751C3.74719 34.6604 4.26199 35.3365 5.15552 35.9467C6.38627 36.7872 6.90539 37.6076 7.23839 38.2974C7.31504 38.4562 7.36662 38.5709 7.40842 38.6639C7.466 38.7921 7.50504 38.8789 7.56553 38.9827C7.63099 39.095 7.67402 39.1334 7.73138 39.1666C7.79072 39.201 7.86451 39.2441 7.95136 39.2949C8.60151 39.675 9.98348 40.4829 11.5139 41.2369C12.3812 41.6642 13.2775 42.0648 14.0987 42.3566C14.9408 42.6558 15.6187 42.809 16.0776 42.809C16.7734 42.809 17.3002 42.882 17.7409 43.05C18.1593 43.2094 18.4393 43.4363 18.6211 43.5837C18.6358 43.5956 18.65 43.6071 18.6635 43.6179C18.8296 43.7514 18.9623 43.8517 19.2088 43.951C19.4758 44.0586 19.9159 44.1792 20.6875 44.2636C21.9728 44.4042 22.9394 44.6974 23.8474 44.9728C24.1791 45.0734 24.5029 45.1716 24.8317 45.2592C26.0901 45.5943 27.7351 45.886 30.8284 45.8197C31.1769 45.8122 31.5042 45.9868 31.6921 46.2803C31.88 46.5739 31.9015 46.9442 31.7488 47.2576C30.452 49.9185 29.2362 53.4937 28.8375 55.009C28.6993 55.5341 28.4359 56.3499 28.1495 57.2354L28.124 57.3144C27.8854 58.0521 27.6265 58.8524 27.3904 59.6278C27.9266 58.8182 28.3876 58.0262 28.6488 57.3879C29.1391 56.1895 29.8655 55.4511 31.4745 52.5266C32.2836 51.0559 33.0959 49.6384 33.7626 48.5696C34.0943 48.0377 34.4009 47.5745 34.6598 47.2297C34.7877 47.0593 34.9198 46.8965 35.0494 46.7637C35.1141 46.6974 35.1936 46.6225 35.285 46.5544C35.3639 46.4957 35.5188 46.3904 35.7311 46.3373C35.8105 46.3174 35.9003 46.2926 36.0039 46.264C36.3602 46.1657 36.8797 46.0222 37.7027 45.8794C38.7669 45.6947 40.3649 45.5026 42.9735 45.3461C45.5269 45.1929 46.8869 45.0027 47.9726 44.8155C48.228 44.7715 48.4738 44.7265 48.7206 44.6813C49.5239 44.5342 50.337 44.3853 51.5191 44.263C54.1522 43.9906 56.424 42.5046 59.3714 39.3031C60.8012 37.75 61.2549 36.8638 61.5298 35.8717C61.6636 35.3892 61.757 34.8742 61.8793 34.2001C61.8939 34.1196 61.9089 34.0367 61.9244 33.9514C62.0676 33.1662 62.2472 32.2238 62.5536 31.0382C63.1551 28.7109 63.4155 27.6039 63.4968 26.7853C63.5722 26.0262 63.495 25.5189 63.3146 24.3337L63.3093 24.2988C63.1703 23.3856 62.3826 21.7915 60.8693 20.1671C59.3832 18.5719 57.286 17.0464 54.6767 16.2007C52.4066 15.4651 50.8853 14.7517 49.6509 14.1729C49.329 14.0219 49.0266 13.8801 48.7354 13.7494C47.3658 13.1346 46.1706 12.7231 44.0739 12.6267C41.8775 12.5257 39.3788 12.1968 36.9881 11.8821C36.8727 11.8669 36.7575 11.8517 36.6427 11.8366C34.1173 11.5047 31.7481 11.2038 29.8784 11.1789C28.8549 11.1652 27.9758 11.073 27.1918 10.9748C26.9898 10.9494 26.7975 10.9243 26.6125 10.9C26.0636 10.8282 25.5781 10.7646 25.0877 10.7302Z" fill="black"/>
<path d="M33.7481 37C30.9356 32.0725 28.7481 28 26.2481 26.5C23.7481 25 25.2482 21 28.5825 21H33.7481M33.7481 37C33.7481 37 33.1925 31.0197 33.2482 27.5C33.2915 24.7597 33.7481 21 33.7481 21M33.7481 37C33.7481 37 36.9588 34.0786 38.2482 31.5C39.7482 28.5 41.7482 26 41.7482 26C43.2482 24 42.2482 21 38.9138 21H33.7481" stroke="black" stroke-width="2" stroke-linecap="round" stroke-linejoin="round"/>
<path d="M8.248 82.152C7.78933 81.8533 7.51733 81.5547 7.432 81.256C7.35733 80.9573 7.464 80.7173 7.752 80.536C7.816 80.4933 7.93867 80.488 8.12 80.52C8.312 80.552 8.456 80.616 8.552 80.712C8.76533 80.904 9.00533 81.0213 9.272 81.064C9.54933 81.1173 9.88533 81.0907 10.28 80.984C10.728 80.8453 11.0693 80.6747 11.304 80.472C11.5493 80.2587 11.8213 79.9707 12.12 79.608C12.344 79.32 12.4987 79.0373 12.584 78.76C12.68 78.4827 12.7227 78.232 12.712 78.008C12.712 77.7733 12.6587 77.5973 12.552 77.48C12.2853 77.1067 11.9547 76.8507 11.56 76.712C11.1653 76.5627 10.648 76.5733 10.008 76.744C9.93333 76.7547 9.82133 76.776 9.672 76.808C9.52267 76.84 9.38933 76.872 9.272 76.904C9.15467 76.9253 9.09067 76.936 9.08 76.936C9.00533 76.9573 8.94667 76.968 8.904 76.968C8.86133 76.968 8.808 77.0213 8.744 77.128C8.69067 77.224 8.60533 77.432 8.488 77.752C8.37067 78.0613 8.19467 78.5413 7.96 79.192C7.736 79.8427 7.544 80.3067 7.384 80.584C7.23467 80.8507 7.10133 80.9733 6.984 80.952C6.86667 80.92 6.73333 80.8027 6.584 80.6C6.49867 80.4507 6.40267 80.2853 6.296 80.104C6.2 79.9227 6.20533 79.736 6.312 79.544C6.36533 79.448 6.408 79.3627 6.44 79.288C6.472 79.2027 6.51467 79.0587 6.568 78.856C6.62133 78.696 6.72267 78.4187 6.872 78.024C7.032 77.6187 7.21867 77.1493 7.432 76.616C7.64533 76.072 7.86933 75.512 8.104 74.936C8.33867 74.36 8.56267 73.816 8.776 73.304C9 72.792 9.18667 72.36 9.336 72.008C9.48533 71.6773 9.576 71.4373 9.608 71.288C9.64 71.1387 9.62933 71.0587 9.576 71.048C9.576 70.9947 9.56 70.9467 9.528 70.904C9.496 70.8507 9.48533 70.8027 9.496 70.76C9.496 70.7173 9.58667 70.6587 9.768 70.584C9.96 70.5093 10.1627 70.44 10.376 70.376C10.5893 70.312 10.744 70.2907 10.84 70.312C10.8933 70.312 10.9573 70.312 11.032 70.312C11.1067 70.3013 11.144 70.2747 11.144 70.232C11.176 70.232 11.2773 70.2213 11.448 70.2C11.6187 70.1787 11.8053 70.1787 12.008 70.2C12.7227 70.264 13.3093 70.472 13.768 70.824C14.2267 71.1653 14.4507 71.7147 14.44 72.472C14.4293 72.6533 14.3547 72.888 14.216 73.176C14.0773 73.464 13.9013 73.752 13.688 74.04C13.4853 74.328 13.2667 74.5787 13.032 74.792C12.8933 74.9093 12.744 75.032 12.584 75.16C12.4347 75.2773 12.3013 75.3787 12.184 75.464C12.0773 75.5387 12.024 75.576 12.024 75.576C12.024 75.576 12.0667 75.592 12.152 75.624C12.2373 75.656 12.328 75.688 12.424 75.72C12.9147 75.9013 13.2987 76.1307 13.576 76.408C13.864 76.6853 14.0667 77.0693 14.184 77.56C14.2267 77.72 14.2267 77.9173 14.184 78.152C14.152 78.3867 14.104 78.6213 14.04 78.856C13.976 79.08 13.9067 79.272 13.832 79.432C13.7573 79.5067 13.6987 79.5867 13.656 79.672C13.6133 79.7467 13.592 79.784 13.592 79.784C13.592 79.8053 13.5493 79.8907 13.464 80.04C13.3787 80.1787 13.2773 80.3333 13.16 80.504C13.0427 80.6747 12.9307 80.824 12.824 80.952C12.7173 81.0373 12.5627 81.1547 12.36 81.304C12.168 81.464 11.9547 81.6187 11.72 81.768C11.496 81.9173 11.2827 82.0293 11.08 82.104C10.7813 82.232 10.4453 82.3173 10.072 82.36C9.70933 82.4133 9.36267 82.4187 9.032 82.376C8.70133 82.344 8.44 82.2693 8.248 82.152ZM9.4 75.512C9.4 75.512 9.48533 75.496 9.656 75.464C9.83733 75.4213 10.0347 75.3787 10.248 75.336C10.4613 75.2827 10.6213 75.2347 10.728 75.192C10.7813 75.16 10.856 75.1173 10.952 75.064C11.0587 75.0107 11.1653 74.9307 11.272 74.824C11.4213 74.6853 11.5813 74.5307 11.752 74.36C11.9227 74.1787 12.088 73.9867 12.248 73.784C12.4187 73.5813 12.5627 73.3627 12.68 73.128C12.9253 72.744 13.0587 72.4667 13.08 72.296C13.1013 72.1253 13.0427 71.9707 12.904 71.832C12.808 71.7147 12.6747 71.6293 12.504 71.576C12.3333 71.512 12.1467 71.48 11.944 71.48C11.752 71.4693 11.5653 71.4907 11.384 71.544C11.2453 71.5867 11.1387 71.64 11.064 71.704C10.9893 71.7573 10.952 71.8427 10.952 71.96C10.952 72.056 10.92 72.1573 10.856 72.264C10.8027 72.36 10.7493 72.4347 10.696 72.488C10.6853 72.5627 10.648 72.6373 10.584 72.712C10.5307 72.776 10.504 72.808 10.504 72.808C10.504 72.8507 10.4347 72.984 10.296 73.208C10.168 73.4213 10.0293 73.7307 9.88 74.136C9.688 74.5947 9.56 74.9253 9.496 75.128C9.432 75.3307 9.4 75.4587 9.4 75.512ZM14.351 81.528C14.159 81.4213 14.0523 81.304 14.031 81.176C14.0203 81.048 14.095 80.824 14.255 80.504C14.415 80.184 14.6657 79.688 15.007 79.016C15.263 78.536 15.4337 78.1627 15.519 77.896C15.615 77.6187 15.6683 77.4213 15.679 77.304C15.6897 77.1867 15.695 77.112 15.695 77.08C15.6737 76.984 15.6843 76.9093 15.727 76.856C15.7697 76.792 15.839 76.7387 15.935 76.696C15.9883 76.6427 16.111 76.5467 16.303 76.408C16.495 76.2693 16.6443 76.104 16.751 75.912C16.847 75.688 16.9537 75.4587 17.071 75.224C17.199 74.9893 17.3643 74.696 17.567 74.344C17.7697 73.9813 18.0417 73.512 18.383 72.936C18.5963 72.5627 18.847 72.1413 19.135 71.672C19.4337 71.2027 19.727 70.776 20.015 70.392C20.1323 70.2427 20.255 70.1253 20.383 70.04C20.511 69.9547 20.623 69.912 20.719 69.912C20.9537 69.912 21.1883 69.976 21.423 70.104C21.6577 70.2213 21.8657 70.3707 22.047 70.552C22.2283 70.7333 22.351 70.904 22.415 71.064C22.4683 71.1493 22.4897 71.3307 22.479 71.608C22.4683 71.8853 22.447 72.2213 22.415 72.616C22.383 73.0107 22.3457 73.432 22.303 73.88C22.271 74.3173 22.223 74.8347 22.159 75.432C22.095 76.0293 22.031 76.6533 21.967 77.304C21.9137 77.9547 21.871 78.584 21.839 79.192C21.807 79.7893 21.807 80.312 21.839 80.76C21.8497 80.856 21.8497 80.9467 21.839 81.032C21.8283 81.1173 21.823 81.1867 21.823 81.24C21.759 81.304 21.6203 81.3307 21.407 81.32C21.1937 81.32 20.9857 81.288 20.783 81.224C20.5803 81.16 20.4683 81.08 20.447 80.984C20.415 80.952 20.3937 80.9253 20.383 80.904C20.3723 80.8827 20.3723 80.7813 20.383 80.6C20.3937 80.408 20.4097 80.0613 20.431 79.56L20.511 77.112L20.303 77.128C20.207 77.128 20.031 77.1387 19.775 77.16C19.5297 77.1813 19.2577 77.2133 18.959 77.256C18.671 77.288 18.4043 77.3253 18.159 77.368C17.9137 77.4 17.743 77.432 17.647 77.464C17.551 77.464 17.4337 77.528 17.295 77.656C17.167 77.784 17.0443 77.9493 16.927 78.152C16.8843 78.3013 16.8043 78.4613 16.687 78.632C16.5803 78.792 16.527 78.8987 16.527 78.952C16.4523 79.0053 16.3883 79.0693 16.335 79.144C16.2923 79.2187 16.271 79.256 16.271 79.256C16.271 79.32 16.223 79.48 16.127 79.736C16.031 79.9813 15.9137 80.2587 15.775 80.568C15.6363 80.8667 15.4923 81.128 15.343 81.352L14.911 81.96L14.351 81.528ZM18.175 76.024C18.175 76.024 18.2337 76.0133 18.351 75.992C18.4683 75.9707 18.607 75.9493 18.767 75.928C18.9377 75.896 19.087 75.88 19.215 75.88C19.4603 75.816 19.663 75.768 19.823 75.736C19.9937 75.704 20.1323 75.688 20.239 75.688C20.3457 75.6773 20.431 75.688 20.495 75.72C20.5377 75.7733 20.575 75.8053 20.607 75.816C20.6497 75.8267 20.671 75.832 20.671 75.832C20.6817 75.8107 20.703 75.6987 20.735 75.496C20.767 75.2933 20.8043 75.0427 20.847 74.744C20.8897 74.4453 20.9323 74.136 20.975 73.816C21.0177 73.4853 21.055 73.1813 21.087 72.904C21.119 72.616 21.1403 72.392 21.151 72.232C21.1617 72.0293 21.1563 71.848 21.135 71.688C21.1137 71.5173 21.103 71.432 21.103 71.432C21.039 71.432 20.9163 71.5493 20.735 71.784C20.5643 72.008 20.3617 72.312 20.127 72.696C19.903 73.0693 19.679 73.4747 19.455 73.912C19.3483 74.1147 19.247 74.2747 19.151 74.392C19.0657 74.5093 18.9963 74.568 18.943 74.568C18.9217 74.5893 18.863 74.6747 18.767 74.824C18.6817 74.9627 18.5857 75.1227 18.479 75.304C18.383 75.4747 18.2977 75.6347 18.223 75.784C18.159 75.9227 18.143 76.0027 18.175 76.024ZM25.3784 81.784C25.1224 81.816 24.925 81.832 24.7864 81.832C24.6584 81.832 24.5357 81.816 24.4184 81.784C24.3117 81.752 24.1677 81.7093 23.9864 81.656C23.837 81.56 23.6664 81.4267 23.4744 81.256C23.293 81.0853 23.1757 80.9787 23.1224 80.936C23.1224 80.8827 23.1064 80.84 23.0744 80.808C23.053 80.776 23.0424 80.76 23.0424 80.76C22.9997 80.76 22.9624 80.6693 22.9304 80.488C22.909 80.296 22.8984 80.072 22.8984 79.816C22.909 79.56 22.925 79.32 22.9464 79.096C22.9784 78.872 23.0157 78.7227 23.0584 78.648C23.0584 78.5947 23.069 78.5307 23.0904 78.456C23.1224 78.3707 23.1384 78.3013 23.1384 78.248C23.1384 78.0667 23.165 77.976 23.2184 77.976C23.2184 77.976 23.229 77.976 23.2504 77.976C23.2824 77.9653 23.2984 77.944 23.2984 77.912C23.2984 77.848 23.3197 77.7627 23.3624 77.656C23.405 77.5387 23.437 77.432 23.4584 77.336C23.5117 77.24 23.5757 77.0747 23.6504 76.84C23.7357 76.6053 23.8157 76.3867 23.8904 76.184C23.9437 75.9493 24.0184 75.7147 24.1144 75.48C24.2104 75.2453 24.2797 75.0587 24.3224 74.92C24.4717 74.664 24.5464 74.472 24.5464 74.344C24.5677 74.2693 24.637 74.1147 24.7544 73.88C24.8824 73.6347 25.0317 73.3467 25.2024 73.016C25.373 72.6853 25.549 72.3493 25.7304 72.008C25.9117 71.6667 26.0717 71.368 26.2104 71.112C26.349 70.8453 26.4504 70.664 26.5144 70.568C26.6957 70.2907 26.8717 70.0987 27.0424 69.992C27.213 69.8853 27.3464 69.832 27.4424 69.832C27.4957 69.8533 27.5704 69.912 27.6664 70.008C27.773 70.104 27.869 70.2107 27.9544 70.328C28.0504 70.4347 28.1037 70.52 28.1144 70.584C28.1144 70.6053 28.077 70.696 28.0024 70.856C27.9277 71.016 27.8317 71.192 27.7144 71.384C27.597 71.5653 27.4797 71.72 27.3624 71.848C27.3304 71.8907 27.309 71.928 27.2984 71.96C27.2984 71.992 27.2984 72.008 27.2984 72.008C27.2984 72.008 27.261 72.072 27.1864 72.2C27.1224 72.3173 27.0424 72.4667 26.9464 72.648C26.8504 72.8187 26.765 72.984 26.6904 73.144C26.6157 73.304 26.573 73.4213 26.5624 73.496C26.4984 73.5707 26.4077 73.7253 26.2904 73.96C26.1837 74.184 26.077 74.4293 25.9704 74.696C25.8637 74.952 25.7677 75.176 25.6824 75.368C25.597 75.56 25.5437 75.6667 25.5224 75.688C25.5224 75.7413 25.517 75.7947 25.5064 75.848C25.5064 75.8907 25.485 75.9387 25.4424 75.992C25.4104 76.0667 25.3517 76.2373 25.2664 76.504C25.1917 76.76 25.085 77.0267 24.9464 77.304C24.8717 77.624 24.781 77.9067 24.6744 78.152C24.5677 78.3973 24.4877 78.5467 24.4344 78.6C24.3917 78.7067 24.3704 78.7707 24.3704 78.792C24.3704 78.8027 24.3917 78.8027 24.4344 78.792C24.4877 78.7387 24.5144 78.7333 24.5144 78.776C24.5144 78.808 24.4877 78.8667 24.4344 78.952C24.3917 79.0587 24.365 79.176 24.3544 79.304C24.3544 79.4213 24.3544 79.5547 24.3544 79.704C24.365 79.9173 24.4184 80.0773 24.5144 80.184C24.621 80.2907 24.7864 80.344 25.0104 80.344C25.373 80.3333 25.6877 80.3067 25.9544 80.264C26.2317 80.2213 26.4664 80.1787 26.6584 80.136C27.0104 80.0187 27.3144 79.9867 27.5704 80.04C27.837 80.0827 28.0237 80.1733 28.1304 80.312C28.1944 80.408 28.2317 80.5253 28.2424 80.664C28.253 80.792 28.2584 80.8827 28.2584 80.936C28.2264 80.9787 28.093 81.0427 27.8584 81.128C27.6344 81.224 27.3624 81.32 27.0424 81.416C26.7224 81.512 26.4077 81.592 26.0984 81.656C25.7997 81.7307 25.5597 81.7733 25.3784 81.784ZM35.8106 82.392C35.768 82.392 35.688 82.3707 35.5706 82.328C35.464 82.296 35.384 82.248 35.3306 82.184C35.256 82.1093 35.2026 82.0187 35.1706 81.912C35.1493 81.8053 35.1386 81.704 35.1386 81.608C35.1386 81.4907 35.1386 81.32 35.1386 81.096C35.1386 80.8827 35.128 80.6747 35.1066 80.472C35.1066 80.1627 35.1013 79.8747 35.0906 79.608C35.08 79.3413 35.096 79.16 35.1386 79.064C35.1066 78.9147 35.1013 78.7547 35.1226 78.584C35.1546 78.4027 35.1706 78.264 35.1706 78.168L35.1066 77.736H34.2426C34.04 77.768 33.7146 77.7733 33.2666 77.752C32.8186 77.72 32.3173 77.688 31.7626 77.656L31.5546 77.992C31.5226 78.0347 31.464 78.12 31.3786 78.248C31.2933 78.376 31.208 78.552 31.1226 78.776C31.0693 78.9147 30.9946 79.0907 30.8986 79.304C30.8133 79.5067 30.7173 79.7093 30.6106 79.912C30.5146 80.1147 30.4186 80.2853 30.3226 80.424C30.152 80.7547 29.9973 80.9787 29.8586 81.096C29.7306 81.224 29.64 81.288 29.5866 81.288C29.4906 81.288 29.416 81.2827 29.3626 81.272C29.3093 81.2613 29.2293 81.2187 29.1226 81.144C28.9093 81.048 28.7706 80.8987 28.7066 80.696C28.6533 80.4933 28.7333 80.2373 28.9466 79.928C29 79.8533 29.048 79.7787 29.0906 79.704C29.1333 79.6293 29.1546 79.592 29.1546 79.592C29.1546 79.5707 29.1973 79.464 29.2826 79.272C29.3786 79.0693 29.4906 78.8453 29.6186 78.6C29.7466 78.344 29.8693 78.12 29.9866 77.928C30.104 77.7253 30.1893 77.6133 30.2426 77.592C30.4346 77.3787 30.4186 77.176 30.1946 76.984C30.12 76.952 30.072 76.8613 30.0506 76.712C30.0293 76.5627 30.0666 76.424 30.1626 76.296C30.2586 76.1573 30.44 76.0987 30.7066 76.12C30.8133 76.0667 30.888 76.0293 30.9306 76.008C30.984 75.9867 31.0106 75.9547 31.0106 75.912C31.0106 75.8907 31.032 75.8267 31.0746 75.72C31.128 75.6133 31.192 75.4907 31.2666 75.352C31.3413 75.2027 31.4213 75.0587 31.5066 74.92C31.592 74.7813 31.672 74.664 31.7466 74.568C31.864 74.2693 31.9546 74.072 32.0186 73.976C32.0826 73.8693 32.136 73.768 32.1786 73.672C32.232 73.6187 32.3066 73.5013 32.4026 73.32C32.4986 73.1387 32.6 72.9627 32.7066 72.792C32.856 72.6427 32.9893 72.4827 33.1066 72.312C33.2346 72.1307 33.3466 71.9813 33.4426 71.864C33.496 71.7467 33.5706 71.6187 33.6666 71.48C33.7733 71.3413 33.88 71.1973 33.9866 71.048C34.1893 70.824 34.4293 70.6427 34.7066 70.504C34.9946 70.3653 35.2453 70.344 35.4586 70.44C35.704 70.5467 35.9333 70.76 36.1466 71.08C36.36 71.3893 36.4826 71.768 36.5146 72.216C36.5466 72.4613 36.5786 72.7387 36.6106 73.048C36.6533 73.3467 36.648 73.5707 36.5946 73.72C36.5946 73.912 36.5893 74.1467 36.5786 74.424C36.5786 74.7013 36.5946 74.9627 36.6266 75.208C36.584 75.4107 36.568 75.64 36.5786 75.896C36.5893 76.1413 36.5946 76.312 36.5946 76.408C36.5946 76.504 36.5893 76.6587 36.5786 76.872C36.568 77.0747 36.5626 77.2507 36.5626 77.4C36.552 77.8053 36.5413 78.1413 36.5306 78.408C36.5306 78.6747 36.5306 78.9307 36.5306 79.176C36.5413 79.4107 36.5466 79.688 36.5466 80.008C36.568 80.8507 36.5093 81.448 36.3706 81.8C36.2426 82.1627 36.056 82.36 35.8106 82.392ZM32.5786 76.408C32.5786 76.408 32.6853 76.3973 32.8986 76.376C33.112 76.344 33.368 76.3333 33.6666 76.344C34.0186 76.312 34.3066 76.3067 34.5306 76.328C34.7546 76.3387 34.888 76.3333 34.9306 76.312C35.048 76.3227 35.128 76.2747 35.1706 76.168C35.2133 76.0613 35.2346 75.9227 35.2346 75.752C35.2133 75.5173 35.192 75.224 35.1706 74.872C35.16 74.5093 35.1493 74.1467 35.1386 73.784C35.128 73.4107 35.128 73.0907 35.1386 72.824C35.1386 72.6213 35.1226 72.4187 35.0906 72.216C35.0586 72.0027 35.0426 71.896 35.0426 71.896C35.0213 71.864 34.9573 71.9173 34.8506 72.056C34.7546 72.184 34.6426 72.344 34.5146 72.536C34.3866 72.728 34.2693 72.92 34.1626 73.112C34.056 73.2933 33.976 73.4267 33.9226 73.512C33.88 73.5653 33.8 73.704 33.6826 73.928C33.5653 74.152 33.432 74.392 33.2826 74.648C32.888 75.2773 32.648 75.7147 32.5626 75.96C32.4773 76.2053 32.4826 76.3547 32.5786 76.408ZM37.686 81.048C37.6007 80.9627 37.5313 80.8347 37.478 80.664C37.4353 80.4933 37.414 80.312 37.414 80.12C37.4247 79.9173 37.462 79.752 37.526 79.624C37.5793 79.528 37.622 79.4053 37.654 79.256C37.686 79.096 37.7073 78.9467 37.718 78.808C37.8033 78.4667 37.9047 78.1147 38.022 77.752C38.15 77.3787 38.2833 76.9787 38.422 76.552C38.614 75.9653 38.7793 75.4533 38.918 75.016C39.0567 74.5787 39.1953 74.1627 39.334 73.768C39.4727 73.3627 39.6327 72.936 39.814 72.488C39.846 72.4347 39.878 72.3707 39.91 72.296C39.9527 72.2107 39.9847 72.1253 40.006 72.04C40.038 71.944 40.0487 71.864 40.038 71.8C40.07 71.6293 40.1127 71.4907 40.166 71.384C40.23 71.2667 40.2833 71.1867 40.326 71.144C40.4433 71.0053 40.5713 70.8933 40.71 70.808C40.8487 70.712 40.9607 70.6853 41.046 70.728C41.1953 70.7707 41.3553 70.8453 41.526 70.952C41.7073 71.048 41.8567 71.2507 41.974 71.56C42.038 71.656 42.0967 71.7573 42.15 71.864C42.2033 71.96 42.2407 72.072 42.262 72.2C42.2833 72.328 42.278 72.488 42.246 72.68C42.278 73.1493 42.3367 73.6293 42.422 74.12C42.518 74.6107 42.5553 75.0587 42.534 75.464C42.534 75.6453 42.534 75.8853 42.534 76.184C42.534 76.4827 42.534 76.792 42.534 77.112C42.5447 77.4213 42.5607 77.6933 42.582 77.928C42.614 78.152 42.662 78.2853 42.726 78.328C42.7473 78.3387 42.758 78.3653 42.758 78.408C42.758 78.44 42.7633 78.456 42.774 78.456C42.7847 78.456 42.8007 78.4133 42.822 78.328C42.854 78.232 42.902 78.0667 42.966 77.832C43.03 77.6187 43.1313 77.4053 43.27 77.192C43.4193 76.968 43.5313 76.664 43.606 76.28C43.7447 75.928 43.8567 75.6187 43.942 75.352C44.038 75.0853 44.1287 74.8133 44.214 74.536C44.2993 74.2587 44.4007 73.9493 44.518 73.608C44.5393 73.512 44.5767 73.3947 44.63 73.256C44.694 73.1067 44.7633 72.952 44.838 72.792C44.9127 72.6213 44.9927 72.4667 45.078 72.328C45.1847 72.1147 45.302 71.896 45.43 71.672C45.558 71.448 45.622 71.3147 45.622 71.272C45.622 71.272 45.622 71.2453 45.622 71.192C45.622 71.128 45.6433 71.0747 45.686 71.032C45.7393 70.9893 45.8087 70.9413 45.894 70.888C45.9793 70.8347 46.038 70.7387 46.07 70.6C46.1233 70.5573 46.2247 70.4987 46.374 70.424C46.5233 70.3493 46.646 70.3333 46.742 70.376C46.806 70.4293 46.87 70.488 46.934 70.552C47.0087 70.616 47.0567 70.7067 47.078 70.824C47.11 70.9413 47.0833 71.112 46.998 71.336C46.966 71.56 46.918 71.752 46.854 71.912C46.8007 72.0613 46.7473 72.1787 46.694 72.264C46.6513 72.3707 46.6033 72.4987 46.55 72.648C46.5073 72.7867 46.4593 72.9147 46.406 73.032C46.3633 73.224 46.326 73.3787 46.294 73.496C46.2727 73.6133 46.262 73.6933 46.262 73.736C46.262 73.736 46.2247 73.7893 46.15 73.896C46.086 74.0027 46.006 74.136 45.91 74.296C45.7607 74.68 45.6433 75.0053 45.558 75.272C45.4727 75.528 45.398 75.752 45.334 75.944C45.27 76.136 45.206 76.3333 45.142 76.536C45.078 76.728 44.9927 76.952 44.886 77.208C44.8753 77.3573 44.8487 77.496 44.806 77.624C44.7633 77.7413 44.7153 77.8427 44.662 77.928C44.6087 78.0133 44.566 78.0827 44.534 78.136C44.502 78.1787 44.486 78.2 44.486 78.2C44.2193 78.648 43.99 79.0693 43.798 79.464C43.606 79.848 43.478 80.0933 43.414 80.2C43.3607 80.2853 43.3073 80.3547 43.254 80.408C43.2007 80.4507 43.1473 80.4827 43.094 80.504C43.0513 80.5147 43.0033 80.5253 42.95 80.536C42.9073 80.5467 42.854 80.552 42.79 80.552C42.598 80.5733 42.422 80.5147 42.262 80.376C42.102 80.2267 41.9473 79.992 41.798 79.672C41.606 79.2773 41.4353 78.776 41.286 78.168C41.1473 77.5493 41.0673 76.8987 41.046 76.216C41.046 76.1307 41.046 76.0347 41.046 75.928C41.046 75.8213 41.0407 75.7147 41.03 75.608C41.03 75.5013 41.0247 75.4107 41.014 75.336C41.014 75.2507 41.014 75.0373 41.014 74.696C41.014 74.3547 41.0033 73.9387 40.982 73.448C40.8433 73.736 40.7207 74.0827 40.614 74.488C40.5073 74.8933 40.3953 75.2987 40.278 75.704C40.1607 76.0987 40.006 76.4507 39.814 76.76C39.7927 76.9733 39.7607 77.1653 39.718 77.336C39.6753 77.5067 39.6327 77.656 39.59 77.784C39.558 77.9013 39.5207 77.9867 39.478 78.04C39.4033 78.2533 39.3393 78.504 39.286 78.792C39.2433 79.08 39.2007 79.2933 39.158 79.432C39.158 79.5387 39.126 79.6933 39.062 79.896C39.0087 80.088 38.95 80.2853 38.886 80.488C38.822 80.68 38.774 80.8293 38.742 80.936C38.6887 81.064 38.5927 81.1653 38.454 81.24C38.3153 81.3147 38.1713 81.3413 38.022 81.32C37.8727 81.2987 37.7607 81.208 37.686 81.048ZM48.4891 82.056C48.3291 81.992 48.1425 81.9013 47.9291 81.784C47.7158 81.6773 47.5131 81.5333 47.3211 81.352C47.1291 81.1707 46.9798 80.952 46.8731 80.696C46.7665 80.3867 46.6918 80.0827 46.6491 79.784C46.6171 79.4853 46.6065 79.1387 46.6171 78.744C46.6171 78.1893 46.6545 77.7093 46.7291 77.304C46.8145 76.888 46.9425 76.4667 47.1131 76.04C47.1345 76.008 47.1718 75.9173 47.2251 75.768C47.2891 75.608 47.3585 75.4373 47.4331 75.256C47.5185 75.0747 47.5825 74.936 47.6251 74.84C47.7105 74.6587 47.8385 74.4187 48.0091 74.12C48.1905 73.8107 48.3825 73.512 48.5851 73.224C48.8945 72.7653 49.1558 72.392 49.3691 72.104C49.5825 71.8053 49.7851 71.5547 49.9771 71.352C50.1798 71.1493 50.3985 70.952 50.6331 70.76C50.8785 70.568 51.1825 70.3493 51.5451 70.104C51.7798 69.9333 52.0785 69.8267 52.4411 69.784C52.8145 69.7413 53.1771 69.8 53.5291 69.96C53.8811 70.1093 54.1425 70.3973 54.3131 70.824C54.4305 71.048 54.4838 71.3307 54.4731 71.672C54.4625 72.0027 54.3985 72.36 54.2811 72.744C54.1638 73.1173 54.0145 73.4693 53.8331 73.8C53.6518 74.1307 53.4491 74.3973 53.2251 74.6C53.0865 74.728 52.8998 74.7493 52.6651 74.664C52.4411 74.5787 52.2545 74.4667 52.1051 74.328C52.0091 74.1467 51.9558 74.04 51.9451 74.008C51.9451 73.976 51.9665 73.9547 52.0091 73.944C52.0731 73.8693 52.1585 73.7413 52.2651 73.56C52.3718 73.3787 52.4785 73.1867 52.5851 72.984C52.6918 72.7707 52.7665 72.6 52.8091 72.472C52.8945 72.024 52.9531 71.7307 52.9851 71.592C53.0171 71.4427 52.9851 71.32 52.8891 71.224C52.8465 71.1813 52.7825 71.1653 52.6971 71.176C52.6225 71.1867 52.4945 71.24 52.3131 71.336C52.0678 71.4427 51.7745 71.6613 51.4331 71.992C51.1025 72.312 50.7718 72.696 50.4411 73.144C50.0145 73.7093 49.6571 74.2107 49.3691 74.648C49.0811 75.0853 48.8625 75.5333 48.7131 75.992C48.6918 76.0347 48.6545 76.1147 48.6011 76.232C48.5585 76.3493 48.5371 76.408 48.5371 76.408C48.5478 76.4507 48.5318 76.5573 48.4891 76.728C48.4465 76.888 48.3985 77.0267 48.3451 77.144C48.2278 77.6347 48.1585 78.1093 48.1371 78.568C48.1158 79.016 48.1425 79.4107 48.2171 79.752C48.3025 80.0827 48.4251 80.328 48.5851 80.488C48.7238 80.584 48.8998 80.616 49.1131 80.584C49.3265 80.552 49.5718 80.4773 49.8491 80.36C50.1265 80.2427 50.4251 80.1147 50.7451 79.976C51.0011 79.8693 51.2358 79.752 51.4491 79.624C51.6625 79.496 51.8225 79.384 51.9291 79.288C52.0145 79.224 52.1211 79.16 52.2491 79.096C52.3878 79.0213 52.5051 78.984 52.6011 78.984C52.7505 78.9307 52.8625 78.9733 52.9371 79.112C53.0118 79.2507 53.0491 79.4267 53.0491 79.64C53.0491 79.7893 52.9425 79.9707 52.7291 80.184C52.5158 80.3973 52.2811 80.5787 52.0251 80.728C51.9398 80.8133 51.8225 80.8933 51.6731 80.968C51.5345 81.032 51.3905 81.0907 51.2411 81.144C51.0171 81.3147 50.7398 81.48 50.4091 81.64C50.0785 81.8 49.7425 81.9227 49.4011 82.008C49.0705 82.0933 48.7665 82.1093 48.4891 82.056ZM56.7977 81.672C56.5844 81.6187 56.3231 81.5333 56.0138 81.416C55.7044 81.2987 55.4271 81.1707 55.1818 81.032C54.9364 80.8933 54.7978 80.776 54.7658 80.68C54.7658 80.6267 54.7444 80.584 54.7018 80.552C54.6591 80.5093 54.6111 80.488 54.5578 80.488C54.5578 80.488 54.5578 80.4827 54.5578 80.472C54.5578 80.4613 54.5578 80.424 54.5578 80.36C54.5578 80.3173 54.5578 80.2747 54.5578 80.232C54.5684 80.1787 54.5471 80.136 54.4938 80.104C54.4191 79.944 54.3978 79.6827 54.4298 79.32C54.4724 78.9573 54.5418 78.568 54.6378 78.152C54.7444 77.7253 54.8511 77.3573 54.9578 77.048C54.9578 76.952 54.9738 76.856 55.0058 76.76C55.0484 76.664 55.0698 76.5893 55.0698 76.536C55.1018 76.44 55.1604 76.296 55.2458 76.104C55.3311 75.9013 55.4324 75.6827 55.5498 75.448C55.6671 75.2027 55.7844 74.9733 55.9018 74.76C56.0191 74.536 56.1258 74.3653 56.2218 74.248C56.2218 74.1947 56.2591 74.1253 56.3338 74.04C56.4084 73.9547 56.4671 73.8373 56.5098 73.688C56.5951 73.6027 56.7018 73.4587 56.8298 73.256C56.9684 73.0533 57.0911 72.8667 57.1978 72.696C57.4218 72.5147 57.5604 72.3547 57.6138 72.216C57.6671 72.0667 57.6831 71.9493 57.6618 71.864C57.6724 71.704 57.7204 71.5813 57.8058 71.496C57.8911 71.4 58.0244 71.32 58.2058 71.256C58.3871 71.192 58.6164 71.128 58.8938 71.064C59.2351 70.936 59.5818 70.8453 59.9338 70.792C60.2964 70.7387 60.7551 70.7067 61.3098 70.696C61.4804 70.6533 61.6138 70.632 61.7098 70.632C61.8058 70.6213 61.8538 70.616 61.8538 70.616C61.8751 70.5947 61.9711 70.5947 62.1418 70.616C62.3124 70.6373 62.5044 70.6853 62.7178 70.76C62.9311 70.824 63.1124 70.904 63.2618 71C63.4218 71.096 63.4964 71.208 63.4858 71.336C63.4858 71.4 63.3684 71.4747 63.1338 71.56C62.8991 71.6347 62.6271 71.7093 62.3178 71.784C62.0084 71.848 61.7364 71.896 61.5017 71.928C61.0218 71.9813 60.6218 72.0293 60.3018 72.072C59.9818 72.1147 59.7098 72.184 59.4858 72.28C59.2724 72.3653 59.0698 72.504 58.8778 72.696C58.6964 72.888 58.4884 73.1653 58.2538 73.528C58.0404 73.8693 57.8858 74.1467 57.7898 74.36C57.6938 74.5627 57.6564 74.712 57.6778 74.808C57.7098 74.904 57.7844 74.952 57.9018 74.952C58.0298 74.952 58.1898 74.9413 58.3818 74.92C58.5738 74.888 58.7018 74.872 58.7658 74.872C58.7658 74.872 58.8618 74.84 59.0538 74.776C59.2564 74.7013 59.5071 74.6427 59.8058 74.6C60.1471 74.536 60.3764 74.488 60.4938 74.456C60.6218 74.4133 60.7444 74.3867 60.8618 74.376C61.2244 74.344 61.4431 74.408 61.5178 74.568C61.5924 74.728 61.5604 74.9093 61.4218 75.112C61.2938 75.3147 61.0964 75.4693 60.8298 75.576C60.7231 75.6187 60.5898 75.6667 60.4298 75.72C60.2698 75.7733 60.1204 75.8213 59.9818 75.864C59.8431 75.896 59.7524 75.912 59.7098 75.912C59.7098 75.912 59.6671 75.9227 59.5818 75.944C59.5071 75.9547 59.4004 75.96 59.2618 75.96C59.2298 75.96 59.0751 75.9813 58.7978 76.024C58.5204 76.056 58.2591 76.088 58.0138 76.12C57.6404 76.216 57.3578 76.296 57.1658 76.36C56.9844 76.4133 56.8511 76.488 56.7658 76.584C56.6804 76.68 56.5951 76.8347 56.5098 77.048C56.4138 77.2827 56.3284 77.5547 56.2538 77.864C56.1791 78.1627 56.1204 78.4613 56.0778 78.76C56.0458 79.0587 56.0351 79.32 56.0458 79.544C56.0671 79.7573 56.1151 79.9013 56.1898 79.976C56.3818 80.1787 56.6378 80.3067 56.9578 80.36C57.2778 80.4027 57.6084 80.3813 57.9498 80.296C58.3018 80.2107 58.6058 80.088 58.8618 79.928C58.9471 79.864 59.0484 79.8 59.1658 79.736C59.2938 79.6613 59.4164 79.6027 59.5338 79.56C59.6724 79.4747 59.7791 79.448 59.8538 79.48C59.9391 79.512 60.0831 79.6027 60.2858 79.752C60.4671 80.008 60.4564 80.2533 60.2538 80.488C60.0618 80.712 59.6671 80.952 59.0698 81.208C58.5151 81.4107 58.0724 81.544 57.7418 81.608C57.4218 81.672 57.1071 81.6933 56.7977 81.672Z" fill="black"/>
</svg>
