<svg width="44" height="11" viewBox="0 0 44 11" fill="none" xmlns="http://www.w3.org/2000/svg">
<path d="M2.436 9.864C2.092 9.64 1.888 9.416 1.824 9.192C1.768 8.968 1.848 8.788 2.064 8.652C2.112 8.62 2.204 8.616 2.34 8.64C2.484 8.664 2.592 8.712 2.664 8.784C2.824 8.928 3.004 9.016 3.204 9.048C3.412 9.088 3.664 9.068 3.96 8.988C4.296 8.884 4.552 8.756 4.728 8.604C4.912 8.444 5.116 8.228 5.34 7.956C5.508 7.74 5.624 7.528 5.688 7.32C5.76 7.112 5.792 6.924 5.784 6.756C5.784 6.58 5.744 6.448 5.664 6.36C5.464 6.08 5.216 5.888 4.92 5.784C4.624 5.672 4.236 5.68 3.756 5.808C3.7 5.816 3.616 5.832 3.504 5.856C3.392 5.88 3.292 5.904 3.204 5.928C3.116 5.944 3.068 5.952 3.06 5.952C3.004 5.968 2.96 5.976 2.928 5.976C2.896 5.976 2.856 6.016 2.808 6.096C2.768 6.168 2.704 6.324 2.616 6.564C2.528 6.796 2.396 7.156 2.22 7.644C2.052 8.132 1.908 8.48 1.788 8.688C1.676 8.888 1.576 8.98 1.488 8.964C1.4 8.94 1.3 8.852 1.188 8.7C1.124 8.588 1.052 8.464 0.972 8.328C0.9 8.192 0.904 8.052 0.984 7.908C1.024 7.836 1.056 7.772 1.08 7.716C1.104 7.652 1.136 7.544 1.176 7.392C1.216 7.272 1.292 7.064 1.404 6.768C1.524 6.464 1.664 6.112 1.824 5.712C1.984 5.304 2.152 4.884 2.328 4.452C2.504 4.02 2.672 3.612 2.832 3.228C3 2.844 3.14 2.52 3.252 2.256C3.364 2.008 3.432 1.828 3.456 1.716C3.48 1.604 3.472 1.544 3.432 1.536C3.432 1.496 3.42 1.46 3.396 1.428C3.372 1.388 3.364 1.352 3.372 1.32C3.372 1.288 3.44 1.244 3.576 1.188C3.72 1.132 3.872 1.08 4.032 1.032C4.192 0.984 4.308 0.968 4.38 0.983999C4.42 0.983999 4.468 0.983999 4.524 0.983999C4.58 0.976 4.608 0.956 4.608 0.924C4.632 0.924 4.708 0.916 4.836 0.9C4.964 0.884 5.104 0.884 5.256 0.9C5.792 0.948 6.232 1.104 6.576 1.368C6.92 1.624 7.088 2.036 7.08 2.604C7.072 2.74 7.016 2.916 6.912 3.132C6.808 3.348 6.676 3.564 6.516 3.78C6.364 3.996 6.2 4.184 6.024 4.344C5.92 4.432 5.808 4.524 5.688 4.62C5.576 4.708 5.476 4.784 5.388 4.848C5.308 4.904 5.268 4.932 5.268 4.932C5.268 4.932 5.3 4.944 5.364 4.968C5.428 4.992 5.496 5.016 5.568 5.04C5.936 5.176 6.224 5.348 6.432 5.556C6.648 5.764 6.8 6.052 6.888 6.42C6.92 6.54 6.92 6.688 6.888 6.864C6.864 7.04 6.828 7.216 6.78 7.392C6.732 7.56 6.68 7.704 6.624 7.824C6.568 7.88 6.524 7.94 6.492 8.004C6.46 8.06 6.444 8.088 6.444 8.088C6.444 8.104 6.412 8.168 6.348 8.28C6.284 8.384 6.208 8.5 6.12 8.628C6.032 8.756 5.948 8.868 5.868 8.964C5.788 9.028 5.672 9.116 5.52 9.228C5.376 9.348 5.216 9.464 5.04 9.576C4.872 9.688 4.712 9.772 4.56 9.828C4.336 9.924 4.084 9.988 3.804 10.02C3.532 10.06 3.272 10.064 3.024 10.032C2.776 10.008 2.58 9.952 2.436 9.864ZM3.3 4.884C3.3 4.884 3.364 4.872 3.492 4.848C3.628 4.816 3.776 4.784 3.936 4.752C4.096 4.712 4.216 4.676 4.296 4.644C4.336 4.62 4.392 4.588 4.464 4.548C4.544 4.508 4.624 4.448 4.704 4.368C4.816 4.264 4.936 4.148 5.064 4.02C5.192 3.884 5.316 3.74 5.436 3.588C5.564 3.436 5.672 3.272 5.76 3.096C5.944 2.808 6.044 2.6 6.06 2.472C6.076 2.344 6.032 2.228 5.928 2.124C5.856 2.036 5.756 1.972 5.628 1.932C5.5 1.884 5.36 1.86 5.208 1.86C5.064 1.852 4.924 1.868 4.788 1.908C4.684 1.94 4.604 1.98 4.548 2.028C4.492 2.068 4.464 2.132 4.464 2.22C4.464 2.292 4.44 2.368 4.392 2.448C4.352 2.52 4.312 2.576 4.272 2.616C4.264 2.672 4.236 2.728 4.188 2.784C4.148 2.832 4.128 2.856 4.128 2.856C4.128 2.888 4.076 2.988 3.972 3.156C3.876 3.316 3.772 3.548 3.66 3.852C3.516 4.196 3.42 4.444 3.372 4.596C3.324 4.748 3.3 4.844 3.3 4.884ZM7.01325 9.396C6.86925 9.316 6.78925 9.228 6.77325 9.132C6.76525 9.036 6.82125 8.868 6.94125 8.628C7.06125 8.388 7.24925 8.016 7.50525 7.512C7.69725 7.152 7.82525 6.872 7.88925 6.672C7.96125 6.464 8.00125 6.316 8.00925 6.228C8.01725 6.14 8.02125 6.084 8.02125 6.06C8.00525 5.988 8.01325 5.932 8.04525 5.892C8.07725 5.844 8.12925 5.804 8.20125 5.772C8.24125 5.732 8.33325 5.66 8.47725 5.556C8.62125 5.452 8.73325 5.328 8.81325 5.184C8.88525 5.016 8.96525 4.844 9.05325 4.668C9.14925 4.492 9.27325 4.272 9.42525 4.008C9.57725 3.736 9.78125 3.384 10.0373 2.952C10.1973 2.672 10.3853 2.356 10.6013 2.004C10.8253 1.652 11.0453 1.332 11.2613 1.044C11.3493 0.931999 11.4413 0.843999 11.5373 0.779999C11.6333 0.716 11.7173 0.684 11.7893 0.684C11.9653 0.684 12.1413 0.732 12.3173 0.827999C12.4933 0.916 12.6493 1.028 12.7853 1.164C12.9213 1.3 13.0133 1.428 13.0612 1.548C13.1013 1.612 13.1173 1.748 13.1093 1.956C13.1013 2.164 13.0853 2.416 13.0612 2.712C13.0373 3.008 13.0093 3.324 12.9773 3.66C12.9533 3.988 12.9173 4.376 12.8693 4.824C12.8213 5.272 12.7733 5.74 12.7253 6.228C12.6853 6.716 12.6533 7.188 12.6293 7.644C12.6053 8.092 12.6053 8.484 12.6293 8.82C12.6373 8.892 12.6373 8.96 12.6293 9.024C12.6213 9.088 12.6172 9.14 12.6172 9.18C12.5693 9.228 12.4653 9.248 12.3053 9.24C12.1453 9.24 11.9893 9.216 11.8373 9.168C11.6853 9.12 11.6013 9.06 11.5853 8.988C11.5613 8.964 11.5453 8.944 11.5373 8.928C11.5293 8.912 11.5293 8.836 11.5373 8.7C11.5453 8.556 11.5573 8.296 11.5733 7.92L11.6333 6.084L11.4773 6.096C11.4053 6.096 11.2733 6.104 11.0813 6.12C10.8973 6.136 10.6933 6.16 10.4693 6.192C10.2533 6.216 10.0533 6.244 9.86925 6.276C9.68525 6.3 9.55725 6.324 9.48525 6.348C9.41325 6.348 9.32525 6.396 9.22125 6.492C9.12525 6.588 9.03325 6.712 8.94525 6.864C8.91325 6.976 8.85325 7.096 8.76525 7.224C8.68525 7.344 8.64525 7.424 8.64525 7.464C8.58925 7.504 8.54125 7.552 8.50125 7.608C8.46925 7.664 8.45325 7.692 8.45325 7.692C8.45325 7.74 8.41725 7.86 8.34525 8.052C8.27325 8.236 8.18525 8.444 8.08125 8.676C7.97725 8.9 7.86925 9.096 7.75725 9.264L7.43325 9.72L7.01325 9.396ZM9.88125 5.268C9.88125 5.268 9.92525 5.26 10.0133 5.244C10.1013 5.228 10.2053 5.212 10.3253 5.196C10.4533 5.172 10.5653 5.16 10.6613 5.16C10.8453 5.112 10.9973 5.076 11.1173 5.052C11.2453 5.028 11.3493 5.016 11.4293 5.016C11.5093 5.008 11.5733 5.016 11.6213 5.04C11.6533 5.08 11.6813 5.104 11.7053 5.112C11.7373 5.12 11.7533 5.124 11.7533 5.124C11.7613 5.108 11.7773 5.024 11.8013 4.872C11.8253 4.72 11.8533 4.532 11.8853 4.308C11.9173 4.084 11.9493 3.852 11.9813 3.612C12.0133 3.364 12.0413 3.136 12.0653 2.928C12.0893 2.712 12.1053 2.544 12.1133 2.424C12.1213 2.272 12.1173 2.136 12.1013 2.016C12.0853 1.888 12.0773 1.824 12.0773 1.824C12.0293 1.824 11.9373 1.912 11.8013 2.088C11.6733 2.256 11.5213 2.484 11.3453 2.772C11.1773 3.052 11.0093 3.356 10.8413 3.684C10.7613 3.836 10.6853 3.956 10.6133 4.044C10.5493 4.132 10.4973 4.176 10.4573 4.176C10.4413 4.192 10.3973 4.256 10.3253 4.368C10.2613 4.472 10.1893 4.592 10.1093 4.728C10.0373 4.856 9.97325 4.976 9.91725 5.088C9.86925 5.192 9.85725 5.252 9.88125 5.268ZM15.2838 9.588C15.0918 9.612 14.9438 9.624 14.8398 9.624C14.7438 9.624 14.6518 9.612 14.5638 9.588C14.4838 9.564 14.3758 9.532 14.2398 9.492C14.1278 9.42 13.9998 9.32 13.8558 9.192C13.7198 9.064 13.6318 8.984 13.5918 8.952C13.5918 8.912 13.5798 8.88 13.5558 8.856C13.5398 8.832 13.5318 8.82 13.5318 8.82C13.4998 8.82 13.4718 8.752 13.4478 8.616C13.4318 8.472 13.4238 8.304 13.4238 8.112C13.4318 7.92 13.4438 7.74 13.4598 7.572C13.4838 7.404 13.5118 7.292 13.5438 7.236C13.5438 7.196 13.5518 7.148 13.5678 7.092C13.5918 7.028 13.6038 6.976 13.6038 6.936C13.6038 6.8 13.6238 6.732 13.6638 6.732C13.6638 6.732 13.6718 6.732 13.6878 6.732C13.7118 6.724 13.7238 6.708 13.7238 6.684C13.7238 6.636 13.7398 6.572 13.7718 6.492C13.8038 6.404 13.8278 6.324 13.8438 6.252C13.8838 6.18 13.9318 6.056 13.9878 5.88C14.0518 5.704 14.1118 5.54 14.1678 5.388C14.2078 5.212 14.2638 5.036 14.3358 4.86C14.4078 4.684 14.4598 4.544 14.4918 4.44C14.6038 4.248 14.6598 4.104 14.6598 4.008C14.6758 3.952 14.7278 3.836 14.8158 3.66C14.9118 3.476 15.0238 3.26 15.1518 3.012C15.2798 2.764 15.4118 2.512 15.5478 2.256C15.6838 2 15.8038 1.776 15.9078 1.584C16.0118 1.384 16.0878 1.248 16.1358 1.176C16.2718 0.968 16.4038 0.824 16.5318 0.744C16.6598 0.664 16.7598 0.624 16.8318 0.624C16.8718 0.64 16.9278 0.684 16.9998 0.756C17.0798 0.828 17.1518 0.908 17.2158 0.995999C17.2878 1.076 17.3278 1.14 17.3358 1.188C17.3358 1.204 17.3078 1.272 17.2518 1.392C17.1958 1.512 17.1238 1.644 17.0358 1.788C16.9478 1.924 16.8598 2.04 16.7718 2.136C16.7478 2.168 16.7318 2.196 16.7238 2.22C16.7238 2.244 16.7238 2.256 16.7238 2.256C16.7238 2.256 16.6958 2.304 16.6398 2.4C16.5918 2.488 16.5318 2.6 16.4598 2.736C16.3878 2.864 16.3238 2.988 16.2678 3.108C16.2118 3.228 16.1798 3.316 16.1718 3.372C16.1238 3.428 16.0558 3.544 15.9678 3.72C15.8878 3.888 15.8078 4.072 15.7278 4.272C15.6478 4.464 15.5758 4.632 15.5118 4.776C15.4478 4.92 15.4078 5 15.3918 5.016C15.3918 5.056 15.3878 5.096 15.3798 5.136C15.3798 5.168 15.3638 5.204 15.3318 5.244C15.3078 5.3 15.2638 5.428 15.1998 5.628C15.1438 5.82 15.0638 6.02 14.9598 6.228C14.9038 6.468 14.8358 6.68 14.7558 6.864C14.6758 7.048 14.6158 7.16 14.5758 7.2C14.5438 7.28 14.5278 7.328 14.5278 7.344C14.5278 7.352 14.5438 7.352 14.5758 7.344C14.6158 7.304 14.6358 7.3 14.6358 7.332C14.6358 7.356 14.6158 7.4 14.5758 7.464C14.5438 7.544 14.5238 7.632 14.5158 7.728C14.5158 7.816 14.5158 7.916 14.5158 8.028C14.5238 8.188 14.5638 8.308 14.6358 8.388C14.7158 8.468 14.8398 8.508 15.0078 8.508C15.2798 8.5 15.5158 8.48 15.7158 8.448C15.9238 8.416 16.0998 8.384 16.2438 8.352C16.5078 8.264 16.7358 8.24 16.9278 8.28C17.1278 8.312 17.2678 8.38 17.3478 8.484C17.3958 8.556 17.4238 8.644 17.4318 8.748C17.4398 8.844 17.4438 8.912 17.4438 8.952C17.4198 8.984 17.3198 9.032 17.1438 9.096C16.9758 9.168 16.7718 9.24 16.5318 9.312C16.2918 9.384 16.0558 9.444 15.8238 9.492C15.5998 9.548 15.4198 9.58 15.2838 9.588ZM23.108 10.044C23.076 10.044 23.016 10.028 22.928 9.996C22.848 9.972 22.788 9.936 22.748 9.888C22.692 9.832 22.652 9.764 22.628 9.684C22.612 9.604 22.604 9.528 22.604 9.456C22.604 9.368 22.604 9.24 22.604 9.072C22.604 8.912 22.596 8.756 22.58 8.604C22.58 8.372 22.576 8.156 22.568 7.956C22.56 7.756 22.572 7.62 22.604 7.548C22.58 7.436 22.576 7.316 22.592 7.188C22.616 7.052 22.628 6.948 22.628 6.876L22.58 6.552H21.932C21.78 6.576 21.536 6.58 21.2 6.564C20.864 6.54 20.488 6.516 20.072 6.492L19.916 6.744C19.892 6.776 19.848 6.84 19.784 6.936C19.72 7.032 19.656 7.164 19.592 7.332C19.552 7.436 19.496 7.568 19.424 7.728C19.36 7.88 19.288 8.032 19.208 8.184C19.136 8.336 19.064 8.464 18.992 8.568C18.864 8.816 18.748 8.984 18.644 9.072C18.548 9.168 18.48 9.216 18.44 9.216C18.368 9.216 18.312 9.212 18.272 9.204C18.232 9.196 18.172 9.164 18.092 9.108C17.932 9.036 17.828 8.924 17.78 8.772C17.74 8.62 17.8 8.428 17.96 8.196C18 8.14 18.036 8.084 18.068 8.028C18.1 7.972 18.116 7.944 18.116 7.944C18.116 7.928 18.148 7.848 18.212 7.704C18.284 7.552 18.368 7.384 18.464 7.2C18.56 7.008 18.652 6.84 18.74 6.696C18.828 6.544 18.892 6.46 18.932 6.444C19.076 6.284 19.064 6.132 18.896 5.988C18.84 5.964 18.804 5.896 18.788 5.784C18.772 5.672 18.8 5.568 18.872 5.472C18.944 5.368 19.08 5.324 19.28 5.34C19.36 5.3 19.416 5.272 19.448 5.256C19.488 5.24 19.508 5.216 19.508 5.184C19.508 5.168 19.524 5.12 19.556 5.04C19.596 4.96 19.644 4.868 19.7 4.764C19.756 4.652 19.816 4.544 19.88 4.44C19.944 4.336 20.004 4.248 20.06 4.176C20.148 3.952 20.216 3.804 20.264 3.732C20.312 3.652 20.352 3.576 20.384 3.504C20.424 3.464 20.48 3.376 20.552 3.24C20.624 3.104 20.7 2.972 20.78 2.844C20.892 2.732 20.992 2.612 21.08 2.484C21.176 2.348 21.26 2.236 21.332 2.148C21.372 2.06 21.428 1.964 21.5 1.86C21.58 1.756 21.66 1.648 21.74 1.536C21.892 1.368 22.072 1.232 22.28 1.128C22.496 1.024 22.684 1.008 22.844 1.08C23.028 1.16 23.2 1.32 23.36 1.56C23.52 1.792 23.612 2.076 23.636 2.412C23.66 2.596 23.684 2.804 23.708 3.036C23.74 3.26 23.736 3.428 23.696 3.54C23.696 3.684 23.692 3.86 23.684 4.068C23.684 4.276 23.696 4.472 23.72 4.656C23.688 4.808 23.676 4.98 23.684 5.172C23.692 5.356 23.696 5.484 23.696 5.556C23.696 5.628 23.692 5.744 23.684 5.904C23.676 6.056 23.672 6.188 23.672 6.3C23.664 6.604 23.656 6.856 23.648 7.056C23.648 7.256 23.648 7.448 23.648 7.632C23.656 7.808 23.66 8.016 23.66 8.256C23.676 8.888 23.632 9.336 23.528 9.6C23.432 9.872 23.292 10.02 23.108 10.044ZM20.684 5.556C20.684 5.556 20.764 5.548 20.924 5.532C21.084 5.508 21.276 5.5 21.5 5.508C21.764 5.484 21.98 5.48 22.148 5.496C22.316 5.504 22.416 5.5 22.448 5.484C22.536 5.492 22.596 5.456 22.628 5.376C22.66 5.296 22.676 5.192 22.676 5.064C22.66 4.888 22.644 4.668 22.628 4.404C22.62 4.132 22.612 3.86 22.604 3.588C22.596 3.308 22.596 3.068 22.604 2.868C22.604 2.716 22.592 2.564 22.568 2.412C22.544 2.252 22.532 2.172 22.532 2.172C22.516 2.148 22.468 2.188 22.388 2.292C22.316 2.388 22.232 2.508 22.136 2.652C22.04 2.796 21.952 2.94 21.872 3.084C21.792 3.22 21.732 3.32 21.692 3.384C21.66 3.424 21.6 3.528 21.512 3.696C21.424 3.864 21.324 4.044 21.212 4.236C20.916 4.708 20.736 5.036 20.672 5.22C20.608 5.404 20.612 5.516 20.684 5.556ZM24.5145 9.036C24.4505 8.972 24.3985 8.876 24.3585 8.748C24.3265 8.62 24.3105 8.484 24.3105 8.34C24.3185 8.188 24.3465 8.064 24.3945 7.968C24.4345 7.896 24.4665 7.804 24.4905 7.692C24.5145 7.572 24.5305 7.46 24.5385 7.356C24.6025 7.1 24.6785 6.836 24.7665 6.564C24.8625 6.284 24.9625 5.984 25.0665 5.664C25.2105 5.224 25.3345 4.84 25.4385 4.512C25.5425 4.184 25.6465 3.872 25.7505 3.576C25.8545 3.272 25.9745 2.952 26.1105 2.616C26.1345 2.576 26.1585 2.528 26.1825 2.472C26.2145 2.408 26.2385 2.344 26.2545 2.28C26.2785 2.208 26.2865 2.148 26.2785 2.1C26.3025 1.972 26.3345 1.868 26.3745 1.788C26.4225 1.7 26.4625 1.64 26.4945 1.608C26.5825 1.504 26.6785 1.42 26.7825 1.356C26.8865 1.284 26.9705 1.264 27.0345 1.296C27.1465 1.328 27.2665 1.384 27.3945 1.464C27.5305 1.536 27.6425 1.688 27.7305 1.92C27.7785 1.992 27.8225 2.068 27.8625 2.148C27.9025 2.22 27.9305 2.304 27.9465 2.4C27.9625 2.496 27.9585 2.616 27.9345 2.76C27.9585 3.112 28.0025 3.472 28.0665 3.84C28.1385 4.208 28.1665 4.544 28.1505 4.848C28.1505 4.984 28.1505 5.164 28.1505 5.388C28.1505 5.612 28.1505 5.844 28.1505 6.084C28.1585 6.316 28.1705 6.52 28.1865 6.696C28.2105 6.864 28.2465 6.964 28.2945 6.996C28.3105 7.004 28.3185 7.024 28.3185 7.056C28.3185 7.08 28.3225 7.092 28.3305 7.092C28.3385 7.092 28.3505 7.06 28.3665 6.996C28.3905 6.924 28.4265 6.8 28.4745 6.624C28.5225 6.464 28.5985 6.304 28.7025 6.144C28.8145 5.976 28.8985 5.748 28.9545 5.46C29.0585 5.196 29.1425 4.964 29.2065 4.764C29.2785 4.564 29.3465 4.36 29.4105 4.152C29.4745 3.944 29.5505 3.712 29.6385 3.456C29.6545 3.384 29.6825 3.296 29.7225 3.192C29.7705 3.08 29.8225 2.964 29.8785 2.844C29.9345 2.716 29.9945 2.6 30.0585 2.496C30.1385 2.336 30.2265 2.172 30.3225 2.004C30.4185 1.836 30.4665 1.736 30.4665 1.704C30.4665 1.704 30.4665 1.684 30.4665 1.644C30.4665 1.596 30.4825 1.556 30.5145 1.524C30.5545 1.492 30.6065 1.456 30.6705 1.416C30.7345 1.376 30.7785 1.304 30.8025 1.2C30.8425 1.168 30.9185 1.124 31.0305 1.068C31.1425 1.012 31.2345 1 31.3065 1.032C31.3545 1.072 31.4025 1.116 31.4505 1.164C31.5065 1.212 31.5425 1.28 31.5585 1.368C31.5825 1.456 31.5625 1.584 31.4985 1.752C31.4745 1.92 31.4385 2.064 31.3905 2.184C31.3505 2.296 31.3105 2.384 31.2705 2.448C31.2385 2.528 31.2025 2.624 31.1625 2.736C31.1305 2.84 31.0945 2.936 31.0545 3.024C31.0225 3.168 30.9945 3.284 30.9705 3.372C30.9545 3.46 30.9465 3.52 30.9465 3.552C30.9465 3.552 30.9185 3.592 30.8625 3.672C30.8145 3.752 30.7545 3.852 30.6825 3.972C30.5705 4.26 30.4825 4.504 30.4185 4.704C30.3545 4.896 30.2985 5.064 30.2505 5.208C30.2025 5.352 30.1545 5.5 30.1065 5.652C30.0585 5.796 29.9945 5.964 29.9145 6.156C29.9065 6.268 29.8865 6.372 29.8545 6.468C29.8225 6.556 29.7865 6.632 29.7465 6.696C29.7065 6.76 29.6745 6.812 29.6505 6.852C29.6265 6.884 29.6145 6.9 29.6145 6.9C29.4145 7.236 29.2425 7.552 29.0985 7.848C28.9545 8.136 28.8585 8.32 28.8105 8.4C28.7705 8.464 28.7305 8.516 28.6905 8.556C28.6505 8.588 28.6105 8.612 28.5705 8.628C28.5385 8.636 28.5025 8.644 28.4625 8.652C28.4305 8.66 28.3905 8.664 28.3425 8.664C28.1985 8.68 28.0665 8.636 27.9465 8.532C27.8265 8.42 27.7105 8.244 27.5985 8.004C27.4545 7.708 27.3265 7.332 27.2145 6.876C27.1105 6.412 27.0505 5.924 27.0345 5.412C27.0345 5.348 27.0345 5.276 27.0345 5.196C27.0345 5.116 27.0305 5.036 27.0225 4.956C27.0225 4.876 27.0185 4.808 27.0105 4.752C27.0105 4.688 27.0105 4.528 27.0105 4.272C27.0105 4.016 27.0025 3.704 26.9865 3.336C26.8825 3.552 26.7905 3.812 26.7105 4.116C26.6305 4.42 26.5465 4.724 26.4585 5.028C26.3705 5.324 26.2545 5.588 26.1105 5.82C26.0945 5.98 26.0705 6.124 26.0385 6.252C26.0065 6.38 25.9745 6.492 25.9425 6.588C25.9185 6.676 25.8905 6.74 25.8585 6.78C25.8025 6.94 25.7545 7.128 25.7145 7.344C25.6825 7.56 25.6505 7.72 25.6185 7.824C25.6185 7.904 25.5945 8.02 25.5465 8.172C25.5065 8.316 25.4625 8.464 25.4145 8.616C25.3665 8.76 25.3305 8.872 25.3065 8.952C25.2665 9.048 25.1945 9.124 25.0905 9.18C24.9865 9.236 24.8785 9.256 24.7665 9.24C24.6545 9.224 24.5705 9.156 24.5145 9.036ZM32.6168 9.792C32.4968 9.744 32.3568 9.676 32.1968 9.588C32.0368 9.508 31.8848 9.4 31.7408 9.264C31.5968 9.128 31.4848 8.964 31.4048 8.772C31.3248 8.54 31.2688 8.312 31.2368 8.088C31.2128 7.864 31.2048 7.604 31.2128 7.308C31.2128 6.892 31.2408 6.532 31.2968 6.228C31.3608 5.916 31.4568 5.6 31.5848 5.28C31.6008 5.256 31.6288 5.188 31.6688 5.076C31.7168 4.956 31.7688 4.828 31.8248 4.692C31.8888 4.556 31.9368 4.452 31.9688 4.38C32.0328 4.244 32.1288 4.064 32.2568 3.84C32.3928 3.608 32.5368 3.384 32.6888 3.168C32.9208 2.824 33.1168 2.544 33.2768 2.328C33.4368 2.104 33.5888 1.916 33.7328 1.764C33.8848 1.612 34.0488 1.464 34.2248 1.32C34.4088 1.176 34.6368 1.012 34.9088 0.827999C35.0848 0.7 35.3088 0.62 35.5808 0.588C35.8608 0.556 36.1328 0.599999 36.3968 0.719999C36.6608 0.831999 36.8568 1.048 36.9848 1.368C37.0728 1.536 37.1128 1.748 37.1048 2.004C37.0968 2.252 37.0488 2.52 36.9608 2.808C36.8728 3.088 36.7608 3.352 36.6248 3.6C36.4888 3.848 36.3368 4.048 36.1688 4.2C36.0648 4.296 35.9248 4.312 35.7488 4.248C35.5808 4.184 35.4408 4.1 35.3288 3.996C35.2568 3.86 35.2168 3.78 35.2088 3.756C35.2088 3.732 35.2248 3.716 35.2568 3.708C35.3048 3.652 35.3688 3.556 35.4488 3.42C35.5288 3.284 35.6088 3.14 35.6888 2.988C35.7688 2.828 35.8248 2.7 35.8568 2.604C35.9208 2.268 35.9648 2.048 35.9888 1.944C36.0128 1.832 35.9888 1.74 35.9168 1.668C35.8848 1.636 35.8368 1.624 35.7728 1.632C35.7168 1.64 35.6208 1.68 35.4848 1.752C35.3008 1.832 35.0808 1.996 34.8248 2.244C34.5768 2.484 34.3288 2.772 34.0808 3.108C33.7608 3.532 33.4928 3.908 33.2768 4.236C33.0608 4.564 32.8968 4.9 32.7848 5.244C32.7688 5.276 32.7408 5.336 32.7008 5.424C32.6688 5.512 32.6528 5.556 32.6528 5.556C32.6608 5.588 32.6488 5.668 32.6168 5.796C32.5848 5.916 32.5488 6.02 32.5088 6.108C32.4208 6.476 32.3688 6.832 32.3528 7.176C32.3368 7.512 32.3568 7.808 32.4128 8.064C32.4768 8.312 32.5688 8.496 32.6888 8.616C32.7928 8.688 32.9248 8.712 33.0848 8.688C33.2448 8.664 33.4288 8.608 33.6368 8.52C33.8448 8.432 34.0688 8.336 34.3088 8.232C34.5008 8.152 34.6768 8.064 34.8368 7.968C34.9968 7.872 35.1168 7.788 35.1968 7.716C35.2608 7.668 35.3408 7.62 35.4368 7.572C35.5408 7.516 35.6288 7.488 35.7008 7.488C35.8128 7.448 35.8968 7.48 35.9528 7.584C36.0088 7.688 36.0368 7.82 36.0368 7.98C36.0368 8.092 35.9568 8.228 35.7968 8.388C35.6368 8.548 35.4608 8.684 35.2688 8.796C35.2048 8.86 35.1168 8.92 35.0048 8.976C34.9008 9.024 34.7928 9.068 34.6808 9.108C34.5128 9.236 34.3048 9.36 34.0568 9.48C33.8088 9.6 33.5568 9.692 33.3008 9.756C33.0528 9.82 32.8248 9.832 32.6168 9.792ZM38.8483 9.504C38.6883 9.464 38.4923 9.4 38.2603 9.312C38.0283 9.224 37.8203 9.128 37.6363 9.024C37.4523 8.92 37.3483 8.832 37.3243 8.76C37.3243 8.72 37.3083 8.688 37.2763 8.664C37.2443 8.632 37.2083 8.616 37.1683 8.616C37.1683 8.616 37.1683 8.612 37.1683 8.604C37.1683 8.596 37.1683 8.568 37.1683 8.52C37.1683 8.488 37.1683 8.456 37.1683 8.424C37.1763 8.384 37.1603 8.352 37.1203 8.328C37.0643 8.208 37.0483 8.012 37.0723 7.74C37.1043 7.468 37.1563 7.176 37.2283 6.864C37.3083 6.544 37.3883 6.268 37.4683 6.036C37.4683 5.964 37.4803 5.892 37.5043 5.82C37.5363 5.748 37.5523 5.692 37.5523 5.652C37.5763 5.58 37.6203 5.472 37.6843 5.328C37.7483 5.176 37.8243 5.012 37.9123 4.836C38.0003 4.652 38.0883 4.48 38.1763 4.32C38.2643 4.152 38.3443 4.024 38.4163 3.936C38.4163 3.896 38.4443 3.844 38.5003 3.78C38.5563 3.716 38.6003 3.628 38.6323 3.516C38.6963 3.452 38.7763 3.344 38.8723 3.192C38.9763 3.04 39.0683 2.9 39.1483 2.772C39.3163 2.636 39.4203 2.516 39.4603 2.412C39.5003 2.3 39.5123 2.212 39.4963 2.148C39.5043 2.028 39.5403 1.936 39.6043 1.872C39.6683 1.8 39.7683 1.74 39.9043 1.692C40.0403 1.644 40.2123 1.596 40.4203 1.548C40.6763 1.452 40.9363 1.384 41.2003 1.344C41.4723 1.304 41.8163 1.28 42.2323 1.272C42.3603 1.24 42.4603 1.224 42.5323 1.224C42.6043 1.216 42.6403 1.212 42.6403 1.212C42.6563 1.196 42.7283 1.196 42.8563 1.212C42.9843 1.228 43.1283 1.264 43.2883 1.32C43.4483 1.368 43.5843 1.428 43.6963 1.5C43.8163 1.572 43.8723 1.656 43.8643 1.752C43.8643 1.8 43.7763 1.856 43.6003 1.92C43.4243 1.976 43.2203 2.032 42.9883 2.088C42.7563 2.136 42.5523 2.172 42.3763 2.196C42.0163 2.236 41.7163 2.272 41.4763 2.304C41.2363 2.336 41.0323 2.388 40.8643 2.46C40.7043 2.524 40.5523 2.628 40.4083 2.772C40.2723 2.916 40.1163 3.124 39.9403 3.396C39.7803 3.652 39.6643 3.86 39.5923 4.02C39.5203 4.172 39.4923 4.284 39.5083 4.356C39.5323 4.428 39.5883 4.464 39.6763 4.464C39.7723 4.464 39.8923 4.456 40.0363 4.44C40.1803 4.416 40.2763 4.404 40.3243 4.404C40.3243 4.404 40.3963 4.38 40.5403 4.332C40.6923 4.276 40.8803 4.232 41.1043 4.2C41.3603 4.152 41.5323 4.116 41.6203 4.092C41.7163 4.06 41.8083 4.04 41.8963 4.032C42.1683 4.008 42.3323 4.056 42.3883 4.176C42.4443 4.296 42.4203 4.432 42.3163 4.584C42.2203 4.736 42.0723 4.852 41.8723 4.932C41.7923 4.964 41.6923 5 41.5723 5.04C41.4523 5.08 41.3403 5.116 41.2363 5.148C41.1323 5.172 41.0643 5.184 41.0323 5.184C41.0323 5.184 41.0003 5.192 40.9363 5.208C40.8803 5.216 40.8003 5.22 40.6963 5.22C40.6723 5.22 40.5563 5.236 40.3483 5.268C40.1403 5.292 39.9443 5.316 39.7603 5.34C39.4803 5.412 39.2683 5.472 39.1243 5.52C38.9883 5.56 38.8883 5.616 38.8243 5.688C38.7603 5.76 38.6963 5.876 38.6323 6.036C38.5603 6.212 38.4963 6.416 38.4403 6.648C38.3843 6.872 38.3403 7.096 38.3083 7.32C38.2843 7.544 38.2763 7.74 38.2843 7.908C38.3003 8.068 38.3363 8.176 38.3923 8.232C38.5363 8.384 38.7283 8.48 38.9683 8.52C39.2083 8.552 39.4563 8.536 39.7123 8.472C39.9763 8.408 40.2043 8.316 40.3963 8.196C40.4603 8.148 40.5363 8.1 40.6243 8.052C40.7203 7.996 40.8123 7.952 40.9003 7.92C41.0043 7.856 41.0843 7.836 41.1403 7.86C41.2043 7.884 41.3123 7.952 41.4643 8.064C41.6003 8.256 41.5923 8.44 41.4403 8.616C41.2963 8.784 41.0003 8.964 40.5523 9.156C40.1363 9.308 39.8043 9.408 39.5563 9.456C39.3163 9.504 39.0803 9.52 38.8483 9.504Z" fill="black"/>
</svg>
