<svg width="52" height="52" viewBox="0 0 52 52" fill="none" xmlns="http://www.w3.org/2000/svg">
<g filter="url(#filter0_d_43_3862)">
<rect width="48" height="48" rx="24" fill="white" shape-rendering="crispEdges"/>
<path fill-rule="evenodd" clip-rule="evenodd" d="M34.3453 15.3334C34.494 15.1881 34.6652 14.9879 34.7685 14.7328C34.8949 14.4206 34.9298 13.9731 34.6409 13.5732C34.404 13.2452 34.0663 13.1232 33.8768 13.073C33.6629 13.0164 33.4401 13 33.2392 13C32.4557 13 31.325 13.2563 30.1574 13.7007C28.2991 14.408 25.9774 15.7375 24.5998 17.7758C23.8726 16.8594 23.0887 16.1183 22.2463 15.3219C22.1176 15.2002 21.9874 15.0772 21.8559 14.952C20.881 14.0243 19.3954 13.7265 18.2176 13.6139C17.2604 13.5225 16.2979 13.541 15.6766 13.5529C15.5097 13.5561 15.3674 13.5588 15.2564 13.5588C14.7613 13.5588 14.3407 13.9212 14.2674 14.4109L12.011 29.4992C11.9564 29.8647 12.1078 30.2306 12.4048 30.4506C12.6968 30.6669 13.0827 30.7075 13.4128 30.5579C13.4129 30.5584 13.4494 30.5456 13.5408 30.5267C13.6521 30.5037 13.8033 30.4798 13.9919 30.4577C14.3678 30.4138 14.8506 30.3819 15.3791 30.3718C16.4551 30.3514 17.6153 30.4232 18.4007 30.6177C19.3447 30.8515 20.4163 31.4618 21.3224 32.1273C21.7663 32.4533 22.1478 32.7758 22.429 33.0423C22.6716 33.2722 22.7855 33.4101 22.821 33.453C22.8323 33.4667 22.8357 33.4708 22.8327 33.4651C22.9922 33.7687 23.2962 33.9694 23.638 33.9968C23.9798 34.0242 24.3119 33.8746 24.5177 33.6003C24.7297 33.318 25.2022 32.9745 25.9919 32.6442C26.7559 32.3246 27.712 32.0605 28.7583 31.8711C30.8639 31.4899 33.185 31.4372 34.8131 31.7471C35.1315 31.8077 35.4595 31.7102 35.6932 31.4855C35.9268 31.2608 36.0371 30.9368 35.9889 30.6162C35.8767 29.8687 35.7152 28.9201 35.5335 27.853C35.215 25.9823 34.8345 23.7476 34.549 21.5944C34.3272 19.9211 34.1733 18.3652 34.1586 17.1592C34.1512 16.5536 34.1797 16.073 34.2397 15.7257C34.2888 15.4421 34.3434 15.3428 34.3453 15.3334ZM23.7055 19.9647C22.9071 18.7029 22.0294 17.8716 20.8545 16.7588C20.732 16.6428 20.6064 16.5238 20.4772 16.4009C20.0279 15.9734 19.1519 15.7123 18.0274 15.6049C17.3401 15.5392 16.68 15.5381 16.1199 15.5462L14.1934 28.4284C14.546 28.3994 14.936 28.3799 15.3411 28.3722C16.4819 28.3505 17.8455 28.4198 18.8814 28.6764C20.1938 29.0014 21.5123 29.7853 22.5063 30.5153C22.6358 30.6104 22.7613 30.7057 22.8822 30.8004L23.7055 19.9647ZM24.8766 30.9506C24.99 30.8978 25.1047 30.8474 25.2201 30.7991C26.1542 30.4084 27.2582 30.1101 28.402 29.9031C30.1663 29.5837 32.1134 29.4658 33.8002 29.6007C33.7327 29.1969 33.6579 28.7568 33.5785 28.2897C33.2544 26.3826 32.854 24.0264 32.5664 21.8573C32.3416 20.1618 32.1749 18.5113 32.1587 17.1836C32.1507 16.5223 32.1791 15.9043 32.269 15.3849C32.2833 15.3022 32.3002 15.2153 32.3206 15.1261C31.9081 15.2179 31.4131 15.3627 30.8689 15.5699C28.7674 16.3698 26.4978 17.8759 25.7138 19.931L24.8766 30.9506ZM32.9734 13.8754C32.9735 13.8754 32.9724 13.8768 32.97 13.8795C32.9721 13.8768 32.9733 13.8754 32.9734 13.8754ZM19.5817 21.4266C18.9162 21.1419 18.3023 20.9937 18.0216 20.9998C17.4694 21.0117 17.0122 20.5737 17.0003 20.0216C16.9883 19.4694 17.4263 19.0121 17.9785 19.0002C18.6978 18.9847 19.6338 19.2736 20.3683 19.5878C20.7559 19.7536 21.138 19.948 21.4633 20.1558C21.7568 20.3432 22.1198 20.6128 22.3426 20.9615C22.6401 21.4269 22.5039 22.0452 22.0385 22.3426C21.5732 22.64 20.9548 22.5039 20.6574 22.0385C20.6647 22.0499 20.6646 22.0498 20.6533 22.0395C20.6291 22.0172 20.5532 21.9476 20.3868 21.8413C20.1746 21.7058 19.8942 21.5603 19.5817 21.4266ZM29.4991 23.2931C29.1125 23.4742 28.6625 23.833 28.1402 24.2682C27.7159 24.6218 27.0854 24.5645 26.7318 24.1402C26.3782 23.7159 26.4356 23.0853 26.8598 22.7318C27.3375 22.3337 27.9876 21.7925 28.651 21.4819C28.9919 21.3222 29.4124 21.1854 29.8712 21.2022C30.3638 21.2204 30.8284 21.4141 31.2071 21.7929C31.5977 22.1834 31.5977 22.8166 31.2071 23.2071C30.8166 23.5976 30.1834 23.5976 29.7929 23.2071C29.7906 23.2048 29.7885 23.2028 29.7866 23.201C29.752 23.2028 29.6613 23.2172 29.4991 23.2931ZM18.3693 24.8526C18.1112 24.8357 17.9824 24.8769 17.9472 24.8944C17.4533 25.1414 16.8526 24.9412 16.6056 24.4472C16.3586 23.9532 16.5588 23.3526 17.0528 23.1056C17.5177 22.8731 18.0388 22.8268 18.4995 22.8568C18.9724 22.8876 19.4618 23.0039 19.9228 23.1749C20.8179 23.507 21.7763 24.1116 22.3321 24.9453C22.6384 25.4048 22.5143 26.0257 22.0547 26.3321C21.5952 26.6384 20.9743 26.5142 20.668 26.0547C20.4238 25.6884 19.8821 25.293 19.2272 25.0501C18.9132 24.9336 18.6152 24.8686 18.3693 24.8526Z" fill="black"/>
</g>
<defs>
<filter id="filter0_d_43_3862" x="0" y="0" width="52" height="52" filterUnits="userSpaceOnUse" color-interpolation-filters="sRGB">
<feFlood flood-opacity="0" result="BackgroundImageFix"/>
<feColorMatrix in="SourceAlpha" type="matrix" values="0 0 0 0 0 0 0 0 0 0 0 0 0 0 0 0 0 0 127 0" result="hardAlpha"/>
<feOffset dx="4" dy="4"/>
<feComposite in2="hardAlpha" operator="out"/>
<feColorMatrix type="matrix" values="0 0 0 0 0 0 0 0 0 0 0 0 0 0 0 0 0 0 1 0"/>
<feBlend mode="normal" in2="BackgroundImageFix" result="effect1_dropShadow_43_3862"/>
<feBlend mode="normal" in="SourceGraphic" in2="effect1_dropShadow_43_3862" result="shape"/>
</filter>
</defs>
</svg>
