<svg width="144" height="52" viewBox="0 0 144 52" fill="none" xmlns="http://www.w3.org/2000/svg">
<g filter="url(#filter0_d_100_14639)">
<rect width="140" height="48" rx="24" fill="#94DEFF" shape-rendering="crispEdges"/>
<g clip-path="url(#clip0_100_14639)">
<path fill-rule="evenodd" clip-rule="evenodd" d="M32.5879 14.555C33.8677 15.1831 34.9277 16.4358 35.5964 17.7731C36.0705 18.7214 35.9481 19.6991 35.5774 20.5667C35.2164 21.4116 34.5873 22.2399 33.8825 23.023C33.1697 23.815 32.3216 24.6228 31.471 25.4167C31.3043 25.5723 31.1376 25.7273 30.9714 25.8818C30.2784 26.526 29.594 27.1622 28.9563 27.7999C27.2643 29.4919 25.6949 30.3279 24.1224 30.2596C22.5694 30.192 21.3296 29.25 20.2828 28.2032C19.6526 27.573 19.4283 26.8 19.4819 26.0337C19.5326 25.3087 19.8269 24.6132 20.178 24.0154C20.8811 22.8183 21.9852 21.7234 22.7764 21.076C23.2039 20.7263 23.8339 20.7893 24.1836 21.2167C24.5334 21.6442 24.4704 22.2742 24.0429 22.6239C23.3554 23.1864 22.443 24.108 21.9026 25.0282C21.632 25.489 21.4978 25.8774 21.4771 26.1732C21.4592 26.4277 21.5206 26.6126 21.697 26.789C22.6667 27.7586 23.4434 28.2281 24.2093 28.2614C24.9557 28.2939 26.0078 27.92 27.5421 26.3857C28.2082 25.7196 28.9263 25.0521 29.6213 24.406C29.7846 24.2543 29.9466 24.1037 30.1064 23.9546C30.9572 23.1605 31.7475 22.4055 32.3959 21.6851C33.0521 20.9559 33.5069 20.3222 33.7382 19.7809C33.9599 19.2621 33.9383 18.929 33.8075 18.6675C33.2663 17.585 32.4754 16.7276 31.7068 16.3504C31.3357 16.1683 31.0005 16.1116 30.7031 16.1532C30.4131 16.1938 30.0752 16.3391 29.7072 16.7071C29.3167 17.0976 28.6835 17.0976 28.293 16.7071C27.9025 16.3165 27.9025 15.6834 28.293 15.2928C28.9251 14.6608 29.6486 14.2812 30.4262 14.1725C31.1964 14.0648 31.9347 14.2345 32.5879 14.555ZM14.8667 26.0301C14.7369 26.2057 14.6241 26.3583 14.5306 26.4829C13.9713 27.2287 13.9798 27.4456 14.0113 27.6342C14.0384 27.7969 14.1157 28.0234 14.2958 28.4076C14.4112 28.6538 14.547 28.921 14.7114 29.2445C14.8069 29.4323 14.912 29.6392 15.0284 29.8719C15.155 30.1252 15.3117 30.2425 15.4959 30.3096C15.7108 30.3878 16.0209 30.4148 16.4378 30.357C17.2843 30.2397 18.26 29.8212 19.0529 29.4247C19.5469 29.1777 20.1476 29.378 20.3945 29.8719C20.6415 30.3659 20.4413 30.9666 19.9473 31.2136C19.1271 31.6237 17.9036 32.173 16.7123 32.3381C16.1103 32.4215 15.4418 32.4182 14.8119 32.1889C14.1512 31.9485 13.5969 31.4811 13.2395 30.7664C13.14 30.5673 13.0425 30.3754 12.9495 30.1923C12.7733 29.8452 12.613 29.5296 12.4849 29.2564C12.2869 28.834 12.1122 28.4052 12.0385 27.963C11.8683 26.9417 12.2801 26.1503 12.9306 25.2829C13.0164 25.1685 13.1227 25.0246 13.2471 24.8562C13.9745 23.8714 15.3213 22.0479 16.8167 20.3766C17.6919 19.3983 18.6466 18.4393 19.5868 17.7171C20.4849 17.0273 21.5451 16.4137 22.6031 16.4137C24.0196 16.4137 25.6031 16.5083 26.8058 16.9894C27.422 17.2358 28.0236 17.6167 28.4259 18.2201C28.843 18.8458 28.9672 19.5921 28.8323 20.4012C28.6037 21.7727 28.0379 23.0091 27.4252 23.956C27.1176 24.4314 26.7894 24.8474 26.4705 25.1811C26.1649 25.5009 25.8201 25.7957 25.4701 25.9707C24.9761 26.2177 24.3754 26.0175 24.1284 25.5235C23.8814 25.0296 24.0817 24.4289 24.5756 24.1819C24.6289 24.1552 24.7882 24.0468 25.0245 23.7994C25.2476 23.566 25.4992 23.251 25.7461 22.8695C26.2425 22.1023 26.6848 21.1206 26.8595 20.0724C26.9263 19.6716 26.8488 19.4601 26.7618 19.3295C26.66 19.1768 26.4551 19.0031 26.063 18.8463C25.2492 18.5208 24.0097 18.4137 22.6031 18.4137C22.2495 18.4137 21.6462 18.6572 20.8051 19.3032C20.0061 19.917 19.1459 20.7728 18.3072 21.7102C16.8821 23.3029 15.6012 25.0361 14.8667 26.0301Z" fill="black"/>
</g>
<path d="M41.7749 29.752C41.6362 29.6667 41.5082 29.56 41.3909 29.432C41.2735 29.3147 41.2469 29.144 41.3109 28.92C41.3002 28.792 41.3055 28.6693 41.3269 28.552C41.3589 28.4347 41.3802 28.3547 41.3909 28.312C41.4442 28.312 41.4762 28.2853 41.4869 28.232C41.4975 28.168 41.5029 28.1147 41.5029 28.072C41.5029 27.9867 41.5349 27.8427 41.5989 27.64C41.6629 27.4373 41.7269 27.224 41.7909 27C41.8762 26.8187 41.9562 26.6267 42.0309 26.424C42.1162 26.2213 42.1589 26.0987 42.1589 26.056C42.1589 25.9707 42.1802 25.8853 42.2229 25.8C42.2655 25.704 42.3135 25.6133 42.3669 25.528C42.4202 25.4 42.4575 25.2613 42.4789 25.112C42.5109 24.952 42.5269 24.8293 42.5269 24.744C42.5909 24.6053 42.6602 24.456 42.7349 24.296C42.8095 24.136 42.8682 23.9707 42.9109 23.8C42.9749 23.6187 43.0709 23.352 43.1989 23C43.3269 22.6373 43.4602 22.2747 43.5989 21.912C43.6949 21.7093 43.7855 21.5013 43.8709 21.288C43.9669 21.064 44.0522 20.8773 44.1269 20.728C44.2015 20.568 44.2549 20.488 44.2869 20.488C44.2869 20.488 44.2869 20.472 44.2869 20.44C44.2869 20.3973 44.2869 20.3547 44.2869 20.312C44.2869 20.2587 44.3295 20.1573 44.4149 20.008C44.5002 19.848 44.5802 19.6827 44.6549 19.512C44.7615 19.352 44.8362 19.2027 44.8789 19.064C44.9215 18.9147 44.9429 18.84 44.9429 18.84C44.9429 18.84 44.9642 18.808 45.0069 18.744C45.0495 18.6693 45.0922 18.6107 45.1349 18.568C45.4122 18.4187 45.6469 18.344 45.8389 18.344C46.0415 18.344 46.1802 18.472 46.2549 18.728C46.3402 18.9627 46.3775 19.128 46.3669 19.224C46.3562 19.3093 46.3189 19.416 46.2549 19.544C46.1695 19.736 46.0575 19.9813 45.9189 20.28C45.7802 20.568 45.6362 20.8773 45.4869 21.208C45.3375 21.5387 45.1935 21.8587 45.0549 22.168C44.9269 22.4667 44.8202 22.7227 44.7349 22.936C44.6602 23.1493 44.6229 23.2827 44.6229 23.336L43.9509 24.984C43.9082 25.0587 43.8389 25.2507 43.7429 25.56C43.6469 25.8587 43.5349 26.2213 43.4069 26.648C43.2789 27.064 43.1455 27.4907 43.0069 27.928C42.8789 28.3547 42.7509 28.744 42.6229 29.096C42.5589 29.2773 42.5002 29.4267 42.4469 29.544C42.3935 29.672 42.3402 29.768 42.2869 29.832C42.2335 29.896 42.1695 29.928 42.0949 29.928C42.0522 29.928 42.0042 29.912 41.9509 29.88C41.8975 29.848 41.8389 29.8053 41.7749 29.752ZM47.4389 29.72C47.3429 29.7307 47.2095 29.6827 47.0389 29.576C46.8789 29.48 46.7029 29.3573 46.5109 29.208C46.3295 29.0587 46.1535 28.904 45.9829 28.744C45.8229 28.584 45.6949 28.4453 45.5989 28.328C45.4282 28.0827 45.2095 27.752 44.9429 27.336C44.6869 26.92 44.4949 26.4827 44.3669 26.024C44.2922 25.6827 44.2122 25.4107 44.1269 25.208C44.0522 24.9947 44.0149 24.808 44.0149 24.648L44.0309 23.656L45.1989 23.576C45.2522 24.152 45.3375 24.632 45.4549 25.016C45.5722 25.3893 45.7109 25.7253 45.8709 26.024C45.9989 26.3013 46.1375 26.5733 46.2869 26.84C46.4469 27.1067 46.6229 27.3307 46.8149 27.512C47.0602 27.7787 47.2789 27.976 47.4709 28.104C47.6629 28.232 47.8069 28.296 47.9029 28.296C48.1055 28.392 48.2549 28.4827 48.3509 28.568C48.4469 28.6533 48.5109 28.728 48.5429 28.792C48.5749 28.856 48.5855 28.9147 48.5749 28.968C48.5855 29 48.5802 29.0693 48.5589 29.176C48.5375 29.2933 48.5055 29.4053 48.4629 29.512C48.4202 29.6293 48.3615 29.704 48.2869 29.736C48.2122 29.8107 48.1162 29.8533 47.9989 29.864C47.8815 29.8853 47.6949 29.8373 47.4389 29.72ZM43.7269 23.608L44.8949 22.744C44.9269 22.712 45.0175 22.6267 45.1669 22.488C45.3269 22.3387 45.6309 22.0933 46.0789 21.752L48.1909 20.04C48.4575 19.9013 48.7029 19.7467 48.9269 19.576C49.1509 19.4053 49.3375 19.272 49.4869 19.176C49.6682 19.048 49.8549 18.9147 50.0469 18.776C50.2389 18.6373 50.3562 18.5733 50.3989 18.584C50.4842 18.5413 50.5855 18.584 50.7029 18.712C50.8202 18.8293 50.9162 18.9733 50.9909 19.144C51.0762 19.304 51.1135 19.4267 51.1029 19.512C51.1242 19.6187 51.1082 19.7093 51.0549 19.784C51.0015 19.8587 50.8629 19.96 50.6389 20.088C50.3722 20.2053 50.1589 20.3173 49.9989 20.424C49.8495 20.5307 49.7642 20.6107 49.7429 20.664C49.7429 20.664 49.6309 20.7493 49.4069 20.92C49.1829 21.0907 48.9162 21.2827 48.6069 21.496C48.1802 21.784 47.8282 22.04 47.5509 22.264C47.2842 22.4773 47.1082 22.648 47.0229 22.776C46.9802 22.776 46.9375 22.792 46.8949 22.824C46.8629 22.856 46.8255 22.8667 46.7829 22.856C46.7829 22.856 46.7402 22.888 46.6549 22.952C46.5695 23.0053 46.5055 23.064 46.4629 23.128C46.4415 23.1813 46.3935 23.2507 46.3189 23.336C46.2549 23.4213 46.1749 23.4587 46.0789 23.448C46.0042 23.4907 45.8709 23.5813 45.6789 23.72C45.4869 23.848 45.2842 23.992 45.0709 24.152C44.8682 24.312 44.6922 24.456 44.5429 24.584C44.3935 24.712 44.3135 24.7867 44.3029 24.808L43.7269 23.608ZM51.0076 29.56C50.613 29.272 50.2983 29.0053 50.0636 28.76C49.8396 28.504 49.717 28.2587 49.6956 28.024C49.6743 27.832 49.6743 27.5707 49.6956 27.24C49.7276 26.9093 49.765 26.584 49.8076 26.264C49.8503 25.944 49.8876 25.704 49.9196 25.544C49.973 25.4907 49.9943 25.4213 49.9836 25.336C49.9836 25.24 49.9836 25.192 49.9836 25.192C49.973 25.1387 50.0103 25 50.0956 24.776C50.181 24.5413 50.261 24.2427 50.3356 23.88C50.549 23.24 50.7516 22.7067 50.9436 22.28C51.1463 21.8427 51.3436 21.4693 51.5356 21.16C51.7276 20.8507 51.9196 20.568 52.1116 20.312C52.549 19.864 52.9596 19.5067 53.3436 19.24C53.7383 18.9733 54.101 18.7653 54.4316 18.616C54.645 18.488 54.8423 18.3867 55.0236 18.312C55.205 18.2373 55.3543 18.2267 55.4716 18.28C56.069 18.408 56.5756 18.6693 56.9916 19.064C57.4076 19.4587 57.685 20.0293 57.8236 20.776C57.8983 21.2453 57.941 21.672 57.9516 22.056C57.973 22.4293 57.9463 22.8027 57.8716 23.176C57.797 23.5387 57.6583 23.9387 57.4556 24.376C57.2636 24.8133 56.9916 25.3253 56.6396 25.912C56.2023 26.776 55.7223 27.5013 55.1996 28.088C54.6876 28.664 54.1703 29.1013 53.6476 29.4C53.1356 29.6987 52.645 29.8587 52.1756 29.88C51.717 29.912 51.3276 29.8053 51.0076 29.56ZM52.2876 28.504C52.533 28.472 52.7303 28.424 52.8796 28.36C53.0396 28.296 53.205 28.1733 53.3756 27.992C53.5463 27.8107 53.7863 27.544 54.0956 27.192C54.373 26.872 54.6023 26.6 54.7836 26.376C54.9756 26.152 55.1356 25.9227 55.2636 25.688C55.4023 25.4533 55.5303 25.176 55.6476 24.856C55.7756 24.5253 55.9143 24.104 56.0636 23.592C56.149 23.272 56.2076 23.0373 56.2396 22.888C56.2823 22.728 56.309 22.5947 56.3196 22.488C56.3303 22.3813 56.3303 22.2373 56.3196 22.056C56.3196 21.864 56.3196 21.576 56.3196 21.192C56.309 21.0107 56.2716 20.808 56.2076 20.584C56.1436 20.3493 56.069 20.184 55.9836 20.088C55.877 19.9707 55.717 19.8693 55.5036 19.784C55.2903 19.6987 55.0663 19.7093 54.8316 19.816C54.7036 19.8693 54.5436 19.9813 54.3516 20.152C54.1596 20.312 53.9623 20.504 53.7596 20.728C53.557 20.952 53.365 21.176 53.1836 21.4C53.0023 21.624 52.8583 21.8267 52.7516 22.008C52.645 22.1893 52.5916 22.3173 52.5916 22.392C52.5916 22.392 52.5863 22.4187 52.5756 22.472C52.5756 22.5253 52.5543 22.5787 52.5116 22.632C52.373 22.7813 52.229 23.0267 52.0796 23.368C51.9303 23.7093 51.7916 24.0987 51.6636 24.536C51.5356 24.9733 51.429 25.4107 51.3436 25.848C51.2583 26.2853 51.205 26.68 51.1836 27.032C51.1836 27.2027 51.1836 27.3467 51.1836 27.464C51.1836 27.5813 51.1943 27.688 51.2156 27.784C51.2476 27.8693 51.2956 27.9653 51.3596 28.072C51.4236 28.1787 51.5516 28.2853 51.7436 28.392C51.9463 28.4987 52.1276 28.536 52.2876 28.504ZM65.4218 29.784C65.4004 29.816 65.3044 29.8373 65.1337 29.848C64.9631 29.8587 64.7818 29.832 64.5898 29.768C64.4084 29.704 64.2751 29.5813 64.1898 29.4C64.1044 29.2187 64.1258 28.9573 64.2538 28.616C64.6058 27.6987 64.9364 26.776 65.2458 25.848C65.5551 24.92 65.8644 23.992 66.1738 23.064C66.2698 22.744 66.3658 22.4453 66.4618 22.168C66.5578 21.88 66.6484 21.5973 66.7338 21.32C66.8298 21.0427 66.9098 20.7653 66.9738 20.488C66.9951 20.392 67.0164 20.296 67.0378 20.2C67.0698 20.104 67.0911 20.0027 67.1018 19.896C67.1124 19.8533 67.1178 19.816 67.1178 19.784C67.1178 19.7413 67.1231 19.6987 67.1338 19.656C66.9631 19.6027 66.7711 19.5867 66.5578 19.608C66.3551 19.6293 66.1524 19.6187 65.9498 19.576C65.7898 19.544 65.6138 19.5333 65.4218 19.544C65.2297 19.544 65.0324 19.5493 64.8298 19.56C64.6271 19.5707 64.4298 19.5867 64.2378 19.608C64.0458 19.6293 63.8644 19.64 63.6938 19.64C63.6724 19.6507 63.6511 19.6613 63.6298 19.672C63.6084 19.6827 63.5871 19.6933 63.5658 19.704C63.4484 19.992 63.3258 20.28 63.1978 20.568C63.0804 20.856 62.9631 21.144 62.8458 21.432C62.7711 21.6347 62.6804 21.832 62.5738 22.024C62.4778 22.216 62.3871 22.408 62.3018 22.6C62.2484 22.728 62.1951 22.8613 62.1418 23C62.0884 23.1387 62.0351 23.2773 61.9818 23.416C61.9284 23.544 61.8698 23.6773 61.8058 23.816C61.6458 24.2 61.4804 24.584 61.3098 24.968C61.1391 25.3413 60.9791 25.72 60.8298 26.104C60.6804 26.4987 60.5258 26.904 60.3658 27.32C60.2164 27.7253 60.0831 28.1307 59.9658 28.536C59.9338 28.6427 59.8964 28.7813 59.8538 28.952C59.8218 29.1227 59.7791 29.2613 59.7258 29.368C59.6298 29.592 59.4698 29.7147 59.2458 29.736C59.0218 29.768 58.8138 29.736 58.6218 29.64C58.3978 29.5227 58.2538 29.4 58.1898 29.272C58.1364 29.144 58.1471 28.9573 58.2218 28.712C58.3711 28.2107 58.5311 27.7093 58.7018 27.208C58.8831 26.7067 59.0751 26.2107 59.2778 25.72C59.4911 25.2187 59.7098 24.7387 59.9338 24.28C60.1151 23.9067 60.2751 23.5227 60.4138 23.128C60.5524 22.7333 60.7124 22.3547 60.8938 21.992C61.0431 21.7147 61.1818 21.4373 61.3098 21.16C61.4378 20.872 61.5551 20.5787 61.6618 20.28C61.6831 20.216 61.7044 20.152 61.7258 20.088C61.7471 20.024 61.7684 19.96 61.7898 19.896C61.7471 19.928 61.6938 19.9493 61.6298 19.96C61.5658 19.9707 61.4911 19.9707 61.4058 19.96C61.2991 19.9493 61.1871 19.9333 61.0698 19.912C60.9524 19.8907 60.8564 19.88 60.7818 19.88C60.6111 19.7413 60.4884 19.5387 60.4138 19.272C60.3391 19.0053 60.3551 18.7707 60.4618 18.568C60.5578 18.3973 60.6911 18.312 60.8618 18.312H62.0938C62.2111 18.312 62.3018 18.2853 62.3658 18.232C62.4298 18.168 62.5044 18.1147 62.5898 18.072C62.6751 18.0187 62.8084 18.0187 62.9898 18.072C63.1711 18.1147 63.3364 18.1413 63.4858 18.152C63.6351 18.152 63.7951 18.1413 63.9658 18.12C64.0084 18.1093 64.0511 18.104 64.0938 18.104C64.1364 18.0933 64.1791 18.0827 64.2218 18.072L65.9978 18.04C66.1044 18.04 66.2004 18.0507 66.2858 18.072C66.3711 18.0933 66.4618 18.1093 66.5578 18.12C66.7284 18.1307 66.9418 18.1413 67.1978 18.152C67.4538 18.152 67.7044 18.1733 67.9498 18.216C68.1951 18.248 68.3871 18.3173 68.5258 18.424C68.6111 18.488 68.6964 18.584 68.7818 18.712C68.8778 18.8293 68.9258 18.9413 68.9258 19.048C68.9258 19.0693 68.9044 19.1547 68.8618 19.304C68.8298 19.4533 68.7818 19.6453 68.7178 19.88C68.6538 20.104 68.5844 20.3547 68.5098 20.632C68.4351 20.8987 68.3551 21.1653 68.2698 21.432C68.1951 21.6987 68.1258 21.944 68.0618 22.168C67.9978 22.3707 67.9444 22.5413 67.9018 22.68C67.8591 22.808 67.8271 22.8933 67.8058 22.936C67.6458 23.352 67.4804 23.816 67.3098 24.328C67.1498 24.8293 66.9898 25.3307 66.8298 25.832C66.7551 26.0667 66.6804 26.296 66.6058 26.52C66.5418 26.744 66.4724 26.9627 66.3978 27.176C66.3338 27.3573 66.2378 27.64 66.1098 28.024C65.9924 28.408 65.8698 28.7653 65.7418 29.096C65.6884 29.256 65.6351 29.3947 65.5818 29.512C65.5284 29.6293 65.4751 29.72 65.4218 29.784ZM76.6395 29.672C76.5542 29.832 76.4262 29.9067 76.2555 29.896C76.0848 29.896 75.9088 29.8373 75.7275 29.72C75.5568 29.6133 75.4075 29.4853 75.2795 29.336C75.1515 29.1867 75.0875 29.048 75.0875 28.92C75.0982 28.8453 75.1035 28.776 75.1035 28.712C75.1035 28.648 75.1088 28.5787 75.1195 28.504C75.2048 28.28 75.2795 28.0507 75.3435 27.816C75.4182 27.5707 75.4822 27.3253 75.5355 27.08C75.6422 26.664 75.7382 26.2427 75.8235 25.816C75.9195 25.3893 76.0208 24.9787 76.1275 24.584C76.1808 24.36 76.2342 24.1467 76.2875 23.944C76.3515 23.7413 76.4155 23.528 76.4795 23.304C76.5542 23.08 76.6288 22.8347 76.7035 22.568C76.7888 22.2907 76.8848 21.976 76.9915 21.624C77.1088 21.272 77.2422 20.8613 77.3915 20.392C77.3595 20.4347 77.3222 20.4773 77.2795 20.52C77.2475 20.5627 77.2155 20.6107 77.1835 20.664C77.0128 20.8773 76.8368 21.096 76.6555 21.32C76.4848 21.544 76.3088 21.7733 76.1275 22.008C75.8928 22.3067 75.6475 22.616 75.3915 22.936C75.1462 23.2453 74.9008 23.56 74.6555 23.88C74.4635 24.1253 74.2715 24.3707 74.0795 24.616C73.8875 24.8613 73.7008 25.1067 73.5195 25.352C73.3808 25.544 73.2422 25.7307 73.1035 25.912C72.9648 26.0933 72.8262 26.2747 72.6875 26.456C72.5808 26.6053 72.3995 26.8293 72.1435 27.128C71.8982 27.4267 71.6262 27.7413 71.3275 28.072C71.0395 28.4027 70.7622 28.7067 70.4955 28.984C70.2395 29.2507 70.0475 29.4267 69.9195 29.512C69.7808 29.608 69.6102 29.6507 69.4075 29.64C69.2155 29.64 69.0395 29.592 68.8795 29.496C68.7302 29.4 68.6395 29.256 68.6075 29.064C68.5862 28.904 68.5968 28.6907 68.6395 28.424C68.6822 28.1467 68.7408 27.8373 68.8155 27.496C68.9008 27.144 68.9968 26.7813 69.1035 26.408C69.1355 26.3013 69.1622 26.2 69.1835 26.104C69.2155 25.9973 69.2475 25.896 69.2795 25.8C69.3008 25.736 69.3222 25.672 69.3435 25.608C69.3648 25.5333 69.3862 25.464 69.4075 25.4C69.4715 25.1973 69.5302 25.0053 69.5835 24.824C69.6475 24.632 69.7062 24.4507 69.7595 24.28C69.8128 24.12 69.8555 23.976 69.8875 23.848C69.9302 23.7093 69.9675 23.5867 69.9995 23.48C70.0422 23.3627 70.0742 23.2613 70.0955 23.176C70.1382 23.0587 70.1755 22.9413 70.2075 22.824C70.2502 22.696 70.2928 22.568 70.3355 22.44C70.3462 22.408 70.3568 22.376 70.3675 22.344C70.3782 22.312 70.3888 22.2853 70.3995 22.264C70.4635 22.072 70.5275 21.88 70.5915 21.688C70.6662 21.496 70.7408 21.304 70.8155 21.112L70.8955 20.92C70.9488 20.792 71.0022 20.6693 71.0555 20.552C71.1088 20.424 71.1568 20.3013 71.1995 20.184C71.1782 20.12 71.1782 20.056 71.1995 19.992C71.2208 19.9173 71.2528 19.8587 71.2955 19.816C71.2955 19.7947 71.3008 19.7573 71.3115 19.704C71.3328 19.6507 71.3595 19.5867 71.3915 19.512C71.4555 19.3733 71.5195 19.224 71.5835 19.064C71.6582 18.904 71.7275 18.7547 71.7915 18.616C71.8555 18.4773 71.8982 18.3813 71.9195 18.328C71.9515 18.2107 71.9942 18.1093 72.0475 18.024C72.1008 17.9387 72.1542 17.8693 72.2075 17.816C72.3675 17.6667 72.5435 17.6027 72.7355 17.624C72.9275 17.6347 73.0982 17.7093 73.2475 17.848C73.3968 17.9867 73.4928 18.1627 73.5355 18.376C73.5782 18.5893 73.5248 18.824 73.3755 19.08C73.3008 19.208 73.2368 19.3467 73.1835 19.496C73.1408 19.6347 73.0875 19.7733 73.0235 19.912C72.9168 20.168 72.8102 20.4293 72.7035 20.696C72.5968 20.952 72.4848 21.2187 72.3675 21.496C72.2502 21.7947 72.1382 22.0987 72.0315 22.408C71.9248 22.7067 71.8182 23.0053 71.7115 23.304C71.6048 23.6027 71.5035 23.9013 71.4075 24.2C71.3115 24.488 71.2155 24.776 71.1195 25.064C71.0342 25.352 70.9488 25.6293 70.8635 25.896C70.7888 26.1627 70.7195 26.424 70.6555 26.68C70.8155 26.488 70.9755 26.296 71.1355 26.104C71.3062 25.912 71.4715 25.72 71.6315 25.528C71.8235 25.3147 72.0155 25.096 72.2075 24.872C72.3995 24.648 72.5862 24.4187 72.7675 24.184C73.0342 23.8213 73.3168 23.4427 73.6155 23.048C73.9248 22.6427 74.2395 22.2373 74.5595 21.832C74.6555 21.7147 74.7462 21.5973 74.8315 21.48C74.9275 21.3627 75.0235 21.2453 75.1195 21.128C75.4288 20.744 75.7382 20.3653 76.0475 19.992C76.3568 19.608 76.6502 19.2507 76.9275 18.92C77.0342 18.7813 77.1782 18.6213 77.3595 18.44C77.5515 18.2587 77.7488 18.088 77.9515 17.928C78.1542 17.7573 78.3302 17.64 78.4795 17.576C78.6288 17.5013 78.7835 17.4907 78.9435 17.544C79.1142 17.5973 79.2582 17.6827 79.3755 17.8C79.5782 18.0027 79.6955 18.232 79.7275 18.488C79.7382 18.5413 79.7382 18.6 79.7275 18.664C79.7275 18.7173 79.7168 18.7707 79.6955 18.824C79.6528 18.9307 79.5782 19.112 79.4715 19.368C79.3755 19.6133 79.2635 19.896 79.1355 20.216C79.0182 20.5253 78.9008 20.8293 78.7835 21.128C78.7622 21.192 78.7355 21.256 78.7035 21.32C78.6822 21.384 78.6608 21.4427 78.6395 21.496C78.5542 21.72 78.4848 21.9173 78.4315 22.088C78.3782 22.2587 78.3515 22.376 78.3515 22.44C78.3515 22.4827 78.3195 22.6267 78.2555 22.872C78.2128 23.0427 78.1542 23.256 78.0795 23.512C78.0155 23.768 77.9408 24.0347 77.8555 24.312C77.7595 24.6747 77.6582 25.0373 77.5515 25.4C77.4555 25.752 77.3702 26.0613 77.2955 26.328C77.2208 26.5947 77.1675 26.7707 77.1355 26.856C77.0182 27.3147 76.9222 27.784 76.8475 28.264C76.7728 28.7333 76.7035 29.2027 76.6395 29.672ZM79.8033 30.072C79.7499 30.04 79.6593 29.9973 79.5312 29.944C79.4033 29.8907 79.2859 29.8267 79.1793 29.752C79.0833 29.6773 79.0299 29.592 79.0193 29.496C79.0086 29.464 78.9979 29.432 78.9873 29.4C78.9873 29.368 79.0033 29.2933 79.0353 29.176C79.0673 29.0693 79.1153 28.888 79.1793 28.632C79.2433 28.4187 79.2966 28.232 79.3393 28.072C79.3926 27.912 79.4193 27.8213 79.4193 27.8C79.4619 27.8213 79.5046 27.8107 79.5473 27.768C79.5899 27.7253 79.6113 27.6133 79.6113 27.432C79.6006 27.3893 79.6113 27.32 79.6432 27.224C79.6859 27.128 79.7339 27.032 79.7873 26.936C79.7873 26.904 79.7979 26.8027 79.8193 26.632C79.8513 26.4613 79.8833 26.2907 79.9153 26.12C80.0646 25.6187 80.2193 25.176 80.3793 24.792C80.5499 24.408 80.6779 24.1307 80.7633 23.96C80.7633 23.9387 80.7793 23.88 80.8113 23.784C80.8433 23.688 80.8806 23.592 80.9233 23.496C80.9659 23.3893 80.9979 23.32 81.0193 23.288C81.0299 23.192 81.0566 23.0693 81.0993 22.92C81.1526 22.76 81.2113 22.6107 81.2753 22.472C81.3499 22.3227 81.4193 22.2213 81.4833 22.168C81.4833 22.104 81.5099 21.9973 81.5633 21.848C81.6166 21.6987 81.6806 21.544 81.7552 21.384C81.8299 21.2133 81.8993 21.0693 81.9633 20.952C82.0273 20.8347 82.0646 20.776 82.0753 20.776C82.0753 20.776 82.0806 20.744 82.0913 20.68C82.1126 20.616 82.1766 20.5147 82.2833 20.376C82.2833 20.376 82.2886 20.3227 82.2993 20.216C82.3206 20.1093 82.3739 20.024 82.4593 19.96C82.5019 19.8 82.5286 19.6933 82.5393 19.64C82.5499 19.576 82.5339 19.5333 82.4913 19.512C82.3953 19.2347 82.4806 19.0907 82.7473 19.08C82.8113 19.08 82.8859 18.9893 82.9713 18.808C83.0246 18.712 83.1579 18.632 83.3713 18.568C83.5846 18.504 83.8459 18.44 84.1553 18.376C84.3579 18.344 84.5499 18.312 84.7313 18.28C84.9126 18.248 85.0033 18.232 85.0033 18.232C85.1526 18.232 85.3446 18.2427 85.5793 18.264C85.8246 18.2853 86.0166 18.312 86.1553 18.344C86.5393 18.5253 86.8699 18.776 87.1473 19.096C87.4353 19.416 87.5953 19.6987 87.6273 19.944C87.6486 20.072 87.6219 20.28 87.5473 20.568C87.4833 20.856 87.3926 21.1653 87.2753 21.496C87.1686 21.816 87.0513 22.104 86.9233 22.36C86.8059 22.616 86.6993 22.7813 86.6033 22.856C86.6566 22.8453 86.6353 22.904 86.5393 23.032C86.4433 23.1493 86.3206 23.272 86.1713 23.4C86.0326 23.528 85.9259 23.6027 85.8513 23.624C85.8513 23.624 85.8139 23.6933 85.7393 23.832C85.6646 23.96 85.5579 24.0613 85.4193 24.136C85.2913 24.2107 85.1526 24.3013 85.0033 24.408C84.8539 24.504 84.7366 24.616 84.6513 24.744C84.6513 24.6587 84.6246 24.632 84.5713 24.664C84.5179 24.6853 84.4593 24.728 84.3953 24.792C84.3313 24.8453 84.2779 24.8827 84.2353 24.904C83.9899 25.0533 83.7766 25.1493 83.5953 25.192C83.4139 25.2347 83.2113 25.2773 82.9873 25.32C82.9339 25.3627 82.8486 25.3893 82.7313 25.4C82.6246 25.4107 82.5179 25.416 82.4113 25.416L81.8193 25.336L81.4833 26.296C81.3553 26.7227 81.2326 27.08 81.1153 27.368C81.0086 27.656 80.9019 27.944 80.7953 28.232C80.6886 28.52 80.5713 28.8773 80.4433 29.304C80.4006 29.592 80.2993 29.8053 80.1393 29.944C79.9899 30.0933 79.8779 30.136 79.8033 30.072ZM82.3953 24.104C82.7366 24.072 83.0139 24.024 83.2273 23.96C83.4406 23.8853 83.6379 23.784 83.8193 23.656C84.0006 23.528 84.1979 23.3627 84.4113 23.16C84.4966 23.0747 84.6139 22.9573 84.7633 22.808C84.9126 22.6587 85.0673 22.4987 85.2273 22.328C85.3979 22.1467 85.5419 21.976 85.6593 21.816C85.8299 21.5813 85.9473 21.3413 86.0113 21.096C86.0753 20.8507 86.1019 20.6267 86.0913 20.424C86.0806 20.2213 86.0433 20.0667 85.9792 19.96C85.8406 19.7573 85.6753 19.6293 85.4833 19.576C85.3019 19.5227 85.1046 19.5227 84.8913 19.576C84.6886 19.6293 84.4806 19.7147 84.2673 19.832C84.2139 19.8533 84.1233 19.9653 83.9953 20.168C83.8779 20.3707 83.7446 20.6213 83.5953 20.92C83.4566 21.2187 83.3126 21.5387 83.1633 21.88C83.0139 22.2213 82.8753 22.552 82.7473 22.872C82.6299 23.1813 82.5339 23.448 82.4593 23.672C82.3953 23.896 82.3739 24.04 82.3953 24.104ZM89.8925 29.416C89.7005 29.384 89.4605 29.304 89.1725 29.176C88.8845 29.048 88.6178 28.904 88.3725 28.744C88.1378 28.5733 87.9885 28.4187 87.9245 28.28C87.7538 28.0027 87.6312 27.688 87.5565 27.336C87.4925 26.984 87.5405 26.5787 87.7005 26.12C87.7432 25.9387 87.7752 25.7893 87.7965 25.672C87.8178 25.544 87.8285 25.432 87.8285 25.336C87.8285 25.336 87.8392 25.32 87.8605 25.288C87.8925 25.2453 87.9085 25.224 87.9085 25.224C87.9405 25.1813 87.9672 25.1493 87.9885 25.128C88.0098 25.096 88.0312 25.064 88.0525 25.032C88.0845 24.9893 88.1165 24.9467 88.1485 24.904C88.1805 24.8507 88.1965 24.824 88.1965 24.824C88.2605 24.7493 88.2978 24.6747 88.3085 24.6C88.3192 24.5253 88.3192 24.4507 88.3085 24.376C88.3085 24.344 88.3085 24.312 88.3085 24.28C88.3192 24.248 88.3298 24.216 88.3405 24.184C88.3832 24.12 88.4152 24.072 88.4365 24.04C88.4685 24.008 88.5005 23.976 88.5325 23.944C88.5752 23.912 88.6072 23.8853 88.6285 23.864C88.6605 23.8427 88.6765 23.832 88.6765 23.832C88.7085 23.8533 88.7298 23.8533 88.7405 23.832C88.7618 23.8107 88.7938 23.7627 88.8365 23.688C88.8685 23.6347 88.9112 23.544 88.9645 23.416C89.0285 23.2773 89.0978 23.1173 89.1725 22.936C89.2472 22.744 89.3165 22.552 89.3805 22.36C89.7752 21.6453 90.1805 21.0427 90.5965 20.552C91.0232 20.0507 91.4178 19.656 91.7805 19.368C92.1538 19.0693 92.4418 18.8613 92.6445 18.744L92.7405 18.68L92.9325 18.6C92.9858 18.5787 93.0712 18.568 93.1885 18.568C93.3165 18.5573 93.4338 18.5467 93.5405 18.536C93.6898 18.536 93.8498 18.5627 94.0205 18.616C94.2018 18.6587 94.3618 18.7067 94.5005 18.76C94.6392 18.8027 94.7138 18.84 94.7245 18.872C94.7245 18.9147 94.7405 18.9413 94.7725 18.952C94.8045 18.9627 94.8205 18.968 94.8205 18.968C94.8845 18.9573 94.9858 19.032 95.1245 19.192C95.2632 19.352 95.4072 19.544 95.5565 19.768C95.7165 19.9813 95.8338 20.184 95.9085 20.376C96.0258 20.5467 96.0792 20.808 96.0685 21.16C96.0578 21.5013 96.0418 21.832 96.0205 22.152C95.9992 22.312 95.9618 22.5147 95.9085 22.76C95.8658 22.9947 95.8178 23.224 95.7645 23.448C95.7112 23.6613 95.6632 23.8213 95.6205 23.928C95.6098 23.96 95.5672 24.0667 95.4925 24.248C95.4285 24.4187 95.3592 24.5947 95.2845 24.776C95.2205 24.9573 95.1778 25.0747 95.1565 25.128C95.0392 25.416 94.9058 25.72 94.7565 26.04C94.6072 26.3493 94.4472 26.6427 94.2765 26.92C94.1058 27.1973 93.9405 27.4267 93.7805 27.608C93.6205 27.7787 93.4658 27.8693 93.3165 27.88C93.3165 27.88 93.3058 27.8853 93.2845 27.896C93.2738 27.9067 93.2685 27.9333 93.2685 27.976C93.2685 27.9973 93.1885 28.0827 93.0285 28.232C92.8685 28.3707 92.6872 28.52 92.4845 28.68C92.2925 28.8293 92.1485 28.9413 92.0525 29.016C91.8285 29.0907 91.5778 29.1653 91.3005 29.24C91.0232 29.3253 90.7565 29.384 90.5005 29.416C90.2445 29.4587 90.0418 29.4587 89.8925 29.416ZM90.0685 27.992C90.4738 28.0027 90.8045 27.992 91.0605 27.96C91.3272 27.928 91.5672 27.848 91.7805 27.72C92.0045 27.5813 92.2498 27.3627 92.5165 27.064C92.5698 26.9573 92.6445 26.8293 92.7405 26.68C92.8472 26.5307 92.9005 26.456 92.9005 26.456C92.9218 26.392 92.9592 26.328 93.0125 26.264C93.0125 26.264 93.0338 26.232 93.0765 26.168C93.1192 26.104 93.1618 26.0507 93.2045 26.008C93.2685 25.9227 93.3218 25.8747 93.3645 25.864C93.4178 25.8533 93.4445 25.848 93.4445 25.848C93.4552 25.7627 93.4818 25.656 93.5245 25.528C93.5672 25.4 93.6098 25.288 93.6525 25.192C93.7058 25.0853 93.7432 25.0213 93.7645 25C93.8072 24.968 93.8658 24.84 93.9405 24.616C94.0152 24.3813 94.0898 24.1307 94.1645 23.864C94.2392 23.5867 94.2765 23.3627 94.2765 23.192C94.3298 23.1387 94.3672 23.096 94.3885 23.064C94.4205 23.0213 94.4365 23 94.4365 23C94.4578 22.9787 94.4792 22.952 94.5005 22.92C94.5218 22.8773 94.5272 22.8027 94.5165 22.696C94.5165 22.472 94.5272 22.328 94.5485 22.264C94.5698 22.2 94.5805 22.168 94.5805 22.168C94.6232 22.1467 94.6498 22.1307 94.6605 22.12C94.6712 22.0987 94.6658 22.0827 94.6445 22.072C94.5698 22.0187 94.5645 21.96 94.6285 21.896C94.6605 21.864 94.6605 21.784 94.6285 21.656C94.6072 21.528 94.5698 21.3787 94.5165 21.208C94.4632 21.0373 94.4045 20.8773 94.3405 20.728C94.2872 20.5787 94.2445 20.4667 94.2125 20.392C94.1165 20.2747 94.0205 20.1947 93.9245 20.152C93.8285 20.0987 93.6738 20.0933 93.4605 20.136C93.3112 20.0507 93.0818 20.104 92.7725 20.296C92.4632 20.4773 92.1592 20.76 91.8605 21.144C91.8178 21.2827 91.7698 21.3947 91.7165 21.48C91.6632 21.5547 91.6152 21.608 91.5725 21.64C91.5512 21.6827 91.5138 21.7307 91.4605 21.784C91.4178 21.8267 91.3645 21.8693 91.3005 21.912C91.2258 21.9973 91.1565 22.088 91.0925 22.184C91.0285 22.28 90.9752 22.36 90.9325 22.424C90.8258 22.584 90.7032 22.8027 90.5645 23.08C90.4258 23.3573 90.2872 23.6613 90.1485 23.992C90.0098 24.3227 89.8765 24.6533 89.7485 24.984C89.6205 25.3147 89.5085 25.6187 89.4125 25.896C89.3272 26.1627 89.2632 26.3707 89.2205 26.52C89.1458 26.8187 89.1192 27.0373 89.1405 27.176C89.1725 27.3147 89.2525 27.4747 89.3805 27.656C89.4765 27.7627 89.5938 27.8427 89.7325 27.896C89.8712 27.9493 89.9832 27.9813 90.0685 27.992ZM98.0293 30.152C97.5706 29.8533 97.2986 29.5547 97.2133 29.256C97.1386 28.9573 97.2453 28.7173 97.5333 28.536C97.5973 28.4933 97.7199 28.488 97.9013 28.52C98.0933 28.552 98.2373 28.616 98.3333 28.712C98.5466 28.904 98.7866 29.0213 99.0533 29.064C99.3306 29.1173 99.6666 29.0907 100.061 28.984C100.509 28.8453 100.851 28.6747 101.085 28.472C101.331 28.2587 101.603 27.9707 101.901 27.608C102.125 27.32 102.28 27.0373 102.365 26.76C102.461 26.4827 102.504 26.232 102.493 26.008C102.493 25.7733 102.44 25.5973 102.333 25.48C102.067 25.1067 101.736 24.8507 101.341 24.712C100.947 24.5627 100.429 24.5733 99.7893 24.744C99.7146 24.7547 99.6026 24.776 99.4533 24.808C99.3039 24.84 99.1706 24.872 99.0533 24.904C98.9359 24.9253 98.8719 24.936 98.8613 24.936C98.7866 24.9573 98.7279 24.968 98.6853 24.968C98.6426 24.968 98.5893 25.0213 98.5253 25.128C98.4719 25.224 98.3866 25.432 98.2693 25.752C98.1519 26.0613 97.9759 26.5413 97.7413 27.192C97.5173 27.8427 97.3253 28.3067 97.1653 28.584C97.0159 28.8507 96.8826 28.9733 96.7653 28.952C96.6479 28.92 96.5146 28.8027 96.3653 28.6C96.2799 28.4507 96.1839 28.2853 96.0773 28.104C95.9813 27.9227 95.9866 27.736 96.0933 27.544C96.1466 27.448 96.1893 27.3627 96.2213 27.288C96.2533 27.2027 96.2959 27.0587 96.3493 26.856C96.4026 26.696 96.5039 26.4187 96.6533 26.024C96.8133 25.6187 96.9999 25.1493 97.2133 24.616C97.4266 24.072 97.6506 23.512 97.8853 22.936C98.1199 22.36 98.3439 21.816 98.5573 21.304C98.7813 20.792 98.9679 20.36 99.1173 20.008C99.2666 19.6773 99.3573 19.4373 99.3893 19.288C99.4213 19.1387 99.4106 19.0587 99.3573 19.048C99.3573 18.9947 99.3413 18.9467 99.3093 18.904C99.2773 18.8507 99.2666 18.8027 99.2773 18.76C99.2773 18.7173 99.3679 18.6587 99.5493 18.584C99.7413 18.5093 99.9439 18.44 100.157 18.376C100.371 18.312 100.525 18.2907 100.621 18.312C100.675 18.312 100.739 18.312 100.813 18.312C100.888 18.3013 100.925 18.2747 100.925 18.232C100.957 18.232 101.059 18.2213 101.229 18.2C101.4 18.1787 101.587 18.1787 101.789 18.2C102.504 18.264 103.091 18.472 103.549 18.824C104.008 19.1653 104.232 19.7147 104.221 20.472C104.211 20.6533 104.136 20.888 103.997 21.176C103.859 21.464 103.683 21.752 103.469 22.04C103.267 22.328 103.048 22.5787 102.813 22.792C102.675 22.9093 102.525 23.032 102.365 23.16C102.216 23.2773 102.083 23.3787 101.965 23.464C101.859 23.5387 101.805 23.576 101.805 23.576C101.805 23.576 101.848 23.592 101.933 23.624C102.019 23.656 102.109 23.688 102.205 23.72C102.696 23.9013 103.08 24.1307 103.357 24.408C103.645 24.6853 103.848 25.0693 103.965 25.56C104.008 25.72 104.008 25.9173 103.965 26.152C103.933 26.3867 103.885 26.6213 103.821 26.856C103.757 27.08 103.688 27.272 103.613 27.432C103.539 27.5067 103.48 27.5867 103.437 27.672C103.395 27.7467 103.373 27.784 103.373 27.784C103.373 27.8053 103.331 27.8907 103.245 28.04C103.16 28.1787 103.059 28.3333 102.941 28.504C102.824 28.6747 102.712 28.824 102.605 28.952C102.499 29.0373 102.344 29.1547 102.141 29.304C101.949 29.464 101.736 29.6187 101.501 29.768C101.277 29.9173 101.064 30.0293 100.861 30.104C100.563 30.232 100.227 30.3173 99.8533 30.36C99.4906 30.4133 99.1439 30.4187 98.8133 30.376C98.4826 30.344 98.2213 30.2693 98.0293 30.152ZM99.1813 23.512C99.1813 23.512 99.2666 23.496 99.4373 23.464C99.6186 23.4213 99.8159 23.3787 100.029 23.336C100.243 23.2827 100.403 23.2347 100.509 23.192C100.563 23.16 100.637 23.1173 100.733 23.064C100.84 23.0107 100.947 22.9307 101.053 22.824C101.203 22.6853 101.363 22.5307 101.533 22.36C101.704 22.1787 101.869 21.9867 102.029 21.784C102.2 21.5813 102.344 21.3627 102.461 21.128C102.707 20.744 102.84 20.4667 102.861 20.296C102.883 20.1253 102.824 19.9707 102.685 19.832C102.589 19.7147 102.456 19.6293 102.285 19.576C102.115 19.512 101.928 19.48 101.725 19.48C101.533 19.4693 101.347 19.4907 101.165 19.544C101.027 19.5867 100.92 19.64 100.845 19.704C100.771 19.7573 100.733 19.8427 100.733 19.96C100.733 20.056 100.701 20.1573 100.637 20.264C100.584 20.36 100.531 20.4347 100.477 20.488C100.467 20.5627 100.429 20.6373 100.365 20.712C100.312 20.776 100.285 20.808 100.285 20.808C100.285 20.8507 100.216 20.984 100.077 21.208C99.9493 21.4213 99.8106 21.7307 99.6613 22.136C99.4693 22.5947 99.3413 22.9253 99.2773 23.128C99.2133 23.3307 99.1813 23.4587 99.1813 23.512ZM104.414 29.528C104.222 29.4213 104.115 29.304 104.094 29.176C104.083 29.048 104.158 28.824 104.318 28.504C104.478 28.184 104.728 27.688 105.07 27.016C105.326 26.536 105.496 26.1627 105.582 25.896C105.678 25.6187 105.731 25.4213 105.742 25.304C105.752 25.1867 105.758 25.112 105.758 25.08C105.736 24.984 105.747 24.9093 105.789 24.856C105.832 24.792 105.902 24.7387 105.998 24.696C106.051 24.6427 106.174 24.5467 106.366 24.408C106.558 24.2693 106.707 24.104 106.814 23.912C106.91 23.688 107.016 23.4587 107.134 23.224C107.262 22.9893 107.427 22.696 107.63 22.344C107.832 21.9813 108.104 21.512 108.446 20.936C108.659 20.5627 108.91 20.1413 109.198 19.672C109.496 19.2027 109.79 18.776 110.078 18.392C110.195 18.2427 110.318 18.1253 110.446 18.04C110.574 17.9547 110.686 17.912 110.782 17.912C111.016 17.912 111.251 17.976 111.486 18.104C111.72 18.2213 111.928 18.3707 112.11 18.552C112.291 18.7333 112.414 18.904 112.477 19.064C112.531 19.1493 112.552 19.3307 112.542 19.608C112.531 19.8853 112.51 20.2213 112.477 20.616C112.446 21.0107 112.408 21.432 112.366 21.88C112.334 22.3173 112.286 22.8347 112.222 23.432C112.158 24.0293 112.094 24.6533 112.03 25.304C111.976 25.9547 111.934 26.584 111.902 27.192C111.87 27.7893 111.87 28.312 111.902 28.76C111.912 28.856 111.912 28.9467 111.902 29.032C111.891 29.1173 111.885 29.1867 111.885 29.24C111.822 29.304 111.683 29.3307 111.47 29.32C111.256 29.32 111.048 29.288 110.846 29.224C110.643 29.16 110.531 29.08 110.51 28.984C110.478 28.952 110.456 28.9253 110.446 28.904C110.435 28.8827 110.435 28.7813 110.446 28.6C110.456 28.408 110.472 28.0613 110.494 27.56L110.574 25.112L110.366 25.128C110.27 25.128 110.094 25.1387 109.838 25.16C109.592 25.1813 109.32 25.2133 109.022 25.256C108.734 25.288 108.467 25.3253 108.222 25.368C107.976 25.4 107.806 25.432 107.71 25.464C107.614 25.464 107.496 25.528 107.358 25.656C107.23 25.784 107.107 25.9493 106.99 26.152C106.947 26.3013 106.867 26.4613 106.75 26.632C106.643 26.792 106.59 26.8987 106.59 26.952C106.515 27.0053 106.451 27.0693 106.398 27.144C106.355 27.2187 106.334 27.256 106.334 27.256C106.334 27.32 106.286 27.48 106.19 27.736C106.094 27.9813 105.976 28.2587 105.838 28.568C105.699 28.8667 105.555 29.128 105.406 29.352L104.974 29.96L104.414 29.528ZM108.238 24.024C108.238 24.024 108.296 24.0133 108.414 23.992C108.531 23.9707 108.67 23.9493 108.83 23.928C109 23.896 109.15 23.88 109.278 23.88C109.523 23.816 109.726 23.768 109.886 23.736C110.056 23.704 110.195 23.688 110.302 23.688C110.408 23.6773 110.494 23.688 110.558 23.72C110.6 23.7733 110.638 23.8053 110.67 23.816C110.712 23.8267 110.734 23.832 110.734 23.832C110.744 23.8107 110.766 23.6987 110.798 23.496C110.83 23.2933 110.867 23.0427 110.91 22.744C110.952 22.4453 110.995 22.136 111.038 21.816C111.08 21.4853 111.118 21.1813 111.15 20.904C111.182 20.616 111.203 20.392 111.214 20.232C111.224 20.0293 111.219 19.848 111.198 19.688C111.176 19.5173 111.166 19.432 111.166 19.432C111.102 19.432 110.979 19.5493 110.798 19.784C110.627 20.008 110.424 20.312 110.19 20.696C109.966 21.0693 109.742 21.4747 109.518 21.912C109.411 22.1147 109.31 22.2747 109.214 22.392C109.128 22.5093 109.059 22.568 109.006 22.568C108.984 22.5893 108.926 22.6747 108.83 22.824C108.744 22.9627 108.648 23.1227 108.542 23.304C108.446 23.4747 108.36 23.6347 108.286 23.784C108.222 23.9227 108.206 24.0027 108.238 24.024ZM116.249 29.672C116.207 29.7147 116.159 29.7307 116.105 29.72C116.052 29.72 115.967 29.6933 115.849 29.64C115.647 29.5867 115.465 29.4693 115.305 29.288C115.156 29.1067 115.135 28.8987 115.241 28.664C115.284 28.5893 115.337 28.4293 115.401 28.184C115.476 27.928 115.556 27.6347 115.641 27.304C115.727 26.9733 115.812 26.6427 115.897 26.312C115.983 25.9813 116.057 25.6933 116.121 25.448C116.185 25.192 116.228 25.0213 116.249 24.936C116.249 24.8507 116.271 24.68 116.313 24.424C116.367 24.168 116.415 23.88 116.457 23.56C116.575 23.336 116.655 23.0907 116.697 22.824C116.751 22.5573 116.788 22.3653 116.809 22.248C116.852 22.0773 116.9 21.896 116.953 21.704C117.017 21.512 117.071 21.32 117.113 21.128C117.156 20.9573 117.199 20.7813 117.241 20.6C117.295 20.4187 117.321 20.3013 117.321 20.248V19.992H116.729C116.569 20.0027 116.388 20.0027 116.185 19.992C115.983 19.9813 115.759 19.976 115.513 19.976C115.012 19.9547 114.676 19.9067 114.505 19.832C114.345 19.7467 114.255 19.5867 114.233 19.352C114.212 19.224 114.239 19.112 114.313 19.016C114.388 18.9093 114.564 18.824 114.841 18.76C115.119 18.696 115.545 18.6747 116.121 18.696C116.569 18.6747 116.921 18.6747 117.177 18.696C117.433 18.7067 117.583 18.712 117.625 18.712C117.668 18.6693 117.695 18.6267 117.705 18.584C117.716 18.5413 117.732 18.4987 117.753 18.456C117.753 18.4027 117.759 18.344 117.769 18.28C117.791 18.2053 117.844 18.152 117.929 18.12C118.015 17.96 118.175 17.896 118.409 17.928C118.655 17.9493 118.836 18.0453 118.953 18.216C118.996 18.312 119.007 18.4133 118.985 18.52C118.975 18.6267 119.007 18.7227 119.081 18.808C119.124 18.7653 119.236 18.7387 119.417 18.728C119.599 18.7173 119.791 18.7067 119.993 18.696C120.239 18.696 120.457 18.6907 120.649 18.68C120.841 18.6587 120.975 18.648 121.049 18.648C121.145 18.5947 121.268 18.568 121.417 18.568C121.577 18.568 121.737 18.5787 121.897 18.6C122.143 18.6 122.313 18.664 122.409 18.792C122.516 18.9093 122.585 18.9947 122.617 19.048C122.617 19.0907 122.617 19.1333 122.617 19.176C122.628 19.2187 122.655 19.2613 122.697 19.304C122.74 19.3467 122.761 19.3787 122.761 19.4C122.761 19.4107 122.74 19.4587 122.697 19.544C122.655 19.5867 122.58 19.624 122.473 19.656C122.367 19.6773 122.249 19.688 122.121 19.688C122.047 19.688 121.919 19.6987 121.737 19.72C121.556 19.7307 121.401 19.736 121.273 19.736C121.028 19.7787 120.788 19.816 120.553 19.848C120.319 19.8693 120.015 19.8907 119.641 19.912C119.481 19.912 119.332 19.9227 119.193 19.944C119.055 19.9547 118.985 19.9867 118.985 20.04C118.943 20.04 118.884 20.152 118.809 20.376C118.745 20.6 118.681 20.8347 118.617 21.08C118.553 21.3573 118.484 21.5973 118.409 21.8C118.345 22.0027 118.292 22.136 118.249 22.2C118.292 22.2427 118.308 22.296 118.297 22.36C118.297 22.424 118.265 22.536 118.201 22.696C118.159 22.8453 118.116 22.9627 118.073 23.048C118.041 23.1333 118.025 23.2187 118.025 23.304C118.025 23.304 117.999 23.3893 117.945 23.56C117.903 23.72 117.86 23.9227 117.817 24.168C117.796 24.4027 117.764 24.6 117.721 24.76C117.689 24.92 117.652 25.0213 117.609 25.064C117.609 25.064 117.588 25.1013 117.545 25.176C117.503 25.24 117.481 25.3147 117.481 25.4C117.481 25.496 117.46 25.656 117.417 25.88C117.385 26.0933 117.348 26.296 117.305 26.488C117.263 26.68 117.225 26.7867 117.193 26.808C117.3 26.8293 117.284 26.9733 117.145 27.24C117.145 27.3467 117.129 27.4533 117.097 27.56C117.065 27.6667 117.049 27.7413 117.049 27.784C116.985 27.9867 116.895 28.232 116.777 28.52C116.66 28.808 116.548 29.064 116.441 29.288C116.345 29.512 116.281 29.64 116.249 29.672ZM124.146 27.56C124.668 27.4427 125.127 27.2667 125.522 27.032C125.916 26.7973 126.242 26.52 126.498 26.2C126.754 25.88 126.93 25.5493 127.026 25.208C127.132 24.8027 127.122 24.408 126.994 24.024C126.866 23.6293 126.604 23.272 126.21 22.952C125.826 22.632 125.287 22.392 124.594 22.232C124.572 22.296 124.524 22.424 124.45 22.616C124.386 22.7973 124.311 23.0053 124.226 23.24C124.14 23.4747 124.06 23.7093 123.986 23.944C123.911 24.1787 123.847 24.3813 123.794 24.552C123.74 24.712 123.714 24.8133 123.714 24.856C123.714 24.9413 123.698 25.0213 123.666 25.096C123.644 25.16 123.618 25.2293 123.586 25.304C123.522 25.432 123.458 25.64 123.394 25.928C123.33 26.216 123.271 26.5147 123.218 26.824C123.175 27.0373 123.143 27.24 123.122 27.432C123.1 27.624 123.09 27.7733 123.09 27.88C123.292 27.88 123.474 27.8373 123.634 27.752C123.794 27.6667 123.964 27.6027 124.146 27.56ZM125.186 20.68C125.239 20.6907 125.292 20.7173 125.346 20.76C125.399 20.792 125.447 20.8293 125.49 20.872C125.543 20.904 125.596 20.936 125.65 20.968C125.714 20.9893 125.772 21.0107 125.826 21.032C126.103 21.16 126.37 21.3147 126.626 21.496C126.892 21.6667 127.138 21.8587 127.362 22.072C127.596 22.2853 127.799 22.52 127.97 22.776C128.151 23.0213 128.29 23.2827 128.386 23.56C128.492 23.8373 128.562 24.1147 128.594 24.392C128.604 24.4453 128.61 24.504 128.61 24.568C128.61 24.632 128.61 24.6907 128.61 24.744C128.61 24.872 128.599 25 128.578 25.128C128.567 25.256 128.546 25.384 128.514 25.512C128.45 25.7787 128.348 26.0453 128.21 26.312C128.082 26.568 127.911 26.8133 127.698 27.048C127.324 27.4747 126.935 27.8267 126.53 28.104C126.124 28.3813 125.698 28.616 125.25 28.808C124.802 28.9893 124.311 29.1653 123.778 29.336C123.618 29.3787 123.447 29.4107 123.266 29.432C123.095 29.4533 122.924 29.4587 122.754 29.448C122.626 29.4373 122.492 29.4 122.354 29.336C122.226 29.272 122.103 29.192 121.986 29.096C121.847 28.9787 121.73 28.8453 121.634 28.696C121.548 28.5467 121.495 28.4027 121.474 28.264C121.42 27.7307 121.463 27.1653 121.602 26.568C121.74 25.9707 121.884 25.4267 122.034 24.936C122.076 24.7867 122.114 24.6427 122.146 24.504C122.188 24.3653 122.231 24.2267 122.274 24.088C122.38 23.7467 122.498 23.4107 122.626 23.08C122.754 22.7493 122.855 22.4027 122.93 22.04C122.962 21.8907 123.015 21.6987 123.09 21.464C123.175 21.2187 123.271 20.9627 123.378 20.696C123.484 20.4187 123.591 20.1467 123.698 19.88C123.815 19.6027 123.927 19.3467 124.034 19.112C124.14 18.8773 124.231 18.6907 124.306 18.552C124.327 18.424 124.354 18.3013 124.386 18.184C124.428 18.056 124.46 17.928 124.482 17.8C124.535 17.512 124.663 17.336 124.866 17.272C125.068 17.1973 125.276 17.208 125.49 17.304C125.714 17.3893 125.89 17.528 126.018 17.72C126.146 17.912 126.167 18.1253 126.082 18.36C125.943 18.7547 125.815 19.0693 125.698 19.304C125.591 19.528 125.5 19.7413 125.426 19.944C125.383 20.0613 125.346 20.184 125.314 20.312C125.282 20.44 125.239 20.5627 125.186 20.68Z" fill="black"/>
</g>
<defs>
<filter id="filter0_d_100_14639" x="0" y="0" width="144" height="52" filterUnits="userSpaceOnUse" color-interpolation-filters="sRGB">
<feFlood flood-opacity="0" result="BackgroundImageFix"/>
<feColorMatrix in="SourceAlpha" type="matrix" values="0 0 0 0 0 0 0 0 0 0 0 0 0 0 0 0 0 0 127 0" result="hardAlpha"/>
<feOffset dx="4" dy="4"/>
<feComposite in2="hardAlpha" operator="out"/>
<feColorMatrix type="matrix" values="0 0 0 0 0 0 0 0 0 0 0 0 0 0 0 0 0 0 1 0"/>
<feBlend mode="normal" in2="BackgroundImageFix" result="effect1_dropShadow_100_14639"/>
<feBlend mode="normal" in="SourceGraphic" in2="effect1_dropShadow_100_14639" result="shape"/>
</filter>
<clipPath id="clip0_100_14639">
<rect width="24" height="22" fill="white" transform="translate(12 13)"/>
</clipPath>
</defs>
</svg>
