<svg width="89" height="51" viewBox="0 0 89 51" fill="none" xmlns="http://www.w3.org/2000/svg">
<g filter="url(#filter0_d_100_19118)">
<rect width="85" height="47" rx="23.5" fill="#94DEFF" shape-rendering="crispEdges"/>
<path d="M13.9723 29.846C13.8163 29.75 13.6723 29.63 13.5403 29.486C13.4083 29.354 13.3783 29.162 13.4503 28.91C13.4383 28.766 13.4443 28.628 13.4683 28.496C13.5043 28.364 13.5283 28.274 13.5403 28.226C13.6003 28.226 13.6363 28.196 13.6483 28.136C13.6603 28.064 13.6663 28.004 13.6663 27.956C13.6663 27.86 13.7023 27.698 13.7743 27.47C13.8463 27.242 13.9183 27.002 13.9903 26.75C14.0863 26.546 14.1763 26.33 14.2603 26.102C14.3563 25.874 14.4043 25.736 14.4043 25.688C14.4043 25.592 14.4283 25.496 14.4763 25.4C14.5243 25.292 14.5783 25.19 14.6383 25.094C14.6983 24.95 14.7403 24.794 14.7643 24.626C14.8003 24.446 14.8183 24.308 14.8183 24.212C14.8903 24.056 14.9683 23.888 15.0523 23.708C15.1363 23.528 15.2023 23.342 15.2503 23.15C15.3223 22.946 15.4303 22.646 15.5743 22.25C15.7183 21.842 15.8683 21.434 16.0243 21.026C16.1323 20.798 16.2343 20.564 16.3303 20.324C16.4383 20.072 16.5343 19.862 16.6183 19.694C16.7023 19.514 16.7623 19.424 16.7983 19.424C16.7983 19.424 16.7983 19.406 16.7983 19.37C16.7983 19.322 16.7983 19.274 16.7983 19.226C16.7983 19.166 16.8463 19.052 16.9423 18.884C17.0383 18.704 17.1283 18.518 17.2123 18.326C17.3323 18.146 17.4163 17.978 17.4643 17.822C17.5123 17.654 17.5363 17.57 17.5363 17.57C17.5363 17.57 17.5603 17.534 17.6083 17.462C17.6563 17.378 17.7043 17.312 17.7523 17.264C18.0643 17.096 18.3283 17.012 18.5443 17.012C18.7723 17.012 18.9283 17.156 19.0123 17.444C19.1083 17.708 19.1503 17.894 19.1383 18.002C19.1263 18.098 19.0843 18.218 19.0123 18.362C18.9163 18.578 18.7903 18.854 18.6343 19.19C18.4783 19.514 18.3163 19.862 18.1483 20.234C17.9803 20.606 17.8183 20.966 17.6623 21.314C17.5183 21.65 17.3983 21.938 17.3023 22.178C17.2183 22.418 17.1763 22.568 17.1763 22.628L16.4203 24.482C16.3723 24.566 16.2943 24.782 16.1863 25.13C16.0783 25.466 15.9523 25.874 15.8083 26.354C15.6643 26.822 15.5143 27.302 15.3583 27.794C15.2143 28.274 15.0703 28.712 14.9263 29.108C14.8543 29.312 14.7883 29.48 14.7283 29.612C14.6683 29.756 14.6083 29.864 14.5483 29.936C14.4883 30.008 14.4163 30.044 14.3323 30.044C14.2843 30.044 14.2303 30.026 14.1703 29.99C14.1103 29.954 14.0443 29.906 13.9723 29.846ZM20.3443 29.81C20.2363 29.822 20.0863 29.768 19.8943 29.648C19.7143 29.54 19.5163 29.402 19.3003 29.234C19.0963 29.066 18.8983 28.892 18.7063 28.712C18.5263 28.532 18.3823 28.376 18.2743 28.244C18.0823 27.968 17.8363 27.596 17.5363 27.128C17.2483 26.66 17.0323 26.168 16.8883 25.652C16.8043 25.268 16.7143 24.962 16.6183 24.734C16.5343 24.494 16.4923 24.284 16.4923 24.104L16.5103 22.988L17.8243 22.898C17.8843 23.546 17.9803 24.086 18.1123 24.518C18.2443 24.938 18.4003 25.316 18.5803 25.652C18.7243 25.964 18.8803 26.27 19.0483 26.57C19.2283 26.87 19.4263 27.122 19.6423 27.326C19.9183 27.626 20.1643 27.848 20.3803 27.992C20.5963 28.136 20.7583 28.208 20.8663 28.208C21.0943 28.316 21.2623 28.418 21.3703 28.514C21.4783 28.61 21.5503 28.694 21.5863 28.766C21.6223 28.838 21.6343 28.904 21.6223 28.964C21.6343 29 21.6283 29.078 21.6043 29.198C21.5803 29.33 21.5443 29.456 21.4963 29.576C21.4483 29.708 21.3823 29.792 21.2983 29.828C21.2143 29.912 21.1063 29.96 20.9743 29.972C20.8423 29.996 20.6323 29.942 20.3443 29.81ZM16.1683 22.934L17.4823 21.962C17.5183 21.926 17.6203 21.83 17.7883 21.674C17.9683 21.506 18.3103 21.23 18.8143 20.846L21.1903 18.92C21.4903 18.764 21.7663 18.59 22.0183 18.398C22.2703 18.206 22.4803 18.056 22.6483 17.948C22.8523 17.804 23.0623 17.654 23.2783 17.498C23.4943 17.342 23.6263 17.27 23.6743 17.282C23.7703 17.234 23.8843 17.282 24.0163 17.426C24.1483 17.558 24.2563 17.72 24.3403 17.912C24.4363 18.092 24.4783 18.23 24.4663 18.326C24.4903 18.446 24.4723 18.548 24.4123 18.632C24.3523 18.716 24.1963 18.83 23.9443 18.974C23.6443 19.106 23.4043 19.232 23.2243 19.352C23.0563 19.472 22.9603 19.562 22.9363 19.622C22.9363 19.622 22.8103 19.718 22.5583 19.91C22.3063 20.102 22.0063 20.318 21.6583 20.558C21.1783 20.882 20.7823 21.17 20.4703 21.422C20.1703 21.662 19.9723 21.854 19.8763 21.998C19.8283 21.998 19.7803 22.016 19.7323 22.052C19.6963 22.088 19.6543 22.1 19.6063 22.088C19.6063 22.088 19.5583 22.124 19.4623 22.196C19.3663 22.256 19.2943 22.322 19.2463 22.394C19.2223 22.454 19.1683 22.532 19.0843 22.628C19.0123 22.724 18.9223 22.766 18.8143 22.754C18.7303 22.802 18.5803 22.904 18.3643 23.06C18.1483 23.204 17.9203 23.366 17.6803 23.546C17.4523 23.726 17.2543 23.888 17.0863 24.032C16.9183 24.176 16.8283 24.26 16.8163 24.284L16.1683 22.934ZM33.3779 16.634C33.6299 16.694 33.8339 16.85 33.9899 17.102C34.1459 17.354 34.1759 17.636 34.0799 17.948C34.0559 18.056 34.0199 18.158 33.9719 18.254C33.9359 18.35 33.8939 18.446 33.8459 18.542C33.7619 18.698 33.6539 18.938 33.5219 19.262C33.3899 19.586 33.2459 19.928 33.0899 20.288C32.9459 20.636 32.8139 20.948 32.6939 21.224C32.5739 21.5 32.4899 21.674 32.4419 21.746C32.3219 21.998 32.1959 22.244 32.0639 22.484C31.9319 22.724 31.7939 22.964 31.6499 23.204C31.4579 23.564 31.2479 23.918 31.0199 24.266C30.8039 24.614 30.5879 24.956 30.3719 25.292C30.2999 25.412 30.1679 25.604 29.9759 25.868C29.7839 26.132 29.5919 26.39 29.3999 26.642C29.2079 26.894 29.0699 27.068 28.9859 27.164C28.7579 27.5 28.5059 27.812 28.2299 28.1C27.9539 28.388 27.6779 28.67 27.4019 28.946C27.2339 29.126 27.1079 29.258 27.0239 29.342C26.9399 29.438 26.8619 29.522 26.7899 29.594C26.7179 29.678 26.6099 29.786 26.4659 29.918C26.2019 30.254 25.8899 30.308 25.5299 30.08C25.3259 29.948 25.1819 29.804 25.0979 29.648C25.0259 29.504 25.0259 29.342 25.0979 29.162C25.1219 29.114 25.1939 29.024 25.3139 28.892C25.4339 28.748 25.5779 28.586 25.7459 28.406C25.9259 28.214 26.1059 28.034 26.2859 27.866C26.4659 27.686 26.6159 27.542 26.7359 27.434C26.9879 27.146 27.1799 26.924 27.3119 26.768C27.4439 26.612 27.5519 26.48 27.6359 26.372C27.3479 25.988 27.0959 25.568 26.8799 25.112C26.6759 24.644 26.5439 24.284 26.4839 24.032C26.4719 23.96 26.4599 23.888 26.4479 23.816C26.4359 23.744 26.4179 23.672 26.3939 23.6L26.1779 22.448C26.2019 22.316 26.2019 22.214 26.1779 22.142C26.1659 22.058 26.1539 21.956 26.1419 21.836L26.0879 18.65C26.0879 18.71 26.0879 18.686 26.0879 18.578C26.0999 18.47 26.1119 18.326 26.1239 18.146C26.1479 17.954 26.1659 17.762 26.1779 17.57C26.1899 17.366 26.2019 17.198 26.2139 17.066C26.2259 17.018 26.2259 16.922 26.2139 16.778C26.2139 16.634 26.2499 16.496 26.3219 16.364C26.3939 16.232 26.5379 16.166 26.7539 16.166C26.9459 16.13 27.1439 16.184 27.3479 16.328C27.5519 16.472 27.7019 16.646 27.7979 16.85C27.9059 17.054 27.9119 17.24 27.8159 17.408C27.7679 17.492 27.7499 17.588 27.7619 17.696C27.7859 17.804 27.7799 17.948 27.7439 18.128C27.7319 18.224 27.7139 18.404 27.6899 18.668C27.6779 18.92 27.6659 19.214 27.6539 19.55C27.6419 19.874 27.6359 20.186 27.6359 20.486C27.6479 20.774 27.6599 21.002 27.6719 21.17C27.6719 21.086 27.6719 21.098 27.6719 21.206C27.6839 21.302 27.7019 21.446 27.7259 21.638C27.7499 21.83 27.7679 22.028 27.7799 22.232C27.8039 22.436 27.8219 22.604 27.8339 22.736C27.8459 22.856 27.8699 23.024 27.9059 23.24C27.9539 23.444 28.0079 23.666 28.0679 23.906C28.1399 24.146 28.2119 24.386 28.2839 24.626C28.3679 24.854 28.4459 25.058 28.5179 25.238L28.7699 24.914C28.8419 24.818 28.9079 24.734 28.9679 24.662C29.0279 24.578 29.0759 24.494 29.1119 24.41C29.2079 24.17 29.3279 23.954 29.4719 23.762C29.6159 23.57 29.7299 23.378 29.8139 23.186C29.9459 22.946 30.0719 22.73 30.1919 22.538C30.3239 22.346 30.4379 22.154 30.5339 21.962L31.7039 19.748C31.8359 19.328 31.9859 18.884 32.1539 18.416C32.3339 17.936 32.4479 17.48 32.4959 17.048C32.5679 16.772 32.7299 16.634 32.9819 16.634C32.9819 16.634 33.0359 16.634 33.1439 16.634C33.2519 16.622 33.3299 16.622 33.3779 16.634ZM41.9813 29.882C41.9573 29.918 41.8493 29.942 41.6573 29.954C41.4653 29.966 41.2613 29.936 41.0453 29.864C40.8413 29.792 40.6913 29.654 40.5953 29.45C40.4993 29.246 40.5233 28.952 40.6673 28.568C41.0633 27.536 41.4353 26.498 41.7833 25.454C42.1313 24.41 42.4793 23.366 42.8273 22.322C42.9353 21.962 43.0433 21.626 43.1513 21.314C43.2593 20.99 43.3613 20.672 43.4573 20.36C43.5653 20.048 43.6553 19.736 43.7273 19.424C43.7513 19.316 43.7753 19.208 43.7993 19.1C43.8353 18.992 43.8593 18.878 43.8713 18.758C43.8833 18.71 43.8893 18.668 43.8893 18.632C43.8893 18.584 43.8953 18.536 43.9073 18.488C43.7153 18.428 43.4993 18.41 43.2593 18.434C43.0313 18.458 42.8033 18.446 42.5753 18.398C42.3953 18.362 42.1973 18.35 41.9813 18.362C41.7653 18.362 41.5433 18.368 41.3153 18.38C41.0873 18.392 40.8653 18.41 40.6493 18.434C40.4333 18.458 40.2293 18.47 40.0373 18.47C40.0133 18.482 39.9893 18.494 39.9653 18.506C39.9413 18.518 39.9173 18.53 39.8933 18.542C39.7613 18.866 39.6233 19.19 39.4793 19.514C39.3473 19.838 39.2153 20.162 39.0833 20.486C38.9993 20.714 38.8973 20.936 38.7773 21.152C38.6693 21.368 38.5673 21.584 38.4713 21.8C38.4113 21.944 38.3513 22.094 38.2913 22.25C38.2313 22.406 38.1713 22.562 38.1113 22.718C38.0513 22.862 37.9853 23.012 37.9133 23.168C37.7333 23.6 37.5473 24.032 37.3553 24.464C37.1633 24.884 36.9833 25.31 36.8153 25.742C36.6473 26.186 36.4733 26.642 36.2933 27.11C36.1253 27.566 35.9753 28.022 35.8433 28.478C35.8073 28.598 35.7653 28.754 35.7173 28.946C35.6813 29.138 35.6333 29.294 35.5733 29.414C35.4653 29.666 35.2853 29.804 35.0333 29.828C34.7813 29.864 34.5473 29.828 34.3313 29.72C34.0793 29.588 33.9173 29.45 33.8453 29.306C33.7853 29.162 33.7973 28.952 33.8813 28.676C34.0493 28.112 34.2293 27.548 34.4213 26.984C34.6253 26.42 34.8413 25.862 35.0693 25.31C35.3093 24.746 35.5553 24.206 35.8073 23.69C36.0113 23.27 36.1913 22.838 36.3473 22.394C36.5033 21.95 36.6833 21.524 36.8873 21.116C37.0553 20.804 37.2113 20.492 37.3553 20.18C37.4993 19.856 37.6313 19.526 37.7513 19.19C37.7753 19.118 37.7993 19.046 37.8233 18.974C37.8473 18.902 37.8713 18.83 37.8953 18.758C37.8473 18.794 37.7873 18.818 37.7153 18.83C37.6433 18.842 37.5593 18.842 37.4633 18.83C37.3433 18.818 37.2173 18.8 37.0853 18.776C36.9533 18.752 36.8453 18.74 36.7613 18.74C36.5693 18.584 36.4313 18.356 36.3473 18.056C36.2633 17.756 36.2813 17.492 36.4013 17.264C36.5093 17.072 36.6593 16.976 36.8513 16.976H38.2373C38.3693 16.976 38.4713 16.946 38.5433 16.886C38.6153 16.814 38.6993 16.754 38.7953 16.706C38.8913 16.646 39.0413 16.646 39.2453 16.706C39.4493 16.754 39.6353 16.784 39.8033 16.796C39.9713 16.796 40.1513 16.784 40.3433 16.76C40.3913 16.748 40.4393 16.742 40.4873 16.742C40.5353 16.73 40.5833 16.718 40.6313 16.706L42.6293 16.67C42.7493 16.67 42.8573 16.682 42.9533 16.706C43.0493 16.73 43.1513 16.748 43.2593 16.76C43.4513 16.772 43.6913 16.784 43.9793 16.796C44.2673 16.796 44.5493 16.82 44.8253 16.868C45.1013 16.904 45.3173 16.982 45.4733 17.102C45.5693 17.174 45.6653 17.282 45.7613 17.426C45.8693 17.558 45.9233 17.684 45.9233 17.804C45.9233 17.828 45.8993 17.924 45.8513 18.092C45.8153 18.26 45.7613 18.476 45.6893 18.74C45.6173 18.992 45.5393 19.274 45.4553 19.586C45.3713 19.886 45.2813 20.186 45.1853 20.486C45.1013 20.786 45.0233 21.062 44.9513 21.314C44.8793 21.542 44.8193 21.734 44.7713 21.89C44.7233 22.034 44.6873 22.13 44.6633 22.178C44.4833 22.646 44.2973 23.168 44.1053 23.744C43.9253 24.308 43.7453 24.872 43.5653 25.436C43.4813 25.7 43.3973 25.958 43.3133 26.21C43.2413 26.462 43.1633 26.708 43.0793 26.948C43.0073 27.152 42.8993 27.47 42.7553 27.902C42.6233 28.334 42.4853 28.736 42.3413 29.108C42.2813 29.288 42.2213 29.444 42.1613 29.576C42.1013 29.708 42.0413 29.81 41.9813 29.882ZM54.6013 29.756C54.5053 29.936 54.3613 30.02 54.1693 30.008C53.9773 30.008 53.7793 29.942 53.5753 29.81C53.3833 29.69 53.2153 29.546 53.0713 29.378C52.9273 29.21 52.8553 29.054 52.8553 28.91C52.8673 28.826 52.8733 28.748 52.8733 28.676C52.8733 28.604 52.8793 28.526 52.8913 28.442C52.9873 28.19 53.0713 27.932 53.1433 27.668C53.2273 27.392 53.2993 27.116 53.3593 26.84C53.4793 26.372 53.5873 25.898 53.6833 25.418C53.7913 24.938 53.9053 24.476 54.0253 24.032C54.0853 23.78 54.1453 23.54 54.2053 23.312C54.2773 23.084 54.3493 22.844 54.4213 22.592C54.5053 22.34 54.5893 22.064 54.6733 21.764C54.7693 21.452 54.8773 21.098 54.9973 20.702C55.1293 20.306 55.2793 19.844 55.4473 19.316C55.4113 19.364 55.3693 19.412 55.3213 19.46C55.2853 19.508 55.2493 19.562 55.2133 19.622C55.0213 19.862 54.8233 20.108 54.6193 20.36C54.4273 20.612 54.2293 20.87 54.0253 21.134C53.7613 21.47 53.4853 21.818 53.1973 22.178C52.9213 22.526 52.6453 22.88 52.3693 23.24C52.1533 23.516 51.9373 23.792 51.7213 24.068C51.5053 24.344 51.2953 24.62 51.0913 24.896C50.9353 25.112 50.7793 25.322 50.6233 25.526C50.4673 25.73 50.3113 25.934 50.1553 26.138C50.0353 26.306 49.8313 26.558 49.5433 26.894C49.2673 27.23 48.9613 27.584 48.6253 27.956C48.3013 28.328 47.9893 28.67 47.6893 28.982C47.4013 29.282 47.1853 29.48 47.0413 29.576C46.8853 29.684 46.6933 29.732 46.4653 29.72C46.2493 29.72 46.0513 29.666 45.8713 29.558C45.7033 29.45 45.6013 29.288 45.5653 29.072C45.5413 28.892 45.5533 28.652 45.6013 28.352C45.6493 28.04 45.7153 27.692 45.7993 27.308C45.8953 26.912 46.0033 26.504 46.1233 26.084C46.1593 25.964 46.1893 25.85 46.2133 25.742C46.2493 25.622 46.2853 25.508 46.3213 25.4C46.3453 25.328 46.3693 25.256 46.3933 25.184C46.4173 25.1 46.4413 25.022 46.4653 24.95C46.5373 24.722 46.6033 24.506 46.6633 24.302C46.7353 24.086 46.8013 23.882 46.8613 23.69C46.9213 23.51 46.9693 23.348 47.0053 23.204C47.0533 23.048 47.0953 22.91 47.1313 22.79C47.1793 22.658 47.2153 22.544 47.2393 22.448C47.2873 22.316 47.3293 22.184 47.3653 22.052C47.4133 21.908 47.4613 21.764 47.5093 21.62C47.5213 21.584 47.5333 21.548 47.5453 21.512C47.5573 21.476 47.5693 21.446 47.5813 21.422C47.6533 21.206 47.7253 20.99 47.7973 20.774C47.8813 20.558 47.9653 20.342 48.0493 20.126L48.1393 19.91C48.1993 19.766 48.2593 19.628 48.3193 19.496C48.3793 19.352 48.4333 19.214 48.4813 19.082C48.4573 19.01 48.4573 18.938 48.4813 18.866C48.5053 18.782 48.5413 18.716 48.5893 18.668C48.5893 18.644 48.5953 18.602 48.6073 18.542C48.6313 18.482 48.6613 18.41 48.6973 18.326C48.7693 18.17 48.8413 18.002 48.9133 17.822C48.9973 17.642 49.0753 17.474 49.1473 17.318C49.2193 17.162 49.2673 17.054 49.2913 16.994C49.3273 16.862 49.3753 16.748 49.4353 16.652C49.4953 16.556 49.5553 16.478 49.6153 16.418C49.7953 16.25 49.9933 16.178 50.2093 16.202C50.4253 16.214 50.6173 16.298 50.7853 16.454C50.9533 16.61 51.0613 16.808 51.1093 17.048C51.1573 17.288 51.0973 17.552 50.9293 17.84C50.8453 17.984 50.7733 18.14 50.7133 18.308C50.6653 18.464 50.6053 18.62 50.5333 18.776C50.4133 19.064 50.2933 19.358 50.1733 19.658C50.0533 19.946 49.9273 20.246 49.7953 20.558C49.6633 20.894 49.5373 21.236 49.4173 21.584C49.2973 21.92 49.1773 22.256 49.0573 22.592C48.9373 22.928 48.8233 23.264 48.7153 23.6C48.6073 23.924 48.4993 24.248 48.3913 24.572C48.2953 24.896 48.1993 25.208 48.1033 25.508C48.0193 25.808 47.9413 26.102 47.8693 26.39C48.0493 26.174 48.2293 25.958 48.4093 25.742C48.6013 25.526 48.7873 25.31 48.9673 25.094C49.1833 24.854 49.3993 24.608 49.6153 24.356C49.8313 24.104 50.0413 23.846 50.2453 23.582C50.5453 23.174 50.8633 22.748 51.1993 22.304C51.5473 21.848 51.9013 21.392 52.2613 20.936C52.3693 20.804 52.4713 20.672 52.5673 20.54C52.6753 20.408 52.7833 20.276 52.8913 20.144C53.2393 19.712 53.5873 19.286 53.9353 18.866C54.2833 18.434 54.6133 18.032 54.9253 17.66C55.0453 17.504 55.2073 17.324 55.4113 17.12C55.6273 16.916 55.8493 16.724 56.0773 16.544C56.3053 16.352 56.5033 16.22 56.6713 16.148C56.8393 16.064 57.0133 16.052 57.1933 16.112C57.3853 16.172 57.5473 16.268 57.6793 16.4C57.9073 16.628 58.0393 16.886 58.0753 17.174C58.0873 17.234 58.0873 17.3 58.0753 17.372C58.0753 17.432 58.0633 17.492 58.0393 17.552C57.9913 17.672 57.9073 17.876 57.7873 18.164C57.6793 18.44 57.5533 18.758 57.4093 19.118C57.2773 19.466 57.1453 19.808 57.0133 20.144C56.9893 20.216 56.9593 20.288 56.9233 20.36C56.8993 20.432 56.8753 20.498 56.8513 20.558C56.7553 20.81 56.6773 21.032 56.6173 21.224C56.5573 21.416 56.5273 21.548 56.5273 21.62C56.5273 21.668 56.4913 21.83 56.4193 22.106C56.3713 22.298 56.3053 22.538 56.2213 22.826C56.1493 23.114 56.0653 23.414 55.9693 23.726C55.8613 24.134 55.7473 24.542 55.6273 24.95C55.5193 25.346 55.4233 25.694 55.3393 25.994C55.2553 26.294 55.1953 26.492 55.1593 26.588C55.0273 27.104 54.9193 27.632 54.8353 28.172C54.7513 28.7 54.6733 29.228 54.6013 29.756ZM60.1585 29.702C59.9425 29.774 59.7445 29.786 59.5645 29.738C59.3845 29.69 59.2465 29.558 59.1505 29.342C59.0665 29.138 59.0425 28.838 59.0785 28.442C59.1265 28.034 59.2645 27.518 59.4925 26.894C59.5285 26.786 59.6005 26.57 59.7085 26.246C59.8285 25.91 59.9605 25.538 60.1045 25.13C60.2485 24.722 60.3865 24.344 60.5185 23.996C60.6625 23.648 60.7765 23.408 60.8605 23.276C60.9085 23.168 60.9325 23.078 60.9325 23.006C60.9445 22.934 60.9505 22.874 60.9505 22.826C60.9505 22.766 60.9745 22.688 61.0225 22.592C61.0825 22.484 61.1365 22.376 61.1845 22.268C61.2445 22.148 61.2925 22.04 61.3285 21.944C61.3765 21.836 61.4005 21.746 61.4005 21.674C61.4005 21.674 61.4305 21.572 61.4905 21.368C61.5505 21.152 61.6285 20.906 61.7245 20.63C61.8205 20.354 61.9285 20.126 62.0485 19.946C62.1565 19.67 62.2465 19.478 62.3185 19.37C62.4025 19.25 62.4445 19.154 62.4445 19.082C62.4445 19.058 62.3185 19.046 62.0665 19.046C61.8265 19.046 61.5385 19.058 61.2025 19.082C60.8665 19.094 60.5425 19.112 60.2305 19.136C59.9305 19.16 59.7145 19.19 59.5825 19.226C59.4745 19.25 59.3785 19.274 59.2945 19.298C59.2105 19.31 59.1565 19.31 59.1325 19.298C59.0845 19.274 59.0065 19.184 58.8985 19.028C58.8025 18.86 58.7305 18.68 58.6825 18.488C58.6465 18.296 58.6945 18.164 58.8265 18.092C59.0425 17.96 59.2585 17.876 59.4745 17.84C59.7025 17.804 59.9425 17.78 60.1945 17.768C60.4465 17.756 60.7225 17.732 61.0225 17.696C61.2985 17.696 61.5385 17.684 61.7425 17.66C61.9465 17.624 62.0725 17.606 62.1205 17.606C62.2405 17.606 62.3845 17.582 62.5525 17.534C62.7325 17.486 62.9365 17.462 63.1645 17.462C63.3205 17.462 63.4765 17.45 63.6325 17.426C63.7885 17.39 63.9265 17.372 64.0465 17.372C64.1065 17.372 64.2505 17.372 64.4785 17.372C64.7065 17.372 64.9345 17.372 65.1625 17.372C65.3305 17.372 65.5585 17.348 65.8465 17.3C66.1345 17.252 66.3685 17.204 66.5485 17.156C67.1005 17.036 67.5565 17.018 67.9165 17.102C68.2765 17.186 68.4985 17.39 68.5825 17.714C68.6305 17.978 68.4565 18.206 68.0605 18.398C67.6645 18.59 66.9325 18.716 65.8645 18.776C65.3485 18.824 64.9945 18.86 64.8025 18.884C64.6105 18.908 64.5145 18.974 64.5145 19.082C64.5145 19.154 64.4845 19.22 64.4245 19.28C64.3765 19.328 64.3285 19.382 64.2805 19.442C64.2325 19.466 64.1605 19.568 64.0645 19.748C63.9685 19.916 63.8725 20.12 63.7765 20.36C63.6925 20.588 63.6145 20.798 63.5425 20.99C63.4825 21.182 63.4525 21.308 63.4525 21.368C63.4525 21.368 63.4285 21.41 63.3805 21.494C63.3445 21.566 63.3265 21.626 63.3265 21.674C63.2785 21.794 63.2125 21.932 63.1285 22.088C63.0565 22.244 62.9905 22.382 62.9305 22.502C62.7505 22.982 62.6005 23.366 62.4805 23.654C62.3725 23.942 62.2825 24.17 62.2105 24.338C62.1505 24.494 62.0965 24.632 62.0485 24.752C62.0005 24.908 61.9225 25.172 61.8145 25.544C61.7065 25.916 61.5925 26.246 61.4725 26.534C61.4125 26.618 61.3585 26.678 61.3105 26.714C61.2745 26.738 61.2565 26.798 61.2565 26.894C61.2565 26.906 61.2205 27.014 61.1485 27.218C61.0885 27.41 61.0045 27.644 60.8965 27.92C60.7885 28.196 60.6805 28.472 60.5725 28.748C60.4765 29.012 60.3865 29.234 60.3025 29.414C60.2305 29.606 60.1825 29.702 60.1585 29.702ZM69.8789 29.45C69.6029 29.558 69.2789 29.612 68.9069 29.612C68.5349 29.612 68.1809 29.558 67.8449 29.45C67.5209 29.354 67.2689 29.21 67.0889 29.018C66.9329 28.826 66.7769 28.646 66.6209 28.478C66.4769 28.31 66.4289 28.112 66.4769 27.884C66.5369 27.74 66.5849 27.584 66.6209 27.416C66.6689 27.248 66.7169 27.098 66.7649 26.966C66.8729 26.666 66.9809 26.366 67.0889 26.066C67.2089 25.766 67.3229 25.466 67.4309 25.166C67.5509 24.854 67.6649 24.548 67.7729 24.248C67.8929 23.936 68.0069 23.63 68.1149 23.33C68.2229 23.03 68.3309 22.736 68.4389 22.448C68.5469 22.16 68.6489 21.878 68.7449 21.602C68.7809 21.518 68.8409 21.356 68.9249 21.116C69.0209 20.876 69.1289 20.606 69.2489 20.306C69.3689 20.006 69.4829 19.712 69.5909 19.424C69.7109 19.124 69.8129 18.872 69.8969 18.668C69.9809 18.452 70.0349 18.32 70.0589 18.272C70.1669 18.02 70.2569 17.768 70.3289 17.516C70.4129 17.252 70.5449 17.006 70.7249 16.778C70.7849 16.682 70.8689 16.616 70.9769 16.58C71.0969 16.532 71.2169 16.52 71.3369 16.544C71.6609 16.604 71.8769 16.694 71.9849 16.814C72.0929 16.922 72.1889 17.096 72.2729 17.336C72.2249 17.576 72.1649 17.774 72.0929 17.93C72.0329 18.086 71.9189 18.302 71.7509 18.578C71.7269 18.662 71.6969 18.746 71.6609 18.83C71.6249 18.914 71.6009 18.962 71.5889 18.974C71.4689 19.202 71.3489 19.454 71.2289 19.73C71.1089 19.994 70.9829 20.3 70.8509 20.648C70.9469 20.66 71.0369 20.684 71.1209 20.72C71.2169 20.744 71.3189 20.774 71.4269 20.81C71.7389 20.93 72.0089 21.038 72.2369 21.134C72.4649 21.23 72.7289 21.434 73.0289 21.746C73.2809 21.986 73.4669 22.256 73.5869 22.556C73.7069 22.844 73.7849 23.114 73.8209 23.366C73.8689 23.606 73.9109 23.798 73.9469 23.942C73.9589 24.206 73.9529 24.47 73.9289 24.734C73.9169 24.986 73.8509 25.25 73.7309 25.526C73.4549 26.186 73.1369 26.756 72.7769 27.236C72.4289 27.704 72.0029 28.13 71.4989 28.514C71.2229 28.742 70.9289 28.946 70.6169 29.126C70.3049 29.306 70.0589 29.414 69.8789 29.45ZM69.0509 28.1C69.1829 28.088 69.3089 28.046 69.4289 27.974C69.5489 27.89 69.6869 27.788 69.8429 27.668C70.0709 27.524 70.3049 27.344 70.5449 27.128C70.7969 26.9 71.0189 26.678 71.2109 26.462C71.4149 26.246 71.5589 26.084 71.6429 25.976C71.8949 25.58 72.0749 25.238 72.1829 24.95C72.3029 24.662 72.3629 24.374 72.3629 24.086C72.3629 23.798 72.3149 23.462 72.2189 23.078C72.1589 22.862 72.0209 22.694 71.8049 22.574C71.6609 22.478 71.5109 22.406 71.3549 22.358C71.1989 22.298 71.0429 22.25 70.8869 22.214C70.8149 22.19 70.7309 22.166 70.6349 22.142C70.5389 22.118 70.4429 22.064 70.3469 21.98C70.2989 22.064 70.2389 22.19 70.1669 22.358C70.1069 22.526 70.0409 22.7 69.9689 22.88C69.9089 23.06 69.8489 23.228 69.7889 23.384C69.7409 23.528 69.6989 23.636 69.6629 23.708C69.6269 23.78 69.5729 23.918 69.5009 24.122C69.4289 24.314 69.3449 24.542 69.2489 24.806C69.1529 25.058 69.0629 25.298 68.9789 25.526C68.9069 25.754 68.8469 25.934 68.7989 26.066C68.7989 26.066 68.7689 26.144 68.7089 26.3C68.6609 26.444 68.6009 26.612 68.5289 26.804C68.4689 26.996 68.4089 27.17 68.3489 27.326C68.2889 27.482 68.2469 27.572 68.2229 27.596C68.2229 27.644 68.2229 27.692 68.2229 27.74C68.2229 27.776 68.2229 27.818 68.2229 27.866C68.4029 27.95 68.5589 28.016 68.6909 28.064C68.8229 28.1 68.9429 28.112 69.0509 28.1Z" fill="black"/>
</g>
<defs>
<filter id="filter0_d_100_19118" x="0" y="0" width="89" height="51" filterUnits="userSpaceOnUse" color-interpolation-filters="sRGB">
<feFlood flood-opacity="0" result="BackgroundImageFix"/>
<feColorMatrix in="SourceAlpha" type="matrix" values="0 0 0 0 0 0 0 0 0 0 0 0 0 0 0 0 0 0 127 0" result="hardAlpha"/>
<feOffset dx="4" dy="4"/>
<feComposite in2="hardAlpha" operator="out"/>
<feColorMatrix type="matrix" values="0 0 0 0 0 0 0 0 0 0 0 0 0 0 0 0 0 0 1 0"/>
<feBlend mode="normal" in2="BackgroundImageFix" result="effect1_dropShadow_100_19118"/>
<feBlend mode="normal" in="SourceGraphic" in2="effect1_dropShadow_100_19118" result="shape"/>
</filter>
</defs>
</svg>
