<svg width="151" height="52" viewBox="0 0 151 52" fill="none" xmlns="http://www.w3.org/2000/svg">
<g filter="url(#filter0_d_100_14638)">
<rect width="147" height="48" rx="24" fill="#94DEFF" shape-rendering="crispEdges"/>
<path fill-rule="evenodd" clip-rule="evenodd" d="M24.885 13.0249C25.3404 12.9215 25.8067 13.1471 26.0084 13.5683C26.1848 13.937 26.6173 14.5223 27.2915 15.2779C27.946 16.0115 28.7662 16.8381 29.647 17.6781C31.4077 19.3571 33.3697 21.051 34.6362 22.0952C35.0574 22.4426 35.1222 23.0636 34.7817 23.4904C34.4225 23.9406 33.81 24.6461 33.1154 25.331C32.4375 25.9996 31.6093 26.7211 30.8246 27.131C30.6024 27.247 30.2239 27.5178 29.7149 27.9395C29.223 28.3471 28.6606 28.852 28.0839 29.3918C26.9313 30.4708 25.7519 31.6608 25.0202 32.425C24.7177 32.741 24.2449 32.8236 23.8531 32.6291C23.4613 32.4345 23.2414 32.0078 23.3104 31.5759L23.95 27.5673C23.3739 27.6999 22.4695 28.0394 21.1615 28.7984C18.4011 30.4 16.4303 32.6802 15.8254 33.5646C15.5779 33.9265 15.1235 34.085 14.7046 33.9555C14.2857 33.8259 14 33.4386 14 33.0001C14 32.4965 14.1733 30.3982 14.8177 25.6868C15.1997 22.8939 17.1101 21.0513 19.1487 19.9051C20.8143 18.9686 22.6585 18.4385 24.1064 18.1939V14.0001C24.1064 13.5331 24.4296 13.1283 24.885 13.0249ZM24.608 27.5057C24.6078 27.5059 24.6039 27.5051 24.5968 27.503C24.6047 27.5044 24.6083 27.5055 24.608 27.5057ZM26.1064 16.948V19.0668C26.1064 19.5807 25.7168 20.011 25.2054 20.0619C23.8952 20.1922 21.8726 20.668 20.1289 21.6484C18.3878 22.6274 17.0641 24.0218 16.7993 25.9578C16.5675 27.6526 16.3993 28.9915 16.2789 30.0281C17.3018 29.0394 18.6183 27.9618 20.1577 27.0685C21.6683 26.192 22.8193 25.7497 23.6801 25.5801C24.1107 25.4952 24.4983 25.4727 24.8366 25.5168C25.1495 25.5577 25.5386 25.6723 25.8287 25.9752C26.0451 26.2012 26.1432 26.5154 26.0939 26.8243L25.7735 28.832C26.0835 28.5311 26.401 28.2276 26.7171 27.9317C27.3095 27.3773 27.9042 26.8425 28.4389 26.3994C28.9566 25.9706 29.4742 25.5799 29.8988 25.3581C30.4077 25.0924 31.0618 24.5473 31.7111 23.907C32.0279 23.5946 32.3264 23.2768 32.585 22.9878C31.342 21.9375 29.739 20.5294 28.2668 19.1255C27.4927 18.3873 26.7474 17.6432 26.1064 16.948Z" fill="black"/>
<path d="M42.4011 29.624C42.0917 29.6027 41.8677 29.5333 41.7291 29.416C41.5904 29.3093 41.5211 29.1333 41.5211 28.888C41.5851 28.664 41.6491 28.4773 41.7131 28.328C41.7877 28.1787 41.8357 28.0347 41.8571 27.896C41.8891 27.768 41.9211 27.6453 41.9531 27.528C41.9851 27.4107 42.0277 27.2667 42.0811 27.096C42.1664 26.84 42.2624 26.5253 42.3691 26.152C42.4864 25.7787 42.6091 25.4053 42.7371 25.032C42.8651 24.648 42.9771 24.3333 43.0731 24.088C43.1584 23.8427 43.2277 23.6347 43.2811 23.464C43.3451 23.2933 43.4091 23.128 43.4731 22.968C43.5371 22.808 43.6064 22.6213 43.6811 22.408C43.6811 22.408 43.7077 22.328 43.7611 22.168C43.8251 21.9973 43.8891 21.8053 43.9531 21.592C44.0277 21.368 44.0917 21.1707 44.1451 21C44.2091 20.8293 44.2411 20.744 44.2411 20.744C44.3584 20.4987 44.4597 20.2693 44.5451 20.056C44.6411 19.832 44.7211 19.5973 44.7851 19.352C44.7317 19.2667 44.6944 19.1707 44.6731 19.064C44.6624 18.9573 44.6677 18.8613 44.6891 18.776C44.7317 18.6267 44.8117 18.5093 44.9291 18.424C45.0464 18.3387 45.2011 18.3173 45.3931 18.36C45.5424 18.392 45.7397 18.4187 45.9851 18.44C46.2411 18.4613 46.4704 18.472 46.6731 18.472C46.8864 18.472 46.9931 18.472 46.9931 18.472C47.0571 18.44 47.2437 18.3973 47.5531 18.344C47.8624 18.2907 48.2357 18.232 48.6731 18.168C49.1104 18.104 49.5531 18.0453 50.0011 17.992C50.4597 17.9387 50.8651 17.8907 51.2171 17.848C51.3451 17.8267 51.4731 17.8267 51.6011 17.848C51.7397 17.8693 51.8624 17.8907 51.9691 17.912C52.2037 17.9547 52.3957 18.0773 52.5451 18.28C52.7051 18.4827 52.7584 18.696 52.7051 18.92C52.6411 19.112 52.5557 19.2187 52.4491 19.24C52.3531 19.2613 52.1771 19.208 51.9211 19.08C51.8251 19.2293 51.7717 19.32 51.7611 19.352C51.7504 19.384 51.7397 19.432 51.7291 19.496C51.7291 19.56 51.6757 19.7093 51.5691 19.944C51.5264 20.008 51.4624 20.136 51.3771 20.328C51.3024 20.52 51.2224 20.7387 51.1371 20.984C51.0624 21.2187 50.9984 21.4373 50.9451 21.64C50.8917 21.8427 50.8651 21.9867 50.8651 22.072C50.8544 22.0827 50.8064 22.232 50.7211 22.52C50.6464 22.808 50.5504 23.1653 50.4331 23.592C50.3371 23.912 50.2357 24.248 50.1291 24.6C50.0331 24.952 49.9371 25.2987 49.8411 25.64C49.7451 25.9707 49.6597 26.2693 49.5851 26.536C49.5104 26.8027 49.4517 27.0107 49.4091 27.16C49.3664 27.2987 49.3451 27.3573 49.3451 27.336C49.3344 27.5707 49.3077 27.7947 49.2651 28.008C49.2331 28.2213 49.2117 28.4347 49.2011 28.648C49.2331 28.744 49.2277 28.824 49.1851 28.888C49.1531 28.952 49.1157 28.9893 49.0731 29C48.9344 29.1173 48.7371 29.176 48.4811 29.176C48.2251 29.176 48.0437 29.1067 47.9371 28.968C47.8624 28.8187 47.8091 28.696 47.7771 28.6C47.7451 28.504 47.7344 28.4133 47.7451 28.328C47.7664 28.0187 47.8037 27.7147 47.8571 27.416C47.9104 27.1067 47.9584 26.8133 48.0011 26.536C48.0651 26.2267 48.1344 25.9547 48.2091 25.72C48.2837 25.4747 48.3317 25.368 48.3531 25.4L48.6731 24.248C48.7691 23.9813 48.8331 23.7573 48.8651 23.576C48.8971 23.384 48.9344 23.1867 48.9771 22.984C49.0304 22.7813 49.1104 22.5253 49.2171 22.216C49.3237 21.96 49.4091 21.6987 49.4731 21.432C49.5477 21.1653 49.6171 20.8987 49.6811 20.632C49.7237 20.4933 49.7771 20.328 49.8411 20.136C49.9051 19.9333 49.9691 19.7573 50.0331 19.608C50.0971 19.448 50.1397 19.368 50.1611 19.368C49.9157 19.3893 49.7131 19.416 49.5531 19.448C49.4037 19.48 49.2437 19.512 49.0731 19.544C48.9131 19.5653 48.6837 19.5973 48.3851 19.64C48.2357 19.6507 48.0491 19.6773 47.8251 19.72C47.6117 19.752 47.3931 19.784 47.1691 19.816C46.9451 19.848 46.7584 19.8747 46.6091 19.896C46.5451 19.9067 46.4864 19.9173 46.4331 19.928C46.3904 19.928 46.3584 19.928 46.3371 19.928C46.2944 20.0453 46.2037 20.2587 46.0651 20.568C45.9264 20.8773 45.7771 21.2187 45.6171 21.592C45.4571 21.9653 45.3131 22.3013 45.1851 22.6C45.1317 22.7387 45.0784 22.8827 45.0251 23.032C44.9717 23.1707 44.9131 23.3093 44.8491 23.448C44.7957 23.5867 44.7424 23.7307 44.6891 23.88C44.6357 24.0187 44.5824 24.1627 44.5291 24.312C44.4757 24.4507 44.4224 24.5893 44.3691 24.728C44.2624 25.0693 44.1664 25.3733 44.0811 25.64C44.0064 25.9067 43.9317 26.1413 43.8571 26.344C43.7931 26.5467 43.7344 26.728 43.6811 26.888C43.6277 27.048 43.5744 27.1973 43.5211 27.336C43.4571 27.5387 43.3931 27.736 43.3291 27.928C43.2757 28.1093 43.2224 28.3333 43.1691 28.6C43.1584 28.696 43.1424 28.792 43.1211 28.888C43.0997 28.9733 43.0784 29.064 43.0571 29.16C42.9824 29.32 42.8971 29.4373 42.8011 29.512C42.7157 29.5973 42.5824 29.6347 42.4011 29.624ZM52.9373 29.56C52.5426 29.272 52.228 29.0053 51.9933 28.76C51.7693 28.504 51.6466 28.2587 51.6253 28.024C51.604 27.832 51.604 27.5707 51.6253 27.24C51.6573 26.9093 51.6946 26.584 51.7373 26.264C51.78 25.944 51.8173 25.704 51.8493 25.544C51.9026 25.4907 51.924 25.4213 51.9133 25.336C51.9133 25.24 51.9133 25.192 51.9133 25.192C51.9026 25.1387 51.94 25 52.0253 24.776C52.1106 24.5413 52.1906 24.2427 52.2653 23.88C52.4786 23.24 52.6813 22.7067 52.8733 22.28C53.076 21.8427 53.2733 21.4693 53.4653 21.16C53.6573 20.8507 53.8493 20.568 54.0413 20.312C54.4786 19.864 54.8893 19.5067 55.2733 19.24C55.668 18.9733 56.0306 18.7653 56.3613 18.616C56.5746 18.488 56.772 18.3867 56.9533 18.312C57.1346 18.2373 57.284 18.2267 57.4013 18.28C57.9986 18.408 58.5053 18.6693 58.9213 19.064C59.3373 19.4587 59.6146 20.0293 59.7533 20.776C59.828 21.2453 59.8706 21.672 59.8813 22.056C59.9026 22.4293 59.876 22.8027 59.8013 23.176C59.7266 23.5387 59.588 23.9387 59.3853 24.376C59.1933 24.8133 58.9213 25.3253 58.5693 25.912C58.132 26.776 57.652 27.5013 57.1293 28.088C56.6173 28.664 56.1 29.1013 55.5773 29.4C55.0653 29.6987 54.5746 29.8587 54.1053 29.88C53.6466 29.912 53.2573 29.8053 52.9373 29.56ZM54.2173 28.504C54.4626 28.472 54.66 28.424 54.8093 28.36C54.9693 28.296 55.1346 28.1733 55.3053 27.992C55.476 27.8107 55.716 27.544 56.0253 27.192C56.3026 26.872 56.532 26.6 56.7133 26.376C56.9053 26.152 57.0653 25.9227 57.1933 25.688C57.332 25.4533 57.46 25.176 57.5773 24.856C57.7053 24.5253 57.844 24.104 57.9933 23.592C58.0786 23.272 58.1373 23.0373 58.1693 22.888C58.212 22.728 58.2386 22.5947 58.2493 22.488C58.26 22.3813 58.26 22.2373 58.2493 22.056C58.2493 21.864 58.2493 21.576 58.2493 21.192C58.2386 21.0107 58.2013 20.808 58.1373 20.584C58.0733 20.3493 57.9986 20.184 57.9133 20.088C57.8066 19.9707 57.6466 19.8693 57.4333 19.784C57.22 19.6987 56.996 19.7093 56.7613 19.816C56.6333 19.8693 56.4733 19.9813 56.2813 20.152C56.0893 20.312 55.892 20.504 55.6893 20.728C55.4866 20.952 55.2946 21.176 55.1133 21.4C54.932 21.624 54.788 21.8267 54.6813 22.008C54.5746 22.1893 54.5213 22.3173 54.5213 22.392C54.5213 22.392 54.516 22.4187 54.5053 22.472C54.5053 22.5253 54.484 22.5787 54.4413 22.632C54.3026 22.7813 54.1586 23.0267 54.0093 23.368C53.86 23.7093 53.7213 24.0987 53.5933 24.536C53.4653 24.9733 53.3586 25.4107 53.2733 25.848C53.188 26.2853 53.1346 26.68 53.1133 27.032C53.1133 27.2027 53.1133 27.3467 53.1133 27.464C53.1133 27.5813 53.124 27.688 53.1453 27.784C53.1773 27.8693 53.2253 27.9653 53.2893 28.072C53.3533 28.1787 53.4813 28.2853 53.6733 28.392C53.876 28.4987 54.0573 28.536 54.2173 28.504ZM66.6474 19.032C66.4981 19.4373 66.3274 19.848 66.1354 20.264C65.9434 20.6693 65.7781 21.0747 65.6394 21.48C65.4901 21.9387 65.3354 22.392 65.1754 22.84C65.0154 23.2773 64.8501 23.704 64.6794 24.12C64.5088 24.536 64.3328 24.9413 64.1514 25.336C63.9808 25.72 63.7994 26.0987 63.6074 26.472C63.4261 26.8347 63.2341 27.1867 63.0314 27.528C63.0741 27.528 63.1114 27.528 63.1434 27.528C63.1861 27.528 63.2288 27.528 63.2714 27.528C63.3141 27.528 63.3514 27.528 63.3834 27.528C63.4261 27.528 63.4688 27.528 63.5114 27.528C63.5541 27.528 63.5914 27.528 63.6234 27.528C63.7728 27.5067 63.9061 27.4907 64.0234 27.48C64.1514 27.4693 64.2581 27.464 64.3434 27.464C64.4288 27.4533 64.5088 27.448 64.5834 27.448C64.6581 27.448 64.7274 27.4427 64.7914 27.432C64.9514 27.4 65.1114 27.3733 65.2714 27.352C65.4421 27.3307 65.6074 27.3093 65.7674 27.288C65.9381 27.256 66.1088 27.2293 66.2794 27.208C66.4608 27.176 66.6421 27.144 66.8234 27.112C66.8234 26.9733 66.8501 26.8293 66.9034 26.68C66.9568 26.52 67.0154 26.3547 67.0794 26.184C67.1434 26.0027 67.1808 25.8213 67.1914 25.64C67.3194 25.3627 67.4208 25.0747 67.4954 24.776C67.5808 24.4773 67.6768 24.184 67.7834 23.896C67.8048 23.7147 67.8688 23.5173 67.9754 23.304C68.0928 23.08 68.1941 22.8667 68.2794 22.664C68.3861 22.3973 68.4821 22.1307 68.5674 21.864C68.6528 21.5973 68.7434 21.3307 68.8394 21.064C68.9248 20.8187 69.0101 20.5787 69.0954 20.344C69.1914 20.1093 69.2768 19.8693 69.3514 19.624C69.3728 19.5387 69.3941 19.4587 69.4154 19.384C69.4474 19.2987 69.4688 19.2133 69.4794 19.128C69.4261 19.1067 69.3674 19.096 69.3034 19.096C69.2394 19.0853 69.1701 19.0747 69.0954 19.064C68.9354 19.032 68.7648 19.0107 68.5834 19C68.4128 18.9787 68.2421 18.9627 68.0714 18.952C67.9008 18.9307 67.7408 18.9147 67.5914 18.904C67.4528 18.9467 67.3034 18.9733 67.1434 18.984C66.9941 18.9947 66.8288 19.0107 66.6474 19.032ZM68.2954 27.064C68.4448 27.0747 68.6154 27.0853 68.8074 27.096C69.0101 27.096 69.2181 27.1067 69.4314 27.128C69.6554 27.1493 69.8581 27.192 70.0394 27.256C70.2208 27.3093 70.3701 27.4 70.4874 27.528C70.6048 27.6453 70.6634 27.8107 70.6634 28.024C70.6634 28.2373 70.5941 28.456 70.4554 28.68C70.3168 28.904 70.1674 29.1333 70.0074 29.368C69.8474 29.6027 69.7354 29.832 69.6714 30.056C69.6608 30.12 69.6394 30.184 69.6074 30.248C69.5754 30.312 69.5274 30.3867 69.4634 30.472C69.2608 30.6747 69.0794 31.0907 68.9194 31.72C68.7168 31.8587 68.5301 31.9013 68.3594 31.848C68.1888 31.7947 68.0448 31.6827 67.9274 31.512C67.8101 31.352 67.7301 31.1653 67.6874 30.952C67.6554 30.7387 67.6714 30.5467 67.7354 30.376C67.7888 30.2373 67.8528 30.0987 67.9274 29.96C68.0021 29.832 68.0768 29.6987 68.1514 29.56C68.2368 29.432 68.3221 29.2987 68.4074 29.16C68.4928 29.032 68.5674 28.8987 68.6314 28.76L68.3594 28.664C68.2421 28.6213 68.1248 28.5947 68.0074 28.584C67.9008 28.5627 67.8208 28.552 67.7674 28.552C67.7354 28.5413 67.6608 28.5413 67.5434 28.552C67.4261 28.552 67.2768 28.5627 67.0954 28.584C66.9248 28.5947 66.7381 28.616 66.5354 28.648C66.3328 28.6693 66.1301 28.696 65.9274 28.728C65.7248 28.7493 65.5274 28.7707 65.3354 28.792C65.1541 28.8133 64.9941 28.8347 64.8554 28.856C64.7274 28.8773 64.6314 28.8933 64.5674 28.904C64.4714 28.9147 64.3701 28.9253 64.2634 28.936C64.1568 28.936 64.0501 28.936 63.9434 28.936C63.8368 28.936 63.7301 28.9413 63.6234 28.952C63.4528 28.952 63.2448 28.968 62.9994 29C62.7648 29.032 62.5194 29.0693 62.2634 29.112C62.0074 29.1547 61.7621 29.2027 61.5274 29.256C61.2928 29.3093 61.0848 29.3627 60.9034 29.416C60.8501 29.544 60.7968 29.688 60.7434 29.848C60.6901 30.008 60.6421 30.168 60.5994 30.328C60.5674 30.488 60.5408 30.6427 60.5194 30.792C60.4981 31.0053 60.4928 31.1547 60.5034 31.24C60.5248 31.336 60.4981 31.4907 60.4234 31.704C60.3274 31.7467 60.2314 31.784 60.1354 31.816C60.0501 31.8587 59.9594 31.9067 59.8634 31.96C59.6821 31.9493 59.4954 31.8427 59.3034 31.64C59.1114 31.4373 59.0154 31.24 59.0154 31.048C59.0154 30.6747 59.0794 30.3067 59.2074 29.944C59.3354 29.592 59.3994 29.2293 59.3994 28.856C59.3994 28.7707 59.4101 28.6907 59.4314 28.616C59.4634 28.5307 59.5168 28.4453 59.5914 28.36C59.7834 28.1253 59.9594 27.992 60.1194 27.96C60.2901 27.928 60.4448 27.9227 60.5834 27.944C60.7328 27.9653 60.8661 27.944 60.9834 27.88C61.1434 27.7733 61.3354 27.5493 61.5594 27.208C61.7834 26.8667 62.0181 26.4507 62.2634 25.96C62.5194 25.4587 62.7754 24.9253 63.0314 24.36C63.2874 23.784 63.5328 23.2133 63.7674 22.648C64.0128 22.072 64.2314 21.5387 64.4234 21.048C64.4768 20.8987 64.5354 20.7493 64.5994 20.6C64.6634 20.4507 64.7168 20.312 64.7594 20.184C64.8234 20.0133 64.8768 19.8587 64.9194 19.72C64.9728 19.5813 65.0208 19.464 65.0634 19.368L64.9994 19.304C64.9034 19.336 64.8074 19.368 64.7114 19.4C64.6261 19.4213 64.5354 19.448 64.4394 19.48C64.1941 19.5653 63.9968 19.544 63.8474 19.416C63.6981 19.288 63.5968 19.1173 63.5434 18.904C63.4901 18.68 63.4848 18.472 63.5274 18.28C63.7088 18.1627 63.9221 18.0667 64.1674 17.992C64.4128 17.9173 64.6688 17.8587 64.9354 17.816C65.2128 17.7733 65.4634 17.736 65.6874 17.704C65.7408 17.5973 65.7994 17.5013 65.8634 17.416C65.9274 17.3307 65.9968 17.256 66.0714 17.192C66.1674 17.2347 66.2581 17.272 66.3434 17.304C66.4394 17.3253 66.5354 17.3467 66.6314 17.368C66.6528 17.4 66.6741 17.4373 66.6954 17.48C66.7274 17.512 66.7541 17.544 66.7754 17.576C66.9248 17.608 67.0634 17.6187 67.1914 17.608C67.3194 17.5867 67.4528 17.576 67.5914 17.576C67.7194 17.576 67.8848 17.592 68.0874 17.624C68.3008 17.6453 68.5194 17.6773 68.7434 17.72C68.9674 17.752 69.1754 17.7733 69.3674 17.784C69.5701 17.7947 69.7301 17.784 69.8474 17.752C70.0608 17.6987 70.2314 17.688 70.3594 17.72C70.4981 17.752 70.6368 17.8587 70.7754 18.04L71.0474 18.424C71.1114 18.6587 71.1114 18.8773 71.0474 19.08C70.9834 19.2827 70.9088 19.496 70.8234 19.72C70.8021 19.784 70.7754 19.848 70.7434 19.912C70.7221 19.976 70.7008 20.04 70.6794 20.104L70.6314 20.216C70.6101 20.3547 70.5674 20.4933 70.5034 20.632C70.4501 20.7707 70.3968 20.9093 70.3434 21.048C70.1941 21.4747 70.0394 21.896 69.8794 22.312C69.7301 22.728 69.5808 23.1493 69.4314 23.576C69.2288 24.152 69.0314 24.728 68.8394 25.304C68.6474 25.88 68.4661 26.4667 68.2954 27.064ZM76.0717 29.8C75.645 29.8 75.261 29.7733 74.9197 29.72C74.589 29.6773 74.285 29.5493 74.0077 29.336C73.677 29.0907 73.4424 28.7387 73.3037 28.28C73.1757 27.8107 73.213 27.1973 73.4157 26.44C73.469 26.1733 73.5277 25.9387 73.5917 25.736C73.6664 25.5333 73.7304 25.432 73.7837 25.432C73.7944 25.3787 73.8104 25.304 73.8317 25.208C73.853 25.1013 73.8744 24.9787 73.8957 24.84C73.949 24.648 73.9864 24.5093 74.0077 24.424C74.029 24.328 74.0717 24.248 74.1357 24.184C74.1677 24.1627 74.205 24.0933 74.2477 23.976C74.2904 23.848 74.317 23.7733 74.3277 23.752C74.3277 23.752 74.333 23.7147 74.3437 23.64C74.3544 23.5547 74.381 23.4587 74.4237 23.352C74.5837 23.0853 74.6637 22.9093 74.6637 22.824C74.685 22.7813 74.7277 22.7173 74.7917 22.632C74.8664 22.5467 74.925 22.4347 74.9677 22.296C75.2877 21.7307 75.549 21.2667 75.7517 20.904C75.9544 20.5307 76.077 20.2427 76.1197 20.04C76.173 19.9227 76.221 19.784 76.2637 19.624C76.317 19.4533 76.381 19.3253 76.4557 19.24C76.4344 19.1867 76.493 19.128 76.6317 19.064C76.781 19 76.973 18.9307 77.2077 18.856C77.4424 18.7813 77.693 18.7173 77.9597 18.664C78.2264 18.6107 78.4717 18.5787 78.6957 18.568C78.7597 18.5253 78.8984 18.4933 79.1117 18.472C79.3357 18.4507 79.5917 18.44 79.8797 18.44C80.1677 18.44 80.4344 18.4507 80.6797 18.472C80.9144 18.472 81.101 18.504 81.2397 18.568C81.3784 18.632 81.517 18.696 81.6557 18.76C81.709 18.8133 81.7837 18.888 81.8797 18.984C81.9757 19.08 82.0344 19.1813 82.0557 19.288C82.0877 19.3947 82.0184 19.4907 81.8477 19.576C81.8157 19.608 81.6397 19.6347 81.3197 19.656C80.9997 19.6773 80.6637 19.688 80.3117 19.688C79.917 19.688 79.5757 19.72 79.2877 19.784C78.9997 19.848 78.797 19.88 78.6797 19.88C78.5304 19.9227 78.3544 19.9493 78.1517 19.96C77.949 19.9707 77.8477 19.976 77.8477 19.976C77.8264 19.976 77.773 20.04 77.6877 20.168C77.6024 20.2853 77.5064 20.4293 77.3997 20.6C77.3037 20.76 77.213 20.9093 77.1277 21.048C77.053 21.1867 77.0157 21.272 77.0157 21.304C77.0157 21.4107 76.973 21.528 76.8877 21.656C76.8024 21.784 76.701 21.9333 76.5837 22.104C76.477 22.2427 76.4077 22.392 76.3757 22.552C76.3437 22.7013 76.3757 22.7973 76.4717 22.84C76.6424 22.808 76.877 22.776 77.1757 22.744C77.485 22.712 77.789 22.6853 78.0877 22.664C78.3864 22.632 78.6157 22.616 78.7757 22.616C78.957 22.5627 79.1064 22.552 79.2237 22.584C79.341 22.616 79.4264 22.648 79.4797 22.68C79.6077 22.7013 79.6824 22.7653 79.7037 22.872C79.7357 22.9787 79.7357 23.0853 79.7037 23.192C79.6717 23.2987 79.6184 23.368 79.5437 23.4C79.4797 23.464 79.3197 23.5387 79.0637 23.624C78.8077 23.7093 78.5037 23.7947 78.1517 23.88C77.8104 23.9653 77.4637 24.0453 77.1117 24.12C76.7704 24.184 76.4717 24.2373 76.2157 24.28C75.9704 24.3227 75.8264 24.3387 75.7837 24.328C75.7197 24.1787 75.645 24.184 75.5597 24.344C75.485 24.4933 75.3944 24.8027 75.2877 25.272C75.1704 25.5387 75.0797 25.7413 75.0157 25.88C74.9624 26.008 74.9197 26.152 74.8877 26.312C74.8557 26.4613 74.8077 26.7013 74.7437 27.032C74.669 27.32 74.6744 27.5813 74.7597 27.816C74.8557 28.04 75.0744 28.232 75.4157 28.392C75.629 28.4347 75.8744 28.4507 76.1517 28.44C76.429 28.4293 76.797 28.3653 77.2557 28.248C77.4477 28.1307 77.6397 28.024 77.8317 27.928C78.0237 27.8213 78.157 27.7467 78.2317 27.704C78.285 27.704 78.365 27.6827 78.4717 27.64C78.589 27.5867 78.669 27.56 78.7117 27.56C78.797 27.4427 78.9037 27.384 79.0317 27.384C79.053 27.384 79.1117 27.432 79.2077 27.528C79.3144 27.624 79.4157 27.7467 79.5117 27.896C79.6077 28.0453 79.6557 28.2 79.6557 28.36C79.6557 28.4667 79.4744 28.6053 79.1117 28.776C78.7597 28.9467 78.317 29.1387 77.7837 29.352C77.517 29.4693 77.2984 29.56 77.1277 29.624C76.9677 29.688 76.813 29.7307 76.6637 29.752C76.5144 29.784 76.317 29.8 76.0717 29.8ZM90.2399 19.448C90.0053 19.4587 89.7706 19.48 89.5359 19.512C89.3119 19.5333 89.0933 19.5653 88.8799 19.608C88.8586 19.6187 88.8373 19.6347 88.8159 19.656C88.7946 19.6667 88.7733 19.6827 88.7519 19.704C88.5279 20.344 88.2559 20.9733 87.9359 21.592C87.6266 22.2 87.3439 22.824 87.0879 23.464C86.6933 24.4133 86.2239 25.3253 85.6799 26.2C85.1359 27.0747 84.5386 27.9067 83.8879 28.696C83.8026 28.8027 83.6799 28.936 83.5199 29.096C83.3599 29.2667 83.1946 29.4213 83.0239 29.56C82.8639 29.7093 82.7146 29.8107 82.5759 29.864C82.3946 29.928 82.2079 29.9227 82.0159 29.848C81.8239 29.7733 81.6586 29.656 81.5199 29.496C81.3813 29.336 81.3013 29.1653 81.2799 28.984C81.3333 28.8347 81.4133 28.7067 81.5199 28.6C81.6373 28.4933 81.7813 28.44 81.9519 28.44C82.0053 28.44 82.1013 28.3707 82.2399 28.232C82.3786 28.0933 82.5386 27.9173 82.7199 27.704C82.9013 27.4907 83.0826 27.272 83.2639 27.048C83.4453 26.824 83.6053 26.6213 83.7439 26.44C83.8826 26.2587 83.9733 26.136 84.0159 26.072C84.1439 25.8907 84.2613 25.6987 84.3679 25.496C84.4746 25.2933 84.5866 25.096 84.7039 24.904C84.8213 24.7013 84.9546 24.5253 85.1039 24.376C85.1253 24.2907 85.1466 24.216 85.1679 24.152C85.1893 24.0773 85.2213 24.0027 85.2639 23.928L85.2959 23.864C85.3493 23.7573 85.4239 23.6027 85.5199 23.4C85.6159 23.1867 85.7173 22.968 85.8239 22.744C85.9306 22.5093 86.0266 22.312 86.1119 22.152C86.1653 22.0667 86.2079 21.992 86.2399 21.928C86.2826 21.864 86.3199 21.8267 86.3519 21.816C86.4373 21.5067 86.5333 21.2133 86.6399 20.936C86.7573 20.6587 86.8853 20.376 87.0239 20.088C86.8213 20.1733 86.6293 20.2693 86.4479 20.376C86.2773 20.472 86.1066 20.5627 85.9359 20.648C85.7653 20.7227 85.5786 20.7707 85.3759 20.792C85.1839 20.8133 84.9599 20.7867 84.7039 20.712C84.5333 20.328 84.4746 20.0293 84.5279 19.816C84.5813 19.592 84.7039 19.4107 84.8959 19.272C85.0773 19.1547 85.2906 19.0587 85.5359 18.984C85.7813 18.8987 86.0213 18.8187 86.2559 18.744L86.7839 18.568L86.9119 18.52L87.0559 18.472C87.2693 18.3973 87.4879 18.3333 87.7119 18.28C87.9466 18.2267 88.1653 18.152 88.3679 18.056C88.4533 18.056 88.5919 18.0507 88.7839 18.04C88.9866 18.0187 89.1839 17.992 89.3759 17.96C89.5786 17.928 89.7119 17.896 89.7759 17.864C89.8933 17.864 90.0426 17.88 90.2239 17.912C90.4159 17.9333 90.5973 17.976 90.7679 18.04C90.9386 18.104 91.0559 18.1893 91.1199 18.296C91.1626 18.3387 91.2053 18.3813 91.2479 18.424C91.3013 18.4667 91.3439 18.5147 91.3759 18.568L91.7119 18.824C91.7439 18.952 91.7759 19.08 91.8079 19.208C91.8506 19.336 91.8773 19.464 91.8879 19.592C91.8986 19.6773 91.8826 19.8373 91.8399 20.072C91.8079 20.3067 91.7599 20.5627 91.6959 20.84C91.6319 21.1173 91.5679 21.3733 91.5039 21.608C91.4506 21.832 91.4079 21.9867 91.3759 22.072C91.2906 22.3813 91.2266 22.6907 91.1839 23C91.1413 23.3093 91.0613 23.6133 90.9439 23.912C90.9119 23.9973 90.8799 24.088 90.8479 24.184C90.8266 24.2693 90.8053 24.36 90.7839 24.456C90.6346 25.2027 90.4213 25.9173 90.1439 26.6C89.8773 27.2827 89.6533 27.9867 89.4719 28.712C89.3973 28.808 89.3386 28.9147 89.2959 29.032C89.2639 29.1493 89.2053 29.256 89.1199 29.352C88.9279 29.544 88.7306 29.6347 88.5279 29.624C88.3359 29.624 88.1599 29.544 87.9999 29.384C87.8399 29.2347 87.7279 29.048 87.6639 28.824C87.8026 28.5573 87.9253 28.2853 88.0319 28.008C88.1493 27.72 88.2613 27.432 88.3679 27.144C88.4746 26.856 88.5706 26.5733 88.6559 26.296C88.7519 25.9973 88.8266 25.6987 88.8799 25.4C88.9333 25.1013 89.0239 24.808 89.1519 24.52C89.2053 24.3387 89.2479 24.152 89.2799 23.96C89.3119 23.7573 89.3493 23.5653 89.3919 23.384C89.5413 22.7653 89.6906 22.1627 89.8399 21.576C89.9999 20.9787 90.1226 20.3707 90.2079 19.752C90.2186 19.6987 90.2239 19.6507 90.2239 19.608C90.2239 19.5547 90.2293 19.5013 90.2399 19.448ZM94.2711 29.864C94.1217 30.0027 93.9084 30.04 93.6311 29.976C93.3644 29.912 93.1457 29.7733 92.9751 29.56C92.9004 29.4533 92.8471 29.3307 92.8151 29.192C92.7831 29.0533 92.7884 28.8987 92.8311 28.728L94.8471 22.152C94.9644 21.7573 95.0764 21.4 95.1831 21.08C95.2897 20.76 95.3857 20.44 95.4711 20.12C95.5351 19.8747 95.5937 19.624 95.6471 19.368C95.7004 19.112 95.7484 18.8347 95.7911 18.536C95.9191 18.344 96.0737 18.2533 96.2551 18.264C96.4471 18.2747 96.6284 18.3493 96.7991 18.488C96.9804 18.616 97.1191 18.776 97.2151 18.968C97.3111 19.16 97.3324 19.3467 97.2791 19.528C97.1937 19.9227 97.0817 20.312 96.9431 20.696C96.8044 21.08 96.6711 21.4587 96.5431 21.832C96.3724 22.344 96.1751 22.92 95.9511 23.56C95.7377 24.2 95.5244 24.8507 95.3111 25.512C95.2684 25.672 95.2204 25.832 95.1671 25.992C95.1244 26.152 95.0764 26.3067 95.0231 26.456L94.9751 26.584C95.2951 26.136 95.5777 25.752 95.8231 25.432C96.0684 25.1013 96.3084 24.7867 96.5431 24.488C97.0977 23.7733 97.6844 23.0907 98.3031 22.44C98.9324 21.7787 99.5831 21.144 100.255 20.536C100.33 20.472 100.447 20.3493 100.607 20.168C100.778 19.976 100.954 19.7733 101.135 19.56C101.327 19.336 101.498 19.1333 101.647 18.952C101.807 18.7707 101.914 18.648 101.967 18.584C102.074 18.456 102.175 18.3387 102.271 18.232C102.367 18.1253 102.506 18.0773 102.687 18.088C102.858 18.088 103.028 18.1627 103.199 18.312C103.37 18.4507 103.503 18.6213 103.599 18.824C103.695 19.016 103.711 19.1973 103.647 19.368C103.316 20.2853 103.034 21.0693 102.799 21.72C102.575 22.3707 102.378 22.9413 102.207 23.432C102.047 23.912 101.892 24.376 101.743 24.824C101.604 25.2187 101.46 25.624 101.311 26.04C101.162 26.4453 101.055 26.856 100.991 27.272C100.927 27.6453 100.863 28.024 100.799 28.408C100.746 28.792 100.66 29.1707 100.543 29.544C100.479 29.7787 100.346 29.896 100.143 29.896C99.9404 29.896 99.7377 29.832 99.5351 29.704C99.3431 29.576 99.2044 29.4427 99.1191 29.304C99.0764 29.2293 99.0497 29.1547 99.0391 29.08C99.0391 29.016 99.0444 28.9573 99.0551 28.904C99.1404 28.4987 99.2311 28.0933 99.3271 27.688C99.4231 27.2827 99.5244 26.8827 99.6311 26.488C99.7057 26.2213 99.8017 25.9227 99.9191 25.592C100.036 25.2613 100.164 24.936 100.303 24.616C100.442 24.2853 100.57 23.9973 100.687 23.752C100.783 23.5387 100.858 23.3147 100.911 23.08C100.964 22.8453 101.044 22.6213 101.151 22.408C101.268 22.184 101.364 21.9493 101.439 21.704C101.514 21.4587 101.572 21.1707 101.615 20.84L101.631 20.696C101.492 20.9627 101.343 21.1867 101.183 21.368C101.034 21.5387 100.884 21.704 100.735 21.864C100.618 21.992 100.495 22.12 100.367 22.248C100.25 22.3653 100.132 22.4827 100.015 22.6C99.8977 22.7173 99.7484 22.872 99.5671 23.064C99.3964 23.256 99.2257 23.448 99.0551 23.64C98.8844 23.8213 98.7351 23.976 98.6071 24.104C98.0951 24.6587 97.6044 25.2293 97.1351 25.816C96.6657 26.392 96.1964 26.9787 95.7271 27.576C95.5457 27.8107 95.3857 28.0453 95.2471 28.28C95.1191 28.5147 95.0071 28.7707 94.9111 29.048C94.8471 29.2293 94.7511 29.3787 94.6231 29.496C94.5057 29.624 94.3884 29.7467 94.2711 29.864ZM105.217 29.848C105.025 29.8587 104.865 29.768 104.737 29.576C104.609 29.384 104.55 29.224 104.561 29.096C104.571 28.9253 104.619 28.68 104.705 28.36C104.79 28.04 104.886 27.7147 104.993 27.384C105.099 27.0533 105.195 26.792 105.281 26.6C105.323 26.4293 105.361 26.28 105.393 26.152C105.435 26.0133 105.462 25.9227 105.473 25.88C105.505 25.8373 105.553 25.7253 105.617 25.544C105.691 25.3627 105.75 25.1867 105.793 25.016C105.814 24.9307 105.857 24.7707 105.921 24.536C105.995 24.2907 106.081 24.008 106.177 23.688C106.283 23.368 106.385 23.0533 106.481 22.744C106.587 22.4347 106.678 22.1627 106.753 21.928C106.827 21.6933 106.875 21.5387 106.897 21.464C106.982 21.336 107.046 21.2133 107.089 21.096C107.131 20.9787 107.158 20.8987 107.169 20.856C107.233 20.8133 107.27 20.76 107.281 20.696C107.291 20.6213 107.297 20.5627 107.297 20.52C107.297 20.4667 107.313 20.424 107.345 20.392C107.387 20.36 107.409 20.3227 107.409 20.28C107.451 20.248 107.478 20.2427 107.489 20.264C107.499 20.2853 107.531 20.2693 107.585 20.216L107.665 19.672L109.089 19.656C109.067 19.784 109.035 19.944 108.993 20.136C108.95 20.3173 108.849 20.5627 108.689 20.872C108.635 21.0853 108.571 21.2773 108.497 21.448C108.433 21.6187 108.406 21.7307 108.417 21.784C108.395 21.8053 108.347 21.912 108.273 22.104C108.209 22.296 108.129 22.5307 108.033 22.808C107.947 23.0853 107.857 23.3627 107.761 23.64C107.675 23.9173 107.595 24.1627 107.521 24.376C107.457 24.5787 107.414 24.7067 107.393 24.76C107.307 24.9307 107.211 25.1813 107.105 25.512C106.998 25.8427 106.838 26.2907 106.625 26.856C106.539 27.0267 106.433 27.2827 106.305 27.624C106.187 27.9653 106.091 28.2747 106.017 28.552C105.899 28.968 105.793 29.2667 105.697 29.448C105.611 29.6293 105.531 29.736 105.457 29.768C105.382 29.8107 105.302 29.8373 105.217 29.848ZM105.361 20.44C104.923 20.4827 104.625 20.4293 104.465 20.28C104.315 20.1307 104.262 19.9707 104.305 19.8C104.337 19.672 104.411 19.5653 104.529 19.48C104.657 19.384 104.886 19.304 105.217 19.24C105.334 19.2187 105.483 19.192 105.665 19.16C105.857 19.128 106.038 19.096 106.209 19.064C106.561 19.0213 106.849 18.984 107.073 18.952C107.307 18.92 107.547 18.8933 107.793 18.872C108.038 18.8507 108.347 18.8293 108.721 18.808C109.03 18.7867 109.291 18.7707 109.505 18.76C109.729 18.7387 109.841 18.728 109.841 18.728C109.873 18.728 109.985 18.7387 110.177 18.76C110.369 18.7813 110.577 18.808 110.801 18.84C111.025 18.872 111.19 18.9093 111.297 18.952C111.542 19.0053 111.739 19.1013 111.889 19.24C112.038 19.3787 112.134 19.5387 112.177 19.72C112.209 19.848 112.209 19.9493 112.177 20.024C112.145 20.088 112.086 20.1413 112.001 20.184C111.755 20.2587 111.553 20.3227 111.393 20.376C111.243 20.4187 111.094 20.4133 110.945 20.36C110.891 20.3067 110.827 20.2587 110.753 20.216C110.689 20.1733 110.571 20.1413 110.401 20.12C110.241 20.088 109.985 20.0613 109.633 20.04C109.334 20.072 109.073 20.088 108.849 20.088C108.625 20.088 108.513 20.1147 108.513 20.168L107.569 20.216L106.785 20.296C106.678 20.3067 106.529 20.3227 106.337 20.344C106.145 20.3547 105.958 20.3707 105.777 20.392C105.595 20.4027 105.457 20.4187 105.361 20.44ZM113.073 30.232C112.806 30.2427 112.545 30.2267 112.289 30.184C112.033 30.1413 111.804 30.0667 111.601 29.96C111.558 29.9387 111.473 29.8747 111.345 29.768C111.217 29.672 111.094 29.5653 110.977 29.448C110.87 29.3413 110.806 29.2667 110.785 29.224C110.732 29.096 110.732 28.8613 110.785 28.52C110.849 28.1787 110.94 27.784 111.057 27.336C111.185 26.888 111.318 26.4347 111.457 25.976C111.606 25.5173 111.74 25.1013 111.857 24.728C111.985 24.3547 112.07 24.072 112.113 23.88C112.166 23.8267 112.225 23.72 112.289 23.56C112.364 23.4 112.438 23.2133 112.513 23C112.598 22.776 112.684 22.536 112.769 22.28C112.865 22.024 112.956 21.768 113.041 21.512C113.148 21.2027 113.249 20.92 113.345 20.664C113.441 20.3973 113.526 20.1947 113.601 20.056C113.782 19.7147 113.942 19.368 114.081 19.016C114.23 18.664 114.385 18.3173 114.545 17.976C114.641 17.7733 114.79 17.656 114.993 17.624C115.206 17.592 115.414 17.6187 115.617 17.704C115.82 17.7787 115.958 17.9013 116.033 18.072C116.108 18.2213 116.124 18.3867 116.081 18.568C116.049 18.7387 115.996 18.8933 115.921 19.032C115.644 19.5547 115.372 20.0773 115.105 20.6C114.838 21.1227 114.614 21.6667 114.433 22.232C114.486 22.2747 114.545 22.3067 114.609 22.328C114.684 22.3493 114.753 22.3707 114.817 22.392C115.382 22.616 115.873 22.9467 116.289 23.384C116.705 23.8107 116.998 24.2907 117.169 24.824C117.34 25.368 117.361 25.896 117.233 26.408C117.116 26.92 116.902 27.4 116.593 27.848C116.284 28.2853 115.916 28.68 115.489 29.032C115.062 29.3947 114.63 29.6987 114.193 29.944C114.044 30.0293 113.873 30.0933 113.681 30.136C113.489 30.1893 113.286 30.2213 113.073 30.232ZM113.489 28.52C113.702 28.4133 113.91 28.28 114.113 28.12C114.326 27.96 114.524 27.784 114.705 27.592C114.897 27.4 115.068 27.2027 115.217 27C115.366 26.8187 115.484 26.6373 115.569 26.456C115.665 26.2747 115.724 26.1147 115.745 25.976C115.766 25.8907 115.772 25.8107 115.761 25.736C115.761 25.6507 115.772 25.5707 115.793 25.496C115.75 25.3573 115.729 25.2133 115.729 25.064C115.729 24.9147 115.697 24.7813 115.633 24.664C115.59 24.5787 115.51 24.4827 115.393 24.376C115.286 24.2693 115.158 24.168 115.009 24.072C114.881 23.976 114.748 23.8907 114.609 23.816C114.481 23.7413 114.353 23.6773 114.225 23.624C114.108 23.56 114.001 23.5227 113.905 23.512C113.734 23.9707 113.537 24.5093 113.313 25.128C113.1 25.7467 112.913 26.3547 112.753 26.952C112.678 27.208 112.614 27.4587 112.561 27.704C112.518 27.9493 112.481 28.184 112.449 28.408C112.438 28.4507 112.428 28.4933 112.417 28.536C112.417 28.5787 112.417 28.6213 112.417 28.664C112.566 28.7173 112.732 28.7333 112.913 28.712C113.094 28.68 113.286 28.616 113.489 28.52ZM121.218 30.104C120.759 30.0827 120.375 30.0187 120.066 29.912C119.757 29.8053 119.405 29.6187 119.01 29.352C118.967 29.2773 118.914 29.1547 118.85 28.984C118.786 28.8027 118.722 28.6107 118.658 28.408C118.594 28.2053 118.541 28.0293 118.498 27.88C118.466 27.72 118.455 27.624 118.466 27.592C118.509 27.5387 118.53 27.4747 118.53 27.4C118.53 27.3147 118.525 27.2507 118.514 27.208C118.471 27.048 118.503 26.7653 118.61 26.36C118.717 25.9547 118.882 25.448 119.106 24.84C119.341 24.232 119.618 23.56 119.938 22.824C120.141 22.3867 120.413 21.912 120.754 21.4C121.095 20.888 121.463 20.3973 121.858 19.928C122.263 19.448 122.658 19.0373 123.042 18.696C123.426 18.344 123.751 18.1093 124.018 17.992C124.199 17.9173 124.365 17.88 124.514 17.88C124.663 17.8693 124.818 17.8747 124.978 17.896C125.266 17.9387 125.538 18.04 125.794 18.2C126.05 18.3493 126.263 18.5573 126.434 18.824C126.615 19.1013 126.733 19.4107 126.786 19.752C126.839 20.0933 126.855 20.424 126.834 20.744C126.813 21.064 126.77 21.3307 126.706 21.544C126.642 21.7147 126.578 21.8427 126.514 21.928C126.45 22.0027 126.354 22.0507 126.226 22.072C126.183 22.0827 126.061 22.0613 125.858 22.008C125.666 21.944 125.511 21.88 125.394 21.816C125.266 21.7307 125.181 21.6453 125.138 21.56C125.106 21.464 125.09 21.416 125.09 21.416C125.09 21.416 125.095 21.352 125.106 21.224C125.127 21.0853 125.159 20.952 125.202 20.824C125.351 20.3333 125.405 19.9813 125.362 19.768C125.319 19.5547 125.175 19.4053 124.93 19.32C124.695 19.3093 124.407 19.4533 124.066 19.752C123.725 20.0507 123.389 20.392 123.058 20.776C122.578 21.3627 122.167 21.9387 121.826 22.504C121.485 23.0693 121.181 23.6827 120.914 24.344C120.679 25.0267 120.493 25.6027 120.354 26.072C120.226 26.5307 120.141 26.8987 120.098 27.176C120.119 27.3147 120.13 27.432 120.13 27.528C120.141 27.6133 120.125 27.656 120.082 27.656C120.103 27.784 120.146 27.9333 120.21 28.104C120.274 28.2747 120.407 28.4347 120.61 28.584C120.653 28.6267 120.717 28.664 120.802 28.696C120.887 28.7173 120.983 28.7227 121.09 28.712C121.261 28.7013 121.437 28.6747 121.618 28.632C121.81 28.5893 121.981 28.5413 122.13 28.488C122.29 28.424 122.402 28.3653 122.466 28.312C122.466 28.312 122.514 28.3067 122.61 28.296C122.706 28.2747 122.823 28.232 122.962 28.168C123.058 28.1147 123.181 28.056 123.33 27.992C123.479 27.928 123.645 27.8587 123.826 27.784C124.146 27.6347 124.413 27.56 124.626 27.56C124.85 27.56 125.031 27.5813 125.17 27.624C125.17 27.624 125.154 27.6987 125.122 27.848C125.101 27.9973 125.069 28.1307 125.026 28.248C124.973 28.3227 124.903 28.4133 124.818 28.52C124.743 28.616 124.642 28.712 124.514 28.808C124.386 28.904 124.226 28.9947 124.034 29.08C123.981 29.0907 123.895 29.1227 123.778 29.176C123.661 29.24 123.533 29.3147 123.394 29.4C123.095 29.5813 122.77 29.736 122.418 29.864C122.077 29.992 121.677 30.072 121.218 30.104ZM135.355 22.232C135.312 22.36 135.269 22.488 135.227 22.616C135.195 22.744 135.163 22.872 135.131 23C135.099 23.1173 135.061 23.24 135.019 23.368C134.987 23.496 134.949 23.624 134.907 23.752C134.875 23.88 134.837 24.008 134.795 24.136C134.763 24.1893 134.731 24.248 134.699 24.312C134.667 24.3653 134.635 24.4187 134.603 24.472C134.56 24.6533 134.517 24.84 134.475 25.032C134.443 25.224 134.405 25.416 134.363 25.608C134.32 25.7893 134.277 25.976 134.235 26.168C134.171 26.424 134.107 26.696 134.043 26.984C133.979 27.272 133.92 27.5493 133.867 27.816C133.813 28.0827 133.765 28.3067 133.723 28.488C133.691 28.6693 133.675 28.7813 133.675 28.824C133.675 28.9307 133.669 29.0107 133.659 29.064C133.648 29.1173 133.643 29.1867 133.643 29.272C133.589 29.4 133.552 29.496 133.531 29.56C133.509 29.624 133.504 29.672 133.515 29.704C133.515 29.9813 133.456 30.1627 133.339 30.248C133.232 30.3333 133.008 30.376 132.667 30.376C132.464 30.2587 132.304 30.1467 132.187 30.04C132.08 29.9333 132 29.7947 131.947 29.624C131.968 29.3787 132.005 29.1333 132.059 28.888C132.112 28.632 132.139 28.456 132.139 28.36C132.16 28.2107 132.181 28.0613 132.203 27.912C132.224 27.7627 132.245 27.6133 132.267 27.464C132.288 27.3147 132.309 27.1653 132.331 27.016C132.384 26.9627 132.437 26.9093 132.491 26.856C132.544 26.792 132.576 26.7227 132.587 26.648L132.763 25.752C132.763 25.752 132.779 25.688 132.811 25.56C132.853 25.4213 132.896 25.2667 132.939 25.096C132.981 24.9147 133.019 24.76 133.051 24.632C133.083 24.4933 133.099 24.424 133.099 24.424C133.077 24.4453 133.051 24.472 133.019 24.504C132.997 24.536 132.976 24.5627 132.955 24.584C132.933 24.6267 132.907 24.6747 132.875 24.728C132.843 24.7707 132.811 24.8133 132.779 24.856C132.608 25.1227 132.427 25.3627 132.235 25.576C132.043 25.7893 131.893 25.9867 131.787 26.168C131.733 26.2427 131.605 26.3867 131.403 26.6C131.2 26.8027 130.955 27.0427 130.667 27.32C130.389 27.5867 130.107 27.8587 129.819 28.136C129.531 28.4133 129.269 28.664 129.035 28.888C128.8 29.1013 128.629 29.256 128.523 29.352C128.331 29.5547 128.165 29.672 128.027 29.704C127.888 29.7467 127.68 29.7787 127.403 29.8C127.2 29.6293 127.056 29.48 126.971 29.352C126.896 29.224 126.853 29.1227 126.843 29.048C126.832 28.9733 126.827 28.936 126.827 28.936C126.869 28.7973 126.896 28.7067 126.907 28.664C126.917 28.6107 126.939 28.5733 126.971 28.552C127.003 28.52 127.067 28.4667 127.163 28.392C127.248 28.3387 127.387 28.2373 127.579 28.088C127.771 27.928 127.973 27.752 128.187 27.56C128.411 27.3573 128.613 27.176 128.795 27.016C128.976 26.856 129.088 26.7547 129.131 26.712L129.963 25.88C130.059 25.7733 130.155 25.672 130.251 25.576C130.347 25.4693 130.437 25.3627 130.523 25.256C130.619 25.1493 130.715 25.048 130.811 24.952C130.587 24.8667 130.379 24.7707 130.187 24.664C129.995 24.5573 129.856 24.4507 129.771 24.344C129.429 23.96 129.221 23.5387 129.147 23.08C129.072 22.6213 129.067 22.184 129.131 21.768C129.205 21.352 129.296 21.016 129.403 20.76C129.52 20.44 129.643 20.1947 129.771 20.024C129.899 19.8533 130.027 19.7147 130.155 19.608C130.283 19.4907 130.411 19.3573 130.539 19.208C130.763 18.9733 130.981 18.7813 131.195 18.632C131.419 18.4827 131.696 18.344 132.027 18.216C132.357 18.088 132.789 17.9333 133.323 17.752C133.333 17.752 133.387 17.7467 133.483 17.736C133.589 17.7253 133.723 17.7147 133.883 17.704C134.053 17.6827 134.229 17.6667 134.411 17.656C134.592 17.6347 134.768 17.624 134.939 17.624C135.056 17.6667 135.152 17.704 135.227 17.736C135.312 17.768 135.376 17.7947 135.419 17.816L135.819 17.672C136.213 17.7147 136.448 17.832 136.523 18.024C136.597 18.216 136.651 18.4507 136.683 18.728C136.523 19.1227 136.384 19.4587 136.267 19.736C136.16 20.0027 136.059 20.2533 135.963 20.488C135.877 20.7227 135.787 20.9787 135.691 21.256C135.595 21.5227 135.483 21.848 135.355 22.232ZM133.611 22.904C133.664 22.7547 133.712 22.6107 133.755 22.472C133.808 22.3227 133.861 22.1733 133.915 22.024C133.968 21.8747 134.021 21.7253 134.075 21.576C134.128 21.4267 134.176 21.2827 134.219 21.144C134.272 20.9947 134.325 20.8453 134.379 20.696C134.443 20.4827 134.496 20.312 134.539 20.184C134.592 20.0453 134.651 19.896 134.715 19.736C134.779 19.5653 134.853 19.336 134.939 19.048C134.864 19.0267 134.747 19.0213 134.587 19.032C134.427 19.0427 134.229 19.0747 133.995 19.128C133.536 19.2133 133.083 19.3733 132.635 19.608C132.197 19.832 131.808 20.104 131.467 20.424C131.136 20.7333 130.896 21.0587 130.747 21.4C130.661 21.6133 130.592 21.816 130.539 22.008C130.485 22.2 130.464 22.4027 130.475 22.616C130.475 22.8613 130.507 23.0427 130.571 23.16C130.635 23.2667 130.693 23.4267 130.747 23.64C130.757 23.6507 130.827 23.6613 130.955 23.672C131.093 23.6827 131.195 23.6827 131.259 23.672C131.515 23.5867 131.76 23.5067 131.995 23.432C132.24 23.3573 132.475 23.2507 132.699 23.112C132.869 23.0267 133.024 22.9787 133.163 22.968C133.312 22.9573 133.445 22.9787 133.563 23.032C133.573 23.0107 133.579 22.9893 133.579 22.968C133.589 22.9467 133.6 22.9253 133.611 22.904Z" fill="black"/>
</g>
<defs>
<filter id="filter0_d_100_14638" x="0" y="0" width="151" height="52" filterUnits="userSpaceOnUse" color-interpolation-filters="sRGB">
<feFlood flood-opacity="0" result="BackgroundImageFix"/>
<feColorMatrix in="SourceAlpha" type="matrix" values="0 0 0 0 0 0 0 0 0 0 0 0 0 0 0 0 0 0 127 0" result="hardAlpha"/>
<feOffset dx="4" dy="4"/>
<feComposite in2="hardAlpha" operator="out"/>
<feColorMatrix type="matrix" values="0 0 0 0 0 0 0 0 0 0 0 0 0 0 0 0 0 0 1 0"/>
<feBlend mode="normal" in2="BackgroundImageFix" result="effect1_dropShadow_100_14638"/>
<feBlend mode="normal" in="SourceGraphic" in2="effect1_dropShadow_100_14638" result="shape"/>
</filter>
</defs>
</svg>
