<svg width="190" height="48" viewBox="0 0 190 48" fill="none" xmlns="http://www.w3.org/2000/svg">
<path d="M45.8181 15.5974C45.7884 15.9453 45.7399 16.5946 45.6757 17.2418C45.6001 18.0064 45.511 18.7689 45.4286 19.533C45.3431 20.3268 45.2576 21.1206 45.1747 21.9149C45.1027 22.6054 45.0255 23.2959 44.9682 23.988C44.8884 24.9524 44.8034 25.9177 44.7612 26.8842C44.7314 27.5731 44.7831 28.2647 44.7732 28.9547C44.7523 30.3837 44.3618 31.7178 43.699 32.9774C43.2423 33.8452 42.6859 34.6468 42.042 35.3843C41.4152 36.1025 40.6284 36.5061 39.6606 36.5129C39.0068 36.5176 38.4551 36.7706 37.9743 37.1951C37.3027 37.7886 36.5884 38.3227 35.8271 38.7962C35.2077 39.1822 34.681 39.6813 34.1721 40.1997C33.6033 40.7786 33.0318 41.3555 32.4666 41.938C32.4071 41.9991 32.3591 42.0856 32.3393 42.1686C32.1782 42.8523 31.7579 43.3514 31.2131 43.7598C30.9388 43.9653 30.6405 44.14 30.3757 44.3554C29.9856 44.6725 29.6123 45.0099 29.2379 45.3453C28.4756 46.028 27.5866 46.4228 26.5688 46.5135C25.4274 46.6147 24.3162 46.4781 23.253 46.0369C22.7332 45.8209 22.2295 45.5643 21.7039 45.3651C20.7596 45.0068 19.7731 44.8044 18.7756 44.6621C18.1102 44.5666 17.4418 44.4936 16.7764 44.3976C16.486 44.3559 16.2086 44.2495 15.9823 44.0597C15.7534 43.8678 15.4911 43.8198 15.2101 43.7999C14.6782 43.7624 14.1422 43.7488 13.6161 43.6716C12.2213 43.4683 10.9662 42.9097 9.8165 42.1023C9.66164 41.9933 9.4927 41.8984 9.31855 41.8243C8.92018 41.6548 8.51973 41.4853 8.10989 41.3461C7.5478 41.1547 7.0561 40.8402 6.56804 40.5179C6.28961 40.3338 6.01586 40.1418 5.74733 39.9442C5.23946 39.5707 4.99961 39.0565 4.98396 38.4333C4.96102 37.5305 4.94903 36.6271 4.91931 35.7244C4.85726 33.8713 4.79 32.0183 4.71752 30.1652C4.69145 29.4971 4.66538 28.828 4.60072 28.163C4.50008 27.1272 4.19453 26.1415 3.77583 25.1918C3.20435 23.8947 2.61931 22.6038 2.05096 21.3057C1.62966 20.3471 1.40805 19.3463 1.4628 18.2922C1.51129 17.3571 1.77826 16.4835 2.21573 15.6621C2.47436 15.1765 2.74289 14.6957 3.0302 14.2268C3.23042 13.8998 3.50573 13.6307 3.80399 13.3882C4.1961 13.0695 4.48705 12.6643 4.77905 12.2585C4.99179 11.9628 5.2014 11.6634 5.43343 11.3828C5.79165 10.9484 6.25206 10.6443 6.77244 10.4425C7.92791 9.99446 9.08495 9.55011 10.2488 9.12453C10.8719 8.89661 11.5195 8.74745 12.1749 8.63375C12.5561 8.56752 12.9038 8.40793 13.2214 8.1894C14.0969 7.58597 14.9734 6.98463 15.8405 6.36869C16.6894 5.76578 17.4877 5.10133 18.116 4.26321C18.4591 3.80581 18.8355 3.38336 19.2574 3.00159C19.8403 2.47222 20.515 2.152 21.3191 2.18381C21.5511 2.1932 21.7852 2.23596 22.0115 2.29125C22.3145 2.36531 22.6127 2.4039 22.9251 2.36061C23.7745 2.24327 24.5889 2.40025 25.3627 2.74395C25.9561 3.00785 26.5296 3.31765 27.1126 3.6045C28.0303 4.05616 28.9522 4.50051 29.8667 4.95843C30.8778 5.46485 31.8299 6.06515 32.7257 6.75776C33.4062 7.284 34.1826 7.62561 34.9986 7.88273C35.8615 8.15445 36.7495 8.31353 37.6406 8.45382C38.1761 8.53831 38.7106 8.63115 39.2482 8.69634C39.7029 8.75162 40.1591 8.73337 40.6049 8.61237C40.7311 8.57795 40.827 8.59672 40.924 8.68852C41.1472 8.90026 41.4345 8.92947 41.7228 8.94825C41.9825 8.96546 42.2427 8.97432 42.5013 9.00301C42.8267 9.03952 43.103 9.18346 43.3377 9.41451C43.8612 9.92979 44.3675 10.4581 44.7784 11.0725C45.1872 11.6837 45.4442 12.3534 45.5986 13.0695C45.7571 13.8033 45.8124 14.546 45.8176 15.5969L45.8181 15.5974ZM26.3769 17.161C26.3153 18.4231 26.2564 19.6853 26.1886 20.9469C26.1751 21.2009 26.1605 21.4638 26.0859 21.7037C25.9316 22.1986 25.4435 22.197 25.1182 22.0129C25.0697 21.9858 25.0321 21.9138 25.018 21.856C24.9763 21.6833 24.944 21.5081 24.9169 21.3323C24.7344 20.1662 24.7871 18.9953 24.846 17.8234C24.8934 16.8742 24.945 15.9239 24.944 14.9742C24.9424 13.4554 24.6703 11.9842 24.1123 10.5624C23.6342 9.34462 23.519 8.0804 23.7651 6.78905C23.9413 5.86435 23.8089 4.98398 23.3589 4.15577C23.3318 4.1057 23.2728 4.05668 23.2186 4.04051C22.7457 3.90021 22.2639 3.87466 21.7753 3.93881C21.2132 4.01235 20.6782 4.19019 20.1365 4.34457C19.8909 4.41446 19.7068 4.52346 19.6135 4.76859C19.5864 4.84004 19.5342 4.90262 19.492 4.96834C18.8611 5.9551 18.0372 6.75984 17.1039 7.45089C16.2847 8.05745 15.4333 8.62019 14.6058 9.2158C14.1407 9.55115 13.6505 9.82496 13.1035 10.0018C11.8042 10.4216 10.5147 10.8722 9.20853 11.2702C8.12918 11.5987 7.18437 12.1391 6.33393 12.8718C5.84796 13.2906 5.33332 13.676 4.82441 14.0677C4.48392 14.3295 4.21643 14.6461 4.02038 15.0263C3.70544 15.6365 3.56152 16.3057 3.35087 16.9519C3.33627 16.9962 3.33731 17.0463 3.33575 17.0937C3.32115 17.5793 3.68875 18.0388 4.19245 18.1493C4.36086 18.1864 4.53815 18.1832 4.70761 18.2177C5.31872 18.3434 5.92982 18.4717 6.53832 18.6093C7.5405 18.8362 8.53902 19.072 9.5657 19.1778C10.3692 19.2607 11.1425 19.4876 11.8527 19.8793C12.288 20.1197 12.6953 20.4108 13.1161 20.6773C13.7397 21.0726 14.4071 21.3485 15.1501 21.4142C15.6251 21.4565 16.1033 21.4768 16.5752 21.5425C17.8318 21.7177 18.9925 22.1517 20.0343 22.885C20.2788 23.0571 20.5057 23.2553 20.7559 23.4175C21.2091 23.7106 21.7258 23.7763 22.2456 23.7335C23.0189 23.6699 23.7891 23.5682 24.5602 23.479C25.1666 23.4086 25.772 23.3794 26.3758 23.4957C26.6188 23.5426 26.8576 23.601 27.1095 23.5572C27.4666 23.4946 27.7837 23.3371 28.0913 23.1562C28.9741 22.6367 29.8798 22.1626 30.8319 21.7798C31.443 21.5342 31.9895 21.1889 32.4608 20.7263C33.3832 19.8214 34.3713 18.9916 35.4449 18.2745C36.505 17.5662 37.588 16.8924 38.6741 16.2238C39.5897 15.6605 40.4339 15.0185 41.1378 14.1992C41.7776 13.4544 42.3157 12.6439 42.7459 11.762C42.7714 11.7093 42.8178 11.6279 42.798 11.5993C42.7235 11.4918 42.6437 11.3593 42.5331 11.3103C42.0101 11.0788 41.4783 10.8665 40.9459 10.6579C40.2848 10.3981 39.6064 10.2005 38.8905 10.1812C37.8148 10.1525 36.7547 10.0231 35.7119 9.75455C34.242 9.37591 32.8889 8.75058 31.6698 7.84309C30.9404 7.29964 30.178 6.812 29.3333 6.46674C28.6398 6.18302 27.9411 5.91129 27.2414 5.64322C26.9348 5.52587 26.6256 5.40591 26.307 5.33081C25.9582 5.24841 25.6714 5.51074 25.6761 5.87061C25.6787 6.07453 25.6886 6.27846 25.6964 6.48238C25.7345 7.48479 25.7449 8.48877 25.8195 9.48857C25.9097 10.7043 26.0494 11.9164 26.1772 13.1289C26.3185 14.4688 26.4207 15.8097 26.3774 17.1594L26.3769 17.161ZM3.21009 19.1679C3.21009 19.3061 3.18767 19.411 3.21374 19.5022C3.40979 20.1964 3.68458 20.8603 3.97814 21.519C4.45576 22.5919 4.95476 23.6569 5.38442 24.749C5.97675 26.2568 6.22182 27.837 6.17333 29.4559C6.13161 30.8375 6.141 32.217 6.21921 33.5965C6.28595 34.7757 6.35218 35.9549 6.42517 37.1336C6.44655 37.4752 6.46428 37.821 6.53155 38.1548C6.62019 38.5939 6.87568 38.9449 7.22869 39.2224C7.53268 39.4607 7.87681 39.4956 8.25015 39.4654C8.72152 39.4273 9.17046 39.5441 9.56205 39.8075C9.93174 40.0563 10.2759 40.3437 10.6336 40.6107C11.7004 41.4061 12.8898 41.8916 14.2173 42.0298C14.6271 42.0726 15.0438 42.0877 15.4432 42.1774C16.1189 42.3297 16.7848 42.5284 17.4532 42.7131C19.6933 43.3306 21.9317 43.9528 24.1723 44.5661C24.6353 44.6928 25.1077 44.7565 25.5885 44.6615C25.807 44.6183 25.8059 44.6193 25.8309 44.3929C25.9039 43.7374 25.9962 43.0833 26.0468 42.4262C26.1026 41.695 26.162 40.9607 26.1469 40.2289C26.1156 38.7138 26.016 37.2008 25.9832 35.6858C25.9587 34.5665 25.9874 33.4457 26.0061 32.326C26.0181 31.6141 26.0854 30.9027 26.0729 30.1918C26.0536 29.0679 25.9655 27.9445 25.9545 26.8205C25.9509 26.4315 25.8075 26.1921 25.5254 25.9616C24.945 25.4869 24.3037 25.247 23.5497 25.3477C23.4298 25.3639 23.3083 25.3738 23.1868 25.3779C22.6544 25.3967 22.1633 25.2366 21.6762 25.0405C20.4373 24.5419 19.2058 24.0292 18.0341 23.382C17.4997 23.0868 16.9271 22.8829 16.3098 22.8396C15.9505 22.8146 15.5897 22.8073 15.232 22.7713C13.943 22.6414 12.7563 22.221 11.6858 21.4877C11.0799 21.0726 10.4161 20.8129 9.69188 20.7133C9.16368 20.6408 8.63131 20.5969 8.10207 20.5302C6.63583 20.3445 5.2186 19.9737 3.85352 19.4031C3.65851 19.3218 3.4562 19.2587 3.21061 19.17L3.21009 19.1679ZM42.1749 32.1982C42.2067 32.1403 42.2276 32.1038 42.2469 32.0657C42.9435 30.6701 43.1771 29.18 43.1661 27.6362C43.1625 27.0766 43.1677 26.5154 43.2 25.9569C43.249 25.125 43.321 24.2947 43.3919 23.4644C43.4753 22.487 43.5755 21.5112 43.6547 20.5338C43.746 19.4136 43.8388 18.2928 43.8998 17.1709C43.9535 16.1774 43.9118 15.1828 43.8362 14.1903C43.8325 14.1397 43.8226 14.0839 43.796 14.0427C43.7783 14.0156 43.7162 13.9879 43.6917 13.9994C43.5984 14.0417 43.4952 14.0829 43.4263 14.1543C42.9925 14.6034 42.5853 15.0795 42.1358 15.5119C40.7582 16.8345 39.1731 17.8385 37.3992 18.5468C37.0681 18.6787 36.7073 18.7549 36.4575 19.0469C36.3647 19.1554 36.251 19.2451 36.1483 19.3447C35.0601 20.3988 33.9714 21.4518 32.8853 22.5074C31.8117 23.551 30.6197 24.4162 29.2311 25.0014C28.3598 25.3686 27.9265 26.046 27.9098 26.9973C27.8937 27.909 27.8676 28.8207 27.8322 29.7313C27.7941 30.6946 27.7206 31.6563 27.6976 32.6196C27.6752 33.561 27.7023 34.5039 27.6976 35.4458C27.694 36.0926 27.6653 36.7393 27.6611 37.386C27.6507 39.0461 27.9005 40.6712 28.3494 42.2666C28.4193 42.5154 28.4954 42.7626 28.5684 43.0098C28.6852 42.9895 28.7853 42.9801 28.8807 42.953C29.046 42.9055 29.2285 42.8773 29.3683 42.7866C29.6655 42.5931 29.9658 42.3913 30.2182 42.1446C30.7297 41.6444 31.2115 41.114 31.7027 40.5935C32.3983 39.8566 33.11 39.1337 33.9521 38.5657C34.6711 38.0802 35.3323 37.5336 35.9663 36.9437C36.677 36.2824 37.4832 35.7593 38.3983 35.4172C38.4874 35.3838 38.5766 35.352 38.6663 35.3196C38.5396 35.3342 38.4181 35.3634 38.2971 35.3942C37.8476 35.5079 37.3976 35.6221 36.9482 35.7363C36.8371 35.7645 36.737 35.7483 36.6739 35.6451C36.6124 35.5439 36.6348 35.4516 36.7099 35.3593C36.8434 35.1939 36.9602 35.0151 37.0984 34.8544C37.1698 34.7715 37.2642 34.6995 37.3617 34.65C37.539 34.5603 37.7267 34.4899 37.9107 34.4137C38.4593 34.1874 39.0177 33.9819 39.5548 33.7315C40.1747 33.4421 40.5622 32.9513 40.6717 32.2618C40.7009 32.0777 40.7186 31.8905 40.766 31.7111C40.8317 31.4644 40.9871 31.2902 41.2473 31.2333C41.6686 31.1415 41.9846 31.3376 42.0904 31.759C42.1249 31.8957 42.1447 32.0365 42.1754 32.1987L42.1749 32.1982ZM40.2039 34.9092C39.9928 34.9639 39.7821 35.0182 39.5709 35.0729C39.7931 35.0609 40.0199 35.0656 40.2039 34.9092Z" fill="black"/>
<path d="M59.4757 32.84C59.0757 32.808 58.7157 32.736 58.3957 32.624C58.0757 32.528 57.6597 32.344 57.1477 32.072C56.6037 31.752 56.1557 31.376 55.8037 30.944C55.4677 30.512 55.1797 30.096 54.9397 29.696C54.7957 29.472 54.7237 29.24 54.7237 29C54.7397 28.76 54.8037 28.536 54.9157 28.328C55.0117 28.136 55.1317 27.96 55.2757 27.8C55.4197 27.64 55.5717 27.512 55.7317 27.416C56.0357 27.24 56.2757 27.184 56.4517 27.248C56.6437 27.312 56.7957 27.36 56.9077 27.392C57.0997 27.424 57.2437 27.512 57.3397 27.656C57.4357 27.784 57.4997 27.92 57.5317 28.064C57.5797 28.192 57.6117 28.272 57.6277 28.304C57.5317 28.592 57.4517 28.808 57.3877 28.952C57.3237 29.096 57.2277 29.216 57.0997 29.312C57.2277 29.488 57.3637 29.656 57.5077 29.816C57.6517 29.976 57.8117 30.12 57.9877 30.248C58.1797 30.408 58.4517 30.544 58.8037 30.656C59.1717 30.752 59.4277 30.784 59.5717 30.752C59.6357 30.72 59.7317 30.72 59.8597 30.752C59.9877 30.784 60.0677 30.792 60.0997 30.776C60.2597 30.728 60.4197 30.712 60.5797 30.728C60.7397 30.728 60.8997 30.688 61.0597 30.608C61.5717 30.464 62.0277 30.264 62.4277 30.008C62.8277 29.736 63.2037 29.384 63.5557 28.952C63.8117 28.616 63.9797 28.32 64.0597 28.064C64.1557 27.792 64.2117 27.432 64.2277 26.984C64.2597 26.744 64.2357 26.512 64.1557 26.288C64.0917 26.048 64.0197 25.792 63.9397 25.52C63.8917 25.488 63.8357 25.448 63.7717 25.4C63.7237 25.352 63.6757 25.312 63.6277 25.28C63.2277 25.184 62.8917 25.088 62.6197 24.992C62.3637 24.896 62.0277 24.912 61.6117 25.04C61.2597 25.152 61.0037 25.184 60.8437 25.136C60.6837 25.072 60.5157 24.984 60.3397 24.872C60.1477 24.792 59.9717 24.648 59.8117 24.44C59.6677 24.232 59.5717 24.008 59.5237 23.768C59.4757 23.528 59.5077 23.328 59.6197 23.168C59.7157 22.992 59.8677 22.856 60.0757 22.76C60.2837 22.648 60.5157 22.608 60.7717 22.64C60.9317 22.672 61.0837 22.68 61.2277 22.664C61.3877 22.632 61.5957 22.568 61.8517 22.472C62.0117 22.408 62.2117 22.304 62.4517 22.16C62.6917 22 62.9077 21.856 63.0997 21.728C63.2917 21.584 63.3877 21.52 63.3877 21.536C63.8037 21.008 64.1477 20.552 64.4197 20.168C64.7077 19.768 64.9317 19.336 65.0917 18.872C65.2357 18.6 65.3157 18.312 65.3317 18.008C65.3637 17.704 65.3317 17.448 65.2357 17.24C65.2197 17.144 65.1317 17.072 64.9717 17.024C64.8117 16.96 64.6437 16.92 64.4677 16.904C64.3077 16.888 64.1877 16.896 64.1077 16.928C63.9157 16.928 63.6677 16.976 63.3637 17.072C63.0757 17.152 62.8037 17.248 62.5477 17.36C62.3077 17.456 62.1557 17.528 62.0917 17.576C61.8357 17.8 61.5957 18.016 61.3717 18.224C61.1477 18.416 60.9637 18.584 60.8197 18.728C60.6757 18.872 60.5797 18.984 60.5317 19.064C60.4677 19.192 60.3317 19.288 60.1237 19.352C59.9317 19.416 59.7317 19.44 59.5237 19.424C59.3317 19.392 59.1957 19.312 59.1157 19.184C58.9077 18.816 58.8117 18.48 58.8277 18.176C58.8597 17.856 59.0037 17.536 59.2597 17.216C59.4837 16.928 59.7157 16.648 59.9557 16.376C60.2117 16.104 60.5077 15.872 60.8437 15.68C61.0997 15.552 61.3557 15.408 61.6117 15.248C61.8677 15.088 62.1317 14.968 62.4037 14.888C62.5637 14.84 62.8197 14.76 63.1717 14.648C63.5237 14.52 63.8997 14.488 64.2997 14.552C64.6997 14.584 65.0197 14.648 65.2597 14.744C65.4997 14.824 65.7237 14.952 65.9317 15.128C66.1557 15.288 66.4277 15.504 66.7477 15.776C67.0357 15.952 67.2437 16.288 67.3717 16.784C67.5157 17.264 67.5637 17.808 67.5157 18.416C67.4837 19.008 67.3477 19.56 67.1077 20.072C66.9317 20.392 66.7557 20.72 66.5797 21.056C66.4197 21.376 66.2197 21.68 65.9797 21.968C65.8197 22.176 65.6677 22.368 65.5237 22.544C65.3957 22.704 65.2437 22.888 65.0677 23.096C65.0517 23.128 65.0037 23.176 64.9237 23.24C64.8597 23.288 64.7797 23.344 64.6837 23.408C64.8757 23.52 65.0437 23.648 65.1877 23.792C65.3477 23.92 65.4837 24.048 65.5957 24.176C65.7077 24.304 65.7797 24.424 65.8117 24.536C66.1477 25.08 66.3637 25.696 66.4597 26.384C66.5557 27.056 66.5157 27.816 66.3397 28.664C66.1957 28.936 66.0677 29.184 65.9557 29.408C65.8597 29.616 65.7477 29.816 65.6197 30.008C65.4597 30.328 65.2437 30.624 64.9717 30.896C64.7157 31.152 64.4437 31.392 64.1557 31.616C63.8037 31.872 63.4517 32.08 63.0997 32.24C62.7477 32.4 62.4437 32.512 62.1877 32.576C61.6917 32.72 61.2117 32.808 60.7477 32.84C60.2837 32.888 59.8597 32.888 59.4757 32.84ZM67.382 32.792C67.094 32.632 66.934 32.456 66.902 32.264C66.886 32.072 66.998 31.736 67.238 31.256C67.478 30.776 67.854 30.032 68.366 29.024C68.75 28.304 69.006 27.744 69.134 27.344C69.278 26.928 69.358 26.632 69.374 26.456C69.39 26.28 69.398 26.168 69.398 26.12C69.366 25.976 69.382 25.864 69.446 25.784C69.51 25.688 69.614 25.608 69.758 25.544C69.838 25.464 70.022 25.32 70.31 25.112C70.598 24.904 70.822 24.656 70.982 24.368C71.126 24.032 71.286 23.688 71.462 23.336C71.654 22.984 71.902 22.544 72.206 22.016C72.51 21.472 72.918 20.768 73.43 19.904C73.75 19.344 74.126 18.712 74.558 18.008C75.006 17.304 75.446 16.664 75.878 16.088C76.054 15.864 76.238 15.688 76.43 15.56C76.622 15.432 76.79 15.368 76.934 15.368C77.286 15.368 77.638 15.464 77.99 15.656C78.342 15.832 78.654 16.056 78.926 16.328C79.198 16.6 79.382 16.856 79.478 17.096C79.558 17.224 79.59 17.496 79.574 17.912C79.558 18.328 79.526 18.832 79.478 19.424C79.43 20.016 79.374 20.648 79.31 21.32C79.262 21.976 79.19 22.752 79.094 23.648C78.998 24.544 78.902 25.48 78.806 26.456C78.726 27.432 78.662 28.376 78.614 29.288C78.566 30.184 78.566 30.968 78.614 31.64C78.63 31.784 78.63 31.92 78.614 32.048C78.598 32.176 78.59 32.28 78.59 32.36C78.494 32.456 78.286 32.496 77.966 32.48C77.646 32.48 77.334 32.432 77.03 32.336C76.726 32.24 76.558 32.12 76.526 31.976C76.478 31.928 76.446 31.888 76.43 31.856C76.414 31.824 76.414 31.672 76.43 31.4C76.446 31.112 76.47 30.592 76.502 29.84L76.622 26.168L76.31 26.192C76.166 26.192 75.902 26.208 75.518 26.24C75.15 26.272 74.742 26.32 74.294 26.384C73.862 26.432 73.462 26.488 73.094 26.552C72.726 26.6 72.47 26.648 72.326 26.696C72.182 26.696 72.006 26.792 71.798 26.984C71.606 27.176 71.422 27.424 71.246 27.728C71.182 27.952 71.062 28.192 70.886 28.448C70.726 28.688 70.646 28.848 70.646 28.928C70.534 29.008 70.438 29.104 70.358 29.216C70.294 29.328 70.262 29.384 70.262 29.384C70.262 29.48 70.19 29.72 70.046 30.104C69.902 30.472 69.726 30.888 69.518 31.352C69.31 31.8 69.094 32.192 68.87 32.528L68.222 33.44L67.382 32.792ZM73.118 24.536C73.118 24.536 73.206 24.52 73.382 24.488C73.558 24.456 73.766 24.424 74.006 24.392C74.262 24.344 74.486 24.32 74.678 24.32C75.046 24.224 75.35 24.152 75.59 24.104C75.846 24.056 76.054 24.032 76.214 24.032C76.374 24.016 76.502 24.032 76.598 24.08C76.662 24.16 76.718 24.208 76.766 24.224C76.83 24.24 76.862 24.248 76.862 24.248C76.878 24.216 76.91 24.048 76.958 23.744C77.006 23.44 77.062 23.064 77.126 22.616C77.19 22.168 77.254 21.704 77.318 21.224C77.382 20.728 77.438 20.272 77.486 19.856C77.534 19.424 77.566 19.088 77.582 18.848C77.598 18.544 77.59 18.272 77.558 18.032C77.526 17.776 77.51 17.648 77.51 17.648C77.414 17.648 77.23 17.824 76.958 18.176C76.702 18.512 76.398 18.968 76.046 19.544C75.71 20.104 75.374 20.712 75.038 21.368C74.878 21.672 74.726 21.912 74.582 22.088C74.454 22.264 74.35 22.352 74.27 22.352C74.238 22.384 74.15 22.512 74.006 22.736C73.878 22.944 73.734 23.184 73.574 23.456C73.43 23.712 73.302 23.952 73.19 24.176C73.094 24.384 73.07 24.504 73.118 24.536ZM82.4958 32.6C82.4158 32.6 82.2798 32.56 82.0878 32.48C81.8958 32.416 81.7118 32.328 81.5358 32.216C81.3758 32.104 81.2958 31.984 81.2958 31.856C81.2958 31.856 81.2878 31.808 81.2718 31.712C81.2718 31.6 81.2398 31.488 81.1758 31.376C81.1758 31.248 81.1758 31.104 81.1758 30.944C81.1918 30.768 81.2318 30.592 81.2958 30.416C81.2958 30.24 81.3198 30.048 81.3678 29.84C81.4158 29.616 81.4718 29.448 81.5358 29.336C81.5358 29.16 81.5758 28.936 81.6558 28.664C81.7518 28.376 81.8318 28.112 81.8958 27.872C82.0718 27.344 82.1998 26.96 82.2798 26.72C82.3758 26.48 82.4398 26.304 82.4718 26.192C82.5038 26.064 82.5198 25.936 82.5198 25.808C82.5678 25.68 82.6398 25.448 82.7358 25.112C82.8318 24.776 82.9278 24.432 83.0238 24.08C83.1358 23.712 83.2078 23.448 83.2398 23.288C83.3038 23.224 83.3358 23.168 83.3358 23.12C83.3518 23.056 83.3598 22.992 83.3598 22.928C83.3598 22.928 83.4158 22.744 83.5278 22.376C83.6398 22.008 83.7838 21.584 83.9598 21.104C84.2478 20.256 84.4398 19.64 84.5358 19.256C84.6478 18.872 84.6958 18.6 84.6798 18.44C84.6798 18.28 84.6398 18.12 84.5598 17.96C84.4478 17.752 84.4478 17.592 84.5598 17.48C84.6238 17.416 84.6798 17.344 84.7278 17.264C84.7758 17.168 84.7998 17.12 84.7998 17.12C84.7998 17.088 84.9118 17.024 85.1358 16.928C85.3758 16.816 85.6638 16.696 85.9998 16.568C86.3358 16.424 86.6718 16.296 87.0078 16.184C87.3438 16.056 87.6158 15.96 87.8238 15.896C87.8718 15.896 87.9838 15.896 88.1598 15.896C88.3518 15.896 88.5518 15.896 88.7598 15.896C88.9838 15.896 89.1598 15.896 89.2878 15.896C89.7038 15.96 90.1278 16.08 90.5598 16.256C91.0078 16.432 91.3838 16.68 91.6878 17C91.8798 17.176 92.0878 17.424 92.3118 17.744C92.5518 18.064 92.7918 18.496 93.0318 19.04C93.0318 19.104 93.0478 19.24 93.0798 19.448C93.1278 19.64 93.1518 19.832 93.1518 20.024C93.1518 20.504 93.0318 21.048 92.7918 21.656C92.5678 22.264 92.2318 22.88 91.7838 23.504C91.3358 24.112 90.7918 24.68 90.1518 25.208C89.4798 25.752 88.7838 26.12 88.0638 26.312C87.3438 26.504 86.7038 26.544 86.1438 26.432C85.8238 26.304 85.6078 26.128 85.4958 25.904C85.3838 25.664 85.3358 25.44 85.3518 25.232C85.3678 25.024 85.3998 24.896 85.4478 24.848C85.5758 24.816 85.7678 24.808 86.0238 24.824C86.2798 24.824 86.6878 24.72 87.2478 24.512C87.4238 24.448 87.6078 24.376 87.7998 24.296C87.9918 24.2 88.1438 24.12 88.2558 24.056C88.5758 23.848 88.8958 23.584 89.2158 23.264C89.5518 22.944 89.8958 22.504 90.2478 21.944C90.3918 21.72 90.4958 21.472 90.5598 21.2C90.6238 20.928 90.6638 20.656 90.6798 20.384C90.7118 20.096 90.7278 19.848 90.7278 19.64C90.8558 19.224 90.7758 18.88 90.4878 18.608C90.2158 18.32 89.7758 18.144 89.1678 18.08C88.9758 18.032 88.7358 18.024 88.4478 18.056C88.1758 18.088 87.9198 18.144 87.6798 18.224C87.4398 18.288 87.2558 18.36 87.1278 18.44C87.0638 18.44 87.0238 18.488 87.0078 18.584C86.9918 18.68 86.9518 18.792 86.8878 18.92C86.8878 19.032 86.8398 19.272 86.7438 19.64C86.6478 19.992 86.5358 20.32 86.4078 20.624C86.2958 20.976 86.1598 21.368 85.9998 21.8C85.8398 22.216 85.7278 22.544 85.6638 22.784C85.5998 23.04 85.5198 23.288 85.4238 23.528C85.3438 23.768 85.3038 23.888 85.3038 23.888C85.3038 23.952 85.2558 24.088 85.1598 24.296C85.0798 24.504 85.0078 24.728 84.9438 24.968C84.8798 25.272 84.7918 25.616 84.6798 26C84.5838 26.384 84.4718 26.728 84.3438 27.032C84.1678 27.624 84.0158 28.216 83.8878 28.808C83.7598 29.384 83.7518 29.76 83.8638 29.936C84.3438 29.952 84.5918 30.056 84.6078 30.248C84.6398 30.424 84.3918 30.84 83.8638 31.496C83.7038 31.896 83.5438 32.168 83.3838 32.312C83.2238 32.472 83.0638 32.56 82.9038 32.576C82.7598 32.592 82.6238 32.6 82.4958 32.6ZM103.429 34.088C103.365 34.088 103.245 34.056 103.069 33.992C102.909 33.944 102.789 33.872 102.709 33.776C102.597 33.664 102.517 33.528 102.469 33.368C102.437 33.208 102.421 33.056 102.421 32.912C102.421 32.736 102.421 32.48 102.421 32.144C102.421 31.824 102.405 31.512 102.373 31.208C102.373 30.744 102.365 30.312 102.349 29.912C102.333 29.512 102.357 29.24 102.421 29.096C102.373 28.872 102.365 28.632 102.397 28.376C102.445 28.104 102.469 27.896 102.469 27.752L102.373 27.104H101.077C100.773 27.152 100.285 27.16 99.6127 27.128C98.9407 27.08 98.1887 27.032 97.3567 26.984L97.0447 27.488C96.9967 27.552 96.9087 27.68 96.7807 27.872C96.6527 28.064 96.5247 28.328 96.3967 28.664C96.3167 28.872 96.2047 29.136 96.0607 29.456C95.9327 29.76 95.7887 30.064 95.6287 30.368C95.4847 30.672 95.3407 30.928 95.1967 31.136C94.9407 31.632 94.7087 31.968 94.5007 32.144C94.3087 32.336 94.1727 32.432 94.0927 32.432C93.9487 32.432 93.8367 32.424 93.7567 32.408C93.6767 32.392 93.5567 32.328 93.3967 32.216C93.0767 32.072 92.8687 31.848 92.7727 31.544C92.6927 31.24 92.8127 30.856 93.1327 30.392C93.2127 30.28 93.2847 30.168 93.3487 30.056C93.4127 29.944 93.4447 29.888 93.4447 29.888C93.4447 29.856 93.5087 29.696 93.6367 29.408C93.7807 29.104 93.9487 28.768 94.1407 28.4C94.3327 28.016 94.5167 27.68 94.6927 27.392C94.8687 27.088 94.9967 26.92 95.0767 26.888C95.3647 26.568 95.3407 26.264 95.0047 25.976C94.8927 25.928 94.8207 25.792 94.7887 25.568C94.7567 25.344 94.8127 25.136 94.9567 24.944C95.1007 24.736 95.3727 24.648 95.7727 24.68C95.9327 24.6 96.0447 24.544 96.1087 24.512C96.1887 24.48 96.2287 24.432 96.2287 24.368C96.2287 24.336 96.2607 24.24 96.3247 24.08C96.4047 23.92 96.5007 23.736 96.6127 23.528C96.7247 23.304 96.8447 23.088 96.9727 22.88C97.1007 22.672 97.2207 22.496 97.3327 22.352C97.5087 21.904 97.6447 21.608 97.7407 21.464C97.8367 21.304 97.9167 21.152 97.9807 21.008C98.0607 20.928 98.1727 20.752 98.3167 20.48C98.4607 20.208 98.6127 19.944 98.7727 19.688C98.9967 19.464 99.1967 19.224 99.3727 18.968C99.5647 18.696 99.7327 18.472 99.8767 18.296C99.9567 18.12 100.069 17.928 100.213 17.72C100.373 17.512 100.533 17.296 100.693 17.072C100.997 16.736 101.357 16.464 101.773 16.256C102.205 16.048 102.581 16.016 102.901 16.16C103.269 16.32 103.613 16.64 103.933 17.12C104.253 17.584 104.437 18.152 104.485 18.824C104.533 19.192 104.581 19.608 104.629 20.072C104.693 20.52 104.685 20.856 104.605 21.08C104.605 21.368 104.597 21.72 104.581 22.136C104.581 22.552 104.605 22.944 104.653 23.312C104.589 23.616 104.565 23.96 104.581 24.344C104.597 24.712 104.605 24.968 104.605 25.112C104.605 25.256 104.597 25.488 104.581 25.808C104.565 26.112 104.557 26.376 104.557 26.6C104.541 27.208 104.525 27.712 104.509 28.112C104.509 28.512 104.509 28.896 104.509 29.264C104.525 29.616 104.533 30.032 104.533 30.512C104.565 31.776 104.477 32.672 104.269 33.2C104.077 33.744 103.797 34.04 103.429 34.088ZM98.5807 25.112C98.5807 25.112 98.7407 25.096 99.0607 25.064C99.3807 25.016 99.7647 25 100.213 25.016C100.741 24.968 101.173 24.96 101.509 24.992C101.845 25.008 102.045 25 102.109 24.968C102.285 24.984 102.405 24.912 102.469 24.752C102.533 24.592 102.565 24.384 102.565 24.128C102.533 23.776 102.501 23.336 102.469 22.808C102.453 22.264 102.437 21.72 102.421 21.176C102.405 20.616 102.405 20.136 102.421 19.736C102.421 19.432 102.397 19.128 102.349 18.824C102.301 18.504 102.277 18.344 102.277 18.344C102.245 18.296 102.149 18.376 101.989 18.584C101.845 18.776 101.677 19.016 101.485 19.304C101.293 19.592 101.117 19.88 100.957 20.168C100.797 20.44 100.677 20.64 100.597 20.768C100.533 20.848 100.413 21.056 100.237 21.392C100.061 21.728 99.8607 22.088 99.6367 22.472C99.0447 23.416 98.6847 24.072 98.5567 24.44C98.4287 24.808 98.4367 25.032 98.5807 25.112ZM110.928 32.744C110.288 32.904 109.648 32.936 109.008 32.84C108.384 32.744 107.912 32.456 107.592 31.976C107.48 31.8 107.392 31.608 107.328 31.4C107.264 31.192 107.224 30.952 107.208 30.68C107.32 30.504 107.4 30.312 107.448 30.104C107.512 29.896 107.56 29.688 107.592 29.48C107.624 29.304 107.656 29.136 107.688 28.976C107.736 28.8 107.792 28.632 107.856 28.472C108.144 27.528 108.448 26.584 108.768 25.64C109.104 24.68 109.456 23.744 109.824 22.832C110.048 22.32 110.288 21.816 110.544 21.32C110.8 20.808 111.032 20.296 111.24 19.784C111.464 19.208 111.744 18.664 112.08 18.152C112.432 17.64 112.704 17.096 112.896 16.52C113.008 16.072 113.32 15.848 113.832 15.848C113.96 15.848 114.08 15.832 114.192 15.8C114.304 15.752 114.432 15.712 114.576 15.68C114.768 15.616 115 15.592 115.272 15.608C115.56 15.608 115.832 15.568 116.088 15.488C116.152 15.472 116.304 15.456 116.544 15.44C116.784 15.424 117.048 15.416 117.336 15.416C117.624 15.416 117.888 15.416 118.128 15.416C118.384 15.416 118.56 15.416 118.656 15.416C118.88 15.32 119.176 15.32 119.544 15.416C119.928 15.512 120.28 15.664 120.6 15.872C120.92 16.064 121.088 16.288 121.104 16.544C121.152 17.024 121.088 17.336 120.912 17.48C120.752 17.624 120.456 17.696 120.024 17.696C119.592 17.696 119.152 17.672 118.704 17.624C118.272 17.576 117.84 17.552 117.408 17.552C116.928 17.552 116.456 17.616 115.992 17.744C115.544 17.856 115.08 17.904 114.6 17.888C114.488 18.016 114.328 18.288 114.12 18.704C113.928 19.12 113.728 19.584 113.52 20.096C113.312 20.592 113.12 21.064 112.944 21.512C112.784 21.944 112.672 22.256 112.608 22.448C112.352 22.976 112.08 23.576 111.792 24.248C111.504 24.92 111.224 25.624 110.952 26.36C110.696 27.08 110.464 27.792 110.256 28.496C110.048 29.184 109.904 29.816 109.824 30.392C110.336 30.488 110.864 30.496 111.408 30.416C111.968 30.32 112.512 30.176 113.04 29.984C113.568 29.776 114.048 29.552 114.48 29.312C114.944 29.04 115.368 28.752 115.752 28.448C116.152 28.144 116.472 27.784 116.712 27.368C116.968 26.936 117.096 26.432 117.096 25.856C117.096 25.504 116.968 25.216 116.712 24.992C116.456 24.752 116.136 24.56 115.752 24.416C115.384 24.256 115.008 24.144 114.624 24.08C114.24 24 113.92 23.936 113.664 23.888C113.552 23.872 113.384 23.816 113.16 23.72C112.936 23.624 112.72 23.496 112.512 23.336C112.304 23.176 112.144 22.984 112.032 22.76C111.92 22.536 111.92 22.28 112.032 21.992C112.192 21.768 112.504 21.632 112.968 21.584C113.448 21.536 113.888 21.536 114.288 21.584C114.464 21.6 114.624 21.624 114.768 21.656C114.912 21.672 115.008 21.696 115.056 21.728C115.856 21.856 116.592 22.12 117.264 22.52C117.952 22.904 118.496 23.416 118.896 24.056C119.312 24.696 119.488 25.456 119.424 26.336C119.408 26.592 119.344 26.88 119.232 27.2C119.12 27.52 118.976 27.84 118.8 28.16C118.624 28.48 118.424 28.792 118.2 29.096C117.992 29.384 117.776 29.648 117.552 29.888C117.488 29.952 117.416 30.024 117.336 30.104C117.272 30.168 117.2 30.232 117.12 30.296C116.864 30.504 116.624 30.704 116.4 30.896C116.176 31.088 115.928 31.256 115.656 31.4C115.368 31.544 115.12 31.672 114.912 31.784C114.72 31.896 114.464 31.992 114.144 32.072C114.08 32.088 114.008 32.104 113.928 32.12C113.864 32.152 113.8 32.184 113.736 32.216C113.528 32.344 113.256 32.448 112.92 32.528C112.6 32.608 112.28 32.664 111.96 32.696C111.768 32.712 111.584 32.72 111.408 32.72C111.232 32.736 111.072 32.744 110.928 32.744ZM124.89 32.624C124.602 32.576 124.242 32.456 123.81 32.264C123.378 32.072 122.978 31.856 122.61 31.616C122.258 31.36 122.034 31.128 121.938 30.92C121.682 30.504 121.498 30.032 121.386 29.504C121.29 28.976 121.362 28.368 121.602 27.68C121.666 27.408 121.714 27.184 121.746 27.008C121.778 26.816 121.794 26.648 121.794 26.504C121.794 26.504 121.81 26.48 121.842 26.432C121.89 26.368 121.914 26.336 121.914 26.336C121.962 26.272 122.002 26.224 122.034 26.192C122.066 26.144 122.098 26.096 122.13 26.048C122.178 25.984 122.226 25.92 122.274 25.856C122.322 25.776 122.346 25.736 122.346 25.736C122.442 25.624 122.498 25.512 122.514 25.4C122.53 25.288 122.53 25.176 122.514 25.064C122.514 25.016 122.514 24.968 122.514 24.92C122.53 24.872 122.546 24.824 122.562 24.776C122.626 24.68 122.674 24.608 122.706 24.56C122.754 24.512 122.802 24.464 122.85 24.416C122.914 24.368 122.962 24.328 122.994 24.296C123.042 24.264 123.066 24.248 123.066 24.248C123.114 24.28 123.146 24.28 123.162 24.248C123.194 24.216 123.242 24.144 123.306 24.032C123.354 23.952 123.418 23.816 123.498 23.624C123.594 23.416 123.698 23.176 123.81 22.904C123.922 22.616 124.026 22.328 124.122 22.04C124.714 20.968 125.322 20.064 125.946 19.328C126.586 18.576 127.178 17.984 127.722 17.552C128.282 17.104 128.714 16.792 129.018 16.616L129.162 16.52L129.45 16.4C129.53 16.368 129.658 16.352 129.834 16.352C130.026 16.336 130.202 16.32 130.362 16.304C130.586 16.304 130.826 16.344 131.082 16.424C131.354 16.488 131.594 16.56 131.802 16.64C132.01 16.704 132.122 16.76 132.138 16.808C132.138 16.872 132.162 16.912 132.21 16.928C132.258 16.944 132.282 16.952 132.282 16.952C132.378 16.936 132.53 17.048 132.738 17.288C132.946 17.528 133.162 17.816 133.386 18.152C133.626 18.472 133.802 18.776 133.914 19.064C134.09 19.32 134.17 19.712 134.154 20.24C134.138 20.752 134.114 21.248 134.082 21.728C134.05 21.968 133.994 22.272 133.914 22.64C133.85 22.992 133.778 23.336 133.698 23.672C133.618 23.992 133.546 24.232 133.482 24.392C133.466 24.44 133.402 24.6 133.29 24.872C133.194 25.128 133.09 25.392 132.978 25.664C132.882 25.936 132.818 26.112 132.786 26.192C132.61 26.624 132.41 27.08 132.186 27.56C131.962 28.024 131.722 28.464 131.466 28.88C131.21 29.296 130.962 29.64 130.722 29.912C130.482 30.168 130.25 30.304 130.026 30.32C130.026 30.32 130.01 30.328 129.978 30.344C129.962 30.36 129.954 30.4 129.954 30.464C129.954 30.496 129.834 30.624 129.594 30.848C129.354 31.056 129.082 31.28 128.778 31.52C128.49 31.744 128.274 31.912 128.13 32.024C127.794 32.136 127.418 32.248 127.002 32.36C126.586 32.488 126.186 32.576 125.802 32.624C125.418 32.688 125.114 32.688 124.89 32.624ZM125.154 30.488C125.762 30.504 126.258 30.488 126.642 30.44C127.042 30.392 127.402 30.272 127.722 30.08C128.058 29.872 128.426 29.544 128.826 29.096C128.906 28.936 129.018 28.744 129.162 28.52C129.322 28.296 129.402 28.184 129.402 28.184C129.434 28.088 129.49 27.992 129.57 27.896C129.57 27.896 129.602 27.848 129.666 27.752C129.73 27.656 129.794 27.576 129.858 27.512C129.954 27.384 130.034 27.312 130.098 27.296C130.178 27.28 130.218 27.272 130.218 27.272C130.234 27.144 130.274 26.984 130.338 26.792C130.402 26.6 130.466 26.432 130.53 26.288C130.61 26.128 130.666 26.032 130.698 26C130.762 25.952 130.85 25.76 130.962 25.424C131.074 25.072 131.186 24.696 131.298 24.296C131.41 23.88 131.466 23.544 131.466 23.288C131.546 23.208 131.602 23.144 131.634 23.096C131.682 23.032 131.706 23 131.706 23C131.738 22.968 131.77 22.928 131.802 22.88C131.834 22.816 131.842 22.704 131.826 22.544C131.826 22.208 131.842 21.992 131.874 21.896C131.906 21.8 131.922 21.752 131.922 21.752C131.986 21.72 132.026 21.696 132.042 21.68C132.058 21.648 132.05 21.624 132.018 21.608C131.906 21.528 131.898 21.44 131.994 21.344C132.042 21.296 132.042 21.176 131.994 20.984C131.962 20.792 131.906 20.568 131.826 20.312C131.746 20.056 131.658 19.816 131.562 19.592C131.482 19.368 131.418 19.2 131.37 19.088C131.226 18.912 131.082 18.792 130.938 18.728C130.794 18.648 130.562 18.64 130.242 18.704C130.018 18.576 129.674 18.656 129.21 18.944C128.746 19.216 128.29 19.64 127.842 20.216C127.778 20.424 127.706 20.592 127.626 20.72C127.546 20.832 127.474 20.912 127.41 20.96C127.378 21.024 127.322 21.096 127.242 21.176C127.178 21.24 127.098 21.304 127.002 21.368C126.89 21.496 126.786 21.632 126.69 21.776C126.594 21.92 126.514 22.04 126.45 22.136C126.29 22.376 126.106 22.704 125.898 23.12C125.69 23.536 125.482 23.992 125.274 24.488C125.066 24.984 124.866 25.48 124.674 25.976C124.482 26.472 124.314 26.928 124.17 27.344C124.042 27.744 123.946 28.056 123.882 28.28C123.77 28.728 123.73 29.056 123.762 29.264C123.81 29.472 123.93 29.712 124.122 29.984C124.266 30.144 124.442 30.264 124.65 30.344C124.858 30.424 125.026 30.472 125.154 30.488ZM137.599 33.272C137.311 33.288 137.071 33.152 136.879 32.864C136.687 32.576 136.599 32.336 136.615 32.144C136.631 31.888 136.703 31.52 136.831 31.04C136.959 30.56 137.103 30.072 137.263 29.576C137.423 29.08 137.567 28.688 137.695 28.4C137.759 28.144 137.815 27.92 137.863 27.728C137.927 27.52 137.967 27.384 137.983 27.32C138.031 27.256 138.103 27.088 138.199 26.816C138.311 26.544 138.399 26.28 138.463 26.024C138.495 25.896 138.559 25.656 138.655 25.304C138.767 24.936 138.895 24.512 139.039 24.032C139.199 23.552 139.351 23.08 139.495 22.616C139.655 22.152 139.791 21.744 139.903 21.392C140.015 21.04 140.087 20.808 140.119 20.696C140.247 20.504 140.343 20.32 140.407 20.144C140.471 19.968 140.511 19.848 140.527 19.784C140.623 19.72 140.679 19.64 140.695 19.544C140.711 19.432 140.719 19.344 140.719 19.28C140.719 19.2 140.743 19.136 140.791 19.088C140.855 19.04 140.887 18.984 140.887 18.92C140.951 18.872 140.991 18.864 141.007 18.896C141.023 18.928 141.071 18.904 141.151 18.824L141.271 18.008L143.407 17.984C143.375 18.176 143.327 18.416 143.263 18.704C143.199 18.976 143.047 19.344 142.807 19.808C142.727 20.128 142.631 20.416 142.519 20.672C142.423 20.928 142.383 21.096 142.399 21.176C142.367 21.208 142.295 21.368 142.183 21.656C142.087 21.944 141.967 22.296 141.823 22.712C141.695 23.128 141.559 23.544 141.415 23.96C141.287 24.376 141.167 24.744 141.055 25.064C140.959 25.368 140.895 25.56 140.863 25.64C140.735 25.896 140.591 26.272 140.431 26.768C140.271 27.264 140.031 27.936 139.711 28.784C139.583 29.04 139.423 29.424 139.231 29.936C139.055 30.448 138.911 30.912 138.799 31.328C138.623 31.952 138.463 32.4 138.319 32.672C138.191 32.944 138.071 33.104 137.959 33.152C137.847 33.216 137.727 33.256 137.599 33.272ZM137.815 19.16C137.159 19.224 136.711 19.144 136.471 18.92C136.247 18.696 136.167 18.456 136.231 18.2C136.279 18.008 136.391 17.848 136.567 17.72C136.759 17.576 137.103 17.456 137.599 17.36C137.775 17.328 137.999 17.288 138.271 17.24C138.559 17.192 138.831 17.144 139.087 17.096C139.615 17.032 140.047 16.976 140.383 16.928C140.735 16.88 141.095 16.84 141.463 16.808C141.831 16.776 142.295 16.744 142.855 16.712C143.319 16.68 143.711 16.656 144.031 16.64C144.367 16.608 144.535 16.592 144.535 16.592C144.583 16.592 144.751 16.608 145.039 16.64C145.327 16.672 145.639 16.712 145.975 16.76C146.311 16.808 146.559 16.864 146.719 16.928C147.087 17.008 147.383 17.152 147.607 17.36C147.831 17.568 147.975 17.808 148.039 18.08C148.087 18.272 148.087 18.424 148.039 18.536C147.991 18.632 147.903 18.712 147.775 18.776C147.407 18.888 147.103 18.984 146.863 19.064C146.639 19.128 146.415 19.12 146.191 19.04C146.111 18.96 146.015 18.888 145.903 18.824C145.807 18.76 145.631 18.712 145.375 18.68C145.135 18.632 144.751 18.592 144.223 18.56C143.775 18.608 143.383 18.632 143.047 18.632C142.711 18.632 142.543 18.672 142.543 18.752L141.127 18.824L139.951 18.944C139.791 18.96 139.567 18.984 139.279 19.016C138.991 19.032 138.711 19.056 138.439 19.088C138.167 19.104 137.959 19.128 137.815 19.16ZM143.484 32.792C143.196 32.632 143.036 32.456 143.004 32.264C142.988 32.072 143.1 31.736 143.34 31.256C143.58 30.776 143.956 30.032 144.468 29.024C144.852 28.304 145.108 27.744 145.236 27.344C145.38 26.928 145.46 26.632 145.476 26.456C145.492 26.28 145.5 26.168 145.5 26.12C145.468 25.976 145.484 25.864 145.548 25.784C145.612 25.688 145.716 25.608 145.86 25.544C145.94 25.464 146.124 25.32 146.412 25.112C146.7 24.904 146.924 24.656 147.084 24.368C147.228 24.032 147.388 23.688 147.564 23.336C147.756 22.984 148.004 22.544 148.308 22.016C148.612 21.472 149.02 20.768 149.532 19.904C149.852 19.344 150.228 18.712 150.66 18.008C151.108 17.304 151.548 16.664 151.98 16.088C152.156 15.864 152.34 15.688 152.532 15.56C152.724 15.432 152.892 15.368 153.036 15.368C153.388 15.368 153.74 15.464 154.092 15.656C154.444 15.832 154.756 16.056 155.028 16.328C155.3 16.6 155.484 16.856 155.58 17.096C155.66 17.224 155.692 17.496 155.676 17.912C155.66 18.328 155.628 18.832 155.58 19.424C155.532 20.016 155.476 20.648 155.412 21.32C155.364 21.976 155.292 22.752 155.196 23.648C155.1 24.544 155.004 25.48 154.908 26.456C154.828 27.432 154.764 28.376 154.716 29.288C154.668 30.184 154.668 30.968 154.716 31.64C154.732 31.784 154.732 31.92 154.716 32.048C154.7 32.176 154.692 32.28 154.692 32.36C154.596 32.456 154.388 32.496 154.068 32.48C153.748 32.48 153.436 32.432 153.132 32.336C152.828 32.24 152.66 32.12 152.628 31.976C152.58 31.928 152.548 31.888 152.532 31.856C152.516 31.824 152.516 31.672 152.532 31.4C152.548 31.112 152.572 30.592 152.604 29.84L152.724 26.168L152.412 26.192C152.268 26.192 152.004 26.208 151.62 26.24C151.252 26.272 150.844 26.32 150.396 26.384C149.964 26.432 149.564 26.488 149.196 26.552C148.828 26.6 148.572 26.648 148.428 26.696C148.284 26.696 148.108 26.792 147.9 26.984C147.708 27.176 147.524 27.424 147.348 27.728C147.284 27.952 147.164 28.192 146.988 28.448C146.828 28.688 146.748 28.848 146.748 28.928C146.636 29.008 146.54 29.104 146.46 29.216C146.396 29.328 146.364 29.384 146.364 29.384C146.364 29.48 146.292 29.72 146.148 30.104C146.004 30.472 145.828 30.888 145.62 31.352C145.412 31.8 145.196 32.192 144.972 32.528L144.324 33.44L143.484 32.792ZM149.22 24.536C149.22 24.536 149.308 24.52 149.484 24.488C149.66 24.456 149.868 24.424 150.108 24.392C150.364 24.344 150.588 24.32 150.78 24.32C151.148 24.224 151.452 24.152 151.692 24.104C151.948 24.056 152.156 24.032 152.316 24.032C152.476 24.016 152.604 24.032 152.7 24.08C152.764 24.16 152.82 24.208 152.868 24.224C152.932 24.24 152.964 24.248 152.964 24.248C152.98 24.216 153.012 24.048 153.06 23.744C153.108 23.44 153.164 23.064 153.228 22.616C153.292 22.168 153.356 21.704 153.42 21.224C153.484 20.728 153.54 20.272 153.588 19.856C153.636 19.424 153.668 19.088 153.684 18.848C153.7 18.544 153.692 18.272 153.66 18.032C153.628 17.776 153.612 17.648 153.612 17.648C153.516 17.648 153.332 17.824 153.06 18.176C152.804 18.512 152.5 18.968 152.148 19.544C151.812 20.104 151.476 20.712 151.14 21.368C150.98 21.672 150.828 21.912 150.684 22.088C150.556 22.264 150.452 22.352 150.372 22.352C150.34 22.384 150.252 22.512 150.108 22.736C149.98 22.944 149.836 23.184 149.676 23.456C149.532 23.712 149.404 23.952 149.292 24.176C149.196 24.384 149.172 24.504 149.22 24.536ZM158.525 34.208C158.525 34.208 158.421 34.184 158.213 34.136C158.021 34.104 157.861 34.096 157.733 34.112C157.477 34.064 157.221 33.928 156.965 33.704C156.709 33.496 156.605 33.264 156.653 33.008C156.717 32.944 156.757 32.808 156.773 32.6C156.805 32.392 156.821 32.224 156.821 32.096C156.869 31.968 156.901 31.872 156.917 31.808C156.933 31.744 156.973 31.584 157.037 31.328C157.069 31.056 157.133 30.68 157.229 30.2C157.341 29.704 157.461 29.176 157.589 28.616C157.717 28.04 157.845 27.496 157.973 26.984C158.117 26.456 158.237 26.016 158.333 25.664C158.445 25.312 158.525 25.112 158.573 25.064C158.573 25.064 158.573 25.04 158.573 24.992C158.573 24.928 158.565 24.864 158.549 24.8C158.549 24.8 158.557 24.728 158.573 24.584C158.605 24.424 158.677 24.24 158.789 24.032C158.853 23.856 158.901 23.664 158.933 23.456C158.981 23.248 159.005 23.112 159.005 23.048C159.069 22.968 159.149 22.776 159.245 22.472C159.357 22.152 159.469 21.832 159.581 21.512C159.661 21.256 159.749 20.984 159.845 20.696C159.957 20.408 160.053 20.16 160.133 19.952C160.229 19.728 160.277 19.616 160.277 19.616C160.277 19.552 160.277 19.52 160.277 19.52C160.277 19.504 160.277 19.496 160.277 19.496C160.325 19.432 160.461 19.104 160.685 18.512C160.925 17.92 161.245 17.152 161.645 16.208C161.709 16.08 161.781 15.936 161.861 15.776C161.957 15.616 162.005 15.504 162.005 15.44C162.085 15.312 162.229 15.248 162.437 15.248C162.645 15.248 162.861 15.296 163.085 15.392C163.309 15.472 163.461 15.6 163.541 15.776L164.093 16.16L163.277 17.912C163.053 18.36 162.861 18.776 162.701 19.16C162.541 19.528 162.461 19.744 162.461 19.808C162.461 19.808 162.429 19.904 162.365 20.096C162.301 20.288 162.221 20.536 162.125 20.84C162.045 21.128 161.965 21.416 161.885 21.704C161.725 22.216 161.573 22.64 161.429 22.976C161.301 23.312 161.237 23.512 161.237 23.576C161.237 23.544 161.405 23.52 161.741 23.504C162.077 23.472 162.493 23.448 162.989 23.432C163.501 23.4 164.021 23.376 164.549 23.36C165.093 23.328 165.573 23.296 165.989 23.264C166.421 23.232 166.717 23.2 166.877 23.168L168.101 23L168.677 20.864C168.789 20.4 168.933 19.848 169.109 19.208C169.301 18.568 169.469 18.016 169.613 17.552C169.837 16.8 170.093 16.256 170.381 15.92C170.669 15.568 170.909 15.392 171.101 15.392C171.373 15.392 171.589 15.504 171.749 15.728C171.909 15.952 172.021 16.128 172.085 16.256C172.293 16.416 172.389 16.608 172.373 16.832C172.373 17.056 172.253 17.36 172.013 17.744C171.789 18.176 171.597 18.648 171.437 19.16C171.293 19.672 171.157 20.088 171.029 20.408C171.045 20.6 171.029 20.76 170.981 20.888C170.933 21 170.877 21.096 170.813 21.176C170.781 21.208 170.717 21.328 170.621 21.536C170.541 21.744 170.461 21.952 170.381 22.16C170.317 22.368 170.285 22.496 170.285 22.544C170.301 22.656 170.285 22.8 170.237 22.976C170.189 23.136 170.133 23.248 170.069 23.312C170.053 23.408 169.997 23.656 169.901 24.056C169.805 24.44 169.685 24.896 169.541 25.424C169.413 25.936 169.277 26.44 169.133 26.936C169.005 27.432 168.877 27.84 168.749 28.16C168.765 28.272 168.733 28.416 168.653 28.592C168.573 28.752 168.541 28.896 168.557 29.024C168.493 29.216 168.413 29.464 168.317 29.768C168.237 30.056 168.205 30.24 168.221 30.32C168.157 30.688 168.069 31.096 167.957 31.544C167.845 31.992 167.749 32.384 167.669 32.72C167.589 33.056 167.549 33.248 167.549 33.296C167.501 33.36 167.357 33.368 167.117 33.32C166.893 33.288 166.693 33.24 166.517 33.176C166.213 33 165.981 32.752 165.821 32.432C165.677 32.128 165.685 31.792 165.845 31.424C165.925 31.296 166.013 30.976 166.109 30.464C166.221 29.952 166.333 29.448 166.445 28.952C166.525 28.712 166.605 28.4 166.685 28.016C166.765 27.632 166.837 27.248 166.901 26.864C166.981 26.48 167.045 26.152 167.093 25.88C167.157 25.608 167.205 25.456 167.237 25.424C167.237 25.36 167.237 25.304 167.237 25.256C167.237 25.208 167.237 25.184 167.237 25.184C167.205 25.152 167.029 25.136 166.709 25.136C166.389 25.12 165.989 25.12 165.509 25.136C165.029 25.152 164.517 25.184 163.973 25.232C163.445 25.28 162.949 25.344 162.485 25.424C162.309 25.44 162.077 25.448 161.789 25.448C161.501 25.448 161.293 25.456 161.165 25.472C160.989 25.472 160.837 25.48 160.709 25.496C160.597 25.496 160.541 25.496 160.541 25.496C160.525 25.544 160.477 25.704 160.397 25.976C160.317 26.248 160.229 26.576 160.133 26.96C160.037 27.328 159.941 27.712 159.845 28.112C159.749 28.512 159.661 28.88 159.581 29.216C159.517 29.536 159.477 29.776 159.461 29.936C159.413 30.224 159.341 30.592 159.245 31.04C159.149 31.472 159.045 31.912 158.933 32.36C158.837 32.808 158.749 33.2 158.669 33.536C158.605 33.888 158.557 34.112 158.525 34.208ZM175.297 32.216C174.465 31.912 173.817 31.312 173.353 30.416C172.889 29.504 172.761 28.44 172.969 27.224C173.001 26.76 173.073 26.344 173.185 25.976C173.313 25.608 173.409 25.24 173.473 24.872C173.473 24.84 173.489 24.792 173.521 24.728C173.553 24.648 173.561 24.576 173.545 24.512C173.577 24.416 173.649 24.24 173.761 23.984C173.873 23.712 173.985 23.456 174.097 23.216C174.209 22.96 174.281 22.816 174.313 22.784C174.393 22.752 174.433 22.712 174.433 22.664C174.433 22.6 174.433 22.568 174.433 22.568C174.433 22.44 174.521 22.208 174.697 21.872C174.873 21.536 175.097 21.168 175.369 20.768C175.657 20.352 175.945 19.952 176.233 19.568C176.521 19.184 176.777 18.864 177.001 18.608C177.225 18.352 177.369 18.224 177.433 18.224C177.481 18.224 177.521 18.192 177.553 18.128C177.585 18.064 177.617 18.024 177.649 18.008C177.697 17.944 177.841 17.848 178.081 17.72C178.337 17.592 178.633 17.456 178.969 17.312C179.321 17.152 179.665 17.008 180.001 16.88C180.337 16.752 180.625 16.664 180.865 16.616C181.569 16.36 182.201 16.36 182.761 16.616C183.321 16.872 183.769 17.352 184.105 18.056C184.441 18.76 184.617 19.656 184.633 20.744C184.569 21.096 184.529 21.432 184.513 21.752C184.513 22.056 184.489 22.28 184.441 22.424C184.425 22.776 184.369 23.176 184.273 23.624C184.177 24.072 184.081 24.464 183.985 24.8C183.889 25.12 183.817 25.288 183.769 25.304C183.769 25.368 183.753 25.432 183.721 25.496C183.689 25.544 183.673 25.592 183.673 25.64C183.689 25.72 183.633 25.904 183.505 26.192C183.377 26.48 183.225 26.8 183.049 27.152C182.873 27.504 182.713 27.808 182.569 28.064C182.425 28.32 182.337 28.448 182.305 28.448C182.305 28.448 182.289 28.456 182.257 28.472C182.225 28.472 182.217 28.504 182.233 28.568C182.249 28.6 182.193 28.68 182.065 28.808C181.937 28.936 181.793 29.064 181.633 29.192C181.489 29.304 181.377 29.36 181.297 29.36C181.297 29.36 181.281 29.368 181.249 29.384C181.233 29.4 181.249 29.432 181.297 29.48C181.313 29.512 181.185 29.64 180.913 29.864C180.657 30.072 180.329 30.32 179.929 30.608C179.529 30.88 179.129 31.136 178.729 31.376C178.329 31.6 178.009 31.736 177.769 31.784C177.721 31.848 177.673 31.888 177.625 31.904C177.577 31.904 177.513 31.912 177.433 31.928C177.321 32.04 177.121 32.128 176.833 32.192C176.561 32.272 176.281 32.312 175.993 32.312C175.705 32.328 175.473 32.296 175.297 32.216ZM177.721 29.696C178.041 29.584 178.361 29.432 178.681 29.24C179.017 29.032 179.305 28.816 179.545 28.592C179.801 28.352 179.961 28.128 180.025 27.92C180.073 27.744 180.121 27.616 180.169 27.536C180.233 27.44 180.297 27.368 180.361 27.32C180.489 27.192 180.649 26.952 180.841 26.6C181.049 26.248 181.249 25.864 181.441 25.448C181.633 25.032 181.793 24.64 181.921 24.272C182.065 23.888 182.145 23.608 182.161 23.432C182.161 23.4 182.185 23.264 182.233 23.024C182.281 22.784 182.337 22.608 182.401 22.496C182.433 22.432 182.441 22.376 182.425 22.328C182.425 22.264 182.417 22.096 182.401 21.824C182.401 21.552 182.409 21.064 182.425 20.36C182.409 19.784 182.353 19.36 182.257 19.088C182.177 18.8 182.073 18.624 181.945 18.56C181.913 18.528 181.833 18.496 181.705 18.464C181.593 18.432 181.473 18.416 181.345 18.416C181.217 18.4 181.097 18.416 180.985 18.464C180.905 18.48 180.793 18.52 180.649 18.584C180.521 18.632 180.409 18.656 180.313 18.656C180.185 18.72 180.097 18.8 180.049 18.896C180.001 18.976 179.977 19.04 179.977 19.088C179.977 19.216 179.921 19.336 179.809 19.448C179.697 19.544 179.569 19.552 179.425 19.472C179.169 19.488 178.993 19.52 178.897 19.568C178.817 19.616 178.737 19.72 178.657 19.88C178.593 20.024 178.457 20.272 178.249 20.624C177.801 20.976 177.481 21.32 177.289 21.656C177.097 21.992 176.985 22.248 176.953 22.424C176.617 23.032 176.369 23.504 176.209 23.84C176.049 24.16 175.937 24.448 175.873 24.704C175.809 24.96 175.761 25.272 175.729 25.64C175.585 25.912 175.481 26.2 175.417 26.504C175.353 26.808 175.297 27.008 175.249 27.104C175.217 27.184 175.201 27.336 175.201 27.56C175.201 27.768 175.209 28.008 175.225 28.28C175.257 28.536 175.289 28.776 175.321 29C175.369 29.208 175.417 29.36 175.465 29.456C175.561 29.824 175.793 30.032 176.161 30.08C176.529 30.128 177.049 30 177.721 29.696ZM188.487 25.712C188.151 25.824 187.871 25.88 187.647 25.88C187.423 25.864 187.175 25.76 186.903 25.568C186.583 25.248 186.479 24.928 186.591 24.608C186.703 24.272 186.991 23.944 187.455 23.624C187.775 23.432 188.007 23.336 188.151 23.336C188.311 23.32 188.543 23.376 188.847 23.504C189.375 23.84 189.607 24.216 189.543 24.632C189.495 25.032 189.143 25.392 188.487 25.712ZM186.807 30.752C186.471 30.864 186.191 30.92 185.967 30.92C185.743 30.904 185.495 30.8 185.223 30.608C184.903 30.288 184.799 29.968 184.911 29.648C185.023 29.312 185.311 28.984 185.775 28.664C186.095 28.472 186.327 28.376 186.471 28.376C186.631 28.36 186.863 28.416 187.167 28.544C187.695 28.88 187.927 29.256 187.863 29.672C187.815 30.072 187.463 30.432 186.807 30.752Z" fill="black"/>
</svg>
