<svg width="184" height="48" viewBox="0 0 184 48" fill="none" xmlns="http://www.w3.org/2000/svg">
<path fill-rule="evenodd" clip-rule="evenodd" d="M26.5851 6.08693C28.1263 6.74037 29.5627 7.68097 30.1912 8.76731C30.8905 9.97618 31.5553 11.5233 31.9254 12.46H33.2813C33.5072 12.46 33.7207 12.5621 33.8607 12.7372C33.9094 12.7981 33.9524 12.8697 33.9844 12.9496C34.251 13.455 34.3763 14.4973 36.8487 16.291C38.513 17.4984 38.5301 18.5401 39.1811 19.569C39.7683 20.4972 40.0814 21.5326 40.5089 22.9462C40.546 23.0688 40.5839 23.1941 40.6229 23.3225C41.0831 24.8364 41.1809 26.3859 41.9682 27.8454C41.9968 27.8984 42.0253 27.9513 42.0538 28.0041C42.4521 28.7429 42.8369 29.4639 43.1241 30.1164C43.4049 30.7544 43.6309 31.4094 43.6468 32.0031C43.664 32.6444 44.0098 33.2751 44.5966 33.9108C45.1817 34.5446 45.9258 35.0985 46.6046 35.601C47.4698 36.2414 47.8821 37.1974 47.9775 38.0386C48.0255 38.4614 47.9976 38.8864 47.8853 39.2614C47.7771 39.6229 47.5634 40.021 47.1722 40.2601C46.7803 40.4995 46.2957 40.5061 45.9335 40.4784C45.5356 40.4479 45.095 40.3574 44.6705 40.251C44.2418 40.1435 43.8005 40.0122 43.3989 39.8907C43.3426 39.8736 43.2873 39.8569 43.233 39.8404C42.8915 39.7368 42.5897 39.6453 42.3359 39.5784C41.5925 39.3825 41.1569 39.0466 40.7512 38.7338C40.7292 38.7169 40.7074 38.7 40.6856 38.6833C40.2838 38.3745 40.5563 38.0279 39.639 37.6615C39.3192 37.5337 39.2585 37.4648 38.6078 37.5333C38.2704 38.3449 37.5735 39.2786 36.2984 40.0957C34.8693 41.0116 32.9724 41.139 31.3722 41.0095C29.7562 40.8787 28.2708 40.4708 27.5464 40.1491C27.1568 39.9761 26.8337 39.6878 26.564 39.389C26.3855 39.1912 26.2136 38.9697 26.0474 38.739C23.2713 39.1016 21.8258 39.6239 20.9666 40.1288C20.3357 40.4995 20.0371 40.8271 19.6974 41.1997C19.5279 41.3857 19.3482 41.5829 19.1118 41.8022C18.9165 41.9835 18.637 42.0459 18.3816 41.9654C17.9046 41.8151 17.5468 41.5567 17.307 41.1966C17.0825 40.8596 17.0017 40.4913 16.9568 40.2011C16.9376 40.0775 16.9226 39.9497 16.9093 39.8361C16.9069 39.8153 16.9045 39.7949 16.9022 39.7752C16.8862 39.6406 16.871 39.5224 16.8501 39.4097C16.8087 39.1861 16.7512 39.0212 16.6606 38.8868C16.0595 37.9944 16.5155 37.0883 16.7991 36.5807C16.8739 36.4469 16.9391 36.3367 16.9988 36.2357C17.0836 36.0924 17.1574 35.9677 17.2318 35.8208C17.3479 35.5914 17.3798 35.4593 17.3798 35.3835C17.3798 35.2415 17.3855 35.1095 17.391 34.98C17.4024 34.7153 17.4133 34.4616 17.3743 34.1563C17.3658 34.0899 17.3551 34.0251 17.3418 33.9619C17.2542 34.0666 17.1401 34.1561 16.9974 34.2195C16.8156 34.3001 16.6291 34.3189 16.4825 34.3232C16.1921 34.3316 15.7795 34.2848 15.2077 34.2012C14.827 34.1455 14.6185 34.1446 14.5151 34.1526C14.4383 34.2962 14.2556 34.5718 13.8677 34.6919C13.5068 34.8036 13.0673 34.7481 12.5714 34.6364C12.1607 34.5439 11.8844 34.5521 11.6929 34.5845C11.4979 34.6175 11.3525 34.6805 11.171 34.763C11.1605 34.7677 11.1488 34.7732 11.1361 34.7791C10.9829 34.8502 10.6746 34.9933 10.3251 34.976C9.8893 34.9545 9.55305 34.7144 9.27723 34.4289C9.00714 34.1493 8.72115 34.0806 8.27065 33.9722L8.26322 33.9704L8.26163 33.97C8.05628 33.9206 7.75454 33.8481 7.48149 33.6899C7.18455 33.5179 6.94253 33.2607 6.79365 32.8933C6.76149 32.8935 6.71557 32.8944 6.6505 32.8967C6.64329 32.897 6.63518 32.8973 6.62624 32.8977C6.48852 32.9035 6.15327 32.9176 5.84932 32.764C5.43335 32.5539 5.25926 32.159 5.20895 31.7669C5.20895 31.7669 5.19086 31.6933 5.00055 31.5205C4.86227 31.395 4.71007 31.2814 4.52285 31.1417C4.42605 31.0695 4.3199 30.9903 4.20148 30.8988C3.85633 30.6322 3.42711 30.2758 3.12155 29.7913C0.346946 27.703 -0.0127025 24.3738 0.000331688 22.1149C0.00328922 21.6023 0.0254519 21.1323 0.0460339 20.7341C0.0485065 20.6863 0.050934 20.6398 0.0532917 20.5947C0.0706307 20.2627 0.0841967 20.0031 0.0841967 19.8018C0.0841967 19.6901 0.090764 19.5802 0.1034 19.4723C0.159514 18.993 0.333244 18.5671 0.561284 18.1956C0.982156 17.5098 1.6157 16.9673 2.14072 16.5565C2.27482 16.4516 2.40621 16.3521 2.52793 16.2601L2.55563 16.2392C2.66815 16.1541 2.77057 16.0767 2.86535 16.0029C2.98644 15.9086 3.0789 15.8322 3.14785 15.7702C3.70755 12.9279 6.20507 10.9416 7.98859 9.9314C8.39127 9.70332 8.77196 9.5165 9.10666 9.37382C12.8228 5.11108 18.0671 5.04474 21.1092 5.00627C21.2417 5.00459 21.37 5.00297 21.4939 5.00105C23.1474 4.97548 25.0099 5.41909 26.5851 6.08693ZM7.99115 11.6462C7.04955 12.2752 6.09278 13.1125 5.42144 14.1188C5.47262 14.0961 5.5242 14.0741 5.57611 14.0528C6.59564 13.635 7.99351 13.4205 9.11853 14.4026C9.79554 14.9937 10.888 15.4344 12.0412 15.7245C13.1797 16.0109 14.27 16.1243 14.8548 16.1243C15.4949 16.1243 16.2165 16.1318 16.903 16.4207C17.6241 16.7242 18.2154 17.2923 18.7372 18.2192C19.012 18.7073 19.6443 18.9876 20.719 19.084C21.4232 19.1472 22.1442 19.123 22.8663 19.0988C23.2466 19.0861 23.6273 19.0733 24.006 19.0733C24.8289 19.0733 25.4207 19.286 25.9369 19.575C26.1967 19.7205 26.4183 19.8678 26.632 20.0098C27.2298 20.4071 27.7657 20.7633 28.9039 20.9238C29.7122 21.0377 30.5611 21.4442 31.3498 21.9454C32.151 22.4545 32.9504 23.1006 33.6686 23.7618C34.3879 24.4241 35.0388 25.1137 35.5419 25.7186C36.0217 26.2955 36.4323 26.8715 36.589 27.2912C36.7721 27.7816 36.7052 28.3506 36.6341 28.7836C36.601 28.9857 36.5591 29.1966 36.5193 29.3971C36.513 29.4289 36.5067 29.4604 36.5005 29.4916C36.4542 29.726 36.4117 29.9484 36.3809 30.1638C36.3173 30.6097 36.3186 30.9391 36.3918 31.1736C36.4497 31.3591 36.5579 31.5134 36.8487 31.63C37.9447 32.0694 38.4745 33.0321 38.7137 33.9058C38.9247 34.6763 38.9406 35.4739 38.8847 36.0534C39.1971 36.0534 39.4892 35.9591 40.1929 36.311C41.2847 36.7471 41.1333 37.1809 41.5925 37.5337L41.6226 37.5569C42.0392 37.8771 42.2673 38.0524 42.7167 38.1708C42.9994 38.2453 43.332 38.3462 43.6701 38.4488C43.7238 38.4651 43.7778 38.4815 43.8316 38.4978C44.2328 38.6191 44.6436 38.7411 45.034 38.839C45.4287 38.9379 45.7743 39.0049 46.0476 39.0258C46.2644 39.0424 46.3642 39.0236 46.3931 39.0179C46.4075 38.9991 46.4392 38.9504 46.4696 38.8487C46.5173 38.6893 46.5402 38.4633 46.5105 38.2006C46.4504 37.6707 46.193 37.1174 45.7189 36.7665L45.7018 36.7538C45.0435 36.2666 44.1939 35.6378 43.5054 34.8919C42.8126 34.1415 42.2018 33.1872 42.1711 32.0416C42.1631 31.7419 42.0363 31.3019 41.77 30.6968C41.5101 30.1061 41.1535 29.4358 40.7505 28.6884C40.7145 28.6215 40.678 28.554 40.6413 28.4859C39.8729 27.0624 39.7125 25.3977 39.209 23.7412C39.1783 23.6402 39.1485 23.542 39.1195 23.4465C38.6622 21.9389 38.4062 21.0951 37.9289 20.3406C37.4341 19.5585 37.6106 18.6519 35.9743 17.4648C33.9617 16.0047 33.7049 15.1286 33.0629 14.2339C33.0144 14.2485 32.9654 14.2621 32.9163 14.275C32.3009 14.4356 31.2634 14.5673 29.5755 14.6244C27.4648 14.6959 23.6146 14.7076 19.9427 14.607C18.1061 14.5567 16.3066 14.4781 14.7867 14.3641C13.2868 14.2515 12.0003 14.1007 11.2255 13.891C9.483 13.4193 8.48138 12.4862 7.99115 11.6462ZM30.2885 12.3476C29.9252 11.4811 29.4221 10.3763 28.9092 9.48967C28.5271 8.8293 27.4676 8.04676 26.0024 7.42553C24.5711 6.81871 22.9164 6.43613 21.517 6.45777C21.4158 6.45934 21.3127 6.46078 21.2078 6.46225C18.1747 6.50479 13.6506 6.56822 10.389 10.1409C10.5327 10.4266 10.8467 10.8042 11.5755 11.154C12.6896 11.6889 14.7698 12.1541 18.6208 12.0353C24.1082 11.8661 28.1616 12.1542 30.2885 12.3476ZM5.57605 30.1019C5.72505 30.2156 5.87405 30.334 6.00008 30.4484C6.24421 30.6701 6.5434 30.9949 6.64732 31.4387C6.79124 31.4326 7.07184 31.4247 7.34068 31.5152C7.72181 31.6437 8.0055 31.9283 8.16015 32.3416C8.18505 32.4081 8.20391 32.4191 8.22811 32.4331C8.28831 32.4679 8.38544 32.5003 8.61279 32.5549C8.6364 32.5606 8.66102 32.5664 8.68655 32.5725C9.10502 32.6713 9.77071 32.8285 10.3456 33.4235C10.3769 33.4559 10.4024 33.4797 10.4223 33.497C10.4523 33.4846 10.4949 33.4663 10.5536 33.4396L10.559 33.4372C10.7513 33.3498 11.0462 33.2157 11.4435 33.1485C11.848 33.0801 12.3216 33.0857 12.8999 33.216C13.0932 33.2596 13.2241 33.2796 13.3086 33.2888C13.348 33.2262 13.4018 33.1521 13.4734 33.08C13.614 32.9385 13.7879 32.8372 13.9905 32.7745C14.3545 32.662 14.8226 32.6721 15.4241 32.76C15.7974 32.8146 16.0491 32.8445 16.2189 32.8581C16.2242 32.8452 16.2298 32.8321 16.2356 32.8188C16.2603 32.7629 16.2885 32.7074 16.3208 32.6525C16.3168 32.6492 16.3128 32.646 16.3089 32.6428C16.0684 32.4471 15.9783 32.1235 16.0839 31.8341C16.1271 31.7154 16.1994 31.613 16.2912 31.5334C16.2263 31.3818 16.2149 31.2395 16.2153 31.1436C16.2158 31.0205 16.2372 30.9056 16.2485 30.8455C16.2528 30.8229 16.2564 30.8041 16.2595 30.7877C16.2644 30.7626 16.2681 30.7434 16.2711 30.7255C16.0811 30.5768 15.9259 30.41 15.8142 30.2006C15.7028 29.9918 15.6602 29.7816 15.6327 29.6463L15.63 29.6329C15.6278 29.6222 15.6256 29.6113 15.6234 29.6003C15.5728 29.3497 15.5071 29.0241 15.184 28.4395C14.9991 28.105 14.8839 27.9354 14.8149 27.8479C14.7649 27.7846 14.7446 27.7701 14.7264 27.757C14.7247 27.7558 14.723 27.7546 14.7213 27.7534C14.7169 27.7501 14.712 27.7467 14.7068 27.7429C14.6406 27.6952 14.5137 27.6037 14.384 27.4292C14.2681 27.2733 14.1615 27.0689 14.0382 26.7925C13.9849 26.6728 13.944 26.6102 13.9213 26.5804C13.8606 26.5807 13.8072 26.5875 13.7151 26.5991C13.6574 26.6064 13.5845 26.6156 13.4851 26.6264C13.261 26.6507 12.9761 26.6696 12.6422 26.6275C12.3535 26.5912 12.0662 26.5251 11.8271 26.369C11.5437 26.184 11.4274 25.9401 11.3671 25.7704C11.3325 25.6727 11.3214 25.6328 11.315 25.6094C11.3086 25.5867 11.3067 25.5795 11.2914 25.5499C11.2901 25.5472 11.2879 25.543 11.2844 25.5374C11.2689 25.552 11.2517 25.5684 11.2327 25.5869C11.2141 25.605 11.193 25.6263 11.1694 25.6501C10.9209 25.9005 10.4 26.4254 9.63431 26.4422C9.31335 26.4493 9.17465 26.5263 9.05049 26.6132C8.99018 26.6554 8.95225 26.6857 8.90254 26.7254C8.86268 26.7573 8.81525 26.7952 8.74263 26.8501C8.60904 26.9512 8.43875 27.0684 8.21905 27.1648C8.0718 27.2294 7.89687 27.2899 7.74984 27.3409C7.71807 27.3519 7.6876 27.3624 7.659 27.3724C7.47745 27.4362 7.32556 27.4939 7.19768 27.5594C6.9422 27.6903 6.93847 27.7654 6.9364 27.8071L6.93632 27.8087C6.9084 28.3598 6.51398 28.7379 6.21713 28.9483C5.94501 29.1412 5.61978 29.2919 5.29369 29.3964C5.51481 29.561 5.62294 29.8352 5.57605 30.1019ZM5.82252 26.8024C5.82357 26.8011 5.82462 26.7999 5.82567 26.7986L5.82146 26.7975C5.82181 26.7991 5.82216 26.8008 5.82252 26.8024ZM18.4547 32.7696C18.6827 33.1725 18.7903 33.5937 18.8389 33.9741C18.8945 34.4095 18.8749 34.8823 18.8627 35.1742C18.859 35.2626 18.856 35.3344 18.856 35.3835C18.856 35.8034 18.6989 36.1823 18.5524 36.4719C18.4627 36.6491 18.3401 36.858 18.2344 37.0379C18.1802 37.1304 18.1304 37.2152 18.0918 37.2842C17.7867 37.8302 17.8213 37.9783 17.8899 38.0802C18.1342 38.4428 18.2419 38.8219 18.3023 39.1479C18.3323 39.3099 18.352 39.4679 18.3684 39.6058C18.3712 39.6296 18.3739 39.6527 18.3765 39.6751C18.3899 39.789 18.4013 39.8859 18.416 39.9808C18.4413 40.1438 18.4699 40.2494 18.5011 40.322C18.8867 39.9033 19.4133 39.3459 20.2114 38.8769C21.2169 38.2861 22.6968 37.7668 25.1416 37.3951C24.984 37.16 24.8225 36.9257 24.6497 36.692C24.2483 36.1492 23.833 35.6785 23.3745 35.3371C22.4852 34.6751 22.1047 33.8316 21.8365 33.2366C21.6934 32.9191 21.6009 32.7152 21.4941 32.5607C21.4571 32.5073 21.4242 32.4687 21.3939 32.4401C20.5125 32.6084 19.5156 32.7164 18.4547 32.7696ZM22.9025 32.0518C23.0014 32.2353 23.0859 32.4234 23.1611 32.5905C23.1692 32.6088 23.1773 32.6267 23.1853 32.6444C23.4512 33.2343 23.7056 33.7587 24.2635 34.1741C24.8891 34.6398 25.404 35.2406 25.8421 35.8331C26.1386 36.2341 26.4224 36.6638 26.6809 37.0554C26.7974 37.2318 26.9088 37.4005 27.0139 37.5553C27.2508 37.9041 27.4629 38.1946 27.6663 38.4199C27.8731 38.649 28.0332 38.7677 28.1522 38.8205C28.6972 39.0625 30.0135 39.4377 31.4929 39.5574C32.988 39.6785 34.48 39.524 35.4944 38.8739C36.739 38.0763 37.1969 37.222 37.34 36.6965C37.4014 36.4714 37.4015 36.3207 37.3944 36.2626C37.3868 36.2001 37.3874 36.1369 37.3963 36.0745C37.4584 35.6364 37.4651 34.9305 37.2886 34.2858C37.1118 33.6399 36.7908 33.1793 36.2931 32.9798C35.5878 32.697 35.1682 32.2023 34.981 31.6025C34.809 31.0517 34.8479 30.4594 34.9191 29.9606C34.9558 29.7036 35.0051 29.448 35.0516 29.2126C35.0582 29.1792 35.0647 29.1464 35.0712 29.114C35.1113 28.9116 35.1479 28.7272 35.1769 28.5508C35.2498 28.1063 35.2386 27.8881 35.2038 27.7949C35.1426 27.6309 34.884 27.2239 34.4009 26.643C33.941 26.0902 33.3352 25.4474 32.6615 24.8271C31.9868 24.2058 31.2571 23.6193 30.5506 23.1703C29.8316 22.7134 29.1943 22.4364 28.6952 22.366C28.2696 22.306 27.8942 22.216 27.5602 22.1081C27.5495 22.319 27.5054 22.5359 27.4201 22.7547C27.2298 23.2432 26.8586 23.6809 26.3273 24.0688C26.1481 24.1996 25.9489 24.3262 25.729 24.4487C25.4622 24.5974 25.1971 24.7146 24.9341 24.8015C23.5587 25.2559 22.3997 24.8354 21.5618 24.1572C20.7508 23.5008 20.2109 22.589 19.9415 21.9108C19.8559 21.6953 19.8791 21.4526 20.0041 21.2568C20.129 21.061 20.3408 20.9354 20.5746 20.9184C21.1638 20.8757 22.0935 20.7601 22.9835 20.5542C22.2241 20.5786 21.3543 20.6039 20.5853 20.5349C19.4344 20.4316 18.1058 20.0975 17.4468 18.9267C17.0347 18.1948 16.6611 17.9028 16.3239 17.7609C15.9521 17.6044 15.522 17.5812 14.8548 17.5812C14.1323 17.5812 12.9192 17.4489 11.6766 17.1363C10.4486 16.8274 9.082 16.3159 8.14042 15.4939C7.64685 15.063 6.95922 15.0635 6.14226 15.3983C5.33144 15.7306 4.63599 16.306 4.40295 16.582C4.23104 16.7855 3.99507 16.9789 3.77996 17.1465C3.67628 17.2272 3.56537 17.3111 3.45505 17.3944L3.42556 17.4167C3.30383 17.5087 3.18123 17.6017 3.0578 17.6982C2.86956 17.8455 2.68852 17.9946 2.52119 18.1469C3.04482 18.2944 3.59956 18.4783 4.09041 18.6918C4.5301 18.883 4.97995 19.1237 5.30488 19.4236C5.62428 19.7183 5.98648 20.2416 5.74822 20.8883C5.4002 21.8328 4.40718 22.3189 3.53919 22.5662C2.88672 22.7522 2.16476 22.8448 1.48801 22.8617C1.54794 24.4124 1.85754 26.1162 2.88523 27.4925C2.93298 27.438 2.98905 27.388 3.05386 27.3443C3.22024 27.2323 3.39028 27.2002 3.48043 27.1873C3.57469 27.1737 3.67222 27.1703 3.73553 27.168C3.74747 27.1676 3.75984 27.1672 3.77127 27.1668C3.83187 27.1647 3.88654 27.1628 3.94857 27.1586C4.07078 27.1504 4.21121 27.1337 4.37565 27.0917C4.34093 26.9266 4.31642 26.7312 4.31642 26.4991C4.31642 26.1499 4.40617 25.6684 4.86272 25.4042C5.24176 25.1849 5.65998 25.2619 5.84802 25.3007C5.96783 25.3255 6.08859 25.3583 6.19165 25.3868C6.211 25.3921 6.22979 25.3974 6.24816 25.4025C6.33458 25.4265 6.41137 25.4478 6.48974 25.4672C6.51915 25.4745 6.54678 25.4809 6.57274 25.4866C6.60142 25.2549 6.69792 24.9044 7.05738 24.6532C7.40225 24.4123 7.84867 24.3688 8.30209 24.3924C8.53462 24.4044 8.68031 24.4037 8.7686 24.3994C8.76981 24.3975 8.77103 24.3956 8.77226 24.3937C8.82784 24.308 8.90235 24.2094 9.00925 24.107C9.22029 23.9048 9.50794 23.7356 9.91109 23.583C10.301 23.4353 10.7036 23.3485 11.0818 23.4677C11.2721 23.5277 11.4158 23.6304 11.5183 23.7273C11.5582 23.7052 11.6051 23.678 11.6595 23.6446C12.0248 23.4203 12.4627 23.2733 12.9202 23.4233C13.3327 23.5585 13.571 23.8835 13.6927 24.06C13.7674 24.1683 13.8161 24.2458 13.8569 24.3107C13.9112 24.3971 13.9515 24.4613 14.0207 24.5464C14.0804 24.6199 14.1229 24.6537 14.1543 24.6706C14.1899 24.6762 14.2198 24.6824 14.2408 24.6869C14.3019 24.6999 14.3676 24.7167 14.4272 24.7323C14.4572 24.7402 14.4874 24.7482 14.5182 24.7564C14.6188 24.7832 14.7255 24.8116 14.8497 24.8409C15.1678 24.916 15.5565 24.9855 15.9825 24.9855C16.3549 24.9855 16.7681 25.0851 17.0372 25.4477C17.2335 25.7122 17.265 26.0308 17.2757 26.1445C17.5979 26.1884 17.9493 26.3079 18.182 26.6242C18.398 26.9177 18.3999 27.2524 18.4005 27.3707C18.4006 27.3768 18.4006 27.3823 18.4006 27.3873C18.4008 27.4021 18.401 27.4155 18.4013 27.4276C18.7458 27.564 18.9907 27.7795 19.1461 28.0526C19.2273 28.1953 19.2784 28.3538 19.3088 28.4672C19.5705 28.4478 19.8086 28.431 19.9889 28.444C20.0864 28.451 20.2306 28.4698 20.3796 28.539C20.5527 28.6193 20.6794 28.7424 20.7649 28.8805C20.8319 28.9888 20.8666 29.0976 20.8803 29.1408L20.8814 29.1443C20.8883 29.166 20.8935 29.1825 20.8978 29.1967C20.9062 29.2235 20.9118 29.2416 20.9217 29.2692C20.9417 29.325 20.9769 29.4091 21.0613 29.5319C21.1002 29.5225 21.1606 29.5059 21.2515 29.4765C21.2828 29.4664 21.3164 29.4551 21.3523 29.4431C21.7393 29.3135 22.3904 29.0955 23.1905 29.2656C23.3621 29.3021 23.5154 29.3402 23.6411 29.3828C23.7037 29.404 23.777 29.4321 23.8494 29.4701C23.8599 29.4756 23.8724 29.4823 23.8864 29.4904C24.0152 29.4023 24.1641 29.3336 24.332 29.2925C24.3321 29.2889 24.3322 29.2853 24.3323 29.2817C24.3363 29.1515 24.3438 28.9076 24.4063 28.6964C24.4455 28.5643 24.5208 28.3861 24.6775 28.2306C24.8343 28.0751 25.0297 27.9846 25.2357 27.9526C25.2495 27.9433 25.2738 27.9252 25.309 27.8927C25.4077 27.8015 25.5352 27.6495 25.6927 27.4217C26.0081 26.9656 26.362 26.3285 26.7799 25.5671C27.1232 24.9416 27.4327 24.5263 27.7302 24.2873C27.878 24.1687 28.0851 24.0427 28.3422 24.0162C28.6379 23.9858 28.9393 24.0983 29.1301 24.3495C29.3747 24.6713 29.3086 25.1279 28.9825 25.3693C28.857 25.4622 28.7113 25.5097 28.5656 25.5146C28.4637 25.632 28.2999 25.8566 28.078 26.261C27.6707 27.0029 27.2789 27.7125 26.912 28.243C26.7284 28.5085 26.5306 28.7597 26.3179 28.9562C26.186 29.0781 26.0156 29.2097 25.8091 29.298C25.8087 29.3086 25.8083 29.3196 25.8078 29.3313C25.8074 29.3448 25.8068 29.359 25.8063 29.3742C25.8061 29.3801 25.8058 29.3864 25.8056 29.393C25.8007 29.5314 25.7907 29.8114 25.6872 30.0595C25.6247 30.2094 25.5144 30.3858 25.3206 30.5201C25.1373 30.6472 24.9341 30.6988 24.7429 30.7054C24.7312 30.9024 24.639 31.0865 24.487 31.2153C24.075 31.5646 23.528 31.8377 22.9025 32.0518ZM1.73253 21.3931C2.21015 21.3638 2.69709 21.2898 3.1296 21.1665C3.79941 20.9756 4.16077 20.721 4.30647 20.4969C4.30336 20.494 4.30009 20.4909 4.29666 20.4877C4.15437 20.3564 3.8856 20.1948 3.49512 20.025C3.12282 19.8631 2.69517 19.717 2.27473 19.5935C2.41807 19.738 2.63361 20.0079 2.63047 20.3797C2.62599 20.9092 2.21472 21.1866 1.9443 21.3051C1.87173 21.3369 1.80115 21.3663 1.73253 21.3931ZM4.36538 20.5618C4.36538 20.5618 4.36365 20.5597 4.36153 20.5558C4.36455 20.5599 4.36538 20.5618 4.36538 20.5618ZM25.5834 21.1317C25.3683 21.2675 25.1357 21.3821 24.9043 21.4799C24.4502 21.6719 23.9375 21.8251 23.4305 21.9467C22.8734 22.0803 22.3025 22.1805 21.7892 22.2519C21.9854 22.5344 22.2237 22.8087 22.4979 23.0307C22.8636 23.3267 23.2764 23.521 23.7518 23.5328C23.7362 23.4625 23.7227 23.392 23.7122 23.3228C23.6848 23.1418 23.6567 22.8476 23.7585 22.5678C23.8157 22.4105 23.9257 22.2266 24.1264 22.0924C24.3289 21.957 24.5506 21.9211 24.7402 21.9314C25.244 21.9587 25.6655 22.2367 25.9219 22.4466C25.9804 22.3657 26.0182 22.2936 26.0422 22.2318C26.1012 22.0806 26.0992 21.9384 26.0494 21.7865C25.9763 21.5635 25.8012 21.3323 25.5834 21.1317ZM25.1633 22.9983C25.1633 22.9983 25.1633 22.9993 25.1631 23.0008L25.1633 22.9983ZM8.61279 28.2454C8.73127 27.8604 9.14351 27.6431 9.53356 27.7601C10.1189 27.9355 11.6818 28.2238 13.0677 27.9553C13.4678 27.8778 13.8557 28.1351 13.9342 28.5298C14.0127 28.9246 13.7521 29.3075 13.352 29.3849C11.647 29.7152 9.82522 29.3701 9.10453 29.1541C8.71447 29.0372 8.49432 28.6303 8.61279 28.2454Z" fill="black"/>
<path d="M53.7893 37.064C53.4853 37.064 53.2773 36.976 53.1653 36.8C53.0533 36.64 52.9973 36.44 52.9973 36.2C52.9973 35.96 53.0213 35.736 53.0693 35.528C53.1333 35.304 53.1893 35.08 53.2373 34.856C53.3013 34.632 53.3653 34.408 53.4293 34.184C53.4933 33.976 53.5493 33.76 53.5973 33.536L54.0053 31.688C53.9893 31.496 54.0213 31.32 54.1013 31.16C54.1813 31 54.2613 30.848 54.3413 30.704L56.2133 30.344C56.3893 30.296 56.6133 30.168 56.8853 29.96C57.1733 29.736 57.4693 29.472 57.7733 29.168C58.0773 28.848 58.3493 28.52 58.5893 28.184C59.1173 27.464 59.5653 26.76 59.9333 26.072C60.3173 25.384 60.6533 24.68 60.9413 23.96C61.2293 23.224 61.5093 22.432 61.7813 21.584C62.0693 20.736 62.3893 19.784 62.7413 18.728C62.8053 18.568 62.8613 18.408 62.9093 18.248C62.9573 18.088 63.0133 17.928 63.0773 17.768C63.0133 17.752 62.9333 17.744 62.8373 17.744C62.7413 17.744 62.6853 17.736 62.6693 17.72C62.3333 17.576 62.0853 17.328 61.9253 16.976C61.7813 16.624 61.7573 16.288 61.8533 15.968C61.8693 15.84 61.9573 15.768 62.1173 15.752C62.2773 15.736 62.4613 15.736 62.6693 15.752C62.8773 15.752 63.0613 15.736 63.2213 15.704C63.6693 15.624 64.0373 15.568 64.3253 15.536C64.6133 15.488 64.8453 15.448 65.0213 15.416C65.2133 15.384 65.3653 15.352 65.4773 15.32C66.1493 15.256 66.7413 15.208 67.2533 15.176C67.7813 15.128 68.2853 15.096 68.7653 15.08C69.2613 15.048 69.7893 15.032 70.3493 15.032C70.6693 15.032 70.9813 15.136 71.2853 15.344C71.5893 15.552 71.7733 15.792 71.8373 16.064C71.8533 16.288 71.7973 16.672 71.6693 17.216C71.5573 17.744 71.3973 18.368 71.1893 19.088C70.9813 19.808 70.7413 20.56 70.4693 21.344C70.2133 22.128 69.9493 22.896 69.6773 23.648C69.4053 24.384 69.1413 25.032 68.8853 25.592C68.7733 25.896 68.6613 26.2 68.5493 26.504C68.4533 26.792 68.3173 27.152 68.1413 27.584C68.0773 27.792 67.9813 28.032 67.8533 28.304C67.7253 28.56 67.6213 28.848 67.5413 29.168C67.4933 29.344 67.5013 29.448 67.5653 29.48C67.6453 29.496 67.7653 29.48 67.9253 29.432C68.0853 29.384 68.2613 29.336 68.4533 29.288C68.6613 29.24 68.8453 29.208 69.0053 29.192C69.0853 29.176 69.1573 29.168 69.2213 29.168C69.3013 29.168 69.3733 29.184 69.4373 29.216C69.7893 29.328 70.0453 29.52 70.2053 29.792C70.3653 30.064 70.4453 30.336 70.4453 30.608C70.4133 31.152 70.2853 31.744 70.0613 32.384C69.8373 33.024 69.5733 33.648 69.2693 34.256C68.9653 34.864 68.6853 35.408 68.4293 35.888C68.3973 35.984 68.3573 36.08 68.3093 36.176C68.2613 36.272 68.2133 36.368 68.1653 36.464C68.1333 36.576 68.0933 36.68 68.0453 36.776C67.9173 36.904 67.7653 36.96 67.5893 36.944C67.4133 36.944 67.2213 36.856 67.0133 36.68C66.8213 36.52 66.6133 36.28 66.3893 35.96C66.3253 35.736 66.3173 35.504 66.3653 35.264C66.4293 35.024 66.5573 34.728 66.7493 34.376C67.0213 33.848 67.2853 33.344 67.5413 32.864C67.8133 32.4 68.0053 31.992 68.1173 31.64L68.1893 31.328C67.9333 31.344 67.6693 31.368 67.3973 31.4C67.1413 31.416 66.8693 31.44 66.5813 31.472C66.3093 31.504 66.0293 31.536 65.7413 31.568C65.4693 31.584 65.1973 31.608 64.9253 31.64C64.8773 31.608 64.8293 31.6 64.7813 31.616C64.7333 31.616 64.6533 31.632 64.5413 31.664L63.0293 31.712C62.9173 31.712 62.8213 31.712 62.7413 31.712C62.6773 31.712 62.6133 31.72 62.5493 31.736C62.1813 31.832 61.9093 31.872 61.7333 31.856C61.5573 31.824 61.3173 31.832 61.0133 31.88C60.7573 31.896 60.4933 31.92 60.2213 31.952C59.9653 31.984 59.7013 32.008 59.4293 32.024C59.1733 32.056 58.9093 32.08 58.6373 32.096C58.3813 32.128 58.1173 32.152 57.8453 32.168C57.5893 32.2 57.3253 32.232 57.0533 32.264C56.8773 32.28 56.7013 32.296 56.5253 32.312C56.3493 32.344 56.1733 32.376 55.9973 32.408C55.8373 32.952 55.6773 33.528 55.5173 34.136C55.3733 34.76 55.2453 35.296 55.1333 35.744C55.0373 36.192 54.9813 36.44 54.9653 36.488C54.9493 36.648 54.8693 36.784 54.7253 36.896C54.5973 37.008 54.2853 37.064 53.7893 37.064ZM59.1893 30.104C59.4613 30.088 59.8453 30.064 60.3413 30.032C60.8373 30 61.3653 29.96 61.9253 29.912C62.4853 29.864 63.0213 29.816 63.5333 29.768C64.0453 29.72 64.4693 29.68 64.8053 29.648C65.1573 29.616 65.3493 29.592 65.3813 29.576C65.5413 28.856 65.6613 28.328 65.7413 27.992C65.8373 27.64 65.9253 27.352 66.0053 27.128C66.1013 26.888 66.2293 26.592 66.3893 26.24C66.5013 25.952 66.6053 25.672 66.7013 25.4C66.8133 25.112 66.9173 24.832 67.0133 24.56C67.1253 24.272 67.2293 23.992 67.3253 23.72C67.4373 23.432 67.5413 23.152 67.6373 22.88C67.7493 22.592 67.8613 22.304 67.9733 22.016C68.3573 20.88 68.6853 19.912 68.9573 19.112C69.2453 18.296 69.4453 17.624 69.5573 17.096C69.2373 17.08 68.8693 17.08 68.4533 17.096C68.0533 17.112 67.6453 17.144 67.2293 17.192C66.8293 17.224 66.4613 17.272 66.1253 17.336C65.7893 17.4 65.5333 17.472 65.3573 17.552L65.0693 18.44C65.0533 18.52 64.9573 18.784 64.7813 19.232C64.6213 19.68 64.3973 20.256 64.1093 20.96C63.8373 21.648 63.5093 22.408 63.1253 23.24C62.7573 24.072 62.3573 24.912 61.9253 25.76C61.5093 26.608 61.0693 27.416 60.6053 28.184C60.1413 28.936 59.6693 29.576 59.1893 30.104ZM74.4333 32.6C74.3533 32.6 74.2173 32.56 74.0253 32.48C73.8333 32.416 73.6493 32.328 73.4733 32.216C73.3133 32.104 73.2333 31.984 73.2333 31.856C73.2333 31.856 73.2253 31.808 73.2093 31.712C73.2093 31.6 73.1773 31.488 73.1133 31.376C73.1133 31.248 73.1133 31.104 73.1133 30.944C73.1293 30.768 73.1693 30.592 73.2333 30.416C73.2333 30.24 73.2573 30.048 73.3053 29.84C73.3533 29.616 73.4093 29.448 73.4733 29.336C73.4733 29.16 73.5133 28.936 73.5933 28.664C73.6893 28.376 73.7693 28.112 73.8333 27.872C74.0093 27.344 74.1373 26.96 74.2173 26.72C74.3133 26.48 74.3773 26.304 74.4093 26.192C74.4413 26.064 74.4573 25.936 74.4573 25.808C74.5053 25.68 74.5773 25.448 74.6733 25.112C74.7693 24.776 74.8653 24.432 74.9613 24.08C75.0733 23.712 75.1453 23.448 75.1773 23.288C75.2413 23.224 75.2733 23.168 75.2733 23.12C75.2893 23.056 75.2973 22.992 75.2973 22.928C75.2973 22.928 75.3533 22.744 75.4653 22.376C75.5773 22.008 75.7213 21.584 75.8973 21.104C76.1853 20.256 76.3773 19.64 76.4733 19.256C76.5853 18.872 76.6333 18.6 76.6173 18.44C76.6173 18.28 76.5773 18.12 76.4973 17.96C76.3853 17.752 76.3853 17.592 76.4973 17.48C76.5613 17.416 76.6173 17.344 76.6653 17.264C76.7133 17.168 76.7373 17.12 76.7373 17.12C76.7373 17.088 76.8493 17.024 77.0733 16.928C77.3133 16.816 77.6013 16.696 77.9373 16.568C78.2733 16.424 78.6093 16.296 78.9453 16.184C79.2813 16.056 79.5533 15.96 79.7613 15.896C79.8093 15.896 79.9213 15.896 80.0973 15.896C80.2893 15.896 80.4893 15.896 80.6973 15.896C80.9213 15.896 81.0973 15.896 81.2253 15.896C81.6413 15.96 82.0653 16.08 82.4973 16.256C82.9453 16.432 83.3213 16.68 83.6253 17C83.8173 17.176 84.0253 17.424 84.2493 17.744C84.4893 18.064 84.7293 18.496 84.9693 19.04C84.9693 19.104 84.9853 19.24 85.0173 19.448C85.0653 19.64 85.0893 19.832 85.0893 20.024C85.0893 20.504 84.9693 21.048 84.7293 21.656C84.5053 22.264 84.1693 22.88 83.7213 23.504C83.2733 24.112 82.7293 24.68 82.0893 25.208C81.4173 25.752 80.7213 26.12 80.0013 26.312C79.2813 26.504 78.6413 26.544 78.0813 26.432C77.7613 26.304 77.5453 26.128 77.4333 25.904C77.3213 25.664 77.2733 25.44 77.2893 25.232C77.3053 25.024 77.3373 24.896 77.3853 24.848C77.5133 24.816 77.7053 24.808 77.9613 24.824C78.2173 24.824 78.6253 24.72 79.1853 24.512C79.3613 24.448 79.5453 24.376 79.7373 24.296C79.9293 24.2 80.0813 24.12 80.1933 24.056C80.5133 23.848 80.8333 23.584 81.1533 23.264C81.4893 22.944 81.8333 22.504 82.1853 21.944C82.3293 21.72 82.4333 21.472 82.4973 21.2C82.5613 20.928 82.6013 20.656 82.6173 20.384C82.6493 20.096 82.6653 19.848 82.6653 19.64C82.7933 19.224 82.7133 18.88 82.4253 18.608C82.1533 18.32 81.7133 18.144 81.1053 18.08C80.9133 18.032 80.6733 18.024 80.3853 18.056C80.1133 18.088 79.8573 18.144 79.6173 18.224C79.3773 18.288 79.1933 18.36 79.0653 18.44C79.0013 18.44 78.9613 18.488 78.9453 18.584C78.9293 18.68 78.8893 18.792 78.8253 18.92C78.8253 19.032 78.7773 19.272 78.6813 19.64C78.5853 19.992 78.4733 20.32 78.3453 20.624C78.2333 20.976 78.0973 21.368 77.9373 21.8C77.7773 22.216 77.6653 22.544 77.6013 22.784C77.5373 23.04 77.4573 23.288 77.3613 23.528C77.2813 23.768 77.2413 23.888 77.2413 23.888C77.2413 23.952 77.1933 24.088 77.0973 24.296C77.0173 24.504 76.9453 24.728 76.8813 24.968C76.8173 25.272 76.7293 25.616 76.6173 26C76.5213 26.384 76.4093 26.728 76.2813 27.032C76.1053 27.624 75.9533 28.216 75.8253 28.808C75.6973 29.384 75.6893 29.76 75.8013 29.936C76.2813 29.952 76.5293 30.056 76.5453 30.248C76.5773 30.424 76.3293 30.84 75.8013 31.496C75.6413 31.896 75.4813 32.168 75.3213 32.312C75.1613 32.472 75.0013 32.56 74.8413 32.576C74.6973 32.592 74.5613 32.6 74.4333 32.6ZM98.4622 15.512C98.7982 15.592 99.0702 15.8 99.2782 16.136C99.4862 16.472 99.5262 16.848 99.3982 17.264C99.3662 17.408 99.3182 17.544 99.2542 17.672C99.2062 17.8 99.1502 17.928 99.0862 18.056C98.9742 18.264 98.8302 18.584 98.6542 19.016C98.4782 19.448 98.2862 19.904 98.0782 20.384C97.8862 20.848 97.7102 21.264 97.5502 21.632C97.3902 22 97.2782 22.232 97.2142 22.328C97.0542 22.664 96.8862 22.992 96.7102 23.312C96.5342 23.632 96.3502 23.952 96.1582 24.272C95.9022 24.752 95.6222 25.224 95.3182 25.688C95.0302 26.152 94.7422 26.608 94.4542 27.056C94.3582 27.216 94.1822 27.472 93.9262 27.824C93.6702 28.176 93.4142 28.52 93.1582 28.856C92.9022 29.192 92.7182 29.424 92.6062 29.552C92.3022 30 91.9662 30.416 91.5982 30.8C91.2302 31.184 90.8622 31.56 90.4942 31.928C90.2702 32.168 90.1022 32.344 89.9902 32.456C89.8782 32.584 89.7742 32.696 89.6782 32.792C89.5822 32.904 89.4382 33.048 89.2462 33.224C88.8942 33.672 88.4782 33.744 87.9982 33.44C87.7262 33.264 87.5342 33.072 87.4222 32.864C87.3262 32.672 87.3262 32.456 87.4222 32.216C87.4542 32.152 87.5502 32.032 87.7102 31.856C87.8702 31.664 88.0622 31.448 88.2862 31.208C88.5262 30.952 88.7662 30.712 89.0062 30.488C89.2462 30.248 89.4462 30.056 89.6062 29.912C89.9422 29.528 90.1982 29.232 90.3742 29.024C90.5502 28.816 90.6942 28.64 90.8062 28.496C90.4222 27.984 90.0862 27.424 89.7982 26.816C89.5262 26.192 89.3502 25.712 89.2702 25.376C89.2542 25.28 89.2382 25.184 89.2222 25.088C89.2062 24.992 89.1822 24.896 89.1502 24.8L88.8622 23.264C88.8942 23.088 88.8942 22.952 88.8622 22.856C88.8462 22.744 88.8302 22.608 88.8142 22.448L88.7422 18.2C88.7422 18.28 88.7422 18.248 88.7422 18.104C88.7582 17.96 88.7742 17.768 88.7902 17.528C88.8222 17.272 88.8462 17.016 88.8622 16.76C88.8782 16.488 88.8942 16.264 88.9102 16.088C88.9262 16.024 88.9262 15.896 88.9102 15.704C88.9102 15.512 88.9582 15.328 89.0542 15.152C89.1502 14.976 89.3422 14.888 89.6302 14.888C89.8862 14.84 90.1502 14.912 90.4222 15.104C90.6942 15.296 90.8942 15.528 91.0222 15.8C91.1662 16.072 91.1742 16.32 91.0462 16.544C90.9822 16.656 90.9582 16.784 90.9742 16.928C91.0062 17.072 90.9982 17.264 90.9502 17.504C90.9342 17.632 90.9102 17.872 90.8782 18.224C90.8622 18.56 90.8462 18.952 90.8302 19.4C90.8142 19.832 90.8062 20.248 90.8062 20.648C90.8222 21.032 90.8382 21.336 90.8542 21.56C90.8542 21.448 90.8542 21.464 90.8542 21.608C90.8702 21.736 90.8942 21.928 90.9262 22.184C90.9582 22.44 90.9822 22.704 90.9982 22.976C91.0302 23.248 91.0542 23.472 91.0702 23.648C91.0862 23.808 91.1182 24.032 91.1662 24.32C91.2302 24.592 91.3022 24.888 91.3822 25.208C91.4782 25.528 91.5742 25.848 91.6702 26.168C91.7822 26.472 91.8862 26.744 91.9822 26.984L92.3182 26.552C92.4142 26.424 92.5022 26.312 92.5822 26.216C92.6622 26.104 92.7262 25.992 92.7742 25.88C92.9022 25.56 93.0622 25.272 93.2542 25.016C93.4462 24.76 93.5982 24.504 93.7102 24.248C93.8862 23.928 94.0542 23.64 94.2142 23.384C94.3902 23.128 94.5422 22.872 94.6702 22.616L96.2302 19.664C96.4062 19.104 96.6062 18.512 96.8302 17.888C97.0702 17.248 97.2222 16.64 97.2862 16.064C97.3822 15.696 97.5982 15.512 97.9342 15.512C97.9342 15.512 98.0062 15.512 98.1502 15.512C98.2942 15.496 98.3982 15.496 98.4622 15.512ZM103.657 34.016C103.385 34.144 103.137 34.136 102.913 33.992C102.753 33.992 102.609 33.984 102.481 33.968C102.353 33.968 102.217 33.976 102.073 33.992C101.609 33.912 101.121 33.712 100.609 33.392C100.113 33.072 99.6567 32.68 99.2407 32.216C98.8407 31.768 98.5207 31.296 98.2807 30.8C98.0567 30.304 97.9767 29.832 98.0407 29.384C98.1207 28.936 98.3687 28.608 98.7847 28.4C99.2167 28.192 99.6327 28.152 100.033 28.28C100.145 28.488 100.201 28.648 100.201 28.76C100.217 28.872 100.193 29.032 100.129 29.24C100.369 30.072 100.817 30.72 101.473 31.184C102.145 31.632 102.897 31.856 103.729 31.856C104.193 31.856 104.641 31.776 105.073 31.616C105.505 31.456 105.889 31.224 106.225 30.92C106.561 30.616 106.825 30.248 107.017 29.816C107.113 29.592 107.185 29.352 107.233 29.096C107.281 28.84 107.337 28.68 107.401 28.616C107.449 28.28 107.441 27.904 107.377 27.488C107.313 27.072 107.177 26.688 106.969 26.336C106.777 25.984 106.513 25.744 106.177 25.616C105.873 25.584 105.577 25.52 105.289 25.424C105.017 25.328 104.721 25.312 104.401 25.376C104.337 25.344 104.273 25.32 104.209 25.304C104.145 25.272 104.081 25.248 104.017 25.232C103.681 24.88 103.417 24.528 103.225 24.176C103.049 23.808 103.065 23.376 103.273 22.88C103.433 22.88 103.577 22.856 103.705 22.808C103.849 22.76 103.993 22.736 104.137 22.736C104.809 22.736 105.409 22.6 105.937 22.328C106.465 22.056 106.897 21.688 107.233 21.224C107.585 20.744 107.833 20.208 107.977 19.616C108.137 19.024 108.177 18.416 108.097 17.792C107.825 17.536 107.473 17.4 107.041 17.384C106.609 17.352 106.161 17.4 105.697 17.528C105.233 17.656 104.793 17.84 104.377 18.08C103.977 18.32 103.657 18.576 103.417 18.848C103.113 18.816 102.817 18.704 102.529 18.512C102.241 18.32 102.009 18.08 101.833 17.792C101.657 17.488 101.593 17.176 101.641 16.856C102.057 16.328 102.577 15.92 103.201 15.632C103.841 15.328 104.513 15.144 105.217 15.08C105.937 15.016 106.633 15.072 107.305 15.248C107.993 15.424 108.593 15.712 109.105 16.112C109.617 16.512 110.001 17.032 110.257 17.672C110.513 18.312 110.553 19.064 110.377 19.928C110.233 20.664 109.897 21.392 109.369 22.112C108.857 22.816 108.289 23.376 107.665 23.792C108.433 24.224 109.009 24.832 109.393 25.616C109.793 26.4 109.993 27.224 109.993 28.088C109.993 28.568 109.897 29.088 109.705 29.648C109.513 30.208 109.265 30.744 108.961 31.256C108.657 31.768 108.329 32.184 107.977 32.504C107.833 32.632 107.705 32.72 107.593 32.768C107.497 32.832 107.289 32.968 106.969 33.176C106.393 33.432 105.857 33.64 105.361 33.8C104.881 33.96 104.313 34.032 103.657 34.016ZM116.943 32.6C116.575 32.744 116.143 32.816 115.647 32.816C115.151 32.816 114.679 32.744 114.231 32.6C113.799 32.472 113.463 32.28 113.223 32.024C113.015 31.768 112.807 31.528 112.599 31.304C112.407 31.08 112.343 30.816 112.407 30.512C112.487 30.32 112.551 30.112 112.599 29.888C112.663 29.664 112.727 29.464 112.791 29.288C112.935 28.888 113.079 28.488 113.223 28.088C113.383 27.688 113.535 27.288 113.679 26.888C113.839 26.472 113.991 26.064 114.135 25.664C114.295 25.248 114.447 24.84 114.591 24.44C114.735 24.04 114.879 23.648 115.023 23.264C115.167 22.88 115.303 22.504 115.431 22.136C115.479 22.024 115.559 21.808 115.671 21.488C115.799 21.168 115.943 20.808 116.103 20.408C116.263 20.008 116.415 19.616 116.559 19.232C116.719 18.832 116.855 18.496 116.967 18.224C117.079 17.936 117.151 17.76 117.183 17.696C117.327 17.36 117.447 17.024 117.543 16.688C117.655 16.336 117.831 16.008 118.071 15.704C118.151 15.576 118.263 15.488 118.407 15.44C118.567 15.376 118.727 15.36 118.887 15.392C119.319 15.472 119.607 15.592 119.751 15.752C119.895 15.896 120.023 16.128 120.135 16.448C120.071 16.768 119.991 17.032 119.895 17.24C119.815 17.448 119.663 17.736 119.439 18.104C119.407 18.216 119.367 18.328 119.319 18.44C119.271 18.552 119.239 18.616 119.223 18.632C119.063 18.936 118.903 19.272 118.743 19.64C118.583 19.992 118.415 20.4 118.239 20.864C118.367 20.88 118.487 20.912 118.599 20.96C118.727 20.992 118.863 21.032 119.007 21.08C119.423 21.24 119.783 21.384 120.087 21.512C120.391 21.64 120.743 21.912 121.143 22.328C121.479 22.648 121.727 23.008 121.887 23.408C122.047 23.792 122.151 24.152 122.199 24.488C122.263 24.808 122.319 25.064 122.367 25.256C122.383 25.608 122.375 25.96 122.343 26.312C122.327 26.648 122.239 27 122.079 27.368C121.711 28.248 121.287 29.008 120.807 29.648C120.343 30.272 119.775 30.84 119.103 31.352C118.735 31.656 118.343 31.928 117.927 32.168C117.511 32.408 117.183 32.552 116.943 32.6ZM115.839 30.8C116.015 30.784 116.183 30.728 116.343 30.632C116.503 30.52 116.687 30.384 116.895 30.224C117.199 30.032 117.511 29.792 117.831 29.504C118.167 29.2 118.463 28.904 118.719 28.616C118.991 28.328 119.183 28.112 119.295 27.968C119.631 27.44 119.871 26.984 120.015 26.6C120.175 26.216 120.255 25.832 120.255 25.448C120.255 25.064 120.191 24.616 120.063 24.104C119.983 23.816 119.799 23.592 119.511 23.432C119.319 23.304 119.119 23.208 118.911 23.144C118.703 23.064 118.495 23 118.287 22.952C118.191 22.92 118.079 22.888 117.951 22.856C117.823 22.824 117.695 22.752 117.567 22.64C117.503 22.752 117.423 22.92 117.327 23.144C117.247 23.368 117.159 23.6 117.063 23.84C116.983 24.08 116.903 24.304 116.823 24.512C116.759 24.704 116.703 24.848 116.655 24.944C116.607 25.04 116.535 25.224 116.439 25.496C116.343 25.752 116.231 26.056 116.103 26.408C115.975 26.744 115.855 27.064 115.743 27.368C115.647 27.672 115.567 27.912 115.503 28.088C115.503 28.088 115.463 28.192 115.383 28.4C115.319 28.592 115.239 28.816 115.143 29.072C115.063 29.328 114.983 29.56 114.903 29.768C114.823 29.976 114.767 30.096 114.735 30.128C114.735 30.192 114.735 30.256 114.735 30.32C114.735 30.368 114.735 30.424 114.735 30.488C114.975 30.6 115.183 30.688 115.359 30.752C115.535 30.8 115.695 30.816 115.839 30.8ZM134.818 17.888C134.434 17.936 134.05 18.024 133.666 18.152C133.282 18.264 132.906 18.416 132.538 18.608C131.898 18.944 131.338 19.392 130.858 19.952C130.394 20.496 130.122 21.136 130.042 21.872C130.026 21.968 130.01 22.064 129.994 22.16C129.978 22.256 129.954 22.352 129.922 22.448C129.842 22.656 129.842 22.88 129.922 23.12C130.018 23.36 130.154 23.576 130.33 23.768C130.522 23.96 130.722 24.08 130.93 24.128C131.106 24.176 131.298 24.144 131.506 24.032C131.714 23.92 131.89 23.824 132.034 23.744C132.178 23.824 132.322 23.912 132.466 24.008C132.61 24.088 132.754 24.168 132.898 24.248L132.946 24.056C133.186 23.32 133.418 22.592 133.642 21.872C133.882 21.136 134.106 20.4 134.314 19.664C134.394 19.36 134.474 19.064 134.554 18.776C134.65 18.488 134.738 18.192 134.818 17.888ZM124.666 32.864C124.426 32.656 124.194 32.416 123.97 32.144C123.746 31.872 123.642 31.616 123.658 31.376C123.69 31.12 123.954 30.936 124.45 30.824C124.978 30.696 125.498 30.472 126.01 30.152C126.522 29.816 127.01 29.424 127.474 28.976C127.938 28.528 128.37 28.064 128.77 27.584C129.17 27.088 129.53 26.624 129.85 26.192L129.994 26C129.306 25.632 128.786 25.24 128.434 24.824C128.082 24.392 127.818 23.792 127.642 23.024C127.594 22.8 127.562 22.616 127.546 22.472C127.53 22.312 127.522 22.176 127.522 22.064C127.618 21.92 127.658 21.76 127.642 21.584C127.626 21.408 127.65 21.24 127.714 21.08C127.794 20.808 127.882 20.544 127.978 20.288C128.074 20.032 128.162 19.776 128.242 19.52C128.466 18.896 128.81 18.36 129.274 17.912C129.754 17.448 130.29 17.064 130.882 16.76C131.49 16.44 132.082 16.184 132.658 15.992C133.042 15.832 133.37 15.72 133.642 15.656C133.93 15.576 134.178 15.552 134.386 15.584C134.658 15.552 134.858 15.528 134.986 15.512C135.13 15.48 135.258 15.48 135.37 15.512C135.562 15.464 135.802 15.488 136.09 15.584C136.394 15.68 136.682 15.824 136.954 16.016C137.242 16.208 137.466 16.424 137.626 16.664C137.786 16.888 137.826 17.112 137.746 17.336C137.586 17.784 137.434 18.232 137.29 18.68C137.146 19.128 136.986 19.568 136.81 20C136.65 20.368 136.466 20.848 136.258 21.44C136.066 22.016 135.866 22.648 135.658 23.336C135.45 24.024 135.25 24.712 135.058 25.4C134.866 26.088 134.706 26.728 134.578 27.32C134.45 27.912 134.37 28.4 134.338 28.784C134.258 29.024 134.194 29.272 134.146 29.528C134.098 29.768 134.058 30.024 134.026 30.296C133.994 30.552 133.962 30.816 133.93 31.088C133.898 31.344 133.85 31.592 133.786 31.832C133.754 32.008 133.642 32.168 133.45 32.312C133.274 32.456 133.074 32.552 132.85 32.6C132.642 32.648 132.458 32.632 132.298 32.552C132.106 32.456 131.93 32.328 131.77 32.168C131.61 32.024 131.45 31.872 131.29 31.712C131.386 31.408 131.45 31.096 131.482 30.776C131.514 30.456 131.594 30.152 131.722 29.864C131.738 29.688 131.762 29.488 131.794 29.264C131.826 29.04 131.874 28.784 131.938 28.496C132.002 28.224 132.058 27.952 132.106 27.68C132.154 27.392 132.226 27.12 132.322 26.864L132.37 26.48L132.274 26.624C132.162 26.784 131.986 27.008 131.746 27.296C131.506 27.584 131.226 27.912 130.906 28.28C130.554 28.68 130.162 29.104 129.73 29.552C129.298 29.984 128.85 30.408 128.386 30.824C127.938 31.224 127.482 31.592 127.018 31.928C126.57 32.248 126.146 32.496 125.746 32.672C125.346 32.848 124.986 32.912 124.666 32.864ZM140.557 25.712C140.221 25.824 139.941 25.88 139.717 25.88C139.493 25.864 139.245 25.76 138.973 25.568C138.653 25.248 138.549 24.928 138.661 24.608C138.773 24.272 139.061 23.944 139.525 23.624C139.845 23.432 140.077 23.336 140.221 23.336C140.381 23.32 140.613 23.376 140.917 23.504C141.445 23.84 141.677 24.216 141.613 24.632C141.565 25.032 141.213 25.392 140.557 25.712ZM138.877 30.752C138.541 30.864 138.261 30.92 138.037 30.92C137.813 30.904 137.565 30.8 137.293 30.608C136.973 30.288 136.869 29.968 136.981 29.648C137.093 29.312 137.381 28.984 137.845 28.664C138.165 28.472 138.397 28.376 138.541 28.376C138.701 28.36 138.933 28.416 139.237 28.544C139.765 28.88 139.997 29.256 139.933 29.672C139.885 30.072 139.533 30.432 138.877 30.752Z" fill="black"/>
</svg>
