<svg width="66" height="86" viewBox="0 0 66 86" fill="none" xmlns="http://www.w3.org/2000/svg">
<path d="M16.1123 11.8386L12.6259 15.1158L6.90465 19.6561L5.84893 22.6313L1.17822 26.6943V35.7479L3.96149 40.5786L9.20808 45.3774L14.6786 47.9047L18.5496 47.3928H21.4929L23.9882 46.2411C25.2935 49.2611 23.9562 51.957 23.1244 52.9274C23.15 56.2289 24.6494 57.4169 25.3958 57.5982C28.1343 54.3734 33.1698 53.3113 35.3452 53.1833C35.7611 55.3907 41.0397 56.5744 45.3906 56.6064C48.8713 56.632 51.1064 52.8634 51.7889 50.9759C53.2712 51.9143 57.1443 54.1175 60.7786 55.4227C64.4128 56.728 64.4515 54.0121 64.0166 52.4909L59.2052 47.6099L55.9977 40.0093L54.4636 33.5245L50.1404 24.9478L45.4685 20.2061L43.028 19.1602L38.635 11.8386L31.5923 8.97961L23.434 9.32831L16.1123 11.8386Z" fill="#F8E296"/>
<path fill-rule="evenodd" clip-rule="evenodd" d="M36.0175 9.49211C38.1055 10.3891 40.0516 11.6804 40.903 13.1717C41.8505 14.8312 42.7511 16.9551 43.2525 18.2409H45.0895C45.3956 18.2409 45.6848 18.3811 45.8745 18.6214C45.9404 18.705 45.9988 18.8033 46.0421 18.913C46.4033 19.6068 46.5731 21.0377 49.9226 23.5C52.1775 25.1576 52.2006 26.5875 53.0825 28C53.8781 29.2742 54.3024 30.6956 54.8815 32.6361C54.9318 32.8044 54.9831 32.9765 55.036 33.1528C55.6595 35.2309 55.7919 37.3581 56.8585 39.3616C56.8973 39.4344 56.936 39.507 56.9745 39.5795C57.5141 40.5937 58.0355 41.5835 58.4245 42.4792C58.805 43.3551 59.1112 44.2542 59.1328 45.0693C59.156 45.9496 59.6245 46.8154 60.4196 47.688C61.2123 48.5581 62.2203 49.3186 63.1399 50.0083C64.3122 50.8875 64.8708 52.1998 65 53.3546C65.065 53.935 65.0272 54.5184 64.8751 55.0332C64.7285 55.5296 64.439 56.076 63.9089 56.4042C63.378 56.7329 62.7215 56.7419 62.2308 56.7039C61.6917 56.6621 61.0947 56.5379 60.5196 56.3918C59.9388 56.2442 59.3409 56.0639 58.7969 55.8971C58.7206 55.8737 58.6457 55.8507 58.5721 55.8281C58.1095 55.6859 57.7005 55.5602 57.3567 55.4684C56.3495 55.1995 55.7594 54.7384 55.2097 54.3089C55.18 54.2857 55.1504 54.2626 55.1209 54.2396C54.5765 53.8157 54.9457 53.34 53.703 52.8369C53.2696 52.6615 53.1875 52.5669 52.3059 52.6609C51.8488 53.7751 50.9046 55.0569 49.1771 56.1786C47.2409 57.4359 44.671 57.6108 42.5031 57.433C40.3138 57.2534 38.3013 56.6935 37.3199 56.2519C36.7921 56.0143 36.3544 55.6186 35.9889 55.2084C35.7471 54.9369 35.5142 54.6328 35.2891 54.3162C31.5279 54.8139 29.5696 55.5309 28.4056 56.224C27.5508 56.7329 27.1462 57.1826 26.6861 57.6941C26.4564 57.9494 26.2129 58.2201 25.8927 58.5212C25.6281 58.7701 25.2494 58.8558 24.9034 58.7453C24.2572 58.5389 23.7724 58.1842 23.4475 57.6899C23.1434 57.2272 23.034 56.7216 22.973 56.3233C22.9471 56.1536 22.9268 55.9781 22.9088 55.8222C22.9055 55.7936 22.9022 55.7657 22.8991 55.7386C22.8774 55.5538 22.8568 55.3915 22.8285 55.2368C22.7724 54.9299 22.6945 54.7036 22.5718 54.519C21.7574 53.294 22.3752 52.0501 22.7595 51.3532C22.8607 51.1696 22.9491 51.0183 23.03 50.8796C23.1449 50.6829 23.2449 50.5117 23.3456 50.31C23.5029 49.9952 23.5462 49.8139 23.5462 49.7098C23.5462 49.5149 23.5539 49.3336 23.5614 49.1559C23.5768 48.7925 23.5915 48.4442 23.5387 48.0251C23.5272 47.934 23.5127 47.845 23.4947 47.7583C23.376 47.9019 23.2215 48.0248 23.028 48.1118C22.7818 48.2225 22.5291 48.2484 22.3305 48.2542C21.9371 48.2657 21.3781 48.2015 20.6034 48.0867C20.0877 48.0103 19.8051 48.0091 19.665 48.02C19.561 48.2172 19.3135 48.5955 18.788 48.7604C18.2991 48.9137 17.7035 48.8375 17.0318 48.6842C16.4753 48.5572 16.101 48.5685 15.8415 48.6129C15.5773 48.6582 15.3803 48.7447 15.1345 48.8579C15.1203 48.8645 15.1045 48.8719 15.0872 48.88C14.8797 48.9776 14.4619 49.1741 13.9885 49.1504C13.398 49.1208 12.9425 48.7912 12.5688 48.3993C12.2029 48.0155 11.8154 47.9211 11.2051 47.7724L11.195 47.7699L11.1929 47.7694C10.9147 47.7016 10.5059 47.6019 10.1359 47.3848C9.73363 47.1487 9.40575 46.7956 9.20405 46.2913C9.16048 46.2916 9.09826 46.2928 9.01011 46.296C9.00033 46.2964 8.98935 46.2968 8.97723 46.2973C8.79066 46.3053 8.33645 46.3247 7.92466 46.1138C7.36111 45.8253 7.12525 45.2832 7.0571 44.745C7.0571 44.745 7.03258 44.644 6.77476 44.4068C6.58741 44.2344 6.3812 44.0785 6.12756 43.8867C5.99642 43.7876 5.85261 43.6788 5.69217 43.5533C5.22455 43.1873 4.64306 42.698 4.22907 42.033C0.470043 39.1662 -0.0172093 34.5959 0.000449371 31.4949C0.00445623 30.7912 0.0344823 30.1461 0.0623668 29.5994C0.0657167 29.5338 0.0690054 29.47 0.0721997 29.408C0.0956905 28.9524 0.11407 28.5958 0.11407 28.3196C0.11407 28.1662 0.122967 28.0154 0.140087 27.8672C0.216109 27.2092 0.451479 26.6246 0.760428 26.1146C1.33063 25.1732 2.18895 24.4285 2.90025 23.8646C3.08193 23.7205 3.25993 23.5839 3.42485 23.4576L3.46237 23.4289C3.61481 23.3121 3.75358 23.2059 3.88198 23.1045C4.04603 22.975 4.17129 22.8702 4.26472 22.785C5.02299 18.8832 8.40663 16.1565 10.823 14.7697C11.3685 14.4566 11.8843 14.2002 12.3377 14.0043C17.3723 8.15249 24.4774 8.06142 28.5987 8.0086C28.7783 8.0063 28.9521 8.00407 29.1199 8.00144C31.3602 7.96634 33.8834 8.57532 36.0175 9.49211ZM10.8264 17.1238C9.55074 17.9873 8.2545 19.1366 7.34498 20.5181C7.41431 20.487 7.48419 20.4567 7.55452 20.4275C8.93578 19.8539 10.8296 19.5594 12.3538 20.9077C13.271 21.7191 14.751 22.3242 16.3134 22.7224C17.8559 23.1156 19.333 23.2712 20.1253 23.2712C20.9925 23.2712 21.9702 23.2815 22.9002 23.6781C23.8771 24.0947 24.6783 24.8746 25.3852 26.147C25.7574 26.8171 26.6141 27.2018 28.0701 27.3342C29.0242 27.4209 30.001 27.3878 30.9792 27.3546C31.4946 27.3371 32.0103 27.3196 32.5234 27.3196C33.6382 27.3196 34.4399 27.6115 35.1393 28.0082C35.4914 28.2079 35.7916 28.4101 36.0811 28.6051C36.8909 29.1505 37.617 29.6395 39.1591 29.8598C40.2541 30.0162 41.4043 30.5743 42.4727 31.2622C43.5582 31.9611 44.6413 32.848 45.6142 33.7558C46.5887 34.6649 47.4706 35.6117 48.1522 36.442C48.8022 37.2339 49.3586 38.0246 49.5709 38.6008C49.8189 39.274 49.7282 40.0552 49.632 40.6496C49.5871 40.927 49.5303 41.2165 49.4764 41.4917C49.4678 41.5354 49.4593 41.5787 49.4509 41.6216C49.3882 41.9432 49.3306 42.2487 49.2889 42.5443C49.2027 43.1564 49.2044 43.6086 49.3036 43.9305C49.3821 44.1852 49.5287 44.397 49.9226 44.557C51.4075 45.1602 52.1253 46.4818 52.4494 47.6812C52.7352 48.7389 52.7568 49.8338 52.681 50.6294C53.1042 50.6294 53.5 50.5 54.4534 50.9831C55.9325 51.5818 55.7275 52.1772 56.3496 52.6615L56.3904 52.6933C56.9548 53.1329 57.2637 53.3736 57.8726 53.5361C58.2557 53.6384 58.7062 53.7769 59.1643 53.9177C59.2371 53.9401 59.3101 53.9626 59.3831 53.985C59.9266 54.1516 60.4831 54.319 61.0121 54.4533C61.5468 54.5892 62.0151 54.6812 62.3854 54.7099C62.679 54.7326 62.8143 54.7068 62.8535 54.699C62.8729 54.6731 62.9158 54.6063 62.957 54.4667C63.0217 54.2478 63.0528 53.9376 63.0124 53.577C62.931 52.8496 62.5823 52.09 61.9399 51.6083L61.9168 51.5909C61.025 50.9221 59.8739 50.0588 58.9411 49.035C58.0026 48.0048 57.175 46.6948 57.1334 45.1221C57.1226 44.7106 56.9509 44.1066 56.5901 43.2759C56.2379 42.4651 55.7547 41.5449 55.2089 40.5189C55.16 40.427 55.1106 40.3344 55.0609 40.241C54.0199 38.2867 53.8026 36.0016 53.1204 33.7275C53.0788 33.5888 53.0384 33.454 52.9992 33.3229C52.3796 31.2533 52.0328 30.095 51.3861 29.0592C50.7157 27.9856 50.9549 26.741 48.7381 25.1114C46.0114 23.107 45.6634 21.9043 44.7937 20.6761C44.7279 20.6962 44.6615 20.7149 44.595 20.7325C43.7613 20.953 42.3557 21.1338 40.0689 21.2122C37.2093 21.3103 31.993 21.3264 27.0184 21.1883C24.5302 21.1193 22.0921 21.0114 20.0331 20.8548C18.001 20.7003 16.2581 20.4932 15.2084 20.2053C12.8476 19.5578 11.4906 18.2769 10.8264 17.1238ZM41.0349 18.0865C40.5426 16.8971 39.8611 15.3805 39.1662 14.1633C38.6486 13.2568 37.2132 12.1825 35.2281 11.3297C33.2889 10.4967 31.0472 9.97149 29.1513 10.0012C29.0142 10.0033 28.8745 10.0053 28.7324 10.0073C24.6231 10.0657 18.4938 10.1528 14.0751 15.0574C14.2697 15.4495 14.6951 15.9678 15.6825 16.4481C17.1919 17.1824 20.0101 17.8209 25.2274 17.6579C32.6618 17.4256 38.1533 17.8212 41.0349 18.0865ZM7.55444 42.4593C7.7563 42.6154 7.95817 42.7779 8.12891 42.935C8.45966 43.2393 8.865 43.6853 9.00579 44.2944C9.20078 44.2861 9.58094 44.2752 9.94516 44.3995C10.4615 44.5758 10.8459 44.9665 11.0554 45.5339C11.0891 45.6253 11.1147 45.6402 11.1475 45.6595C11.229 45.7073 11.3606 45.7517 11.6686 45.8268C11.7006 45.8346 11.734 45.8426 11.7685 45.8508C12.3355 45.9865 13.2374 46.2023 14.0163 47.0192C14.0587 47.0636 14.0932 47.0963 14.1201 47.1201C14.1607 47.103 14.2185 47.0779 14.2981 47.0412L14.3053 47.0379C14.5658 46.9179 14.9655 46.7339 15.5037 46.6417C16.0516 46.5478 16.6933 46.5555 17.4768 46.7343C17.7387 46.7941 17.9161 46.8215 18.0306 46.8342C18.0839 46.7483 18.1568 46.6466 18.2538 46.5476C18.4442 46.3533 18.6798 46.2143 18.9544 46.1282C19.4474 45.9737 20.0817 45.9876 20.8965 46.1083C21.4023 46.1832 21.7433 46.2243 21.9734 46.243C21.9806 46.2252 21.9881 46.2072 21.9961 46.1889C22.0295 46.1122 22.0677 46.0361 22.1114 45.9607C22.106 45.9562 22.1006 45.9518 22.0953 45.9473C21.7695 45.6788 21.6475 45.2345 21.7904 44.8372C21.849 44.6743 21.947 44.5337 22.0713 44.4245C21.9833 44.2164 21.9679 44.0209 21.9685 43.8894C21.9692 43.7203 21.9982 43.5627 22.0135 43.4801C22.0193 43.4491 22.0242 43.4232 22.0284 43.4008C22.035 43.3663 22.04 43.3399 22.0442 43.3153C21.7867 43.1113 21.5764 42.8823 21.4251 42.5948C21.2742 42.3081 21.2164 42.0196 21.1792 41.8339L21.1756 41.8155C21.1726 41.8008 21.1696 41.7859 21.1666 41.7707C21.0981 41.4268 21.009 40.9797 20.5712 40.1771C20.3208 39.718 20.1648 39.4852 20.0712 39.3651C20.0035 39.2782 19.976 39.2582 19.9513 39.2403C19.949 39.2386 19.9467 39.237 19.9444 39.2353C19.9384 39.2309 19.9319 39.2261 19.9248 39.221C19.8351 39.1554 19.6632 39.0299 19.4875 38.7903C19.3305 38.5762 19.186 38.2956 19.019 37.9162C18.9467 37.752 18.8913 37.6659 18.8606 37.625C18.7784 37.6255 18.7061 37.6348 18.5813 37.6508C18.5031 37.6608 18.4043 37.6734 18.2697 37.6882C17.966 37.7216 17.58 37.7475 17.1277 37.6898C16.7365 37.6398 16.3472 37.5492 16.0234 37.3349C15.6394 37.0809 15.4818 36.746 15.4002 36.5131C15.3533 36.3791 15.3383 36.3243 15.3295 36.2922C15.321 36.2609 15.3183 36.2511 15.2977 36.2105C15.2958 36.2068 15.2928 36.2009 15.2882 36.1933C15.2671 36.2133 15.2438 36.2358 15.2181 36.2612C15.1929 36.2861 15.1642 36.3153 15.1323 36.348C14.7957 36.6917 14.0899 37.4124 13.0526 37.4354C12.6177 37.4451 12.4298 37.5507 12.2616 37.6701C12.1799 37.728 12.1285 37.7696 12.0612 37.8241C12.0072 37.8679 11.9429 37.9199 11.8445 37.9953C11.6635 38.1341 11.4328 38.295 11.1352 38.4273C10.9357 38.516 10.6987 38.5991 10.4995 38.669C10.4564 38.6841 10.4152 38.6986 10.3764 38.7124C10.1305 38.7999 9.92468 38.8792 9.75142 38.9691C9.4053 39.1488 9.40025 39.2518 9.39744 39.3091L9.39733 39.3113C9.35951 40.0678 8.82514 40.5868 8.42297 40.8757C8.0543 41.1405 7.61369 41.3474 7.1719 41.4909C7.47147 41.7168 7.61796 42.0932 7.55444 42.4593ZM7.88835 37.9299C7.88977 37.9281 7.8912 37.9264 7.89263 37.9247L7.88691 37.923C7.88739 37.9253 7.88787 37.9276 7.88835 37.9299ZM25.0025 46.1215C25.3113 46.6745 25.4571 47.2528 25.523 47.7749C25.5983 48.3727 25.5717 49.0217 25.5552 49.4225C25.5502 49.5438 25.5462 49.6423 25.5462 49.7098C25.5462 50.2861 25.3333 50.8064 25.1348 51.2038C25.0132 51.4472 24.8471 51.7339 24.704 51.9809C24.6305 52.1079 24.563 52.2243 24.5108 52.3191C24.0974 53.0686 24.1444 53.2719 24.2373 53.4117C24.5682 53.9095 24.7142 54.4299 24.796 54.8774C24.8366 55.0999 24.8633 55.3167 24.8855 55.506C24.8893 55.5387 24.893 55.5704 24.8966 55.6011C24.9147 55.7575 24.9301 55.8906 24.9501 56.0209C24.9843 56.2445 25.023 56.3895 25.0652 56.4893C25.5877 55.9144 26.3012 55.1493 27.3824 54.5055C28.7447 53.6943 30.7497 52.9815 34.0619 52.4713C33.8483 52.1485 33.6296 51.8268 33.3954 51.506C32.8516 50.7609 32.289 50.1148 31.6677 49.6461C30.463 48.7373 29.9475 47.5793 29.5841 46.7625C29.3902 46.3267 29.2649 46.0467 29.1202 45.8347C29.0701 45.7614 29.0256 45.7083 28.9845 45.6692C27.7903 45.9002 26.4398 46.0484 25.0025 46.1215ZM31.0284 45.1361C31.1623 45.388 31.2768 45.6462 31.3786 45.8756C31.3897 45.9007 31.4007 45.9253 31.4115 45.9496C31.7717 46.7594 32.1164 47.4793 32.8722 48.0495C33.7197 48.6888 34.4173 49.5136 35.0109 50.327C35.4126 50.8774 35.7971 51.4674 36.1473 52.0049C36.3052 52.2471 36.4561 52.4787 36.5985 52.6912C36.9194 53.17 37.2068 53.5688 37.4823 53.8781C37.7625 54.1926 37.9794 54.3555 38.1406 54.428C38.8789 54.7603 40.6623 55.2753 42.6666 55.4396C44.6922 55.6058 46.7135 55.3937 48.0879 54.5013C49.774 53.4064 50.3944 52.2336 50.5883 51.5122C50.6714 51.2031 50.6716 50.9964 50.662 50.9166C50.6517 50.8308 50.6525 50.744 50.6645 50.6584C50.7487 50.057 50.7578 49.0878 50.5187 48.2029C50.2791 47.3162 49.8443 46.6839 49.1699 46.41C48.2144 46.0218 47.6459 45.3427 47.3922 44.5193C47.1593 43.7632 47.212 42.9501 47.3085 42.2653C47.3582 41.9125 47.4249 41.5616 47.488 41.2385C47.4969 41.1927 47.5057 41.1476 47.5144 41.1032C47.5689 40.8253 47.6185 40.5721 47.6577 40.33C47.7565 39.7198 47.7413 39.4203 47.6942 39.2922C47.6113 39.0672 47.2609 38.5084 46.6063 37.711C45.9833 36.9521 45.1625 36.0697 44.2499 35.2182C43.3357 34.3653 42.3472 33.5601 41.39 32.9438C40.4159 32.3166 39.5524 31.9363 38.8762 31.8397C38.2997 31.7573 37.791 31.6338 37.3386 31.4857C37.3241 31.7752 37.2643 32.0728 37.1488 32.3733C36.8909 33.0439 36.388 33.6447 35.6683 34.1772C35.4255 34.3568 35.1556 34.5306 34.8577 34.6988C34.4962 34.9028 34.1371 35.0638 33.7807 35.1831C31.9174 35.8069 30.3471 35.2295 29.2119 34.2985C28.1133 33.3974 27.3817 32.1457 27.0167 31.2147C26.9008 30.919 26.9323 30.5857 27.1015 30.3169C27.2708 30.0481 27.5577 29.8757 27.8745 29.8524C28.6728 29.7938 29.9324 29.6351 31.1381 29.3524C30.1092 29.3859 28.9308 29.4207 27.889 29.326C26.3298 29.1842 24.5297 28.7255 23.6369 27.1183C23.0786 26.1135 22.5725 25.7127 22.1157 25.5178C21.6119 25.303 21.0293 25.2712 20.1253 25.2712C19.1465 25.2712 17.5029 25.0895 15.8194 24.6604C14.1557 24.2364 12.3043 23.5342 11.0286 22.4057C10.36 21.8142 9.42835 21.815 8.32154 22.2746C7.22304 22.7307 6.28084 23.5206 5.96512 23.8994C5.73222 24.1789 5.41253 24.4444 5.1211 24.6744C4.98062 24.7853 4.83037 24.9003 4.6809 25.0148L4.64096 25.0454C4.47603 25.1717 4.30993 25.2993 4.14272 25.4318C3.88768 25.634 3.64241 25.8386 3.41572 26.0477C4.12512 26.2503 4.87669 26.5028 5.5417 26.7958C6.13738 27.0583 6.74684 27.3887 7.18706 27.8003C7.61978 28.2049 8.11049 28.9233 7.78769 29.811C7.31619 31.1077 5.97085 31.7749 4.79489 32.1145C3.91094 32.3698 2.93282 32.4969 2.01595 32.5201C2.09715 34.649 2.5166 36.9878 3.90892 38.8771C3.97361 38.8023 4.04956 38.7337 4.13737 38.6738C4.36278 38.52 4.59315 38.476 4.71529 38.4582C4.843 38.4396 4.97512 38.4348 5.0609 38.4317C5.07708 38.4312 5.09384 38.4306 5.10932 38.43C5.19142 38.4272 5.26549 38.4246 5.34952 38.4189C5.5151 38.4076 5.70535 38.3846 5.92813 38.327C5.8811 38.1003 5.8479 37.8322 5.8479 37.5135C5.8479 37.0341 5.96949 36.3731 6.58802 36.0104C7.10155 35.7093 7.66815 35.815 7.9229 35.8684C8.08522 35.9024 8.24883 35.9474 8.38846 35.9865C8.41466 35.9939 8.44013 36.001 8.46501 36.008C8.5821 36.041 8.68612 36.0703 8.7923 36.0969C8.83215 36.1069 8.86959 36.1157 8.90476 36.1235C8.9436 35.8055 9.07435 35.3243 9.56135 34.9795C10.0286 34.6488 10.6334 34.5891 11.2477 34.6214C11.5627 34.638 11.7601 34.6369 11.8797 34.631C11.8813 34.6284 11.883 34.6258 11.8847 34.6232C11.96 34.5056 12.0609 34.3702 12.2057 34.2296C12.4917 33.9521 12.8814 33.7198 13.4276 33.5103C13.9558 33.3076 14.5013 33.1883 15.0136 33.3521C15.2714 33.4345 15.4662 33.5754 15.605 33.7084C15.6591 33.6781 15.7226 33.6407 15.7963 33.5948C16.2912 33.2869 16.8845 33.0851 17.5042 33.291C18.0631 33.4767 18.386 33.9229 18.5509 34.1651C18.6521 34.3138 18.7181 34.4202 18.7733 34.5093C18.8469 34.628 18.9016 34.7161 18.9953 34.8329C19.0762 34.9338 19.1337 34.9802 19.1763 35.0034C19.2245 35.0111 19.265 35.0196 19.2935 35.0257C19.3762 35.0435 19.4652 35.0666 19.546 35.0881C19.5866 35.0989 19.6276 35.1099 19.6693 35.1212C19.8056 35.158 19.9502 35.1969 20.1184 35.2372C20.5494 35.3402 21.076 35.4357 21.653 35.4357C22.1576 35.4357 22.7175 35.5724 23.082 36.0701C23.348 36.4333 23.3906 36.8706 23.4051 37.0267C23.8417 37.087 24.3177 37.251 24.633 37.6852C24.9256 38.0881 24.9281 38.5475 24.929 38.7099C24.9291 38.7183 24.9291 38.7259 24.9292 38.7327C24.9295 38.7531 24.9297 38.7715 24.93 38.7881C25.3968 38.9754 25.7286 39.2712 25.9391 39.6461C26.0491 39.842 26.1183 40.0595 26.1596 40.2153C26.5142 40.1886 26.8367 40.1655 27.081 40.1834C27.2131 40.1931 27.4085 40.2188 27.6103 40.3137C27.8449 40.4241 28.0165 40.593 28.1323 40.7826C28.2231 40.9313 28.27 41.0806 28.2887 41.14L28.2902 41.1448C28.2996 41.1745 28.3065 41.1972 28.3124 41.2166C28.3237 41.2535 28.3313 41.2783 28.3447 41.3162C28.3719 41.3928 28.4196 41.5083 28.5339 41.6768C28.5866 41.6639 28.6684 41.6412 28.7916 41.6008C28.8339 41.5869 28.8795 41.5714 28.9282 41.5549C29.4524 41.377 30.3345 41.0777 31.4185 41.3112C31.651 41.3613 31.8586 41.4137 32.029 41.4721C32.1137 41.5012 32.2131 41.5398 32.3112 41.592C32.3254 41.5996 32.3423 41.6088 32.3613 41.6198C32.5359 41.499 32.7376 41.4047 32.965 41.3481C32.9651 41.3433 32.9653 41.3384 32.9654 41.3333C32.9708 41.1546 32.9809 40.8198 33.0657 40.5299C33.1188 40.3485 33.2208 40.1039 33.4332 39.8904C33.6455 39.6769 33.9102 39.5527 34.1893 39.5088C34.208 39.4961 34.241 39.4712 34.2886 39.4266C34.4224 39.3013 34.5951 39.0927 34.8085 38.78C35.2358 38.1539 35.7153 37.2792 36.2815 36.234C36.7466 35.3754 37.1658 34.8053 37.5689 34.4772C37.7691 34.3143 38.0498 34.1414 38.398 34.105C38.7986 34.0632 39.207 34.2177 39.4656 34.5625C39.7969 35.0043 39.7074 35.6311 39.2656 35.9625C39.0955 36.09 38.8981 36.1552 38.7007 36.162C38.5626 36.3231 38.3407 36.6315 38.04 37.1866C37.4883 38.2051 36.9575 39.1792 36.4604 39.9075C36.2116 40.2719 35.9436 40.6168 35.6555 40.8865C35.4768 41.0539 35.246 41.2346 34.9661 41.3557C34.9656 41.3703 34.9651 41.3855 34.9645 41.4014C34.9638 41.42 34.9631 41.4395 34.9624 41.4603C34.9621 41.4685 34.9618 41.4771 34.9615 41.4862C34.9548 41.6762 34.9413 42.0605 34.8011 42.4011C34.7164 42.6068 34.5669 42.849 34.3044 43.0335C34.056 43.2079 33.7807 43.2787 33.5217 43.2878C33.5058 43.5582 33.3809 43.811 33.175 43.9878C32.6168 44.4673 31.8758 44.8421 31.0284 45.1361ZM2.34724 30.5041C2.99432 30.4638 3.65402 30.3623 4.23999 30.1931C5.14744 29.931 5.63701 29.5815 5.83442 29.2738C5.83019 29.2698 5.82576 29.2656 5.82112 29.2612C5.62835 29.081 5.26422 28.8591 4.7352 28.626C4.23079 28.4037 3.65142 28.2031 3.08181 28.0336C3.276 28.232 3.56802 28.6026 3.56376 29.1128C3.5577 29.8398 3.00051 30.2206 2.63415 30.3832C2.53582 30.4269 2.44019 30.4673 2.34724 30.5041ZM5.91422 29.3629C5.91422 29.3629 5.91188 29.36 5.90901 29.3546C5.91309 29.3602 5.91422 29.3629 5.91422 29.3629ZM34.6604 30.1452C34.369 30.3316 34.0539 30.489 33.7404 30.6233C33.1251 30.8869 32.4306 31.0972 31.7436 31.2641C30.9889 31.4474 30.2154 31.5851 29.5201 31.683C29.7858 32.0708 30.1087 32.4474 30.4802 32.7521C30.9757 33.1584 31.5349 33.4252 32.179 33.4414C32.1579 33.3449 32.1395 33.2481 32.1253 33.1531C32.0882 32.9047 32.0501 32.5008 32.188 32.1167C32.2655 31.9007 32.4145 31.6483 32.6864 31.4641C32.9609 31.2781 33.2612 31.229 33.518 31.243C34.2006 31.2805 34.7717 31.6621 35.119 31.9502C35.1983 31.8393 35.2494 31.7403 35.282 31.6555C35.3619 31.4478 35.3593 31.2526 35.2918 31.0441C35.1927 30.738 34.9555 30.4207 34.6604 30.1452ZM34.0913 32.7076C34.0913 32.7076 34.0912 32.709 34.091 32.7111L34.0913 32.7076ZM11.6686 39.9107C11.8291 39.3822 12.3876 39.084 12.9161 39.2445C13.7091 39.4854 15.8266 39.881 17.7042 39.5125C18.2461 39.4062 18.7717 39.7593 18.878 40.3012C18.9844 40.8432 18.6313 41.3687 18.0894 41.4751C15.7794 41.9284 13.3112 41.4547 12.3348 41.1582C11.8064 40.9977 11.5081 40.4391 11.6686 39.9107Z" fill="black"/>
<path d="M12.8591 76.184C12.7951 76.2267 12.6617 76.28 12.4591 76.344C12.2671 76.3973 11.9364 76.4507 11.4671 76.504C11.3284 76.5147 11.1311 76.5253 10.8751 76.536C10.6191 76.5467 10.3417 76.5573 10.0431 76.568C9.75506 76.5787 9.4884 76.584 9.24306 76.584C9.0084 76.5733 8.84306 76.5573 8.74706 76.536C8.74706 76.536 8.7204 76.5627 8.66706 76.616C8.6244 76.6693 8.60306 76.7387 8.60306 76.824C8.5284 76.952 8.43773 77.144 8.33106 77.4C8.2244 77.6453 8.10706 77.9173 7.97906 78.216C7.86173 78.5147 7.74973 78.8133 7.64306 79.112C7.5364 79.4 7.44573 79.656 7.37106 79.88C7.30706 80.0933 7.27506 80.2427 7.27506 80.328C7.17906 80.584 7.1204 80.8027 7.09906 80.984C7.07773 81.1653 7.0404 81.272 6.98706 81.304C6.95506 81.464 6.85373 81.544 6.68306 81.544C6.52306 81.544 6.4004 81.496 6.31506 81.4C6.0804 81.2827 5.9204 81.1333 5.83506 80.952C5.74973 80.76 5.7444 80.5467 5.81906 80.312C5.85106 80.1733 5.9044 79.9707 5.97906 79.704C6.0644 79.4267 6.15506 79.1227 6.25106 78.792C6.35773 78.4613 6.4644 78.1413 6.57106 77.832C6.6884 77.512 6.8004 77.2507 6.90706 77.048C7.0244 76.8453 7.09906 76.664 7.13106 76.504C7.16306 76.3333 7.20573 76.1787 7.25906 76.04C7.2484 75.9227 7.2484 75.848 7.25906 75.816C7.26973 75.7733 7.3124 75.704 7.38706 75.608C7.4404 75.5653 7.5044 75.4907 7.57906 75.384C7.6644 75.2667 7.7604 75.0907 7.86706 74.856C7.89906 74.7493 7.94706 74.6053 8.01106 74.424C8.08573 74.232 8.15506 74.04 8.21906 73.848C8.28306 73.6453 8.34173 73.4747 8.39506 73.336C8.4484 73.1973 8.47506 73.1227 8.47506 73.112C8.4964 73.0693 8.5284 72.9893 8.57106 72.872C8.61373 72.744 8.64573 72.6427 8.66706 72.568C8.70973 72.4187 8.74173 72.296 8.76306 72.2C8.79506 72.104 8.78973 72.056 8.74706 72.056C8.66173 72.0773 8.49106 72.0933 8.23506 72.104C8.10706 72.1253 8.01106 72.1413 7.94706 72.152C7.89373 72.152 7.84573 72.1573 7.80306 72.168C7.6964 72.1787 7.6004 72.168 7.51506 72.136C7.42973 72.104 7.38706 72.04 7.38706 71.944C7.4084 71.7733 7.46706 71.5973 7.56306 71.416C7.66973 71.2347 7.80306 71.1387 7.96306 71.128C8.03773 71.1067 8.11773 71.0907 8.20306 71.08C8.29906 71.0587 8.42706 71.0267 8.58706 70.984C8.78973 70.9413 8.96573 70.9307 9.11506 70.952C9.27506 70.9627 9.38706 70.9787 9.45106 71C9.5044 70.968 9.54706 70.936 9.57906 70.904C9.62173 70.8613 9.6484 70.8187 9.65906 70.776C9.7124 70.584 9.8084 70.44 9.94706 70.344C10.0857 70.2373 10.2297 70.184 10.3791 70.184C10.5391 70.1733 10.6671 70.216 10.7631 70.312C10.8591 70.3973 10.8857 70.5413 10.8431 70.744C10.8537 70.776 10.8644 70.8027 10.8751 70.824C10.8964 70.8453 10.9764 70.8453 11.1151 70.824C11.2644 70.792 11.5204 70.7387 11.8831 70.664C12.0751 70.6427 12.3151 70.6213 12.6031 70.6C12.9017 70.5787 13.1364 70.5947 13.3071 70.648C13.4884 70.616 13.6484 70.6053 13.7871 70.616C13.9364 70.616 14.0377 70.5947 14.0911 70.552C14.3151 70.5947 14.4751 70.6267 14.5711 70.648C14.6777 70.6587 14.7631 70.6907 14.8271 70.744C14.8697 70.7867 14.8857 70.8293 14.8751 70.872C14.8644 70.904 14.8591 70.92 14.8591 70.92C14.8164 70.8987 14.8111 70.8987 14.8431 70.92C14.8751 70.9307 14.9177 70.9573 14.9711 71C15.0457 71.032 15.0831 71.1013 15.0831 71.208C15.0937 71.304 15.0884 71.4053 15.0671 71.512C15.0564 71.608 15.0457 71.672 15.0351 71.704C15.0244 71.8 14.9711 71.8587 14.8751 71.88C14.7791 71.8907 14.5391 71.8907 14.1551 71.88C13.6964 71.816 13.2697 71.7947 12.8751 71.816C12.4911 71.8267 12.0057 71.8747 11.4191 71.96C11.1844 71.9707 10.9817 72.0027 10.8111 72.056C10.6511 72.0987 10.5711 72.12 10.5711 72.12C10.5284 72.12 10.4537 72.1947 10.3471 72.344C10.2404 72.4827 10.1391 72.6907 10.0431 72.968C10.0004 73.0427 9.92573 73.1973 9.81906 73.432C9.72306 73.6667 9.62173 73.9227 9.51506 74.2C9.4084 74.4667 9.3124 74.7067 9.22706 74.92C9.14173 75.1227 9.0884 75.2347 9.06706 75.256C9.2164 75.2987 9.44573 75.32 9.75506 75.32C10.0751 75.32 10.4271 75.3093 10.8111 75.288C11.1951 75.256 11.5577 75.224 11.8991 75.192C12.0591 75.16 12.2244 75.1333 12.3951 75.112C12.5657 75.0907 12.6831 75.0853 12.7471 75.096C12.8751 75.1067 12.9711 75.192 13.0351 75.352C13.0991 75.5013 13.1204 75.6613 13.0991 75.832C13.0777 75.992 12.9977 76.1093 12.8591 76.184ZM14.1522 81.528C14.1522 81.5813 14.1255 81.5813 14.0722 81.528C14.0189 81.4853 13.9335 81.4213 13.8162 81.336C13.7202 81.24 13.6082 81.1173 13.4802 80.968C13.3522 80.8187 13.2935 80.6427 13.3042 80.44C13.3575 80.1947 13.4535 79.8373 13.5922 79.368C13.7309 78.888 13.8962 78.3867 14.0882 77.864C14.1095 77.6613 14.1415 77.4907 14.1842 77.352C14.2375 77.2133 14.2642 77.144 14.2642 77.144C14.2749 77.1227 14.2962 77.0907 14.3282 77.048C14.3602 76.9947 14.4082 76.9573 14.4722 76.936C14.5255 76.8933 14.5469 76.8133 14.5362 76.696C14.5255 76.568 14.5149 76.488 14.5042 76.456C14.5469 76.2 14.6429 75.8533 14.7922 75.416C14.9415 74.968 15.1175 74.4987 15.3202 74.008C15.5229 73.5067 15.7149 73.0427 15.8962 72.616C15.9495 72.52 15.9975 72.4293 16.0402 72.344C16.0829 72.248 16.1042 72.2 16.1042 72.2C16.0722 72.1573 16.0349 72.1147 15.9922 72.072C15.9495 72.0293 15.9015 71.9707 15.8482 71.896C15.7629 71.7787 15.6989 71.6507 15.6562 71.512C15.6242 71.3627 15.6615 71.2293 15.7682 71.112C15.8002 71.0587 15.8589 70.9893 15.9442 70.904C16.0402 70.8187 16.1415 70.7387 16.2482 70.664C16.4935 70.5253 16.7335 70.4187 16.9682 70.344C17.2135 70.2587 17.4322 70.2427 17.6242 70.296C17.9655 70.3067 18.2215 70.3333 18.3922 70.376C18.5735 70.4187 18.7175 70.4773 18.8242 70.552C18.8882 70.5947 18.9415 70.6267 18.9842 70.648C19.0375 70.6693 19.1069 70.68 19.1922 70.68C19.3735 70.7013 19.5869 70.7707 19.8322 70.888C20.0775 70.9947 20.2962 71.1067 20.4882 71.224C20.6802 71.3413 20.7922 71.4213 20.8242 71.464C21.0375 71.6453 21.2242 71.8907 21.3842 72.2C21.5442 72.5093 21.6402 72.8667 21.6722 73.272C21.6722 73.5173 21.6615 73.736 21.6402 73.928C21.6189 74.1093 21.5709 74.2907 21.4962 74.472C21.4215 74.6427 21.2989 74.8453 21.1282 75.08C20.8082 75.5813 20.4082 76.0773 19.9282 76.568C19.4589 77.0587 18.8615 77.5067 18.1362 77.912C18.1149 77.9547 18.0882 78.0027 18.0562 78.056C18.0349 78.0987 18.0242 78.12 18.0242 78.12C18.0242 78.2053 18.0775 78.3173 18.1842 78.456C18.3015 78.5947 18.4455 78.744 18.6162 78.904C18.7869 79.0533 18.9629 79.2027 19.1442 79.352C19.3362 79.5013 19.5069 79.6347 19.6562 79.752C19.8162 79.8587 19.9335 79.9333 20.0082 79.976C20.1469 79.9333 20.2589 79.9173 20.3442 79.928C20.4295 79.928 20.4935 79.9653 20.5362 80.04C20.5789 80.1147 20.6055 80.2427 20.6162 80.424C20.6055 80.5627 20.5682 80.696 20.5042 80.824C20.4402 80.952 20.3922 81.0267 20.3602 81.048C20.2749 81.112 20.1949 81.1867 20.1202 81.272C20.0562 81.3573 19.9762 81.4107 19.8802 81.432C19.7842 81.4533 19.6509 81.4053 19.4802 81.288C19.0002 81.1387 18.5682 80.856 18.1842 80.44C17.8109 80.024 17.4002 79.576 16.9522 79.096C16.8562 78.9787 16.7762 78.8987 16.7122 78.856C16.6482 78.8027 16.5789 78.776 16.5042 78.776C16.4295 78.776 16.3175 78.792 16.1682 78.824C16.0829 78.8347 15.9975 78.8133 15.9122 78.76C15.8375 78.7067 15.7575 78.6373 15.6722 78.552C15.6402 78.4987 15.5975 78.4667 15.5442 78.456C15.5015 78.4453 15.4642 78.472 15.4322 78.536C15.4109 78.6 15.3682 78.712 15.3042 78.872C15.2509 79.0213 15.1922 79.1707 15.1282 79.32C15.0749 79.4693 15.0215 79.5867 14.9682 79.672C14.9895 79.768 14.9629 79.976 14.8882 80.296C14.8135 80.6053 14.7175 80.9307 14.6002 81.272C14.5682 81.3573 14.5202 81.432 14.4562 81.496C14.3922 81.5707 14.3442 81.5867 14.3122 81.544C14.2695 81.4907 14.2322 81.464 14.2002 81.464C14.1789 81.464 14.1629 81.4853 14.1522 81.528ZM17.0802 76.904C17.3895 76.808 17.6935 76.664 17.9922 76.472C18.3015 76.2693 18.5895 76.0293 18.8562 75.752C19.1229 75.4747 19.3415 75.1813 19.5122 74.872C19.5975 74.808 19.6775 74.7067 19.7522 74.568C19.8269 74.4187 19.8909 74.328 19.9442 74.296C20.0402 74.1787 20.1042 74.088 20.1362 74.024C20.1789 73.96 20.1735 73.88 20.1202 73.784C20.1202 73.6987 20.1309 73.6187 20.1522 73.544C20.1842 73.4587 20.2109 73.3787 20.2322 73.304C20.2855 73.1547 20.2855 73.0213 20.2322 72.904C20.1895 72.7867 20.0349 72.6533 19.7682 72.504C19.6722 72.44 19.5709 72.3867 19.4642 72.344C19.3682 72.2907 19.2615 72.2427 19.1442 72.2C19.0375 72.1467 18.9149 72.088 18.7762 72.024C18.6055 72.024 18.4295 71.9867 18.2482 71.912C18.0775 71.8267 17.9442 71.7893 17.8482 71.8C17.7949 71.8107 17.7415 71.8747 17.6882 71.992C17.6455 72.0987 17.5975 72.2533 17.5442 72.456C17.5015 72.6267 17.4482 72.7813 17.3842 72.92C17.3309 73.048 17.2615 73.1333 17.1762 73.176C17.1655 73.2187 17.1175 73.368 17.0322 73.624C16.9469 73.88 16.8455 74.184 16.7282 74.536C16.6109 74.8773 16.4935 75.224 16.3762 75.576C16.2589 75.9173 16.1629 76.2107 16.0882 76.456C16.0135 76.7013 15.9762 76.8453 15.9762 76.888C15.9762 76.9093 16.0082 76.9467 16.0722 77C16.1469 77.0533 16.2109 77.0853 16.2642 77.096C16.2642 77.096 16.2749 77.0853 16.2962 77.064C16.3175 77.0427 16.3389 77.0373 16.3602 77.048L16.7122 77.224L17.0802 76.904ZM22.8569 81.656C22.7823 81.5387 22.6543 81.464 22.4729 81.432C22.2916 81.4 22.0143 81.3947 21.6409 81.416C21.4916 81.4373 21.3369 81.4267 21.1769 81.384C21.0169 81.3413 20.8889 81.2773 20.7929 81.192C20.6969 81.1067 20.6596 81.0213 20.6809 80.936C20.6916 80.808 20.8409 80.6693 21.1289 80.52C21.4169 80.3707 21.7903 80.2907 22.2489 80.28L22.9209 80.264L23.0809 79.944C23.1236 79.8267 23.1556 79.6987 23.1769 79.56C23.2089 79.4213 23.2623 79.2293 23.3369 78.984C23.3796 78.8347 23.4436 78.6267 23.5289 78.36C23.6143 78.0933 23.7049 77.8107 23.8009 77.512C23.8969 77.2027 23.9823 76.9253 24.0569 76.68C24.1316 76.4347 24.1796 76.264 24.2009 76.168C24.2436 76.072 24.3023 75.912 24.3769 75.688C24.4516 75.4533 24.5209 75.2187 24.5849 74.984C24.6596 74.7387 24.7076 74.5627 24.7289 74.456C25.0063 73.6133 25.1876 73.0267 25.2729 72.696C25.3583 72.3547 25.3796 72.1787 25.3369 72.168C25.2943 72.168 25.1929 72.1733 25.0329 72.184C24.8729 72.1947 24.6969 72.2107 24.5049 72.232C24.3129 72.2427 24.1423 72.2587 23.9929 72.28C23.8436 72.3013 23.7529 72.3227 23.7209 72.344C23.6676 72.4187 23.5769 72.408 23.4489 72.312C23.3209 72.2053 23.2409 72.0987 23.2089 71.992C23.1983 71.896 23.1983 71.8053 23.2089 71.72C23.2196 71.6347 23.2516 71.576 23.3049 71.544C23.3796 71.48 23.5343 71.4107 23.7689 71.336C24.0036 71.2507 24.2649 71.176 24.5529 71.112C24.8516 71.048 25.1236 71 25.3689 70.968C25.5503 70.9467 25.7316 70.9093 25.9129 70.856C26.0943 70.792 26.2383 70.7173 26.3449 70.632C26.4409 70.6 26.5316 70.5733 26.6169 70.552C26.7129 70.5307 26.8089 70.5253 26.9049 70.536C26.9903 70.5893 27.1343 70.616 27.3369 70.616C27.5503 70.616 27.7743 70.6107 28.0089 70.6C28.6063 70.5467 29.0223 70.568 29.2569 70.664C29.5023 70.7493 29.6623 70.8667 29.7369 71.016C29.7903 71.2187 29.7796 71.3893 29.7049 71.528C29.6303 71.656 29.5023 71.7147 29.3209 71.704C29.2249 71.7253 29.0916 71.7467 28.9209 71.768C28.7503 71.7787 28.5263 71.7893 28.2489 71.8C27.5449 71.864 27.1663 71.9387 27.1129 72.024C27.0703 72.0667 27.0329 72.1093 27.0009 72.152C26.9796 72.1947 26.9476 72.2427 26.9049 72.296C26.9156 72.3387 26.8889 72.4667 26.8249 72.68C26.7716 72.8827 26.7023 73.1013 26.6169 73.336C26.5743 73.4747 26.5103 73.672 26.4249 73.928C26.3396 74.184 26.2489 74.4507 26.1529 74.728C26.0676 74.9947 25.9876 75.24 25.9129 75.464C25.8383 75.6773 25.7849 75.8213 25.7529 75.896C25.7103 75.992 25.6729 76.0987 25.6409 76.216C25.6196 76.3227 25.6036 76.4027 25.5929 76.456C25.4436 76.9787 25.3156 77.416 25.2089 77.768C25.1129 78.12 25.0276 78.4293 24.9529 78.696C24.8783 78.952 24.8089 79.2027 24.7449 79.448C24.6809 79.6827 24.6063 79.9493 24.5209 80.248C24.5209 80.248 24.6116 80.2427 24.7929 80.232C24.9743 80.2107 25.2036 80.1893 25.4809 80.168C25.9823 80.1147 26.3236 80.0827 26.5049 80.072C26.6863 80.0613 26.7929 80.0773 26.8249 80.12C26.8569 80.152 26.8889 80.216 26.9209 80.312C27.1343 80.6 27.1183 80.84 26.8729 81.032C26.6383 81.224 26.2223 81.3147 25.6249 81.304C25.0703 81.3253 24.6596 81.3413 24.3929 81.352C24.1369 81.3733 23.9716 81.4 23.8969 81.432C23.8223 81.464 23.7849 81.5173 23.7849 81.592C23.7956 81.7627 23.6889 81.864 23.4649 81.896C23.2516 81.9387 23.0489 81.8587 22.8569 81.656ZM31.5356 81.8C31.1089 81.8 30.7249 81.7733 30.3836 81.72C30.0529 81.6773 29.7489 81.5493 29.4716 81.336C29.1409 81.0907 28.9062 80.7387 28.7676 80.28C28.6396 79.8107 28.6769 79.1973 28.8796 78.44C28.9329 78.1733 28.9916 77.9387 29.0556 77.736C29.1302 77.5333 29.1942 77.432 29.2476 77.432C29.2582 77.3787 29.2742 77.304 29.2956 77.208C29.3169 77.1013 29.3382 76.9787 29.3596 76.84C29.4129 76.648 29.4502 76.5093 29.4716 76.424C29.4929 76.328 29.5356 76.248 29.5996 76.184C29.6316 76.1627 29.6689 76.0933 29.7116 75.976C29.7542 75.848 29.7809 75.7733 29.7916 75.752C29.7916 75.752 29.7969 75.7147 29.8076 75.64C29.8182 75.5547 29.8449 75.4587 29.8876 75.352C30.0476 75.0853 30.1276 74.9093 30.1276 74.824C30.1489 74.7813 30.1916 74.7173 30.2556 74.632C30.3302 74.5467 30.3889 74.4347 30.4316 74.296C30.7516 73.7307 31.0129 73.2667 31.2156 72.904C31.4182 72.5307 31.5409 72.2427 31.5836 72.04C31.6369 71.9227 31.6849 71.784 31.7276 71.624C31.7809 71.4533 31.8449 71.3253 31.9196 71.24C31.8982 71.1867 31.9569 71.128 32.0956 71.064C32.2449 71 32.4369 70.9307 32.6716 70.856C32.9062 70.7813 33.1569 70.7173 33.4236 70.664C33.6902 70.6107 33.9356 70.5787 34.1596 70.568C34.2236 70.5253 34.3622 70.4933 34.5756 70.472C34.7996 70.4507 35.0556 70.44 35.3436 70.44C35.6316 70.44 35.8982 70.4507 36.1436 70.472C36.3782 70.472 36.5649 70.504 36.7036 70.568C36.8422 70.632 36.9809 70.696 37.1196 70.76C37.1729 70.8133 37.2476 70.888 37.3436 70.984C37.4396 71.08 37.4982 71.1813 37.5196 71.288C37.5516 71.3947 37.4822 71.4907 37.3116 71.576C37.2796 71.608 37.1036 71.6347 36.7836 71.656C36.4636 71.6773 36.1276 71.688 35.7756 71.688C35.3809 71.688 35.0396 71.72 34.7516 71.784C34.4636 71.848 34.2609 71.88 34.1436 71.88C33.9942 71.9227 33.8182 71.9493 33.6156 71.96C33.4129 71.9707 33.3116 71.976 33.3116 71.976C33.2902 71.976 33.2369 72.04 33.1516 72.168C33.0662 72.2853 32.9702 72.4293 32.8636 72.6C32.7676 72.76 32.6769 72.9093 32.5916 73.048C32.5169 73.1867 32.4796 73.272 32.4796 73.304C32.4796 73.4107 32.4369 73.528 32.3516 73.656C32.2662 73.784 32.1649 73.9333 32.0476 74.104C31.9409 74.2427 31.8716 74.392 31.8396 74.552C31.8076 74.7013 31.8396 74.7973 31.9356 74.84C32.1062 74.808 32.3409 74.776 32.6396 74.744C32.9489 74.712 33.2529 74.6853 33.5516 74.664C33.8502 74.632 34.0796 74.616 34.2396 74.616C34.4209 74.5627 34.5702 74.552 34.6876 74.584C34.8049 74.616 34.8902 74.648 34.9436 74.68C35.0716 74.7013 35.1462 74.7653 35.1676 74.872C35.1996 74.9787 35.1996 75.0853 35.1676 75.192C35.1356 75.2987 35.0822 75.368 35.0076 75.4C34.9436 75.464 34.7836 75.5387 34.5276 75.624C34.2716 75.7093 33.9676 75.7947 33.6156 75.88C33.2742 75.9653 32.9276 76.0453 32.5756 76.12C32.2342 76.184 31.9356 76.2373 31.6796 76.28C31.4342 76.3227 31.2902 76.3387 31.2476 76.328C31.1836 76.1787 31.1089 76.184 31.0236 76.344C30.9489 76.4933 30.8582 76.8027 30.7516 77.272C30.6342 77.5387 30.5436 77.7413 30.4796 77.88C30.4262 78.008 30.3836 78.152 30.3516 78.312C30.3196 78.4613 30.2716 78.7013 30.2076 79.032C30.1329 79.32 30.1382 79.5813 30.2236 79.816C30.3196 80.04 30.5382 80.232 30.8796 80.392C31.0929 80.4347 31.3382 80.4507 31.6156 80.44C31.8929 80.4293 32.2609 80.3653 32.7196 80.248C32.9116 80.1307 33.1036 80.024 33.2956 79.928C33.4876 79.8213 33.6209 79.7467 33.6956 79.704C33.7489 79.704 33.8289 79.6827 33.9356 79.64C34.0529 79.5867 34.1329 79.56 34.1756 79.56C34.2609 79.4427 34.3676 79.384 34.4956 79.384C34.5169 79.384 34.5756 79.432 34.6716 79.528C34.7782 79.624 34.8796 79.7467 34.9756 79.896C35.0716 80.0453 35.1196 80.2 35.1196 80.36C35.1196 80.4667 34.9382 80.6053 34.5756 80.776C34.2236 80.9467 33.7809 81.1387 33.2476 81.352C32.9809 81.4693 32.7622 81.56 32.5916 81.624C32.4316 81.688 32.2769 81.7307 32.1276 81.752C31.9782 81.784 31.7809 81.8 31.5356 81.8ZM37.1938 81.048C37.1085 80.9627 37.0391 80.8347 36.9858 80.664C36.9431 80.4933 36.9218 80.312 36.9218 80.12C36.9325 79.9173 36.9698 79.752 37.0338 79.624C37.0871 79.528 37.1298 79.4053 37.1618 79.256C37.1938 79.096 37.2151 78.9467 37.2258 78.808C37.3111 78.4667 37.4125 78.1147 37.5298 77.752C37.6578 77.3787 37.7911 76.9787 37.9298 76.552C38.1218 75.9653 38.2871 75.4533 38.4258 75.016C38.5645 74.5787 38.7031 74.1627 38.8418 73.768C38.9805 73.3627 39.1405 72.936 39.3218 72.488C39.3538 72.4347 39.3858 72.3707 39.4178 72.296C39.4605 72.2107 39.4925 72.1253 39.5138 72.04C39.5458 71.944 39.5565 71.864 39.5458 71.8C39.5778 71.6293 39.6205 71.4907 39.6738 71.384C39.7378 71.2667 39.7911 71.1867 39.8338 71.144C39.9511 71.0053 40.0791 70.8933 40.2178 70.808C40.3565 70.712 40.4685 70.6853 40.5538 70.728C40.7031 70.7707 40.8631 70.8453 41.0338 70.952C41.2151 71.048 41.3645 71.2507 41.4818 71.56C41.5458 71.656 41.6045 71.7573 41.6578 71.864C41.7111 71.96 41.7485 72.072 41.7698 72.2C41.7911 72.328 41.7858 72.488 41.7538 72.68C41.7858 73.1493 41.8445 73.6293 41.9298 74.12C42.0258 74.6107 42.0631 75.0587 42.0418 75.464C42.0418 75.6453 42.0418 75.8853 42.0418 76.184C42.0418 76.4827 42.0418 76.792 42.0418 77.112C42.0525 77.4213 42.0685 77.6933 42.0898 77.928C42.1218 78.152 42.1698 78.2853 42.2338 78.328C42.2551 78.3387 42.2658 78.3653 42.2658 78.408C42.2658 78.44 42.2711 78.456 42.2818 78.456C42.2925 78.456 42.3085 78.4133 42.3298 78.328C42.3618 78.232 42.4098 78.0667 42.4738 77.832C42.5378 77.6187 42.6391 77.4053 42.7778 77.192C42.9271 76.968 43.0391 76.664 43.1138 76.28C43.2525 75.928 43.3645 75.6187 43.4498 75.352C43.5458 75.0853 43.6365 74.8133 43.7218 74.536C43.8071 74.2587 43.9085 73.9493 44.0258 73.608C44.0471 73.512 44.0845 73.3947 44.1378 73.256C44.2018 73.1067 44.2711 72.952 44.3458 72.792C44.4205 72.6213 44.5005 72.4667 44.5858 72.328C44.6925 72.1147 44.8098 71.896 44.9378 71.672C45.0658 71.448 45.1298 71.3147 45.1298 71.272C45.1298 71.272 45.1298 71.2453 45.1298 71.192C45.1298 71.128 45.1511 71.0747 45.1938 71.032C45.2471 70.9893 45.3165 70.9413 45.4018 70.888C45.4871 70.8347 45.5458 70.7387 45.5778 70.6C45.6311 70.5573 45.7325 70.4987 45.8818 70.424C46.0311 70.3493 46.1538 70.3333 46.2498 70.376C46.3138 70.4293 46.3778 70.488 46.4418 70.552C46.5165 70.616 46.5645 70.7067 46.5858 70.824C46.6178 70.9413 46.5911 71.112 46.5058 71.336C46.4738 71.56 46.4258 71.752 46.3618 71.912C46.3085 72.0613 46.2551 72.1787 46.2018 72.264C46.1591 72.3707 46.1111 72.4987 46.0578 72.648C46.0151 72.7867 45.9671 72.9147 45.9138 73.032C45.8711 73.224 45.8338 73.3787 45.8018 73.496C45.7805 73.6133 45.7698 73.6933 45.7698 73.736C45.7698 73.736 45.7325 73.7893 45.6578 73.896C45.5938 74.0027 45.5138 74.136 45.4178 74.296C45.2685 74.68 45.1511 75.0053 45.0658 75.272C44.9805 75.528 44.9058 75.752 44.8418 75.944C44.7778 76.136 44.7138 76.3333 44.6498 76.536C44.5858 76.728 44.5005 76.952 44.3938 77.208C44.3831 77.3573 44.3565 77.496 44.3138 77.624C44.2711 77.7413 44.2231 77.8427 44.1698 77.928C44.1165 78.0133 44.0738 78.0827 44.0418 78.136C44.0098 78.1787 43.9938 78.2 43.9938 78.2C43.7271 78.648 43.4978 79.0693 43.3058 79.464C43.1138 79.848 42.9858 80.0933 42.9218 80.2C42.8685 80.2853 42.8151 80.3547 42.7618 80.408C42.7085 80.4507 42.6551 80.4827 42.6018 80.504C42.5591 80.5147 42.5111 80.5253 42.4578 80.536C42.4151 80.5467 42.3618 80.552 42.2978 80.552C42.1058 80.5733 41.9298 80.5147 41.7698 80.376C41.6098 80.2267 41.4551 79.992 41.3058 79.672C41.1138 79.2773 40.9431 78.776 40.7938 78.168C40.6551 77.5493 40.5751 76.8987 40.5538 76.216C40.5538 76.1307 40.5538 76.0347 40.5538 75.928C40.5538 75.8213 40.5485 75.7147 40.5378 75.608C40.5378 75.5013 40.5325 75.4107 40.5218 75.336C40.5218 75.2507 40.5218 75.0373 40.5218 74.696C40.5218 74.3547 40.5111 73.9387 40.4898 73.448C40.3511 73.736 40.2285 74.0827 40.1218 74.488C40.0151 74.8933 39.9031 75.2987 39.7858 75.704C39.6685 76.0987 39.5138 76.4507 39.3218 76.76C39.3005 76.9733 39.2685 77.1653 39.2258 77.336C39.1831 77.5067 39.1405 77.656 39.0978 77.784C39.0658 77.9013 39.0285 77.9867 38.9858 78.04C38.9111 78.2533 38.8471 78.504 38.7938 78.792C38.7511 79.08 38.7085 79.2933 38.6658 79.432C38.6658 79.5387 38.6338 79.6933 38.5698 79.896C38.5165 80.088 38.4578 80.2853 38.3938 80.488C38.3298 80.68 38.2818 80.8293 38.2498 80.936C38.1965 81.064 38.1005 81.1653 37.9618 81.24C37.8231 81.3147 37.6791 81.3413 37.5298 81.32C37.3805 81.2987 37.2685 81.208 37.1938 81.048ZM47.8529 82.696C47.6503 82.728 47.4049 82.7227 47.1169 82.68C46.8289 82.648 46.5196 82.5893 46.1889 82.504C46.0183 82.4507 45.8956 82.3867 45.8209 82.312C45.7569 82.2373 45.6449 82.0987 45.4849 81.896C45.3783 81.736 45.3089 81.5547 45.2769 81.352C45.2556 81.1493 45.2823 80.968 45.3569 80.808C45.4423 80.648 45.5809 80.552 45.7729 80.52C45.8583 80.4987 45.9596 80.52 46.0769 80.584C46.2049 80.6373 46.3383 80.7067 46.4769 80.792C46.7009 80.92 46.9409 81.048 47.1969 81.176C47.4529 81.3147 47.6876 81.368 47.9009 81.336C48.0503 81.304 48.2263 81.2827 48.4289 81.272C48.6423 81.272 48.8449 81.256 49.0369 81.224C49.2396 81.192 49.3996 81.1333 49.5169 81.048C50.0823 80.664 50.5036 80.36 50.7809 80.136C51.0583 79.9013 51.1969 79.784 51.1969 79.784C51.2183 79.7413 51.2556 79.7093 51.3089 79.688C51.3729 79.656 51.4476 79.624 51.5329 79.592C51.5969 79.528 51.6983 79.4267 51.8369 79.288C51.9756 79.1387 52.1089 78.9947 52.2369 78.856C52.3756 78.7173 52.4609 78.6373 52.4929 78.616C52.5143 78.52 52.5356 78.4453 52.5569 78.392C52.5783 78.328 52.5889 78.264 52.5889 78.2C52.6743 78.1147 52.7863 77.9387 52.9249 77.672C53.0743 77.3947 53.2236 77.0907 53.3729 76.76C53.5223 76.4187 53.6289 76.1093 53.6929 75.832C53.8316 75.2453 53.8796 74.712 53.8369 74.232C53.7943 73.752 53.6716 73.32 53.4689 72.936C53.2663 72.552 52.9943 72.216 52.6529 71.928C52.5356 71.832 52.3756 71.7307 52.1729 71.624C51.9703 71.5067 51.7623 71.4 51.5489 71.304C51.3356 71.1973 51.1436 71.1173 50.9729 71.064C50.8129 71.0107 50.7169 70.9893 50.6849 71C50.6423 71.0107 50.5569 71.176 50.4289 71.496C50.3116 71.8053 50.1623 72.2053 49.9809 72.696C49.8103 73.1867 49.6236 73.7147 49.4209 74.28C49.2289 74.8347 49.0423 75.3627 48.8609 75.864C48.8076 76.0667 48.7383 76.28 48.6529 76.504C48.5783 76.728 48.5143 76.9253 48.4609 77.096C48.4076 77.256 48.3809 77.3627 48.3809 77.416C48.2636 77.5973 48.1409 77.8747 48.0129 78.248C47.8849 78.6213 47.7783 79.1547 47.6929 79.848C47.5969 80.2107 47.5276 80.5147 47.4849 80.76C47.4423 80.9947 47.3996 81.1067 47.3569 81.096C47.3569 81.096 47.3516 81.144 47.3409 81.24C47.3303 81.3467 47.3089 81.416 47.2769 81.448C47.2769 81.512 47.2129 81.5547 47.0849 81.576C46.9569 81.5973 46.8076 81.5707 46.6369 81.496C46.4663 81.4213 46.3063 81.2773 46.1569 81.064C46.1249 80.9467 46.0983 80.776 46.0769 80.552C46.0663 80.3173 46.1036 80.0453 46.1889 79.736C46.2423 79.5333 46.3169 79.272 46.4129 78.952C46.5089 78.632 46.6156 78.3013 46.7329 77.96C46.8503 77.6187 46.9569 77.304 47.0529 77.016C47.1596 76.728 47.2343 76.5147 47.2769 76.376C47.3516 76.1947 47.4583 75.8533 47.5969 75.352C47.6823 75.0747 47.7676 74.7973 47.8529 74.52C47.9489 74.2427 48.0396 73.9973 48.1249 73.784C48.2103 73.56 48.2689 73.416 48.3009 73.352C48.3543 73.2133 48.4183 72.9893 48.4929 72.68C48.5783 72.36 48.7063 71.9973 48.8769 71.592L48.9889 71.064L48.8129 70.984C48.6849 71.0267 48.5836 71.0427 48.5089 71.032C48.4449 71.0107 48.4023 70.9947 48.3809 70.984C48.3169 71.0053 48.2316 70.9893 48.1249 70.936C48.0289 70.872 47.9383 70.792 47.8529 70.696C47.7783 70.6 47.7303 70.52 47.7089 70.456C47.6876 70.4133 47.6716 70.36 47.6609 70.296C47.6609 70.2213 47.6609 70.184 47.6609 70.184C47.6716 70.12 47.7623 70.056 47.9329 69.992C48.1036 69.9173 48.3223 69.848 48.5889 69.784C48.8663 69.72 49.1596 69.672 49.4689 69.64C49.7783 69.608 50.0663 69.6027 50.3329 69.624C50.6103 69.6453 50.9516 69.7093 51.3569 69.816C51.7623 69.9227 52.1089 70.0293 52.3969 70.136C52.7383 70.264 53.1063 70.4827 53.5009 70.792C53.8956 71.1013 54.2529 71.4693 54.5729 71.896C54.9036 72.3227 55.1223 72.7707 55.2289 73.24C55.2609 73.368 55.2929 73.5493 55.3249 73.784C55.3569 74.0187 55.3729 74.248 55.3729 74.472C55.3836 74.6853 55.3623 74.824 55.3089 74.888C55.2876 74.9307 55.2716 74.984 55.2609 75.048C55.2609 75.1013 55.2823 75.1387 55.3249 75.16C55.3143 75.192 55.2769 75.3147 55.2129 75.528C55.1489 75.7307 55.0903 75.9067 55.0369 76.056C55.0156 76.3333 54.9409 76.6533 54.8129 77.016C54.6956 77.3787 54.5623 77.7253 54.4129 78.056C54.2743 78.376 54.1516 78.6267 54.0449 78.808C54.0023 78.808 53.9596 78.8187 53.9169 78.84C53.8849 78.8507 53.8903 78.8613 53.9329 78.872C53.9329 78.9253 53.8743 79.0267 53.7569 79.176C53.7143 79.208 53.6449 79.288 53.5489 79.416C53.4636 79.5333 53.3943 79.6133 53.3409 79.656C53.3303 79.7307 53.2983 79.7947 53.2449 79.848C53.1916 79.8907 53.1436 79.912 53.1009 79.912C53.1009 79.912 53.0903 79.912 53.0689 79.912C53.0583 79.912 53.0529 79.9333 53.0529 79.976C52.9676 80.104 52.8236 80.2693 52.6209 80.472C52.4183 80.6747 52.1889 80.8827 51.9329 81.096C51.6769 81.3093 51.4209 81.5067 51.1649 81.688C50.9089 81.8693 50.6743 82.0027 50.4609 82.088C50.3543 82.1627 50.2423 82.2213 50.1249 82.264C50.0076 82.3173 49.8956 82.3707 49.7889 82.424C49.7356 82.4667 49.5809 82.504 49.3249 82.536C49.0689 82.568 48.7969 82.5947 48.5089 82.616C48.2316 82.6373 48.0129 82.664 47.8529 82.696ZM55.3951 81.816C55.2991 81.7733 55.1871 81.688 55.0591 81.56C54.8457 81.3787 54.7017 81.1493 54.6271 80.872C54.5631 80.584 54.5577 80.3067 54.6111 80.04C54.7391 79.72 54.8777 79.5013 55.0271 79.384C55.1871 79.256 55.3524 79.2027 55.5231 79.224C55.7044 79.2347 55.8751 79.2987 56.0351 79.416C55.9604 79.64 55.9017 79.8427 55.8591 80.024C55.8164 80.2053 55.8324 80.36 55.9071 80.488C55.9817 80.616 56.1577 80.7173 56.4351 80.792C56.6484 80.8133 56.8297 80.824 56.9791 80.824C57.1391 80.8133 57.3257 80.8027 57.5391 80.792C57.7844 80.7707 57.9764 80.744 58.1151 80.712C58.2644 80.68 58.3977 80.648 58.5151 80.616C58.8137 80.5307 59.0697 80.4133 59.2831 80.264C59.4964 80.104 59.6724 79.9227 59.8111 79.72C59.8964 79.5707 59.9551 79.4373 59.9871 79.32C60.0191 79.192 60.0351 79.0587 60.0351 78.92C60.0351 78.76 60.0191 78.6213 59.9871 78.504C59.9551 78.376 59.8964 78.2267 59.8111 78.056C59.7364 77.8747 59.6137 77.624 59.4431 77.304C59.4324 77.2293 59.3471 77.1013 59.1871 76.92C59.0377 76.7387 58.8884 76.5627 58.7391 76.392C58.6644 76.2213 58.5684 76.0293 58.4511 75.816C58.3337 75.592 58.2004 75.432 58.0511 75.336C58.0084 75.272 57.9604 75.1707 57.9071 75.032C57.8644 74.8933 57.8271 74.8187 57.7951 74.808C57.7951 74.808 57.7791 74.7813 57.7471 74.728C57.7257 74.6747 57.6991 74.6107 57.6671 74.536C57.5284 74.2267 57.5231 73.8427 57.6511 73.384C57.7791 72.9147 58.0137 72.4773 58.3551 72.072C58.4724 71.88 58.6217 71.688 58.8031 71.496C58.9844 71.2933 59.1497 71.128 59.2991 71C59.4591 70.8613 59.5604 70.792 59.6031 70.792C59.6031 70.792 59.6351 70.7813 59.6991 70.76C59.7737 70.728 59.8644 70.6747 59.9711 70.6C60.0884 70.5253 60.2004 70.4667 60.3071 70.424C60.4137 70.3707 60.5684 70.3227 60.7711 70.28L60.8671 70.264L60.9311 70.248C61.1124 70.1947 61.2617 70.1573 61.3791 70.136C61.4964 70.104 61.6084 70.088 61.7151 70.088C61.8217 70.088 61.9497 70.0933 62.0991 70.104C62.5791 70.232 62.9471 70.408 63.2031 70.632C63.4697 70.8453 63.6137 71.2347 63.6351 71.8L63.5071 72.248L63.2351 72.552C63.2031 72.5413 63.1177 72.5733 62.9791 72.648C62.8511 72.7227 62.6697 72.7813 62.4351 72.824C62.2111 72.856 61.9231 72.8027 61.5711 72.664C61.5284 72.6533 61.5124 72.6267 61.5231 72.584C61.5337 72.5307 61.5764 72.4987 61.6511 72.488C61.6831 72.4667 61.7311 72.4187 61.7951 72.344C61.8697 72.2693 61.9391 72.184 62.0031 72.088C62.1417 71.896 62.1737 71.752 62.0991 71.656C62.0351 71.5493 61.9071 71.496 61.7151 71.496C61.3524 71.5067 61.0057 71.576 60.6751 71.704C60.3444 71.8213 60.0404 72.0347 59.7631 72.344C59.5391 72.632 59.3737 72.888 59.2671 73.112C59.1604 73.3253 59.1071 73.5227 59.1071 73.704C59.1284 73.7787 59.1391 73.8907 59.1391 74.04C59.1497 74.1787 59.1924 74.3227 59.2671 74.472C59.6191 74.9627 59.8911 75.3413 60.0831 75.608C60.2857 75.8747 60.4244 76.0667 60.4991 76.184C60.5204 76.216 60.5364 76.2427 60.5471 76.264C60.5577 76.2853 60.5631 76.3067 60.5631 76.328C60.6057 76.4027 60.6644 76.5093 60.7391 76.648C60.8137 76.7867 60.8831 76.92 60.9471 77.048C61.0111 77.176 61.0431 77.2613 61.0431 77.304C61.0431 77.304 61.0591 77.336 61.0911 77.4C61.1231 77.4533 61.1604 77.5333 61.2031 77.64C61.2564 77.736 61.3044 77.8747 61.3471 78.056C61.4004 78.2267 61.4431 78.4133 61.4751 78.616C61.5071 78.808 61.5231 78.984 61.5231 79.144C61.5231 79.272 61.4911 79.4373 61.4271 79.64C61.3631 79.832 61.2777 80.0293 61.1711 80.232C61.0751 80.424 60.9524 80.584 60.8031 80.712C60.6537 80.84 60.4351 80.9947 60.1471 81.176C59.8591 81.3573 59.5444 81.5227 59.2031 81.672C58.8617 81.8213 58.5311 81.9227 58.2111 81.976C57.8911 82.0293 57.5871 82.072 57.2991 82.104C57.0217 82.136 56.7604 82.1467 56.5151 82.136C56.2804 82.136 56.0671 82.1093 55.8751 82.056C55.6831 82.0027 55.5231 81.9227 55.3951 81.816Z" fill="black"/>
</svg>
