<svg width="66" height="86" viewBox="0 0 66 86" fill="none" xmlns="http://www.w3.org/2000/svg">
<path d="M6.5 35.5001C6.1 32.7001 10 27.3335 12 25.0001C12.471 21.6025 17.5713 14.6418 34.2045 13.9805C50.8378 13.3193 54.5787 24.0809 54.3699 29.5444C55.1856 30.6659 57.1838 34.044 58.652 38.5843C60.4871 44.2597 57.4965 43.6479 52.8067 48.7116C48.1168 53.7753 43.359 56.0182 41.4899 56.3241C39.9946 56.5688 37.8736 53.8767 37 52.5001C32.5 57.5001 24.5 58.0001 19.5 57.5001C14.5 57.0001 14.5 54.0001 14.5 51.0001C14.5 48.6001 12.1667 45.3335 11 44.0001C9.66667 42.3335 6.9 38.3001 6.5 35.5001Z" fill="#FFA5A5"/>
<path fill-rule="evenodd" clip-rule="evenodd" d="M37.8854 15.9089C24.8639 12.8747 16.1166 20.8111 13.3947 25.1115L13.3818 25.1314C12.8735 25.8937 11.6717 27.595 10.4113 29.1027C10.9863 29.131 11.5694 29.2059 12.1022 29.3502C12.7495 29.5256 13.4562 29.8387 13.9386 30.4276C14.4681 31.0739 14.6035 31.8965 14.3637 32.7828C13.8381 34.7253 12.3244 36.0022 10.8942 36.7763C9.93481 37.2955 8.92804 37.6356 8.10493 37.8109C8.18061 38.2893 8.50978 38.9492 9.13504 39.8351C9.62411 40.5281 10.2193 41.2603 10.8668 42.0567C11.0702 42.3069 11.2787 42.5634 11.4908 42.8271C12.3586 43.9062 13.2641 45.0807 13.976 46.2994C14.686 47.5149 15.2434 48.8403 15.3498 50.2236C15.5285 52.5465 15.8398 53.8929 16.2739 54.7153C16.6603 55.4474 17.1665 55.8088 18.0079 56.0631C18.9029 56.3336 20.6898 56.5128 22.7405 56.5228C24.7671 56.5327 26.9108 56.3769 28.4809 56.0423C29.6428 55.7947 31.1758 55.045 32.6824 54.1404C34.1652 53.2501 35.5248 52.2698 36.3138 51.6467C36.5856 51.4322 36.949 51.3734 37.2745 51.4914C37.6 51.6095 37.8412 51.8875 37.9123 52.2264C38.0908 53.0779 38.5945 53.6902 39.2029 54.1262C39.8254 54.5723 40.5114 54.797 40.9111 54.8637C40.925 54.866 40.9389 54.8686 40.9527 54.8715C41.8229 55.0547 42.9102 54.851 44.2134 54.2447C45.5044 53.6441 46.8979 52.6993 48.3265 51.5654C50.2965 50.0018 52.2254 48.1709 53.9805 46.505C54.7928 45.7339 55.5679 44.9982 56.2926 44.3407C57.2944 43.4318 57.8242 42.5599 58.0655 41.7217C58.3076 40.881 58.2838 39.9899 58.0413 39.0045C57.6083 37.2448 56.543 35.3796 55.3068 33.2153C55.1065 32.8645 54.9016 32.5058 54.6942 32.1384C53.9792 30.8718 53.5643 29.4671 53.1704 28.1335C53.1298 27.9961 53.0894 27.8594 53.049 27.7237C52.6048 26.2338 52.1336 24.786 51.2671 23.3845C49.5743 20.6464 46.2167 17.8502 37.8854 15.9089ZM8.00069 35.7808C8.56635 35.6339 9.25943 35.3869 9.94221 35.0174C11.1361 34.3712 12.11 33.4545 12.4331 32.2604C12.5328 31.8921 12.4469 31.7627 12.3915 31.6951C12.2891 31.57 12.0472 31.4074 11.5792 31.2806C10.8065 31.0713 9.78004 31.0556 8.91758 31.1292C8.30063 32.413 8.01711 34.074 8.00069 35.7808ZM11.7113 24.0316C14.7324 19.2677 24.2369 10.6751 38.3392 13.9611C46.9666 15.9713 50.8948 18.9789 52.9683 22.3328C53.985 23.9774 54.517 25.6475 54.9656 27.1523C55.0044 27.2823 55.0424 27.4107 55.08 27.5374C55.4879 28.9136 55.8389 30.0977 56.4358 31.1552C56.6297 31.4986 56.8269 31.8429 57.0243 32.1875C58.2467 34.3219 59.4775 36.4707 59.9834 38.5267C60.2863 39.7578 60.3499 41.0162 59.9874 42.2751C59.6242 43.5365 58.8574 44.7142 57.6365 45.8219C56.9749 46.4222 56.2367 47.1226 55.4461 47.8727C53.6612 49.5663 51.6093 51.5132 49.5699 53.1319C48.0863 54.3095 46.5522 55.3624 45.0571 56.0581C43.5809 56.7449 42.0311 57.1357 40.5612 56.8329C39.8921 56.7179 38.9243 56.3871 38.0379 55.7519C37.453 55.3328 36.8853 54.7665 36.4734 54.0289C35.6922 54.5931 34.7305 55.2434 33.7119 55.855C32.1722 56.7796 30.4017 57.6779 28.8978 57.9984C27.1356 58.3739 24.8356 58.533 22.7308 58.5228C20.65 58.5127 18.6177 58.3368 17.4292 57.9776C16.187 57.6021 15.1906 56.9475 14.5052 55.649C13.8675 54.4408 13.5376 52.7421 13.3557 50.377C13.2818 49.4165 12.8826 48.3929 12.249 47.3082C11.6173 46.2268 10.7924 45.15 9.93225 44.0805C9.73912 43.8403 9.54289 43.599 9.34682 43.3579C8.68917 42.5491 8.03321 41.7424 7.50103 40.9884C6.8267 40.033 6.21518 38.9829 6.10582 37.944C6.07345 37.6364 6.04805 37.3239 6.03026 37.0082C5.89157 34.5474 6.20864 31.7632 7.41906 29.6891C7.65499 29.2848 7.92722 28.9034 8.24012 28.5558C9.63133 27.01 11.131 24.9008 11.7113 24.0316ZM40.9296 33.2507C43.4405 33.1067 46.2562 33.2244 48.0855 33.3761C48.3551 33.3985 48.6041 33.5291 48.7758 33.7381C48.9474 33.9472 49.027 34.2168 48.9965 34.4856C48.8283 35.9654 48.0079 37.0603 46.8765 37.8875C45.7739 38.6937 44.326 39.2855 42.7601 39.7967C40.9313 40.3937 38.6903 40.0883 37.0865 39.3576C36.2845 38.9921 35.5196 38.4659 35.0617 37.7649C34.8253 37.4032 34.6601 36.9768 34.6414 36.5019C34.6226 36.0215 34.7566 35.5581 35.0156 35.1356C35.282 34.701 35.6924 34.4067 36.09 34.2013C36.4967 33.9911 36.9709 33.8324 37.4677 33.7088C38.4617 33.4614 39.6782 33.3225 40.9296 33.2507ZM36.7787 36.1233C36.7341 36.1602 36.7206 36.1809 36.7206 36.1809L36.7208 36.1807C36.6455 36.3035 36.6382 36.3801 36.6399 36.4234C36.6418 36.4722 36.659 36.5531 36.7361 36.6711C36.9049 36.9296 37.2908 37.2529 37.9158 37.5376C39.1661 38.1073 40.8843 38.3052 42.1394 37.8955C43.6573 37.3999 44.8574 36.8862 45.6961 36.273C46.124 35.9602 46.4414 35.6345 46.6588 35.2815C44.9962 35.1858 42.9192 35.1399 41.0441 35.2475C39.8455 35.3162 38.77 35.4457 37.9508 35.6496C37.541 35.7515 37.2284 35.8642 37.0081 35.9781C36.8998 36.034 36.8262 36.0839 36.7787 36.1233ZM45.8498 39.9995C46.3737 40.1741 46.6569 40.7404 46.4823 41.2644C46.2332 42.0117 45.7081 43.1134 44.9095 44.0722C44.1159 45.0251 42.9496 45.9546 41.4138 46.0781C40.6109 46.1427 39.8544 46.632 39.1928 47.3637C38.5376 48.0882 38.0766 48.9425 37.8637 49.4818C37.6609 49.9955 37.0801 50.2476 36.5664 50.0448C36.0527 49.842 35.8006 49.2612 36.0034 48.7475C36.2905 48.0201 36.8695 46.9511 37.7093 46.0223C38.5428 45.1006 39.7363 44.2066 41.2534 44.0846C42.0377 44.0215 42.7547 43.5344 43.3727 42.7923C43.9858 42.0561 44.4007 41.1846 44.5849 40.6319C44.7595 40.108 45.3258 39.8248 45.8498 39.9995ZM27.1882 48.6341C27.6892 48.8666 27.9067 49.4613 27.6741 49.9622C26.8729 51.688 24.9627 53.4315 22.1909 53.4315C20.9477 53.4315 19.9391 52.8639 19.2196 52.2361C18.504 51.6117 18.0019 50.8677 17.7442 50.3393C17.5022 49.8429 17.7083 49.2443 18.2047 49.0022C18.7011 48.7601 19.2998 48.9663 19.5419 49.4627C19.6955 49.7778 20.0418 50.2991 20.5346 50.7291C21.0234 51.1557 21.5831 51.4315 22.1909 51.4315C24.0468 51.4315 25.3245 50.2735 25.8601 49.12C26.0927 48.619 26.6873 48.4015 27.1882 48.6341Z" fill="black"/>
<circle cx="42.1484" cy="36.7732" r="1.41331" fill="black"/>
<circle cx="9.05766" cy="32.8074" r="1.41331" fill="black"/>
<path d="M9.18154 22.6992C8.89985 25.5717 10.2375 26.3367 10.9415 26.3602C12.7014 22.8396 17.2077 22.1361 19.6719 20.2352C22.1361 18.3342 23.333 16.0108 32.3449 15.87C41.3569 15.7292 47.8342 17.9118 50.7912 25.5156C53.7483 33.1194 51.6361 38.8223 52.9034 38.8223C54.1707 38.8223 55.2972 34.8092 55.7196 26.3602C56.1421 17.9112 52.0585 13.8283 50.7912 11.7865C49.5239 9.74473 40.6528 7.77328 32.9786 8.33665C25.3044 8.90003 21.3616 7.35097 16.9261 8.33665C12.4905 9.32233 8.47775 11.2231 6.85841 15.377C5.23908 19.5309 9.53365 19.1085 9.18154 22.6992Z" fill="black"/>
<path d="M16.6902 82.456C16.6902 82.456 16.6369 82.4347 16.5302 82.392C16.4235 82.36 16.3062 82.328 16.1782 82.296C16.0609 82.264 15.9702 82.248 15.9062 82.248C15.7355 82.2053 15.6129 82.1093 15.5382 81.96C15.4635 81.8213 15.4475 81.6667 15.4902 81.496C15.5329 81.4533 15.5649 81.3627 15.5862 81.224C15.6075 81.0853 15.6182 80.9733 15.6182 80.888C15.6609 80.8027 15.6875 80.744 15.6982 80.712C15.7089 80.6693 15.7355 80.5627 15.7782 80.392C15.8102 80.2107 15.8635 79.96 15.9382 79.64C16.0235 79.3093 16.1142 78.9573 16.2102 78.584C16.3169 78.2107 16.4182 77.8533 16.5142 77.512C16.6102 77.1707 16.6955 76.8827 16.7702 76.648C16.8555 76.4133 16.9142 76.28 16.9462 76.248C16.9462 76.248 16.9462 76.232 16.9462 76.2C16.9462 76.1573 16.9462 76.1147 16.9462 76.072C16.9462 76.072 16.9515 76.024 16.9622 75.928C16.9835 75.8213 17.0369 75.704 17.1222 75.576C17.1649 75.4587 17.2022 75.3307 17.2342 75.192C17.2662 75.0533 17.2822 74.9627 17.2822 74.92C17.3249 74.8667 17.3835 74.7387 17.4582 74.536C17.5435 74.3227 17.6235 74.1147 17.6982 73.912C17.7622 73.7413 17.8315 73.56 17.9062 73.368C17.9915 73.176 18.0609 73.0107 18.1142 72.872C18.1782 72.7333 18.2102 72.664 18.2102 72.664C18.2102 72.6213 18.2102 72.6 18.2102 72.6C18.2102 72.5893 18.2102 72.584 18.2102 72.584C18.2529 72.5413 18.3542 72.328 18.5142 71.944C18.6849 71.5493 18.9142 71.0427 19.2022 70.424C19.2449 70.3387 19.3089 70.2053 19.3942 70.024C19.4795 69.832 19.5222 69.7147 19.5222 69.672C19.6822 69.512 19.8369 69.4587 19.9862 69.512C20.1462 69.5547 20.2849 69.6453 20.4022 69.784C20.5302 69.9227 20.6209 70.0507 20.6742 70.168L20.8342 70.424L20.2422 71.576C20.0715 71.8747 19.9222 72.1467 19.7942 72.392C19.6769 72.6373 19.6182 72.7813 19.6182 72.824C19.6182 72.824 19.5915 72.888 19.5382 73.016C19.4955 73.144 19.4422 73.3093 19.3782 73.512C19.3142 73.704 19.2502 73.896 19.1862 74.088C19.0689 74.4187 18.9569 74.696 18.8502 74.92C18.7435 75.1333 18.6902 75.2613 18.6902 75.304C18.6902 75.2827 18.7969 75.2667 19.0102 75.256C19.2342 75.2453 19.5115 75.24 19.8422 75.24C20.1729 75.24 20.5089 75.24 20.8502 75.24C21.2022 75.2293 21.5169 75.224 21.7942 75.224C22.0715 75.2133 22.2635 75.1973 22.3702 75.176L23.2022 75.096L23.6502 73.672C23.7355 73.3733 23.8475 73.0107 23.9862 72.584C24.1249 72.1573 24.2475 71.7947 24.3542 71.496C24.5249 71.0053 24.7062 70.664 24.8982 70.472C25.0902 70.2693 25.2502 70.168 25.3782 70.168C25.4102 70.168 25.4689 70.2 25.5542 70.264C25.6502 70.3173 25.7462 70.3813 25.8422 70.456C25.9382 70.5307 25.9969 70.6 26.0182 70.664C26.1462 70.7813 26.2049 70.9147 26.1942 71.064C26.1942 71.2133 26.1089 71.4107 25.9382 71.656C25.7675 71.944 25.6235 72.2587 25.5062 72.6C25.3995 72.9307 25.3035 73.2027 25.2182 73.416C25.2182 73.544 25.2022 73.6507 25.1702 73.736C25.1382 73.8107 25.1009 73.8693 25.0582 73.912C25.0369 73.9333 24.9942 74.0133 24.9302 74.152C24.8662 74.2907 24.8075 74.4293 24.7542 74.568C24.7009 74.7067 24.6742 74.792 24.6742 74.824C24.6742 74.8987 24.6582 74.9893 24.6262 75.096C24.5942 75.2027 24.5569 75.2773 24.5142 75.32C24.4929 75.384 24.4449 75.544 24.3702 75.8C24.2955 76.056 24.2102 76.36 24.1142 76.712C24.0182 77.0533 23.9169 77.3893 23.8102 77.72C23.7035 78.04 23.6075 78.3067 23.5222 78.52C23.5222 78.5947 23.4955 78.6907 23.4422 78.808C23.3889 78.9147 23.3622 79.0107 23.3622 79.096C23.3195 79.224 23.2662 79.384 23.2022 79.576C23.1382 79.768 23.1062 79.8907 23.1062 79.944C23.0529 80.1893 22.9942 80.472 22.9302 80.792C22.8769 81.112 22.8289 81.3947 22.7862 81.64C22.7542 81.8853 22.7382 82.024 22.7382 82.056C22.4609 82.088 22.2529 82.0507 22.1142 81.944C21.9755 81.8373 21.8475 81.7627 21.7302 81.72C21.5275 81.6027 21.4049 81.4533 21.3622 81.272C21.3302 81.1013 21.3729 80.8933 21.4902 80.648C21.5435 80.5627 21.6075 80.3547 21.6822 80.024C21.7675 79.6827 21.8529 79.3467 21.9382 79.016C22.0022 78.856 22.0715 78.6533 22.1462 78.408C22.2209 78.1627 22.2902 77.9227 22.3542 77.688C22.4289 77.4427 22.4929 77.2347 22.5462 77.064C22.5995 76.8933 22.6369 76.7973 22.6582 76.776C22.6582 76.7333 22.6582 76.696 22.6582 76.664C22.6582 76.632 22.6582 76.616 22.6582 76.616C22.6369 76.5947 22.5302 76.5787 22.3382 76.568C22.1462 76.5467 21.9009 76.5413 21.6022 76.552C21.3142 76.552 20.9995 76.5627 20.6582 76.584C20.3169 76.5947 19.9915 76.6213 19.6822 76.664C19.5649 76.664 19.3942 76.664 19.1702 76.664C18.9569 76.664 18.8075 76.664 18.7222 76.664C18.6049 76.664 18.5035 76.664 18.4182 76.664C18.3435 76.664 18.3062 76.664 18.3062 76.664C18.2849 76.696 18.2422 76.8027 18.1782 76.984C18.1249 77.1653 18.0555 77.384 17.9702 77.64C17.8955 77.896 17.8155 78.1573 17.7302 78.424C17.6555 78.6907 17.5862 78.936 17.5222 79.16C17.4689 79.3733 17.4315 79.528 17.4102 79.624C17.3675 79.816 17.3089 80.056 17.2342 80.344C17.1702 80.632 17.0955 80.9253 17.0102 81.224C16.9355 81.5333 16.8662 81.8 16.8022 82.024C16.7489 82.248 16.7115 82.392 16.6902 82.456ZM26.4217 81.56C26.027 81.272 25.7124 81.0053 25.4777 80.76C25.2537 80.504 25.131 80.2587 25.1097 80.024C25.0884 79.832 25.0884 79.5707 25.1097 79.24C25.1417 78.9093 25.179 78.584 25.2217 78.264C25.2644 77.944 25.3017 77.704 25.3337 77.544C25.387 77.4907 25.4084 77.4213 25.3977 77.336C25.3977 77.24 25.3977 77.192 25.3977 77.192C25.387 77.1387 25.4244 77 25.5097 76.776C25.595 76.5413 25.675 76.2427 25.7497 75.88C25.963 75.24 26.1657 74.7067 26.3577 74.28C26.5604 73.8427 26.7577 73.4693 26.9497 73.16C27.1417 72.8507 27.3337 72.568 27.5257 72.312C27.963 71.864 28.3737 71.5067 28.7577 71.24C29.1524 70.9733 29.515 70.7653 29.8457 70.616C30.059 70.488 30.2564 70.3867 30.4377 70.312C30.619 70.2373 30.7684 70.2267 30.8857 70.28C31.483 70.408 31.9897 70.6693 32.4057 71.064C32.8217 71.4587 33.099 72.0293 33.2377 72.776C33.3124 73.2453 33.355 73.672 33.3657 74.056C33.387 74.4293 33.3604 74.8027 33.2857 75.176C33.211 75.5387 33.0724 75.9387 32.8697 76.376C32.6777 76.8133 32.4057 77.3253 32.0537 77.912C31.6164 78.776 31.1364 79.5013 30.6137 80.088C30.1017 80.664 29.5844 81.1013 29.0617 81.4C28.5497 81.6987 28.059 81.8587 27.5897 81.88C27.131 81.912 26.7417 81.8053 26.4217 81.56ZM27.7017 80.504C27.947 80.472 28.1444 80.424 28.2937 80.36C28.4537 80.296 28.619 80.1733 28.7897 79.992C28.9604 79.8107 29.2004 79.544 29.5097 79.192C29.787 78.872 30.0164 78.6 30.1977 78.376C30.3897 78.152 30.5497 77.9227 30.6777 77.688C30.8164 77.4533 30.9444 77.176 31.0617 76.856C31.1897 76.5253 31.3284 76.104 31.4777 75.592C31.563 75.272 31.6217 75.0373 31.6537 74.888C31.6964 74.728 31.723 74.5947 31.7337 74.488C31.7444 74.3813 31.7444 74.2373 31.7337 74.056C31.7337 73.864 31.7337 73.576 31.7337 73.192C31.723 73.0107 31.6857 72.808 31.6217 72.584C31.5577 72.3493 31.483 72.184 31.3977 72.088C31.291 71.9707 31.131 71.8693 30.9177 71.784C30.7044 71.6987 30.4804 71.7093 30.2457 71.816C30.1177 71.8693 29.9577 71.9813 29.7657 72.152C29.5737 72.312 29.3764 72.504 29.1737 72.728C28.971 72.952 28.779 73.176 28.5977 73.4C28.4164 73.624 28.2724 73.8267 28.1657 74.008C28.059 74.1893 28.0057 74.3173 28.0057 74.392C28.0057 74.392 28.0004 74.4187 27.9897 74.472C27.9897 74.5253 27.9684 74.5787 27.9257 74.632C27.787 74.7813 27.643 75.0267 27.4937 75.368C27.3444 75.7093 27.2057 76.0987 27.0777 76.536C26.9497 76.9733 26.843 77.4107 26.7577 77.848C26.6724 78.2853 26.619 78.68 26.5977 79.032C26.5977 79.2027 26.5977 79.3467 26.5977 79.464C26.5977 79.5813 26.6084 79.688 26.6297 79.784C26.6617 79.8693 26.7097 79.9653 26.7737 80.072C26.8377 80.1787 26.9657 80.2853 27.1577 80.392C27.3604 80.4987 27.5417 80.536 27.7017 80.504ZM42.5158 81.592C42.5158 81.592 42.4838 81.56 42.4198 81.496C42.3665 81.4427 42.2491 81.3733 42.0678 81.288C41.8758 81.0853 41.7478 80.776 41.6838 80.36C41.6305 79.944 41.6198 79.48 41.6518 78.968C41.6305 78.712 41.6305 78.3973 41.6518 78.024C41.6838 77.64 41.7265 77.2453 41.7798 76.84C41.8438 76.4347 41.9078 76.0453 41.9718 75.672C42.0465 75.2987 42.1105 74.9893 42.1638 74.744C42.3025 74.1787 42.4251 73.6827 42.5318 73.256C42.6491 72.8293 42.7078 72.5787 42.7078 72.504C42.6438 72.6213 42.5478 72.7867 42.4198 73C42.3025 73.2133 42.1318 73.5173 41.9078 73.912C41.7691 74.136 41.6198 74.3813 41.4598 74.648C41.3105 74.9147 41.2145 75.0747 41.1718 75.128C41.0651 75.2667 40.9585 75.4587 40.8518 75.704C40.7451 75.9387 40.5691 76.2907 40.3238 76.76C39.9505 77.3147 39.6305 77.736 39.3638 78.024C39.1078 78.312 38.8785 78.504 38.6758 78.6C38.4838 78.6853 38.2918 78.712 38.0998 78.68C37.7905 78.6053 37.5825 78.4613 37.4758 78.248C37.3691 78.024 37.2945 77.768 37.2518 77.48C37.2305 77.192 37.2251 76.9573 37.2358 76.776C37.2571 76.584 37.2571 76.4453 37.2358 76.36C37.2571 76.2533 37.2785 76.1413 37.2998 76.024C37.3211 75.896 37.3371 75.8 37.3478 75.736C37.3478 75.6933 37.3585 75.5973 37.3798 75.448C37.4118 75.2987 37.4331 75.1493 37.4438 75C37.4758 74.7973 37.5185 74.5627 37.5718 74.296C37.6251 74.0187 37.6731 73.768 37.7158 73.544C37.7585 73.32 37.7691 73.1813 37.7478 73.128C37.6945 73.2347 37.6305 73.3467 37.5558 73.464C37.4811 73.5813 37.4278 73.6667 37.3958 73.72C37.2145 73.9653 37.0011 74.344 36.7558 74.856C36.5105 75.3573 36.1798 76.0347 35.7638 76.888C35.7318 77.1227 35.6358 77.4213 35.4758 77.784C35.3265 78.136 35.1931 78.4507 35.0758 78.728C35.0011 78.9307 34.8998 79.1867 34.7718 79.496C34.6545 79.7947 34.5318 80.0773 34.4038 80.344C34.2865 80.6107 34.1905 80.7973 34.1158 80.904C33.9878 81.1493 33.8811 81.2827 33.7958 81.304C33.7105 81.336 33.5345 81.2507 33.2678 81.048C33.0971 80.888 32.9531 80.7333 32.8358 80.584C32.7291 80.4347 32.7291 80.2587 32.8358 80.056C32.9105 79.9387 33.0011 79.7787 33.1078 79.576C33.2145 79.3627 33.3105 79.1493 33.3958 78.936C33.4918 78.7227 33.5451 78.5627 33.5558 78.456C33.5665 78.4133 33.5985 78.3387 33.6518 78.232C33.7158 78.1253 33.8011 78.008 33.9078 77.88C33.8971 77.8373 33.9451 77.6773 34.0518 77.4C34.1585 77.112 34.3025 76.7867 34.4838 76.424C34.5158 76.3707 34.5371 76.3173 34.5478 76.264C34.5691 76.2107 34.5851 76.1573 34.5958 76.104C34.6385 76.0507 34.6811 75.9867 34.7238 75.912C34.7665 75.8373 34.8091 75.7307 34.8518 75.592C34.8731 75.496 34.9158 75.3733 34.9798 75.224C35.0438 75.0747 35.1025 74.9413 35.1558 74.824C35.1985 74.728 35.2465 74.648 35.2998 74.584C35.3638 74.5093 35.4171 74.4347 35.4598 74.36C35.5025 74.328 35.5398 74.2747 35.5718 74.2C35.6038 74.1253 35.6411 74.0667 35.6838 74.024C35.7265 73.896 35.8065 73.736 35.9238 73.544C36.0518 73.3413 36.1851 73.1173 36.3238 72.872C36.4731 72.6267 36.6011 72.3813 36.7078 72.136C36.7931 72.0827 36.8678 72.008 36.9318 71.912C36.9958 71.816 37.0491 71.7147 37.0918 71.608C37.0918 71.608 37.1185 71.5493 37.1718 71.432C37.2358 71.3147 37.2998 71.2133 37.3638 71.128C37.4171 71.0533 37.4971 70.9467 37.6038 70.808C37.7105 70.6693 37.8118 70.5413 37.9078 70.424C38.0145 70.296 38.0838 70.2267 38.1158 70.216C38.1798 70.2053 38.2918 70.2373 38.4518 70.312C38.6225 70.3867 38.7771 70.4773 38.9158 70.584C39.0545 70.6907 39.1238 70.7973 39.1238 70.904C39.1451 71.0213 39.1505 71.192 39.1398 71.416C39.1398 71.64 39.1345 71.8693 39.1238 72.104C39.1131 72.328 39.0918 72.52 39.0598 72.68C39.0385 72.9147 39.0065 73.1867 38.9638 73.496C38.9211 73.8053 38.8785 74.104 38.8358 74.392C38.7931 74.68 38.7558 74.9147 38.7238 75.096C38.6705 75.4907 38.6278 75.7893 38.5958 75.992C38.5638 76.184 38.5478 76.28 38.5478 76.28C38.5691 76.3227 38.5798 76.3813 38.5798 76.456C38.5905 76.5307 38.6011 76.6 38.6118 76.664L38.6278 76.792L38.8038 76.536C38.9958 76.2907 39.1451 76.0773 39.2518 75.896C39.3585 75.7147 39.4651 75.5387 39.5718 75.368C39.5718 75.3147 39.5878 75.2613 39.6198 75.208C39.6518 75.144 39.6891 75.08 39.7318 75.016C39.7958 74.9627 39.8651 74.8773 39.9398 74.76C40.0145 74.632 40.0465 74.52 40.0358 74.424C40.1425 74.264 40.2811 74.0507 40.4518 73.784C40.6331 73.5173 40.8251 73.2293 41.0278 72.92C41.2305 72.6 41.4278 72.296 41.6198 72.008C41.8225 71.7093 41.9985 71.4533 42.1478 71.24C42.3078 71.0267 42.4251 70.888 42.4998 70.824C42.7345 70.6747 42.9958 70.6 43.2838 70.6C43.5718 70.5893 43.8011 70.6747 43.9718 70.856C44.1105 71.0053 44.1851 71.176 44.1958 71.368C44.2171 71.56 44.1958 71.7573 44.1318 71.96C43.9931 72.4187 43.8971 72.8453 43.8438 73.24C43.7905 73.6347 43.7691 73.9067 43.7798 74.056C43.7371 74.152 43.6998 74.2587 43.6678 74.376C43.6465 74.4827 43.6305 74.5787 43.6198 74.664C43.6198 74.7707 43.5985 74.8827 43.5558 75C43.5238 75.1067 43.4811 75.1813 43.4278 75.224C43.4598 75.32 43.4758 75.448 43.4758 75.608C43.4865 75.7573 43.4811 75.896 43.4598 76.024C43.2891 77.112 43.1985 77.9813 43.1878 78.632C43.1771 79.272 43.2145 79.736 43.2998 80.024C43.3851 80.3013 43.4758 80.4507 43.5718 80.472C43.6145 80.4613 43.6358 80.4773 43.6358 80.52C43.6465 80.5627 43.6411 80.6267 43.6198 80.712C43.6198 80.7973 43.5771 80.8933 43.4918 81C43.4171 81.1173 43.3371 81.2187 43.2518 81.304C43.1771 81.4 43.1291 81.464 43.1078 81.496C43.0438 81.6027 42.9851 81.6613 42.9318 81.672C42.8891 81.6827 42.7505 81.656 42.5158 81.592ZM48.0356 81.8C47.6089 81.8 47.2249 81.7733 46.8836 81.72C46.5529 81.6773 46.2489 81.5493 45.9716 81.336C45.6409 81.0907 45.4062 80.7387 45.2676 80.28C45.1396 79.8107 45.1769 79.1973 45.3796 78.44C45.4329 78.1733 45.4916 77.9387 45.5556 77.736C45.6302 77.5333 45.6942 77.432 45.7476 77.432C45.7582 77.3787 45.7742 77.304 45.7956 77.208C45.8169 77.1013 45.8382 76.9787 45.8596 76.84C45.9129 76.648 45.9502 76.5093 45.9716 76.424C45.9929 76.328 46.0356 76.248 46.0996 76.184C46.1316 76.1627 46.1689 76.0933 46.2116 75.976C46.2542 75.848 46.2809 75.7733 46.2916 75.752C46.2916 75.752 46.2969 75.7147 46.3076 75.64C46.3182 75.5547 46.3449 75.4587 46.3876 75.352C46.5476 75.0853 46.6276 74.9093 46.6276 74.824C46.6489 74.7813 46.6916 74.7173 46.7556 74.632C46.8302 74.5467 46.8889 74.4347 46.9316 74.296C47.2516 73.7307 47.5129 73.2667 47.7156 72.904C47.9182 72.5307 48.0409 72.2427 48.0836 72.04C48.1369 71.9227 48.1849 71.784 48.2276 71.624C48.2809 71.4533 48.3449 71.3253 48.4196 71.24C48.3982 71.1867 48.4569 71.128 48.5956 71.064C48.7449 71 48.9369 70.9307 49.1716 70.856C49.4062 70.7813 49.6569 70.7173 49.9236 70.664C50.1902 70.6107 50.4356 70.5787 50.6596 70.568C50.7236 70.5253 50.8622 70.4933 51.0756 70.472C51.2996 70.4507 51.5556 70.44 51.8436 70.44C52.1316 70.44 52.3982 70.4507 52.6436 70.472C52.8782 70.472 53.0649 70.504 53.2036 70.568C53.3422 70.632 53.4809 70.696 53.6196 70.76C53.6729 70.8133 53.7476 70.888 53.8436 70.984C53.9396 71.08 53.9982 71.1813 54.0196 71.288C54.0516 71.3947 53.9822 71.4907 53.8116 71.576C53.7796 71.608 53.6036 71.6347 53.2836 71.656C52.9636 71.6773 52.6276 71.688 52.2756 71.688C51.8809 71.688 51.5396 71.72 51.2516 71.784C50.9636 71.848 50.7609 71.88 50.6436 71.88C50.4942 71.9227 50.3182 71.9493 50.1156 71.96C49.9129 71.9707 49.8116 71.976 49.8116 71.976C49.7902 71.976 49.7369 72.04 49.6516 72.168C49.5662 72.2853 49.4702 72.4293 49.3636 72.6C49.2676 72.76 49.1769 72.9093 49.0916 73.048C49.0169 73.1867 48.9796 73.272 48.9796 73.304C48.9796 73.4107 48.9369 73.528 48.8516 73.656C48.7662 73.784 48.6649 73.9333 48.5476 74.104C48.4409 74.2427 48.3716 74.392 48.3396 74.552C48.3076 74.7013 48.3396 74.7973 48.4356 74.84C48.6062 74.808 48.8409 74.776 49.1396 74.744C49.4489 74.712 49.7529 74.6853 50.0516 74.664C50.3502 74.632 50.5796 74.616 50.7396 74.616C50.9209 74.5627 51.0702 74.552 51.1876 74.584C51.3049 74.616 51.3902 74.648 51.4436 74.68C51.5716 74.7013 51.6462 74.7653 51.6676 74.872C51.6996 74.9787 51.6996 75.0853 51.6676 75.192C51.6356 75.2987 51.5822 75.368 51.5076 75.4C51.4436 75.464 51.2836 75.5387 51.0276 75.624C50.7716 75.7093 50.4676 75.7947 50.1156 75.88C49.7742 75.9653 49.4276 76.0453 49.0756 76.12C48.7342 76.184 48.4356 76.2373 48.1796 76.28C47.9342 76.3227 47.7902 76.3387 47.7476 76.328C47.6836 76.1787 47.6089 76.184 47.5236 76.344C47.4489 76.4933 47.3582 76.8027 47.2516 77.272C47.1342 77.5387 47.0436 77.7413 46.9796 77.88C46.9262 78.008 46.8836 78.152 46.8516 78.312C46.8196 78.4613 46.7716 78.7013 46.7076 79.032C46.6329 79.32 46.6382 79.5813 46.7236 79.816C46.8196 80.04 47.0382 80.232 47.3796 80.392C47.5929 80.4347 47.8382 80.4507 48.1156 80.44C48.3929 80.4293 48.7609 80.3653 49.2196 80.248C49.4116 80.1307 49.6036 80.024 49.7956 79.928C49.9876 79.8213 50.1209 79.7467 50.1956 79.704C50.2489 79.704 50.3289 79.6827 50.4356 79.64C50.5529 79.5867 50.6329 79.56 50.6756 79.56C50.7609 79.4427 50.8676 79.384 50.9956 79.384C51.0169 79.384 51.0756 79.432 51.1716 79.528C51.2782 79.624 51.3796 79.7467 51.4756 79.896C51.5716 80.0453 51.6196 80.2 51.6196 80.36C51.6196 80.4667 51.4382 80.6053 51.0756 80.776C50.7236 80.9467 50.2809 81.1387 49.7476 81.352C49.4809 81.4693 49.2622 81.56 49.0916 81.624C48.9316 81.688 48.7769 81.7307 48.6276 81.752C48.4782 81.784 48.2809 81.8 48.0356 81.8Z" fill="black"/>
</svg>
