<svg width="60" height="145" viewBox="0 0 60 145" fill="none" xmlns="http://www.w3.org/2000/svg">
<g filter="url(#filter0_d_41_8174)">
<rect y="15" width="56" height="86" rx="12" fill="white" shape-rendering="crispEdges"/>
<path d="M19.5132 80.656C19.4385 80.5387 19.3105 80.464 19.1292 80.432C18.9479 80.4 18.6705 80.3947 18.2972 80.416C18.1479 80.4373 17.9932 80.4267 17.8332 80.384C17.6732 80.3413 17.5452 80.2773 17.4492 80.192C17.3532 80.1067 17.3159 80.0213 17.3372 79.936C17.3479 79.808 17.4972 79.6693 17.7852 79.52C18.0732 79.3707 18.4465 79.2907 18.9052 79.28L19.5772 79.264L19.7372 78.944C19.7799 78.8267 19.8119 78.6987 19.8332 78.56C19.8652 78.4213 19.9185 78.2293 19.9932 77.984C20.0359 77.8347 20.0999 77.6267 20.1852 77.36C20.2705 77.0933 20.3612 76.8107 20.4572 76.512C20.5532 76.2027 20.6385 75.9253 20.7132 75.68C20.7879 75.4347 20.8359 75.264 20.8572 75.168C20.8999 75.072 20.9585 74.912 21.0332 74.688C21.1079 74.4533 21.1772 74.2187 21.2412 73.984C21.3159 73.7387 21.3639 73.5627 21.3852 73.456C21.6625 72.6133 21.8439 72.0267 21.9292 71.696C22.0145 71.3547 22.0359 71.1787 21.9932 71.168C21.9505 71.168 21.8492 71.1733 21.6892 71.184C21.5292 71.1947 21.3532 71.2107 21.1612 71.232C20.9692 71.2427 20.7985 71.2587 20.6492 71.28C20.4999 71.3013 20.4092 71.3227 20.3772 71.344C20.3239 71.4187 20.2332 71.408 20.1052 71.312C19.9772 71.2053 19.8972 71.0987 19.8652 70.992C19.8545 70.896 19.8545 70.8053 19.8652 70.72C19.8759 70.6347 19.9079 70.576 19.9612 70.544C20.0359 70.48 20.1905 70.4107 20.4252 70.336C20.6599 70.2507 20.9212 70.176 21.2092 70.112C21.5079 70.048 21.7799 70 22.0252 69.968C22.2065 69.9467 22.3879 69.9093 22.5692 69.856C22.7505 69.792 22.8945 69.7173 23.0012 69.632C23.0972 69.6 23.1879 69.5733 23.2732 69.552C23.3692 69.5307 23.4652 69.5253 23.5612 69.536C23.6465 69.5893 23.7905 69.616 23.9932 69.616C24.2065 69.616 24.4305 69.6107 24.6652 69.6C25.2625 69.5467 25.6785 69.568 25.9132 69.664C26.1585 69.7493 26.3185 69.8667 26.3932 70.016C26.4465 70.2187 26.4359 70.3893 26.3612 70.528C26.2865 70.656 26.1585 70.7147 25.9772 70.704C25.8812 70.7253 25.7479 70.7467 25.5772 70.768C25.4065 70.7787 25.1825 70.7893 24.9052 70.8C24.2012 70.864 23.8225 70.9387 23.7692 71.024C23.7265 71.0667 23.6892 71.1093 23.6572 71.152C23.6359 71.1947 23.6039 71.2427 23.5612 71.296C23.5719 71.3387 23.5452 71.4667 23.4812 71.68C23.4279 71.8827 23.3585 72.1013 23.2732 72.336C23.2305 72.4747 23.1665 72.672 23.0812 72.928C22.9959 73.184 22.9052 73.4507 22.8092 73.728C22.7239 73.9947 22.6439 74.24 22.5692 74.464C22.4945 74.6773 22.4412 74.8213 22.4092 74.896C22.3665 74.992 22.3292 75.0987 22.2972 75.216C22.2759 75.3227 22.2599 75.4027 22.2492 75.456C22.0999 75.9787 21.9719 76.416 21.8652 76.768C21.7692 77.12 21.6839 77.4293 21.6092 77.696C21.5345 77.952 21.4652 78.2027 21.4012 78.448C21.3372 78.6827 21.2625 78.9493 21.1772 79.248C21.1772 79.248 21.2679 79.2427 21.4492 79.232C21.6305 79.2107 21.8599 79.1893 22.1372 79.168C22.6385 79.1147 22.9799 79.0827 23.1612 79.072C23.3425 79.0613 23.4492 79.0773 23.4812 79.12C23.5132 79.152 23.5452 79.216 23.5772 79.312C23.7905 79.6 23.7745 79.84 23.5292 80.032C23.2945 80.224 22.8785 80.3147 22.2812 80.304C21.7265 80.3253 21.3159 80.3413 21.0492 80.352C20.7932 80.3733 20.6279 80.4 20.5532 80.432C20.4785 80.464 20.4412 80.5173 20.4412 80.592C20.4519 80.7627 20.3452 80.864 20.1212 80.896C19.9079 80.9387 19.7052 80.8587 19.5132 80.656ZM26.7001 81.056C26.5401 80.992 26.3534 80.9013 26.1401 80.784C25.9267 80.6773 25.7241 80.5333 25.5321 80.352C25.3401 80.1707 25.1907 79.952 25.0841 79.696C24.9774 79.3867 24.9027 79.0827 24.8601 78.784C24.8281 78.4853 24.8174 78.1387 24.8281 77.744C24.8281 77.1893 24.8654 76.7093 24.9401 76.304C25.0254 75.888 25.1534 75.4667 25.3241 75.04C25.3454 75.008 25.3827 74.9173 25.4361 74.768C25.5001 74.608 25.5694 74.4373 25.6441 74.256C25.7294 74.0747 25.7934 73.936 25.8361 73.84C25.9214 73.6587 26.0494 73.4187 26.2201 73.12C26.4014 72.8107 26.5934 72.512 26.7961 72.224C27.1054 71.7653 27.3667 71.392 27.5801 71.104C27.7934 70.8053 27.9961 70.5547 28.1881 70.352C28.3907 70.1493 28.6094 69.952 28.8441 69.76C29.0894 69.568 29.3934 69.3493 29.7561 69.104C29.9907 68.9333 30.2894 68.8267 30.6521 68.784C31.0254 68.7413 31.3881 68.8 31.7401 68.96C32.0921 69.1093 32.3534 69.3973 32.5241 69.824C32.6414 70.048 32.6947 70.3307 32.6841 70.672C32.6734 71.0027 32.6094 71.36 32.4921 71.744C32.3747 72.1173 32.2254 72.4693 32.0441 72.8C31.8627 73.1307 31.6601 73.3973 31.4361 73.6C31.2974 73.728 31.1107 73.7493 30.8761 73.664C30.6521 73.5787 30.4654 73.4667 30.3161 73.328C30.2201 73.1467 30.1667 73.04 30.1561 73.008C30.1561 72.976 30.1774 72.9547 30.2201 72.944C30.2841 72.8693 30.3694 72.7413 30.4761 72.56C30.5827 72.3787 30.6894 72.1867 30.7961 71.984C30.9027 71.7707 30.9774 71.6 31.0201 71.472C31.1054 71.024 31.1641 70.7307 31.1961 70.592C31.2281 70.4427 31.1961 70.32 31.1001 70.224C31.0574 70.1813 30.9934 70.1653 30.9081 70.176C30.8334 70.1867 30.7054 70.24 30.5241 70.336C30.2787 70.4427 29.9854 70.6613 29.6441 70.992C29.3134 71.312 28.9827 71.696 28.6521 72.144C28.2254 72.7093 27.8681 73.2107 27.5801 73.648C27.2921 74.0853 27.0734 74.5333 26.9241 74.992C26.9027 75.0347 26.8654 75.1147 26.8121 75.232C26.7694 75.3493 26.7481 75.408 26.7481 75.408C26.7587 75.4507 26.7427 75.5573 26.7001 75.728C26.6574 75.888 26.6094 76.0267 26.5561 76.144C26.4387 76.6347 26.3694 77.1093 26.3481 77.568C26.3267 78.016 26.3534 78.4107 26.4281 78.752C26.5134 79.0827 26.6361 79.328 26.7961 79.488C26.9347 79.584 27.1107 79.616 27.3241 79.584C27.5374 79.552 27.7827 79.4773 28.0601 79.36C28.3374 79.2427 28.6361 79.1147 28.9561 78.976C29.2121 78.8693 29.4467 78.752 29.6601 78.624C29.8734 78.496 30.0334 78.384 30.1401 78.288C30.2254 78.224 30.3321 78.16 30.4601 78.096C30.5987 78.0213 30.7161 77.984 30.8121 77.984C30.9614 77.9307 31.0734 77.9733 31.1481 78.112C31.2227 78.2507 31.2601 78.4267 31.2601 78.64C31.2601 78.7893 31.1534 78.9707 30.9401 79.184C30.7267 79.3973 30.4921 79.5787 30.2361 79.728C30.1507 79.8133 30.0334 79.8933 29.8841 79.968C29.7454 80.032 29.6014 80.0907 29.4521 80.144C29.2281 80.3147 28.9507 80.48 28.6201 80.64C28.2894 80.8 27.9534 80.9227 27.6121 81.008C27.2814 81.0933 26.9774 81.1093 26.7001 81.056ZM35.6606 80.8C35.2339 80.8 34.8499 80.7733 34.5086 80.72C34.1779 80.6773 33.8739 80.5493 33.5966 80.336C33.2659 80.0907 33.0312 79.7387 32.8926 79.28C32.7646 78.8107 32.8019 78.1973 33.0046 77.44C33.0579 77.1733 33.1166 76.9387 33.1806 76.736C33.2552 76.5333 33.3192 76.432 33.3726 76.432C33.3832 76.3787 33.3992 76.304 33.4206 76.208C33.4419 76.1013 33.4632 75.9787 33.4846 75.84C33.5379 75.648 33.5752 75.5093 33.5966 75.424C33.6179 75.328 33.6606 75.248 33.7246 75.184C33.7566 75.1627 33.7939 75.0933 33.8366 74.976C33.8792 74.848 33.9059 74.7733 33.9166 74.752C33.9166 74.752 33.9219 74.7147 33.9326 74.64C33.9432 74.5547 33.9699 74.4587 34.0126 74.352C34.1726 74.0853 34.2526 73.9093 34.2526 73.824C34.2739 73.7813 34.3166 73.7173 34.3806 73.632C34.4552 73.5467 34.5139 73.4347 34.5566 73.296C34.8766 72.7307 35.1379 72.2667 35.3406 71.904C35.5432 71.5307 35.6659 71.2427 35.7086 71.04C35.7619 70.9227 35.8099 70.784 35.8526 70.624C35.9059 70.4533 35.9699 70.3253 36.0446 70.24C36.0232 70.1867 36.0819 70.128 36.2206 70.064C36.3699 70 36.5619 69.9307 36.7966 69.856C37.0312 69.7813 37.2819 69.7173 37.5486 69.664C37.8152 69.6107 38.0606 69.5787 38.2846 69.568C38.3486 69.5253 38.4872 69.4933 38.7006 69.472C38.9246 69.4507 39.1806 69.44 39.4686 69.44C39.7566 69.44 40.0232 69.4507 40.2686 69.472C40.5032 69.472 40.6899 69.504 40.8286 69.568C40.9672 69.632 41.1059 69.696 41.2446 69.76C41.2979 69.8133 41.3726 69.888 41.4686 69.984C41.5646 70.08 41.6232 70.1813 41.6446 70.288C41.6766 70.3947 41.6072 70.4907 41.4366 70.576C41.4046 70.608 41.2286 70.6347 40.9086 70.656C40.5886 70.6773 40.2526 70.688 39.9006 70.688C39.5059 70.688 39.1646 70.72 38.8766 70.784C38.5886 70.848 38.3859 70.88 38.2686 70.88C38.1192 70.9227 37.9432 70.9493 37.7406 70.96C37.5379 70.9707 37.4366 70.976 37.4366 70.976C37.4152 70.976 37.3619 71.04 37.2766 71.168C37.1912 71.2853 37.0952 71.4293 36.9886 71.6C36.8926 71.76 36.8019 71.9093 36.7166 72.048C36.6419 72.1867 36.6046 72.272 36.6046 72.304C36.6046 72.4107 36.5619 72.528 36.4766 72.656C36.3912 72.784 36.2899 72.9333 36.1726 73.104C36.0659 73.2427 35.9966 73.392 35.9646 73.552C35.9326 73.7013 35.9646 73.7973 36.0606 73.84C36.2312 73.808 36.4659 73.776 36.7646 73.744C37.0739 73.712 37.3779 73.6853 37.6766 73.664C37.9752 73.632 38.2046 73.616 38.3646 73.616C38.5459 73.5627 38.6952 73.552 38.8126 73.584C38.9299 73.616 39.0152 73.648 39.0686 73.68C39.1966 73.7013 39.2712 73.7653 39.2926 73.872C39.3246 73.9787 39.3246 74.0853 39.2926 74.192C39.2606 74.2987 39.2072 74.368 39.1326 74.4C39.0686 74.464 38.9086 74.5387 38.6526 74.624C38.3966 74.7093 38.0926 74.7947 37.7406 74.88C37.3992 74.9653 37.0526 75.0453 36.7006 75.12C36.3592 75.184 36.0606 75.2373 35.8046 75.28C35.5592 75.3227 35.4152 75.3387 35.3726 75.328C35.3086 75.1787 35.2339 75.184 35.1486 75.344C35.0739 75.4933 34.9832 75.8027 34.8766 76.272C34.7592 76.5387 34.6686 76.7413 34.6046 76.88C34.5512 77.008 34.5086 77.152 34.4766 77.312C34.4446 77.4613 34.3966 77.7013 34.3326 78.032C34.2579 78.32 34.2632 78.5813 34.3486 78.816C34.4446 79.04 34.6632 79.232 35.0046 79.392C35.2179 79.4347 35.4632 79.4507 35.7406 79.44C36.0179 79.4293 36.3859 79.3653 36.8446 79.248C37.0366 79.1307 37.2286 79.024 37.4206 78.928C37.6126 78.8213 37.7459 78.7467 37.8206 78.704C37.8739 78.704 37.9539 78.6827 38.0606 78.64C38.1779 78.5867 38.2579 78.56 38.3006 78.56C38.3859 78.4427 38.4926 78.384 38.6206 78.384C38.6419 78.384 38.7006 78.432 38.7966 78.528C38.9032 78.624 39.0046 78.7467 39.1006 78.896C39.1966 79.0453 39.2446 79.2 39.2446 79.36C39.2446 79.4667 39.0632 79.6053 38.7006 79.776C38.3486 79.9467 37.9059 80.1387 37.3726 80.352C37.1059 80.4693 36.8872 80.56 36.7166 80.624C36.5566 80.688 36.4019 80.7307 36.2526 80.752C36.1032 80.784 35.9059 80.8 35.6606 80.8Z" fill="black"/>
</g>
<g filter="url(#filter1_d_41_8174)">
<rect width="56" height="56" rx="28" fill="white" shape-rendering="crispEdges"/>
<path d="M29.6758 40C28.9602 40 28.2907 39.8206 27.6508 39.5174C27.0499 39.2327 26.4056 39.102 25.75 39.0138C25.3701 38.9625 24.9883 38.9208 24.6101 38.8572C24.4703 38.8335 24.3278 38.7782 24.2068 38.705C24.0468 38.6076 23.8819 38.5773 23.6991 38.5725C23.2017 38.5584 22.7129 38.4843 22.2366 38.3369C21.8476 38.2162 21.4757 38.0579 21.1329 37.8407C20.7489 37.5972 20.3371 37.4152 19.9092 37.2612C19.3392 37.0563 18.8418 36.7247 18.383 36.3447C18.0514 36.0701 17.9058 35.6876 17.8914 35.2651C17.8632 34.4329 17.8506 33.6007 17.8184 32.7689C17.7816 31.8349 17.7382 30.9014 17.6817 29.9682C17.6548 29.5234 17.4967 29.1075 17.3098 28.703C16.9921 28.0156 16.6735 27.3286 16.363 26.6381C15.8163 25.4233 15.8889 24.2406 16.5687 23.0929C16.6713 22.9192 16.7645 22.7389 16.8828 22.5761C17.0199 22.3866 17.1606 22.1923 17.3349 22.0379C17.606 21.7975 17.8336 21.5263 18.0402 21.235C18.3619 20.781 18.7809 20.4502 19.3132 20.2594C19.5543 20.1729 19.7931 20.0791 20.0346 19.9935C20.6257 19.7834 21.2051 19.5386 21.8234 19.4079C21.8561 19.4008 21.8888 19.3916 21.922 19.389C22.3011 19.3592 22.6112 19.1819 22.9109 18.9678C23.2542 18.7226 23.6064 18.4892 23.9613 18.2606C24.5142 17.9044 24.9448 17.4306 25.3611 16.9345C25.7478 16.4738 26.234 16.1413 26.851 16.0307C27.123 15.982 27.3941 15.9926 27.6616 16.0527C27.8265 16.0895 27.9878 16.1053 28.1585 16.0886C28.6859 16.0373 29.1954 16.1268 29.6708 16.3501C30.6611 16.8151 31.6487 17.2867 32.6282 17.7741C32.9419 17.9303 33.243 18.1229 33.5204 18.3357C34.042 18.7362 34.6303 18.97 35.2742 19.0828C35.7985 19.1745 36.3236 19.2631 36.851 19.3346C37.0321 19.3592 37.2229 19.342 37.4062 19.3192C37.6518 19.2885 37.8807 19.2973 38.0891 19.4469C38.1218 19.4706 38.1724 19.4754 38.2155 19.4794C38.3714 19.4943 38.5278 19.5026 38.6837 19.518C38.9642 19.5452 39.2022 19.6605 39.4101 19.847C39.7685 20.169 40.0992 20.5143 40.3659 20.9148C40.7104 21.432 40.8695 22.0076 40.9273 22.6152C40.9484 22.8367 40.9591 23.06 40.9918 23.2798C41.0223 23.4829 40.9591 23.6751 40.9394 23.8712C40.8216 25.0368 40.6827 26.2002 40.5702 27.3667C40.4962 28.1332 40.4523 28.9022 40.4017 29.6708C40.3909 29.834 40.4075 29.9989 40.4125 30.1635C40.442 31.2435 40.11 32.2223 39.5163 33.1168C39.2761 33.4792 38.9987 33.8227 38.7043 34.1451C38.2719 34.6185 37.7055 34.8321 37.0603 34.844C36.8873 34.847 36.7466 34.908 36.6095 35.0072C36.1489 35.3414 35.6802 35.6656 35.22 36.0008C35.0349 36.1355 34.8557 36.2803 34.6894 36.436C34.3821 36.7238 34.085 37.0217 33.7865 37.3182C33.7467 37.3581 33.7126 37.4099 33.6933 37.4626C33.5101 37.9561 33.1422 38.2908 32.7174 38.5856C32.4445 38.7751 32.1774 38.9761 31.9292 39.195C31.3902 39.6705 30.7646 39.9316 30.0436 39.9794C29.9209 39.9877 29.7981 39.9934 29.6753 40H29.6758ZM18.56 26.3174C18.5707 26.3507 18.5752 26.3709 18.5837 26.3893C18.7311 26.7078 18.875 27.0285 19.0278 27.3444C19.4969 28.3143 19.7532 29.3334 19.7635 30.4083C19.7685 30.9268 19.7416 31.4458 19.7618 31.9635C19.7985 32.9119 19.8594 33.8595 19.9123 34.8071C19.9159 34.8681 19.9289 34.9308 19.9504 34.9878C20.0015 35.123 20.0656 35.1625 20.2121 35.1528C20.597 35.1274 20.9537 35.2125 21.2745 35.4222C21.4573 35.5415 21.6343 35.6696 21.8091 35.7999C22.3159 36.1772 22.8805 36.4075 23.5163 36.4781C23.8672 36.5172 24.222 36.5566 24.5621 36.6439C25.9884 37.0098 27.4098 37.3941 28.8329 37.771C28.9171 37.7933 29.0027 37.8109 29.1 37.8333C29.1322 37.506 29.1676 37.1985 29.1927 36.8896C29.2541 36.1408 29.177 35.3936 29.1596 34.6457C29.1416 33.8722 29.113 33.0975 29.1407 32.3249C29.1761 31.3348 29.1622 30.3468 29.1089 29.3584C29.1067 29.3155 29.0753 29.2606 29.0395 29.2352C28.884 29.1242 28.7101 29.0711 28.5139 29.0983C28.1455 29.1492 27.7848 29.1141 27.4358 28.9856C26.7143 28.7193 25.9951 28.4451 25.3181 28.0814C24.9618 27.8901 24.589 27.8054 24.1858 27.7901C23.3268 27.7581 22.5278 27.5238 21.8091 27.0531C21.4851 26.8412 21.1307 26.7363 20.7444 26.6912C20.2013 26.6275 19.6609 26.5398 19.121 26.4529C18.9355 26.4231 18.7549 26.3656 18.5591 26.3174H18.56ZM38.7312 23.9725C38.694 23.9967 38.6806 24.0032 38.6698 24.0129C37.8565 24.7302 36.9303 25.2627 35.9047 25.6334C35.8406 25.6567 35.7787 25.6984 35.7286 25.7449C35.1671 26.2639 34.6083 26.7855 34.0487 27.3058C33.6727 27.6554 33.291 27.9985 32.8576 28.2819C32.5063 28.5118 32.1385 28.7105 31.7468 28.8653C31.5349 28.9491 31.4005 29.086 31.3915 29.3212C31.3548 30.2661 31.3082 31.2111 31.2822 32.1565C31.2611 32.9159 31.2678 33.6757 31.2566 34.4351C31.2477 35.0506 31.2916 35.6608 31.4139 36.2649C31.4453 36.4193 31.4829 36.5729 31.5174 36.7264C31.5335 36.7348 31.5501 36.7426 31.5663 36.751C31.7621 36.5466 31.9588 36.3421 32.1541 36.1372C32.5843 35.6858 33.0279 35.2489 33.5365 34.8782C33.9487 34.5777 34.3516 34.2649 34.7602 33.96C34.8154 33.9187 34.8431 33.8784 34.8342 33.8056C34.8091 33.602 34.8848 33.4261 35.0062 33.2659C35.0528 33.2045 35.1039 33.1462 35.1492 33.0839C35.2827 32.8992 35.4615 32.775 35.6748 32.6921C36.0104 32.5618 36.342 32.4215 36.6794 32.2955C36.8945 32.2153 36.989 32.0727 37.0092 31.8507C37.0522 31.376 37.352 31.029 37.7911 30.9356C37.9161 30.9088 38.0488 30.9158 38.2078 30.9053C38.2392 30.6627 38.2872 30.4083 38.3028 30.1521C38.353 29.3212 38.3777 28.4889 38.4386 27.6589C38.5112 26.6653 38.6129 25.6734 38.6976 24.6806C38.7169 24.4529 38.7196 24.2239 38.7308 23.973L38.7312 23.9725ZM28.6653 26.9794C28.5161 26.4683 28.4816 25.9585 28.4937 25.447C28.5094 24.7828 28.5502 24.1195 28.5721 23.4553C28.5985 22.6472 28.4726 21.8633 28.1643 21.11C27.8682 20.3866 27.7978 19.6408 27.9502 18.8753C27.9945 18.6533 27.9882 18.4339 27.9331 18.2133C27.908 18.1128 27.8565 18.0667 27.7543 18.0865C27.481 18.1396 27.2077 18.1913 26.937 18.2536C26.8797 18.2668 26.816 18.3129 26.7838 18.3616C26.4571 18.8586 26.048 19.2828 25.5672 19.6347C25.0927 19.9817 24.5984 20.3028 24.1141 20.6366C23.821 20.8389 23.5239 21.035 23.1798 21.1451C22.5 21.3623 21.8203 21.5785 21.1369 21.7847C20.5755 21.9541 20.0517 22.1853 19.6049 22.5691C19.3952 22.7494 19.1833 22.9363 18.9444 23.0736C18.4896 23.3351 18.4305 23.794 18.2772 24.2125C18.5994 24.2779 18.9086 24.3419 19.2182 24.4029C19.7255 24.5029 20.2296 24.6358 20.7422 24.6916C21.5747 24.7819 22.3441 25.0114 23.0279 25.4935C23.3976 25.7541 23.8076 25.8861 24.2673 25.9059C25.3329 25.9519 26.3093 26.2577 27.1526 26.9184C27.3013 27.0347 27.4729 27.0917 27.6629 27.0755C27.9932 27.0469 28.323 27.0123 28.6658 26.9789L28.6653 26.9794ZM30.2202 18.9599C30.2175 18.9814 30.2139 18.9959 30.2144 19.0099C30.2238 19.9347 30.3174 20.8534 30.4196 21.7716C30.498 22.4792 30.5876 23.1873 30.5693 23.9001C30.5433 24.921 30.5433 25.944 30.377 26.9544C30.403 26.9412 30.446 26.9215 30.4877 26.8987C31.025 26.5986 31.5716 26.3169 32.1497 26.0976C32.3885 26.0068 32.5991 25.8703 32.7842 25.6966C33.4671 25.0544 34.2216 24.502 35.0219 24.0094C35.5646 23.6755 36.1188 23.3601 36.6557 23.0179C37.1889 22.6779 37.5908 22.2111 37.9247 21.6746C37.4784 21.4855 37.0334 21.3329 36.5486 21.3035C36.1511 21.2793 35.7519 21.253 35.3598 21.1898C34.3121 21.0205 33.338 20.6555 32.483 20.0317C31.7997 19.5329 31.025 19.2346 30.2197 18.9604L30.2202 18.9599Z" fill="black"/>
</g>
<g filter="url(#filter2_d_41_8174)">
<rect x="8" y="93" width="48" height="48" rx="24" fill="white" shape-rendering="crispEdges"/>
<path fill-rule="evenodd" clip-rule="evenodd" d="M32.7094 107.022C33.2494 107.138 33.5934 107.669 33.4777 108.21C33.236 109.337 32.918 111.243 32.7593 113.254C32.6879 114.158 32.6507 115.062 32.6628 115.913C35.9438 115.804 39.2593 115.417 41.6635 114.558C42.1837 114.372 42.7559 114.644 42.9416 115.164C43.1274 115.684 42.8563 116.256 42.3362 116.442C39.6666 117.395 36.142 117.794 32.8062 117.91C32.8498 118.21 32.9041 118.494 32.97 118.757C33.8041 122.094 33.6749 125.032 33.4863 126.164C33.3955 126.709 32.8803 127.077 32.3355 126.986C31.7907 126.896 31.4227 126.38 31.5135 125.836C31.6582 124.968 31.7956 122.306 31.0297 119.243C30.9281 118.836 30.8506 118.401 30.7934 117.947C27.4985 117.957 24.5125 117.726 22.8585 117.49C22.3117 117.412 21.9318 116.905 22.0099 116.359C22.088 115.812 22.5946 115.432 23.1413 115.51C24.6674 115.728 27.5021 115.951 30.663 115.947C30.6491 114.998 30.6921 114.026 30.7655 113.096C30.9318 110.99 31.2637 108.996 31.5221 107.79C31.6378 107.25 32.1694 106.906 32.7094 107.022Z" fill="black"/>
</g>
<defs>
<filter id="filter0_d_41_8174" x="0" y="15" width="60" height="90" filterUnits="userSpaceOnUse" color-interpolation-filters="sRGB">
<feFlood flood-opacity="0" result="BackgroundImageFix"/>
<feColorMatrix in="SourceAlpha" type="matrix" values="0 0 0 0 0 0 0 0 0 0 0 0 0 0 0 0 0 0 127 0" result="hardAlpha"/>
<feOffset dx="4" dy="4"/>
<feComposite in2="hardAlpha" operator="out"/>
<feColorMatrix type="matrix" values="0 0 0 0 0 0 0 0 0 0 0 0 0 0 0 0 0 0 1 0"/>
<feBlend mode="normal" in2="BackgroundImageFix" result="effect1_dropShadow_41_8174"/>
<feBlend mode="normal" in="SourceGraphic" in2="effect1_dropShadow_41_8174" result="shape"/>
</filter>
<filter id="filter1_d_41_8174" x="0" y="0" width="60" height="60" filterUnits="userSpaceOnUse" color-interpolation-filters="sRGB">
<feFlood flood-opacity="0" result="BackgroundImageFix"/>
<feColorMatrix in="SourceAlpha" type="matrix" values="0 0 0 0 0 0 0 0 0 0 0 0 0 0 0 0 0 0 127 0" result="hardAlpha"/>
<feOffset dx="4" dy="4"/>
<feComposite in2="hardAlpha" operator="out"/>
<feColorMatrix type="matrix" values="0 0 0 0 0 0 0 0 0 0 0 0 0 0 0 0 0 0 1 0"/>
<feBlend mode="normal" in2="BackgroundImageFix" result="effect1_dropShadow_41_8174"/>
<feBlend mode="normal" in="SourceGraphic" in2="effect1_dropShadow_41_8174" result="shape"/>
</filter>
<filter id="filter2_d_41_8174" x="8" y="93" width="52" height="52" filterUnits="userSpaceOnUse" color-interpolation-filters="sRGB">
<feFlood flood-opacity="0" result="BackgroundImageFix"/>
<feColorMatrix in="SourceAlpha" type="matrix" values="0 0 0 0 0 0 0 0 0 0 0 0 0 0 0 0 0 0 127 0" result="hardAlpha"/>
<feOffset dx="4" dy="4"/>
<feComposite in2="hardAlpha" operator="out"/>
<feColorMatrix type="matrix" values="0 0 0 0 0 0 0 0 0 0 0 0 0 0 0 0 0 0 1 0"/>
<feBlend mode="normal" in2="BackgroundImageFix" result="effect1_dropShadow_41_8174"/>
<feBlend mode="normal" in="SourceGraphic" in2="effect1_dropShadow_41_8174" result="shape"/>
</filter>
</defs>
</svg>
