<svg width="85" height="47" viewBox="0 0 85 47" fill="none" xmlns="http://www.w3.org/2000/svg">
<path fill-rule="evenodd" clip-rule="evenodd" d="M57.2094 2.56929C59.5781 2.04028 62.3225 2.41936 64.5203 4.17688C65.2453 4.75663 65.7742 5.79711 66.1625 6.89292C66.5623 8.02121 66.8572 9.33891 67.0442 10.6073C67.177 11.5075 67.2575 12.3974 67.2804 13.1928C68.2714 13.0723 69.3177 12.9757 70.2923 12.9513C71.4787 12.9217 72.6594 12.9948 73.504 13.3283C74.4717 13.7104 75.4969 14.3527 76.2213 15.6421C76.9334 16.9097 77.3089 18.7217 77.1685 21.3562C76.9974 24.5639 77.0829 27.18 77.2113 29.2072C77.2664 30.0774 77.3293 30.838 77.3837 31.4963C77.3928 31.6061 77.4016 31.7132 77.4102 31.8174C77.4689 32.5349 77.5152 33.1417 77.5152 33.6031C77.5152 34.5092 77.4607 35.4985 76.7812 36.7567C76.1269 37.9684 74.9173 39.3869 72.7286 41.2627C72.2646 41.8492 71.6145 42.2713 70.7512 42.4843C69.2543 42.8538 66.8168 42.8451 64.4195 42.7606C63.4795 42.7274 62.5408 42.6824 61.6439 42.6393C60.1922 42.5695 58.8502 42.5051 57.7901 42.5051C56.0895 42.5051 53.2629 42.6738 50.6198 42.8449C50.1735 42.8737 49.7315 42.9028 49.3011 42.931C47.2133 43.0682 45.3957 43.1876 44.6539 43.1876C43.652 43.1876 42.5786 42.8884 41.7609 42.0274C40.9465 41.1699 40.4849 39.859 40.4849 38.0393C40.4849 36.7676 40.5795 34.6567 40.6808 32.3963C40.717 31.5887 40.7541 30.762 40.788 29.9477C40.8527 28.3922 40.9064 26.8757 40.9224 25.6015C40.9387 24.3101 40.9151 23.319 40.8379 22.7852C40.6389 21.4105 41.244 20.0972 42.3088 19.2427L42.7495 19.7919L42.3088 19.2427C42.3319 19.2242 42.3552 19.2059 42.3787 19.1878C43.5113 18.2976 45.7947 16.4615 46.5734 15.6928C47.0886 15.1843 47.8554 14.859 48.6171 14.6164C49.2144 14.4261 49.8789 14.2665 50.5342 14.117C50.4822 13.1551 50.4979 12.2522 50.6129 11.324C50.791 9.8865 51.2029 8.4221 51.9297 6.60493C52.7536 4.54519 54.8607 3.09382 57.2094 2.56929ZM51.9966 14.6316C51.9961 14.6248 51.9956 14.618 51.9949 14.6111C51.9048 13.4795 51.9025 12.4979 52.0263 11.4991C52.1849 10.2192 52.5547 8.87732 53.2521 7.13388C53.8525 5.63301 55.4841 4.41393 57.5198 3.95929C59.5354 3.50914 61.8213 3.84218 63.6309 5.28921C64.0268 5.60586 64.4477 6.31779 64.82 7.36861C65.1809 8.38694 65.4576 9.61009 65.6352 10.815C65.8129 12.0204 65.8874 13.1788 65.8558 14.0635C65.84 14.5087 65.798 14.8592 65.7396 15.1025C65.7135 15.2111 65.6879 15.2816 65.6692 15.3224C65.3699 15.5037 64.9825 15.6059 64.6932 15.6103C64.672 14.8584 64.5658 14.1852 64.462 13.5275C64.4544 13.4796 64.4469 13.4317 64.4394 13.3839C64.316 12.5978 64.199 11.7961 64.199 10.7861C64.199 10.7508 64.1964 10.7156 64.1911 10.6807C63.9377 8.98697 63.3299 7.48949 62.2736 6.46872C61.1929 5.42432 59.7209 4.95507 57.9284 5.19406C56.7135 5.35606 55.6576 5.84165 54.9155 6.7563C54.1798 7.66297 53.8253 8.90158 53.8253 10.43C53.8253 10.4671 53.8282 10.5042 53.834 10.5409C53.9569 11.3205 53.9175 12.2765 53.8742 13.3277C53.8728 13.3613 53.8714 13.395 53.87 13.4289C53.8298 14.4095 53.7896 15.4827 53.949 16.3987C53.7927 16.4215 53.5478 16.4169 53.2478 16.3532C52.8843 16.2761 52.542 16.1333 52.3149 15.9697C52.2029 15.8891 52.1418 15.8198 52.1131 15.7741C52.0997 15.7528 52.0955 15.7402 52.0944 15.7363C52.0942 15.7355 52.0941 15.7349 52.094 15.7346M54.0839 16.3635C54.084 16.3635 54.0833 16.3639 54.0819 16.3646C54.0832 16.3638 54.0839 16.3635 54.0839 16.3635ZM65.6525 15.3541C65.6524 15.3541 65.6531 15.3529 65.6547 15.3507C65.6533 15.3531 65.6525 15.3541 65.6525 15.3541ZM50.6525 15.5513C50.0798 15.6836 49.5368 15.8182 49.0493 15.9734C48.3243 16.2043 47.8355 16.4482 47.574 16.7064C47.2395 17.0365 46.6709 17.5302 46.0368 18.0607C46.5799 17.9873 47.2244 17.949 47.9016 17.9298C49.0517 17.8972 50.3971 17.919 51.7203 17.9618C53.0922 18.0062 54.42 18.0718 55.5056 18.1254C56.5497 18.1769 57.3699 18.2174 57.7901 18.2174C58.6036 18.2174 60.8798 17.969 63.2435 17.7098L63.3299 17.7003C65.6061 17.4506 67.9487 17.1937 68.8522 17.1937C69.889 17.1937 71.1022 17.5982 72.0609 18.4947C73.0362 19.4068 73.7126 20.7944 73.7126 22.6832V35.3093C73.7126 35.5614 73.7159 35.8244 73.7192 36.0933C73.7285 36.8382 73.7384 37.6285 73.6805 38.357C73.6781 38.3874 73.6756 38.4179 73.6729 38.4483C74.6135 37.4884 75.1815 36.7216 75.528 36.08C76.0463 35.1201 76.0909 34.4032 76.0909 33.6031C76.0909 33.2114 76.0507 32.6664 75.9907 31.9337C75.9822 31.8308 75.9735 31.7247 75.9644 31.6154C75.91 30.9573 75.8459 30.1822 75.7899 29.2972C75.6589 27.2295 75.5716 24.5563 75.7462 21.2803C75.8787 18.7961 75.511 17.2856 74.9795 16.3397C74.4603 15.4155 73.7417 14.9534 72.9809 14.653C72.4227 14.4326 71.4921 14.3461 70.3279 14.3751C69.3484 14.3996 68.2739 14.5028 67.2478 14.632C67.2217 14.9257 67.1816 15.1974 67.1244 15.4353C67.0796 15.6216 67.0195 15.8082 66.9351 15.976C66.8538 16.1374 66.7248 16.3322 66.5162 16.4713C65.9686 16.8364 65.2763 17.0274 64.7074 17.0345C64.4311 17.0379 64.0956 16.9995 63.8091 16.8372C63.6571 16.751 63.4975 16.6171 63.3892 16.4171C63.2891 16.232 63.2559 16.0323 63.2726 15.8404C63.271 15.4913 63.247 15.1621 63.2097 14.8328C62.9082 14.8257 62.5866 14.8178 62.2506 14.8096C60.0288 14.7552 57.1724 14.6853 55.2585 14.7233C55.2559 15.3066 55.2833 15.832 55.3761 16.2805C55.4432 16.6049 55.4001 16.9474 55.1935 17.2394C55.0005 17.5121 54.7237 17.657 54.4828 17.7337C54.0132 17.8831 53.445 17.8511 52.9521 17.7464C52.4461 17.639 51.9075 17.4316 51.4824 17.1254C51.0905 16.8431 50.6576 16.3682 50.6698 15.7117C50.6639 15.658 50.6581 15.6045 50.6525 15.5513ZM55.3009 13.2981C57.2611 13.2625 60.1221 13.3327 62.3105 13.3863C62.5493 13.3922 62.7802 13.3978 63.001 13.4031C62.8878 12.6679 62.7787 11.8482 62.7749 10.8406C62.5448 9.35462 62.0289 8.21285 61.2839 7.49287C60.5548 6.78833 59.5344 6.41678 58.1167 6.60581C57.1675 6.73236 56.4808 7.08757 56.0214 7.6537C55.5618 8.2201 55.2578 9.08632 55.2497 10.3771C55.3835 11.281 55.3411 12.3323 55.3009 13.2981ZM63.3123 19.135C61.0361 19.3847 58.6936 19.6416 57.7901 19.6416C57.3544 19.6416 56.4707 19.5985 55.3734 19.5448C54.2759 19.4912 52.9647 19.4271 51.6743 19.3853C50.3616 19.3429 49.0495 19.322 47.9419 19.3534C46.8028 19.3857 45.974 19.4723 45.5678 19.606C45.496 19.6296 45.4209 19.6416 45.3453 19.6416C44.4959 19.6416 43.7786 19.9083 43.2496 20.3147C43.2329 20.3275 43.2165 20.3404 43.2002 20.3535C42.4798 20.9317 42.1293 21.7647 42.2475 22.5812C42.343 23.2418 42.3627 24.3409 42.3466 25.6195C42.3302 26.9153 42.2758 28.4487 42.211 30.007C42.1762 30.8423 42.1385 31.683 42.102 32.4989C42.0013 34.7447 41.9091 36.8022 41.9091 38.0393C41.9091 39.632 42.3117 40.5392 42.7936 41.0466C43.2723 41.5506 43.9274 41.7633 44.6539 41.7633C45.344 41.7633 47.0936 41.6485 49.1847 41.5113C49.6198 41.4828 50.0696 41.4532 50.5278 41.4236C53.1565 41.2534 56.0338 41.0808 57.7901 41.0808C58.8788 41.0808 60.2871 41.1483 61.7709 41.2193C62.6609 41.2619 63.5781 41.3058 64.4697 41.3372C66.9121 41.4233 69.1414 41.4147 70.41 41.1016C71.0108 40.9533 71.3856 40.6804 71.641 40.341C72.0049 39.8575 72.1883 39.1563 72.2608 38.2442C72.3131 37.5859 72.3045 36.8966 72.2955 36.1747C72.2919 35.8913 72.2883 35.6029 72.2883 35.3093V22.6832C72.2883 21.1596 71.7548 20.1585 71.0881 19.535C70.4047 18.8959 69.5438 18.6179 68.8522 18.6179C68.0386 18.6179 65.7625 18.8663 63.3988 19.1255L63.3123 19.135ZM59.1077 26.459C59.7452 26.7998 60.3264 27.2792 60.6788 27.8667C61.435 29.127 60.8769 30.5264 60.3142 31.4173C60.0154 31.8905 59.668 32.3003 59.3647 32.5973C59.2137 32.7452 59.0631 32.8755 58.9247 32.9744C58.8971 32.9942 58.8679 33.0142 58.8374 33.0337C58.8206 33.231 58.8149 33.4868 58.8083 33.7893C58.8069 33.8492 58.8056 33.911 58.8041 33.9745C58.7953 34.3466 58.7817 34.7711 58.7338 35.1337C58.7099 35.3148 58.6741 35.5076 58.6149 35.684C58.5618 35.8425 58.4582 36.0866 58.2368 36.2649C57.8135 36.6059 57.2568 36.6168 56.9109 36.5909C56.5241 36.5619 56.152 36.4653 55.9154 36.3821C55.741 36.3208 55.5973 36.1941 55.5146 36.0288C55.2861 35.5718 55.0942 34.766 54.962 34.0612C54.8455 33.4397 54.7554 32.7847 54.7328 32.3435C54.7117 32.3307 54.6851 32.3153 54.6543 32.2974C54.494 32.2043 54.2177 32.0438 53.9839 31.8334C53.6639 31.5454 53.3803 31.1428 53.2439 30.5593C53.1116 29.9938 53.1275 29.3008 53.32 28.4346C53.5356 27.4642 54.0403 26.7598 54.7343 26.3269C55.4117 25.9045 56.2059 25.7795 56.9572 25.8313C57.7102 25.8832 58.4638 26.1147 59.1077 26.459ZM54.8335 32.413C54.8331 32.4129 54.8301 32.4105 54.8251 32.4056C54.8313 32.4105 54.8338 32.413 54.8335 32.413ZM55.488 27.5354C55.1472 27.748 54.8507 28.1117 54.7103 28.7436C54.5468 29.4796 54.5626 29.9439 54.6307 30.2351C54.6946 30.5084 54.8115 30.6622 54.9366 30.7747C55.0503 30.877 55.1542 30.938 55.2973 31.0219C55.3545 31.0554 55.418 31.0927 55.4909 31.1377L55.4967 31.1412C55.6672 31.2465 56.1515 31.5454 56.1515 32.1497C56.1515 32.4367 56.2299 33.0952 56.3619 33.7988C56.4613 34.329 56.5766 34.8044 56.6814 35.12C56.7873 35.143 56.9035 35.1621 57.0173 35.1706C57.1283 35.1789 57.2179 35.1757 57.2832 35.1653C57.2961 35.1118 57.3096 35.0399 57.3218 34.9471C57.3583 34.6713 57.3713 34.3197 57.3802 33.9409C57.3815 33.8854 57.3827 33.829 57.384 33.772C57.3907 33.4627 57.3977 33.139 57.4207 32.8856C57.4338 32.7411 57.4563 32.5633 57.5078 32.4058C57.5327 32.3295 57.5815 32.203 57.6805 32.0833C57.765 31.9812 57.9036 31.8669 58.0933 31.818C58.0942 31.8173 58.0952 31.8167 58.0961 31.816C58.1581 31.7717 58.2522 31.6933 58.3683 31.5797C58.599 31.3537 58.8748 31.0292 59.11 30.6567C59.6156 29.8563 59.7695 29.1194 59.4576 28.5994C59.2759 28.2967 58.9224 27.975 58.4361 27.715C57.9562 27.4584 57.3969 27.2893 56.8592 27.2522C56.3197 27.215 55.8455 27.3125 55.488 27.5354ZM57.2528 35.261C57.2527 35.2609 57.2538 35.2583 57.2563 35.2537C57.2541 35.2589 57.2528 35.2612 57.2528 35.261Z" fill="black"/>
</svg>
