<svg width="66" height="86" viewBox="0 0 66 86" fill="none" xmlns="http://www.w3.org/2000/svg">
<path d="M12.4143 28.5389L11.5981 20.3135L16.3701 15.2903L20.577 13.4694L32.3814 11.8369L41.9881 9.70209L52.3484 12.7788L57.1204 15.6043V26.4668L59.318 36.1364V43.3572L57.1204 48.9454V56.4174L45.5671 56.7313H29.3675L15.4283 56.4174L10.0283 42.4781V36.8899L12.4143 28.5389Z" fill="#A0E5E2"/>
<path fill-rule="evenodd" clip-rule="evenodd" d="M42.1848 9.00074C42.3372 8.99488 42.4889 9.02394 42.6283 9.08572C43.3825 9.41986 44.6615 9.92762 46.0139 10.3498C47.3918 10.78 48.7403 11.087 49.6766 11.087C50.3807 11.087 51.1627 11.27 51.9203 11.5212C52.6908 11.7768 53.5 12.1247 54.2775 12.5018C55.8316 13.2554 57.322 14.1558 58.2286 14.7607C58.6419 15.0364 58.7901 15.5737 58.5766 16.0223C58.4325 16.325 58.2099 16.8936 58.0492 17.5462C57.8859 18.2097 57.8081 18.8749 57.884 19.4064C58.0098 20.287 57.9218 21.0159 57.855 21.5687C57.8424 21.6732 57.8306 21.7713 57.8211 21.863C57.7629 22.4243 57.763 22.8652 58.0314 23.4719C58.4875 24.5031 58.5715 25.9461 58.625 27.0921C58.6316 27.2329 58.6376 27.3703 58.6435 27.5045C58.6634 27.9578 58.6817 28.3737 58.7132 28.7528C58.7552 29.2595 58.8137 29.5849 58.8807 29.7635C59.1364 30.4454 59.6412 32.0536 60.0231 33.6541C60.2143 34.4556 60.3809 35.2805 60.4679 36.0012C60.5113 36.3613 60.5373 36.7139 60.5325 37.0351C60.528 37.3407 60.4956 37.6916 60.3766 38.0089C60.3135 38.1771 60.265 38.4563 60.2469 38.8894C60.2293 39.3124 60.2426 39.8017 60.2607 40.3669C60.2622 40.412 60.2636 40.4576 60.2651 40.5036C60.2998 41.5714 60.3418 42.8658 60.1406 44.09C59.9274 45.387 59.3624 46.5651 58.9158 47.4963L58.8859 47.5587C58.6502 48.0504 58.4558 48.4592 58.3202 48.8287C58.1832 49.2018 58.1404 49.448 58.1477 49.6123C58.1591 49.8687 58.1833 50.2434 58.2127 50.7007C58.223 50.8597 58.2339 51.0288 58.2452 51.2063C58.288 51.8841 58.3345 52.6674 58.3628 53.4268C58.391 54.1812 58.4023 54.9352 58.3712 55.5483C58.3557 55.8525 58.3286 56.1498 58.2802 56.4068C58.256 56.5355 58.2226 56.6751 58.1735 56.8105C58.1285 56.9349 58.0475 57.121 57.8961 57.2913C57.6815 57.5328 57.3634 57.6557 57.0421 57.6213C56.0265 57.5125 54.3504 57.3809 52.6481 57.3427C50.918 57.3038 49.2647 57.3647 48.239 57.6014C46.6413 57.9701 44.2513 57.9598 42.119 57.8769C41.0779 57.8364 40.1046 57.7794 39.2619 57.7301C38.2942 57.6735 37.4986 57.627 36.97 57.627C36.4162 57.627 35.6282 57.6404 34.7418 57.6555C32.567 57.6926 29.8003 57.7397 28.4498 57.6233C28.0536 57.5891 27.1244 57.5945 25.857 57.6188C25.3648 57.6283 24.8266 57.6404 24.2642 57.653C23.4225 57.672 22.5267 57.6921 21.6494 57.7064C20.1811 57.7303 18.7221 57.7387 17.5662 57.698C16.9904 57.6777 16.4684 57.6445 16.0491 57.5911C15.8403 57.5645 15.6367 57.5304 15.455 57.4841C15.2998 57.4446 15.0528 57.371 14.8362 57.2141C14.6441 57.075 14.5076 56.872 14.4513 56.6415C14.0289 54.9127 12.9379 51.0875 11.7496 48.5634C11.0012 48.7911 9.99669 48.8408 8.79513 48.5228C7.18296 48.0962 6.51317 46.8203 6.24262 45.7098C6.03934 44.8755 6.02339 43.9464 6.01388 43.3928C6.01146 43.2519 6.00946 43.1353 6.00489 43.0507C5.96402 42.2945 6.18602 41.4738 6.41592 40.7211C6.48752 40.4867 6.5619 40.2531 6.63711 40.0169C6.82211 39.4358 7.01206 38.8393 7.17753 38.1774C7.41066 37.2449 8.10467 35.942 8.79077 34.7862C9.44846 33.6782 10.1708 32.5886 10.6782 31.8617C11.0907 30.0074 11.2765 28 11.053 25.5259C10.8761 23.567 10.7052 22.4099 10.5704 21.7656C10.5299 21.5716 10.4956 21.4393 10.4705 21.354C10.4535 21.3347 10.4372 21.3146 10.4216 21.2938C10.1681 20.956 10.1542 20.4955 10.3867 20.143C11.0064 19.2036 12.1182 17.7551 13.4756 16.4048C14.8152 15.0722 16.4893 13.7385 18.2397 13.1642C20.2738 12.4968 23.5706 12.1175 26.5082 11.8369C27.2256 11.7684 27.9143 11.7065 28.5684 11.6477C29.2934 11.5825 29.9758 11.5212 30.6076 11.4589C31.8178 11.3396 32.689 11.2297 33.129 11.1178C33.5887 11.0009 34.1985 10.8375 34.8947 10.651C34.9855 10.6267 35.0778 10.602 35.1714 10.5769C35.9788 10.3607 36.8786 10.1208 37.7622 9.8956C38.6445 9.67069 39.5192 9.4582 40.2758 9.29758C41.0113 9.14143 41.7021 9.0193 42.1848 9.00074ZM12.5198 21.3168C12.5226 21.3298 12.5253 21.343 12.5281 21.3563C12.6862 22.1124 12.8654 23.3583 13.0449 25.346C13.2959 28.1251 13.0717 30.3973 12.5838 32.5012C12.1729 34.2733 11.5768 35.9143 10.9487 37.5942C10.3871 39.0963 10.4841 40.5674 10.9442 42.0834C11.3822 43.5267 12.1253 44.9419 12.9047 46.4264C12.9609 46.5333 13.0172 46.6406 13.0736 46.7483C13.1341 46.8637 13.1945 46.9793 13.2546 47.095C14.5368 49.5626 15.7059 53.4987 16.2512 55.6005C16.2675 55.6027 16.2844 55.6049 16.3018 55.6071C16.6321 55.6492 17.0841 55.6797 17.6367 55.6992C18.7376 55.738 20.153 55.7305 21.6168 55.7067C22.4931 55.6924 23.3716 55.6726 24.205 55.6538C24.7683 55.6412 25.311 55.6289 25.8186 55.6192C27.0387 55.5958 28.0948 55.5853 28.6216 55.6307C29.8647 55.7378 32.3934 55.6945 34.5256 55.6579C35.4655 55.6418 36.3283 55.627 36.97 55.627C37.5311 55.627 38.438 55.6792 39.4846 55.7394C40.3335 55.7883 41.2742 55.8425 42.1968 55.8784C44.3613 55.9625 46.4907 55.9523 47.7893 55.6526C49.0807 55.3546 50.955 55.3041 52.693 55.3432C54.0288 55.3732 55.3455 55.4582 56.3681 55.5472C56.3701 55.5149 56.372 55.4815 56.3738 55.4469C56.4003 54.9231 56.3917 54.2389 56.3642 53.5014C56.3369 52.7689 56.2918 52.0066 56.2491 51.3326C56.2387 51.1671 56.2282 51.0056 56.2183 50.8508C56.1882 50.385 56.162 49.9793 56.1497 49.7011C56.1251 49.1493 56.2693 48.6118 56.4427 48.1395C56.6161 47.6669 56.8533 47.1722 57.0777 46.7041L57.0824 46.6942C57.5545 45.7093 58.0031 44.7628 58.1671 43.7656C58.3358 42.7389 58.2998 41.6174 58.2638 40.496L58.2617 40.4309C58.244 39.8781 58.2275 39.3151 58.2487 38.8062C58.2694 38.3073 58.3283 37.7749 58.5039 37.3066C58.5013 37.3137 58.5091 37.2944 58.5173 37.2368C58.5252 37.1812 58.5313 37.105 58.5327 37.0055C58.5357 36.8048 58.5194 36.5482 58.4823 36.2409C58.4082 35.6268 58.2604 34.8842 58.0777 34.1182C57.7116 32.5838 57.2297 31.0569 57.008 30.4657C56.8363 30.0077 56.7635 29.442 56.72 28.9183C56.685 28.4964 56.6644 28.027 56.6442 27.5663C56.6386 27.4382 56.633 27.3109 56.6272 27.1853C56.5692 25.9443 56.4782 24.9048 56.2023 24.2809C55.7386 23.2325 55.7546 22.4004 55.8317 21.6568C55.8456 21.523 55.8604 21.3968 55.8746 21.2754C55.9377 20.7358 55.9899 20.2896 55.9041 19.6893C55.7763 18.795 55.916 17.8447 56.1072 17.0681C56.1809 16.7686 56.2655 16.4823 56.3531 16.2193C55.7186 16.0652 54.8919 15.943 54.09 16.0181C52.0971 16.2048 49.9442 16.1745 47.7848 15.8302C46.957 15.6983 45.9855 15.6006 44.9989 15.5643C44.2105 15.5352 43.4231 15.5458 42.6995 15.6066C42.1729 15.6508 41.691 15.7207 41.2733 15.8171C39.2134 16.2925 34.8936 16.5319 33.3955 16.5619C32.8863 16.5721 32.0208 16.666 31.0384 16.7753L30.9377 16.7865C30.0184 16.8888 29.0259 16.9994 28.2877 17.0345C28.038 17.0464 27.796 17.0509 27.5838 17.0407C27.4166 17.0326 27.1479 17.0124 26.9011 16.9148C26.8842 16.9137 26.8435 16.9125 26.7711 16.9199C26.6172 16.9355 26.4076 16.9796 26.1164 17.0569C25.953 17.1002 25.7604 17.1556 25.5473 17.2169C25.0708 17.354 24.4917 17.5206 23.9075 17.6481C23.407 17.7573 22.8775 17.7933 22.3835 17.817C22.2482 17.8234 22.1156 17.829 21.9844 17.8345C21.6128 17.8501 21.2523 17.8652 20.8728 17.8993C19.876 17.989 18.8975 18.2017 17.9497 18.8253C16.3973 19.8466 14.0672 20.776 12.5198 21.3168ZM52.9707 14.096C51.3989 14.1819 49.747 14.1178 48.0996 13.8552C47.1895 13.7101 46.1374 13.6048 45.0725 13.5656C44.5601 13.5467 44.0409 13.543 43.5299 13.5581L43.3583 11.5437C43.9841 11.7819 44.6904 12.0318 45.4179 12.2589C46.8255 12.6983 48.4186 13.087 49.6766 13.087C50.0696 13.087 50.6169 13.1961 51.2908 13.4196C51.8202 13.5951 52.3904 13.8285 52.9707 14.096ZM41.3158 11.1292L41.5374 13.7314C41.2925 13.7698 41.0537 13.8152 40.8236 13.8683C38.9871 14.2921 34.8546 14.5323 33.3555 14.5623C32.7327 14.5747 31.7564 14.683 30.8172 14.7875L30.7606 14.7938C29.8053 14.9002 28.8659 15.0047 28.1925 15.0368C27.9721 15.0473 27.8015 15.0488 27.6802 15.043C27.6384 15.041 27.6088 15.0384 27.5896 15.0361C27.2265 14.8982 26.8575 14.9008 26.569 14.9301C26.2527 14.9623 25.919 15.04 25.6033 15.1238C25.3655 15.1869 25.134 15.2538 24.8994 15.3215C24.4578 15.449 24.0055 15.5796 23.4811 15.694C23.1573 15.7647 22.7728 15.7961 22.2879 15.8193C22.1767 15.8246 22.0594 15.8295 21.9375 15.8346C21.5545 15.8506 21.1253 15.8685 20.6936 15.9074C19.5249 16.0125 18.1805 16.2794 16.8504 17.1544C16.1269 17.6304 15.1775 18.0979 14.2266 18.5084C14.438 18.2791 14.6583 18.0493 14.8861 17.8227C16.1554 16.5601 17.5607 15.4919 18.8632 15.0645C20.6452 14.4798 23.7054 14.1137 26.6984 13.8278C27.3822 13.7625 28.0707 13.7006 28.7309 13.6411C29.4732 13.5744 30.1797 13.5108 30.8039 13.4492C31.9747 13.3338 33.007 13.2126 33.622 13.0561C34.095 12.9358 34.7185 12.7688 35.4114 12.5831C35.5027 12.5587 35.5952 12.5339 35.6887 12.5089C36.4958 12.2927 37.3854 12.0556 38.2562 11.8336C39.1283 11.6113 39.9731 11.4064 40.6911 11.254C40.9188 11.2057 41.1275 11.164 41.3158 11.1292ZM27.5635 15.0323C27.5636 15.0323 27.5651 15.0326 27.568 15.0332C27.5649 15.0327 27.5634 15.0324 27.5635 15.0323ZM15.8977 55.5309C15.8978 55.5308 15.9002 55.5316 15.9045 55.5334C15.8998 55.5318 15.8977 55.5309 15.8977 55.5309ZM10.4319 21.239C10.4263 21.2275 10.4265 21.226 10.4317 21.2384C10.4318 21.2386 10.4318 21.2388 10.4319 21.239ZM8.59379 40.4645C8.57038 40.5383 8.54728 40.6108 8.5246 40.6821C8.45416 40.9034 8.38772 41.1121 8.32869 41.3053C8.09186 42.0807 7.98263 42.5849 8.00198 42.9428C8.01206 43.1293 8.01583 43.3222 8.01971 43.5204C8.03033 44.0635 8.04171 44.6451 8.18577 45.2364C8.36687 45.9797 8.69072 46.4264 9.30676 46.5894C9.96266 46.7629 10.4554 46.772 10.8038 46.7265C10.137 45.4471 9.45896 44.0763 9.03038 42.6642C8.81424 41.9521 8.65741 41.2177 8.59379 40.4645ZM46.7152 18.6122C47.232 18.4173 47.8089 18.6783 48.0038 19.195C48.2333 19.8036 48.3951 20.033 48.5973 20.3195C48.6786 20.4347 48.7664 20.5591 48.8677 20.7211C49.2494 21.3312 49.5184 22.0822 49.7635 23.7292C50.12 26.1243 50.8352 27.6286 51.5319 29.0941C51.7106 29.4699 51.8881 29.8432 52.058 30.2283C52.8701 32.069 53.2625 33.0823 53.8056 35.6349C54.0586 36.824 54.2609 37.4112 54.5429 37.9921C54.7183 38.3534 54.9096 38.6885 55.1658 39.1374C55.3794 39.5115 55.638 39.9646 55.9702 40.5778C56.8018 42.1131 56.786 43.5197 56.4891 44.8853C56.3463 45.5426 56.1345 46.2078 55.9275 46.8577L55.9253 46.8647L55.9232 46.8713C55.712 47.5346 55.5 48.2003 55.326 48.9211C54.8601 50.8515 53.586 51.841 52.1703 52.3783C51.1896 52.7505 50.0349 52.9353 49.0455 53.0937C48.717 53.1463 48.4068 53.1959 48.1272 53.2486C46.3294 53.587 45.2049 52.5789 44.4224 51.762C44.2879 51.6216 44.1667 51.4908 44.0524 51.3675C43.805 51.1006 43.5898 50.8684 43.3405 50.6469C43.0028 50.3469 42.6971 50.1601 42.3693 50.0767C41.6917 49.9043 41.1507 49.6144 40.7537 49.1629C40.3673 48.7234 40.2021 48.224 40.0997 47.816C40.0473 47.6072 40.0067 47.4162 39.9686 47.237C39.847 46.6648 39.7508 46.2126 39.3776 45.6839C38.7033 44.7287 38.0123 43.2456 37.3284 41.7778C37.3061 41.73 37.2839 41.6822 37.2616 41.6345C36.5311 40.0671 35.7828 38.4734 34.9834 37.2243C34.0466 35.7606 33.71 34.4641 33.5184 33.3784C33.4724 33.1177 33.4346 32.868 33.4001 32.6404L33.3981 32.6276C33.3625 32.392 33.3307 32.1835 33.2948 31.9866C33.2227 31.5908 33.1434 31.3018 33.0297 31.0658C32.8463 30.6847 32.7176 30.3644 32.6523 30.0336C32.5881 29.7083 32.597 29.423 32.6046 29.1781L32.6052 29.16C32.6056 29.1468 32.606 29.1334 32.6065 29.1197C32.6215 28.6433 32.6461 27.8642 32.3855 26.0357C32.1973 24.7154 31.4189 22.9494 30.4273 21.1832C30.157 20.7016 30.3282 20.092 30.8098 19.8216C31.2914 19.5513 31.901 19.7225 32.1713 20.2041C33.1822 22.0048 34.1218 24.0437 34.3655 25.7535C34.65 27.7495 34.6223 28.6392 34.6047 29.2066L34.6042 29.222C34.5958 29.4929 34.5987 29.5668 34.6144 29.6463C34.6306 29.7283 34.673 29.8686 34.8317 30.1981C35.0602 30.6727 35.1783 31.1667 35.2624 31.6279C35.3046 31.8594 35.3407 32.098 35.3756 32.3281L35.3761 32.3315C35.4115 32.565 35.4462 32.7942 35.4879 33.0308C35.6516 33.9585 35.9203 34.978 36.6679 36.1462C37.5529 37.5289 38.3574 39.2513 39.0744 40.7896C39.8163 42.3812 40.4444 43.7271 41.0115 44.5305C41.648 45.4321 41.8413 46.3798 41.9655 46.988C41.9921 47.1186 42.0156 47.2336 42.0396 47.3291C42.1148 47.6289 42.1832 47.7598 42.2557 47.8422C42.3176 47.9126 42.4609 48.0363 42.8624 48.1385C43.6137 48.3296 44.1988 48.7341 44.6688 49.1518C44.9946 49.4412 45.3148 49.7864 45.5893 50.0823C45.6884 50.1891 45.7815 50.2895 45.8668 50.3786C46.5788 51.1219 47.0384 51.4184 47.7572 51.2831C48.1587 51.2075 48.5459 51.1454 48.9196 51.0855C49.8444 50.9372 50.687 50.802 51.4606 50.5084C52.4374 50.1377 53.1109 49.5745 53.3819 48.4519C53.5727 47.6611 53.8031 46.9377 54.0098 46.2886L54.0196 46.2579C54.233 45.5875 54.415 45.0115 54.5348 44.4605C54.7643 43.4048 54.7485 42.5217 54.2116 41.5304C53.9407 41.0303 53.6959 40.5995 53.4781 40.2161C53.1829 39.6965 52.9373 39.2643 52.7437 38.8655C52.3678 38.0911 52.1227 37.336 51.8494 36.0511C51.3397 33.6559 50.9952 32.7742 50.2282 31.0356C50.0858 30.713 49.9272 30.3806 49.7601 30.0305C49.0506 28.5441 48.1896 26.7401 47.7853 24.0236C47.5567 22.4878 47.341 22.0517 47.1721 21.7818C47.1305 21.7152 47.0786 21.6419 47.0186 21.5573C46.7949 21.2418 46.4598 20.769 46.1324 19.9007C45.9375 19.3839 46.1985 18.807 46.7152 18.6122Z" fill="black"/>
<path d="M17.9953 81.768C17.9526 81.8107 17.8513 81.8213 17.6913 81.8C17.5313 81.7893 17.4033 81.7147 17.3073 81.576C17.2326 81.4267 17.19 81.256 17.1793 81.064C17.1686 80.872 17.1686 80.6053 17.1793 80.264C17.2433 79.8907 17.35 79.4 17.4993 78.792C17.6486 78.184 17.814 77.5067 17.9953 76.76C18.1873 76.0027 18.3793 75.2293 18.5713 74.44C18.6673 74.0667 18.742 73.752 18.7953 73.496C18.8593 73.24 18.902 73.048 18.9233 72.92C18.9553 72.7813 18.9713 72.712 18.9713 72.712C18.9606 72.7333 18.9446 72.7547 18.9233 72.776C18.9126 72.7973 18.902 72.8187 18.8913 72.84C18.8806 72.8613 18.87 72.8827 18.8593 72.904C18.8593 72.904 18.838 72.9413 18.7953 73.016C18.7633 73.0907 18.6886 73.2187 18.5713 73.4C18.486 73.528 18.406 73.6773 18.3313 73.848C18.2566 74.0187 18.1286 74.2427 17.9473 74.52C17.7766 74.84 17.5846 75.208 17.3713 75.624C17.158 76.04 16.9766 76.3707 16.8273 76.616C16.7526 76.7333 16.6833 76.8347 16.6193 76.92C16.566 77.0053 16.5286 77.0747 16.5073 77.128C16.4646 77.2453 16.3953 77.3893 16.2993 77.56C16.2033 77.7307 16.0913 77.896 15.9633 78.056C15.8993 78.152 15.814 78.264 15.7073 78.392C15.6113 78.52 15.526 78.6373 15.4513 78.744C15.3766 78.84 15.3393 78.888 15.3393 78.888C15.318 78.952 15.2486 79.0533 15.1313 79.192C15.014 79.3307 14.87 79.4853 14.6993 79.656C14.5393 79.816 14.374 79.9653 14.2033 80.104C13.83 80.4027 13.5206 80.5893 13.2753 80.664C13.0406 80.7387 12.7686 80.648 12.4593 80.392C12.3206 80.2213 12.2086 80.0507 12.1233 79.88C12.038 79.6987 11.9953 79.4533 11.9953 79.144C11.9953 78.8347 12.0486 78.4027 12.1553 77.848C12.23 77.496 12.31 77.1227 12.3953 76.728C12.4913 76.3333 12.5873 75.9547 12.6833 75.592C12.7793 75.2187 12.8646 74.8987 12.9393 74.632C13.0246 74.3547 13.0833 74.1627 13.1153 74.056C13.1473 73.7893 13.1526 73.6507 13.1313 73.64C13.11 73.6187 13.0566 73.6773 12.9713 73.816C12.8966 73.9333 12.758 74.1787 12.5553 74.552C12.3526 74.9253 12.1233 75.3627 11.8673 75.864C11.622 76.3653 11.382 76.8667 11.1473 77.368C10.71 78.1787 10.342 78.856 10.0433 79.4C9.74465 79.944 9.49931 80.3813 9.30731 80.712C9.11531 81.032 8.96598 81.272 8.85931 81.432C8.76331 81.6027 8.68865 81.72 8.63531 81.784C8.59265 81.8587 8.56065 81.9067 8.53931 81.928C8.37931 81.9173 8.24065 81.8427 8.12331 81.704C8.00598 81.5653 7.90998 81.4 7.83531 81.208C7.81398 81.1013 7.79798 80.9893 7.78731 80.872C7.77665 80.7547 7.78731 80.6267 7.81931 80.488C7.86198 80.3387 7.92598 80.1787 8.01131 80.008C8.14998 79.7307 8.28331 79.496 8.41131 79.304C8.53931 79.112 8.61931 78.9947 8.65131 78.952C8.70465 78.8773 8.74731 78.7973 8.77931 78.712C8.81131 78.6267 8.83265 78.5467 8.84331 78.472C8.89665 78.408 8.97665 78.2747 9.08331 78.072C9.20065 77.8693 9.31798 77.6507 9.43531 77.416C9.52065 77.2773 9.63798 77.0853 9.78731 76.84C9.93665 76.584 10.0966 76.312 10.2673 76.024C10.438 75.7253 10.5873 75.4533 10.7153 75.208C11.1846 74.3653 11.558 73.6933 11.8353 73.192C12.1126 72.68 12.31 72.3547 12.4273 72.216C12.502 72.1627 12.566 72.0613 12.6193 71.912C12.6833 71.752 12.7366 71.6347 12.7793 71.56C12.9286 71.2613 13.078 71.016 13.2273 70.824C13.3873 70.6213 13.526 70.52 13.6433 70.52C13.7286 70.52 13.8353 70.552 13.9633 70.616C14.102 70.68 14.2353 70.7707 14.3633 70.888C14.4806 71.0267 14.5873 71.2133 14.6833 71.448C14.79 71.672 14.8113 71.9707 14.7473 72.344C14.7366 72.5147 14.71 72.7227 14.6673 72.968C14.6246 73.2027 14.582 73.4373 14.5393 73.672C14.4966 73.9067 14.454 74.104 14.4113 74.264C14.326 74.744 14.23 75.2027 14.1233 75.64C14.0273 76.0667 13.9366 76.4613 13.8513 76.824C13.766 77.1867 13.6966 77.5067 13.6433 77.784C13.59 78.0507 13.5526 78.2693 13.5313 78.44C13.5206 78.6107 13.542 78.7227 13.5953 78.776C13.6273 78.7867 13.67 78.776 13.7233 78.744C13.7873 78.7013 13.8353 78.6587 13.8673 78.616C13.9313 78.5307 13.99 78.4453 14.0433 78.36C14.0966 78.2747 14.166 78.168 14.2513 78.04C14.422 77.8053 14.598 77.5493 14.7793 77.272C14.9713 76.984 15.1953 76.632 15.4513 76.216C15.718 75.7893 16.0326 75.2667 16.3953 74.648C16.758 74.0187 17.2006 73.24 17.7233 72.312C17.9686 71.9387 18.2033 71.5653 18.4273 71.192C18.6513 70.8187 18.854 70.5307 19.0353 70.328C19.1953 70.1573 19.3926 70.0987 19.6273 70.152C19.8726 70.2053 20.0966 70.3387 20.2993 70.552C20.502 70.7653 20.614 71.0267 20.6353 71.336C20.646 71.4853 20.614 71.752 20.5393 72.136C20.4753 72.5093 20.3846 72.9307 20.2673 73.4C20.15 73.8693 20.0166 74.328 19.8673 74.776C19.8353 74.9573 19.782 75.1973 19.7073 75.496C19.6326 75.7947 19.5526 76.0987 19.4673 76.408C19.382 76.7173 19.302 76.9947 19.2273 77.24C19.1526 77.6027 19.0886 77.8907 19.0353 78.104C18.9926 78.3173 18.9713 78.5627 18.9713 78.84C18.8753 79.0107 18.8113 79.256 18.7793 79.576C18.7473 79.896 18.7313 80.2267 18.7313 80.568C18.6886 80.984 18.598 81.2773 18.4593 81.448C18.3313 81.6187 18.246 81.6987 18.2033 81.688C18.118 81.656 18.0486 81.6827 17.9953 81.768ZM19.8276 81.528C19.6356 81.4213 19.5289 81.304 19.5076 81.176C19.4969 81.048 19.5716 80.824 19.7316 80.504C19.8916 80.184 20.1422 79.688 20.4836 79.016C20.7396 78.536 20.9102 78.1627 20.9956 77.896C21.0916 77.6187 21.1449 77.4213 21.1556 77.304C21.1662 77.1867 21.1716 77.112 21.1716 77.08C21.1502 76.984 21.1609 76.9093 21.2036 76.856C21.2462 76.792 21.3156 76.7387 21.4116 76.696C21.4649 76.6427 21.5876 76.5467 21.7796 76.408C21.9716 76.2693 22.1209 76.104 22.2276 75.912C22.3236 75.688 22.4302 75.4587 22.5476 75.224C22.6756 74.9893 22.8409 74.696 23.0436 74.344C23.2462 73.9813 23.5182 73.512 23.8596 72.936C24.0729 72.5627 24.3236 72.1413 24.6116 71.672C24.9102 71.2027 25.2036 70.776 25.4916 70.392C25.6089 70.2427 25.7316 70.1253 25.8596 70.04C25.9876 69.9547 26.0996 69.912 26.1956 69.912C26.4302 69.912 26.6649 69.976 26.8996 70.104C27.1342 70.2213 27.3422 70.3707 27.5236 70.552C27.7049 70.7333 27.8276 70.904 27.8916 71.064C27.9449 71.1493 27.9662 71.3307 27.9556 71.608C27.9449 71.8853 27.9236 72.2213 27.8916 72.616C27.8596 73.0107 27.8222 73.432 27.7796 73.88C27.7476 74.3173 27.6996 74.8347 27.6356 75.432C27.5716 76.0293 27.5076 76.6533 27.4436 77.304C27.3902 77.9547 27.3476 78.584 27.3156 79.192C27.2836 79.7893 27.2836 80.312 27.3156 80.76C27.3262 80.856 27.3262 80.9467 27.3156 81.032C27.3049 81.1173 27.2996 81.1867 27.2996 81.24C27.2356 81.304 27.0969 81.3307 26.8836 81.32C26.6702 81.32 26.4622 81.288 26.2596 81.224C26.0569 81.16 25.9449 81.08 25.9236 80.984C25.8916 80.952 25.8702 80.9253 25.8596 80.904C25.8489 80.8827 25.8489 80.7813 25.8596 80.6C25.8702 80.408 25.8862 80.0613 25.9076 79.56L25.9876 77.112L25.7796 77.128C25.6836 77.128 25.5076 77.1387 25.2516 77.16C25.0062 77.1813 24.7342 77.2133 24.4356 77.256C24.1476 77.288 23.8809 77.3253 23.6356 77.368C23.3902 77.4 23.2196 77.432 23.1236 77.464C23.0276 77.464 22.9102 77.528 22.7716 77.656C22.6436 77.784 22.5209 77.9493 22.4036 78.152C22.3609 78.3013 22.2809 78.4613 22.1636 78.632C22.0569 78.792 22.0036 78.8987 22.0036 78.952C21.9289 79.0053 21.8649 79.0693 21.8116 79.144C21.7689 79.2187 21.7476 79.256 21.7476 79.256C21.7476 79.32 21.6996 79.48 21.6036 79.736C21.5076 79.9813 21.3902 80.2587 21.2516 80.568C21.1129 80.8667 20.9689 81.128 20.8196 81.352L20.3876 81.96L19.8276 81.528ZM23.6516 76.024C23.6516 76.024 23.7102 76.0133 23.8276 75.992C23.9449 75.9707 24.0836 75.9493 24.2436 75.928C24.4142 75.896 24.5636 75.88 24.6916 75.88C24.9369 75.816 25.1396 75.768 25.2996 75.736C25.4702 75.704 25.6089 75.688 25.7156 75.688C25.8222 75.6773 25.9076 75.688 25.9716 75.72C26.0142 75.7733 26.0516 75.8053 26.0836 75.816C26.1262 75.8267 26.1476 75.832 26.1476 75.832C26.1582 75.8107 26.1796 75.6987 26.2116 75.496C26.2436 75.2933 26.2809 75.0427 26.3236 74.744C26.3662 74.4453 26.4089 74.136 26.4516 73.816C26.4942 73.4853 26.5316 73.1813 26.5636 72.904C26.5956 72.616 26.6169 72.392 26.6276 72.232C26.6382 72.0293 26.6329 71.848 26.6116 71.688C26.5902 71.5173 26.5796 71.432 26.5796 71.432C26.5156 71.432 26.3929 71.5493 26.2116 71.784C26.0409 72.008 25.8382 72.312 25.6036 72.696C25.3796 73.0693 25.1556 73.4747 24.9316 73.912C24.8249 74.1147 24.7236 74.2747 24.6276 74.392C24.5422 74.5093 24.4729 74.568 24.4196 74.568C24.3982 74.5893 24.3396 74.6747 24.2436 74.824C24.1582 74.9627 24.0622 75.1227 23.9556 75.304C23.8596 75.4747 23.7742 75.6347 23.6996 75.784C23.6356 75.9227 23.6196 76.0027 23.6516 76.024ZM29.0272 81.528C29.0272 81.5813 29.0005 81.5813 28.9472 81.528C28.8939 81.4853 28.8085 81.4213 28.6912 81.336C28.5952 81.24 28.4832 81.1173 28.3552 80.968C28.2272 80.8187 28.1685 80.6427 28.1792 80.44C28.2325 80.1947 28.3285 79.8373 28.4672 79.368C28.6059 78.888 28.7712 78.3867 28.9632 77.864C28.9845 77.6613 29.0165 77.4907 29.0592 77.352C29.1125 77.2133 29.1392 77.144 29.1392 77.144C29.1499 77.1227 29.1712 77.0907 29.2032 77.048C29.2352 76.9947 29.2832 76.9573 29.3472 76.936C29.4005 76.8933 29.4219 76.8133 29.4112 76.696C29.4005 76.568 29.3899 76.488 29.3792 76.456C29.4219 76.2 29.5179 75.8533 29.6672 75.416C29.8165 74.968 29.9925 74.4987 30.1952 74.008C30.3979 73.5067 30.5899 73.0427 30.7712 72.616C30.8245 72.52 30.8725 72.4293 30.9152 72.344C30.9579 72.248 30.9792 72.2 30.9792 72.2C30.9472 72.1573 30.9099 72.1147 30.8672 72.072C30.8245 72.0293 30.7765 71.9707 30.7232 71.896C30.6379 71.7787 30.5739 71.6507 30.5312 71.512C30.4992 71.3627 30.5365 71.2293 30.6432 71.112C30.6752 71.0587 30.7339 70.9893 30.8192 70.904C30.9152 70.8187 31.0165 70.7387 31.1232 70.664C31.3685 70.5253 31.6085 70.4187 31.8432 70.344C32.0885 70.2587 32.3072 70.2427 32.4992 70.296C32.8405 70.3067 33.0965 70.3333 33.2672 70.376C33.4485 70.4187 33.5925 70.4773 33.6992 70.552C33.7632 70.5947 33.8165 70.6267 33.8592 70.648C33.9125 70.6693 33.9819 70.68 34.0672 70.68C34.2485 70.7013 34.4619 70.7707 34.7072 70.888C34.9525 70.9947 35.1712 71.1067 35.3632 71.224C35.5552 71.3413 35.6672 71.4213 35.6992 71.464C35.9125 71.6453 36.0992 71.8907 36.2592 72.2C36.4192 72.5093 36.5152 72.8667 36.5472 73.272C36.5472 73.5173 36.5365 73.736 36.5152 73.928C36.4939 74.1093 36.4459 74.2907 36.3712 74.472C36.2965 74.6427 36.1739 74.8453 36.0032 75.08C35.6832 75.5813 35.2832 76.0773 34.8032 76.568C34.3339 77.0587 33.7365 77.5067 33.0112 77.912C32.9899 77.9547 32.9632 78.0027 32.9312 78.056C32.9099 78.0987 32.8992 78.12 32.8992 78.12C32.8992 78.2053 32.9525 78.3173 33.0592 78.456C33.1765 78.5947 33.3205 78.744 33.4912 78.904C33.6619 79.0533 33.8379 79.2027 34.0192 79.352C34.2112 79.5013 34.3819 79.6347 34.5312 79.752C34.6912 79.8587 34.8085 79.9333 34.8832 79.976C35.0219 79.9333 35.1339 79.9173 35.2192 79.928C35.3045 79.928 35.3685 79.9653 35.4112 80.04C35.4539 80.1147 35.4805 80.2427 35.4912 80.424C35.4805 80.5627 35.4432 80.696 35.3792 80.824C35.3152 80.952 35.2672 81.0267 35.2352 81.048C35.1499 81.112 35.0699 81.1867 34.9952 81.272C34.9312 81.3573 34.8512 81.4107 34.7552 81.432C34.6592 81.4533 34.5259 81.4053 34.3552 81.288C33.8752 81.1387 33.4432 80.856 33.0592 80.44C32.6859 80.024 32.2752 79.576 31.8272 79.096C31.7312 78.9787 31.6512 78.8987 31.5872 78.856C31.5232 78.8027 31.4539 78.776 31.3792 78.776C31.3045 78.776 31.1925 78.792 31.0432 78.824C30.9579 78.8347 30.8725 78.8133 30.7872 78.76C30.7125 78.7067 30.6325 78.6373 30.5472 78.552C30.5152 78.4987 30.4725 78.4667 30.4192 78.456C30.3765 78.4453 30.3392 78.472 30.3072 78.536C30.2859 78.6 30.2432 78.712 30.1792 78.872C30.1259 79.0213 30.0672 79.1707 30.0032 79.32C29.9499 79.4693 29.8965 79.5867 29.8432 79.672C29.8645 79.768 29.8379 79.976 29.7632 80.296C29.6885 80.6053 29.5925 80.9307 29.4752 81.272C29.4432 81.3573 29.3952 81.432 29.3312 81.496C29.2672 81.5707 29.2192 81.5867 29.1872 81.544C29.1445 81.4907 29.1072 81.464 29.0752 81.464C29.0539 81.464 29.0379 81.4853 29.0272 81.528ZM31.9552 76.904C32.2645 76.808 32.5685 76.664 32.8672 76.472C33.1765 76.2693 33.4645 76.0293 33.7312 75.752C33.9979 75.4747 34.2165 75.1813 34.3872 74.872C34.4725 74.808 34.5525 74.7067 34.6272 74.568C34.7019 74.4187 34.7659 74.328 34.8192 74.296C34.9152 74.1787 34.9792 74.088 35.0112 74.024C35.0539 73.96 35.0485 73.88 34.9952 73.784C34.9952 73.6987 35.0059 73.6187 35.0272 73.544C35.0592 73.4587 35.0859 73.3787 35.1072 73.304C35.1605 73.1547 35.1605 73.0213 35.1072 72.904C35.0645 72.7867 34.9099 72.6533 34.6432 72.504C34.5472 72.44 34.4459 72.3867 34.3392 72.344C34.2432 72.2907 34.1365 72.2427 34.0192 72.2C33.9125 72.1467 33.7899 72.088 33.6512 72.024C33.4805 72.024 33.3045 71.9867 33.1232 71.912C32.9525 71.8267 32.8192 71.7893 32.7232 71.8C32.6699 71.8107 32.6165 71.8747 32.5632 71.992C32.5205 72.0987 32.4725 72.2533 32.4192 72.456C32.3765 72.6267 32.3232 72.7813 32.2592 72.92C32.2059 73.048 32.1365 73.1333 32.0512 73.176C32.0405 73.2187 31.9925 73.368 31.9072 73.624C31.8219 73.88 31.7205 74.184 31.6032 74.536C31.4859 74.8773 31.3685 75.224 31.2512 75.576C31.1339 75.9173 31.0379 76.2107 30.9632 76.456C30.8885 76.7013 30.8512 76.8453 30.8512 76.888C30.8512 76.9093 30.8832 76.9467 30.9472 77C31.0219 77.0533 31.0859 77.0853 31.1392 77.096C31.1392 77.096 31.1499 77.0853 31.1712 77.064C31.1925 77.0427 31.2139 77.0373 31.2352 77.048L31.5872 77.224L31.9552 76.904ZM43.2839 80.904C43.2733 80.9467 43.1879 80.9467 43.0279 80.904C42.8679 80.8613 42.6919 80.792 42.4999 80.696C42.3186 80.6 42.1639 80.4827 42.0359 80.344C41.8333 80.2053 41.6199 80.0133 41.3959 79.768C41.1826 79.5227 40.9746 79.256 40.7719 78.968C40.5693 78.68 40.3933 78.4027 40.2439 78.136C40.1373 77.9547 40.0573 77.7893 40.0039 77.64C39.9506 77.48 39.8813 77.4 39.7959 77.4C39.7213 77.4107 39.6413 77.3413 39.5559 77.192C39.4706 77.032 39.3959 76.8507 39.3319 76.648C39.2679 76.4347 39.2199 76.264 39.1879 76.136C39.1986 76.0507 39.2306 75.9547 39.2839 75.848C39.3479 75.7307 39.4226 75.6773 39.5079 75.688C39.5079 75.656 39.5879 75.5547 39.7479 75.384C39.9079 75.2027 40.1106 74.984 40.3559 74.728C40.6013 74.4613 40.8626 74.1947 41.1399 73.928C41.4173 73.6507 41.6786 73.4053 41.9239 73.192C42.1693 72.968 42.3666 72.8027 42.5159 72.696C42.5799 72.6107 42.6279 72.5467 42.6599 72.504C42.7026 72.4613 42.7399 72.424 42.7719 72.392C42.7719 72.392 42.8093 72.376 42.8839 72.344C42.9693 72.3013 43.0493 72.2427 43.1239 72.168C43.2199 72.1147 43.2999 72.0507 43.3639 71.976C43.4386 71.8907 43.4866 71.8213 43.5079 71.768C43.5613 71.7467 43.6519 71.688 43.7799 71.592C43.9079 71.496 44.0413 71.4107 44.1799 71.336C44.3399 71.2507 44.4679 71.1707 44.5639 71.096C44.6706 71.0213 44.7239 70.984 44.7239 70.984C44.8199 70.984 44.9533 71.0107 45.1239 71.064C45.2946 71.1067 45.4333 71.2027 45.5399 71.352C45.6253 71.48 45.6413 71.6187 45.5879 71.768C45.5453 71.9173 45.4813 72.0187 45.3959 72.072C45.3106 72.264 45.1986 72.4027 45.0599 72.488C44.9213 72.5733 44.7773 72.648 44.6279 72.712C44.4893 72.776 44.3559 72.8773 44.2279 73.016C44.0253 73.2507 43.8066 73.4213 43.5719 73.528C43.3479 73.6347 43.1293 73.8053 42.9159 74.04C42.6813 74.2533 42.4786 74.472 42.3079 74.696C42.1373 74.92 41.9239 75.1333 41.6679 75.336C41.6679 75.336 41.6359 75.3467 41.5719 75.368C41.5186 75.3893 41.4173 75.4587 41.2679 75.576C41.1293 75.6827 40.9266 75.8747 40.6599 76.152L40.9799 76.84C41.2786 77.2453 41.5666 77.6347 41.8439 78.008C42.1213 78.3813 42.3879 78.696 42.6439 78.952C42.8999 79.208 43.1346 79.3627 43.3479 79.416C43.5079 79.4693 43.6413 79.592 43.7479 79.784C43.8333 79.816 43.8706 79.9227 43.8599 80.104C43.8493 80.2853 43.7959 80.4613 43.6999 80.632C43.6146 80.792 43.4759 80.8827 43.2839 80.904ZM36.9959 81.448C36.7293 81.4373 36.5213 81.3307 36.3719 81.128C36.2333 80.9253 36.1533 80.7493 36.1319 80.6C36.1853 80.5147 36.2173 80.408 36.2279 80.28C36.2493 80.1413 36.2813 80.056 36.3239 80.024C36.3346 79.9387 36.3666 79.8 36.4199 79.608C36.4733 79.416 36.5106 79.2133 36.5319 79C36.6173 78.84 36.6813 78.6693 36.7239 78.488C36.7773 78.296 36.8359 78.1307 36.8999 77.992C36.9426 77.896 36.9799 77.7893 37.0119 77.672C37.0439 77.5547 37.0813 77.464 37.1239 77.4C37.2306 77.0907 37.3159 76.8293 37.3799 76.616C37.4546 76.392 37.5026 76.168 37.5239 75.944C37.5666 75.8693 37.6039 75.7893 37.6359 75.704C37.6786 75.6187 37.7159 75.496 37.7479 75.336C37.7693 75.2933 37.8279 75.1707 37.9239 74.968C38.0306 74.7547 38.1106 74.5147 38.1639 74.248C38.3026 73.8853 38.4199 73.5973 38.5159 73.384C38.6119 73.1707 38.6973 72.9787 38.7719 72.808C38.8466 72.6373 38.9266 72.44 39.0119 72.216C39.0653 72.0773 39.1133 71.9387 39.1559 71.8C39.1986 71.6613 39.2199 71.592 39.2199 71.592C39.2199 71.5493 39.2519 71.4587 39.3159 71.32C39.3799 71.1813 39.4599 71.0267 39.5559 70.856C39.6413 70.7067 39.7213 70.5787 39.7959 70.472C39.8813 70.3653 39.9399 70.3067 39.9719 70.296C40.2386 70.1893 40.4679 70.184 40.6599 70.28C40.8519 70.376 40.9853 70.5093 41.0599 70.68C41.1453 70.8507 41.1453 70.9947 41.0599 71.112C41.0279 71.176 40.9639 71.32 40.8679 71.544C40.7719 71.7573 40.6653 72.0027 40.5479 72.28C40.4306 72.5467 40.3186 72.8027 40.2119 73.048C40.1159 73.2827 40.0413 73.4587 39.9879 73.576C39.9453 73.7147 39.8653 73.912 39.7479 74.168C39.6413 74.4133 39.5559 74.664 39.4919 74.92C39.3533 75.1227 39.2573 75.3413 39.2039 75.576C39.1506 75.8107 39.0973 75.976 39.0439 76.072C39.0119 76.1467 38.9799 76.2213 38.9479 76.296C38.9159 76.3707 38.8839 76.4293 38.8519 76.472C38.8519 76.472 38.8359 76.504 38.8039 76.568C38.7826 76.632 38.7453 76.7173 38.6919 76.824C38.6919 76.9093 38.6813 77.0107 38.6599 77.128C38.6493 77.2347 38.6173 77.3253 38.5639 77.4C38.5319 77.5067 38.4946 77.6027 38.4519 77.688C38.4199 77.7627 38.4039 77.8 38.4039 77.8C38.4039 77.832 38.3933 77.8907 38.3719 77.976C38.3506 78.0507 38.3293 78.1253 38.3079 78.2C38.2653 78.3067 38.2013 78.5093 38.1159 78.808C38.0306 79.096 37.9453 79.3947 37.8599 79.704C37.7319 80.184 37.6199 80.552 37.5239 80.808C37.4279 81.0533 37.3373 81.2187 37.2519 81.304C37.1666 81.4 37.0813 81.448 36.9959 81.448ZM47.7543 81.8C47.3276 81.8 46.9436 81.7733 46.6023 81.72C46.2716 81.6773 45.9676 81.5493 45.6903 81.336C45.3596 81.0907 45.125 80.7387 44.9863 80.28C44.8583 79.8107 44.8956 79.1973 45.0983 78.44C45.1516 78.1733 45.2103 77.9387 45.2743 77.736C45.349 77.5333 45.413 77.432 45.4663 77.432C45.477 77.3787 45.493 77.304 45.5143 77.208C45.5356 77.1013 45.557 76.9787 45.5783 76.84C45.6316 76.648 45.669 76.5093 45.6903 76.424C45.7116 76.328 45.7543 76.248 45.8183 76.184C45.8503 76.1627 45.8876 76.0933 45.9303 75.976C45.973 75.848 45.9996 75.7733 46.0103 75.752C46.0103 75.752 46.0156 75.7147 46.0263 75.64C46.037 75.5547 46.0636 75.4587 46.1063 75.352C46.2663 75.0853 46.3463 74.9093 46.3463 74.824C46.3676 74.7813 46.4103 74.7173 46.4743 74.632C46.549 74.5467 46.6076 74.4347 46.6503 74.296C46.9703 73.7307 47.2316 73.2667 47.4343 72.904C47.637 72.5307 47.7596 72.2427 47.8023 72.04C47.8556 71.9227 47.9036 71.784 47.9463 71.624C47.9996 71.4533 48.0636 71.3253 48.1383 71.24C48.117 71.1867 48.1756 71.128 48.3143 71.064C48.4636 71 48.6556 70.9307 48.8903 70.856C49.125 70.7813 49.3756 70.7173 49.6423 70.664C49.909 70.6107 50.1543 70.5787 50.3783 70.568C50.4423 70.5253 50.581 70.4933 50.7943 70.472C51.0183 70.4507 51.2743 70.44 51.5623 70.44C51.8503 70.44 52.117 70.4507 52.3623 70.472C52.597 70.472 52.7836 70.504 52.9223 70.568C53.061 70.632 53.1996 70.696 53.3383 70.76C53.3916 70.8133 53.4663 70.888 53.5623 70.984C53.6583 71.08 53.717 71.1813 53.7383 71.288C53.7703 71.3947 53.701 71.4907 53.5303 71.576C53.4983 71.608 53.3223 71.6347 53.0023 71.656C52.6823 71.6773 52.3463 71.688 51.9943 71.688C51.5996 71.688 51.2583 71.72 50.9703 71.784C50.6823 71.848 50.4796 71.88 50.3623 71.88C50.213 71.9227 50.037 71.9493 49.8343 71.96C49.6316 71.9707 49.5303 71.976 49.5303 71.976C49.509 71.976 49.4556 72.04 49.3703 72.168C49.285 72.2853 49.189 72.4293 49.0823 72.6C48.9863 72.76 48.8956 72.9093 48.8103 73.048C48.7356 73.1867 48.6983 73.272 48.6983 73.304C48.6983 73.4107 48.6556 73.528 48.5703 73.656C48.485 73.784 48.3836 73.9333 48.2663 74.104C48.1596 74.2427 48.0903 74.392 48.0583 74.552C48.0263 74.7013 48.0583 74.7973 48.1543 74.84C48.325 74.808 48.5596 74.776 48.8583 74.744C49.1676 74.712 49.4716 74.6853 49.7703 74.664C50.069 74.632 50.2983 74.616 50.4583 74.616C50.6396 74.5627 50.789 74.552 50.9063 74.584C51.0236 74.616 51.109 74.648 51.1623 74.68C51.2903 74.7013 51.365 74.7653 51.3863 74.872C51.4183 74.9787 51.4183 75.0853 51.3863 75.192C51.3543 75.2987 51.301 75.368 51.2263 75.4C51.1623 75.464 51.0023 75.5387 50.7463 75.624C50.4903 75.7093 50.1863 75.7947 49.8343 75.88C49.493 75.9653 49.1463 76.0453 48.7943 76.12C48.453 76.184 48.1543 76.2373 47.8983 76.28C47.653 76.3227 47.509 76.3387 47.4663 76.328C47.4023 76.1787 47.3276 76.184 47.2423 76.344C47.1676 76.4933 47.077 76.8027 46.9703 77.272C46.853 77.5387 46.7623 77.7413 46.6983 77.88C46.645 78.008 46.6023 78.152 46.5703 78.312C46.5383 78.4613 46.4903 78.7013 46.4263 79.032C46.3516 79.32 46.357 79.5813 46.4423 79.816C46.5383 80.04 46.757 80.232 47.0983 80.392C47.3116 80.4347 47.557 80.4507 47.8343 80.44C48.1116 80.4293 48.4796 80.3653 48.9383 80.248C49.1303 80.1307 49.3223 80.024 49.5143 79.928C49.7063 79.8213 49.8396 79.7467 49.9143 79.704C49.9676 79.704 50.0476 79.6827 50.1543 79.64C50.2716 79.5867 50.3516 79.56 50.3943 79.56C50.4796 79.4427 50.5863 79.384 50.7143 79.384C50.7356 79.384 50.7943 79.432 50.8903 79.528C50.997 79.624 51.0983 79.7467 51.1943 79.896C51.2903 80.0453 51.3383 80.2 51.3383 80.36C51.3383 80.4667 51.157 80.6053 50.7943 80.776C50.4423 80.9467 49.9996 81.1387 49.4663 81.352C49.1996 81.4693 48.981 81.56 48.8103 81.624C48.6503 81.688 48.4956 81.7307 48.3463 81.752C48.197 81.784 47.9996 81.8 47.7543 81.8ZM55.0606 81.848C54.8686 81.8587 54.7086 81.768 54.5806 81.576C54.4526 81.384 54.3939 81.224 54.4046 81.096C54.4152 80.9253 54.4632 80.68 54.5486 80.36C54.6339 80.04 54.7299 79.7147 54.8366 79.384C54.9432 79.0533 55.0392 78.792 55.1246 78.6C55.1672 78.4293 55.2046 78.28 55.2366 78.152C55.2792 78.0133 55.3059 77.9227 55.3166 77.88C55.3486 77.8373 55.3966 77.7253 55.4606 77.544C55.5352 77.3627 55.5939 77.1867 55.6366 77.016C55.6579 76.9307 55.7006 76.7707 55.7646 76.536C55.8392 76.2907 55.9246 76.008 56.0206 75.688C56.1272 75.368 56.2286 75.0533 56.3246 74.744C56.4312 74.4347 56.5219 74.1627 56.5966 73.928C56.6712 73.6933 56.7192 73.5387 56.7406 73.464C56.8259 73.336 56.8899 73.2133 56.9326 73.096C56.9752 72.9787 57.0019 72.8987 57.0126 72.856C57.0766 72.8133 57.1139 72.76 57.1246 72.696C57.1352 72.6213 57.1406 72.5627 57.1406 72.52C57.1406 72.4667 57.1566 72.424 57.1886 72.392C57.2312 72.36 57.2526 72.3227 57.2526 72.28C57.2952 72.248 57.3219 72.2427 57.3326 72.264C57.3432 72.2853 57.3752 72.2693 57.4286 72.216L57.5086 71.672L58.9326 71.656C58.9112 71.784 58.8792 71.944 58.8366 72.136C58.7939 72.3173 58.6926 72.5627 58.5326 72.872C58.4792 73.0853 58.4152 73.2773 58.3406 73.448C58.2766 73.6187 58.2499 73.7307 58.2606 73.784C58.2392 73.8053 58.1912 73.912 58.1166 74.104C58.0526 74.296 57.9726 74.5307 57.8766 74.808C57.7912 75.0853 57.7006 75.3627 57.6046 75.64C57.5192 75.9173 57.4392 76.1627 57.3646 76.376C57.3006 76.5787 57.2579 76.7067 57.2366 76.76C57.1512 76.9307 57.0552 77.1813 56.9486 77.512C56.8419 77.8427 56.6819 78.2907 56.4686 78.856C56.3832 79.0267 56.2766 79.2827 56.1486 79.624C56.0312 79.9653 55.9352 80.2747 55.8606 80.552C55.7432 80.968 55.6366 81.2667 55.5406 81.448C55.4552 81.6293 55.3752 81.736 55.3006 81.768C55.2259 81.8107 55.1459 81.8373 55.0606 81.848ZM55.2046 72.44C54.7672 72.4827 54.4686 72.4293 54.3086 72.28C54.1592 72.1307 54.1059 71.9707 54.1486 71.8C54.1806 71.672 54.2552 71.5653 54.3726 71.48C54.5006 71.384 54.7299 71.304 55.0606 71.24C55.1779 71.2187 55.3272 71.192 55.5086 71.16C55.7006 71.128 55.8819 71.096 56.0526 71.064C56.4046 71.0213 56.6926 70.984 56.9166 70.952C57.1512 70.92 57.3912 70.8933 57.6366 70.872C57.8819 70.8507 58.1912 70.8293 58.5646 70.808C58.8739 70.7867 59.1352 70.7707 59.3486 70.76C59.5726 70.7387 59.6846 70.728 59.6846 70.728C59.7166 70.728 59.8286 70.7387 60.0206 70.76C60.2126 70.7813 60.4206 70.808 60.6446 70.84C60.8686 70.872 61.0339 70.9093 61.1406 70.952C61.3859 71.0053 61.5832 71.1013 61.7326 71.24C61.8819 71.3787 61.9779 71.5387 62.0206 71.72C62.0526 71.848 62.0526 71.9493 62.0206 72.024C61.9886 72.088 61.9299 72.1413 61.8446 72.184C61.5992 72.2587 61.3966 72.3227 61.2366 72.376C61.0872 72.4187 60.9379 72.4133 60.7886 72.36C60.7352 72.3067 60.6712 72.2587 60.5966 72.216C60.5326 72.1733 60.4152 72.1413 60.2446 72.12C60.0846 72.088 59.8286 72.0613 59.4766 72.04C59.1779 72.072 58.9166 72.088 58.6926 72.088C58.4686 72.088 58.3566 72.1147 58.3566 72.168L57.4126 72.216L56.6286 72.296C56.5219 72.3067 56.3726 72.3227 56.1806 72.344C55.9886 72.3547 55.8019 72.3707 55.6206 72.392C55.4392 72.4027 55.3006 72.4187 55.2046 72.44Z" fill="black"/>
</svg>
