<svg width="102" height="23" viewBox="0 0 102 23" fill="none" xmlns="http://www.w3.org/2000/svg">
<path d="M19.3662 22.44C19.2862 22.52 19.0962 22.54 18.7962 22.5C18.4962 22.48 18.2562 22.34 18.0762 22.08C17.9362 21.8 17.8562 21.48 17.8362 21.12C17.8162 20.76 17.8162 20.26 17.8362 19.62C17.9562 18.92 18.1562 18 18.4362 16.86C18.7162 15.72 19.0262 14.45 19.3662 13.05C19.7262 11.63 20.0862 10.18 20.4462 8.7C20.6262 8 20.7662 7.41 20.8662 6.93C20.9862 6.45 21.0662 6.09 21.1062 5.85C21.1662 5.59 21.1962 5.46 21.1962 5.46C21.1762 5.5 21.1462 5.54 21.1062 5.58C21.0862 5.62 21.0662 5.66 21.0462 5.7C21.0262 5.74 21.0062 5.78 20.9862 5.82C20.9862 5.82 20.9462 5.89 20.8662 6.03C20.8062 6.17 20.6662 6.41 20.4462 6.75C20.2862 6.99 20.1362 7.27 19.9962 7.59C19.8562 7.91 19.6162 8.33 19.2762 8.85C18.9562 9.45 18.5962 10.14 18.1962 10.92C17.7962 11.7 17.4562 12.32 17.1762 12.78C17.0362 13 16.9062 13.19 16.7862 13.35C16.6862 13.51 16.6162 13.64 16.5762 13.74C16.4962 13.96 16.3662 14.23 16.1862 14.55C16.0062 14.87 15.7962 15.18 15.5562 15.48C15.4362 15.66 15.2762 15.87 15.0762 16.11C14.8962 16.35 14.7362 16.57 14.5962 16.77C14.4562 16.95 14.3862 17.04 14.3862 17.04C14.3462 17.16 14.2162 17.35 13.9962 17.61C13.7762 17.87 13.5062 18.16 13.1862 18.48C12.8862 18.78 12.5762 19.06 12.2562 19.32C11.5562 19.88 10.9762 20.23 10.5162 20.37C10.0762 20.51 9.56621 20.34 8.98621 19.86C8.72621 19.54 8.51621 19.22 8.35621 18.9C8.19621 18.56 8.11621 18.1 8.11621 17.52C8.11621 16.94 8.21621 16.13 8.41621 15.09C8.55621 14.43 8.70621 13.73 8.86621 12.99C9.04621 12.25 9.22621 11.54 9.40621 10.86C9.58621 10.16 9.74621 9.56 9.88621 9.06C10.0462 8.54 10.1562 8.18 10.2162 7.98C10.2762 7.48 10.2862 7.22 10.2462 7.2C10.2062 7.16 10.1062 7.27 9.94621 7.53C9.80621 7.75 9.54621 8.21 9.16621 8.91C8.78621 9.61 8.35621 10.43 7.87621 11.37C7.41621 12.31 6.96621 13.25 6.52621 14.19C5.70621 15.71 5.01621 16.98 4.45621 18C3.89621 19.02 3.43621 19.84 3.07621 20.46C2.71621 21.06 2.43621 21.51 2.23621 21.81C2.05621 22.13 1.91621 22.35 1.81621 22.47C1.73621 22.61 1.67621 22.7 1.63621 22.74C1.33621 22.72 1.07621 22.58 0.856211 22.32C0.636211 22.06 0.456211 21.75 0.316211 21.39C0.276211 21.19 0.246211 20.98 0.226211 20.76C0.206211 20.54 0.226211 20.3 0.286211 20.04C0.366211 19.76 0.486211 19.46 0.646211 19.14C0.906211 18.62 1.15621 18.18 1.39621 17.82C1.63621 17.46 1.78621 17.24 1.84621 17.16C1.94621 17.02 2.02621 16.87 2.08621 16.71C2.14621 16.55 2.18621 16.4 2.20621 16.26C2.30621 16.14 2.45621 15.89 2.65621 15.51C2.87621 15.13 3.09621 14.72 3.31621 14.28C3.47621 14.02 3.69621 13.66 3.97621 13.2C4.25621 12.72 4.55621 12.21 4.87621 11.67C5.19621 11.11 5.47621 10.6 5.71621 10.14C6.59621 8.56 7.29621 7.3 7.81621 6.36C8.33621 5.4 8.70621 4.79 8.92621 4.53C9.06621 4.43 9.18621 4.24 9.28621 3.96C9.40621 3.66 9.50621 3.44 9.58621 3.3C9.86621 2.74 10.1462 2.28 10.4262 1.92C10.7262 1.54 10.9862 1.35 11.2062 1.35C11.3662 1.35 11.5662 1.41 11.8062 1.53C12.0662 1.65 12.3162 1.82 12.5562 2.04C12.7762 2.3 12.9762 2.65 13.1562 3.09C13.3562 3.51 13.3962 4.07 13.2762 4.77C13.2562 5.09 13.2062 5.48 13.1262 5.94C13.0462 6.38 12.9662 6.82 12.8862 7.26C12.8062 7.7 12.7262 8.07 12.6462 8.37C12.4862 9.27 12.3062 10.13 12.1062 10.95C11.9262 11.75 11.7562 12.49 11.5962 13.17C11.4362 13.85 11.3062 14.45 11.2062 14.97C11.1062 15.47 11.0362 15.88 10.9962 16.2C10.9762 16.52 11.0162 16.73 11.1162 16.83C11.1762 16.85 11.2562 16.83 11.3562 16.77C11.4762 16.69 11.5662 16.61 11.6262 16.53C11.7462 16.37 11.8562 16.21 11.9562 16.05C12.0562 15.89 12.1862 15.69 12.3462 15.45C12.6662 15.01 12.9962 14.53 13.3362 14.01C13.6962 13.47 14.1162 12.81 14.5962 12.03C15.0962 11.23 15.6862 10.25 16.3662 9.09C17.0462 7.91 17.8762 6.45 18.8562 4.71C19.3162 4.01 19.7562 3.31 20.1762 2.61C20.5962 1.91 20.9762 1.37 21.3162 0.989998C21.6162 0.669999 21.9862 0.559999 22.4262 0.659999C22.8862 0.759999 23.3062 1.01 23.6862 1.41C24.0662 1.81 24.2762 2.3 24.3162 2.88C24.3362 3.16 24.2762 3.66 24.1362 4.38C24.0162 5.08 23.8462 5.87 23.6262 6.75C23.4062 7.63 23.1562 8.49 22.8762 9.33C22.8162 9.67 22.7162 10.12 22.5762 10.68C22.4362 11.24 22.2862 11.81 22.1262 12.39C21.9662 12.97 21.8162 13.49 21.6762 13.95C21.5362 14.63 21.4162 15.17 21.3162 15.57C21.2362 15.97 21.1962 16.43 21.1962 16.95C21.0162 17.27 20.8962 17.73 20.8362 18.33C20.7762 18.93 20.7462 19.55 20.7462 20.19C20.6662 20.97 20.4962 21.52 20.2362 21.84C19.9962 22.16 19.8362 22.31 19.7562 22.29C19.5962 22.23 19.4662 22.28 19.3662 22.44ZM22.8017 21.99C22.4417 21.79 22.2417 21.57 22.2017 21.33C22.1817 21.09 22.3217 20.67 22.6217 20.07C22.9217 19.47 23.3917 18.54 24.0317 17.28C24.5117 16.38 24.8317 15.68 24.9917 15.18C25.1717 14.66 25.2717 14.29 25.2917 14.07C25.3117 13.85 25.3217 13.71 25.3217 13.65C25.2817 13.47 25.3017 13.33 25.3817 13.23C25.4617 13.11 25.5917 13.01 25.7717 12.93C25.8717 12.83 26.1017 12.65 26.4617 12.39C26.8217 12.13 27.1017 11.82 27.3017 11.46C27.4817 11.04 27.6817 10.61 27.9017 10.17C28.1417 9.73 28.4517 9.18 28.8317 8.52C29.2117 7.84 29.7217 6.96 30.3617 5.88C30.7617 5.18 31.2317 4.39 31.7717 3.51C32.3317 2.63 32.8817 1.83 33.4217 1.11C33.6417 0.829999 33.8717 0.609998 34.1117 0.449998C34.3517 0.289999 34.5617 0.209999 34.7417 0.209999C35.1817 0.209999 35.6217 0.329999 36.0617 0.569998C36.5017 0.789999 36.8917 1.07 37.2317 1.41C37.5717 1.75 37.8017 2.07 37.9217 2.37C38.0217 2.53 38.0617 2.87 38.0417 3.39C38.0217 3.91 37.9817 4.54 37.9217 5.28C37.8617 6.02 37.7917 6.81 37.7117 7.65C37.6517 8.47 37.5617 9.44 37.4417 10.56C37.3217 11.68 37.2017 12.85 37.0817 14.07C36.9817 15.29 36.9017 16.47 36.8417 17.61C36.7817 18.73 36.7817 19.71 36.8417 20.55C36.8617 20.73 36.8617 20.9 36.8417 21.06C36.8217 21.22 36.8117 21.35 36.8117 21.45C36.6917 21.57 36.4317 21.62 36.0317 21.6C35.6317 21.6 35.2417 21.54 34.8617 21.42C34.4817 21.3 34.2717 21.15 34.2317 20.97C34.1717 20.91 34.1317 20.86 34.1117 20.82C34.0917 20.78 34.0917 20.59 34.1117 20.25C34.1317 19.89 34.1617 19.24 34.2017 18.3L34.3517 13.71L33.9617 13.74C33.7817 13.74 33.4517 13.76 32.9717 13.8C32.5117 13.84 32.0017 13.9 31.4417 13.98C30.9017 14.04 30.4017 14.11 29.9417 14.19C29.4817 14.25 29.1617 14.31 28.9817 14.37C28.8017 14.37 28.5817 14.49 28.3217 14.73C28.0817 14.97 27.8517 15.28 27.6317 15.66C27.5517 15.94 27.4017 16.24 27.1817 16.56C26.9817 16.86 26.8817 17.06 26.8817 17.16C26.7417 17.26 26.6217 17.38 26.5217 17.52C26.4417 17.66 26.4017 17.73 26.4017 17.73C26.4017 17.85 26.3117 18.15 26.1317 18.63C25.9517 19.09 25.7317 19.61 25.4717 20.19C25.2117 20.75 24.9417 21.24 24.6617 21.66L23.8517 22.8L22.8017 21.99ZM29.9717 11.67C29.9717 11.67 30.0817 11.65 30.3017 11.61C30.5217 11.57 30.7817 11.53 31.0817 11.49C31.4017 11.43 31.6817 11.4 31.9217 11.4C32.3817 11.28 32.7617 11.19 33.0617 11.13C33.3817 11.07 33.6417 11.04 33.8417 11.04C34.0417 11.02 34.2017 11.04 34.3217 11.1C34.4017 11.2 34.4717 11.26 34.5317 11.28C34.6117 11.3 34.6517 11.31 34.6517 11.31C34.6717 11.27 34.7117 11.06 34.7717 10.68C34.8317 10.3 34.9017 9.83 34.9817 9.27C35.0617 8.71 35.1417 8.13 35.2217 7.53C35.3017 6.91 35.3717 6.34 35.4317 5.82C35.4917 5.28 35.5317 4.86 35.5517 4.56C35.5717 4.18 35.5617 3.84 35.5217 3.54C35.4817 3.22 35.4617 3.06 35.4617 3.06C35.3417 3.06 35.1117 3.28 34.7717 3.72C34.4517 4.14 34.0717 4.71 33.6317 5.43C33.2117 6.13 32.7917 6.89 32.3717 7.71C32.1717 8.09 31.9817 8.39 31.8017 8.61C31.6417 8.83 31.5117 8.94 31.4117 8.94C31.3717 8.98 31.2617 9.14 31.0817 9.42C30.9217 9.68 30.7417 9.98 30.5417 10.32C30.3617 10.64 30.2017 10.94 30.0617 11.22C29.9417 11.48 29.9117 11.63 29.9717 11.67ZM40.051 21.99C40.051 22.09 40.001 22.09 39.901 21.99C39.801 21.91 39.641 21.79 39.421 21.63C39.241 21.45 39.031 21.22 38.791 20.94C38.551 20.66 38.441 20.33 38.461 19.95C38.561 19.49 38.741 18.82 39.001 17.94C39.261 17.04 39.571 16.1 39.931 15.12C39.971 14.74 40.031 14.42 40.111 14.16C40.211 13.9 40.261 13.77 40.261 13.77C40.281 13.73 40.321 13.67 40.381 13.59C40.441 13.49 40.531 13.42 40.651 13.38C40.751 13.3 40.791 13.15 40.771 12.93C40.751 12.69 40.731 12.54 40.711 12.48C40.791 12 40.971 11.35 41.251 10.53C41.531 9.69 41.861 8.81 42.241 7.89C42.621 6.95 42.981 6.08 43.321 5.28C43.421 5.1 43.511 4.93 43.591 4.77C43.671 4.59 43.711 4.5 43.711 4.5C43.651 4.42 43.581 4.34 43.501 4.26C43.421 4.18 43.331 4.07 43.231 3.93C43.071 3.71 42.951 3.47 42.871 3.21C42.811 2.93 42.881 2.68 43.081 2.46C43.141 2.36 43.251 2.23 43.411 2.07C43.591 1.91 43.781 1.76 43.981 1.62C44.441 1.36 44.891 1.16 45.331 1.02C45.791 0.859999 46.201 0.829999 46.561 0.929999C47.201 0.949999 47.681 0.999999 48.001 1.08C48.341 1.16 48.611 1.27 48.811 1.41C48.931 1.49 49.031 1.55 49.111 1.59C49.211 1.63 49.341 1.65 49.501 1.65C49.841 1.69 50.241 1.82 50.701 2.04C51.161 2.24 51.571 2.45 51.931 2.67C52.291 2.89 52.501 3.04 52.561 3.12C52.961 3.46 53.311 3.92 53.611 4.5C53.911 5.08 54.091 5.75 54.151 6.51C54.151 6.97 54.131 7.38 54.091 7.74C54.051 8.08 53.961 8.42 53.821 8.76C53.681 9.08 53.451 9.46 53.131 9.9C52.531 10.84 51.781 11.77 50.881 12.69C50.001 13.61 48.881 14.45 47.521 15.21C47.481 15.29 47.431 15.38 47.371 15.48C47.331 15.56 47.311 15.6 47.311 15.6C47.311 15.76 47.411 15.97 47.611 16.23C47.831 16.49 48.101 16.77 48.421 17.07C48.741 17.35 49.071 17.63 49.411 17.91C49.771 18.19 50.091 18.44 50.371 18.66C50.671 18.86 50.891 19 51.031 19.08C51.291 19 51.501 18.97 51.661 18.99C51.821 18.99 51.941 19.06 52.021 19.2C52.101 19.34 52.151 19.58 52.171 19.92C52.151 20.18 52.081 20.43 51.961 20.67C51.841 20.91 51.751 21.05 51.691 21.09C51.531 21.21 51.381 21.35 51.241 21.51C51.121 21.67 50.971 21.77 50.791 21.81C50.611 21.85 50.361 21.76 50.041 21.54C49.141 21.26 48.331 20.73 47.611 19.95C46.911 19.17 46.141 18.33 45.301 17.43C45.121 17.21 44.971 17.06 44.851 16.98C44.731 16.88 44.601 16.83 44.461 16.83C44.321 16.83 44.111 16.86 43.831 16.92C43.671 16.94 43.511 16.9 43.351 16.8C43.211 16.7 43.061 16.57 42.901 16.41C42.841 16.31 42.761 16.25 42.661 16.23C42.581 16.21 42.511 16.26 42.451 16.38C42.411 16.5 42.331 16.71 42.211 17.01C42.111 17.29 42.001 17.57 41.881 17.85C41.781 18.13 41.681 18.35 41.581 18.51C41.621 18.69 41.571 19.08 41.431 19.68C41.291 20.26 41.111 20.87 40.891 21.51C40.831 21.67 40.741 21.81 40.621 21.93C40.501 22.07 40.411 22.1 40.351 22.02C40.271 21.92 40.201 21.87 40.141 21.87C40.101 21.87 40.071 21.91 40.051 21.99ZM45.541 13.32C46.121 13.14 46.691 12.87 47.251 12.51C47.831 12.13 48.371 11.68 48.871 11.16C49.371 10.64 49.781 10.09 50.101 9.51C50.261 9.39 50.411 9.2 50.551 8.94C50.691 8.66 50.811 8.49 50.911 8.43C51.091 8.21 51.211 8.04 51.271 7.92C51.351 7.8 51.341 7.65 51.241 7.47C51.241 7.31 51.261 7.16 51.301 7.02C51.361 6.86 51.411 6.71 51.451 6.57C51.551 6.29 51.551 6.04 51.451 5.82C51.371 5.6 51.081 5.35 50.581 5.07C50.401 4.95 50.211 4.85 50.011 4.77C49.831 4.67 49.631 4.58 49.411 4.5C49.211 4.4 48.981 4.29 48.721 4.17C48.401 4.17 48.071 4.1 47.731 3.96C47.411 3.8 47.161 3.73 46.981 3.75C46.881 3.77 46.781 3.89 46.681 4.11C46.601 4.31 46.511 4.6 46.411 4.98C46.331 5.3 46.231 5.59 46.111 5.85C46.011 6.09 45.881 6.25 45.721 6.33C45.701 6.41 45.611 6.69 45.451 7.17C45.291 7.65 45.101 8.22 44.881 8.88C44.661 9.52 44.441 10.17 44.221 10.83C44.001 11.47 43.821 12.02 43.681 12.48C43.541 12.94 43.471 13.21 43.471 13.29C43.471 13.33 43.531 13.4 43.651 13.5C43.791 13.6 43.911 13.66 44.011 13.68C44.011 13.68 44.031 13.66 44.071 13.62C44.111 13.58 44.151 13.57 44.191 13.59L44.851 13.92L45.541 13.32ZM66.7824 20.82C66.7624 20.9 66.6024 20.9 66.3024 20.82C66.0024 20.74 65.6724 20.61 65.3124 20.43C64.9724 20.25 64.6824 20.03 64.4424 19.77C64.0624 19.51 63.6624 19.15 63.2424 18.69C62.8424 18.23 62.4524 17.73 62.0724 17.19C61.6924 16.65 61.3624 16.13 61.0824 15.63C60.8824 15.29 60.7324 14.98 60.6324 14.7C60.5324 14.4 60.4024 14.25 60.2424 14.25C60.1024 14.27 59.9524 14.14 59.7924 13.86C59.6324 13.56 59.4924 13.22 59.3724 12.84C59.2524 12.44 59.1624 12.12 59.1024 11.88C59.1224 11.72 59.1824 11.54 59.2824 11.34C59.4024 11.12 59.5424 11.02 59.7024 11.04C59.7024 10.98 59.8524 10.79 60.1524 10.47C60.4524 10.13 60.8324 9.72 61.2924 9.24C61.7524 8.74 62.2424 8.24 62.7624 7.74C63.2824 7.22 63.7724 6.76 64.2324 6.36C64.6924 5.94 65.0624 5.63 65.3424 5.43C65.4624 5.27 65.5524 5.15 65.6124 5.07C65.6924 4.99 65.7624 4.92 65.8224 4.86C65.8224 4.86 65.8924 4.83 66.0324 4.77C66.1924 4.69 66.3424 4.58 66.4824 4.44C66.6624 4.34 66.8124 4.22 66.9324 4.08C67.0724 3.92 67.1624 3.79 67.2024 3.69C67.3024 3.65 67.4724 3.54 67.7124 3.36C67.9524 3.18 68.2024 3.02 68.4624 2.88C68.7624 2.72 69.0024 2.57 69.1824 2.43C69.3824 2.29 69.4824 2.22 69.4824 2.22C69.6624 2.22 69.9124 2.27 70.2324 2.37C70.5524 2.45 70.8124 2.63 71.0124 2.91C71.1724 3.15 71.2024 3.41 71.1024 3.69C71.0224 3.97 70.9024 4.16 70.7424 4.26C70.5824 4.62 70.3724 4.88 70.1124 5.04C69.8524 5.2 69.5824 5.34 69.3024 5.46C69.0424 5.58 68.7924 5.77 68.5524 6.03C68.1724 6.47 67.7624 6.79 67.3224 6.99C66.9024 7.19 66.4924 7.51 66.0924 7.95C65.6524 8.35 65.2724 8.76 64.9524 9.18C64.6324 9.6 64.2324 10 63.7524 10.38C63.7524 10.38 63.6924 10.4 63.5724 10.44C63.4724 10.48 63.2824 10.61 63.0024 10.83C62.7424 11.03 62.3624 11.39 61.8624 11.91L62.4624 13.2C63.0224 13.96 63.5624 14.69 64.0824 15.39C64.6024 16.09 65.1024 16.68 65.5824 17.16C66.0624 17.64 66.5024 17.93 66.9024 18.03C67.2024 18.13 67.4524 18.36 67.6524 18.72C67.8124 18.78 67.8824 18.98 67.8624 19.32C67.8424 19.66 67.7424 19.99 67.5624 20.31C67.4024 20.61 67.1424 20.78 66.7824 20.82ZM54.9924 21.84C54.4924 21.82 54.1024 21.62 53.8224 21.24C53.5624 20.86 53.4124 20.53 53.3724 20.25C53.4724 20.09 53.5324 19.89 53.5524 19.65C53.5924 19.39 53.6524 19.23 53.7324 19.17C53.7524 19.01 53.8124 18.75 53.9124 18.39C54.0124 18.03 54.0824 17.65 54.1224 17.25C54.2824 16.95 54.4024 16.63 54.4824 16.29C54.5824 15.93 54.6924 15.62 54.8124 15.36C54.8924 15.18 54.9624 14.98 55.0224 14.76C55.0824 14.54 55.1524 14.37 55.2324 14.25C55.4324 13.67 55.5924 13.18 55.7124 12.78C55.8524 12.36 55.9424 11.94 55.9824 11.52C56.0624 11.38 56.1324 11.23 56.1924 11.07C56.2724 10.91 56.3424 10.68 56.4024 10.38C56.4424 10.3 56.5524 10.07 56.7324 9.69C56.9324 9.29 57.0824 8.84 57.1824 8.34C57.4424 7.66 57.6624 7.12 57.8424 6.72C58.0224 6.32 58.1824 5.96 58.3224 5.64C58.4624 5.32 58.6124 4.95 58.7724 4.53C58.8724 4.27 58.9624 4.01 59.0424 3.75C59.1224 3.49 59.1624 3.36 59.1624 3.36C59.1624 3.28 59.2224 3.11 59.3424 2.85C59.4624 2.59 59.6124 2.3 59.7924 1.98C59.9524 1.7 60.1024 1.46 60.2424 1.26C60.4024 1.06 60.5124 0.949999 60.5724 0.929999C61.0724 0.729999 61.5024 0.719999 61.8624 0.899999C62.2224 1.08 62.4724 1.33 62.6124 1.65C62.7724 1.97 62.7724 2.24 62.6124 2.46C62.5524 2.58 62.4324 2.85 62.2524 3.27C62.0724 3.67 61.8724 4.13 61.6524 4.65C61.4324 5.15 61.2224 5.63 61.0224 6.09C60.8424 6.53 60.7024 6.86 60.6024 7.08C60.5224 7.34 60.3724 7.71 60.1524 8.19C59.9524 8.65 59.7924 9.12 59.6724 9.6C59.4124 9.98 59.2324 10.39 59.1324 10.83C59.0324 11.27 58.9324 11.58 58.8324 11.76C58.7724 11.9 58.7124 12.04 58.6524 12.18C58.5924 12.32 58.5324 12.43 58.4724 12.51C58.4724 12.51 58.4424 12.57 58.3824 12.69C58.3424 12.81 58.2724 12.97 58.1724 13.17C58.1724 13.33 58.1524 13.52 58.1124 13.74C58.0924 13.94 58.0324 14.11 57.9324 14.25C57.8724 14.45 57.8024 14.63 57.7224 14.79C57.6624 14.93 57.6324 15 57.6324 15C57.6324 15.06 57.6124 15.17 57.5724 15.33C57.5324 15.47 57.4924 15.61 57.4524 15.75C57.3724 15.95 57.2524 16.33 57.0924 16.89C56.9324 17.43 56.7724 17.99 56.6124 18.57C56.3724 19.47 56.1624 20.16 55.9824 20.64C55.8024 21.1 55.6324 21.41 55.4724 21.57C55.3124 21.75 55.1524 21.84 54.9924 21.84ZM75.1643 22.5C74.3643 22.5 73.6443 22.45 73.0043 22.35C72.3843 22.27 71.8143 22.03 71.2943 21.63C70.6743 21.17 70.2343 20.51 69.9743 19.65C69.7343 18.77 69.8043 17.62 70.1843 16.2C70.2843 15.7 70.3943 15.26 70.5143 14.88C70.6543 14.5 70.7743 14.31 70.8743 14.31C70.8943 14.21 70.9243 14.07 70.9643 13.89C71.0043 13.69 71.0443 13.46 71.0843 13.2C71.1843 12.84 71.2543 12.58 71.2943 12.42C71.3343 12.24 71.4143 12.09 71.5343 11.97C71.5943 11.93 71.6643 11.8 71.7443 11.58C71.8243 11.34 71.8743 11.2 71.8943 11.16C71.8943 11.16 71.9043 11.09 71.9243 10.95C71.9443 10.79 71.9943 10.61 72.0743 10.41C72.3743 9.91 72.5243 9.58 72.5243 9.42C72.5643 9.34 72.6443 9.22 72.7643 9.06C72.9043 8.9 73.0143 8.69 73.0943 8.43C73.6943 7.37 74.1843 6.5 74.5643 5.82C74.9443 5.12 75.1743 4.58 75.2543 4.2C75.3543 3.98 75.4443 3.72 75.5243 3.42C75.6243 3.1 75.7443 2.86 75.8843 2.7C75.8443 2.6 75.9543 2.49 76.2143 2.37C76.4943 2.25 76.8543 2.12 77.2943 1.98C77.7343 1.84 78.2043 1.72 78.7043 1.62C79.2043 1.52 79.6643 1.46 80.0843 1.44C80.2043 1.36 80.4643 1.3 80.8643 1.26C81.2843 1.22 81.7643 1.2 82.3043 1.2C82.8443 1.2 83.3443 1.22 83.8043 1.26C84.2443 1.26 84.5943 1.32 84.8543 1.44C85.1143 1.56 85.3743 1.68 85.6343 1.8C85.7343 1.9 85.8743 2.04 86.0543 2.22C86.2343 2.4 86.3443 2.59 86.3843 2.79C86.4443 2.99 86.3143 3.17 85.9943 3.33C85.9343 3.39 85.6043 3.44 85.0043 3.48C84.4043 3.52 83.7743 3.54 83.1143 3.54C82.3743 3.54 81.7343 3.6 81.1943 3.72C80.6543 3.84 80.2743 3.9 80.0543 3.9C79.7743 3.98 79.4443 4.03 79.0643 4.05C78.6843 4.07 78.4943 4.08 78.4943 4.08C78.4543 4.08 78.3543 4.2 78.1943 4.44C78.0343 4.66 77.8543 4.93 77.6543 5.25C77.4743 5.55 77.3043 5.83 77.1443 6.09C77.0043 6.35 76.9343 6.51 76.9343 6.57C76.9343 6.77 76.8543 6.99 76.6943 7.23C76.5343 7.47 76.3443 7.75 76.1243 8.07C75.9243 8.33 75.7943 8.61 75.7343 8.91C75.6743 9.19 75.7343 9.37 75.9143 9.45C76.2343 9.39 76.6743 9.33 77.2343 9.27C77.8143 9.21 78.3843 9.16 78.9443 9.12C79.5043 9.06 79.9343 9.03 80.2343 9.03C80.5743 8.93 80.8543 8.91 81.0743 8.97C81.2943 9.03 81.4543 9.09 81.5543 9.15C81.7943 9.19 81.9343 9.31 81.9743 9.51C82.0343 9.71 82.0343 9.91 81.9743 10.11C81.9143 10.31 81.8143 10.44 81.6743 10.5C81.5543 10.62 81.2543 10.76 80.7743 10.92C80.2943 11.08 79.7243 11.24 79.0643 11.4C78.4243 11.56 77.7743 11.71 77.1143 11.85C76.4743 11.97 75.9143 12.07 75.4343 12.15C74.9743 12.23 74.7043 12.26 74.6243 12.24C74.5043 11.96 74.3643 11.97 74.2043 12.27C74.0643 12.55 73.8943 13.13 73.6943 14.01C73.4743 14.51 73.3043 14.89 73.1843 15.15C73.0843 15.39 73.0043 15.66 72.9443 15.96C72.8843 16.24 72.7943 16.69 72.6743 17.31C72.5343 17.85 72.5443 18.34 72.7043 18.78C72.8843 19.2 73.2943 19.56 73.9343 19.86C74.3343 19.94 74.7943 19.97 75.3143 19.95C75.8343 19.93 76.5243 19.81 77.3843 19.59C77.7443 19.37 78.1043 19.17 78.4643 18.99C78.8243 18.79 79.0743 18.65 79.2143 18.57C79.3143 18.57 79.4643 18.53 79.6643 18.45C79.8843 18.35 80.0343 18.3 80.1143 18.3C80.2743 18.08 80.4743 17.97 80.7143 17.97C80.7543 17.97 80.8643 18.06 81.0443 18.24C81.2443 18.42 81.4343 18.65 81.6143 18.93C81.7943 19.21 81.8843 19.5 81.8843 19.8C81.8843 20 81.5443 20.26 80.8643 20.58C80.2043 20.9 79.3743 21.26 78.3743 21.66C77.8743 21.88 77.4643 22.05 77.1443 22.17C76.8443 22.29 76.5543 22.37 76.2743 22.41C75.9943 22.47 75.6243 22.5 75.1643 22.5ZM88.8636 22.59C88.5036 22.61 88.2036 22.44 87.9636 22.08C87.7236 21.72 87.6136 21.42 87.6336 21.18C87.6536 20.86 87.7436 20.4 87.9036 19.8C88.0636 19.2 88.2436 18.59 88.4436 17.97C88.6436 17.35 88.8236 16.86 88.9836 16.5C89.0636 16.18 89.1336 15.9 89.1936 15.66C89.2736 15.4 89.3236 15.23 89.3436 15.15C89.4036 15.07 89.4936 14.86 89.6136 14.52C89.7536 14.18 89.8636 13.85 89.9436 13.53C89.9836 13.37 90.0636 13.07 90.1836 12.63C90.3236 12.17 90.4836 11.64 90.6636 11.04C90.8636 10.44 91.0536 9.85 91.2336 9.27C91.4336 8.69 91.6036 8.18 91.7436 7.74C91.8836 7.3 91.9736 7.01 92.0136 6.87C92.1736 6.63 92.2936 6.4 92.3736 6.18C92.4536 5.96 92.5036 5.81 92.5236 5.73C92.6436 5.65 92.7136 5.55 92.7336 5.43C92.7536 5.29 92.7636 5.18 92.7636 5.1C92.7636 5 92.7936 4.92 92.8536 4.86C92.9336 4.8 92.9736 4.73 92.9736 4.65C93.0536 4.59 93.1036 4.58 93.1236 4.62C93.1436 4.66 93.2036 4.63 93.3036 4.53L93.4536 3.51L96.1236 3.48C96.0836 3.72 96.0236 4.02 95.9436 4.38C95.8636 4.72 95.6736 5.18 95.3736 5.76C95.2736 6.16 95.1536 6.52 95.0136 6.84C94.8936 7.16 94.8436 7.37 94.8636 7.47C94.8236 7.51 94.7336 7.71 94.5936 8.07C94.4736 8.43 94.3236 8.87 94.1436 9.39C93.9836 9.91 93.8136 10.43 93.6336 10.95C93.4736 11.47 93.3236 11.93 93.1836 12.33C93.0636 12.71 92.9836 12.95 92.9436 13.05C92.7836 13.37 92.6036 13.84 92.4036 14.46C92.2036 15.08 91.9036 15.92 91.5036 16.98C91.3436 17.3 91.1436 17.78 90.9036 18.42C90.6836 19.06 90.5036 19.64 90.3636 20.16C90.1436 20.94 89.9436 21.5 89.7636 21.84C89.6036 22.18 89.4536 22.38 89.3136 22.44C89.1736 22.52 89.0236 22.57 88.8636 22.59ZM89.1336 4.95C88.3136 5.03 87.7536 4.93 87.4536 4.65C87.1736 4.37 87.0736 4.07 87.1536 3.75C87.2136 3.51 87.3536 3.31 87.5736 3.15C87.8136 2.97 88.2436 2.82 88.8636 2.7C89.0836 2.66 89.3636 2.61 89.7036 2.55C90.0636 2.49 90.4036 2.43 90.7236 2.37C91.3836 2.29 91.9236 2.22 92.3436 2.16C92.7836 2.1 93.2336 2.05 93.6936 2.01C94.1536 1.97 94.7336 1.93 95.4336 1.89C96.0136 1.85 96.5036 1.82 96.9036 1.8C97.3236 1.76 97.5336 1.74 97.5336 1.74C97.5936 1.74 97.8036 1.76 98.1636 1.8C98.5236 1.84 98.9136 1.89 99.3336 1.95C99.7536 2.01 100.064 2.08 100.264 2.16C100.724 2.26 101.094 2.44 101.374 2.7C101.654 2.96 101.834 3.26 101.914 3.6C101.974 3.84 101.974 4.03 101.914 4.17C101.854 4.29 101.744 4.39 101.584 4.47C101.124 4.61 100.744 4.73 100.444 4.83C100.164 4.91 99.8836 4.9 99.6036 4.8C99.5036 4.7 99.3836 4.61 99.2436 4.53C99.1236 4.45 98.9036 4.39 98.5836 4.35C98.2836 4.29 97.8036 4.24 97.1436 4.2C96.5836 4.26 96.0936 4.29 95.6736 4.29C95.2536 4.29 95.0436 4.34 95.0436 4.44L93.2736 4.53L91.8036 4.68C91.6036 4.7 91.3236 4.73 90.9636 4.77C90.6036 4.79 90.2536 4.82 89.9136 4.86C89.5736 4.88 89.3136 4.91 89.1336 4.95Z" fill="black"/>
</svg>
