<svg width="274" height="34" viewBox="0 0 274 34" fill="none" xmlns="http://www.w3.org/2000/svg">
<path d="M12.612 29.79C12.112 29.59 11.742 29.31 11.502 28.95C11.262 28.61 11.192 28.21 11.292 27.75C11.252 27.91 11.282 27.88 11.382 27.66C11.502 27.44 11.652 27.11 11.832 26.67C12.032 26.23 12.242 25.74 12.462 25.2C12.682 24.64 12.892 24.09 13.092 23.55C13.312 23.01 13.492 22.55 13.632 22.17C13.972 21.31 14.282 20.53 14.562 19.83C14.842 19.13 15.072 18.53 15.252 18.03C15.452 17.53 15.602 17.14 15.702 16.86C15.802 16.58 15.852 16.43 15.852 16.41C16.052 15.95 16.242 15.42 16.422 14.82C16.622 14.2 16.832 13.67 17.052 13.23C17.172 12.95 17.282 12.66 17.382 12.36C17.502 12.06 17.612 11.76 17.712 11.46C17.192 12.06 16.632 12.72 16.032 13.44C15.452 14.14 14.842 14.86 14.202 15.6C13.582 16.34 12.952 17.08 12.312 17.82C11.692 18.56 11.092 19.27 10.512 19.95C9.95195 20.63 9.43195 21.26 8.95195 21.84C8.47195 22.4 8.06195 22.88 7.72195 23.28C7.38195 23.66 7.13195 23.94 6.97195 24.12C6.53195 24.46 6.12195 24.83 5.74195 25.23C5.38195 25.61 4.98195 25.97 4.54195 26.31C4.36195 26.45 4.12195 26.64 3.82195 26.88C3.54195 27.1 3.26195 27.3 2.98195 27.48C2.72195 27.66 2.50195 27.75 2.32195 27.75C1.52195 27.61 1.01195 27.37 0.791953 27.03C0.591953 26.71 0.551953 26.33 0.671953 25.89C0.811953 25.43 0.971953 24.96 1.15195 24.48C1.25195 24.2 1.34195 23.91 1.42195 23.61C1.50195 23.31 1.56195 22.99 1.60195 22.65C1.76195 21.95 1.92195 21.34 2.08195 20.82C2.24195 20.3 2.39195 19.83 2.53195 19.41C2.67195 18.93 2.80195 18.46 2.92195 18C3.06195 17.54 3.14195 17.09 3.16195 16.65C3.36195 16.29 3.56195 15.87 3.76195 15.39C3.96195 14.89 4.14195 14.41 4.30195 13.95C4.48195 13.49 4.62195 13.15 4.72195 12.93C4.94195 12.45 5.12195 11.95 5.26195 11.43C5.42195 10.91 5.61195 10.4 5.83195 9.9C5.97195 9.62 6.16195 9.26 6.40195 8.82C6.64195 8.36 6.86195 7.9 7.06195 7.44C7.26195 6.98 7.36195 6.61 7.36195 6.33C7.36195 6.03 7.47195 5.82 7.69195 5.7C7.91195 5.58 8.17195 5.54 8.47195 5.58C8.77195 5.6 9.04195 5.7 9.28195 5.88C9.54195 6.04 9.70195 6.27 9.76195 6.57C9.84195 6.79 9.88195 7.03 9.88195 7.29C9.90195 7.55 9.86195 7.8 9.76195 8.04L7.27195 14.37L4.54195 21.57C4.42195 21.87 4.30195 22.17 4.18195 22.47C4.06195 22.77 3.94195 23.07 3.82195 23.37L9.88195 17.31C10.222 16.95 10.552 16.58 10.872 16.2C11.212 15.82 11.522 15.44 11.802 15.06C12.202 14.52 12.602 14.03 13.002 13.59C13.402 13.13 13.772 12.72 14.112 12.36C14.472 12 14.792 11.68 15.072 11.4C15.352 11.12 15.582 10.89 15.762 10.71L19.572 6.66L20.322 6.36C20.702 6.32 21.022 6.41 21.282 6.63C21.542 6.85 21.712 7.13 21.792 7.47C21.892 7.79 21.882 8.1 21.762 8.4C21.682 8.58 21.552 8.88 21.372 9.3C21.192 9.72 20.982 10.23 20.742 10.83C20.502 11.41 20.242 12.05 19.962 12.75C19.682 13.45 19.392 14.18 19.092 14.94C18.812 15.68 18.522 16.43 18.222 17.19C17.942 17.93 17.672 18.64 17.412 19.32C17.272 19.74 17.122 20.16 16.962 20.58C16.822 20.98 16.682 21.39 16.542 21.81C16.402 22.23 16.262 22.65 16.122 23.07C15.982 23.49 15.832 23.91 15.672 24.33C15.532 24.73 15.392 25.14 15.252 25.56C15.172 25.84 15.072 26.11 14.952 26.37C14.832 26.63 14.722 26.88 14.622 27.12C14.502 27.34 14.402 27.55 14.322 27.75C14.242 27.97 14.162 28.28 14.082 28.68C13.962 29.1 13.752 29.42 13.452 29.64C13.172 29.88 12.892 29.93 12.612 29.79ZM23.587 28.98C23.287 28.86 22.937 28.69 22.537 28.47C22.137 28.27 21.757 28 21.397 27.66C21.037 27.32 20.757 26.91 20.557 26.43C20.357 25.85 20.217 25.28 20.137 24.72C20.077 24.16 20.057 23.51 20.077 22.77C20.077 21.73 20.147 20.83 20.287 20.07C20.447 19.29 20.687 18.5 21.007 17.7C21.047 17.64 21.117 17.47 21.217 17.19C21.337 16.89 21.467 16.57 21.607 16.23C21.767 15.89 21.887 15.63 21.967 15.45C22.127 15.11 22.367 14.66 22.687 14.1C23.027 13.52 23.387 12.96 23.767 12.42C24.347 11.56 24.837 10.86 25.237 10.32C25.637 9.76 26.017 9.29 26.377 8.91C26.757 8.53 27.167 8.16 27.607 7.8C28.067 7.44 28.637 7.03 29.317 6.57C29.757 6.25 30.317 6.05 30.997 5.97C31.697 5.89 32.377 6 33.037 6.3C33.697 6.58 34.187 7.12 34.507 7.92C34.727 8.34 34.827 8.87 34.807 9.51C34.787 10.13 34.667 10.8 34.447 11.52C34.227 12.22 33.947 12.88 33.607 13.5C33.267 14.12 32.887 14.62 32.467 15C32.207 15.24 31.857 15.28 31.417 15.12C30.997 14.96 30.647 14.75 30.367 14.49C30.187 14.15 30.087 13.95 30.067 13.89C30.067 13.83 30.107 13.79 30.187 13.77C30.307 13.63 30.467 13.39 30.667 13.05C30.867 12.71 31.067 12.35 31.267 11.97C31.467 11.57 31.607 11.25 31.687 11.01C31.847 10.17 31.957 9.62 32.017 9.36C32.077 9.08 32.017 8.85 31.837 8.67C31.757 8.59 31.637 8.56 31.477 8.58C31.337 8.6 31.097 8.7 30.757 8.88C30.297 9.08 29.747 9.49 29.107 10.11C28.487 10.71 27.867 11.43 27.247 12.27C26.447 13.33 25.777 14.27 25.237 15.09C24.697 15.91 24.287 16.75 24.007 17.61C23.967 17.69 23.897 17.84 23.797 18.06C23.717 18.28 23.677 18.39 23.677 18.39C23.697 18.47 23.667 18.67 23.587 18.99C23.507 19.29 23.417 19.55 23.317 19.77C23.097 20.69 22.967 21.58 22.927 22.44C22.887 23.28 22.937 24.02 23.077 24.66C23.237 25.28 23.467 25.74 23.767 26.04C24.027 26.22 24.357 26.28 24.757 26.22C25.157 26.16 25.617 26.02 26.137 25.8C26.657 25.58 27.217 25.34 27.817 25.08C28.297 24.88 28.737 24.66 29.137 24.42C29.537 24.18 29.837 23.97 30.037 23.79C30.197 23.67 30.397 23.55 30.637 23.43C30.897 23.29 31.117 23.22 31.297 23.22C31.577 23.12 31.787 23.2 31.927 23.46C32.067 23.72 32.137 24.05 32.137 24.45C32.137 24.73 31.937 25.07 31.537 25.47C31.137 25.87 30.697 26.21 30.217 26.49C30.057 26.65 29.837 26.8 29.557 26.94C29.297 27.06 29.027 27.17 28.747 27.27C28.327 27.59 27.807 27.9 27.187 28.2C26.567 28.5 25.937 28.73 25.297 28.89C24.677 29.05 24.107 29.08 23.587 28.98ZM40.3934 28.26C40.3134 28.34 40.2234 28.37 40.1234 28.35C40.0234 28.35 39.8634 28.3 39.6434 28.2C39.2634 28.1 38.9234 27.88 38.6234 27.54C38.3434 27.2 38.3034 26.81 38.5034 26.37C38.5834 26.23 38.6834 25.93 38.8034 25.47C38.9434 24.99 39.0934 24.44 39.2534 23.82C39.4134 23.2 39.5734 22.58 39.7334 21.96C39.8934 21.34 40.0334 20.8 40.1534 20.34C40.2734 19.86 40.3534 19.54 40.3934 19.38C40.3934 19.22 40.4334 18.9 40.5134 18.42C40.6134 17.94 40.7034 17.4 40.7834 16.8C41.0034 16.38 41.1534 15.92 41.2334 15.42C41.3334 14.92 41.4034 14.56 41.4434 14.34C41.5234 14.02 41.6134 13.68 41.7134 13.32C41.8334 12.96 41.9334 12.6 42.0134 12.24C42.0934 11.92 42.1734 11.59 42.2534 11.25C42.3534 10.91 42.4034 10.69 42.4034 10.59V10.11H41.2934C40.9934 10.13 40.6534 10.13 40.2734 10.11C39.8934 10.09 39.4734 10.08 39.0134 10.08C38.0734 10.04 37.4434 9.95 37.1234 9.81C36.8234 9.65 36.6534 9.35 36.6134 8.91C36.5734 8.67 36.6234 8.46 36.7634 8.28C36.9034 8.08 37.2334 7.92 37.7534 7.8C38.2734 7.68 39.0734 7.64 40.1534 7.68C40.9934 7.64 41.6534 7.64 42.1334 7.68C42.6134 7.7 42.8934 7.71 42.9734 7.71C43.0534 7.63 43.1034 7.55 43.1234 7.47C43.1434 7.39 43.1734 7.31 43.2134 7.23C43.2134 7.13 43.2234 7.02 43.2434 6.9C43.2834 6.76 43.3834 6.66 43.5434 6.6C43.7034 6.3 44.0034 6.18 44.4434 6.24C44.9034 6.28 45.2434 6.46 45.4634 6.78C45.5434 6.96 45.5634 7.15 45.5234 7.35C45.5034 7.55 45.5634 7.73 45.7034 7.89C45.7834 7.81 45.9934 7.76 46.3334 7.74C46.6734 7.72 47.0334 7.7 47.4134 7.68C47.8734 7.68 48.2834 7.67 48.6434 7.65C49.0034 7.61 49.2534 7.59 49.3934 7.59C49.5734 7.49 49.8034 7.44 50.0834 7.44C50.3834 7.44 50.6834 7.46 50.9834 7.5C51.4434 7.5 51.7634 7.62 51.9434 7.86C52.1434 8.08 52.2734 8.24 52.3334 8.34C52.3334 8.42 52.3334 8.5 52.3334 8.58C52.3534 8.66 52.4034 8.74 52.4834 8.82C52.5634 8.9 52.6034 8.96 52.6034 9C52.6034 9.02 52.5634 9.11 52.4834 9.27C52.4034 9.35 52.2634 9.42 52.0634 9.48C51.8634 9.52 51.6434 9.54 51.4034 9.54C51.2634 9.54 51.0234 9.56 50.6834 9.6C50.3434 9.62 50.0534 9.63 49.8134 9.63C49.3534 9.71 48.9034 9.78 48.4634 9.84C48.0234 9.88 47.4534 9.92 46.7534 9.96C46.4534 9.96 46.1734 9.98 45.9134 10.02C45.6534 10.04 45.5234 10.1 45.5234 10.2C45.4434 10.2 45.3334 10.41 45.1934 10.83C45.0734 11.25 44.9534 11.69 44.8334 12.15C44.7134 12.67 44.5834 13.12 44.4434 13.5C44.3234 13.88 44.2234 14.13 44.1434 14.25C44.2234 14.33 44.2534 14.43 44.2334 14.55C44.2334 14.67 44.1734 14.88 44.0534 15.18C43.9734 15.46 43.8934 15.68 43.8134 15.84C43.7534 16 43.7234 16.16 43.7234 16.32C43.7234 16.32 43.6734 16.48 43.5734 16.8C43.4934 17.1 43.4134 17.48 43.3334 17.94C43.2934 18.38 43.2334 18.75 43.1534 19.05C43.0934 19.35 43.0234 19.54 42.9434 19.62C42.9434 19.62 42.9034 19.69 42.8234 19.83C42.7434 19.95 42.7034 20.09 42.7034 20.25C42.7034 20.43 42.6634 20.73 42.5834 21.15C42.5234 21.55 42.4534 21.93 42.3734 22.29C42.2934 22.65 42.2234 22.85 42.1634 22.89C42.3634 22.93 42.3334 23.2 42.0734 23.7C42.0734 23.9 42.0434 24.1 41.9834 24.3C41.9234 24.5 41.8934 24.64 41.8934 24.72C41.7734 25.1 41.6034 25.56 41.3834 26.1C41.1634 26.64 40.9534 27.12 40.7534 27.54C40.5734 27.96 40.4534 28.2 40.3934 28.26ZM53.3688 27.27C52.3288 26.89 51.5188 26.14 50.9388 25.02C50.3588 23.88 50.1988 22.55 50.4588 21.03C50.4988 20.45 50.5888 19.93 50.7288 19.47C50.8888 19.01 51.0088 18.55 51.0888 18.09C51.0888 18.05 51.1088 17.99 51.1488 17.91C51.1888 17.81 51.1988 17.72 51.1788 17.64C51.2188 17.52 51.3088 17.3 51.4488 16.98C51.5888 16.64 51.7288 16.32 51.8688 16.02C52.0088 15.7 52.0988 15.52 52.1388 15.48C52.2388 15.44 52.2888 15.39 52.2888 15.33C52.2888 15.25 52.2888 15.21 52.2888 15.21C52.2888 15.05 52.3988 14.76 52.6188 14.34C52.8388 13.92 53.1188 13.46 53.4588 12.96C53.8188 12.44 54.1788 11.94 54.5388 11.46C54.8988 10.98 55.2188 10.58 55.4988 10.26C55.7788 9.94 55.9588 9.78 56.0388 9.78C56.0988 9.78 56.1488 9.74 56.1888 9.66C56.2288 9.58 56.2688 9.53 56.3088 9.51C56.3688 9.43 56.5488 9.31 56.8488 9.15C57.1688 8.99 57.5388 8.82 57.9588 8.64C58.3988 8.44 58.8288 8.26 59.2488 8.1C59.6688 7.94 60.0288 7.83 60.3288 7.77C61.2088 7.45 61.9988 7.45 62.6988 7.77C63.3988 8.09 63.9588 8.69 64.3788 9.57C64.7988 10.45 65.0188 11.57 65.0388 12.93C64.9588 13.37 64.9088 13.79 64.8888 14.19C64.8888 14.57 64.8588 14.85 64.7988 15.03C64.7788 15.47 64.7088 15.97 64.5888 16.53C64.4688 17.09 64.3488 17.58 64.2288 18C64.1088 18.4 64.0188 18.61 63.9588 18.63C63.9588 18.71 63.9388 18.79 63.8988 18.87C63.8588 18.93 63.8388 18.99 63.8388 19.05C63.8588 19.15 63.7888 19.38 63.6288 19.74C63.4688 20.1 63.2788 20.5 63.0588 20.94C62.8388 21.38 62.6388 21.76 62.4588 22.08C62.2788 22.4 62.1688 22.56 62.1288 22.56C62.1288 22.56 62.1088 22.57 62.0688 22.59C62.0288 22.59 62.0188 22.63 62.0388 22.71C62.0588 22.75 61.9888 22.85 61.8288 23.01C61.6688 23.17 61.4888 23.33 61.2888 23.49C61.1088 23.63 60.9688 23.7 60.8688 23.7C60.8688 23.7 60.8488 23.71 60.8088 23.73C60.7888 23.75 60.8088 23.79 60.8688 23.85C60.8888 23.89 60.7288 24.05 60.3888 24.33C60.0688 24.59 59.6588 24.9 59.1588 25.26C58.6588 25.6 58.1588 25.92 57.6588 26.22C57.1588 26.5 56.7588 26.67 56.4588 26.73C56.3988 26.81 56.3388 26.86 56.2788 26.88C56.2188 26.88 56.1388 26.89 56.0388 26.91C55.8988 27.05 55.6488 27.16 55.2888 27.24C54.9488 27.34 54.5988 27.39 54.2388 27.39C53.8788 27.41 53.5888 27.37 53.3688 27.27ZM56.3988 24.12C56.7988 23.98 57.1988 23.79 57.5988 23.55C58.0188 23.29 58.3788 23.02 58.6788 22.74C58.9988 22.44 59.1988 22.16 59.2788 21.9C59.3388 21.68 59.3988 21.52 59.4588 21.42C59.5388 21.3 59.6188 21.21 59.6988 21.15C59.8588 20.99 60.0588 20.69 60.2988 20.25C60.5588 19.81 60.8088 19.33 61.0488 18.81C61.2888 18.29 61.4888 17.8 61.6488 17.34C61.8288 16.86 61.9288 16.51 61.9488 16.29C61.9488 16.25 61.9788 16.08 62.0388 15.78C62.0988 15.48 62.1688 15.26 62.2488 15.12C62.2888 15.04 62.2988 14.97 62.2788 14.91C62.2788 14.83 62.2688 14.62 62.2488 14.28C62.2488 13.94 62.2588 13.33 62.2788 12.45C62.2588 11.73 62.1888 11.2 62.0688 10.86C61.9688 10.5 61.8388 10.28 61.6788 10.2C61.6388 10.16 61.5388 10.12 61.3788 10.08C61.2388 10.04 61.0888 10.02 60.9288 10.02C60.7688 10 60.6188 10.02 60.4788 10.08C60.3788 10.1 60.2388 10.15 60.0588 10.23C59.8988 10.29 59.7588 10.32 59.6388 10.32C59.4788 10.4 59.3688 10.5 59.3088 10.62C59.2488 10.72 59.2188 10.8 59.2188 10.86C59.2188 11.02 59.1488 11.17 59.0088 11.31C58.8688 11.43 58.7088 11.44 58.5288 11.34C58.2088 11.36 57.9888 11.4 57.8688 11.46C57.7688 11.52 57.6688 11.65 57.5688 11.85C57.4888 12.03 57.3188 12.34 57.0588 12.78C56.4988 13.22 56.0988 13.65 55.8588 14.07C55.6188 14.49 55.4788 14.81 55.4388 15.03C55.0188 15.79 54.7088 16.38 54.5088 16.8C54.3088 17.2 54.1688 17.56 54.0888 17.88C54.0088 18.2 53.9488 18.59 53.9088 19.05C53.7288 19.39 53.5988 19.75 53.5188 20.13C53.4388 20.51 53.3688 20.76 53.3088 20.88C53.2688 20.98 53.2488 21.17 53.2488 21.45C53.2488 21.71 53.2588 22.01 53.2788 22.35C53.3188 22.67 53.3588 22.97 53.3988 23.25C53.4588 23.51 53.5188 23.7 53.5788 23.82C53.6988 24.28 53.9888 24.54 54.4488 24.6C54.9088 24.66 55.5588 24.5 56.3988 24.12ZM67.1252 29.01C67.0252 28.95 66.8552 28.87 66.6152 28.77C66.3752 28.67 66.1552 28.55 65.9552 28.41C65.7752 28.27 65.6752 28.11 65.6552 27.93C65.6352 27.87 65.6152 27.81 65.5952 27.75C65.5952 27.69 65.6252 27.55 65.6852 27.33C65.7452 27.13 65.8352 26.79 65.9552 26.31C66.0752 25.91 66.1752 25.56 66.2552 25.26C66.3552 24.96 66.4052 24.79 66.4052 24.75C66.4852 24.79 66.5652 24.77 66.6452 24.69C66.7252 24.61 66.7652 24.4 66.7652 24.06C66.7452 23.98 66.7652 23.85 66.8252 23.67C66.9052 23.49 66.9952 23.31 67.0952 23.13C67.0952 23.07 67.1152 22.88 67.1552 22.56C67.2152 22.24 67.2752 21.92 67.3352 21.6C67.6152 20.66 67.9052 19.83 68.2052 19.11C68.5252 18.39 68.7652 17.87 68.9252 17.55C68.9252 17.51 68.9552 17.4 69.0152 17.22C69.0752 17.04 69.1452 16.86 69.2252 16.68C69.3052 16.48 69.3652 16.35 69.4052 16.29C69.4252 16.11 69.4752 15.88 69.5552 15.6C69.6552 15.3 69.7652 15.02 69.8852 14.76C70.0252 14.48 70.1552 14.29 70.2752 14.19C70.2752 14.07 70.3252 13.87 70.4252 13.59C70.5252 13.31 70.6452 13.02 70.7852 12.72C70.9252 12.4 71.0552 12.13 71.1752 11.91C71.2952 11.69 71.3652 11.58 71.3852 11.58C71.3852 11.58 71.3952 11.52 71.4152 11.4C71.4552 11.28 71.5752 11.09 71.7752 10.83C71.7752 10.83 71.7852 10.73 71.8052 10.53C71.8452 10.33 71.9452 10.17 72.1052 10.05C72.1852 9.75 72.2352 9.55 72.2552 9.45C72.2752 9.33 72.2452 9.25 72.1652 9.21C71.9852 8.69 72.1452 8.42 72.6452 8.4C72.7652 8.4 72.9052 8.23 73.0652 7.89C73.1652 7.71 73.4152 7.56 73.8152 7.44C74.2152 7.32 74.7052 7.2 75.2852 7.08C75.6652 7.02 76.0252 6.96 76.3652 6.9C76.7052 6.84 76.8752 6.81 76.8752 6.81C77.1552 6.81 77.5152 6.83 77.9552 6.87C78.4152 6.91 78.7752 6.96 79.0352 7.02C79.7552 7.36 80.3752 7.83 80.8952 8.43C81.4352 9.03 81.7352 9.56 81.7952 10.02C81.8352 10.26 81.7852 10.65 81.6452 11.19C81.5252 11.73 81.3552 12.31 81.1352 12.93C80.9352 13.53 80.7152 14.07 80.4752 14.55C80.2552 15.03 80.0552 15.34 79.8752 15.48C79.9752 15.46 79.9352 15.57 79.7552 15.81C79.5752 16.03 79.3452 16.26 79.0652 16.5C78.8052 16.74 78.6052 16.88 78.4652 16.92C78.4652 16.92 78.3952 17.05 78.2552 17.31C78.1152 17.55 77.9152 17.74 77.6552 17.88C77.4152 18.02 77.1552 18.19 76.8752 18.39C76.5952 18.57 76.3752 18.78 76.2152 19.02C76.2152 18.86 76.1652 18.81 76.0652 18.87C75.9652 18.91 75.8552 18.99 75.7352 19.11C75.6152 19.21 75.5152 19.28 75.4352 19.32C74.9752 19.6 74.5752 19.78 74.2352 19.86C73.8952 19.94 73.5152 20.02 73.0952 20.1C72.9952 20.18 72.8352 20.23 72.6152 20.25C72.4152 20.27 72.2152 20.28 72.0152 20.28L70.9052 20.13L70.2752 21.93C70.0352 22.73 69.8052 23.4 69.5852 23.94C69.3852 24.48 69.1852 25.02 68.9852 25.56C68.7852 26.1 68.5652 26.77 68.3252 27.57C68.2452 28.11 68.0552 28.51 67.7552 28.77C67.4752 29.05 67.2652 29.13 67.1252 29.01ZM71.9852 17.82C72.6252 17.76 73.1452 17.67 73.5452 17.55C73.9452 17.41 74.3152 17.22 74.6552 16.98C74.9952 16.74 75.3652 16.43 75.7652 16.05C75.9252 15.89 76.1452 15.67 76.4252 15.39C76.7052 15.11 76.9952 14.81 77.2952 14.49C77.6152 14.15 77.8852 13.83 78.1052 13.53C78.4252 13.09 78.6452 12.64 78.7652 12.18C78.8852 11.72 78.9352 11.3 78.9152 10.92C78.8952 10.54 78.8252 10.25 78.7052 10.05C78.4452 9.67 78.1352 9.43 77.7752 9.33C77.4352 9.23 77.0652 9.23 76.6652 9.33C76.2852 9.43 75.8952 9.59 75.4952 9.81C75.3952 9.85 75.2252 10.06 74.9852 10.44C74.7652 10.82 74.5152 11.29 74.2352 11.85C73.9752 12.41 73.7052 13.01 73.4252 13.65C73.1452 14.29 72.8852 14.91 72.6452 15.51C72.4252 16.09 72.2452 16.59 72.1052 17.01C71.9852 17.43 71.9452 17.7 71.9852 17.82ZM84.4526 28.62C84.1726 28.88 83.7726 28.95 83.2526 28.83C82.7526 28.71 82.3426 28.45 82.0226 28.05C81.8826 27.85 81.7826 27.62 81.7226 27.36C81.6626 27.1 81.6726 26.81 81.7526 26.49L85.5326 14.16C85.7526 13.42 85.9626 12.75 86.1626 12.15C86.3626 11.55 86.5426 10.95 86.7026 10.35C86.8226 9.89 86.9326 9.42 87.0326 8.94C87.1326 8.46 87.2226 7.94 87.3026 7.38C87.5426 7.02 87.8326 6.85 88.1726 6.87C88.5326 6.89 88.8726 7.03 89.1926 7.29C89.5326 7.53 89.7926 7.83 89.9726 8.19C90.1526 8.55 90.1926 8.9 90.0926 9.24C89.9326 9.98 89.7226 10.71 89.4626 11.43C89.2026 12.15 88.9526 12.86 88.7126 13.56C88.3926 14.52 88.0226 15.6 87.6026 16.8C87.2026 18 86.8026 19.22 86.4026 20.46C86.3226 20.76 86.2326 21.06 86.1326 21.36C86.0526 21.66 85.9626 21.95 85.8626 22.23L85.7726 22.47C86.3726 21.63 86.9026 20.91 87.3626 20.31C87.8226 19.69 88.2726 19.1 88.7126 18.54C89.7526 17.2 90.8526 15.92 92.0126 14.7C93.1926 13.46 94.4126 12.27 95.6726 11.13C95.8126 11.01 96.0326 10.78 96.3326 10.44C96.6526 10.08 96.9826 9.7 97.3226 9.3C97.6826 8.88 98.0026 8.5 98.2826 8.16C98.5826 7.82 98.7826 7.59 98.8826 7.47C99.0826 7.23 99.2726 7.01 99.4526 6.81C99.6326 6.61 99.8926 6.52 100.233 6.54C100.553 6.54 100.873 6.68 101.193 6.96C101.513 7.22 101.763 7.54 101.943 7.92C102.123 8.28 102.153 8.62 102.033 8.94C101.413 10.66 100.883 12.13 100.443 13.35C100.023 14.57 99.6526 15.64 99.3326 16.56C99.0326 17.46 98.7426 18.33 98.4626 19.17C98.2026 19.91 97.9326 20.67 97.6526 21.45C97.3726 22.21 97.1726 22.98 97.0526 23.76C96.9326 24.46 96.8126 25.17 96.6926 25.89C96.5926 26.61 96.4326 27.32 96.2126 28.02C96.0926 28.46 95.8426 28.68 95.4626 28.68C95.0826 28.68 94.7026 28.56 94.3226 28.32C93.9626 28.08 93.7026 27.83 93.5426 27.57C93.4626 27.43 93.4126 27.29 93.3926 27.15C93.3926 27.03 93.4026 26.92 93.4226 26.82C93.5826 26.06 93.7526 25.3 93.9326 24.54C94.1126 23.78 94.3026 23.03 94.5026 22.29C94.6426 21.79 94.8226 21.23 95.0426 20.61C95.2626 19.99 95.5026 19.38 95.7626 18.78C96.0226 18.16 96.2626 17.62 96.4826 17.16C96.6626 16.76 96.8026 16.34 96.9026 15.9C97.0026 15.46 97.1526 15.04 97.3526 14.64C97.5726 14.22 97.7526 13.78 97.8926 13.32C98.0326 12.86 98.1426 12.32 98.2226 11.7L98.2526 11.43C97.9926 11.93 97.7126 12.35 97.4126 12.69C97.1326 13.01 96.8526 13.32 96.5726 13.62C96.3526 13.86 96.1226 14.1 95.8826 14.34C95.6626 14.56 95.4426 14.78 95.2226 15C95.0026 15.22 94.7226 15.51 94.3826 15.87C94.0626 16.23 93.7426 16.59 93.4226 16.95C93.1026 17.29 92.8226 17.58 92.5826 17.82C91.6226 18.86 90.7026 19.93 89.8226 21.03C88.9426 22.11 88.0626 23.21 87.1826 24.33C86.8426 24.77 86.5426 25.21 86.2826 25.65C86.0426 26.09 85.8326 26.57 85.6526 27.09C85.5326 27.43 85.3526 27.71 85.1126 27.93C84.8926 28.17 84.6726 28.4 84.4526 28.62ZM117.246 14.31C117.166 14.55 117.086 14.79 117.006 15.03C116.946 15.27 116.886 15.51 116.826 15.75C116.766 15.97 116.696 16.2 116.616 16.44C116.556 16.68 116.486 16.92 116.406 17.16C116.346 17.4 116.276 17.64 116.196 17.88C116.136 17.98 116.076 18.09 116.016 18.21C115.956 18.31 115.896 18.41 115.836 18.51C115.756 18.85 115.676 19.2 115.596 19.56C115.536 19.92 115.466 20.28 115.386 20.64C115.306 20.98 115.226 21.33 115.146 21.69C115.026 22.17 114.906 22.68 114.786 23.22C114.666 23.76 114.556 24.28 114.456 24.78C114.356 25.28 114.266 25.7 114.186 26.04C114.126 26.38 114.096 26.59 114.096 26.67C114.096 26.87 114.086 27.02 114.066 27.12C114.046 27.22 114.036 27.35 114.036 27.51C113.936 27.75 113.866 27.93 113.826 28.05C113.786 28.17 113.776 28.26 113.796 28.32C113.796 28.84 113.686 29.18 113.466 29.34C113.266 29.5 112.846 29.58 112.206 29.58C111.826 29.36 111.526 29.15 111.306 28.95C111.106 28.75 110.956 28.49 110.856 28.17C110.896 27.71 110.966 27.25 111.066 26.79C111.166 26.31 111.216 25.98 111.216 25.8C111.256 25.52 111.296 25.24 111.336 24.96C111.376 24.68 111.416 24.4 111.456 24.12C111.496 23.84 111.536 23.56 111.576 23.28C111.676 23.18 111.776 23.08 111.876 22.98C111.976 22.86 112.036 22.73 112.056 22.59L112.386 20.91C112.386 20.91 112.416 20.79 112.476 20.55C112.556 20.29 112.636 20 112.716 19.68C112.796 19.34 112.866 19.05 112.926 18.81C112.986 18.55 113.016 18.42 113.016 18.42C112.976 18.46 112.926 18.51 112.866 18.57C112.826 18.63 112.786 18.68 112.746 18.72C112.706 18.8 112.656 18.89 112.596 18.99C112.536 19.07 112.476 19.15 112.416 19.23C112.096 19.73 111.756 20.18 111.396 20.58C111.036 20.98 110.756 21.35 110.556 21.69C110.456 21.83 110.216 22.1 109.836 22.5C109.456 22.88 108.996 23.33 108.456 23.85C107.936 24.35 107.406 24.86 106.866 25.38C106.326 25.9 105.836 26.37 105.396 26.79C104.956 27.19 104.636 27.48 104.436 27.66C104.076 28.04 103.766 28.26 103.506 28.32C103.246 28.4 102.856 28.46 102.336 28.5C101.956 28.18 101.686 27.9 101.526 27.66C101.386 27.42 101.306 27.23 101.286 27.09C101.266 26.95 101.256 26.88 101.256 26.88C101.336 26.62 101.386 26.45 101.406 26.37C101.426 26.27 101.466 26.2 101.526 26.16C101.586 26.1 101.706 26 101.886 25.86C102.046 25.76 102.306 25.57 102.666 25.29C103.026 24.99 103.406 24.66 103.806 24.3C104.226 23.92 104.606 23.58 104.946 23.28C105.286 22.98 105.496 22.79 105.576 22.71L107.136 21.15C107.316 20.95 107.496 20.76 107.676 20.58C107.856 20.38 108.026 20.18 108.186 19.98C108.366 19.78 108.546 19.59 108.726 19.41C108.306 19.25 107.916 19.07 107.556 18.87C107.196 18.67 106.936 18.47 106.776 18.27C106.136 17.55 105.746 16.76 105.606 15.9C105.466 15.04 105.456 14.22 105.576 13.44C105.716 12.66 105.886 12.03 106.086 11.55C106.306 10.95 106.536 10.49 106.776 10.17C107.016 9.85 107.256 9.59 107.496 9.39C107.736 9.17 107.976 8.92 108.216 8.64C108.636 8.2 109.046 7.84 109.446 7.56C109.866 7.28 110.386 7.02 111.006 6.78C111.626 6.54 112.436 6.25 113.436 5.91C113.456 5.91 113.556 5.9 113.736 5.88C113.936 5.86 114.186 5.84 114.486 5.82C114.806 5.78 115.136 5.75 115.476 5.73C115.816 5.69 116.146 5.67 116.466 5.67C116.686 5.75 116.866 5.82 117.006 5.88C117.166 5.94 117.286 5.99 117.366 6.03L118.116 5.76C118.856 5.84 119.296 6.06 119.436 6.42C119.576 6.78 119.676 7.22 119.736 7.74C119.436 8.48 119.176 9.11 118.956 9.63C118.756 10.13 118.566 10.6 118.386 11.04C118.226 11.48 118.056 11.96 117.876 12.48C117.696 12.98 117.486 13.59 117.246 14.31ZM113.976 15.57C114.076 15.29 114.166 15.02 114.246 14.76C114.346 14.48 114.446 14.2 114.546 13.92C114.646 13.64 114.746 13.36 114.846 13.08C114.946 12.8 115.036 12.53 115.116 12.27C115.216 11.99 115.316 11.71 115.416 11.43C115.536 11.03 115.636 10.71 115.716 10.47C115.816 10.21 115.926 9.93 116.046 9.63C116.166 9.31 116.306 8.88 116.466 8.34C116.326 8.3 116.106 8.29 115.806 8.31C115.506 8.33 115.136 8.39 114.696 8.49C113.836 8.65 112.986 8.95 112.146 9.39C111.326 9.81 110.596 10.32 109.956 10.92C109.336 11.5 108.886 12.11 108.606 12.75C108.446 13.15 108.316 13.53 108.216 13.89C108.116 14.25 108.076 14.63 108.096 15.03C108.096 15.49 108.156 15.83 108.276 16.05C108.396 16.25 108.506 16.55 108.606 16.95C108.626 16.97 108.756 16.99 108.996 17.01C109.256 17.03 109.446 17.03 109.566 17.01C110.046 16.85 110.506 16.7 110.946 16.56C111.406 16.42 111.846 16.22 112.266 15.96C112.586 15.8 112.876 15.71 113.136 15.69C113.416 15.67 113.666 15.71 113.886 15.81C113.906 15.77 113.916 15.73 113.916 15.69C113.936 15.65 113.956 15.61 113.976 15.57ZM130.625 27.27C129.585 26.89 128.775 26.14 128.195 25.02C127.615 23.88 127.455 22.55 127.715 21.03C127.755 20.45 127.845 19.93 127.985 19.47C128.145 19.01 128.265 18.55 128.345 18.09C128.345 18.05 128.365 17.99 128.405 17.91C128.445 17.81 128.455 17.72 128.435 17.64C128.475 17.52 128.565 17.3 128.705 16.98C128.845 16.64 128.985 16.32 129.125 16.02C129.265 15.7 129.355 15.52 129.395 15.48C129.495 15.44 129.545 15.39 129.545 15.33C129.545 15.25 129.545 15.21 129.545 15.21C129.545 15.05 129.655 14.76 129.875 14.34C130.095 13.92 130.375 13.46 130.715 12.96C131.075 12.44 131.435 11.94 131.795 11.46C132.155 10.98 132.475 10.58 132.755 10.26C133.035 9.94 133.215 9.78 133.295 9.78C133.355 9.78 133.405 9.74 133.445 9.66C133.485 9.58 133.525 9.53 133.565 9.51C133.625 9.43 133.805 9.31 134.105 9.15C134.425 8.99 134.795 8.82 135.215 8.64C135.655 8.44 136.085 8.26 136.505 8.1C136.925 7.94 137.285 7.83 137.585 7.77C138.465 7.45 139.255 7.45 139.955 7.77C140.655 8.09 141.215 8.69 141.635 9.57C142.055 10.45 142.275 11.57 142.295 12.93C142.215 13.37 142.165 13.79 142.145 14.19C142.145 14.57 142.115 14.85 142.055 15.03C142.035 15.47 141.965 15.97 141.845 16.53C141.725 17.09 141.605 17.58 141.485 18C141.365 18.4 141.275 18.61 141.215 18.63C141.215 18.71 141.195 18.79 141.155 18.87C141.115 18.93 141.095 18.99 141.095 19.05C141.115 19.15 141.045 19.38 140.885 19.74C140.725 20.1 140.535 20.5 140.315 20.94C140.095 21.38 139.895 21.76 139.715 22.08C139.535 22.4 139.425 22.56 139.385 22.56C139.385 22.56 139.365 22.57 139.325 22.59C139.285 22.59 139.275 22.63 139.295 22.71C139.315 22.75 139.245 22.85 139.085 23.01C138.925 23.17 138.745 23.33 138.545 23.49C138.365 23.63 138.225 23.7 138.125 23.7C138.125 23.7 138.105 23.71 138.065 23.73C138.045 23.75 138.065 23.79 138.125 23.85C138.145 23.89 137.985 24.05 137.645 24.33C137.325 24.59 136.915 24.9 136.415 25.26C135.915 25.6 135.415 25.92 134.915 26.22C134.415 26.5 134.015 26.67 133.715 26.73C133.655 26.81 133.595 26.86 133.535 26.88C133.475 26.88 133.395 26.89 133.295 26.91C133.155 27.05 132.905 27.16 132.545 27.24C132.205 27.34 131.855 27.39 131.495 27.39C131.135 27.41 130.845 27.37 130.625 27.27ZM133.655 24.12C134.055 23.98 134.455 23.79 134.855 23.55C135.275 23.29 135.635 23.02 135.935 22.74C136.255 22.44 136.455 22.16 136.535 21.9C136.595 21.68 136.655 21.52 136.715 21.42C136.795 21.3 136.875 21.21 136.955 21.15C137.115 20.99 137.315 20.69 137.555 20.25C137.815 19.81 138.065 19.33 138.305 18.81C138.545 18.29 138.745 17.8 138.905 17.34C139.085 16.86 139.185 16.51 139.205 16.29C139.205 16.25 139.235 16.08 139.295 15.78C139.355 15.48 139.425 15.26 139.505 15.12C139.545 15.04 139.555 14.97 139.535 14.91C139.535 14.83 139.525 14.62 139.505 14.28C139.505 13.94 139.515 13.33 139.535 12.45C139.515 11.73 139.445 11.2 139.325 10.86C139.225 10.5 139.095 10.28 138.935 10.2C138.895 10.16 138.795 10.12 138.635 10.08C138.495 10.04 138.345 10.02 138.185 10.02C138.025 10 137.875 10.02 137.735 10.08C137.635 10.1 137.495 10.15 137.315 10.23C137.155 10.29 137.015 10.32 136.895 10.32C136.735 10.4 136.625 10.5 136.565 10.62C136.505 10.72 136.475 10.8 136.475 10.86C136.475 11.02 136.405 11.17 136.265 11.31C136.125 11.43 135.965 11.44 135.785 11.34C135.465 11.36 135.245 11.4 135.125 11.46C135.025 11.52 134.925 11.65 134.825 11.85C134.745 12.03 134.575 12.34 134.315 12.78C133.755 13.22 133.355 13.65 133.115 14.07C132.875 14.49 132.735 14.81 132.695 15.03C132.275 15.79 131.965 16.38 131.765 16.8C131.565 17.2 131.425 17.56 131.345 17.88C131.265 18.2 131.205 18.59 131.165 19.05C130.985 19.39 130.855 19.75 130.775 20.13C130.695 20.51 130.625 20.76 130.565 20.88C130.525 20.98 130.505 21.17 130.505 21.45C130.505 21.71 130.515 22.01 130.535 22.35C130.575 22.67 130.615 22.97 130.655 23.25C130.715 23.51 130.775 23.7 130.835 23.82C130.955 24.28 131.245 24.54 131.705 24.6C132.165 24.66 132.815 24.5 133.655 24.12ZM144.081 28.17C143.501 28.13 143.081 28 142.821 27.78C142.561 27.58 142.431 27.25 142.431 26.79C142.551 26.37 142.671 26.02 142.791 25.74C142.931 25.46 143.021 25.19 143.061 24.93C143.121 24.69 143.181 24.46 143.241 24.24C143.301 24.02 143.381 23.75 143.481 23.43C143.641 22.95 143.821 22.36 144.021 21.66C144.241 20.96 144.471 20.26 144.711 19.56C144.951 18.84 145.161 18.25 145.341 17.79C145.501 17.33 145.631 16.94 145.731 16.62C145.851 16.3 145.971 15.99 146.091 15.69C146.211 15.39 146.341 15.04 146.481 14.64C146.481 14.64 146.531 14.49 146.631 14.19C146.751 13.87 146.871 13.51 146.991 13.11C147.131 12.69 147.251 12.32 147.351 12C147.471 11.68 147.531 11.52 147.531 11.52C147.751 11.06 147.941 10.63 148.101 10.23C148.281 9.81 148.431 9.37 148.551 8.91C148.451 8.75 148.381 8.57 148.341 8.37C148.321 8.17 148.331 7.99 148.371 7.83C148.451 7.55 148.601 7.33 148.821 7.17C149.041 7.01 149.331 6.97 149.691 7.05C149.971 7.11 150.341 7.16 150.801 7.2C151.281 7.24 151.711 7.26 152.091 7.26C152.491 7.26 152.691 7.26 152.691 7.26C152.811 7.2 153.161 7.12 153.741 7.02C154.321 6.92 155.021 6.81 155.841 6.69C156.661 6.57 157.491 6.46 158.331 6.36C159.191 6.26 159.951 6.17 160.611 6.09C160.851 6.05 161.091 6.05 161.331 6.09C161.591 6.13 161.821 6.17 162.021 6.21C162.461 6.29 162.821 6.52 163.101 6.9C163.401 7.28 163.501 7.68 163.401 8.1C163.281 8.46 163.121 8.66 162.921 8.7C162.741 8.74 162.411 8.64 161.931 8.4C161.751 8.68 161.651 8.85 161.631 8.91C161.611 8.97 161.591 9.06 161.571 9.18C161.571 9.3 161.471 9.58 161.271 10.02C161.191 10.14 161.071 10.38 160.911 10.74C160.771 11.1 160.621 11.51 160.461 11.97C160.321 12.41 160.201 12.82 160.101 13.2C160.001 13.58 159.951 13.85 159.951 14.01C159.931 14.03 159.841 14.31 159.681 14.85C159.541 15.39 159.361 16.06 159.141 16.86C158.961 17.46 158.771 18.09 158.571 18.75C158.391 19.41 158.211 20.06 158.031 20.7C157.851 21.32 157.691 21.88 157.551 22.38C157.411 22.88 157.301 23.27 157.221 23.55C157.141 23.81 157.101 23.92 157.101 23.88C157.081 24.32 157.031 24.74 156.951 25.14C156.891 25.54 156.851 25.94 156.831 26.34C156.891 26.52 156.881 26.67 156.801 26.79C156.741 26.91 156.671 26.98 156.591 27C156.331 27.22 155.961 27.33 155.481 27.33C155.001 27.33 154.661 27.2 154.461 26.94C154.321 26.66 154.221 26.43 154.161 26.25C154.101 26.07 154.081 25.9 154.101 25.74C154.141 25.16 154.211 24.59 154.311 24.03C154.411 23.45 154.501 22.9 154.581 22.38C154.701 21.8 154.831 21.29 154.971 20.85C155.111 20.39 155.201 20.19 155.241 20.25L155.841 18.09C156.021 17.59 156.141 17.17 156.201 16.83C156.261 16.47 156.331 16.1 156.411 15.72C156.511 15.34 156.661 14.86 156.861 14.28C157.061 13.8 157.221 13.31 157.341 12.81C157.481 12.31 157.611 11.81 157.731 11.31C157.811 11.05 157.911 10.74 158.031 10.38C158.151 10 158.271 9.67 158.391 9.39C158.511 9.09 158.591 8.94 158.631 8.94C158.171 8.98 157.791 9.03 157.491 9.09C157.211 9.15 156.911 9.21 156.591 9.27C156.291 9.31 155.861 9.37 155.301 9.45C155.021 9.47 154.671 9.52 154.251 9.6C153.851 9.66 153.441 9.72 153.021 9.78C152.601 9.84 152.251 9.89 151.971 9.93C151.851 9.95 151.741 9.97 151.641 9.99C151.561 9.99 151.501 9.99 151.461 9.99C151.381 10.21 151.211 10.61 150.951 11.19C150.691 11.77 150.411 12.41 150.111 13.11C149.811 13.81 149.541 14.44 149.301 15C149.201 15.26 149.101 15.53 149.001 15.81C148.901 16.07 148.791 16.33 148.671 16.59C148.571 16.85 148.471 17.12 148.371 17.4C148.271 17.66 148.171 17.93 148.071 18.21C147.971 18.47 147.871 18.73 147.771 18.99C147.571 19.63 147.391 20.2 147.231 20.7C147.091 21.2 146.951 21.64 146.811 22.02C146.691 22.4 146.581 22.74 146.481 23.04C146.381 23.34 146.281 23.62 146.181 23.88C146.061 24.26 145.941 24.63 145.821 24.99C145.721 25.33 145.621 25.75 145.521 26.25C145.501 26.43 145.471 26.61 145.431 26.79C145.391 26.95 145.351 27.12 145.311 27.3C145.171 27.6 145.011 27.82 144.831 27.96C144.671 28.12 144.421 28.19 144.081 28.17ZM167.377 28.26C166.977 28.16 166.487 28 165.907 27.78C165.327 27.56 164.807 27.32 164.347 27.06C163.887 26.8 163.627 26.58 163.567 26.4C163.567 26.3 163.527 26.22 163.447 26.16C163.367 26.08 163.277 26.04 163.177 26.04C163.177 26.04 163.177 26.03 163.177 26.01C163.177 25.99 163.177 25.92 163.177 25.8C163.177 25.72 163.177 25.64 163.177 25.56C163.197 25.46 163.157 25.38 163.057 25.32C162.917 25.02 162.877 24.53 162.937 23.85C163.017 23.17 163.147 22.44 163.327 21.66C163.527 20.86 163.727 20.17 163.927 19.59C163.927 19.41 163.957 19.23 164.017 19.05C164.097 18.87 164.137 18.73 164.137 18.63C164.197 18.45 164.307 18.18 164.467 17.82C164.627 17.44 164.817 17.03 165.037 16.59C165.257 16.13 165.477 15.7 165.697 15.3C165.917 14.88 166.117 14.56 166.297 14.34C166.297 14.24 166.367 14.11 166.507 13.95C166.647 13.79 166.757 13.57 166.837 13.29C166.997 13.13 167.197 12.86 167.437 12.48C167.697 12.1 167.927 11.75 168.127 11.43C168.547 11.09 168.807 10.79 168.907 10.53C169.007 10.25 169.037 10.03 168.997 9.87C169.017 9.57 169.107 9.34 169.267 9.18C169.427 9 169.677 8.85 170.017 8.73C170.357 8.61 170.787 8.49 171.307 8.37C171.947 8.13 172.597 7.96 173.257 7.86C173.937 7.76 174.797 7.7 175.837 7.68C176.157 7.6 176.407 7.56 176.587 7.56C176.767 7.54 176.857 7.53 176.857 7.53C176.897 7.49 177.077 7.49 177.397 7.53C177.717 7.57 178.077 7.66 178.477 7.8C178.877 7.92 179.217 8.07 179.497 8.25C179.797 8.43 179.937 8.64 179.917 8.88C179.917 9 179.697 9.14 179.257 9.3C178.817 9.44 178.307 9.58 177.727 9.72C177.147 9.84 176.637 9.93 176.197 9.99C175.297 10.09 174.547 10.18 173.947 10.26C173.347 10.34 172.837 10.47 172.417 10.65C172.017 10.81 171.637 11.07 171.277 11.43C170.937 11.79 170.547 12.31 170.107 12.99C169.707 13.63 169.417 14.15 169.237 14.55C169.057 14.93 168.987 15.21 169.027 15.39C169.087 15.57 169.227 15.66 169.447 15.66C169.687 15.66 169.987 15.64 170.347 15.6C170.707 15.54 170.947 15.51 171.067 15.51C171.067 15.51 171.247 15.45 171.607 15.33C171.987 15.19 172.457 15.08 173.017 15C173.657 14.88 174.087 14.79 174.307 14.73C174.547 14.65 174.777 14.6 174.997 14.58C175.677 14.52 176.087 14.64 176.227 14.94C176.367 15.24 176.307 15.58 176.047 15.96C175.807 16.34 175.437 16.63 174.937 16.83C174.737 16.91 174.487 17 174.187 17.1C173.887 17.2 173.607 17.29 173.347 17.37C173.087 17.43 172.917 17.46 172.837 17.46C172.837 17.46 172.757 17.48 172.597 17.52C172.457 17.54 172.257 17.55 171.997 17.55C171.937 17.55 171.647 17.59 171.127 17.67C170.607 17.73 170.117 17.79 169.657 17.85C168.957 18.03 168.427 18.18 168.067 18.3C167.727 18.4 167.477 18.54 167.317 18.72C167.157 18.9 166.997 19.19 166.837 19.59C166.657 20.03 166.497 20.54 166.357 21.12C166.217 21.68 166.107 22.24 166.027 22.8C165.967 23.36 165.947 23.85 165.967 24.27C166.007 24.67 166.097 24.94 166.237 25.08C166.597 25.46 167.077 25.7 167.677 25.8C168.277 25.88 168.897 25.84 169.537 25.68C170.197 25.52 170.767 25.29 171.247 24.99C171.407 24.87 171.597 24.75 171.817 24.63C172.057 24.49 172.287 24.38 172.507 24.3C172.767 24.14 172.967 24.09 173.107 24.15C173.267 24.21 173.537 24.38 173.917 24.66C174.257 25.14 174.237 25.6 173.857 26.04C173.497 26.46 172.757 26.91 171.637 27.39C170.597 27.77 169.767 28.02 169.147 28.14C168.547 28.26 167.957 28.3 167.377 28.26ZM182.406 27.75C182.306 27.75 182.136 27.7 181.896 27.6C181.656 27.52 181.426 27.41 181.206 27.27C181.006 27.13 180.906 26.98 180.906 26.82C180.906 26.82 180.896 26.76 180.876 26.64C180.876 26.5 180.836 26.36 180.756 26.22C180.756 26.06 180.756 25.88 180.756 25.68C180.776 25.46 180.826 25.24 180.906 25.02C180.906 24.8 180.936 24.56 180.996 24.3C181.056 24.02 181.126 23.81 181.206 23.67C181.206 23.45 181.256 23.17 181.356 22.83C181.476 22.47 181.576 22.14 181.656 21.84C181.876 21.18 182.036 20.7 182.136 20.4C182.256 20.1 182.336 19.88 182.376 19.74C182.416 19.58 182.436 19.42 182.436 19.26C182.496 19.1 182.586 18.81 182.706 18.39C182.826 17.97 182.946 17.54 183.066 17.1C183.206 16.64 183.296 16.31 183.336 16.11C183.416 16.03 183.456 15.96 183.456 15.9C183.476 15.82 183.486 15.74 183.486 15.66C183.486 15.66 183.556 15.43 183.696 14.97C183.836 14.51 184.016 13.98 184.236 13.38C184.596 12.32 184.836 11.55 184.956 11.07C185.096 10.59 185.156 10.25 185.136 10.05C185.136 9.85 185.086 9.65 184.986 9.45C184.846 9.19 184.846 8.99 184.986 8.85C185.066 8.77 185.136 8.68 185.196 8.58C185.256 8.46 185.286 8.4 185.286 8.4C185.286 8.36 185.426 8.28 185.706 8.16C186.006 8.02 186.366 7.87 186.786 7.71C187.206 7.53 187.626 7.37 188.046 7.23C188.466 7.07 188.806 6.95 189.066 6.87C189.126 6.87 189.266 6.87 189.486 6.87C189.726 6.87 189.976 6.87 190.236 6.87C190.516 6.87 190.736 6.87 190.896 6.87C191.416 6.95 191.946 7.1 192.486 7.32C193.046 7.54 193.516 7.85 193.896 8.25C194.136 8.47 194.396 8.78 194.676 9.18C194.976 9.58 195.276 10.12 195.576 10.8C195.576 10.88 195.596 11.05 195.636 11.31C195.696 11.55 195.726 11.79 195.726 12.03C195.726 12.63 195.576 13.31 195.276 14.07C194.996 14.83 194.576 15.6 194.016 16.38C193.456 17.14 192.776 17.85 191.976 18.51C191.136 19.19 190.266 19.65 189.366 19.89C188.466 20.13 187.666 20.18 186.966 20.04C186.566 19.88 186.296 19.66 186.156 19.38C186.016 19.08 185.956 18.8 185.976 18.54C185.996 18.28 186.036 18.12 186.096 18.06C186.256 18.02 186.496 18.01 186.816 18.03C187.136 18.03 187.646 17.9 188.346 17.64C188.566 17.56 188.796 17.47 189.036 17.37C189.276 17.25 189.466 17.15 189.606 17.07C190.006 16.81 190.406 16.48 190.806 16.08C191.226 15.68 191.656 15.13 192.096 14.43C192.276 14.15 192.406 13.84 192.486 13.5C192.566 13.16 192.616 12.82 192.636 12.48C192.676 12.12 192.696 11.81 192.696 11.55C192.856 11.03 192.756 10.6 192.396 10.26C192.056 9.9 191.506 9.68 190.746 9.6C190.506 9.54 190.206 9.53 189.846 9.57C189.506 9.61 189.186 9.68 188.886 9.78C188.586 9.86 188.356 9.95 188.196 10.05C188.116 10.05 188.066 10.11 188.046 10.23C188.026 10.35 187.976 10.49 187.896 10.65C187.896 10.79 187.836 11.09 187.716 11.55C187.596 11.99 187.456 12.4 187.296 12.78C187.156 13.22 186.986 13.71 186.786 14.25C186.586 14.77 186.446 15.18 186.366 15.48C186.286 15.8 186.186 16.11 186.066 16.41C185.966 16.71 185.916 16.86 185.916 16.86C185.916 16.94 185.856 17.11 185.736 17.37C185.636 17.63 185.546 17.91 185.466 18.21C185.386 18.59 185.276 19.02 185.136 19.5C185.016 19.98 184.876 20.41 184.716 20.79C184.496 21.53 184.306 22.27 184.146 23.01C183.986 23.73 183.976 24.2 184.116 24.42C184.716 24.44 185.026 24.57 185.046 24.81C185.086 25.03 184.776 25.55 184.116 26.37C183.916 26.87 183.716 27.21 183.516 27.39C183.316 27.59 183.116 27.7 182.916 27.72C182.736 27.74 182.566 27.75 182.406 27.75ZM194.832 27.99C194.472 27.79 194.272 27.57 194.232 27.33C194.212 27.09 194.352 26.67 194.652 26.07C194.952 25.47 195.422 24.54 196.062 23.28C196.542 22.38 196.862 21.68 197.022 21.18C197.202 20.66 197.302 20.29 197.322 20.07C197.342 19.85 197.352 19.71 197.352 19.65C197.312 19.47 197.332 19.33 197.412 19.23C197.492 19.11 197.622 19.01 197.802 18.93C197.902 18.83 198.132 18.65 198.492 18.39C198.852 18.13 199.132 17.82 199.332 17.46C199.512 17.04 199.712 16.61 199.932 16.17C200.172 15.73 200.482 15.18 200.862 14.52C201.242 13.84 201.752 12.96 202.392 11.88C202.792 11.18 203.262 10.39 203.802 9.51C204.362 8.63 204.912 7.83 205.452 7.11C205.672 6.83 205.902 6.61 206.142 6.45C206.382 6.29 206.592 6.21 206.772 6.21C207.212 6.21 207.652 6.33 208.092 6.57C208.532 6.79 208.922 7.07 209.262 7.41C209.602 7.75 209.832 8.07 209.952 8.37C210.052 8.53 210.092 8.87 210.072 9.39C210.052 9.91 210.012 10.54 209.952 11.28C209.892 12.02 209.822 12.81 209.742 13.65C209.682 14.47 209.592 15.44 209.472 16.56C209.352 17.68 209.232 18.85 209.112 20.07C209.012 21.29 208.932 22.47 208.872 23.61C208.812 24.73 208.812 25.71 208.872 26.55C208.892 26.73 208.892 26.9 208.872 27.06C208.852 27.22 208.842 27.35 208.842 27.45C208.722 27.57 208.462 27.62 208.062 27.6C207.662 27.6 207.272 27.54 206.892 27.42C206.512 27.3 206.302 27.15 206.262 26.97C206.202 26.91 206.162 26.86 206.142 26.82C206.122 26.78 206.122 26.59 206.142 26.25C206.162 25.89 206.192 25.24 206.232 24.3L206.382 19.71L205.992 19.74C205.812 19.74 205.482 19.76 205.002 19.8C204.542 19.84 204.032 19.9 203.472 19.98C202.932 20.04 202.432 20.11 201.972 20.19C201.512 20.25 201.192 20.31 201.012 20.37C200.832 20.37 200.612 20.49 200.352 20.73C200.112 20.97 199.882 21.28 199.662 21.66C199.582 21.94 199.432 22.24 199.212 22.56C199.012 22.86 198.912 23.06 198.912 23.16C198.772 23.26 198.652 23.38 198.552 23.52C198.472 23.66 198.432 23.73 198.432 23.73C198.432 23.85 198.342 24.15 198.162 24.63C197.982 25.09 197.762 25.61 197.502 26.19C197.242 26.75 196.972 27.24 196.692 27.66L195.882 28.8L194.832 27.99ZM202.002 17.67C202.002 17.67 202.112 17.65 202.332 17.61C202.552 17.57 202.812 17.53 203.112 17.49C203.432 17.43 203.712 17.4 203.952 17.4C204.412 17.28 204.792 17.19 205.092 17.13C205.412 17.07 205.672 17.04 205.872 17.04C206.072 17.02 206.232 17.04 206.352 17.1C206.432 17.2 206.502 17.26 206.562 17.28C206.642 17.3 206.682 17.31 206.682 17.31C206.702 17.27 206.742 17.06 206.802 16.68C206.862 16.3 206.932 15.83 207.012 15.27C207.092 14.71 207.172 14.13 207.252 13.53C207.332 12.91 207.402 12.34 207.462 11.82C207.522 11.28 207.562 10.86 207.582 10.56C207.602 10.18 207.592 9.84 207.552 9.54C207.512 9.22 207.492 9.06 207.492 9.06C207.372 9.06 207.142 9.28 206.802 9.72C206.482 10.14 206.102 10.71 205.662 11.43C205.242 12.13 204.822 12.89 204.402 13.71C204.202 14.09 204.012 14.39 203.832 14.61C203.672 14.83 203.542 14.94 203.442 14.94C203.402 14.98 203.292 15.14 203.112 15.42C202.952 15.68 202.772 15.98 202.572 16.32C202.392 16.64 202.232 16.94 202.092 17.22C201.972 17.48 201.942 17.63 202.002 17.67ZM226.144 33.18C225.724 33.08 225.384 32.82 225.124 32.4C224.864 32 224.804 31.59 224.944 31.17C225.084 30.81 225.234 30.43 225.394 30.03C225.554 29.63 225.694 29.23 225.814 28.83C225.954 28.45 226.064 28.09 226.144 27.75C226.244 27.43 226.294 27.17 226.294 26.97C225.554 26.97 224.834 26.99 224.134 27.03C223.434 27.09 222.724 27.2 222.004 27.36C221.744 27.44 221.494 27.53 221.254 27.63C221.034 27.75 220.814 27.86 220.594 27.96C220.414 28.04 220.244 28.12 220.084 28.2C219.924 28.28 219.764 28.34 219.604 28.38C218.984 28.56 218.414 28.63 217.894 28.59C217.374 28.57 216.894 28.64 216.454 28.8C216.314 28.84 216.104 28.84 215.824 28.8C215.564 28.78 215.304 28.73 215.044 28.65C214.784 28.59 214.574 28.54 214.414 28.5C213.954 28.34 213.524 28.04 213.124 27.6C212.744 27.16 212.554 26.69 212.554 26.19C212.554 25.69 212.564 25.23 212.584 24.81C212.604 24.37 212.654 23.91 212.734 23.43C212.834 22.75 212.984 22.03 213.184 21.27C213.404 20.49 213.644 19.69 213.904 18.87C214.164 18.05 214.434 17.23 214.714 16.41C215.014 15.59 215.304 14.79 215.584 14.01C215.864 13.23 216.124 12.51 216.364 11.85C216.604 11.17 216.794 10.57 216.934 10.05C217.154 9.85 217.334 9.59 217.474 9.27C217.634 8.93 217.784 8.57 217.924 8.19C218.064 7.79 218.204 7.41 218.344 7.05C218.484 6.67 218.644 6.34 218.824 6.06C218.924 5.9 219.024 5.77 219.124 5.67C219.224 5.55 219.334 5.46 219.454 5.4C219.934 5.46 220.314 5.56 220.594 5.7C220.894 5.84 221.104 6.02 221.224 6.24C221.364 6.44 221.434 6.68 221.434 6.96C221.434 7.18 221.394 7.43 221.314 7.71C221.234 7.97 221.114 8.26 220.954 8.58C220.634 9.16 220.354 9.75 220.114 10.35C219.874 10.95 219.644 11.56 219.424 12.18C219.264 12.66 219.094 13.14 218.914 13.62C218.754 14.1 218.574 14.57 218.374 15.03C217.914 16.15 217.464 17.34 217.024 18.6C216.584 19.86 216.224 21.14 215.944 22.44C215.664 23.74 215.524 25.01 215.524 26.25C215.544 26.17 215.654 26.12 215.854 26.1C216.054 26.06 216.274 26.03 216.514 26.01C216.754 25.97 216.914 25.94 216.994 25.92C217.154 25.92 217.334 25.91 217.534 25.89C217.734 25.85 217.934 25.81 218.134 25.77C218.674 25.65 219.234 25.5 219.814 25.32C220.414 25.12 221.014 24.93 221.614 24.75C222.214 24.57 222.774 24.44 223.294 24.36C223.274 24.06 223.324 23.75 223.444 23.43C223.584 23.09 223.664 22.76 223.684 22.44C223.784 22.24 223.864 22.05 223.924 21.87C223.984 21.67 224.034 21.48 224.074 21.3C224.134 21.1 224.184 20.91 224.224 20.73C224.384 19.97 224.614 19.22 224.914 18.48C225.214 17.74 225.494 17.01 225.754 16.29C225.954 15.73 226.154 15.17 226.354 14.61C226.554 14.05 226.754 13.49 226.954 12.93C227.174 12.35 227.404 11.78 227.644 11.22C227.884 10.64 228.104 10.06 228.304 9.48C228.224 9.3 228.174 9.15 228.154 9.03C228.134 8.89 228.144 8.78 228.184 8.7C228.244 8.56 228.434 8.4 228.754 8.22C228.914 8.12 229.004 7.94 229.024 7.68C229.064 7.4 229.104 7.18 229.144 7.02C229.244 6.64 229.334 6.41 229.414 6.33C229.514 6.25 229.634 6.2 229.774 6.18C229.914 6.14 230.094 6.03 230.314 5.85C230.654 5.95 230.904 6.04 231.064 6.12C231.224 6.18 231.364 6.27 231.484 6.39C231.624 6.51 231.814 6.69 232.054 6.93C232.114 7.21 232.104 7.53 232.024 7.89C231.964 8.23 231.864 8.59 231.724 8.97C231.604 9.33 231.464 9.68 231.304 10.02C231.164 10.36 231.034 10.65 230.914 10.89C230.254 12.57 229.614 14.25 228.994 15.93C228.394 17.61 227.834 19.22 227.314 20.76C227.194 21.14 227.074 21.52 226.954 21.9C226.854 22.28 226.754 22.67 226.654 23.07C226.614 23.23 226.564 23.39 226.504 23.55C226.464 23.71 226.424 23.87 226.384 24.03L226.294 24.39C226.574 24.43 226.854 24.46 227.134 24.48C227.414 24.48 227.684 24.51 227.944 24.57C228.224 24.61 228.474 24.72 228.694 24.9C228.734 24.98 228.774 25.06 228.814 25.14C228.854 25.22 228.894 25.3 228.934 25.38C229.114 25.68 229.204 26.04 229.204 26.46C229.224 26.88 229.194 27.3 229.114 27.72C229.054 28.16 228.994 28.55 228.934 28.89C228.834 29.39 228.664 29.88 228.424 30.36C228.184 30.84 228.024 31.34 227.944 31.86C227.864 32.42 227.684 32.81 227.404 33.03C227.144 33.27 226.724 33.32 226.144 33.18ZM248.371 28.26C248.211 28.56 247.971 28.7 247.651 28.68C247.331 28.68 247.001 28.57 246.661 28.35C246.341 28.15 246.061 27.91 245.821 27.63C245.581 27.35 245.461 27.09 245.461 26.85C245.481 26.71 245.491 26.58 245.491 26.46C245.491 26.34 245.501 26.21 245.521 26.07C245.681 25.65 245.821 25.22 245.941 24.78C246.081 24.32 246.201 23.86 246.301 23.4C246.501 22.62 246.681 21.83 246.841 21.03C247.021 20.23 247.211 19.46 247.411 18.72C247.511 18.3 247.611 17.9 247.711 17.52C247.831 17.14 247.951 16.74 248.071 16.32C248.211 15.9 248.351 15.44 248.491 14.94C248.651 14.42 248.831 13.83 249.031 13.17C249.251 12.51 249.501 11.74 249.781 10.86C249.721 10.94 249.651 11.02 249.571 11.1C249.511 11.18 249.451 11.27 249.391 11.37C249.071 11.77 248.741 12.18 248.401 12.6C248.081 13.02 247.751 13.45 247.411 13.89C246.971 14.45 246.511 15.03 246.031 15.63C245.571 16.21 245.111 16.8 244.651 17.4C244.291 17.86 243.931 18.32 243.571 18.78C243.211 19.24 242.861 19.7 242.521 20.16C242.261 20.52 242.001 20.87 241.741 21.21C241.481 21.55 241.221 21.89 240.961 22.23C240.761 22.51 240.421 22.93 239.941 23.49C239.481 24.05 238.971 24.64 238.411 25.26C237.871 25.88 237.351 26.45 236.851 26.97C236.371 27.47 236.011 27.8 235.771 27.96C235.511 28.14 235.191 28.22 234.811 28.2C234.451 28.2 234.121 28.11 233.821 27.93C233.541 27.75 233.371 27.48 233.311 27.12C233.271 26.82 233.291 26.42 233.371 25.92C233.451 25.4 233.561 24.82 233.701 24.18C233.861 23.52 234.041 22.84 234.241 22.14C234.301 21.94 234.351 21.75 234.391 21.57C234.451 21.37 234.511 21.18 234.571 21C234.611 20.88 234.651 20.76 234.691 20.64C234.731 20.5 234.771 20.37 234.811 20.25C234.931 19.87 235.041 19.51 235.141 19.17C235.261 18.81 235.371 18.47 235.471 18.15C235.571 17.85 235.651 17.58 235.711 17.34C235.791 17.08 235.861 16.85 235.921 16.65C236.001 16.43 236.061 16.24 236.101 16.08C236.181 15.86 236.251 15.64 236.311 15.42C236.391 15.18 236.471 14.94 236.551 14.7C236.571 14.64 236.591 14.58 236.611 14.52C236.631 14.46 236.651 14.41 236.671 14.37C236.791 14.01 236.911 13.65 237.031 13.29C237.171 12.93 237.311 12.57 237.451 12.21L237.601 11.85C237.701 11.61 237.801 11.38 237.901 11.16C238.001 10.92 238.091 10.69 238.171 10.47C238.131 10.35 238.131 10.23 238.171 10.11C238.211 9.97 238.271 9.86 238.351 9.78C238.351 9.74 238.361 9.67 238.381 9.57C238.421 9.47 238.471 9.35 238.531 9.21C238.651 8.95 238.771 8.67 238.891 8.37C239.031 8.07 239.161 7.79 239.281 7.53C239.401 7.27 239.481 7.09 239.521 6.99C239.581 6.77 239.661 6.58 239.761 6.42C239.861 6.26 239.961 6.13 240.061 6.03C240.361 5.75 240.691 5.63 241.051 5.67C241.411 5.69 241.731 5.83 242.011 6.09C242.291 6.35 242.471 6.68 242.551 7.08C242.631 7.48 242.531 7.92 242.251 8.4C242.111 8.64 241.991 8.9 241.891 9.18C241.811 9.44 241.711 9.7 241.591 9.96C241.391 10.44 241.191 10.93 240.991 11.43C240.791 11.91 240.581 12.41 240.361 12.93C240.141 13.49 239.931 14.06 239.731 14.64C239.531 15.2 239.331 15.76 239.131 16.32C238.931 16.88 238.741 17.44 238.561 18C238.381 18.54 238.201 19.08 238.021 19.62C237.861 20.16 237.701 20.68 237.541 21.18C237.401 21.68 237.271 22.17 237.151 22.65C237.451 22.29 237.751 21.93 238.051 21.57C238.371 21.21 238.681 20.85 238.981 20.49C239.341 20.09 239.701 19.68 240.061 19.26C240.421 18.84 240.771 18.41 241.111 17.97C241.611 17.29 242.141 16.58 242.701 15.84C243.281 15.08 243.871 14.32 244.471 13.56C244.651 13.34 244.821 13.12 244.981 12.9C245.161 12.68 245.341 12.46 245.521 12.24C246.101 11.52 246.681 10.81 247.261 10.11C247.841 9.39 248.391 8.72 248.911 8.1C249.111 7.84 249.381 7.54 249.721 7.2C250.081 6.86 250.451 6.54 250.831 6.24C251.211 5.92 251.541 5.7 251.821 5.58C252.101 5.44 252.391 5.42 252.691 5.52C253.011 5.62 253.281 5.78 253.501 6C253.881 6.38 254.101 6.81 254.161 7.29C254.181 7.39 254.181 7.5 254.161 7.62C254.161 7.72 254.141 7.82 254.101 7.92C254.021 8.12 253.881 8.46 253.681 8.94C253.501 9.4 253.291 9.93 253.051 10.53C252.831 11.11 252.611 11.68 252.391 12.24C252.351 12.36 252.301 12.48 252.241 12.6C252.201 12.72 252.161 12.83 252.121 12.93C251.961 13.35 251.831 13.72 251.731 14.04C251.631 14.36 251.581 14.58 251.581 14.7C251.581 14.78 251.521 15.05 251.401 15.51C251.321 15.83 251.211 16.23 251.071 16.71C250.951 17.19 250.811 17.69 250.651 18.21C250.471 18.89 250.281 19.57 250.081 20.25C249.901 20.91 249.741 21.49 249.601 21.99C249.461 22.49 249.361 22.82 249.301 22.98C249.081 23.84 248.901 24.72 248.761 25.62C248.621 26.5 248.491 27.38 248.371 28.26ZM264.653 29.79C264.153 29.59 263.783 29.31 263.543 28.95C263.303 28.61 263.233 28.21 263.333 27.75C263.293 27.91 263.323 27.88 263.423 27.66C263.543 27.44 263.693 27.11 263.873 26.67C264.073 26.23 264.283 25.74 264.503 25.2C264.723 24.64 264.933 24.09 265.133 23.55C265.353 23.01 265.533 22.55 265.673 22.17C266.013 21.31 266.323 20.53 266.603 19.83C266.883 19.13 267.113 18.53 267.293 18.03C267.493 17.53 267.643 17.14 267.743 16.86C267.843 16.58 267.893 16.43 267.893 16.41C268.093 15.95 268.283 15.42 268.463 14.82C268.663 14.2 268.873 13.67 269.093 13.23C269.213 12.95 269.323 12.66 269.423 12.36C269.543 12.06 269.653 11.76 269.753 11.46C269.233 12.06 268.673 12.72 268.073 13.44C267.493 14.14 266.883 14.86 266.243 15.6C265.623 16.34 264.993 17.08 264.353 17.82C263.733 18.56 263.133 19.27 262.553 19.95C261.993 20.63 261.473 21.26 260.993 21.84C260.513 22.4 260.103 22.88 259.763 23.28C259.423 23.66 259.173 23.94 259.013 24.12C258.573 24.46 258.163 24.83 257.783 25.23C257.423 25.61 257.023 25.97 256.583 26.31C256.403 26.45 256.163 26.64 255.863 26.88C255.583 27.1 255.303 27.3 255.023 27.48C254.763 27.66 254.543 27.75 254.363 27.75C253.563 27.61 253.053 27.37 252.833 27.03C252.633 26.71 252.593 26.33 252.713 25.89C252.853 25.43 253.013 24.96 253.193 24.48C253.293 24.2 253.383 23.91 253.463 23.61C253.543 23.31 253.603 22.99 253.643 22.65C253.803 21.95 253.963 21.34 254.123 20.82C254.283 20.3 254.433 19.83 254.573 19.41C254.713 18.93 254.843 18.46 254.963 18C255.103 17.54 255.183 17.09 255.203 16.65C255.403 16.29 255.603 15.87 255.803 15.39C256.003 14.89 256.183 14.41 256.343 13.95C256.523 13.49 256.663 13.15 256.763 12.93C256.983 12.45 257.163 11.95 257.303 11.43C257.463 10.91 257.653 10.4 257.873 9.9C258.013 9.62 258.203 9.26 258.443 8.82C258.683 8.36 258.903 7.9 259.103 7.44C259.303 6.98 259.403 6.61 259.403 6.33C259.403 6.03 259.513 5.82 259.733 5.7C259.953 5.58 260.213 5.54 260.513 5.58C260.813 5.6 261.083 5.7 261.323 5.88C261.583 6.04 261.743 6.27 261.803 6.57C261.883 6.79 261.923 7.03 261.923 7.29C261.943 7.55 261.903 7.8 261.803 8.04L259.313 14.37L256.583 21.57C256.463 21.87 256.343 22.17 256.223 22.47C256.103 22.77 255.983 23.07 255.863 23.37L261.923 17.31C262.263 16.95 262.593 16.58 262.913 16.2C263.253 15.82 263.563 15.44 263.843 15.06C264.243 14.52 264.643 14.03 265.043 13.59C265.443 13.13 265.813 12.72 266.153 12.36C266.513 12 266.833 11.68 267.113 11.4C267.393 11.12 267.623 10.89 267.803 10.71L271.613 6.66L272.363 6.36C272.743 6.32 273.063 6.41 273.323 6.63C273.583 6.85 273.753 7.13 273.833 7.47C273.933 7.79 273.923 8.1 273.803 8.4C273.723 8.58 273.593 8.88 273.413 9.3C273.233 9.72 273.023 10.23 272.783 10.83C272.543 11.41 272.283 12.05 272.003 12.75C271.723 13.45 271.433 14.18 271.133 14.94C270.853 15.68 270.563 16.43 270.263 17.19C269.983 17.93 269.713 18.64 269.453 19.32C269.313 19.74 269.163 20.16 269.003 20.58C268.863 20.98 268.723 21.39 268.583 21.81C268.443 22.23 268.303 22.65 268.163 23.07C268.023 23.49 267.873 23.91 267.713 24.33C267.573 24.73 267.433 25.14 267.293 25.56C267.213 25.84 267.113 26.11 266.993 26.37C266.873 26.63 266.763 26.88 266.663 27.12C266.543 27.34 266.443 27.55 266.363 27.75C266.283 27.97 266.203 28.28 266.123 28.68C266.003 29.1 265.793 29.42 265.493 29.64C265.213 29.88 264.933 29.93 264.653 29.79ZM266.213 5.31C265.413 5.31 264.773 5.07 264.293 4.59C263.833 4.09 263.453 3.45 263.153 2.67C263.113 2.51 263.093 2.34 263.093 2.16C263.093 1.98 263.183 1.77 263.363 1.53C263.483 1.41 263.643 1.34 263.843 1.32C264.063 1.3 264.213 1.31 264.293 1.35C264.753 1.43 265.073 1.6 265.253 1.86C265.453 2.1 265.553 2.39 265.553 2.73C265.613 2.83 265.663 2.92 265.703 3C265.743 3.06 265.783 3.13 265.823 3.21C265.923 3.29 266.023 3.33 266.123 3.33C266.243 3.33 266.493 3.26 266.873 3.12C267.413 2.94 267.853 2.72 268.193 2.46C268.553 2.18 268.893 1.91 269.213 1.65C269.493 1.43 269.703 1.27 269.843 1.17C270.003 1.05 270.123 0.979999 270.203 0.959999L270.263 0.929999C270.483 0.889999 270.693 0.889999 270.893 0.929999C271.113 0.969999 271.263 1.06 271.343 1.2C271.443 1.32 271.503 1.49 271.523 1.71C271.563 1.91 271.573 2.09 271.553 2.25L271.523 2.31C271.443 2.49 271.333 2.7 271.193 2.94C271.073 3.18 270.823 3.43 270.443 3.69C270.123 3.91 269.763 4.14 269.363 4.38C268.963 4.6 268.533 4.8 268.073 4.98C267.933 5.06 267.753 5.14 267.533 5.22C267.313 5.28 266.873 5.31 266.213 5.31Z" fill="black"/>
</svg>
