<svg width="24" height="24" viewBox="0 0 24 24" fill="none" xmlns="http://www.w3.org/2000/svg">
<path fill-rule="evenodd" clip-rule="evenodd" d="M12.7097 2.0224C13.2497 2.13812 13.5936 2.66971 13.4779 3.20974C13.2363 4.3374 12.9182 6.24358 12.7595 8.25391C12.6881 9.15806 12.6509 10.062 12.6631 10.9134C15.944 10.8041 19.2596 10.4171 21.6638 9.55847C22.1839 9.37271 22.7561 9.64376 22.9419 10.1639C23.1276 10.684 22.8566 11.2562 22.3365 11.4419C19.6669 12.3954 16.1423 12.7946 12.8065 12.9098C12.8501 13.2101 12.9043 13.4939 12.9703 13.7577C13.8044 17.0941 13.6752 20.0327 13.4865 21.1646C13.3957 21.7094 12.8805 22.0774 12.3357 21.9866C11.791 21.8958 11.4229 21.3806 11.5137 20.8358C11.6584 19.9677 11.7959 17.3063 11.03 14.2427C10.9284 13.8363 10.8508 13.4013 10.7937 12.9471C7.49876 12.9575 4.5127 12.7264 2.85871 12.4902C2.31197 12.4121 1.93207 11.9055 2.01018 11.3588C2.08828 10.8121 2.59481 10.4322 3.14155 10.5103C4.66766 10.7283 7.50235 10.9514 10.6633 10.9474C10.6493 9.99842 10.6924 9.02579 10.7657 8.0965C10.932 5.99016 11.264 3.99635 11.5223 2.79068C11.638 2.25065 12.1696 1.90668 12.7097 2.0224Z" fill="black"/>
</svg>
