<svg width="52" height="52" viewBox="0 0 52 52" fill="none" xmlns="http://www.w3.org/2000/svg">
<g filter="url(#filter0_d_41_11774)">
<rect width="48" height="48" rx="24" fill="white" shape-rendering="crispEdges"/>
<path fill-rule="evenodd" clip-rule="evenodd" d="M24.489 16C21.124 15.9631 19.2407 16.1246 15.931 16.7336C15.3878 16.8335 14.8665 16.4743 14.7665 15.9311C14.6666 15.3879 15.0259 14.8666 15.569 14.7666C19.0053 14.1343 21.0172 13.9618 24.511 14.0002C26.087 14.0175 28.0682 14.2104 29.6321 14.3945C30.419 14.4871 31.1096 14.5786 31.6038 14.6471C31.8509 14.6813 32.0492 14.7098 32.1861 14.7297C32.2546 14.7397 32.3077 14.7476 32.3439 14.753L32.3854 14.7592L32.4003 14.7615C32.9463 14.8446 33.3217 15.3545 33.2386 15.9005C33.1555 16.4465 32.6456 16.8218 32.0996 16.7387L32.0874 16.7369L32.0488 16.7311L31.8973 16.7088C31.7647 16.6894 31.5713 16.6616 31.3295 16.6282C30.8456 16.5612 30.1688 16.4715 29.3983 16.3808C27.8473 16.1982 25.9535 16.0161 24.489 16Z" fill="black"/>
<path fill-rule="evenodd" clip-rule="evenodd" d="M20.1908 19.5955L20.2191 19.6315L20.3037 19.7382C20.3777 19.8315 20.4858 19.9672 20.6216 20.1364C20.8933 20.4747 21.2752 20.9459 21.7155 21.4766C22.601 22.5441 23.7043 23.8302 24.6188 24.7636C25.7864 25.9552 27.2571 27.2431 28.4484 28.2421C28.4883 28.2755 28.5279 28.3086 28.5671 28.3414C28.4645 27.4025 28.3819 26.3332 28.4049 25.4377C28.4273 24.5647 28.5596 23.4851 28.6804 22.6495C28.7416 22.2262 28.8015 21.855 28.846 21.5894C28.8683 21.4564 28.8869 21.3496 28.8999 21.2756L28.9151 21.19L28.9193 21.1671L28.9207 21.1591C28.9207 21.1591 28.9209 21.1583 29.8674 21.3316L28.9207 21.1591C29.0202 20.6159 29.5414 20.2553 30.0847 20.3548C30.6279 20.4543 30.9876 20.9753 30.8882 21.5185L30.8871 21.5242L30.8836 21.5439L30.8696 21.6226C30.8574 21.6918 30.8398 21.7932 30.8185 21.9203C30.7758 22.1747 30.7184 22.5306 30.6598 22.9357C30.5411 23.7571 30.4234 24.7399 30.4042 25.4891C30.3798 26.4398 30.4965 27.6905 30.627 28.7367C30.6914 29.2527 30.7574 29.7063 30.8073 30.0305C30.819 30.1066 30.8298 30.1754 30.8395 30.2362C30.9262 30.7808 30.8951 31.1245 30.627 31.4037C30.3742 31.6671 30.1512 31.7134 29.5342 31.7134H20.5295C19.9772 31.7134 19.5295 31.2657 19.5295 30.7134C19.5295 30.1611 19.9772 29.7134 20.5295 29.7134H27.0904C25.8944 28.7083 24.4015 27.3995 23.1902 26.1633C22.2149 25.1679 21.0682 23.8289 20.1762 22.7536C19.7277 22.2129 19.3389 21.7333 19.0622 21.3886C18.9237 21.2162 18.8132 21.0775 18.7371 20.9815L18.6495 20.8709L18.6189 20.8322L18.6183 20.8313C18.277 20.3971 18.3524 19.7684 18.7866 19.4272C19.2208 19.0859 19.8495 19.1613 20.1908 19.5955Z" fill="black"/>
</g>
<defs>
<filter id="filter0_d_41_11774" x="0" y="0" width="52" height="52" filterUnits="userSpaceOnUse" color-interpolation-filters="sRGB">
<feFlood flood-opacity="0" result="BackgroundImageFix"/>
<feColorMatrix in="SourceAlpha" type="matrix" values="0 0 0 0 0 0 0 0 0 0 0 0 0 0 0 0 0 0 127 0" result="hardAlpha"/>
<feOffset dx="4" dy="4"/>
<feComposite in2="hardAlpha" operator="out"/>
<feColorMatrix type="matrix" values="0 0 0 0 0 0 0 0 0 0 0 0 0 0 0 0 0 0 1 0"/>
<feBlend mode="normal" in2="BackgroundImageFix" result="effect1_dropShadow_41_11774"/>
<feBlend mode="normal" in="SourceGraphic" in2="effect1_dropShadow_41_11774" result="shape"/>
</filter>
</defs>
</svg>
