<svg width="60" height="145" viewBox="0 0 60 145" fill="none" xmlns="http://www.w3.org/2000/svg">
<g filter="url(#filter0_d_41_8124)">
<rect y="15" width="56" height="86" rx="12" fill="white" shape-rendering="crispEdges"/>
<path d="M8.84975 81.04C8.65775 80.9867 8.50308 80.9387 8.38575 80.896C8.26842 80.864 8.20975 80.848 8.20975 80.848C8.23108 80.7947 8.22042 80.7467 8.17775 80.704C8.14575 80.6613 8.07108 80.6347 7.95375 80.624C7.79375 80.5173 7.62842 80.368 7.45775 80.176C7.28708 79.984 7.13775 79.7867 7.00975 79.584C6.88175 79.3813 6.79642 79.232 6.75375 79.136C6.67908 78.976 6.68442 78.88 6.76975 78.848C6.85508 78.8053 6.95642 78.7573 7.07375 78.704C7.19108 78.6187 7.31375 78.5547 7.44175 78.512C7.58042 78.4693 7.69242 78.5387 7.77775 78.72C7.91642 78.9653 8.12975 79.1733 8.41775 79.344C8.71642 79.5147 9.05242 79.616 9.42575 79.648C9.80975 79.68 10.1938 79.616 10.5778 79.456C10.8338 79.3387 10.9724 79.1787 10.9938 78.976C11.0151 78.7627 10.9351 78.5173 10.7538 78.24C10.7218 78.1547 10.6738 78.0853 10.6098 78.032C10.5564 77.9787 10.4711 77.9093 10.3538 77.824C10.2471 77.7387 10.0924 77.6 9.88975 77.408C9.72975 77.3333 9.58042 77.264 9.44175 77.2C9.31375 77.136 9.17508 77.0667 9.02575 76.992C8.85508 76.9067 8.66308 76.7893 8.44975 76.64C8.23642 76.48 8.03908 76.3093 7.85775 76.128C7.67642 75.936 7.53775 75.7547 7.44175 75.584C7.27108 75.424 7.16442 75.2053 7.12175 74.928C7.07908 74.64 7.08442 74.336 7.13775 74.016C7.20175 73.696 7.30308 73.408 7.44175 73.152C7.50575 73.0027 7.62308 72.8107 7.79375 72.576C7.96442 72.3307 8.15642 72.08 8.36975 71.824C8.58308 71.568 8.78575 71.3387 8.97775 71.136C9.18042 70.9227 9.34042 70.7787 9.45775 70.704C9.54308 70.6187 9.63375 70.5333 9.72975 70.448C9.82575 70.352 9.87375 70.304 9.87375 70.304C9.88442 70.2507 9.90042 70.224 9.92175 70.224C9.95375 70.224 9.96975 70.224 9.96975 70.224C10.0231 70.192 10.1404 70.1387 10.3218 70.064C10.5031 69.9893 10.7004 69.8507 10.9138 69.648C11.6284 69.3067 12.2364 69.0773 12.7378 68.96C13.2391 68.832 13.6338 68.768 13.9218 68.768C14.1884 68.7787 14.4498 68.8533 14.7058 68.992C14.9618 69.12 15.1804 69.2853 15.3618 69.488C15.5538 69.6907 15.6658 69.92 15.6978 70.176C15.7724 70.432 15.7351 70.7413 15.5858 71.104C15.4471 71.456 15.2498 71.792 14.9938 72.112C14.7484 72.4213 14.4924 72.6507 14.2258 72.8C13.9271 72.928 13.6711 72.944 13.4578 72.848C13.2551 72.752 13.1591 72.6027 13.1698 72.4C13.1698 72.3147 13.1964 72.2133 13.2498 72.096C13.3138 71.9787 13.4791 71.7707 13.7458 71.472C14.0871 70.9707 14.2684 70.6133 14.2898 70.4C14.3111 70.1867 14.2151 70.064 14.0017 70.032C13.9378 70.0107 13.8151 70.016 13.6337 70.048C13.4524 70.08 13.2551 70.1227 13.0417 70.176C12.8391 70.2187 12.6578 70.2667 12.4978 70.32C12.3484 70.3733 12.2738 70.4107 12.2738 70.432C12.2738 70.432 12.2738 70.448 12.2738 70.48C12.2738 70.512 12.2524 70.5227 12.2098 70.512C12.1884 70.512 12.1138 70.5493 11.9858 70.624C11.8684 70.688 11.7244 70.7733 11.5538 70.88C11.3831 70.9867 11.2124 71.0987 11.0418 71.216C10.8818 71.3227 10.7431 71.4187 10.6258 71.504C10.5084 71.5893 10.4444 71.6427 10.4338 71.664C10.4124 71.7813 10.2898 71.888 10.0658 71.984C9.85242 72.112 9.66575 72.2933 9.50575 72.528C9.34575 72.7627 9.15908 73.0613 8.94575 73.424C8.76442 73.6693 8.63642 73.936 8.56175 74.224C8.48708 74.5013 8.48708 74.7253 8.56175 74.896C8.61508 75.0667 8.75908 75.2373 8.99375 75.408C9.23908 75.568 9.56975 75.7707 9.98575 76.016C10.3484 76.2187 10.6898 76.432 11.0098 76.656C11.3298 76.88 11.6018 77.0987 11.8258 77.312C12.0498 77.5147 12.1938 77.6853 12.2578 77.824C12.3858 78.0053 12.4604 78.2133 12.4818 78.448C12.5138 78.6827 12.5138 78.912 12.4818 79.136C12.4604 79.3493 12.4284 79.5253 12.3858 79.664C12.3111 79.8347 12.1938 80.016 12.0338 80.208C11.8844 80.4 11.7458 80.4907 11.6178 80.48C11.5004 80.512 11.4098 80.5493 11.3458 80.592C11.2924 80.6347 11.2284 80.672 11.1538 80.704C11.0791 80.7467 10.9031 80.7947 10.6258 80.848C10.3484 80.912 10.0444 80.96 9.71375 80.992C9.38308 81.0347 9.09508 81.0507 8.84975 81.04ZM17.1839 80.672C17.1412 80.7147 17.0932 80.7307 17.0399 80.72C16.9865 80.72 16.9012 80.6933 16.7839 80.64C16.5812 80.5867 16.3999 80.4693 16.2399 80.288C16.0905 80.1067 16.0692 79.8987 16.1759 79.664C16.2185 79.5893 16.2719 79.4293 16.3359 79.184C16.4105 78.928 16.4905 78.6347 16.5759 78.304C16.6612 77.9733 16.7465 77.6427 16.8319 77.312C16.9172 76.9813 16.9919 76.6933 17.0559 76.448C17.1199 76.192 17.1625 76.0213 17.1839 75.936C17.1839 75.8507 17.2052 75.68 17.2479 75.424C17.3012 75.168 17.3492 74.88 17.3919 74.56C17.5092 74.336 17.5892 74.0907 17.6319 73.824C17.6852 73.5573 17.7225 73.3653 17.7439 73.248C17.7865 73.0773 17.8345 72.896 17.8879 72.704C17.9519 72.512 18.0052 72.32 18.0479 72.128C18.0905 71.9573 18.1332 71.7813 18.1759 71.6C18.2292 71.4187 18.2559 71.3013 18.2559 71.248V70.992H17.6639C17.5039 71.0027 17.3225 71.0027 17.1199 70.992C16.9172 70.9813 16.6932 70.976 16.4479 70.976C15.9465 70.9547 15.6105 70.9067 15.4399 70.832C15.2799 70.7467 15.1892 70.5867 15.1679 70.352C15.1465 70.224 15.1732 70.112 15.2479 70.016C15.3225 69.9093 15.4985 69.824 15.7759 69.76C16.0532 69.696 16.4799 69.6747 17.0559 69.696C17.5039 69.6747 17.8559 69.6747 18.1119 69.696C18.3679 69.7067 18.5172 69.712 18.5599 69.712C18.6025 69.6693 18.6292 69.6267 18.6399 69.584C18.6505 69.5413 18.6665 69.4987 18.6879 69.456C18.6879 69.4027 18.6932 69.344 18.7039 69.28C18.7252 69.2053 18.7785 69.152 18.8639 69.12C18.9492 68.96 19.1092 68.896 19.3439 68.928C19.5892 68.9493 19.7705 69.0453 19.8879 69.216C19.9305 69.312 19.9412 69.4133 19.9199 69.52C19.9092 69.6267 19.9412 69.7227 20.0159 69.808C20.0585 69.7653 20.1705 69.7387 20.3519 69.728C20.5332 69.7173 20.7252 69.7067 20.9279 69.696C21.1732 69.696 21.3919 69.6907 21.5839 69.68C21.7759 69.6587 21.9092 69.648 21.9839 69.648C22.0799 69.5947 22.2025 69.568 22.3519 69.568C22.5119 69.568 22.6719 69.5787 22.8319 69.6C23.0772 69.6 23.2479 69.664 23.3439 69.792C23.4505 69.9093 23.5199 69.9947 23.5519 70.048C23.5519 70.0907 23.5519 70.1333 23.5519 70.176C23.5625 70.2187 23.5892 70.2613 23.6319 70.304C23.6745 70.3467 23.6959 70.3787 23.6959 70.4C23.6959 70.4107 23.6745 70.4587 23.6319 70.544C23.5892 70.5867 23.5145 70.624 23.4079 70.656C23.3012 70.6773 23.1839 70.688 23.0559 70.688C22.9812 70.688 22.8532 70.6987 22.6719 70.72C22.4905 70.7307 22.3359 70.736 22.2079 70.736C21.9625 70.7787 21.7225 70.816 21.4879 70.848C21.2532 70.8693 20.9492 70.8907 20.5759 70.912C20.4159 70.912 20.2665 70.9227 20.1279 70.944C19.9892 70.9547 19.9199 70.9867 19.9199 71.04C19.8772 71.04 19.8185 71.152 19.7439 71.376C19.6799 71.6 19.6159 71.8347 19.5519 72.08C19.4879 72.3573 19.4185 72.5973 19.3439 72.8C19.2799 73.0027 19.2265 73.136 19.1839 73.2C19.2265 73.2427 19.2425 73.296 19.2319 73.36C19.2319 73.424 19.1999 73.536 19.1359 73.696C19.0932 73.8453 19.0505 73.9627 19.0079 74.048C18.9759 74.1333 18.9599 74.2187 18.9599 74.304C18.9599 74.304 18.9332 74.3893 18.8799 74.56C18.8372 74.72 18.7945 74.9227 18.7519 75.168C18.7305 75.4027 18.6985 75.6 18.6559 75.76C18.6239 75.92 18.5865 76.0213 18.5439 76.064C18.5439 76.064 18.5225 76.1013 18.4799 76.176C18.4372 76.24 18.4159 76.3147 18.4159 76.4C18.4159 76.496 18.3945 76.656 18.3519 76.88C18.3199 77.0933 18.2825 77.296 18.2399 77.488C18.1972 77.68 18.1599 77.7867 18.1279 77.808C18.2345 77.8293 18.2185 77.9733 18.0799 78.24C18.0799 78.3467 18.0639 78.4533 18.0319 78.56C17.9999 78.6667 17.9839 78.7413 17.9839 78.784C17.9199 78.9867 17.8292 79.232 17.7119 79.52C17.5945 79.808 17.4825 80.064 17.3759 80.288C17.2799 80.512 17.2159 80.64 17.1839 80.672ZM21.504 80.656C21.4613 80.656 21.4027 80.5973 21.328 80.48C21.264 80.3627 21.232 80.2827 21.232 80.24C21.232 80.1867 21.2213 80.16 21.2 80.16C21.1147 80.16 21.0667 80.08 21.056 79.92C21.0453 79.76 21.0827 79.6427 21.168 79.568C21.1893 79.568 21.2 79.4987 21.2 79.36C21.2 79.296 21.2053 79.2427 21.216 79.2C21.2373 79.1573 21.2427 79.1147 21.232 79.072C21.232 79.04 21.2427 78.992 21.264 78.928C21.296 78.864 21.312 78.8107 21.312 78.768C21.312 78.7253 21.3333 78.6613 21.376 78.576C21.4293 78.4907 21.472 78.4107 21.504 78.336C21.536 78.2827 21.5733 78.192 21.616 78.064C21.6587 77.936 21.7013 77.8187 21.744 77.712C21.744 77.6907 21.7867 77.6 21.872 77.44C21.968 77.28 22.0427 77.104 22.096 76.912C22.1387 76.752 22.176 76.5867 22.208 76.416C22.24 76.2347 22.256 76.1333 22.256 76.112C22.256 76.048 22.256 75.9947 22.256 75.952C22.256 75.9093 22.256 75.888 22.256 75.888C22.3413 75.888 22.384 75.872 22.384 75.84C22.4267 75.7973 22.448 75.776 22.448 75.776C22.4587 75.7653 22.464 75.76 22.464 75.76C22.464 75.76 22.4693 75.7333 22.48 75.68C22.4907 75.616 22.5333 75.5627 22.608 75.52C22.704 75.4027 22.7573 75.3227 22.768 75.28C22.7893 75.2373 22.8 75.2 22.8 75.168C22.8 75.168 22.8693 74.9813 23.008 74.608C23.1467 74.224 23.3707 73.6747 23.68 72.96C23.8613 72.672 23.9947 72.4107 24.08 72.176C24.1653 71.9413 24.2347 71.7867 24.288 71.712C24.3733 71.5093 24.416 71.344 24.416 71.216C24.416 71.216 24.4107 71.216 24.4 71.216C24.4 71.216 24.3893 71.216 24.368 71.216C24.272 71.2693 24.176 71.232 24.08 71.104C23.984 70.976 23.872 70.8587 23.744 70.752C23.6693 70.6667 23.6533 70.576 23.696 70.48C23.7387 70.3733 23.76 70.3147 23.76 70.304C23.76 70.272 23.8453 70.2133 24.016 70.128C24.1867 70.032 24.3787 69.9413 24.592 69.856C24.8053 69.76 24.976 69.696 25.104 69.664C25.232 69.6 25.4027 69.568 25.616 69.568C25.84 69.568 26.064 69.584 26.288 69.616C26.512 69.648 26.6933 69.68 26.832 69.712C27.184 69.7867 27.5467 69.9467 27.92 70.192C28.2933 70.4373 28.5653 70.7413 28.736 71.104C28.8213 71.2533 28.8853 71.456 28.928 71.712C28.9813 71.968 29.008 72.24 29.008 72.528C29.0187 72.8053 28.992 73.0507 28.928 73.264C28.8533 73.4667 28.7253 73.7067 28.544 73.984C28.3627 74.2507 28.1653 74.5173 27.952 74.784C27.7387 75.04 27.5413 75.2533 27.36 75.424C27.1787 75.5947 27.0507 75.68 26.976 75.68C26.9013 75.68 26.8587 75.68 26.848 75.68C26.8373 75.68 26.832 75.68 26.832 75.68C26.832 75.6907 26.784 75.728 26.688 75.792C26.6027 75.8453 26.496 75.9093 26.368 75.984C26.24 76.048 26.112 76.1067 25.984 76.16C25.856 76.2133 25.76 76.2453 25.696 76.256C25.6213 76.256 25.5627 76.2613 25.52 76.272C25.4773 76.2827 25.44 76.32 25.408 76.384C25.344 76.4907 25.3067 76.5813 25.296 76.656C25.296 76.72 25.3067 76.8427 25.328 77.024C25.3813 77.152 25.456 77.312 25.552 77.504C25.648 77.6853 25.7387 77.8507 25.824 78C25.92 78.1387 25.9787 78.208 26 78.208C26.0427 78.208 26.1013 78.2293 26.176 78.272C26.2507 78.3147 26.3253 78.384 26.4 78.48C26.6133 78.6187 26.7893 78.752 26.928 78.88C27.0667 78.9973 27.1307 79.0187 27.12 78.944C27.12 78.912 27.168 78.8747 27.264 78.832C27.36 78.7893 27.4667 78.7627 27.584 78.752C27.7653 78.752 27.8933 78.7893 27.968 78.864C28.0533 78.928 28.1013 78.96 28.112 78.96C28.112 78.96 28.112 78.992 28.112 79.056C28.1227 79.12 28.1333 79.1947 28.144 79.28C28.144 79.408 28.0907 79.5573 27.984 79.728C27.8773 79.8987 27.7493 80.048 27.6 80.176C27.4613 80.3147 27.3227 80.3893 27.184 80.4C26.8213 80.4427 26.4427 80.3467 26.048 80.112C25.6533 79.8773 25.28 79.5413 24.928 79.104C24.576 78.656 24.2827 78.1493 24.048 77.584C23.9733 77.3387 23.936 77.1573 23.936 77.04C23.9467 76.912 23.872 76.8587 23.712 76.88C23.584 76.88 23.5147 76.9013 23.504 76.944C23.4933 76.976 23.4453 77.0987 23.36 77.312C23.3493 77.3973 23.3387 77.4773 23.328 77.552C23.328 77.616 23.3013 77.648 23.248 77.648C23.248 77.648 23.2213 77.712 23.168 77.84C23.1147 77.9573 23.0507 78.0907 22.976 78.24C22.9547 78.3787 22.9173 78.5067 22.864 78.624C22.8213 78.7307 22.8 78.8053 22.8 78.848C22.8 78.9653 22.7947 79.0453 22.784 79.088C22.7733 79.1307 22.7413 79.152 22.688 79.152C22.6987 79.1947 22.6933 79.2373 22.672 79.28C22.6507 79.3227 22.64 79.376 22.64 79.44C22.64 79.4507 22.6347 79.4987 22.624 79.584C22.624 79.6587 22.6133 79.7493 22.592 79.856C22.5493 79.9627 22.5013 80.0373 22.448 80.08C22.4053 80.1333 22.3893 80.1867 22.4 80.24C22.4 80.2933 22.3413 80.3573 22.224 80.432C22.1173 80.5067 21.9893 80.5653 21.84 80.608C21.7013 80.6613 21.5893 80.6773 21.504 80.656ZM24.368 75.136C24.4427 75.3813 24.656 75.3707 25.008 75.104C25.3707 74.976 25.6213 74.8693 25.76 74.784C25.9093 74.688 26.0373 74.6027 26.144 74.528C26.24 74.4747 26.32 74.416 26.384 74.352C26.448 74.2773 26.48 74.24 26.48 74.24C26.5547 74.2293 26.6507 74.1707 26.768 74.064C26.896 73.9573 27.024 73.8187 27.152 73.648C27.28 73.4773 27.3867 73.296 27.472 73.104C27.568 72.9333 27.6213 72.8107 27.632 72.736C27.6533 72.6613 27.6587 72.5867 27.648 72.512C27.6373 72.4373 27.632 72.3253 27.632 72.176C27.5787 71.984 27.5253 71.8293 27.472 71.712C27.4293 71.584 27.3547 71.4773 27.248 71.392C27.152 71.296 26.9867 71.2053 26.752 71.12C26.592 71.0347 26.4 70.9867 26.176 70.976C25.952 70.9653 25.7653 70.9813 25.616 71.024C25.4773 71.056 25.4347 71.1147 25.488 71.2C25.5307 71.3813 25.584 71.5573 25.648 71.728C25.712 71.888 25.696 72.0427 25.6 72.192C25.6 72.288 25.5253 72.5013 25.376 72.832C25.2267 73.1627 25.0827 73.5147 24.944 73.888C24.7627 74.304 24.6187 74.608 24.512 74.8C24.416 74.992 24.368 75.104 24.368 75.136ZM31.4803 80.624C31.1496 80.6027 30.8189 80.48 30.4883 80.256C30.1576 80.0427 29.8536 79.84 29.5763 79.648C29.3949 79.4667 29.2563 79.2747 29.1603 79.072C29.0643 78.8587 28.9843 78.5813 28.9203 78.24C28.8776 78.0373 28.8776 77.7707 28.9203 77.44C28.9629 77.1093 29.0323 76.7787 29.1283 76.448C29.2243 76.1067 29.3149 75.84 29.4003 75.648C29.5283 75.3493 29.6883 75.0293 29.8803 74.688C30.0829 74.336 30.2803 74.0053 30.4723 73.696C30.6749 73.376 30.8349 73.12 30.9523 72.928C31.0269 72.8533 31.0589 72.816 31.0483 72.816C31.0483 72.8053 31.0483 72.8 31.0483 72.8C31.0483 72.7467 31.1016 72.6133 31.2083 72.4C31.3256 72.176 31.4269 71.9787 31.5123 71.808C31.6723 71.6373 31.7629 71.4987 31.7843 71.392C31.8056 71.2853 31.7896 71.2 31.7363 71.136C31.7149 71.0933 31.7576 71.0027 31.8643 70.864C31.9816 70.7253 32.1416 70.5707 32.3443 70.4C32.5469 70.2187 32.7709 70.0587 33.0163 69.92C33.2723 69.7173 33.5176 69.6107 33.7523 69.6C33.9976 69.5787 34.1416 69.6267 34.1843 69.744C34.1843 69.776 34.2429 69.7867 34.3603 69.776C34.4883 69.7547 34.6323 69.728 34.7923 69.696C34.9629 69.6533 35.1123 69.6213 35.2403 69.6C35.2936 69.536 35.4163 69.488 35.6083 69.456C35.8109 69.4133 36.0456 69.376 36.3123 69.344C36.4509 69.3547 36.6056 69.36 36.7763 69.36C36.9469 69.3493 37.0963 69.3387 37.2243 69.328C37.3629 69.3173 37.4323 69.312 37.4323 69.312C37.5069 69.2907 37.6136 69.3387 37.7523 69.456C37.9016 69.5627 38.0189 69.712 38.1043 69.904C38.1789 70.096 38.1149 70.2613 37.9123 70.4C37.7096 70.5387 37.3896 70.6347 36.9523 70.688C36.6323 70.7307 36.3816 70.768 36.2003 70.8C36.0296 70.8213 35.8429 70.8533 35.6403 70.896C35.4483 70.928 35.1656 70.9867 34.7923 71.072C34.5256 71.1253 34.3016 71.168 34.1203 71.2C33.9389 71.232 33.7789 71.296 33.6403 71.392C33.5123 71.488 33.3683 71.6587 33.2083 71.904C33.1336 71.9573 33.0376 72.096 32.9203 72.32C32.8029 72.544 32.6856 72.768 32.5683 72.992C32.2696 73.408 32.0456 73.7173 31.8963 73.92C31.7576 74.112 31.7096 74.2347 31.7523 74.288C31.7523 74.288 31.8269 74.304 31.9763 74.336C32.1256 74.368 32.2216 74.384 32.2643 74.384C32.3709 74.3307 32.4989 74.2933 32.6483 74.272C32.8083 74.2507 32.9363 74.2293 33.0323 74.208C33.6936 74.0373 34.1789 73.9147 34.4883 73.84C34.8083 73.7547 35.0323 73.696 35.1603 73.664C35.2989 73.632 35.4216 73.6107 35.5283 73.6C35.6776 73.4827 35.8269 73.4933 35.9763 73.632C36.1363 73.76 36.2483 73.9147 36.3123 74.096C36.3869 74.3093 36.3869 74.4747 36.3123 74.592C36.2376 74.7093 36.0723 74.8053 35.8163 74.88C35.5709 74.9547 35.2189 75.0453 34.7603 75.152C34.3016 75.248 33.7256 75.392 33.0323 75.584C32.4456 75.7547 31.9709 75.856 31.6083 75.888C31.2456 75.92 31.0749 75.8293 31.0963 75.616C31.0216 75.5733 30.9363 75.616 30.8403 75.744C30.7549 75.8613 30.6749 76.0267 30.6003 76.24C30.5256 76.4533 30.4563 76.6827 30.3923 76.928C30.3389 77.1733 30.3069 77.4027 30.2963 77.616C30.2856 77.8293 30.3016 77.9947 30.3443 78.112C30.4296 78.3573 30.5629 78.5707 30.7443 78.752C30.9363 78.9227 31.2136 79.0613 31.5763 79.168C31.7896 79.1787 31.9976 79.1947 32.2003 79.216C32.4029 79.2373 32.6323 79.1947 32.8883 79.088C33.5176 78.9813 33.9549 78.8693 34.2003 78.752C34.4456 78.6347 34.5949 78.5547 34.6483 78.512C34.7336 78.4693 34.7869 78.4267 34.8083 78.384C34.8403 78.3413 34.8829 78.32 34.9363 78.32C34.9043 78.3733 34.9149 78.3733 34.9683 78.32C35.0216 78.2667 35.1069 78.192 35.2243 78.096C35.4483 77.904 35.6723 77.7867 35.8963 77.744C36.1203 77.7013 36.3069 77.7013 36.4563 77.744C36.6056 77.776 36.6856 77.8187 36.6962 77.872C36.7603 77.9787 36.7283 78.1493 36.6003 78.384C36.4723 78.608 36.2749 78.848 36.0083 79.104C35.7523 79.36 35.4483 79.5893 35.0963 79.792C34.5309 80.0907 33.9176 80.2987 33.2563 80.416C32.5949 80.544 32.0029 80.6133 31.4803 80.624ZM39.8185 81.04C39.6265 80.9867 39.4718 80.9387 39.3545 80.896C39.2372 80.864 39.1785 80.848 39.1785 80.848C39.1998 80.7947 39.1892 80.7467 39.1465 80.704C39.1145 80.6613 39.0398 80.6347 38.9225 80.624C38.7625 80.5173 38.5972 80.368 38.4265 80.176C38.2558 79.984 38.1065 79.7867 37.9785 79.584C37.8505 79.3813 37.7652 79.232 37.7225 79.136C37.6478 78.976 37.6532 78.88 37.7385 78.848C37.8238 78.8053 37.9252 78.7573 38.0425 78.704C38.1598 78.6187 38.2825 78.5547 38.4105 78.512C38.5492 78.4693 38.6612 78.5387 38.7465 78.72C38.8852 78.9653 39.0985 79.1733 39.3865 79.344C39.6852 79.5147 40.0212 79.616 40.3945 79.648C40.7785 79.68 41.1625 79.616 41.5465 79.456C41.8025 79.3387 41.9412 79.1787 41.9625 78.976C41.9838 78.7627 41.9038 78.5173 41.7225 78.24C41.6905 78.1547 41.6425 78.0853 41.5785 78.032C41.5252 77.9787 41.4398 77.9093 41.3225 77.824C41.2158 77.7387 41.0612 77.6 40.8585 77.408C40.6985 77.3333 40.5492 77.264 40.4105 77.2C40.2825 77.136 40.1438 77.0667 39.9945 76.992C39.8238 76.9067 39.6318 76.7893 39.4185 76.64C39.2052 76.48 39.0078 76.3093 38.8265 76.128C38.6452 75.936 38.5065 75.7547 38.4105 75.584C38.2398 75.424 38.1332 75.2053 38.0905 74.928C38.0478 74.64 38.0532 74.336 38.1065 74.016C38.1705 73.696 38.2718 73.408 38.4105 73.152C38.4745 73.0027 38.5918 72.8107 38.7625 72.576C38.9332 72.3307 39.1252 72.08 39.3385 71.824C39.5518 71.568 39.7545 71.3387 39.9465 71.136C40.1492 70.9227 40.3092 70.7787 40.4265 70.704C40.5118 70.6187 40.6025 70.5333 40.6985 70.448C40.7945 70.352 40.8425 70.304 40.8425 70.304C40.8532 70.2507 40.8692 70.224 40.8905 70.224C40.9225 70.224 40.9385 70.224 40.9385 70.224C40.9918 70.192 41.1092 70.1387 41.2905 70.064C41.4718 69.9893 41.6692 69.8507 41.8825 69.648C42.5972 69.3067 43.2052 69.0773 43.7065 68.96C44.2078 68.832 44.6025 68.768 44.8905 68.768C45.1572 68.7787 45.4185 68.8533 45.6745 68.992C45.9305 69.12 46.1492 69.2853 46.3305 69.488C46.5225 69.6907 46.6345 69.92 46.6665 70.176C46.7412 70.432 46.7038 70.7413 46.5545 71.104C46.4158 71.456 46.2185 71.792 45.9625 72.112C45.7172 72.4213 45.4612 72.6507 45.1945 72.8C44.8958 72.928 44.6398 72.944 44.4265 72.848C44.2238 72.752 44.1278 72.6027 44.1385 72.4C44.1385 72.3147 44.1652 72.2133 44.2185 72.096C44.2825 71.9787 44.4478 71.7707 44.7145 71.472C45.0558 70.9707 45.2372 70.6133 45.2585 70.4C45.2798 70.1867 45.1838 70.064 44.9705 70.032C44.9065 70.0107 44.7838 70.016 44.6025 70.048C44.4212 70.08 44.2238 70.1227 44.0105 70.176C43.8078 70.2187 43.6265 70.2667 43.4665 70.32C43.3172 70.3733 43.2425 70.4107 43.2425 70.432C43.2425 70.432 43.2425 70.448 43.2425 70.48C43.2425 70.512 43.2212 70.5227 43.1785 70.512C43.1572 70.512 43.0825 70.5493 42.9545 70.624C42.8372 70.688 42.6932 70.7733 42.5225 70.88C42.3518 70.9867 42.1812 71.0987 42.0105 71.216C41.8505 71.3227 41.7118 71.4187 41.5945 71.504C41.4772 71.5893 41.4132 71.6427 41.4025 71.664C41.3812 71.7813 41.2585 71.888 41.0345 71.984C40.8212 72.112 40.6345 72.2933 40.4745 72.528C40.3145 72.7627 40.1278 73.0613 39.9145 73.424C39.7332 73.6693 39.6052 73.936 39.5305 74.224C39.4558 74.5013 39.4558 74.7253 39.5305 74.896C39.5838 75.0667 39.7278 75.2373 39.9625 75.408C40.2078 75.568 40.5385 75.7707 40.9545 76.016C41.3172 76.2187 41.6585 76.432 41.9785 76.656C42.2985 76.88 42.5705 77.0987 42.7945 77.312C43.0185 77.5147 43.1625 77.6853 43.2265 77.824C43.3545 78.0053 43.4292 78.2133 43.4505 78.448C43.4825 78.6827 43.4825 78.912 43.4505 79.136C43.4292 79.3493 43.3972 79.5253 43.3545 79.664C43.2798 79.8347 43.1625 80.016 43.0025 80.208C42.8532 80.4 42.7145 80.4907 42.5865 80.48C42.4692 80.512 42.3785 80.5493 42.3145 80.592C42.2612 80.6347 42.1972 80.672 42.1225 80.704C42.0478 80.7467 41.8718 80.7947 41.5945 80.848C41.3172 80.912 41.0132 80.96 40.6825 80.992C40.3518 81.0347 40.0638 81.0507 39.8185 81.04ZM45.3404 80.816C45.2444 80.7733 45.1324 80.688 45.0044 80.56C44.791 80.3787 44.647 80.1493 44.5724 79.872C44.5084 79.584 44.503 79.3067 44.5564 79.04C44.6844 78.72 44.823 78.5013 44.9724 78.384C45.1324 78.256 45.2977 78.2027 45.4684 78.224C45.6497 78.2347 45.8204 78.2987 45.9804 78.416C45.9057 78.64 45.847 78.8427 45.8044 79.024C45.7617 79.2053 45.7777 79.36 45.8524 79.488C45.927 79.616 46.103 79.7173 46.3804 79.792C46.5937 79.8133 46.775 79.824 46.9244 79.824C47.0844 79.8133 47.271 79.8027 47.4844 79.792C47.7297 79.7707 47.9217 79.744 48.0604 79.712C48.2097 79.68 48.343 79.648 48.4604 79.616C48.759 79.5307 49.015 79.4133 49.2284 79.264C49.4417 79.104 49.6177 78.9227 49.7564 78.72C49.8417 78.5707 49.9004 78.4373 49.9324 78.32C49.9644 78.192 49.9804 78.0587 49.9804 77.92C49.9804 77.76 49.9644 77.6213 49.9324 77.504C49.9004 77.376 49.8417 77.2267 49.7564 77.056C49.6817 76.8747 49.559 76.624 49.3884 76.304C49.3777 76.2293 49.2924 76.1013 49.1324 75.92C48.983 75.7387 48.8337 75.5627 48.6844 75.392C48.6097 75.2213 48.5137 75.0293 48.3964 74.816C48.279 74.592 48.1457 74.432 47.9964 74.336C47.9537 74.272 47.9057 74.1707 47.8524 74.032C47.8097 73.8933 47.7724 73.8187 47.7404 73.808C47.7404 73.808 47.7244 73.7813 47.6924 73.728C47.671 73.6747 47.6444 73.6107 47.6124 73.536C47.4737 73.2267 47.4684 72.8427 47.5964 72.384C47.7244 71.9147 47.959 71.4773 48.3004 71.072C48.4177 70.88 48.567 70.688 48.7484 70.496C48.9297 70.2933 49.095 70.128 49.2444 70C49.4044 69.8613 49.5057 69.792 49.5484 69.792C49.5484 69.792 49.5804 69.7813 49.6444 69.76C49.719 69.728 49.8097 69.6747 49.9164 69.6C50.0337 69.5253 50.1457 69.4667 50.2524 69.424C50.359 69.3707 50.5137 69.3227 50.7164 69.28L50.8124 69.264L50.8764 69.248C51.0577 69.1947 51.207 69.1573 51.3244 69.136C51.4417 69.104 51.5537 69.088 51.6604 69.088C51.767 69.088 51.895 69.0933 52.0444 69.104C52.5244 69.232 52.8924 69.408 53.1484 69.632C53.415 69.8453 53.559 70.2347 53.5804 70.8L53.4524 71.248L53.1804 71.552C53.1484 71.5413 53.063 71.5733 52.9244 71.648C52.7964 71.7227 52.615 71.7813 52.3804 71.824C52.1564 71.856 51.8684 71.8027 51.5164 71.664C51.4737 71.6533 51.4577 71.6267 51.4684 71.584C51.479 71.5307 51.5217 71.4987 51.5964 71.488C51.6284 71.4667 51.6764 71.4187 51.7404 71.344C51.815 71.2693 51.8844 71.184 51.9484 71.088C52.087 70.896 52.119 70.752 52.0444 70.656C51.9804 70.5493 51.8524 70.496 51.6604 70.496C51.2977 70.5067 50.951 70.576 50.6204 70.704C50.2897 70.8213 49.9857 71.0347 49.7084 71.344C49.4844 71.632 49.319 71.888 49.2124 72.112C49.1057 72.3253 49.0524 72.5227 49.0524 72.704C49.0737 72.7787 49.0844 72.8907 49.0844 73.04C49.095 73.1787 49.1377 73.3227 49.2124 73.472C49.5644 73.9627 49.8364 74.3413 50.0284 74.608C50.231 74.8747 50.3697 75.0667 50.4444 75.184C50.4657 75.216 50.4817 75.2427 50.4924 75.264C50.503 75.2853 50.5084 75.3067 50.5084 75.328C50.551 75.4027 50.6097 75.5093 50.6844 75.648C50.759 75.7867 50.8284 75.92 50.8924 76.048C50.9564 76.176 50.9884 76.2613 50.9884 76.304C50.9884 76.304 51.0044 76.336 51.0364 76.4C51.0684 76.4533 51.1057 76.5333 51.1484 76.64C51.2017 76.736 51.2497 76.8747 51.2924 77.056C51.3457 77.2267 51.3884 77.4133 51.4204 77.616C51.4524 77.808 51.4684 77.984 51.4684 78.144C51.4684 78.272 51.4364 78.4373 51.3724 78.64C51.3084 78.832 51.223 79.0293 51.1164 79.232C51.0204 79.424 50.8977 79.584 50.7484 79.712C50.599 79.84 50.3804 79.9947 50.0924 80.176C49.8044 80.3573 49.4897 80.5227 49.1484 80.672C48.807 80.8213 48.4764 80.9227 48.1564 80.976C47.8364 81.0293 47.5324 81.072 47.2444 81.104C46.967 81.136 46.7057 81.1467 46.4604 81.136C46.2257 81.136 46.0124 81.1093 45.8204 81.056C45.6284 81.0027 45.4684 80.9227 45.3404 80.816Z" fill="black"/>
</g>
<g filter="url(#filter1_d_41_8124)">
<rect width="56" height="56" rx="28" fill="white" shape-rendering="crispEdges"/>
<path d="M27.4468 38.932C27.4468 39.6872 29.1773 40.8198 30.0425 41.2918L30.9863 41.7637C32.4022 41.9997 34.998 39.64 35.4699 38.932C35.9419 38.2241 36.1778 37.9882 35.9419 36.5723C35.7059 35.1565 32.1663 34.4485 30.9864 34.6845C29.8065 34.9205 29.3346 35.8644 28.1547 36.3363C26.9748 36.8083 27.4468 37.9882 27.4468 38.932Z" fill="black"/>
<path d="M23.043 27.8034C23.043 28.1206 23.8403 28.5965 24.239 28.7948L24.6739 28.9931C25.3263 29.0922 26.5224 28.1008 26.7399 27.8034C26.9573 27.5059 27.0661 27.4068 26.9573 26.8119C26.8486 26.2171 25.2176 25.9196 24.674 26.0188C24.1303 26.1179 23.9128 26.5145 23.3692 26.7128C22.8255 26.9111 23.043 27.4068 23.043 27.8034Z" fill="black"/>
<path fill-rule="evenodd" clip-rule="evenodd" d="M18.0324 14.1057C15.7847 13.4314 14.1297 14.9516 13.5879 15.7643C13.5767 15.781 13.5666 15.7984 13.5576 15.8164C13.0645 16.8027 13.0104 17.7542 13.2695 18.6313C13.5244 19.4945 14.0724 20.2535 14.7315 20.8975C15.928 22.0668 17.5704 22.9346 18.8348 23.4282C18.5173 26.6398 18.892 28.13 19.1089 28.9923C19.116 29.0207 19.123 29.0484 19.1297 29.0755C19.6376 31.107 20.4662 32.4434 21.2479 33.5377C21.4027 33.7545 21.5525 33.9582 21.6957 34.1529C22.2895 34.9603 22.7714 35.6156 23.0418 36.427C23.4434 37.6316 24.1773 38.4893 24.9042 39.1846C25.1571 39.4265 25.4186 39.6572 25.6629 39.8727C25.7641 39.962 25.8624 40.0487 25.9559 40.1326C26.2845 40.4271 26.5639 40.6944 26.7812 40.966C27.266 41.572 28.0344 41.9128 28.7241 42.1055C29.411 42.2976 30.0987 42.3644 30.5445 42.3672C31.4955 42.4735 32.5022 42.0072 33.3139 41.4777C34.1246 40.9489 34.8394 40.2916 35.274 39.8224C36.5816 39.0167 37.5963 37.7052 38.3436 35.7123C38.7481 34.6336 38.7415 33.5694 38.6144 32.5842C38.5509 32.0928 38.4563 31.6126 38.3649 31.1596C38.358 31.1252 38.351 31.0909 38.3441 31.0568C38.2593 30.6369 38.1799 30.2438 38.1258 29.8647C38.0847 29.5776 38.0294 29.2392 37.9656 28.8744C37.7573 27.6834 37.4542 26.1835 37.2482 25.2005C37.2326 25.1262 37.2176 25.0549 37.2032 24.9868C38.0282 24.2251 38.8385 23.1774 39.6175 22.148C39.6943 22.0465 39.7708 21.9451 39.8471 21.8441C40.6286 20.8091 41.3836 19.8091 42.1342 19.0586C42.919 18.2738 43.1239 17.4469 42.9942 16.7167C42.8706 16.0202 42.4546 15.4755 42.1069 15.1774C42.0793 15.1538 42.0492 15.1334 42.0172 15.1165C40.0053 14.0576 38.0737 14.2837 36.5065 14.9806C35.1232 15.5958 34.0083 16.5819 33.32 17.4014C31.7907 16.8357 29.9133 16.646 28.1737 16.6355C26.5253 16.6255 24.96 16.7765 23.8569 16.9462C23.7247 16.6726 23.5066 16.4416 23.2754 16.2524C22.8907 15.9377 22.3724 15.6578 21.8088 15.4073C20.6782 14.9048 19.2454 14.4696 18.0324 14.1057ZM34.2445 17.8167C34.862 17.1357 35.7888 16.361 36.9006 15.8666C38.2443 15.2691 39.8383 15.0863 41.5143 15.9479C41.727 16.1446 41.9683 16.4853 42.0394 16.8862C42.1089 17.2777 42.0293 17.7921 41.4485 18.3729C40.6472 19.1742 39.8503 20.2301 39.0795 21.2514C39.0008 21.3557 38.9224 21.4596 38.8442 21.5629C37.9845 22.6989 37.1618 23.7524 36.3548 24.4441C36.2532 24.5312 36.1936 24.6549 36.1862 24.7848C35.6619 24.7671 35.0475 24.7677 34.4895 24.8104C34.0922 24.8409 33.6989 24.8944 33.3807 24.988C33.2221 25.0347 33.06 25.0976 32.9203 25.1872C32.7828 25.2753 32.625 25.4168 32.5525 25.6344C32.5486 25.646 32.5447 25.6577 32.5407 25.6696C32.4273 26.0092 32.2837 26.4394 32.2837 26.8546C32.2837 27.082 32.3254 27.3212 32.4438 27.5521C32.5628 27.7841 32.7455 27.9807 32.9873 28.142C33.1366 28.2415 33.2642 28.3553 33.4197 28.4952L33.4283 28.503C33.5759 28.6358 33.7504 28.793 33.9628 28.9345C34.4207 29.2398 35.0057 29.4427 35.9388 29.4427H37.0788C37.1125 29.6461 37.1418 29.8342 37.1658 30.0019C37.2241 30.41 37.309 30.83 37.3926 31.2435C37.3999 31.2795 37.4071 31.3155 37.4144 31.3513C37.5059 31.8052 37.5941 32.2548 37.6526 32.7083C37.7694 33.613 37.7627 34.4997 37.4357 35.3718C36.7314 37.2497 35.8153 38.3673 34.7139 39.0281C34.6732 39.0525 34.6364 39.0827 34.6046 39.1177C34.2205 39.5402 33.5441 40.1698 32.7841 40.6655C32.0033 41.1748 31.2347 41.4764 30.634 41.4014C30.614 41.3989 30.5939 41.3976 30.5738 41.3976C30.2056 41.3976 29.5917 41.3412 28.9851 41.1716C28.3661 40.9986 27.834 40.7297 27.5384 40.3603C27.268 40.0223 26.9377 39.7104 26.6032 39.4105C26.498 39.3161 26.3929 39.2235 26.288 39.1309C26.0501 38.9211 25.8127 38.7117 25.5745 38.4838C24.8991 37.8379 24.2918 37.1104 23.9618 36.1204C23.6384 35.1501 23.0442 34.3449 22.4409 33.5274C22.3057 33.3443 22.1701 33.1605 22.037 32.9741C21.2945 31.9346 20.538 30.7105 20.0705 28.8403C20.0627 28.8091 20.0546 28.777 20.0462 28.7438C19.8393 27.9244 19.4707 26.4649 19.8381 23.1588C19.8629 22.935 19.7305 22.7236 19.5183 22.6483C18.2966 22.2148 16.5871 21.355 15.4092 20.204C14.8226 19.6308 14.3921 19.0089 14.1994 18.3566C14.0132 17.7259 14.0395 17.0364 14.4112 16.2777C14.86 15.6243 16.1202 14.5444 17.7537 15.0345C18.9793 15.4022 20.3508 15.8205 21.415 16.2934C21.9488 16.5307 22.3755 16.769 22.6614 17.0029C22.9593 17.2467 23.017 17.4122 23.017 17.4964C23.017 17.6399 23.0805 17.7761 23.1906 17.8682C23.3006 17.9603 23.4458 17.999 23.5871 17.9737C24.6346 17.7867 26.3494 17.5942 28.1678 17.6052C29.9957 17.6162 31.8759 17.8331 33.2858 18.4306C33.4514 18.5007 33.6095 18.5758 33.7596 18.6558C33.9959 18.7818 34.2896 18.6925 34.4156 18.4562C34.5364 18.2297 34.4593 17.9504 34.2445 17.8167Z" fill="black" stroke="black" stroke-linecap="round" stroke-linejoin="round"/>
</g>
<g filter="url(#filter2_d_41_8124)">
<rect x="4" y="93" width="48" height="48" rx="24" fill="white" shape-rendering="crispEdges"/>
<path fill-rule="evenodd" clip-rule="evenodd" d="M38.9416 115.164C39.1274 115.684 38.8563 116.256 38.3362 116.442C35.3773 117.498 31.3681 117.874 27.7297 117.937C24.0715 118.001 20.6679 117.748 18.8585 117.49C18.3117 117.412 17.9318 116.905 18.0099 116.359C18.088 115.812 18.5946 115.432 19.1413 115.51C20.8319 115.752 24.1283 115.999 27.6951 115.938C31.2817 115.876 35.0225 115.502 37.6635 114.558C38.1837 114.373 38.7559 114.644 38.9416 115.164Z" fill="black"/>
</g>
<defs>
<filter id="filter0_d_41_8124" x="0" y="15" width="60" height="90" filterUnits="userSpaceOnUse" color-interpolation-filters="sRGB">
<feFlood flood-opacity="0" result="BackgroundImageFix"/>
<feColorMatrix in="SourceAlpha" type="matrix" values="0 0 0 0 0 0 0 0 0 0 0 0 0 0 0 0 0 0 127 0" result="hardAlpha"/>
<feOffset dx="4" dy="4"/>
<feComposite in2="hardAlpha" operator="out"/>
<feColorMatrix type="matrix" values="0 0 0 0 0 0 0 0 0 0 0 0 0 0 0 0 0 0 1 0"/>
<feBlend mode="normal" in2="BackgroundImageFix" result="effect1_dropShadow_41_8124"/>
<feBlend mode="normal" in="SourceGraphic" in2="effect1_dropShadow_41_8124" result="shape"/>
</filter>
<filter id="filter1_d_41_8124" x="0" y="0" width="60" height="60" filterUnits="userSpaceOnUse" color-interpolation-filters="sRGB">
<feFlood flood-opacity="0" result="BackgroundImageFix"/>
<feColorMatrix in="SourceAlpha" type="matrix" values="0 0 0 0 0 0 0 0 0 0 0 0 0 0 0 0 0 0 127 0" result="hardAlpha"/>
<feOffset dx="4" dy="4"/>
<feComposite in2="hardAlpha" operator="out"/>
<feColorMatrix type="matrix" values="0 0 0 0 0 0 0 0 0 0 0 0 0 0 0 0 0 0 1 0"/>
<feBlend mode="normal" in2="BackgroundImageFix" result="effect1_dropShadow_41_8124"/>
<feBlend mode="normal" in="SourceGraphic" in2="effect1_dropShadow_41_8124" result="shape"/>
</filter>
<filter id="filter2_d_41_8124" x="4" y="93" width="52" height="52" filterUnits="userSpaceOnUse" color-interpolation-filters="sRGB">
<feFlood flood-opacity="0" result="BackgroundImageFix"/>
<feColorMatrix in="SourceAlpha" type="matrix" values="0 0 0 0 0 0 0 0 0 0 0 0 0 0 0 0 0 0 127 0" result="hardAlpha"/>
<feOffset dx="4" dy="4"/>
<feComposite in2="hardAlpha" operator="out"/>
<feColorMatrix type="matrix" values="0 0 0 0 0 0 0 0 0 0 0 0 0 0 0 0 0 0 1 0"/>
<feBlend mode="normal" in2="BackgroundImageFix" result="effect1_dropShadow_41_8124"/>
<feBlend mode="normal" in="SourceGraphic" in2="effect1_dropShadow_41_8124" result="shape"/>
</filter>
</defs>
</svg>
