<svg width="24" height="24" viewBox="0 0 24 24" fill="none" xmlns="http://www.w3.org/2000/svg">
<path d="M12.5676 3.00045C14.2634 3.00045 15.9592 2.99908 17.6553 3.00113C18.4403 3.00181 19.1953 3.15324 19.8945 3.52652C21.0669 4.15241 21.7747 5.13346 21.9585 6.47821C22.1169 7.63803 21.8138 8.68916 21.124 9.61312C20.0836 11.0061 19.1335 12.4585 18.3016 13.9909C18.048 14.4582 17.821 14.9405 17.566 15.4071C17.1276 16.2094 16.5952 16.9464 16.028 17.6567C15.1624 18.741 14.2226 19.7545 13.2224 20.7096C12.7284 21.1816 12.0008 21.0633 11.6656 20.4638C10.9287 19.145 10.1948 17.8245 9.44816 16.5116C8.77674 15.3305 8.07557 14.168 7.28985 13.0615C6.8116 12.3877 6.30261 11.7407 5.7124 11.1647C5.38922 10.8495 5.03897 10.5713 4.65831 10.3303C3.76364 9.7642 3.21253 8.95476 3.0471 7.8862C2.94951 7.25621 3.00231 6.63237 3.21921 6.03554C3.82814 4.3599 5.01424 3.38159 6.72371 3.05958C6.95765 3.01583 7.19995 3.00386 7.43857 3.00318C9.14804 2.9984 10.8578 3.00045 12.5676 3.00045ZM13.334 17.7329L13.3601 17.7514C13.3798 17.7244 13.3975 17.6956 13.4192 17.6707C13.59 17.4755 13.7638 17.2831 13.9326 17.0862C14.5599 16.3533 15.1624 15.5989 15.6571 14.7641C15.909 14.3392 16.1263 13.8925 16.3559 13.4539C17.2469 11.7519 18.2716 10.1382 19.4155 8.6037C19.6348 8.30972 19.8377 8.01131 19.9449 7.65341C20.23 6.70108 19.8731 5.78532 19.0255 5.32146C18.6044 5.09107 18.1452 5.00595 17.672 5.00527C16.2824 5.00219 14.8927 5.00356 13.5031 5.00322C13.4733 5.00322 13.4439 5.00595 13.4095 5.00766C13.3741 5.36316 13.336 5.71046 13.3059 6.05879C13.2511 6.6939 13.1936 7.32902 13.1512 7.96516C13.1041 8.67241 13.0533 9.38033 13.0395 10.0886C13.0235 10.9281 13.0375 11.7683 13.0533 12.6082C13.0649 13.2259 13.0954 13.8432 13.1271 14.4602C13.1639 15.174 13.21 15.887 13.2548 16.6004C13.2785 16.9782 13.3076 17.3555 13.3343 17.7332L13.334 17.7329ZM11.2121 15.6187C11.2218 15.6173 11.2315 15.616 11.2412 15.6146C10.9538 12.0739 11.0236 8.54012 11.4514 5.00288C11.3956 5.00288 11.3658 5.00288 11.3361 5.00288C10.0661 5.00288 8.79646 5.00048 7.52647 5.00527C7.32728 5.00595 7.12342 5.01689 6.92958 5.05996C5.98678 5.2695 5.33541 5.83079 5.04331 6.78141C4.81137 7.53685 5.05367 8.25264 5.74715 8.66489C6.15723 8.90861 6.52652 9.21215 6.87811 9.53757C7.52881 10.1399 8.09596 10.8191 8.623 11.5342C9.52236 12.7542 10.3034 14.0535 11.0651 15.3657C11.1142 15.4502 11.163 15.5346 11.2118 15.6187H11.2121Z" fill="black"/>
</svg>
