<svg width="88" height="37" viewBox="0 0 88 37" fill="none" xmlns="http://www.w3.org/2000/svg">
<path d="M12.5676 9.50045C14.2634 9.50045 15.9591 9.49908 17.6552 9.50113C18.4403 9.50181 19.1952 9.65324 19.8944 10.0265C21.0668 10.6524 21.7747 11.6335 21.9585 12.9782C22.1169 14.138 21.8138 15.1892 21.124 16.1131C20.0836 17.5061 19.1334 18.9585 18.3016 20.4909C18.0479 20.9582 17.821 21.4405 17.566 21.9071C17.1275 22.7094 16.5951 23.4464 16.028 24.1567C15.1624 25.241 14.2226 26.2545 13.2223 27.2096C12.7283 27.6816 12.0008 27.5633 11.6656 26.9638C10.9286 25.645 10.1947 24.3245 9.4481 23.0116C8.77668 21.8305 8.07551 20.668 7.28979 19.5615C6.81154 18.8877 6.30255 18.2407 5.71234 17.6647C5.38916 17.3495 5.03891 17.0713 4.65825 16.8303C3.76357 16.2642 3.21247 15.4548 3.04704 14.3862C2.94945 13.7562 3.00225 13.1324 3.21915 12.5355C3.82808 10.8599 5.01418 9.88159 6.72365 9.55958C6.95759 9.51583 7.19989 9.50386 7.43851 9.50318C9.14798 9.4984 10.8578 9.50045 12.5676 9.50045ZM13.3339 24.2329L13.36 24.2514C13.3797 24.2244 13.3974 24.1956 13.4191 24.1707C13.5899 23.9755 13.7637 23.7831 13.9325 23.5862C14.5598 22.8533 15.1624 22.0989 15.657 21.2641C15.909 20.8392 16.1262 20.3925 16.3558 19.9539C17.2468 18.2519 18.2715 16.6382 19.4155 15.1037C19.6347 14.8097 19.8376 14.5113 19.9449 14.1534C20.2299 13.2011 19.873 12.2853 19.0255 11.8215C18.6044 11.5911 18.1452 11.506 17.6719 11.5053C16.2823 11.5022 14.8927 11.5036 13.503 11.5032C13.4733 11.5032 13.4439 11.506 13.4095 11.5077C13.374 11.8632 13.3359 12.2105 13.3059 12.5588C13.251 13.1939 13.1936 13.829 13.1511 14.4652C13.104 15.1724 13.0532 15.8803 13.0395 16.5886C13.0234 17.4281 13.0375 18.2683 13.0532 19.1082C13.0649 19.7259 13.0953 20.3432 13.1271 20.9602C13.1638 21.674 13.2099 22.387 13.2547 23.1004C13.2784 23.4782 13.3075 23.8555 13.3343 24.2332L13.3339 24.2329ZM11.212 22.1187C11.2217 22.1173 11.2314 22.116 11.2411 22.1146C10.9537 18.5739 11.0236 15.0401 11.4513 11.5029C11.3955 11.5029 11.3658 11.5029 11.336 11.5029C10.066 11.5029 8.7964 11.5005 7.52641 11.5053C7.32722 11.506 7.12336 11.5169 6.92952 11.56C5.98672 11.7695 5.33535 12.3308 5.04325 13.2814C4.81131 14.0369 5.05361 14.7526 5.74709 15.1649C6.15716 15.4086 6.52646 15.7122 6.87805 16.0376C7.52875 16.6399 8.0959 17.3191 8.62294 18.0342C9.52229 19.2542 10.3033 20.5535 11.065 21.8657C11.1141 21.9502 11.1629 22.0346 11.2117 22.1187H11.212Z" fill="black"/>
<path d="M32.4975 17.482C32.1975 17.482 31.9035 17.428 31.6155 17.32C31.3395 17.2 31.1175 17.062 30.9495 16.906C30.7815 16.75 30.7035 16.6 30.7155 16.456C30.7275 16.264 30.7935 16.114 30.9135 16.006C31.0335 15.898 31.2255 15.862 31.4895 15.898C31.8975 15.982 32.3115 16.012 32.7315 15.988C33.1515 15.952 33.5415 15.868 33.9015 15.736C34.2735 15.604 34.5735 15.424 34.8015 15.196C35.1255 14.884 35.2935 14.62 35.3055 14.404C35.3175 14.176 35.1495 13.948 34.8015 13.72C34.6455 13.612 34.4535 13.51 34.2255 13.414C33.9975 13.318 33.7695 13.246 33.5415 13.198C33.3255 13.138 33.1335 13.114 32.9655 13.126C32.8575 13.138 32.7255 13.12 32.5695 13.072C32.4135 13.012 32.2575 12.94 32.1015 12.856C32.0295 12.772 31.9635 12.634 31.9035 12.442C31.8435 12.25 31.8015 12.13 31.7775 12.082C31.7655 12.022 31.8075 11.95 31.9035 11.866C31.9995 11.782 32.1915 11.656 32.4795 11.488C32.7675 11.308 33.1875 11.068 33.7395 10.768C34.2435 10.492 34.6275 10.282 34.8915 10.138C35.1675 9.982 35.3775 9.862 35.5215 9.778C35.6775 9.682 35.8095 9.586 35.9175 9.49C36.0615 9.322 36.1275 9.196 36.1155 9.112C36.1035 9.028 35.9415 8.956 35.6295 8.896C35.3295 8.872 35.0895 8.872 34.9095 8.896C34.7295 8.908 34.6395 8.938 34.6395 8.986C34.6395 8.986 34.6335 8.986 34.6215 8.986C34.6215 8.986 34.6035 8.986 34.5675 8.986C34.5075 8.962 34.3755 8.968 34.1715 9.004C33.9675 9.04 33.7695 9.082 33.5775 9.13C33.3975 9.178 33.3015 9.22 33.2895 9.256C33.2775 9.28 33.1935 9.322 33.0375 9.382C32.8935 9.43 32.7435 9.472 32.5875 9.508C32.4435 9.544 32.3535 9.562 32.3175 9.562C32.2575 9.538 32.1855 9.454 32.1015 9.31C32.0295 9.166 31.9695 9.016 31.9215 8.86C31.8735 8.692 31.8615 8.578 31.8855 8.518C31.9095 8.47 31.9935 8.398 32.1375 8.302C32.2935 8.194 32.4675 8.086 32.6595 7.978C32.8515 7.858 33.0135 7.768 33.1455 7.708C33.3135 7.66 33.5595 7.618 33.8835 7.582C34.2195 7.534 34.5495 7.498 34.8735 7.474C35.2095 7.438 35.4495 7.426 35.5935 7.438C36.1455 7.498 36.5895 7.642 36.9255 7.87C37.2615 8.086 37.4775 8.434 37.5735 8.914C37.6095 9.082 37.6095 9.256 37.5735 9.436C37.5375 9.616 37.4595 9.796 37.3395 9.976C37.2195 10.156 37.0395 10.354 36.7995 10.57C36.4995 10.762 36.2655 10.924 36.0975 11.056C35.9415 11.176 35.7255 11.302 35.4495 11.434C35.3655 11.494 35.2335 11.56 35.0535 11.632C34.8735 11.704 34.7055 11.77 34.5495 11.83C34.3935 11.89 34.3155 11.932 34.3155 11.956C34.3155 11.956 34.3695 11.968 34.4775 11.992C34.5975 12.004 34.7235 12.028 34.8555 12.064C34.9995 12.088 35.1015 12.13 35.1615 12.19C35.5095 12.31 35.8275 12.52 36.1155 12.82C36.4155 13.108 36.6255 13.336 36.7455 13.504C36.9135 13.876 36.9315 14.284 36.7995 14.728C36.6795 15.16 36.4575 15.574 36.1335 15.97C35.8215 16.354 35.4555 16.672 35.0355 16.924C34.6995 17.116 34.2855 17.254 33.7935 17.338C33.3135 17.41 32.8815 17.458 32.4975 17.482ZM40.241 18.454C40.025 18.466 39.845 18.364 39.701 18.148C39.557 17.932 39.491 17.752 39.503 17.608C39.515 17.416 39.569 17.14 39.665 16.78C39.761 16.42 39.869 16.054 39.989 15.682C40.109 15.31 40.217 15.016 40.313 14.8C40.361 14.608 40.403 14.44 40.439 14.296C40.487 14.14 40.517 14.038 40.529 13.99C40.565 13.942 40.619 13.816 40.691 13.612C40.775 13.408 40.841 13.21 40.889 13.018C40.913 12.922 40.961 12.742 41.033 12.478C41.117 12.202 41.213 11.884 41.321 11.524C41.441 11.164 41.555 10.81 41.663 10.462C41.783 10.114 41.885 9.808 41.969 9.544C42.053 9.28 42.107 9.106 42.131 9.022C42.227 8.878 42.299 8.74 42.347 8.608C42.395 8.476 42.425 8.386 42.437 8.338C42.509 8.29 42.551 8.23 42.563 8.158C42.575 8.074 42.581 8.008 42.581 7.96C42.581 7.9 42.599 7.852 42.635 7.816C42.683 7.78 42.707 7.738 42.707 7.69C42.755 7.654 42.785 7.648 42.797 7.672C42.809 7.696 42.845 7.678 42.905 7.618L42.995 7.006L44.597 6.988C44.573 7.132 44.537 7.312 44.489 7.528C44.441 7.732 44.327 8.008 44.147 8.356C44.087 8.596 44.015 8.812 43.931 9.004C43.859 9.196 43.829 9.322 43.841 9.382C43.817 9.406 43.763 9.526 43.679 9.742C43.607 9.958 43.517 10.222 43.409 10.534C43.313 10.846 43.211 11.158 43.103 11.47C43.007 11.782 42.917 12.058 42.833 12.298C42.761 12.526 42.713 12.67 42.689 12.73C42.593 12.922 42.485 13.204 42.365 13.576C42.245 13.948 42.065 14.452 41.825 15.088C41.729 15.28 41.609 15.568 41.465 15.952C41.333 16.336 41.225 16.684 41.141 16.996C41.009 17.464 40.889 17.8 40.781 18.004C40.685 18.208 40.595 18.328 40.511 18.364C40.427 18.412 40.337 18.442 40.241 18.454ZM40.403 7.87C39.911 7.918 39.575 7.858 39.395 7.69C39.227 7.522 39.167 7.342 39.215 7.15C39.251 7.006 39.335 6.886 39.467 6.79C39.611 6.682 39.869 6.592 40.241 6.52C40.373 6.496 40.541 6.466 40.745 6.43C40.961 6.394 41.165 6.358 41.357 6.322C41.753 6.274 42.077 6.232 42.329 6.196C42.593 6.16 42.863 6.13 43.139 6.106C43.415 6.082 43.763 6.058 44.183 6.034C44.531 6.01 44.825 5.992 45.065 5.98C45.317 5.956 45.443 5.944 45.443 5.944C45.479 5.944 45.605 5.956 45.821 5.98C46.037 6.004 46.271 6.034 46.523 6.07C46.775 6.106 46.961 6.148 47.081 6.196C47.357 6.256 47.579 6.364 47.747 6.52C47.915 6.676 48.023 6.856 48.071 7.06C48.107 7.204 48.107 7.318 48.071 7.402C48.035 7.474 47.969 7.534 47.873 7.582C47.597 7.666 47.369 7.738 47.189 7.798C47.021 7.846 46.853 7.84 46.685 7.78C46.625 7.72 46.553 7.666 46.469 7.618C46.397 7.57 46.265 7.534 46.073 7.51C45.893 7.474 45.605 7.444 45.209 7.42C44.873 7.456 44.579 7.474 44.327 7.474C44.075 7.474 43.949 7.504 43.949 7.564L42.887 7.618L42.005 7.708C41.885 7.72 41.717 7.738 41.501 7.762C41.285 7.774 41.075 7.792 40.871 7.816C40.667 7.828 40.511 7.846 40.403 7.87ZM47.8191 18.13C47.3751 17.806 47.0211 17.506 46.7571 17.23C46.5051 16.942 46.3671 16.666 46.3431 16.402C46.3191 16.186 46.3191 15.892 46.3431 15.52C46.3791 15.148 46.4211 14.782 46.4691 14.422C46.5171 14.062 46.5591 13.792 46.5951 13.612C46.6551 13.552 46.6791 13.474 46.6671 13.378C46.6671 13.27 46.6671 13.216 46.6671 13.216C46.6551 13.156 46.6971 13 46.7931 12.748C46.8891 12.484 46.9791 12.148 47.0631 11.74C47.3031 11.02 47.5311 10.42 47.7471 9.94C47.9751 9.448 48.1971 9.028 48.4131 8.68C48.6291 8.332 48.8451 8.014 49.0611 7.726C49.5531 7.222 50.0151 6.82 50.4471 6.52C50.8911 6.22 51.2991 5.986 51.6711 5.818C51.9111 5.674 52.1331 5.56 52.3371 5.476C52.5411 5.392 52.7091 5.38 52.8411 5.44C53.5131 5.584 54.0831 5.878 54.5511 6.322C55.0191 6.766 55.3311 7.408 55.4871 8.248C55.5711 8.776 55.6191 9.256 55.6311 9.688C55.6551 10.108 55.6251 10.528 55.5411 10.948C55.4571 11.356 55.3011 11.806 55.0731 12.298C54.8571 12.79 54.5511 13.366 54.1551 14.026C53.6631 14.998 53.1231 15.814 52.5351 16.474C51.9591 17.122 51.3771 17.614 50.7891 17.95C50.2131 18.286 49.6611 18.466 49.1331 18.49C48.6171 18.526 48.1791 18.406 47.8191 18.13ZM49.2591 16.942C49.5351 16.906 49.7571 16.852 49.9251 16.78C50.1051 16.708 50.2911 16.57 50.4831 16.366C50.6751 16.162 50.9451 15.862 51.2931 15.466C51.6051 15.106 51.8631 14.8 52.0671 14.548C52.2831 14.296 52.4631 14.038 52.6071 13.774C52.7631 13.51 52.9071 13.198 53.0391 12.838C53.1831 12.466 53.3391 11.992 53.5071 11.416C53.6031 11.056 53.6691 10.792 53.7051 10.624C53.7531 10.444 53.7831 10.294 53.7951 10.174C53.8071 10.054 53.8071 9.892 53.7951 9.688C53.7951 9.472 53.7951 9.148 53.7951 8.716C53.7831 8.512 53.7411 8.284 53.6691 8.032C53.5971 7.768 53.5131 7.582 53.4171 7.474C53.2971 7.342 53.1171 7.228 52.8771 7.132C52.6371 7.036 52.3851 7.048 52.1211 7.168C51.9771 7.228 51.7971 7.354 51.5811 7.546C51.3651 7.726 51.1431 7.942 50.9151 8.194C50.6871 8.446 50.4711 8.698 50.2671 8.95C50.0631 9.202 49.9011 9.43 49.7811 9.634C49.6611 9.838 49.6011 9.982 49.6011 10.066C49.6011 10.066 49.5951 10.096 49.5831 10.156C49.5831 10.216 49.5591 10.276 49.5111 10.336C49.3551 10.504 49.1931 10.78 49.0251 11.164C48.8571 11.548 48.7011 11.986 48.5571 12.478C48.4131 12.97 48.2931 13.462 48.1971 13.954C48.1011 14.446 48.0411 14.89 48.0171 15.286C48.0171 15.478 48.0171 15.64 48.0171 15.772C48.0171 15.904 48.0291 16.024 48.0531 16.132C48.0891 16.228 48.1431 16.336 48.2151 16.456C48.2871 16.576 48.4311 16.696 48.6471 16.816C48.8751 16.936 49.0791 16.978 49.2591 16.942ZM56.223 18.076C56.163 18.172 56.103 18.256 56.043 18.328C55.995 18.4 55.941 18.442 55.881 18.454C55.845 18.394 55.749 18.31 55.593 18.202C55.437 18.094 55.287 17.98 55.143 17.86C54.999 17.74 54.915 17.632 54.891 17.536C54.891 17.404 54.939 17.152 55.035 16.78C55.131 16.408 55.257 15.988 55.413 15.52C55.569 15.04 55.725 14.572 55.881 14.116C56.049 13.648 56.193 13.258 56.313 12.946C56.397 12.73 56.469 12.544 56.529 12.388C56.589 12.22 56.637 12.088 56.673 11.992C56.721 11.86 56.805 11.668 56.925 11.416C57.045 11.164 57.171 10.906 57.303 10.642C57.447 10.378 57.567 10.15 57.663 9.958C57.759 9.766 57.807 9.67 57.807 9.67C57.819 9.574 57.885 9.394 58.005 9.13C58.125 8.866 58.275 8.56 58.455 8.212C58.635 7.864 58.821 7.522 59.013 7.186C59.205 6.838 59.379 6.532 59.535 6.268C59.679 6.052 59.787 5.932 59.859 5.908C59.943 5.872 60.015 5.878 60.075 5.926C60.339 5.902 60.567 5.908 60.759 5.944C60.963 5.968 61.119 6.016 61.227 6.088C61.347 6.148 61.413 6.22 61.425 6.304C61.449 6.34 61.449 6.496 61.425 6.772C61.413 7.036 61.389 7.27 61.353 7.474C61.281 8.062 61.245 8.608 61.245 9.112C61.245 9.604 61.275 10.15 61.335 10.75C61.407 11.338 61.485 12.07 61.569 12.946L61.839 14.692L62.163 13.99C62.283 13.726 62.391 13.462 62.487 13.198C62.583 12.922 62.679 12.688 62.775 12.496C62.871 12.22 62.973 11.956 63.081 11.704C63.201 11.44 63.261 11.308 63.261 11.308C63.369 11.152 63.471 10.942 63.567 10.678C63.675 10.414 63.771 10.15 63.855 9.886C63.951 9.622 64.023 9.424 64.071 9.292C64.095 9.208 64.131 9.082 64.179 8.914C64.239 8.746 64.299 8.56 64.359 8.356C64.431 8.152 64.497 7.954 64.557 7.762C64.629 7.522 64.695 7.306 64.755 7.114C64.815 6.922 64.869 6.76 64.917 6.628C64.965 6.484 64.995 6.388 65.007 6.34C65.007 6.34 65.031 6.31 65.079 6.25C65.127 6.19 65.181 6.094 65.241 5.962L65.889 5.818C66.165 6.046 66.321 6.262 66.357 6.466C66.405 6.658 66.369 6.91 66.249 7.222C66.237 7.342 66.207 7.474 66.159 7.618C66.111 7.75 66.087 7.816 66.087 7.816C66.159 7.816 66.165 7.9 66.105 8.068C66.057 8.224 66.021 8.362 65.997 8.482C65.973 8.566 65.931 8.71 65.871 8.914C65.823 9.118 65.769 9.334 65.709 9.562C65.649 9.79 65.595 9.988 65.547 10.156C65.523 10.252 65.457 10.432 65.349 10.696C65.241 10.948 65.115 11.236 64.971 11.56C64.827 11.884 64.677 12.214 64.521 12.55C64.377 12.874 64.245 13.156 64.125 13.396C64.005 13.636 63.921 13.798 63.873 13.882C63.837 13.954 63.795 14.044 63.747 14.152C63.711 14.26 63.663 14.344 63.603 14.404C63.543 14.596 63.435 14.812 63.279 15.052C63.123 15.292 62.955 15.526 62.775 15.754C62.607 15.982 62.457 16.174 62.325 16.33C62.169 16.498 62.013 16.624 61.857 16.708C61.701 16.792 61.521 16.786 61.317 16.69C61.125 16.594 60.885 16.378 60.597 16.042C60.537 15.946 60.471 15.736 60.399 15.412C60.327 15.088 60.249 14.716 60.165 14.296C60.093 13.864 60.021 13.438 59.949 13.018C59.877 12.586 59.823 12.22 59.787 11.92C59.739 11.68 59.721 11.494 59.733 11.362C59.745 11.218 59.751 11.068 59.751 10.912C59.751 10.72 59.751 10.576 59.751 10.48C59.763 10.372 59.775 10.27 59.787 10.174C59.799 10.066 59.805 9.928 59.805 9.76C59.817 9.628 59.811 9.55 59.787 9.526C59.763 9.49 59.715 9.52 59.643 9.616C59.439 9.916 59.265 10.192 59.121 10.444C58.977 10.696 58.869 10.9 58.797 11.056C58.749 11.188 58.659 11.41 58.527 11.722C58.395 12.022 58.251 12.358 58.095 12.73C57.939 13.102 57.789 13.45 57.645 13.774C57.513 14.098 57.411 14.344 57.339 14.512C57.255 14.692 57.165 14.938 57.069 15.25C56.985 15.55 56.901 15.868 56.817 16.204C56.733 16.528 56.661 16.816 56.601 17.068C56.553 17.32 56.517 17.482 56.493 17.554C56.481 17.566 56.439 17.638 56.367 17.77C56.307 17.902 56.259 18.004 56.223 18.076Z" fill="black"/>
<rect x="28" y="21.5" width="22" height="15" rx="7.5" fill="#A0E5E2"/>
<path d="M34.208 30.436C34.16 30.436 34.1 30.436 34.028 30.436C33.956 30.428 33.876 30.408 33.788 30.376C33.668 30.376 33.572 30.352 33.5 30.304C33.436 30.248 33.388 30.192 33.356 30.136C33.268 30.016 33.272 29.924 33.368 29.86C33.472 29.788 33.672 29.736 33.968 29.704C34.104 29.672 34.304 29.648 34.568 29.632C34.84 29.608 35.132 29.592 35.444 29.584C35.756 29.568 36.052 29.556 36.332 29.548C36.612 29.54 36.832 29.536 36.992 29.536C37.2 29.536 37.384 29.556 37.544 29.596C37.712 29.636 37.84 29.7 37.928 29.788C38.048 29.908 38.076 30.036 38.012 30.172C37.948 30.3 37.824 30.348 37.64 30.316C37.6 30.316 37.524 30.32 37.412 30.328C37.3 30.336 37.176 30.344 37.04 30.352C36.912 30.36 36.8 30.368 36.704 30.376C36.656 30.376 36.524 30.38 36.308 30.388C36.092 30.396 35.84 30.404 35.552 30.412C35.272 30.42 35.004 30.428 34.748 30.436C34.5 30.436 34.32 30.436 34.208 30.436ZM35.816 32.308C35.696 32.396 35.6 32.392 35.528 32.296C35.464 32.192 35.416 31.992 35.384 31.696C35.352 31.56 35.324 31.36 35.3 31.096C35.284 30.824 35.268 30.532 35.252 30.22C35.244 29.908 35.236 29.612 35.228 29.332C35.22 29.052 35.216 28.832 35.216 28.672C35.216 28.464 35.236 28.28 35.276 28.12C35.316 27.952 35.376 27.824 35.456 27.736C35.576 27.616 35.704 27.588 35.84 27.652C35.976 27.716 36.028 27.84 35.996 28.024C36.004 28.064 36.008 28.14 36.008 28.252C36.016 28.364 36.024 28.488 36.032 28.624C36.04 28.752 36.048 28.864 36.056 28.96C36.056 29.008 36.06 29.14 36.068 29.356C36.076 29.572 36.084 29.824 36.092 30.112C36.1 30.392 36.104 30.66 36.104 30.916C36.112 31.164 36.116 31.344 36.116 31.456C36.116 31.504 36.112 31.564 36.104 31.636C36.104 31.708 36.088 31.788 36.056 31.876C36.056 31.996 36.028 32.092 35.972 32.164C35.924 32.228 35.872 32.276 35.816 32.308ZM44.4017 32.644C44.3697 32.644 44.2897 32.588 44.1617 32.476C44.0417 32.364 43.9817 32.196 43.9817 31.972C43.9897 31.724 44.0297 31.464 44.1017 31.192C44.1817 30.912 44.2577 30.664 44.3297 30.448C44.3777 30.304 44.4177 30.184 44.4497 30.088C44.4897 29.992 44.5097 29.932 44.5097 29.908C44.5017 29.908 44.4577 29.916 44.3777 29.932C44.3057 29.948 44.2137 29.968 44.1017 29.992C43.7097 30.072 43.4097 30.112 43.2017 30.112C43.0017 30.112 42.8297 29.992 42.6857 29.752C42.6377 29.704 42.5737 29.616 42.4937 29.488C42.4137 29.36 42.3577 29.22 42.3257 29.068C42.3017 28.916 42.3417 28.788 42.4457 28.684C42.5257 28.484 42.5897 28.34 42.6377 28.252C42.6857 28.164 42.7177 28.1 42.7337 28.06C42.7577 28.02 42.7697 27.98 42.7697 27.94C42.7777 27.924 42.7897 27.9 42.8057 27.868C42.8217 27.836 42.8417 27.804 42.8657 27.772C42.9377 27.652 43.0377 27.496 43.1657 27.304C43.3017 27.112 43.4417 26.92 43.5857 26.728C43.7377 26.528 43.8737 26.352 43.9937 26.2C44.1137 26.04 44.2017 25.936 44.2577 25.888C44.3057 25.864 44.3897 25.828 44.5097 25.78C44.6377 25.732 44.7297 25.708 44.7857 25.708C44.8497 25.708 44.9097 25.752 44.9657 25.84C45.0297 25.92 45.0817 26.004 45.1217 26.092C45.1617 26.18 45.1817 26.24 45.1817 26.272C45.1817 26.272 45.1777 26.28 45.1697 26.296C45.1617 26.312 45.1457 26.34 45.1217 26.38C45.0897 26.428 45.0417 26.492 44.9777 26.572C44.9217 26.652 44.8377 26.756 44.7257 26.884C44.6297 26.996 44.5097 27.16 44.3657 27.376C44.2217 27.584 44.0777 27.808 43.9337 28.048C43.7977 28.28 43.6817 28.488 43.5857 28.672C43.4897 28.856 43.4417 28.98 43.4417 29.044C43.4417 29.084 43.4537 29.116 43.4777 29.14C43.5097 29.156 43.5657 29.164 43.6457 29.164C43.7497 29.148 43.8417 29.132 43.9217 29.116C44.0097 29.1 44.0897 29.084 44.1617 29.068C44.2497 29.052 44.3257 29.036 44.3897 29.02C44.4537 28.996 44.5137 28.976 44.5697 28.96C44.6337 28.936 44.6897 28.916 44.7377 28.9C44.7937 28.876 44.8417 28.848 44.8817 28.816C44.9777 28.736 45.0497 28.628 45.0977 28.492C45.1457 28.356 45.2217 28.172 45.3257 27.94C45.3897 27.78 45.4537 27.636 45.5177 27.508C45.5897 27.372 45.6537 27.248 45.7097 27.136C45.9097 26.768 46.0777 26.5 46.2137 26.332C46.3497 26.156 46.4257 26.068 46.4417 26.068C46.4657 26.068 46.5217 26.1 46.6097 26.164C46.6977 26.228 46.7817 26.296 46.8617 26.368C46.9257 26.424 46.9777 26.476 47.0177 26.524C47.0577 26.564 47.0777 26.592 47.0777 26.608C47.0777 26.704 47.0537 26.804 47.0057 26.908C46.9657 27.004 46.9057 27.116 46.8257 27.244C46.7457 27.372 46.6537 27.536 46.5497 27.736C46.4297 27.968 46.3177 28.2 46.2137 28.432C46.1097 28.656 46.0097 28.88 45.9137 29.104C45.8177 29.32 45.7297 29.532 45.6497 29.74C45.5697 29.948 45.4937 30.144 45.4217 30.328C45.2457 30.8 45.1257 31.148 45.0617 31.372C44.9977 31.596 44.9657 31.752 44.9657 31.84C44.9737 31.92 44.9897 31.988 45.0137 32.044C45.0137 32.148 44.9817 32.248 44.9177 32.344C44.8537 32.432 44.7737 32.504 44.6777 32.56C44.5817 32.616 44.4897 32.644 44.4017 32.644Z" fill="black"/>
</svg>
