<svg width="98" height="89" viewBox="0 0 98 89" fill="none" xmlns="http://www.w3.org/2000/svg">
<path d="M14.4594 49.3783C21.4087 48.3226 31.6654 46.2996 37.3844 43.8547C41.1375 48.3369 76.5297 45.5416 84.6882 47.397C88.8213 48.3369 91.5021 50.1704 88.8213 54.8563C86.1405 59.5422 98.2342 57.2035 94.9872 62.802C92.0226 67.9135 65.0771 66.3911 55.4262 71.4845C49.3975 74.6662 43.2878 73.9567 36.676 72.0872C31.7901 70.7057 21.3639 73.314 11.2372 71.4845C1.11063 65.9492 10.1662 59.1437 3.8724 56.2829C-1.19088 53.9814 4.57381 50.8801 14.4594 49.3783Z" fill="black"/>
<path d="M47.6289 64.2385C49.2067 63.3288 53.052 62.0239 55.8109 64.0813M21.0359 66.2218C22.6137 65.3121 26.4591 64.0071 29.2179 66.0646M66.5108 63.0491C68.0886 62.1395 71.9339 60.8345 74.6928 62.8919M40.0719 69.2229C40.6006 69.3992 41.8697 69.7517 42.7157 69.7517M9.40283 61.82C10.1079 61.6438 11.8352 61.397 13.1043 61.82M82.9027 50.7157C83.784 50.3632 85.8639 49.8696 87.1329 50.7157M85.0178 64.0813C86.4279 63.905 87.4502 62.6261 88.7193 63.0491M36.3704 61.82C37.428 61.7285 39.7546 61.8146 40.6006 62.8919" stroke="white" stroke-width="1.8412" stroke-linecap="round" stroke-linejoin="round"/>
<path d="M48.5324 11.5994L35.313 12.6569L26.3238 30.6353L15.7483 37.5094L13.1044 45.9698L11.5181 57.0741L19.9785 57.6029H46.4173H86.0755L76.0288 48.0849L71.7986 45.9698L65.4532 36.9806L63.8669 31.6929L54.8777 24.8188L52.2338 17.4159L48.5324 11.5994Z" fill="white"/>
<path fill-rule="evenodd" clip-rule="evenodd" d="M49.5899 10.013C49.8797 10.0943 49.8097 10.5669 49.9424 10.8369L53.8201 20.0598C53.992 20.6202 54.4514 21.8416 54.8776 22.7037C55.3272 23.613 56.0313 24.5463 56.4028 24.8188C57.1711 25.3824 59.4033 26.435 61.1043 27.96C61.9529 28.7208 62.7794 29.515 63.4017 30.227C63.7116 30.5816 63.9924 30.9401 64.2016 31.2819C64.3826 31.5778 64.6022 32.005 64.6149 32.4762C64.6179 32.49 64.6264 32.5279 64.6475 32.5957C64.6859 32.7189 64.7487 32.888 64.8397 33.1041C65.0211 33.5348 65.29 34.0948 65.6288 34.7463C66.3048 36.0463 66.5821 37.5257 67.5683 39.0958C68.5566 40.6693 70.2379 42.3074 71.1249 43.4096C71.5711 43.9639 71.9577 44.3873 72.266 44.6623C72.4202 44.7997 72.5305 44.8781 72.5981 44.917C72.8434 44.9362 73.0652 45.0102 73.2284 45.0751C73.4364 45.1578 73.6536 45.2688 73.8702 45.3926C74.3042 45.6408 74.8126 45.9853 75.3636 46.3893C76.4698 47.2001 77.2483 48.6751 78.6725 49.8929C81.5251 52.3321 85.0806 55.1277 87.1331 57.0741C87.4471 57.372 88.3509 57.7296 88.1906 58.1317C88.0303 58.5338 87.037 58.6605 86.6042 58.6605H29.9684L10.7161 58.2925C10.7161 58.2925 10.109 58.2924 10.4723 57.4445C10.9695 54.1627 11.7902 49.218 12.6376 45.0503C13.0605 42.9701 13.4946 41.0606 13.9029 39.6425C14.1056 38.9385 14.312 38.3202 14.5197 37.853C14.6222 37.6226 14.7426 37.3886 14.8859 37.1901C14.9974 37.0357 15.2665 36.694 15.7274 36.5813L15.7251 36.5818C15.7251 36.5818 15.7581 36.5718 15.8343 36.5384C15.9152 36.503 16.0205 36.4517 16.1514 36.3826C16.4135 36.2442 16.745 36.0517 17.135 35.8122C17.9135 35.3341 18.8828 34.6949 19.9181 33.9898C21.8895 32.6471 24.0659 31.0885 25.5474 30.0051C26.9139 27.1544 29.2582 23.6374 31.0827 20.0598C32.0201 18.2216 32.6013 15.87 33.3112 14.6C33.6653 13.9667 33.9831 13.4242 34.2463 13.015C34.3773 12.8114 34.504 12.6263 34.6217 12.4742C34.714 12.355 34.8823 12.1455 35.1018 12.0024C35.3189 11.8608 35.5522 11.7893 35.7288 11.7478C35.9175 11.7033 36.1197 11.6758 36.3192 11.6573C36.7171 11.6206 37.1946 11.6128 37.704 11.6158C38.1732 11.6185 38.6469 11.6292 39.1443 11.6405C39.8151 11.6556 40.5292 11.6718 41.3336 11.6707C42.6706 11.6689 44.0512 11.6147 45.3128 11.4216C46.5866 11.2265 47.6564 10.9014 48.4245 10.4115C48.6782 10.2497 49.3002 9.93184 49.5899 10.013ZM36.2751 13.794C36.333 13.7837 36.4113 13.7729 36.5135 13.7635C36.804 13.7367 37.1963 13.7279 37.6916 13.7309C38.0614 13.733 38.5166 13.7428 39.0152 13.7536C39.7403 13.7692 40.5572 13.7869 41.3365 13.7858C42.7153 13.7839 44.2176 13.729 45.6329 13.5123C46.213 13.4235 46.7927 13.3055 47.3527 13.147L43.5854 26.0425C43.5573 26.1388 43.543 26.2387 43.543 26.339V33.2462C43.543 34.4333 43.6372 38.4918 44.8309 44.9123C45.9234 50.789 45.481 54.9509 44.8309 56.5454L27.91 57.0741L12.7509 56.5454C13.2498 53.3555 13.7805 48.6861 14.5197 45.0503C14.9394 42.9861 15.5508 41.5636 15.9354 40.2278C16.1292 39.5549 16.3038 39.0464 16.4523 38.7126C16.4853 38.6385 16.5137 38.5805 16.537 38.5363C16.7391 38.4574 16.9474 38.3541 17.1392 38.2529C17.4579 38.0845 17.8326 37.8658 18.2418 37.6146C19.0617 37.1111 20.0625 36.4506 21.1088 35.738C23.2036 34.3112 25.5187 32.6495 27.012 31.5542C27.1524 31.4512 27.2653 31.3151 27.3405 31.158C28.7011 28.3151 30.7972 24.0158 32.6627 20.3577C33.5962 18.5272 34.4672 16.8668 35.1574 15.6321C35.5035 15.0131 35.7967 14.5144 36.0252 14.1592C36.1292 13.9975 36.2123 13.8773 36.2751 13.794ZM16.6007 38.4282C16.6181 38.4042 16.6178 38.4099 16.5986 38.4312L16.6007 38.4282ZM46.7377 56.5454H83.9282C82.0977 54.8499 79.903 52.8671 77.8786 51.136C76.4685 49.9303 75.156 48.8596 74.1132 48.0951C73.5897 47.7115 73.1543 47.4198 72.8202 47.2287C72.6527 47.1329 72.5298 47.0735 72.4472 47.0407C72.4303 47.0339 72.4169 47.0291 72.4069 47.0257C72.0563 47.0089 71.757 46.8729 71.5465 46.7521C71.3064 46.6145 71.0746 46.4337 70.8582 46.2408C70.4246 45.854 69.9545 45.3288 69.4772 44.7357C68.5173 43.5431 67.4356 41.9596 66.426 40.3523C65.4142 38.7414 64.4585 37.0805 63.7522 35.7221C63.3998 35.0445 63.1025 34.4287 62.8904 33.925C62.7847 33.6739 62.6939 33.4362 62.6279 33.2239C62.5746 33.0527 62.512 32.821 62.5018 32.5846C62.4928 32.5619 62.4661 32.4982 62.3974 32.3859C62.2756 32.1867 62.0801 31.9289 61.8091 31.6189C61.2698 31.0018 60.5165 30.2737 59.6924 29.5349C58.048 28.0607 56.2167 26.6282 55.4982 26.1012C54.6802 25.5012 54.0291 24.414 53.568 23.4814C53.1035 22.5419 52.7413 21.5676 52.5361 20.9148L49.2446 14.2138L45.6581 26.4903V33.2462C45.6581 34.2402 45.2319 38.0076 46.4173 44.3835C47.4399 49.8839 46.9461 53.9015 46.7377 56.5454ZM39.3621 23.4814C39.9405 23.3999 40.3621 24.5224 40.4437 25.1007C40.7003 26.9197 40.8924 29.803 40.6355 32.5889C40.5069 33.9828 40.263 35.3862 39.8406 36.6334C39.4213 37.8715 38.7998 39.0337 37.865 39.8565C35.1374 42.2574 31.5185 46.346 29.7551 48.4388L30.3964 51.5745C30.5134 52.1467 30.3273 53.2609 29.7551 53.378C29.1829 53.495 28.617 52.5722 28.5 52L27.5807 48.3629C27.5164 48.0486 27.5983 47.722 27.8034 47.4752C29.4194 45.5301 33.4281 40.9441 36.4675 38.2689C37.0195 37.783 37.4822 37.0033 37.8373 35.9549C38.1893 34.9157 38.41 33.6879 38.5293 32.3947C38.768 29.8064 38.5884 27.0913 38.3493 25.3961C38.2678 24.8178 38.7838 23.563 39.3621 23.4814ZM30.3964 32.3947C30.8742 32.7306 30.3359 34.0222 30 34.5L26.1366 40.398C25.8007 40.8758 24.4778 41.8359 24 41.5C23.5222 41.1641 24.6641 39.9778 25 39.5L28.4951 33.365C28.831 32.8872 29.9185 32.0588 30.3964 32.3947ZM54.5 36.5C55.0647 36.351 55.851 36.9353 56 37.5L59.2243 48.0313L66.086 50.0445C66.6464 50.209 67.6644 50.9396 67.5 51.5C67.3356 52.0604 66.0509 52.2385 65.4905 52.0741L58.0562 49.8929C57.7008 49.7886 57.4259 49.506 57.3314 49.1479L54.3577 37.8784C54.2087 37.3137 53.9353 36.649 54.5 36.5Z" fill="black"/>
<path d="M71.5 66.5C68.6667 68.5 59 77.6 59 80C59 82.4 53.3333 83.3333 50.5 83.5C47.6667 81.1667 41.2 76.5 38 76.5C34.8 76.5 33.6667 79.5 33.5 81C30.5 80.6667 24.3 79.3 23.5 76.5M52.5 80C53 77.5 54.6 73.5 57 73.5" stroke="black" stroke-width="1.5" stroke-linecap="round" stroke-linejoin="round"/>
<path d="M9.25707 28.28C8.89707 28.02 8.71707 27.8 8.71707 27.62C8.63707 27.5 8.54707 27.44 8.44707 27.44C8.38707 27.46 8.32707 27.4 8.26707 27.26C8.22707 27.12 8.18707 26.96 8.14707 26.78C8.12707 26.58 8.12707 26.44 8.14707 26.36C8.22707 26.2 8.34707 26.11 8.50707 26.09C8.66707 26.05 8.81707 26.07 8.95707 26.15C9.11707 26.21 9.20707 26.32 9.22707 26.48C9.26707 26.64 9.41707 26.77 9.67707 26.87C9.95707 26.97 10.3171 27.01 10.7571 26.99C11.3171 26.97 11.8971 26.83 12.4971 26.57C13.1171 26.31 13.6871 25.98 14.2071 25.58C14.7471 25.18 15.1771 24.77 15.4971 24.35C15.6371 24.07 15.7671 23.7 15.8871 23.24C16.0071 22.78 16.0871 22.37 16.1271 22.01C16.1671 21.65 16.1371 21.47 16.0371 21.47C16.0371 21.47 16.0171 21.4 15.9771 21.26C15.9571 21.12 15.9171 20.97 15.8571 20.81C15.7571 20.51 15.5271 20.21 15.1671 19.91C14.8071 19.59 14.4571 19.36 14.1171 19.22C13.9771 19.18 13.7171 19.15 13.3371 19.13C12.9771 19.09 12.6471 19.09 12.3471 19.13C12.0271 19.15 11.7371 19.15 11.4771 19.13C11.2371 19.11 11.1171 19.1 11.1171 19.1C11.0171 19.08 10.8671 19 10.6671 18.86C10.4871 18.72 10.3171 18.57 10.1571 18.41C9.99707 18.25 9.91707 18.12 9.91707 18.02C9.95707 17.88 10.0571 17.66 10.2171 17.36C10.3771 17.04 10.5671 16.69 10.7871 16.31C11.0271 15.91 11.2771 15.54 11.5371 15.2C11.7971 14.84 12.0471 14.54 12.2871 14.3C12.8871 13.64 13.5671 13.15 14.3271 12.83C15.1071 12.49 15.9071 12.34 16.7271 12.38C17.3071 12.4 17.7171 12.45 17.9571 12.53C18.2171 12.59 18.4671 12.78 18.7071 13.1C18.8671 13.38 18.9371 13.63 18.9171 13.85C18.8971 14.07 18.8171 14.22 18.6771 14.3C18.5371 14.38 18.3471 14.36 18.1071 14.24C17.8271 14.06 17.4371 13.99 16.9371 14.03C16.4571 14.07 15.9471 14.17 15.4071 14.33C14.9871 14.49 14.5371 14.75 14.0571 15.11C13.5971 15.45 13.3171 15.73 13.2171 15.95C13.1371 16.01 13.0771 16.07 13.0371 16.13C13.0171 16.19 12.9671 16.21 12.8871 16.19C12.8871 16.19 12.8571 16.23 12.7971 16.31C12.7371 16.37 12.7071 16.44 12.7071 16.52C12.6071 16.64 12.5371 16.73 12.4971 16.79C12.4771 16.83 12.4271 16.81 12.3471 16.73C12.3471 16.73 12.3471 16.76 12.3471 16.82C12.3471 16.88 12.3371 16.95 12.3171 17.03C12.2971 17.17 12.3071 17.29 12.3471 17.39C12.4071 17.47 12.6271 17.53 13.0071 17.57C13.5071 17.65 13.8871 17.73 14.1471 17.81C14.4071 17.87 14.7871 18.05 15.2871 18.35C15.8471 18.67 16.2971 19.1 16.6371 19.64C16.9771 20.16 17.2071 20.75 17.3271 21.41C17.4671 22.07 17.4871 22.74 17.3871 23.42C17.3271 23.86 17.2671 24.2 17.2071 24.44C17.1471 24.68 16.9771 25.01 16.6971 25.43C16.2371 26.07 15.6771 26.64 15.0171 27.14C14.3571 27.62 13.6671 28 12.9471 28.28C12.2271 28.54 11.5371 28.68 10.8771 28.7C10.2371 28.72 9.69707 28.58 9.25707 28.28Z" fill="black"/>
</svg>
