<svg width="98" height="89" viewBox="0 0 98 89" fill="none" xmlns="http://www.w3.org/2000/svg">
<path d="M19.3267 55.7814C25.8979 54.7831 35.5964 52.8701 41.0042 50.5583C44.553 54.7966 78.0191 52.1534 85.7337 53.9078C89.6419 54.7966 92.1768 56.5304 89.6419 60.9612C87.107 65.3921 98.5424 63.1806 95.4722 68.4745C92.6689 73.3078 67.1898 71.8683 58.0641 76.6845C52.3635 79.693 46.5863 79.0221 40.3343 77.2544C35.7144 75.9481 25.8555 78.4144 16.28 76.6845C6.70444 71.4504 15.2672 65.0153 9.31592 62.3101C4.52818 60.1339 9.97915 57.2014 19.3267 55.7814Z" fill="black"/>
<path d="M51.1001 71.4505C52.095 70.0448 54.8806 67.4021 58.0641 68.0768" stroke="white" stroke-width="1.74101" stroke-linecap="round" stroke-linejoin="round"/>
<path d="M60.2731 18.7553L50.9244 20.5731C50.3012 22.2351 48.7604 24.0356 48.0679 24.7281L46.5098 35.8946L50.6647 42.9061L53.6542 50.1774L56.1182 51.9952L64.4281 50.1774L65.9862 49.3983C69.9335 48.775 72.8247 47.4074 73.7768 46.8014L76.114 37.193L76.3737 33.2977L75.5946 27.5846L73.2575 21.0925L70.6606 17.9762C69.1025 17.2837 65.6746 16.1584 64.4281 17.1972C63.1816 18.2359 61.1388 18.6687 60.2731 18.7553Z" fill="white"/>
<mask id="path-4-outside-1_100_19140" maskUnits="userSpaceOnUse" x="45.25" y="15.4182" width="33" height="38" fill="black">
<rect fill="white" x="45.25" y="15.4182" width="33" height="38"/>
<path fill-rule="evenodd" clip-rule="evenodd" d="M74.4015 47.0096C73.1748 47.7739 72.0051 48.5414 70.547 48.8376C69.4756 49.0541 68.3757 49.2834 67.3614 49.7675C66.9937 49.9426 66.5689 49.9999 66.1695 50.1114C65.9698 50.1687 65.7162 50.1719 65.5799 50.2993C65.0791 50.7674 64.4578 50.7515 63.8461 50.8725C62.7588 51.0859 61.6684 51.3024 60.6065 51.6495C60.0169 51.8406 59.3798 51.8884 58.7585 51.9871C58.3116 52.0572 57.852 52.0667 57.4145 52.1654C56.6443 52.3374 55.8867 52.2259 55.1259 52.1272C54.8914 52.0954 54.6631 51.9807 54.4381 51.8884C54.0831 51.7482 53.8422 51.503 53.8612 51.1018C53.877 50.7292 53.7154 50.4298 53.5664 50.1114C52.9768 48.8439 52.3619 47.5956 51.8642 46.2836C51.2588 44.6881 50.5044 43.1595 49.4203 41.8093C48.9416 41.2169 48.5898 40.5163 48.2158 39.8444C47.791 39.0801 47.3758 38.3094 47.0176 37.5133C46.7196 36.8477 46.5104 36.1408 46.2695 35.4497C46.2473 35.386 46.2473 35.3096 46.2536 35.2427C46.3804 34.0613 46.3329 32.8607 46.6689 31.7047C46.764 31.3703 46.8179 31.02 46.8527 30.6729C46.9415 29.8385 46.9922 28.9978 47.0936 28.1635C47.1602 27.6094 47.2838 27.0616 47.3853 26.5107C47.455 26.1317 47.5469 25.7591 47.604 25.3802C47.7118 24.6541 48.0097 24.0936 48.6754 23.6892C49.3696 23.2688 49.8577 22.6192 50.0923 21.8135C50.1398 21.6479 50.143 21.4664 50.1905 21.2976C50.3585 20.718 50.7104 20.3231 51.3095 20.1639C51.9149 20.0015 52.5235 19.8486 53.1194 19.6575C55.1862 18.9856 57.3099 18.6353 59.4781 18.5111C60.2071 18.4697 60.933 18.3678 61.6621 18.3009C62.1249 18.2595 62.5369 18.1226 62.9141 17.8296C63.2153 17.5971 63.5671 17.4252 63.8778 17.2054C65.1425 16.3106 66.5626 16.336 68.0017 16.5239C68.2331 16.5526 68.4391 16.7309 68.6673 16.8137C68.8924 16.8997 69.146 17.0462 69.3552 17.0048C70.3251 16.8042 70.9274 17.3901 71.4948 17.9952C71.8023 18.32 72.0083 18.7436 72.2619 19.1193C73.1431 20.4314 73.85 21.8294 74.2747 23.3643C74.4522 24.0044 74.6709 24.6318 74.8801 25.2623C74.9467 25.4598 75.0069 25.6731 75.1306 25.8324C75.5014 26.326 75.6282 26.896 75.7455 27.4852C76.091 29.2367 76.4619 30.9818 76.8391 32.7237C76.9152 33.074 76.9057 33.3989 76.8423 33.7523C76.7123 34.4752 76.6267 35.2077 76.5887 35.9401C76.5506 36.6503 76.3858 37.3286 76.11 37.9687C75.6758 38.975 75.4254 40.01 75.3334 41.1055C75.2637 41.9016 75.1147 42.7009 74.9245 43.478C74.6868 44.4365 74.6075 45.4078 74.5029 46.3823C74.4808 46.5893 74.4395 46.7931 74.4047 47.0096H74.4015ZM55.8074 51.0763C56.1815 51.5667 56.6126 51.4903 57.0246 51.4393C57.9597 51.3215 58.8885 51.1878 59.8204 51.0508C60.0264 51.0222 60.223 50.9489 60.4258 50.9043C61.6811 50.6273 62.9332 50.3311 64.1947 50.0859C64.5212 50.0222 64.8255 49.9872 64.9618 49.6528C65.0854 49.3535 65.3264 49.2356 65.6053 49.1847C65.9793 49.1178 66.3597 49.086 66.7401 49.0382C67.0824 48.9936 67.4375 48.9872 67.7703 48.8981C68.9114 48.5955 70.0462 48.2643 71.1842 47.9395C71.3839 47.8822 71.5899 47.8281 71.7769 47.7389C72.6137 47.3504 72.9751 46.6116 73.1875 45.7708C73.2128 45.6785 73.178 45.5638 73.1526 45.4651C72.88 44.4907 72.6042 43.5162 72.3253 42.5449C72.1922 42.0736 72.0241 41.6118 71.9227 41.1341C71.7452 40.2839 71.6469 39.4145 71.1968 38.6406C71.0986 38.4687 71.0954 38.2362 71.07 38.026C71.0067 37.5292 70.8418 37.0515 70.5312 36.6758C69.9638 35.9911 69.9955 35.1822 69.9796 34.3829C69.9765 34.2491 70.1032 34.0326 70.2205 33.988C70.4361 33.9052 70.5026 34.1281 70.5407 34.2905C70.5977 34.5294 70.6453 34.7714 70.6643 35.0134C70.7024 35.5102 70.8291 35.9561 71.1493 36.3669C71.3775 36.6598 71.5582 37.042 71.6248 37.4082C71.7579 38.1407 71.9671 38.8285 72.3285 39.4782C72.4109 39.6215 72.4426 39.8157 72.4331 39.9877C72.4045 40.6373 72.674 41.2201 72.8356 41.8252C73.0575 42.6691 73.3491 43.4939 73.6186 44.3251C73.6312 44.3633 73.7105 44.3792 73.8056 44.4301C73.926 43.9397 74.0687 43.4748 74.1543 42.9939C74.3349 41.9621 74.4808 40.924 74.6519 39.889C74.6805 39.717 74.7407 39.5514 74.8009 39.3858C75.064 38.6629 75.3556 37.9496 75.5902 37.2203C75.8343 36.4592 76.053 35.6949 75.7011 34.8797C75.549 34.5262 75.568 34.1058 75.8755 33.8033C76.1671 33.5199 76.1607 33.1855 76.11 32.832C76.0815 32.625 76.0403 32.418 75.9991 32.211C75.736 30.9436 75.4824 29.6729 75.2066 28.4087C75.0133 27.5266 74.9721 26.5935 74.3381 25.8578C74.2525 25.7591 74.2367 25.5999 74.1955 25.4661C73.9387 24.6318 73.7041 23.7911 73.422 22.9631C73.2097 22.3357 72.9973 21.6925 72.6771 21.1192C72.17 20.2021 71.574 19.3359 71.0098 18.4506C70.9654 18.3805 70.8545 18.3519 70.7499 18.285C70.6928 18.4156 70.6326 18.5015 70.6199 18.5939C70.4012 20.1989 70.4139 21.8103 70.6009 23.4121C70.8703 25.7145 71.0066 28.0106 70.7023 30.3194C70.6643 30.5965 70.6263 30.8735 70.5502 31.141C70.3568 31.8161 70.1571 32.4753 70.4456 33.1855C70.4931 33.3033 70.3061 33.5199 70.2205 33.7046C69.8085 33.5358 69.4249 33.4976 69.1713 33.1537C69.0857 33.039 68.8765 32.9562 68.7244 32.9594C68.2394 32.969 67.7449 33.0995 67.2726 33.0454C66.7052 32.9785 66.2488 33.1791 65.7892 33.4243C65.1076 33.7874 64.4039 34.0676 63.6369 34.1982C63.0568 34.2937 62.4925 34.488 61.9093 34.5963C60.8157 34.8001 59.7348 35.058 58.6159 35.1344C57.8234 35.1886 57.0342 35.3669 56.248 35.5007C55.3922 35.644 54.5363 35.9051 53.6773 35.9242C52.3111 35.9561 50.9767 36.2013 49.6263 36.3414C48.9987 36.4083 48.3457 36.5388 47.7466 36.8796C47.9622 37.456 48.1302 37.991 48.3584 38.4973C48.5739 38.9718 48.78 39.4814 49.1192 39.8635C49.5059 40.2998 49.5249 40.9049 49.9148 41.3157C49.9401 41.3411 49.9528 41.373 49.975 41.4016C50.8277 42.4653 51.6328 43.5576 52.0354 44.8919C52.0544 44.9588 52.1083 45.0129 52.1336 45.0766C52.3619 45.6244 52.6186 46.1594 52.8025 46.723C53.1511 47.7962 53.709 48.7675 54.2415 49.7484C54.4793 50.1846 54.8311 50.5095 55.3637 50.6241C55.4302 50.277 55.4746 49.9649 55.5602 49.6656C55.5855 49.5828 55.7345 49.5318 55.8772 49.4331C56.0198 50.0445 55.9501 50.554 55.8043 51.0795L55.8074 51.0763ZM47.0334 35.3383C47.6452 35.714 48.2316 35.6089 48.8022 35.4688C49.4869 35.3032 50.1715 35.2809 50.8752 35.3032C52.2287 35.3478 53.5886 35.3637 54.9326 35.0835C55.9881 34.8638 57.0468 34.6026 58.115 34.5135C59.1262 34.4307 60.1184 34.2587 61.1073 34.0772C61.6874 33.9689 62.2485 33.7428 62.8286 33.6664C63.9507 33.5167 65.003 33.1855 65.9667 32.5964C66.2519 32.4244 66.5436 32.3575 66.8637 32.3957C67.4818 32.4658 68.0239 32.2174 68.5596 31.9658C69.1808 31.6728 69.5454 31.1888 69.5802 30.4977C69.6214 29.6825 69.9226 28.9341 70.154 28.173C70.3093 27.6539 70.3854 27.1571 70.3473 26.6317C70.3251 26.3164 70.2808 26.0043 70.2332 25.6923C69.8909 23.4376 69.6975 21.1734 69.9543 18.8932C69.9796 18.6608 69.9543 18.4219 69.9511 18.2531C69.6119 18.0684 69.3298 17.9411 69.0794 17.7691C68.3821 17.285 67.634 16.973 66.775 16.8965C66.0237 16.8296 65.3042 16.8902 64.648 17.2532C64.0996 17.5525 63.5513 17.8805 63.0758 18.2786C62.6479 18.6353 62.1914 18.8295 61.6621 18.8837C60.5178 19.0015 59.3766 19.1321 58.2292 19.2021C56.0135 19.3391 53.9214 19.9951 51.8293 20.667C51.2397 20.8549 50.9735 21.1989 50.8023 21.8294C50.4917 22.9854 49.9655 24.0649 48.7293 24.5522C48.3077 24.7178 48.1872 25.0776 48.2062 25.4884C48.2253 25.877 48.2062 26.2495 48.0953 26.6285C47.9622 27.0966 47.8671 27.5807 47.8164 28.0616C47.7213 28.9692 47.6705 29.8768 47.5976 30.7875C47.5755 31.0646 47.5786 31.3576 47.4899 31.6187C47.081 32.8384 47.1982 34.109 47.0334 35.3446V35.3383Z"/>
</mask>
<path fill-rule="evenodd" clip-rule="evenodd" d="M74.4015 47.0096C73.1748 47.7739 72.0051 48.5414 70.547 48.8376C69.4756 49.0541 68.3757 49.2834 67.3614 49.7675C66.9937 49.9426 66.5689 49.9999 66.1695 50.1114C65.9698 50.1687 65.7162 50.1719 65.5799 50.2993C65.0791 50.7674 64.4578 50.7515 63.8461 50.8725C62.7588 51.0859 61.6684 51.3024 60.6065 51.6495C60.0169 51.8406 59.3798 51.8884 58.7585 51.9871C58.3116 52.0572 57.852 52.0667 57.4145 52.1654C56.6443 52.3374 55.8867 52.2259 55.1259 52.1272C54.8914 52.0954 54.6631 51.9807 54.4381 51.8884C54.0831 51.7482 53.8422 51.503 53.8612 51.1018C53.877 50.7292 53.7154 50.4298 53.5664 50.1114C52.9768 48.8439 52.3619 47.5956 51.8642 46.2836C51.2588 44.6881 50.5044 43.1595 49.4203 41.8093C48.9416 41.2169 48.5898 40.5163 48.2158 39.8444C47.791 39.0801 47.3758 38.3094 47.0176 37.5133C46.7196 36.8477 46.5104 36.1408 46.2695 35.4497C46.2473 35.386 46.2473 35.3096 46.2536 35.2427C46.3804 34.0613 46.3329 32.8607 46.6689 31.7047C46.764 31.3703 46.8179 31.02 46.8527 30.6729C46.9415 29.8385 46.9922 28.9978 47.0936 28.1635C47.1602 27.6094 47.2838 27.0616 47.3853 26.5107C47.455 26.1317 47.5469 25.7591 47.604 25.3802C47.7118 24.6541 48.0097 24.0936 48.6754 23.6892C49.3696 23.2688 49.8577 22.6192 50.0923 21.8135C50.1398 21.6479 50.143 21.4664 50.1905 21.2976C50.3585 20.718 50.7104 20.3231 51.3095 20.1639C51.9149 20.0015 52.5235 19.8486 53.1194 19.6575C55.1862 18.9856 57.3099 18.6353 59.4781 18.5111C60.2071 18.4697 60.933 18.3678 61.6621 18.3009C62.1249 18.2595 62.5369 18.1226 62.9141 17.8296C63.2153 17.5971 63.5671 17.4252 63.8778 17.2054C65.1425 16.3106 66.5626 16.336 68.0017 16.5239C68.2331 16.5526 68.4391 16.7309 68.6673 16.8137C68.8924 16.8997 69.146 17.0462 69.3552 17.0048C70.3251 16.8042 70.9274 17.3901 71.4948 17.9952C71.8023 18.32 72.0083 18.7436 72.2619 19.1193C73.1431 20.4314 73.85 21.8294 74.2747 23.3643C74.4522 24.0044 74.6709 24.6318 74.8801 25.2623C74.9467 25.4598 75.0069 25.6731 75.1306 25.8324C75.5014 26.326 75.6282 26.896 75.7455 27.4852C76.091 29.2367 76.4619 30.9818 76.8391 32.7237C76.9152 33.074 76.9057 33.3989 76.8423 33.7523C76.7123 34.4752 76.6267 35.2077 76.5887 35.9401C76.5506 36.6503 76.3858 37.3286 76.11 37.9687C75.6758 38.975 75.4254 40.01 75.3334 41.1055C75.2637 41.9016 75.1147 42.7009 74.9245 43.478C74.6868 44.4365 74.6075 45.4078 74.5029 46.3823C74.4808 46.5893 74.4395 46.7931 74.4047 47.0096H74.4015ZM55.8074 51.0763C56.1815 51.5667 56.6126 51.4903 57.0246 51.4393C57.9597 51.3215 58.8885 51.1878 59.8204 51.0508C60.0264 51.0222 60.223 50.9489 60.4258 50.9043C61.6811 50.6273 62.9332 50.3311 64.1947 50.0859C64.5212 50.0222 64.8255 49.9872 64.9618 49.6528C65.0854 49.3535 65.3264 49.2356 65.6053 49.1847C65.9793 49.1178 66.3597 49.086 66.7401 49.0382C67.0824 48.9936 67.4375 48.9872 67.7703 48.8981C68.9114 48.5955 70.0462 48.2643 71.1842 47.9395C71.3839 47.8822 71.5899 47.8281 71.7769 47.7389C72.6137 47.3504 72.9751 46.6116 73.1875 45.7708C73.2128 45.6785 73.178 45.5638 73.1526 45.4651C72.88 44.4907 72.6042 43.5162 72.3253 42.5449C72.1922 42.0736 72.0241 41.6118 71.9227 41.1341C71.7452 40.2839 71.6469 39.4145 71.1968 38.6406C71.0986 38.4687 71.0954 38.2362 71.07 38.026C71.0067 37.5292 70.8418 37.0515 70.5312 36.6758C69.9638 35.9911 69.9955 35.1822 69.9796 34.3829C69.9765 34.2491 70.1032 34.0326 70.2205 33.988C70.4361 33.9052 70.5026 34.1281 70.5407 34.2905C70.5977 34.5294 70.6453 34.7714 70.6643 35.0134C70.7024 35.5102 70.8291 35.9561 71.1493 36.3669C71.3775 36.6598 71.5582 37.042 71.6248 37.4082C71.7579 38.1407 71.9671 38.8285 72.3285 39.4782C72.4109 39.6215 72.4426 39.8157 72.4331 39.9877C72.4045 40.6373 72.674 41.2201 72.8356 41.8252C73.0575 42.6691 73.3491 43.4939 73.6186 44.3251C73.6312 44.3633 73.7105 44.3792 73.8056 44.4301C73.926 43.9397 74.0687 43.4748 74.1543 42.9939C74.3349 41.9621 74.4808 40.924 74.6519 39.889C74.6805 39.717 74.7407 39.5514 74.8009 39.3858C75.064 38.6629 75.3556 37.9496 75.5902 37.2203C75.8343 36.4592 76.053 35.6949 75.7011 34.8797C75.549 34.5262 75.568 34.1058 75.8755 33.8033C76.1671 33.5199 76.1607 33.1855 76.11 32.832C76.0815 32.625 76.0403 32.418 75.9991 32.211C75.736 30.9436 75.4824 29.6729 75.2066 28.4087C75.0133 27.5266 74.9721 26.5935 74.3381 25.8578C74.2525 25.7591 74.2367 25.5999 74.1955 25.4661C73.9387 24.6318 73.7041 23.7911 73.422 22.9631C73.2097 22.3357 72.9973 21.6925 72.6771 21.1192C72.17 20.2021 71.574 19.3359 71.0098 18.4506C70.9654 18.3805 70.8545 18.3519 70.7499 18.285C70.6928 18.4156 70.6326 18.5015 70.6199 18.5939C70.4012 20.1989 70.4139 21.8103 70.6009 23.4121C70.8703 25.7145 71.0066 28.0106 70.7023 30.3194C70.6643 30.5965 70.6263 30.8735 70.5502 31.141C70.3568 31.8161 70.1571 32.4753 70.4456 33.1855C70.4931 33.3033 70.3061 33.5199 70.2205 33.7046C69.8085 33.5358 69.4249 33.4976 69.1713 33.1537C69.0857 33.039 68.8765 32.9562 68.7244 32.9594C68.2394 32.969 67.7449 33.0995 67.2726 33.0454C66.7052 32.9785 66.2488 33.1791 65.7892 33.4243C65.1076 33.7874 64.4039 34.0676 63.6369 34.1982C63.0568 34.2937 62.4925 34.488 61.9093 34.5963C60.8157 34.8001 59.7348 35.058 58.6159 35.1344C57.8234 35.1886 57.0342 35.3669 56.248 35.5007C55.3922 35.644 54.5363 35.9051 53.6773 35.9242C52.3111 35.9561 50.9767 36.2013 49.6263 36.3414C48.9987 36.4083 48.3457 36.5388 47.7466 36.8796C47.9622 37.456 48.1302 37.991 48.3584 38.4973C48.5739 38.9718 48.78 39.4814 49.1192 39.8635C49.5059 40.2998 49.5249 40.9049 49.9148 41.3157C49.9401 41.3411 49.9528 41.373 49.975 41.4016C50.8277 42.4653 51.6328 43.5576 52.0354 44.8919C52.0544 44.9588 52.1083 45.0129 52.1336 45.0766C52.3619 45.6244 52.6186 46.1594 52.8025 46.723C53.1511 47.7962 53.709 48.7675 54.2415 49.7484C54.4793 50.1846 54.8311 50.5095 55.3637 50.6241C55.4302 50.277 55.4746 49.9649 55.5602 49.6656C55.5855 49.5828 55.7345 49.5318 55.8772 49.4331C56.0198 50.0445 55.9501 50.554 55.8043 51.0795L55.8074 51.0763ZM47.0334 35.3383C47.6452 35.714 48.2316 35.6089 48.8022 35.4688C49.4869 35.3032 50.1715 35.2809 50.8752 35.3032C52.2287 35.3478 53.5886 35.3637 54.9326 35.0835C55.9881 34.8638 57.0468 34.6026 58.115 34.5135C59.1262 34.4307 60.1184 34.2587 61.1073 34.0772C61.6874 33.9689 62.2485 33.7428 62.8286 33.6664C63.9507 33.5167 65.003 33.1855 65.9667 32.5964C66.2519 32.4244 66.5436 32.3575 66.8637 32.3957C67.4818 32.4658 68.0239 32.2174 68.5596 31.9658C69.1808 31.6728 69.5454 31.1888 69.5802 30.4977C69.6214 29.6825 69.9226 28.9341 70.154 28.173C70.3093 27.6539 70.3854 27.1571 70.3473 26.6317C70.3251 26.3164 70.2808 26.0043 70.2332 25.6923C69.8909 23.4376 69.6975 21.1734 69.9543 18.8932C69.9796 18.6608 69.9543 18.4219 69.9511 18.2531C69.6119 18.0684 69.3298 17.9411 69.0794 17.7691C68.3821 17.285 67.634 16.973 66.775 16.8965C66.0237 16.8296 65.3042 16.8902 64.648 17.2532C64.0996 17.5525 63.5513 17.8805 63.0758 18.2786C62.6479 18.6353 62.1914 18.8295 61.6621 18.8837C60.5178 19.0015 59.3766 19.1321 58.2292 19.2021C56.0135 19.3391 53.9214 19.9951 51.8293 20.667C51.2397 20.8549 50.9735 21.1989 50.8023 21.8294C50.4917 22.9854 49.9655 24.0649 48.7293 24.5522C48.3077 24.7178 48.1872 25.0776 48.2062 25.4884C48.2253 25.877 48.2062 26.2495 48.0953 26.6285C47.9622 27.0966 47.8671 27.5807 47.8164 28.0616C47.7213 28.9692 47.6705 29.8768 47.5976 30.7875C47.5755 31.0646 47.5786 31.3576 47.4899 31.6187C47.081 32.8384 47.1982 34.109 47.0334 35.3446V35.3383Z" fill="black"/>
<path fill-rule="evenodd" clip-rule="evenodd" d="M74.4015 47.0096C73.1748 47.7739 72.0051 48.5414 70.547 48.8376C69.4756 49.0541 68.3757 49.2834 67.3614 49.7675C66.9937 49.9426 66.5689 49.9999 66.1695 50.1114C65.9698 50.1687 65.7162 50.1719 65.5799 50.2993C65.0791 50.7674 64.4578 50.7515 63.8461 50.8725C62.7588 51.0859 61.6684 51.3024 60.6065 51.6495C60.0169 51.8406 59.3798 51.8884 58.7585 51.9871C58.3116 52.0572 57.852 52.0667 57.4145 52.1654C56.6443 52.3374 55.8867 52.2259 55.1259 52.1272C54.8914 52.0954 54.6631 51.9807 54.4381 51.8884C54.0831 51.7482 53.8422 51.503 53.8612 51.1018C53.877 50.7292 53.7154 50.4298 53.5664 50.1114C52.9768 48.8439 52.3619 47.5956 51.8642 46.2836C51.2588 44.6881 50.5044 43.1595 49.4203 41.8093C48.9416 41.2169 48.5898 40.5163 48.2158 39.8444C47.791 39.0801 47.3758 38.3094 47.0176 37.5133C46.7196 36.8477 46.5104 36.1408 46.2695 35.4497C46.2473 35.386 46.2473 35.3096 46.2536 35.2427C46.3804 34.0613 46.3329 32.8607 46.6689 31.7047C46.764 31.3703 46.8179 31.02 46.8527 30.6729C46.9415 29.8385 46.9922 28.9978 47.0936 28.1635C47.1602 27.6094 47.2838 27.0616 47.3853 26.5107C47.455 26.1317 47.5469 25.7591 47.604 25.3802C47.7118 24.6541 48.0097 24.0936 48.6754 23.6892C49.3696 23.2688 49.8577 22.6192 50.0923 21.8135C50.1398 21.6479 50.143 21.4664 50.1905 21.2976C50.3585 20.718 50.7104 20.3231 51.3095 20.1639C51.9149 20.0015 52.5235 19.8486 53.1194 19.6575C55.1862 18.9856 57.3099 18.6353 59.4781 18.5111C60.2071 18.4697 60.933 18.3678 61.6621 18.3009C62.1249 18.2595 62.5369 18.1226 62.9141 17.8296C63.2153 17.5971 63.5671 17.4252 63.8778 17.2054C65.1425 16.3106 66.5626 16.336 68.0017 16.5239C68.2331 16.5526 68.4391 16.7309 68.6673 16.8137C68.8924 16.8997 69.146 17.0462 69.3552 17.0048C70.3251 16.8042 70.9274 17.3901 71.4948 17.9952C71.8023 18.32 72.0083 18.7436 72.2619 19.1193C73.1431 20.4314 73.85 21.8294 74.2747 23.3643C74.4522 24.0044 74.6709 24.6318 74.8801 25.2623C74.9467 25.4598 75.0069 25.6731 75.1306 25.8324C75.5014 26.326 75.6282 26.896 75.7455 27.4852C76.091 29.2367 76.4619 30.9818 76.8391 32.7237C76.9152 33.074 76.9057 33.3989 76.8423 33.7523C76.7123 34.4752 76.6267 35.2077 76.5887 35.9401C76.5506 36.6503 76.3858 37.3286 76.11 37.9687C75.6758 38.975 75.4254 40.01 75.3334 41.1055C75.2637 41.9016 75.1147 42.7009 74.9245 43.478C74.6868 44.4365 74.6075 45.4078 74.5029 46.3823C74.4808 46.5893 74.4395 46.7931 74.4047 47.0096H74.4015ZM55.8074 51.0763C56.1815 51.5667 56.6126 51.4903 57.0246 51.4393C57.9597 51.3215 58.8885 51.1878 59.8204 51.0508C60.0264 51.0222 60.223 50.9489 60.4258 50.9043C61.6811 50.6273 62.9332 50.3311 64.1947 50.0859C64.5212 50.0222 64.8255 49.9872 64.9618 49.6528C65.0854 49.3535 65.3264 49.2356 65.6053 49.1847C65.9793 49.1178 66.3597 49.086 66.7401 49.0382C67.0824 48.9936 67.4375 48.9872 67.7703 48.8981C68.9114 48.5955 70.0462 48.2643 71.1842 47.9395C71.3839 47.8822 71.5899 47.8281 71.7769 47.7389C72.6137 47.3504 72.9751 46.6116 73.1875 45.7708C73.2128 45.6785 73.178 45.5638 73.1526 45.4651C72.88 44.4907 72.6042 43.5162 72.3253 42.5449C72.1922 42.0736 72.0241 41.6118 71.9227 41.1341C71.7452 40.2839 71.6469 39.4145 71.1968 38.6406C71.0986 38.4687 71.0954 38.2362 71.07 38.026C71.0067 37.5292 70.8418 37.0515 70.5312 36.6758C69.9638 35.9911 69.9955 35.1822 69.9796 34.3829C69.9765 34.2491 70.1032 34.0326 70.2205 33.988C70.4361 33.9052 70.5026 34.1281 70.5407 34.2905C70.5977 34.5294 70.6453 34.7714 70.6643 35.0134C70.7024 35.5102 70.8291 35.9561 71.1493 36.3669C71.3775 36.6598 71.5582 37.042 71.6248 37.4082C71.7579 38.1407 71.9671 38.8285 72.3285 39.4782C72.4109 39.6215 72.4426 39.8157 72.4331 39.9877C72.4045 40.6373 72.674 41.2201 72.8356 41.8252C73.0575 42.6691 73.3491 43.4939 73.6186 44.3251C73.6312 44.3633 73.7105 44.3792 73.8056 44.4301C73.926 43.9397 74.0687 43.4748 74.1543 42.9939C74.3349 41.9621 74.4808 40.924 74.6519 39.889C74.6805 39.717 74.7407 39.5514 74.8009 39.3858C75.064 38.6629 75.3556 37.9496 75.5902 37.2203C75.8343 36.4592 76.053 35.6949 75.7011 34.8797C75.549 34.5262 75.568 34.1058 75.8755 33.8033C76.1671 33.5199 76.1607 33.1855 76.11 32.832C76.0815 32.625 76.0403 32.418 75.9991 32.211C75.736 30.9436 75.4824 29.6729 75.2066 28.4087C75.0133 27.5266 74.9721 26.5935 74.3381 25.8578C74.2525 25.7591 74.2367 25.5999 74.1955 25.4661C73.9387 24.6318 73.7041 23.7911 73.422 22.9631C73.2097 22.3357 72.9973 21.6925 72.6771 21.1192C72.17 20.2021 71.574 19.3359 71.0098 18.4506C70.9654 18.3805 70.8545 18.3519 70.7499 18.285C70.6928 18.4156 70.6326 18.5015 70.6199 18.5939C70.4012 20.1989 70.4139 21.8103 70.6009 23.4121C70.8703 25.7145 71.0066 28.0106 70.7023 30.3194C70.6643 30.5965 70.6263 30.8735 70.5502 31.141C70.3568 31.8161 70.1571 32.4753 70.4456 33.1855C70.4931 33.3033 70.3061 33.5199 70.2205 33.7046C69.8085 33.5358 69.4249 33.4976 69.1713 33.1537C69.0857 33.039 68.8765 32.9562 68.7244 32.9594C68.2394 32.969 67.7449 33.0995 67.2726 33.0454C66.7052 32.9785 66.2488 33.1791 65.7892 33.4243C65.1076 33.7874 64.4039 34.0676 63.6369 34.1982C63.0568 34.2937 62.4925 34.488 61.9093 34.5963C60.8157 34.8001 59.7348 35.058 58.6159 35.1344C57.8234 35.1886 57.0342 35.3669 56.248 35.5007C55.3922 35.644 54.5363 35.9051 53.6773 35.9242C52.3111 35.9561 50.9767 36.2013 49.6263 36.3414C48.9987 36.4083 48.3457 36.5388 47.7466 36.8796C47.9622 37.456 48.1302 37.991 48.3584 38.4973C48.5739 38.9718 48.78 39.4814 49.1192 39.8635C49.5059 40.2998 49.5249 40.9049 49.9148 41.3157C49.9401 41.3411 49.9528 41.373 49.975 41.4016C50.8277 42.4653 51.6328 43.5576 52.0354 44.8919C52.0544 44.9588 52.1083 45.0129 52.1336 45.0766C52.3619 45.6244 52.6186 46.1594 52.8025 46.723C53.1511 47.7962 53.709 48.7675 54.2415 49.7484C54.4793 50.1846 54.8311 50.5095 55.3637 50.6241C55.4302 50.277 55.4746 49.9649 55.5602 49.6656C55.5855 49.5828 55.7345 49.5318 55.8772 49.4331C56.0198 50.0445 55.9501 50.554 55.8043 51.0795L55.8074 51.0763ZM47.0334 35.3383C47.6452 35.714 48.2316 35.6089 48.8022 35.4688C49.4869 35.3032 50.1715 35.2809 50.8752 35.3032C52.2287 35.3478 53.5886 35.3637 54.9326 35.0835C55.9881 34.8638 57.0468 34.6026 58.115 34.5135C59.1262 34.4307 60.1184 34.2587 61.1073 34.0772C61.6874 33.9689 62.2485 33.7428 62.8286 33.6664C63.9507 33.5167 65.003 33.1855 65.9667 32.5964C66.2519 32.4244 66.5436 32.3575 66.8637 32.3957C67.4818 32.4658 68.0239 32.2174 68.5596 31.9658C69.1808 31.6728 69.5454 31.1888 69.5802 30.4977C69.6214 29.6825 69.9226 28.9341 70.154 28.173C70.3093 27.6539 70.3854 27.1571 70.3473 26.6317C70.3251 26.3164 70.2808 26.0043 70.2332 25.6923C69.8909 23.4376 69.6975 21.1734 69.9543 18.8932C69.9796 18.6608 69.9543 18.4219 69.9511 18.2531C69.6119 18.0684 69.3298 17.9411 69.0794 17.7691C68.3821 17.285 67.634 16.973 66.775 16.8965C66.0237 16.8296 65.3042 16.8902 64.648 17.2532C64.0996 17.5525 63.5513 17.8805 63.0758 18.2786C62.6479 18.6353 62.1914 18.8295 61.6621 18.8837C60.5178 19.0015 59.3766 19.1321 58.2292 19.2021C56.0135 19.3391 53.9214 19.9951 51.8293 20.667C51.2397 20.8549 50.9735 21.1989 50.8023 21.8294C50.4917 22.9854 49.9655 24.0649 48.7293 24.5522C48.3077 24.7178 48.1872 25.0776 48.2062 25.4884C48.2253 25.877 48.2062 26.2495 48.0953 26.6285C47.9622 27.0966 47.8671 27.5807 47.8164 28.0616C47.7213 28.9692 47.6705 29.8768 47.5976 30.7875C47.5755 31.0646 47.5786 31.3576 47.4899 31.6187C47.081 32.8384 47.1982 34.109 47.0334 35.3446V35.3383Z" stroke="black" stroke-width="0.727122" stroke-linejoin="round" mask="url(#path-4-outside-1_100_19140)"/>
<path d="M28.1818 28.7543L34.7234 26.6885L42.2979 27.3771L55.7255 29.7871L60.2013 47.6906L64.3329 57.3309L56.7584 62.8396L47.8067 65.594L40.9207 68.6926L30.2475 66.9712L22.3287 64.9054L21.6401 61.8067L14.4099 45.9691L13.0327 38.7389L28.1818 28.7543Z" fill="white"/>
<mask id="path-6-outside-2_100_19140" maskUnits="userSpaceOnUse" x="11" y="25" width="55" height="45" fill="black">
<rect fill="white" x="11" y="25" width="55" height="45"/>
<path fill-rule="evenodd" clip-rule="evenodd" d="M23.6244 65.9587C22.3789 65.7991 21.1837 64.5986 21.0998 63.3141C21.0621 62.7264 20.9069 62.2143 20.7056 61.7021C19.133 57.7059 17.5604 53.7054 15.971 49.7175C15.6229 48.8402 15.2245 47.9839 14.801 47.1485C13.6393 44.8523 12.7167 42.4554 12.0541 39.941C11.9409 39.5128 11.9996 39.1644 12.2848 38.8453C13.1445 37.8966 14 36.948 15.2413 36.5198C15.69 36.3645 16.1178 36.1546 16.5539 35.9615C17.0278 35.7516 17.4849 35.5375 17.8917 35.1723C18.8352 34.3202 19.8291 33.531 20.7853 32.6956C21.8169 31.7973 22.924 31.0375 24.157 30.4708C25.6499 29.7866 27.2016 29.2241 28.5435 28.2082C28.6819 28.1033 28.8539 28.0529 29.009 27.9731C30.3342 27.2847 31.781 27.0832 33.1775 26.6802C33.6682 26.5417 34.1798 26.4997 34.6411 26.2143C34.985 26.0002 35.3624 25.975 35.7566 26.017C36.5953 26.1051 37.4341 26.1765 38.2728 26.2353C39.5435 26.3276 40.7932 26.4871 41.9422 27.058C42.1603 27.1672 42.4161 27.1966 42.6635 27.2343C43.2842 27.3309 43.9048 27.4065 44.5255 27.503C44.8987 27.5618 45.2636 27.7003 45.641 27.7045C48.6521 27.7213 51.5876 28.4307 54.6112 28.3216C54.9887 28.309 55.2822 28.4307 55.5045 28.6952C55.7729 29.0142 56.0496 29.3416 56.2258 29.7194C56.5529 30.4162 56.7961 31.1592 57.0981 31.8645C57.7481 33.3715 57.8361 35.0674 58.4442 36.5869C58.4736 36.6625 58.461 36.7591 58.4736 36.8472C58.7336 38.2954 58.9936 39.7437 59.2536 41.1919C59.3668 41.8299 59.5304 42.4638 59.5723 43.1103C59.6226 43.9078 59.782 44.6508 60.0839 45.3728C61.1533 47.9503 62.1975 50.5361 63.2795 53.1093C63.5437 53.739 63.9169 54.3099 64.2147 54.9227C64.4789 55.4601 64.7892 55.989 64.9276 56.5683C65.196 57.6723 64.8815 58.3313 64.0931 58.8518C63.5856 59.1877 63.0824 59.5319 62.5666 59.8467C61.7865 60.3211 60.9856 60.7534 60.2181 61.2488C59.3039 61.8407 58.4065 62.4661 57.5216 63.1042C56.3684 63.9311 55.0893 64.4894 53.7893 64.9008C52.0741 65.4423 50.3044 65.7907 48.5556 66.1979C47.243 66.5044 46.0184 67.0501 44.9155 67.8392C44.19 68.3556 43.4352 68.8131 42.6216 69.0314C41.4767 69.342 40.2815 69.5687 39.1241 69.1615C38.1637 68.8215 37.1782 68.683 36.1508 68.7292C35.8195 68.7418 35.4714 68.6788 35.1569 68.5822C33.3536 68.0281 31.5042 67.6671 29.6297 67.4111C28.1451 67.2096 26.778 66.7226 25.6625 66.0384C24.8783 66.0132 24.245 66.0384 23.6286 65.9587H23.6244ZM62.7469 55.6825C62.1011 54.0244 61.472 52.3579 60.8388 50.6956C60.7633 50.4983 60.6627 50.3052 60.6249 50.0953C60.3523 48.6093 59.7526 47.2534 59.1907 45.8808C58.8342 45.0076 58.5952 44.1219 58.5658 43.1522C58.5533 42.6821 58.4484 42.2203 58.3645 41.7586C58.0836 40.2054 57.7942 38.6522 57.509 37.0991C57.4713 36.8892 57.421 36.6793 57.379 36.4694C57.1777 35.4703 56.5319 34.6854 56.3893 33.6191C56.2635 32.6704 55.7225 31.8015 55.3535 30.899C55.3241 30.8276 55.2487 30.7772 55.1396 30.6513C54.6196 30.6723 54.1457 30.9661 53.7222 31.3146C52.0405 32.7082 50.1576 33.7073 48.1991 34.572C47.3394 34.954 46.4839 35.336 45.6242 35.7138C45.272 35.8691 44.9281 36.058 44.5591 36.1504C42.8229 36.5953 41.2293 37.4433 39.5938 38.1779C38.818 38.5263 38.0589 38.8957 37.3544 39.4246C36.8134 39.8318 36.1424 40.0459 35.5259 40.3439C35.0646 40.5664 34.5908 40.7427 34.2427 41.1751C34.0875 41.3682 33.8359 41.5109 33.6053 41.5949C32.8294 41.8845 32.2297 42.4554 31.5713 42.9298C30.98 43.3579 30.9087 43.7399 31.2023 44.357C31.651 45.3099 32.083 46.2712 32.5191 47.2325C32.7707 47.7824 32.8714 48.3659 32.7833 48.9871C32.5694 50.4899 32.9972 51.787 33.794 52.9792C34.0708 53.3948 34.2888 53.8565 34.4817 54.3267C35.0814 55.7707 35.635 57.2399 36.2473 58.6797C36.914 60.2413 37.3418 61.8742 37.7318 63.5407C38.0212 64.7665 38.6083 65.9209 39.1493 67.0585C39.4806 67.7511 40.0886 68.0365 40.9106 67.9022C41.6696 67.7805 42.3406 67.6419 42.9319 66.9913C43.6448 66.2021 44.6555 65.8621 45.6284 65.5851C46.6014 65.308 47.6078 65.1527 48.5975 64.947C50.2079 64.6112 51.835 64.3677 53.416 63.9101C54.6238 63.5617 55.7729 62.9698 56.8716 62.2688C58.1716 61.4377 59.3542 60.4176 60.7591 59.746C61.5559 59.364 62.2646 58.7511 62.9566 58.1718C63.2208 57.9493 63.3256 57.5212 63.464 57.2651C63.1537 56.5935 62.9188 56.1485 62.7385 55.6825H62.7469ZM37.4215 65.5851C36.9476 64.4894 36.7589 63.3099 36.5073 62.1429C36.4276 61.7693 36.3227 61.3999 36.1843 61.0473C35.3414 58.8728 34.4901 56.7068 33.6304 54.5407C33.4585 54.1126 33.253 53.6886 33.014 53.2982C32.2465 52.0473 31.8104 50.6914 31.9404 49.1676C31.9949 48.538 31.8859 47.9755 31.6384 47.4214C31.1939 46.4223 30.9255 45.3351 30.2881 44.4242C30.0826 44.1345 30.0449 43.7147 29.919 43.3327C29.2145 43.253 28.5142 43.1774 27.818 43.0977C26.8283 42.9801 25.8428 42.8332 24.8447 42.7493C23.9347 42.6737 23.0163 42.6611 22.1021 42.6443C21.0956 42.6275 20.1353 42.3715 19.1623 42.1826C18.6759 42.0902 18.1936 41.9559 17.703 41.8761C16.9229 41.7502 16.1597 41.6368 15.4468 41.2423C15.0735 41.0366 14.6206 40.8855 14.0755 40.982C14.0629 41.1625 14.0042 41.3388 14.0461 41.4773C14.3522 42.4932 14.6416 43.5216 15.0064 44.5123C15.3126 45.3435 15.7152 46.1326 16.0758 46.9428C16.2813 47.4046 16.4994 47.8621 16.6881 48.3323C18.3949 52.6224 20.0975 56.9125 21.8001 61.2026C22.0811 61.912 22.3873 62.6004 22.9324 63.0748C23.4063 63.058 23.8173 63.0538 24.2283 63.0202C24.4296 63.0034 24.6602 62.9824 24.8322 62.8775C26.0231 62.1429 27.3232 62.1639 28.6148 62.0841C28.9084 62.0673 29.2061 62.1135 29.4871 62.0505C29.7513 61.9918 29.9987 61.8281 30.351 61.6685C30.2881 61.8574 30.2839 62.0002 30.2168 62.0463C30.0071 62.1933 29.7387 62.2646 29.5584 62.4409C28.9168 63.0664 28.1409 63.1294 27.3525 63.1545C26.3461 63.1839 25.3522 63.2343 24.4967 63.9353C24.4757 64.3971 24.7902 64.607 25.1089 64.5902C25.7044 64.5566 26.1448 64.842 26.5977 65.1191C27.4196 65.6186 28.2961 65.9796 29.2523 66.1098C30.112 66.2231 30.9339 66.5631 31.8355 66.4666C32.0326 66.4456 32.2381 66.5505 32.4394 66.6009C33.4794 66.8738 34.5111 67.176 35.5595 67.4195C36.3269 67.5958 37.1195 67.4614 38.0841 67.4656C37.8157 66.6933 37.6563 66.1182 37.4215 65.5767V65.5851ZM53.3447 29.3374C52.225 29.2787 51.1011 29.2031 49.9856 29.1149C48.6562 29.0142 47.3311 28.9009 46.0059 28.7749C45.553 28.7329 45.0958 28.6826 44.6555 28.5734C44.0181 28.4139 43.4268 28.1578 42.7139 28.2712C42.3322 28.3342 41.9045 28.1243 41.5229 27.9731C40.508 27.566 39.4344 27.482 38.3483 27.4442C37.4341 27.4106 36.5282 27.3141 35.6182 27.2595C35.3708 27.2427 35.1192 27.2595 34.8717 27.2847C34.4566 27.3267 34.0414 27.3939 33.6262 27.4358C32.993 27.4946 32.3807 27.5995 31.8313 27.9941C31.6301 28.1369 31.3742 28.2166 31.131 28.2712C30.2503 28.4643 29.4661 28.9009 28.6819 29.3416C27.9354 29.7572 27.1932 30.1896 26.4383 30.58C25.868 30.8738 25.2641 31.0963 24.698 31.3943C24.0186 31.7511 23.3518 32.1415 22.6934 32.5403C22.1063 32.8971 21.5192 33.2581 20.9656 33.6611C20.5169 33.9885 20.0388 34.3244 19.6991 34.7609C18.9275 35.76 17.9546 36.4274 16.8642 36.9438C16.361 37.183 15.8703 37.4559 15.3545 37.6406C14.6206 37.905 14.1971 38.5095 13.7525 39.093C13.5932 39.2987 13.6687 39.6135 13.8784 39.773C13.9413 39.8234 14.0084 39.8864 14.0838 39.9074C15.2664 40.2642 16.3526 40.8813 17.6065 41.0576C18.6298 41.2003 19.653 41.406 20.6511 41.6578C21.4647 41.8635 22.295 41.9265 23.1253 41.8803C23.9305 41.8341 24.7063 41.9391 25.4864 42.0314C26.6396 42.17 27.7929 42.3253 28.9503 42.4512C29.701 42.531 30.4558 42.5645 31.0639 41.9013C32.6198 41.0869 34.1672 40.2684 35.7272 39.4666C36.3731 39.135 37.0734 38.9167 37.6102 38.3794C37.6395 38.35 37.6773 38.329 37.7192 38.308C39.6986 37.4055 41.6151 36.3435 43.6784 35.6676C43.9594 35.5753 44.2529 35.5123 44.5255 35.3906C47.0627 34.2656 49.5788 33.0944 51.9441 31.5874C52.8331 31.0207 53.6844 30.3785 54.6741 29.6858C54.1793 29.4004 53.7809 29.3542 53.3615 29.329L53.3447 29.3374Z"/>
</mask>
<path fill-rule="evenodd" clip-rule="evenodd" d="M23.6244 65.9587C22.3789 65.7991 21.1837 64.5986 21.0998 63.3141C21.0621 62.7264 20.9069 62.2143 20.7056 61.7021C19.133 57.7059 17.5604 53.7054 15.971 49.7175C15.6229 48.8402 15.2245 47.9839 14.801 47.1485C13.6393 44.8523 12.7167 42.4554 12.0541 39.941C11.9409 39.5128 11.9996 39.1644 12.2848 38.8453C13.1445 37.8966 14 36.948 15.2413 36.5198C15.69 36.3645 16.1178 36.1546 16.5539 35.9615C17.0278 35.7516 17.4849 35.5375 17.8917 35.1723C18.8352 34.3202 19.8291 33.531 20.7853 32.6956C21.8169 31.7973 22.924 31.0375 24.157 30.4708C25.6499 29.7866 27.2016 29.2241 28.5435 28.2082C28.6819 28.1033 28.8539 28.0529 29.009 27.9731C30.3342 27.2847 31.781 27.0832 33.1775 26.6802C33.6682 26.5417 34.1798 26.4997 34.6411 26.2143C34.985 26.0002 35.3624 25.975 35.7566 26.017C36.5953 26.1051 37.4341 26.1765 38.2728 26.2353C39.5435 26.3276 40.7932 26.4871 41.9422 27.058C42.1603 27.1672 42.4161 27.1966 42.6635 27.2343C43.2842 27.3309 43.9048 27.4065 44.5255 27.503C44.8987 27.5618 45.2636 27.7003 45.641 27.7045C48.6521 27.7213 51.5876 28.4307 54.6112 28.3216C54.9887 28.309 55.2822 28.4307 55.5045 28.6952C55.7729 29.0142 56.0496 29.3416 56.2258 29.7194C56.5529 30.4162 56.7961 31.1592 57.0981 31.8645C57.7481 33.3715 57.8361 35.0674 58.4442 36.5869C58.4736 36.6625 58.461 36.7591 58.4736 36.8472C58.7336 38.2954 58.9936 39.7437 59.2536 41.1919C59.3668 41.8299 59.5304 42.4638 59.5723 43.1103C59.6226 43.9078 59.782 44.6508 60.0839 45.3728C61.1533 47.9503 62.1975 50.5361 63.2795 53.1093C63.5437 53.739 63.9169 54.3099 64.2147 54.9227C64.4789 55.4601 64.7892 55.989 64.9276 56.5683C65.196 57.6723 64.8815 58.3313 64.0931 58.8518C63.5856 59.1877 63.0824 59.5319 62.5666 59.8467C61.7865 60.3211 60.9856 60.7534 60.2181 61.2488C59.3039 61.8407 58.4065 62.4661 57.5216 63.1042C56.3684 63.9311 55.0893 64.4894 53.7893 64.9008C52.0741 65.4423 50.3044 65.7907 48.5556 66.1979C47.243 66.5044 46.0184 67.0501 44.9155 67.8392C44.19 68.3556 43.4352 68.8131 42.6216 69.0314C41.4767 69.342 40.2815 69.5687 39.1241 69.1615C38.1637 68.8215 37.1782 68.683 36.1508 68.7292C35.8195 68.7418 35.4714 68.6788 35.1569 68.5822C33.3536 68.0281 31.5042 67.6671 29.6297 67.4111C28.1451 67.2096 26.778 66.7226 25.6625 66.0384C24.8783 66.0132 24.245 66.0384 23.6286 65.9587H23.6244ZM62.7469 55.6825C62.1011 54.0244 61.472 52.3579 60.8388 50.6956C60.7633 50.4983 60.6627 50.3052 60.6249 50.0953C60.3523 48.6093 59.7526 47.2534 59.1907 45.8808C58.8342 45.0076 58.5952 44.1219 58.5658 43.1522C58.5533 42.6821 58.4484 42.2203 58.3645 41.7586C58.0836 40.2054 57.7942 38.6522 57.509 37.0991C57.4713 36.8892 57.421 36.6793 57.379 36.4694C57.1777 35.4703 56.5319 34.6854 56.3893 33.6191C56.2635 32.6704 55.7225 31.8015 55.3535 30.899C55.3241 30.8276 55.2487 30.7772 55.1396 30.6513C54.6196 30.6723 54.1457 30.9661 53.7222 31.3146C52.0405 32.7082 50.1576 33.7073 48.1991 34.572C47.3394 34.954 46.4839 35.336 45.6242 35.7138C45.272 35.8691 44.9281 36.058 44.5591 36.1504C42.8229 36.5953 41.2293 37.4433 39.5938 38.1779C38.818 38.5263 38.0589 38.8957 37.3544 39.4246C36.8134 39.8318 36.1424 40.0459 35.5259 40.3439C35.0646 40.5664 34.5908 40.7427 34.2427 41.1751C34.0875 41.3682 33.8359 41.5109 33.6053 41.5949C32.8294 41.8845 32.2297 42.4554 31.5713 42.9298C30.98 43.3579 30.9087 43.7399 31.2023 44.357C31.651 45.3099 32.083 46.2712 32.5191 47.2325C32.7707 47.7824 32.8714 48.3659 32.7833 48.9871C32.5694 50.4899 32.9972 51.787 33.794 52.9792C34.0708 53.3948 34.2888 53.8565 34.4817 54.3267C35.0814 55.7707 35.635 57.2399 36.2473 58.6797C36.914 60.2413 37.3418 61.8742 37.7318 63.5407C38.0212 64.7665 38.6083 65.9209 39.1493 67.0585C39.4806 67.7511 40.0886 68.0365 40.9106 67.9022C41.6696 67.7805 42.3406 67.6419 42.9319 66.9913C43.6448 66.2021 44.6555 65.8621 45.6284 65.5851C46.6014 65.308 47.6078 65.1527 48.5975 64.947C50.2079 64.6112 51.835 64.3677 53.416 63.9101C54.6238 63.5617 55.7729 62.9698 56.8716 62.2688C58.1716 61.4377 59.3542 60.4176 60.7591 59.746C61.5559 59.364 62.2646 58.7511 62.9566 58.1718C63.2208 57.9493 63.3256 57.5212 63.464 57.2651C63.1537 56.5935 62.9188 56.1485 62.7385 55.6825H62.7469ZM37.4215 65.5851C36.9476 64.4894 36.7589 63.3099 36.5073 62.1429C36.4276 61.7693 36.3227 61.3999 36.1843 61.0473C35.3414 58.8728 34.4901 56.7068 33.6304 54.5407C33.4585 54.1126 33.253 53.6886 33.014 53.2982C32.2465 52.0473 31.8104 50.6914 31.9404 49.1676C31.9949 48.538 31.8859 47.9755 31.6384 47.4214C31.1939 46.4223 30.9255 45.3351 30.2881 44.4242C30.0826 44.1345 30.0449 43.7147 29.919 43.3327C29.2145 43.253 28.5142 43.1774 27.818 43.0977C26.8283 42.9801 25.8428 42.8332 24.8447 42.7493C23.9347 42.6737 23.0163 42.6611 22.1021 42.6443C21.0956 42.6275 20.1353 42.3715 19.1623 42.1826C18.6759 42.0902 18.1936 41.9559 17.703 41.8761C16.9229 41.7502 16.1597 41.6368 15.4468 41.2423C15.0735 41.0366 14.6206 40.8855 14.0755 40.982C14.0629 41.1625 14.0042 41.3388 14.0461 41.4773C14.3522 42.4932 14.6416 43.5216 15.0064 44.5123C15.3126 45.3435 15.7152 46.1326 16.0758 46.9428C16.2813 47.4046 16.4994 47.8621 16.6881 48.3323C18.3949 52.6224 20.0975 56.9125 21.8001 61.2026C22.0811 61.912 22.3873 62.6004 22.9324 63.0748C23.4063 63.058 23.8173 63.0538 24.2283 63.0202C24.4296 63.0034 24.6602 62.9824 24.8322 62.8775C26.0231 62.1429 27.3232 62.1639 28.6148 62.0841C28.9084 62.0673 29.2061 62.1135 29.4871 62.0505C29.7513 61.9918 29.9987 61.8281 30.351 61.6685C30.2881 61.8574 30.2839 62.0002 30.2168 62.0463C30.0071 62.1933 29.7387 62.2646 29.5584 62.4409C28.9168 63.0664 28.1409 63.1294 27.3525 63.1545C26.3461 63.1839 25.3522 63.2343 24.4967 63.9353C24.4757 64.3971 24.7902 64.607 25.1089 64.5902C25.7044 64.5566 26.1448 64.842 26.5977 65.1191C27.4196 65.6186 28.2961 65.9796 29.2523 66.1098C30.112 66.2231 30.9339 66.5631 31.8355 66.4666C32.0326 66.4456 32.2381 66.5505 32.4394 66.6009C33.4794 66.8738 34.5111 67.176 35.5595 67.4195C36.3269 67.5958 37.1195 67.4614 38.0841 67.4656C37.8157 66.6933 37.6563 66.1182 37.4215 65.5767V65.5851ZM53.3447 29.3374C52.225 29.2787 51.1011 29.2031 49.9856 29.1149C48.6562 29.0142 47.3311 28.9009 46.0059 28.7749C45.553 28.7329 45.0958 28.6826 44.6555 28.5734C44.0181 28.4139 43.4268 28.1578 42.7139 28.2712C42.3322 28.3342 41.9045 28.1243 41.5229 27.9731C40.508 27.566 39.4344 27.482 38.3483 27.4442C37.4341 27.4106 36.5282 27.3141 35.6182 27.2595C35.3708 27.2427 35.1192 27.2595 34.8717 27.2847C34.4566 27.3267 34.0414 27.3939 33.6262 27.4358C32.993 27.4946 32.3807 27.5995 31.8313 27.9941C31.6301 28.1369 31.3742 28.2166 31.131 28.2712C30.2503 28.4643 29.4661 28.9009 28.6819 29.3416C27.9354 29.7572 27.1932 30.1896 26.4383 30.58C25.868 30.8738 25.2641 31.0963 24.698 31.3943C24.0186 31.7511 23.3518 32.1415 22.6934 32.5403C22.1063 32.8971 21.5192 33.2581 20.9656 33.6611C20.5169 33.9885 20.0388 34.3244 19.6991 34.7609C18.9275 35.76 17.9546 36.4274 16.8642 36.9438C16.361 37.183 15.8703 37.4559 15.3545 37.6406C14.6206 37.905 14.1971 38.5095 13.7525 39.093C13.5932 39.2987 13.6687 39.6135 13.8784 39.773C13.9413 39.8234 14.0084 39.8864 14.0838 39.9074C15.2664 40.2642 16.3526 40.8813 17.6065 41.0576C18.6298 41.2003 19.653 41.406 20.6511 41.6578C21.4647 41.8635 22.295 41.9265 23.1253 41.8803C23.9305 41.8341 24.7063 41.9391 25.4864 42.0314C26.6396 42.17 27.7929 42.3253 28.9503 42.4512C29.701 42.531 30.4558 42.5645 31.0639 41.9013C32.6198 41.0869 34.1672 40.2684 35.7272 39.4666C36.3731 39.135 37.0734 38.9167 37.6102 38.3794C37.6395 38.35 37.6773 38.329 37.7192 38.308C39.6986 37.4055 41.6151 36.3435 43.6784 35.6676C43.9594 35.5753 44.2529 35.5123 44.5255 35.3906C47.0627 34.2656 49.5788 33.0944 51.9441 31.5874C52.8331 31.0207 53.6844 30.3785 54.6741 29.6858C54.1793 29.4004 53.7809 29.3542 53.3615 29.329L53.3447 29.3374Z" fill="black"/>
<path fill-rule="evenodd" clip-rule="evenodd" d="M23.6244 65.9587C22.3789 65.7991 21.1837 64.5986 21.0998 63.3141C21.0621 62.7264 20.9069 62.2143 20.7056 61.7021C19.133 57.7059 17.5604 53.7054 15.971 49.7175C15.6229 48.8402 15.2245 47.9839 14.801 47.1485C13.6393 44.8523 12.7167 42.4554 12.0541 39.941C11.9409 39.5128 11.9996 39.1644 12.2848 38.8453C13.1445 37.8966 14 36.948 15.2413 36.5198C15.69 36.3645 16.1178 36.1546 16.5539 35.9615C17.0278 35.7516 17.4849 35.5375 17.8917 35.1723C18.8352 34.3202 19.8291 33.531 20.7853 32.6956C21.8169 31.7973 22.924 31.0375 24.157 30.4708C25.6499 29.7866 27.2016 29.2241 28.5435 28.2082C28.6819 28.1033 28.8539 28.0529 29.009 27.9731C30.3342 27.2847 31.781 27.0832 33.1775 26.6802C33.6682 26.5417 34.1798 26.4997 34.6411 26.2143C34.985 26.0002 35.3624 25.975 35.7566 26.017C36.5953 26.1051 37.4341 26.1765 38.2728 26.2353C39.5435 26.3276 40.7932 26.4871 41.9422 27.058C42.1603 27.1672 42.4161 27.1966 42.6635 27.2343C43.2842 27.3309 43.9048 27.4065 44.5255 27.503C44.8987 27.5618 45.2636 27.7003 45.641 27.7045C48.6521 27.7213 51.5876 28.4307 54.6112 28.3216C54.9887 28.309 55.2822 28.4307 55.5045 28.6952C55.7729 29.0142 56.0496 29.3416 56.2258 29.7194C56.5529 30.4162 56.7961 31.1592 57.0981 31.8645C57.7481 33.3715 57.8361 35.0674 58.4442 36.5869C58.4736 36.6625 58.461 36.7591 58.4736 36.8472C58.7336 38.2954 58.9936 39.7437 59.2536 41.1919C59.3668 41.8299 59.5304 42.4638 59.5723 43.1103C59.6226 43.9078 59.782 44.6508 60.0839 45.3728C61.1533 47.9503 62.1975 50.5361 63.2795 53.1093C63.5437 53.739 63.9169 54.3099 64.2147 54.9227C64.4789 55.4601 64.7892 55.989 64.9276 56.5683C65.196 57.6723 64.8815 58.3313 64.0931 58.8518C63.5856 59.1877 63.0824 59.5319 62.5666 59.8467C61.7865 60.3211 60.9856 60.7534 60.2181 61.2488C59.3039 61.8407 58.4065 62.4661 57.5216 63.1042C56.3684 63.9311 55.0893 64.4894 53.7893 64.9008C52.0741 65.4423 50.3044 65.7907 48.5556 66.1979C47.243 66.5044 46.0184 67.0501 44.9155 67.8392C44.19 68.3556 43.4352 68.8131 42.6216 69.0314C41.4767 69.342 40.2815 69.5687 39.1241 69.1615C38.1637 68.8215 37.1782 68.683 36.1508 68.7292C35.8195 68.7418 35.4714 68.6788 35.1569 68.5822C33.3536 68.0281 31.5042 67.6671 29.6297 67.4111C28.1451 67.2096 26.778 66.7226 25.6625 66.0384C24.8783 66.0132 24.245 66.0384 23.6286 65.9587H23.6244ZM62.7469 55.6825C62.1011 54.0244 61.472 52.3579 60.8388 50.6956C60.7633 50.4983 60.6627 50.3052 60.6249 50.0953C60.3523 48.6093 59.7526 47.2534 59.1907 45.8808C58.8342 45.0076 58.5952 44.1219 58.5658 43.1522C58.5533 42.6821 58.4484 42.2203 58.3645 41.7586C58.0836 40.2054 57.7942 38.6522 57.509 37.0991C57.4713 36.8892 57.421 36.6793 57.379 36.4694C57.1777 35.4703 56.5319 34.6854 56.3893 33.6191C56.2635 32.6704 55.7225 31.8015 55.3535 30.899C55.3241 30.8276 55.2487 30.7772 55.1396 30.6513C54.6196 30.6723 54.1457 30.9661 53.7222 31.3146C52.0405 32.7082 50.1576 33.7073 48.1991 34.572C47.3394 34.954 46.4839 35.336 45.6242 35.7138C45.272 35.8691 44.9281 36.058 44.5591 36.1504C42.8229 36.5953 41.2293 37.4433 39.5938 38.1779C38.818 38.5263 38.0589 38.8957 37.3544 39.4246C36.8134 39.8318 36.1424 40.0459 35.5259 40.3439C35.0646 40.5664 34.5908 40.7427 34.2427 41.1751C34.0875 41.3682 33.8359 41.5109 33.6053 41.5949C32.8294 41.8845 32.2297 42.4554 31.5713 42.9298C30.98 43.3579 30.9087 43.7399 31.2023 44.357C31.651 45.3099 32.083 46.2712 32.5191 47.2325C32.7707 47.7824 32.8714 48.3659 32.7833 48.9871C32.5694 50.4899 32.9972 51.787 33.794 52.9792C34.0708 53.3948 34.2888 53.8565 34.4817 54.3267C35.0814 55.7707 35.635 57.2399 36.2473 58.6797C36.914 60.2413 37.3418 61.8742 37.7318 63.5407C38.0212 64.7665 38.6083 65.9209 39.1493 67.0585C39.4806 67.7511 40.0886 68.0365 40.9106 67.9022C41.6696 67.7805 42.3406 67.6419 42.9319 66.9913C43.6448 66.2021 44.6555 65.8621 45.6284 65.5851C46.6014 65.308 47.6078 65.1527 48.5975 64.947C50.2079 64.6112 51.835 64.3677 53.416 63.9101C54.6238 63.5617 55.7729 62.9698 56.8716 62.2688C58.1716 61.4377 59.3542 60.4176 60.7591 59.746C61.5559 59.364 62.2646 58.7511 62.9566 58.1718C63.2208 57.9493 63.3256 57.5212 63.464 57.2651C63.1537 56.5935 62.9188 56.1485 62.7385 55.6825H62.7469ZM37.4215 65.5851C36.9476 64.4894 36.7589 63.3099 36.5073 62.1429C36.4276 61.7693 36.3227 61.3999 36.1843 61.0473C35.3414 58.8728 34.4901 56.7068 33.6304 54.5407C33.4585 54.1126 33.253 53.6886 33.014 53.2982C32.2465 52.0473 31.8104 50.6914 31.9404 49.1676C31.9949 48.538 31.8859 47.9755 31.6384 47.4214C31.1939 46.4223 30.9255 45.3351 30.2881 44.4242C30.0826 44.1345 30.0449 43.7147 29.919 43.3327C29.2145 43.253 28.5142 43.1774 27.818 43.0977C26.8283 42.9801 25.8428 42.8332 24.8447 42.7493C23.9347 42.6737 23.0163 42.6611 22.1021 42.6443C21.0956 42.6275 20.1353 42.3715 19.1623 42.1826C18.6759 42.0902 18.1936 41.9559 17.703 41.8761C16.9229 41.7502 16.1597 41.6368 15.4468 41.2423C15.0735 41.0366 14.6206 40.8855 14.0755 40.982C14.0629 41.1625 14.0042 41.3388 14.0461 41.4773C14.3522 42.4932 14.6416 43.5216 15.0064 44.5123C15.3126 45.3435 15.7152 46.1326 16.0758 46.9428C16.2813 47.4046 16.4994 47.8621 16.6881 48.3323C18.3949 52.6224 20.0975 56.9125 21.8001 61.2026C22.0811 61.912 22.3873 62.6004 22.9324 63.0748C23.4063 63.058 23.8173 63.0538 24.2283 63.0202C24.4296 63.0034 24.6602 62.9824 24.8322 62.8775C26.0231 62.1429 27.3232 62.1639 28.6148 62.0841C28.9084 62.0673 29.2061 62.1135 29.4871 62.0505C29.7513 61.9918 29.9987 61.8281 30.351 61.6685C30.2881 61.8574 30.2839 62.0002 30.2168 62.0463C30.0071 62.1933 29.7387 62.2646 29.5584 62.4409C28.9168 63.0664 28.1409 63.1294 27.3525 63.1545C26.3461 63.1839 25.3522 63.2343 24.4967 63.9353C24.4757 64.3971 24.7902 64.607 25.1089 64.5902C25.7044 64.5566 26.1448 64.842 26.5977 65.1191C27.4196 65.6186 28.2961 65.9796 29.2523 66.1098C30.112 66.2231 30.9339 66.5631 31.8355 66.4666C32.0326 66.4456 32.2381 66.5505 32.4394 66.6009C33.4794 66.8738 34.5111 67.176 35.5595 67.4195C36.3269 67.5958 37.1195 67.4614 38.0841 67.4656C37.8157 66.6933 37.6563 66.1182 37.4215 65.5767V65.5851ZM53.3447 29.3374C52.225 29.2787 51.1011 29.2031 49.9856 29.1149C48.6562 29.0142 47.3311 28.9009 46.0059 28.7749C45.553 28.7329 45.0958 28.6826 44.6555 28.5734C44.0181 28.4139 43.4268 28.1578 42.7139 28.2712C42.3322 28.3342 41.9045 28.1243 41.5229 27.9731C40.508 27.566 39.4344 27.482 38.3483 27.4442C37.4341 27.4106 36.5282 27.3141 35.6182 27.2595C35.3708 27.2427 35.1192 27.2595 34.8717 27.2847C34.4566 27.3267 34.0414 27.3939 33.6262 27.4358C32.993 27.4946 32.3807 27.5995 31.8313 27.9941C31.6301 28.1369 31.3742 28.2166 31.131 28.2712C30.2503 28.4643 29.4661 28.9009 28.6819 29.3416C27.9354 29.7572 27.1932 30.1896 26.4383 30.58C25.868 30.8738 25.2641 31.0963 24.698 31.3943C24.0186 31.7511 23.3518 32.1415 22.6934 32.5403C22.1063 32.8971 21.5192 33.2581 20.9656 33.6611C20.5169 33.9885 20.0388 34.3244 19.6991 34.7609C18.9275 35.76 17.9546 36.4274 16.8642 36.9438C16.361 37.183 15.8703 37.4559 15.3545 37.6406C14.6206 37.905 14.1971 38.5095 13.7525 39.093C13.5932 39.2987 13.6687 39.6135 13.8784 39.773C13.9413 39.8234 14.0084 39.8864 14.0838 39.9074C15.2664 40.2642 16.3526 40.8813 17.6065 41.0576C18.6298 41.2003 19.653 41.406 20.6511 41.6578C21.4647 41.8635 22.295 41.9265 23.1253 41.8803C23.9305 41.8341 24.7063 41.9391 25.4864 42.0314C26.6396 42.17 27.7929 42.3253 28.9503 42.4512C29.701 42.531 30.4558 42.5645 31.0639 41.9013C32.6198 41.0869 34.1672 40.2684 35.7272 39.4666C36.3731 39.135 37.0734 38.9167 37.6102 38.3794C37.6395 38.35 37.6773 38.329 37.7192 38.308C39.6986 37.4055 41.6151 36.3435 43.6784 35.6676C43.9594 35.5753 44.2529 35.5123 44.5255 35.3906C47.0627 34.2656 49.5788 33.0944 51.9441 31.5874C52.8331 31.0207 53.6844 30.3785 54.6741 29.6858C54.1793 29.4004 53.7809 29.3542 53.3615 29.329L53.3447 29.3374Z" stroke="black" stroke-width="0.96403" stroke-linejoin="round" mask="url(#path-6-outside-2_100_19140)"/>
<path d="M62.2811 30.7107L50.5674 37.5437L46.3374 47.3052L48.2897 51.8605L54.4719 58.3681L62.6065 65.5265L65.2095 65.8519L72.3679 62.9235L84.7324 57.7174L86.3593 50.8844V46.6544L80.8278 39.8214L75.6217 32.3376L71.0664 28.1077L62.2811 30.7107Z" fill="white"/>
<path fill-rule="evenodd" clip-rule="evenodd" d="M80.4864 39.46C79.5556 38.6791 79.5399 38.6552 79.3032 37.9858C79.9343 38.2807 80.0329 38.4002 80.4864 39.46Z" fill="white"/>
<mask id="path-9-outside-3_100_19140" maskUnits="userSpaceOnUse" x="45.0122" y="26.7822" width="44" height="40" fill="black">
<rect fill="white" x="45.0122" y="26.7822" width="44" height="40"/>
<path fill-rule="evenodd" clip-rule="evenodd" d="M68.9186 28.085C69.4668 27.9854 70.0111 27.8579 70.5711 27.7941C71.0484 27.7383 71.4704 27.8738 71.6479 28.3081C71.7859 28.6467 72.0817 28.8579 72.4209 29.081C72.9336 29.4237 73.3714 29.842 73.829 30.2325C73.9433 30.3281 73.9985 30.4715 74.1129 30.5671C75.375 31.6349 76.3058 32.862 77.0986 34.1609C77.2603 34.4278 77.4851 34.6788 77.7218 34.9099C78.9681 36.0893 79.9896 37.3841 80.9756 38.679C81.4805 39.3404 81.6895 40.1332 82.0051 40.8703C82.1589 41.2289 82.1352 41.6592 82.7663 41.7827C83.0108 42.0855 83.2593 42.3843 83.4999 42.6871C83.7878 43.0457 84.0717 43.4003 84.3636 43.7549C84.478 43.8904 84.6555 44.0099 84.7146 44.1573C85.0223 44.8904 85.7164 45.4402 86.3475 45.9821C87.1087 46.6355 87.3651 47.3606 87.4873 48.1495C87.5544 48.5838 87.6569 49.018 87.6609 49.4483C87.6648 49.783 87.5859 50.1257 87.4637 50.4404C87.1876 51.1735 86.9312 51.9146 86.5526 52.6118C85.9807 53.6676 85.8545 54.7952 85.6494 55.9107C85.5626 56.3928 85.4877 56.8829 85.3575 57.357C85.1879 57.9905 84.6989 58.4407 83.9337 58.7276C83.5432 58.871 83.1686 59.0463 82.8136 59.2336C81.9222 59.7077 80.9086 59.9985 79.9068 60.3133C79.3112 60.5006 78.7157 60.6838 78.1162 60.8671C77.8204 60.9587 77.5758 61.0583 77.426 61.3253C77.3155 61.5125 76.9566 61.648 76.6687 61.7317C76.0653 61.903 75.4381 62.0345 74.815 62.1699C74.1484 62.3174 73.5253 62.5126 72.9258 62.7915C72.0975 63.1779 71.1982 63.4807 70.366 63.8712C69.2577 64.3931 68.1495 64.931 67.1161 65.5446C66.5994 65.8514 66.0394 65.9749 65.4556 66.1063C65.2663 66.1502 65.0534 66.1063 64.8483 66.1183C63.3377 66.2139 63.3337 66.3574 62.048 65.0585C61.6062 64.6123 61.1448 64.186 60.5334 63.8632C60.1351 63.6521 59.7762 63.3931 59.4527 63.1182C58.3405 62.1779 57.0547 61.3572 56.1476 60.2535C55.7847 59.8073 55.1892 59.4846 54.7396 59.0782C54.215 58.6001 53.6313 58.1299 53.2605 57.5761C52.6492 56.6558 51.7776 55.9028 50.9927 55.086C50.9217 55.0143 50.7994 54.9027 50.7245 54.9187C50.1092 55.0223 49.9869 54.6238 49.7463 54.3449C49.3559 53.8907 48.9496 53.4485 48.571 52.9903C48.1884 52.5281 47.8335 52.058 47.8926 51.4484C47.9084 51.305 47.7822 51.1456 47.6875 51.0101C47.4627 50.6994 47.2497 50.3806 46.9736 50.1017C46.5556 49.6754 46.3939 49.1694 46.1848 48.6674C45.9679 48.1415 45.889 47.6554 46.3505 47.1494C46.5319 46.9502 46.5635 46.6434 46.6029 46.3805C46.6778 45.8825 46.7054 45.3804 46.7567 44.8784C46.8159 44.3087 46.9934 43.7788 47.2537 43.233C48.0859 41.4998 49.135 39.8304 49.6359 37.9977C49.8528 37.2048 50.4287 36.6869 51.4423 36.5156C52.2745 36.3761 52.9844 36.0056 53.5445 35.5155C54.5621 34.6231 55.769 33.9457 56.9916 33.2804C57.8002 32.8421 58.5693 32.368 59.2871 31.8222C60.1351 31.1767 61.1093 30.6388 62.2176 30.2723C63.4126 29.8779 64.5564 29.3918 65.7081 28.9336C66.7256 28.5312 67.7945 28.2603 68.9107 28.0889L68.9186 28.085ZM51.3831 38.0057C52.0891 38.93 52.6847 39.8504 53.442 40.6711C55.2641 42.6353 56.6485 44.7748 57.6109 47.0618C58.3681 48.8467 59.7367 50.289 61.1605 51.7074C61.7522 52.2931 62.2846 52.8987 62.6869 53.568C62.9669 54.0342 63.1917 54.5163 63.4797 54.9784C63.7676 55.4366 64.0397 55.9147 64.4381 56.3131C64.9548 56.8271 65.6213 57.1737 66.556 56.9227C67.1753 56.7594 67.8063 56.6398 68.3585 56.353C68.9343 56.0502 69.6245 55.9187 70.228 55.6797C71.0365 55.3609 72.2 55.4127 72.5353 54.5242C72.5629 54.4525 72.7207 54.4127 72.8271 54.3649C74.1208 53.7911 75.3829 53.1736 76.72 52.6756C78.4987 52.0221 80.2065 51.293 81.8276 50.4643C82.5533 50.0978 83.204 49.6475 83.8745 49.2252C83.9929 49.1535 84.123 49.038 84.1309 48.9344C84.1506 48.6077 84.4346 48.4523 84.7146 48.2889C84.9276 48.1614 84.9828 48.006 84.8763 47.7989C84.8566 47.763 84.9079 47.7032 84.9276 47.6594C85.1169 47.7032 85.2984 47.7471 85.5508 47.8068C85.4877 47.52 85.4403 47.3088 85.3891 47.0857C85.6494 47.018 85.8781 46.9582 86.0398 46.9144C85.4246 46.2132 84.7501 45.5797 84.2966 44.8705C83.9337 44.3047 83.4052 43.8545 82.9674 43.3405C82.853 43.2051 82.5651 43.1612 82.3995 43.0935C81.867 42.2688 81.9459 41.3126 80.9678 40.4679C81.3464 41.5676 81.729 42.4959 81.7013 43.4601C81.7013 43.5517 81.7369 43.6513 81.7724 43.7429C82.2259 44.982 82.6755 46.2132 83.137 47.4443C83.1922 47.5957 83.3105 47.7351 83.3815 47.8865C83.4486 48.03 83.492 48.1774 83.5551 48.3407C83.3973 48.4244 83.2829 48.5359 83.1449 48.5519C82.4902 48.6316 81.9459 48.8905 81.4253 49.1575C80.9086 49.4204 80.3485 49.544 79.7451 49.6117C79.6662 49.6197 79.5715 49.544 79.4493 49.4961C80.5378 48.8826 81.7763 48.528 82.7781 47.9025C82.7347 47.6953 82.7189 47.5359 82.6637 47.3885C82.2062 46.1574 81.7447 44.9262 81.2872 43.6872C81.1965 43.4401 81.1255 43.1891 81.0427 42.9421C80.7193 42.0058 80.4077 41.0695 80.0567 40.1332C79.966 39.8902 79.7254 39.679 79.5755 39.444C79.2915 39.0057 78.9602 38.5754 78.7709 38.1132C78.554 37.5913 78.2345 37.161 77.6902 36.8064C77.5167 36.6949 77.2643 36.5753 77.355 36.2924C77.564 36.3084 77.7849 36.3283 78.0846 36.3522C77.777 36.0175 77.5088 35.7307 77.2445 35.4398C76.9724 35.141 76.6371 34.8661 76.4518 34.5434C75.6314 33.1409 74.46 31.9218 73.2649 30.6946C72.5471 29.9536 71.5808 29.5272 70.8236 28.9137C70.3858 29.1248 70.019 29.3001 69.5259 29.5352C69.5772 29.2364 69.6088 29.073 69.6482 28.8539C68.3506 28.9615 67.1319 29.1448 66.063 29.7065C65.7948 29.85 65.5345 29.9575 65.1756 29.9655C64.868 29.9735 64.5525 30.093 64.2803 30.2205C62.2964 31.1528 60.2613 32.0333 58.4904 33.2605C57.9067 33.6708 57.2519 34.0135 56.6288 34.388C56.4 34.5274 56.1752 34.6669 55.9583 34.8183C55.2444 35.3163 54.5305 35.8183 53.8206 36.3203C53.6037 36.4717 53.367 36.6152 53.2014 36.7984C52.874 37.161 52.4757 37.4319 51.9945 37.6431C51.7894 37.7347 51.608 37.8702 51.3831 38.0057ZM65.3097 64.7477C65.2348 64.4529 65.1086 64.1501 65.0967 63.8473C65.0849 63.5047 65.1993 63.162 65.2269 62.8154C65.2584 62.405 65.2624 61.9986 65.2624 61.5882C65.2624 61.0544 65.2151 60.5165 65.2387 59.9826C65.2663 59.3093 65.1638 58.6559 64.9429 58.0104C64.8838 57.8391 64.7378 57.6598 64.5682 57.5443C63.5822 56.8749 63.0419 55.9864 62.5291 55.078C62.0519 54.2294 61.6299 53.3529 60.9318 52.5919C60.3126 51.9106 59.6854 51.2333 59.0031 50.5878C57.9619 49.5958 57.2953 48.4602 56.7747 47.2411C56.4474 46.4642 56.0805 45.6952 55.6309 44.9581C54.9249 43.8027 54.1282 42.6791 53.2014 41.6193C52.6807 41.0217 52.2114 40.3962 51.7223 39.7786C51.5449 39.5555 51.3831 39.3205 51.1899 39.1013C50.9611 38.8423 50.5864 38.8742 50.3971 39.1651C50.3182 39.2846 50.2512 39.4081 50.2039 39.5356C50.0698 39.8902 49.9475 40.2488 49.8213 40.6034C49.5452 41.3843 49.2218 42.1373 48.5158 42.7588C48.2436 42.9979 48.0583 43.3246 47.9163 43.6354C47.2892 44.998 46.9815 46.4084 46.8672 47.8188C48.0977 48.3128 49.3322 48.277 50.6377 47.9702C51.1623 47.3885 51.8919 47.0777 52.8267 47.1136C52.8701 47.4761 52.8464 47.5359 52.6453 47.6156C52.026 47.8586 51.2845 47.8945 50.7994 48.3766C50.7008 48.4722 50.4089 48.4682 50.2117 48.4682C49.4308 48.4682 48.8076 48.767 48.2358 49.0539C48.0977 49.6396 48.5947 49.9703 48.7919 50.3806C48.5828 50.5161 48.433 50.6157 48.2476 50.7352C48.5789 51.4723 48.8708 52.2253 49.4703 52.8469C50.0619 53.4604 50.7245 54.0262 51.3634 54.6079C52.4007 55.5522 53.4656 56.4725 54.2387 57.5761C54.4319 57.851 54.7041 58.11 55.0078 58.3132C55.9977 58.9786 56.8102 59.7635 57.6187 60.5523C58.5535 61.4608 59.6894 62.2297 60.5768 63.166C60.6715 63.2656 60.8056 63.3413 60.9357 63.417C61.6496 63.8274 62.2728 64.3134 62.8486 64.8394C63.8504 65.7518 64.2488 65.7239 65.3334 64.7398L65.3097 64.7477ZM66.4811 64.7477C67.0924 64.9111 67.5578 64.7836 67.972 64.4808C68.9028 63.8075 69.9677 63.2975 71.1036 62.8632C71.6834 62.6441 72.2198 62.3532 72.7995 62.1341C73.4148 61.903 74.0419 61.656 74.7045 61.5404C75.9943 61.3213 77.142 60.903 78.2384 60.377C78.6802 60.1659 79.1259 59.9587 79.5992 59.7953C80.9165 59.3411 82.1628 58.8073 83.3224 58.1578C83.9416 57.8152 84.6042 57.5283 84.5766 56.8311C84.5766 56.7753 84.6121 56.6996 84.6712 56.6677C85.1485 56.4207 85.0578 56.0422 85.0223 55.6757C84.9079 54.5561 84.9552 53.4565 85.393 52.3887C85.7638 51.4962 86.0714 50.5878 85.8979 49.5519C85.673 49.5838 85.4206 49.5758 85.2392 49.6595C84.5884 49.9464 83.9574 50.2571 83.3263 50.5679C81.3661 51.548 79.398 52.5281 77.1578 53.1616C76.9369 53.2254 76.5977 53.321 76.5661 53.4445C76.4478 53.9465 75.8483 53.9903 75.45 54.2015C74.8229 54.5322 74.1011 54.7593 73.474 55.094C72.4959 55.6159 71.3757 55.8868 70.295 56.2374C69.8494 56.3849 69.3761 56.5004 68.9659 56.6956C68.2283 57.0423 67.4592 57.3132 66.627 57.4965C66.3312 57.5642 66.0591 57.6957 65.7081 57.8232C66.1025 58.8272 66.1104 59.8033 66.0039 60.7794C65.9802 60.9667 66.0236 61.1579 66.0236 61.3452C66.0196 61.8472 66.0275 62.3532 65.992 62.8512C65.9644 63.1899 65.7909 63.5325 66.2957 63.7716C66.3904 63.8154 66.3786 63.9987 66.3983 64.1182C66.4338 64.3294 66.4574 64.5445 66.4851 64.7437L66.4811 64.7477ZM80.4826 39.4599C80.033 38.4001 79.9305 38.2806 79.2994 37.9857C79.5321 38.6551 79.5518 38.679 80.4826 39.4599Z"/>
</mask>
<path fill-rule="evenodd" clip-rule="evenodd" d="M68.9186 28.085C69.4668 27.9854 70.0111 27.8579 70.5711 27.7941C71.0484 27.7383 71.4704 27.8738 71.6479 28.3081C71.7859 28.6467 72.0817 28.8579 72.4209 29.081C72.9336 29.4237 73.3714 29.842 73.829 30.2325C73.9433 30.3281 73.9985 30.4715 74.1129 30.5671C75.375 31.6349 76.3058 32.862 77.0986 34.1609C77.2603 34.4278 77.4851 34.6788 77.7218 34.9099C78.9681 36.0893 79.9896 37.3841 80.9756 38.679C81.4805 39.3404 81.6895 40.1332 82.0051 40.8703C82.1589 41.2289 82.1352 41.6592 82.7663 41.7827C83.0108 42.0855 83.2593 42.3843 83.4999 42.6871C83.7878 43.0457 84.0717 43.4003 84.3636 43.7549C84.478 43.8904 84.6555 44.0099 84.7146 44.1573C85.0223 44.8904 85.7164 45.4402 86.3475 45.9821C87.1087 46.6355 87.3651 47.3606 87.4873 48.1495C87.5544 48.5838 87.6569 49.018 87.6609 49.4483C87.6648 49.783 87.5859 50.1257 87.4637 50.4404C87.1876 51.1735 86.9312 51.9146 86.5526 52.6118C85.9807 53.6676 85.8545 54.7952 85.6494 55.9107C85.5626 56.3928 85.4877 56.8829 85.3575 57.357C85.1879 57.9905 84.6989 58.4407 83.9337 58.7276C83.5432 58.871 83.1686 59.0463 82.8136 59.2336C81.9222 59.7077 80.9086 59.9985 79.9068 60.3133C79.3112 60.5006 78.7157 60.6838 78.1162 60.8671C77.8204 60.9587 77.5758 61.0583 77.426 61.3253C77.3155 61.5125 76.9566 61.648 76.6687 61.7317C76.0653 61.903 75.4381 62.0345 74.815 62.1699C74.1484 62.3174 73.5253 62.5126 72.9258 62.7915C72.0975 63.1779 71.1982 63.4807 70.366 63.8712C69.2577 64.3931 68.1495 64.931 67.1161 65.5446C66.5994 65.8514 66.0394 65.9749 65.4556 66.1063C65.2663 66.1502 65.0534 66.1063 64.8483 66.1183C63.3377 66.2139 63.3337 66.3574 62.048 65.0585C61.6062 64.6123 61.1448 64.186 60.5334 63.8632C60.1351 63.6521 59.7762 63.3931 59.4527 63.1182C58.3405 62.1779 57.0547 61.3572 56.1476 60.2535C55.7847 59.8073 55.1892 59.4846 54.7396 59.0782C54.215 58.6001 53.6313 58.1299 53.2605 57.5761C52.6492 56.6558 51.7776 55.9028 50.9927 55.086C50.9217 55.0143 50.7994 54.9027 50.7245 54.9187C50.1092 55.0223 49.9869 54.6238 49.7463 54.3449C49.3559 53.8907 48.9496 53.4485 48.571 52.9903C48.1884 52.5281 47.8335 52.058 47.8926 51.4484C47.9084 51.305 47.7822 51.1456 47.6875 51.0101C47.4627 50.6994 47.2497 50.3806 46.9736 50.1017C46.5556 49.6754 46.3939 49.1694 46.1848 48.6674C45.9679 48.1415 45.889 47.6554 46.3505 47.1494C46.5319 46.9502 46.5635 46.6434 46.6029 46.3805C46.6778 45.8825 46.7054 45.3804 46.7567 44.8784C46.8159 44.3087 46.9934 43.7788 47.2537 43.233C48.0859 41.4998 49.135 39.8304 49.6359 37.9977C49.8528 37.2048 50.4287 36.6869 51.4423 36.5156C52.2745 36.3761 52.9844 36.0056 53.5445 35.5155C54.5621 34.6231 55.769 33.9457 56.9916 33.2804C57.8002 32.8421 58.5693 32.368 59.2871 31.8222C60.1351 31.1767 61.1093 30.6388 62.2176 30.2723C63.4126 29.8779 64.5564 29.3918 65.7081 28.9336C66.7256 28.5312 67.7945 28.2603 68.9107 28.0889L68.9186 28.085ZM51.3831 38.0057C52.0891 38.93 52.6847 39.8504 53.442 40.6711C55.2641 42.6353 56.6485 44.7748 57.6109 47.0618C58.3681 48.8467 59.7367 50.289 61.1605 51.7074C61.7522 52.2931 62.2846 52.8987 62.6869 53.568C62.9669 54.0342 63.1917 54.5163 63.4797 54.9784C63.7676 55.4366 64.0397 55.9147 64.4381 56.3131C64.9548 56.8271 65.6213 57.1737 66.556 56.9227C67.1753 56.7594 67.8063 56.6398 68.3585 56.353C68.9343 56.0502 69.6245 55.9187 70.228 55.6797C71.0365 55.3609 72.2 55.4127 72.5353 54.5242C72.5629 54.4525 72.7207 54.4127 72.8271 54.3649C74.1208 53.7911 75.3829 53.1736 76.72 52.6756C78.4987 52.0221 80.2065 51.293 81.8276 50.4643C82.5533 50.0978 83.204 49.6475 83.8745 49.2252C83.9929 49.1535 84.123 49.038 84.1309 48.9344C84.1506 48.6077 84.4346 48.4523 84.7146 48.2889C84.9276 48.1614 84.9828 48.006 84.8763 47.7989C84.8566 47.763 84.9079 47.7032 84.9276 47.6594C85.1169 47.7032 85.2984 47.7471 85.5508 47.8068C85.4877 47.52 85.4403 47.3088 85.3891 47.0857C85.6494 47.018 85.8781 46.9582 86.0398 46.9144C85.4246 46.2132 84.7501 45.5797 84.2966 44.8705C83.9337 44.3047 83.4052 43.8545 82.9674 43.3405C82.853 43.2051 82.5651 43.1612 82.3995 43.0935C81.867 42.2688 81.9459 41.3126 80.9678 40.4679C81.3464 41.5676 81.729 42.4959 81.7013 43.4601C81.7013 43.5517 81.7369 43.6513 81.7724 43.7429C82.2259 44.982 82.6755 46.2132 83.137 47.4443C83.1922 47.5957 83.3105 47.7351 83.3815 47.8865C83.4486 48.03 83.492 48.1774 83.5551 48.3407C83.3973 48.4244 83.2829 48.5359 83.1449 48.5519C82.4902 48.6316 81.9459 48.8905 81.4253 49.1575C80.9086 49.4204 80.3485 49.544 79.7451 49.6117C79.6662 49.6197 79.5715 49.544 79.4493 49.4961C80.5378 48.8826 81.7763 48.528 82.7781 47.9025C82.7347 47.6953 82.7189 47.5359 82.6637 47.3885C82.2062 46.1574 81.7447 44.9262 81.2872 43.6872C81.1965 43.4401 81.1255 43.1891 81.0427 42.9421C80.7193 42.0058 80.4077 41.0695 80.0567 40.1332C79.966 39.8902 79.7254 39.679 79.5755 39.444C79.2915 39.0057 78.9602 38.5754 78.7709 38.1132C78.554 37.5913 78.2345 37.161 77.6902 36.8064C77.5167 36.6949 77.2643 36.5753 77.355 36.2924C77.564 36.3084 77.7849 36.3283 78.0846 36.3522C77.777 36.0175 77.5088 35.7307 77.2445 35.4398C76.9724 35.141 76.6371 34.8661 76.4518 34.5434C75.6314 33.1409 74.46 31.9218 73.2649 30.6946C72.5471 29.9536 71.5808 29.5272 70.8236 28.9137C70.3858 29.1248 70.019 29.3001 69.5259 29.5352C69.5772 29.2364 69.6088 29.073 69.6482 28.8539C68.3506 28.9615 67.1319 29.1448 66.063 29.7065C65.7948 29.85 65.5345 29.9575 65.1756 29.9655C64.868 29.9735 64.5525 30.093 64.2803 30.2205C62.2964 31.1528 60.2613 32.0333 58.4904 33.2605C57.9067 33.6708 57.2519 34.0135 56.6288 34.388C56.4 34.5274 56.1752 34.6669 55.9583 34.8183C55.2444 35.3163 54.5305 35.8183 53.8206 36.3203C53.6037 36.4717 53.367 36.6152 53.2014 36.7984C52.874 37.161 52.4757 37.4319 51.9945 37.6431C51.7894 37.7347 51.608 37.8702 51.3831 38.0057ZM65.3097 64.7477C65.2348 64.4529 65.1086 64.1501 65.0967 63.8473C65.0849 63.5047 65.1993 63.162 65.2269 62.8154C65.2584 62.405 65.2624 61.9986 65.2624 61.5882C65.2624 61.0544 65.2151 60.5165 65.2387 59.9826C65.2663 59.3093 65.1638 58.6559 64.9429 58.0104C64.8838 57.8391 64.7378 57.6598 64.5682 57.5443C63.5822 56.8749 63.0419 55.9864 62.5291 55.078C62.0519 54.2294 61.6299 53.3529 60.9318 52.5919C60.3126 51.9106 59.6854 51.2333 59.0031 50.5878C57.9619 49.5958 57.2953 48.4602 56.7747 47.2411C56.4474 46.4642 56.0805 45.6952 55.6309 44.9581C54.9249 43.8027 54.1282 42.6791 53.2014 41.6193C52.6807 41.0217 52.2114 40.3962 51.7223 39.7786C51.5449 39.5555 51.3831 39.3205 51.1899 39.1013C50.9611 38.8423 50.5864 38.8742 50.3971 39.1651C50.3182 39.2846 50.2512 39.4081 50.2039 39.5356C50.0698 39.8902 49.9475 40.2488 49.8213 40.6034C49.5452 41.3843 49.2218 42.1373 48.5158 42.7588C48.2436 42.9979 48.0583 43.3246 47.9163 43.6354C47.2892 44.998 46.9815 46.4084 46.8672 47.8188C48.0977 48.3128 49.3322 48.277 50.6377 47.9702C51.1623 47.3885 51.8919 47.0777 52.8267 47.1136C52.8701 47.4761 52.8464 47.5359 52.6453 47.6156C52.026 47.8586 51.2845 47.8945 50.7994 48.3766C50.7008 48.4722 50.4089 48.4682 50.2117 48.4682C49.4308 48.4682 48.8076 48.767 48.2358 49.0539C48.0977 49.6396 48.5947 49.9703 48.7919 50.3806C48.5828 50.5161 48.433 50.6157 48.2476 50.7352C48.5789 51.4723 48.8708 52.2253 49.4703 52.8469C50.0619 53.4604 50.7245 54.0262 51.3634 54.6079C52.4007 55.5522 53.4656 56.4725 54.2387 57.5761C54.4319 57.851 54.7041 58.11 55.0078 58.3132C55.9977 58.9786 56.8102 59.7635 57.6187 60.5523C58.5535 61.4608 59.6894 62.2297 60.5768 63.166C60.6715 63.2656 60.8056 63.3413 60.9357 63.417C61.6496 63.8274 62.2728 64.3134 62.8486 64.8394C63.8504 65.7518 64.2488 65.7239 65.3334 64.7398L65.3097 64.7477ZM66.4811 64.7477C67.0924 64.9111 67.5578 64.7836 67.972 64.4808C68.9028 63.8075 69.9677 63.2975 71.1036 62.8632C71.6834 62.6441 72.2198 62.3532 72.7995 62.1341C73.4148 61.903 74.0419 61.656 74.7045 61.5404C75.9943 61.3213 77.142 60.903 78.2384 60.377C78.6802 60.1659 79.1259 59.9587 79.5992 59.7953C80.9165 59.3411 82.1628 58.8073 83.3224 58.1578C83.9416 57.8152 84.6042 57.5283 84.5766 56.8311C84.5766 56.7753 84.6121 56.6996 84.6712 56.6677C85.1485 56.4207 85.0578 56.0422 85.0223 55.6757C84.9079 54.5561 84.9552 53.4565 85.393 52.3887C85.7638 51.4962 86.0714 50.5878 85.8979 49.5519C85.673 49.5838 85.4206 49.5758 85.2392 49.6595C84.5884 49.9464 83.9574 50.2571 83.3263 50.5679C81.3661 51.548 79.398 52.5281 77.1578 53.1616C76.9369 53.2254 76.5977 53.321 76.5661 53.4445C76.4478 53.9465 75.8483 53.9903 75.45 54.2015C74.8229 54.5322 74.1011 54.7593 73.474 55.094C72.4959 55.6159 71.3757 55.8868 70.295 56.2374C69.8494 56.3849 69.3761 56.5004 68.9659 56.6956C68.2283 57.0423 67.4592 57.3132 66.627 57.4965C66.3312 57.5642 66.0591 57.6957 65.7081 57.8232C66.1025 58.8272 66.1104 59.8033 66.0039 60.7794C65.9802 60.9667 66.0236 61.1579 66.0236 61.3452C66.0196 61.8472 66.0275 62.3532 65.992 62.8512C65.9644 63.1899 65.7909 63.5325 66.2957 63.7716C66.3904 63.8154 66.3786 63.9987 66.3983 64.1182C66.4338 64.3294 66.4574 64.5445 66.4851 64.7437L66.4811 64.7477ZM80.4826 39.4599C80.033 38.4001 79.9305 38.2806 79.2994 37.9857C79.5321 38.6551 79.5518 38.679 80.4826 39.4599Z" fill="black"/>
<path fill-rule="evenodd" clip-rule="evenodd" d="M68.9186 28.085C69.4668 27.9854 70.0111 27.8579 70.5711 27.7941C71.0484 27.7383 71.4704 27.8738 71.6479 28.3081C71.7859 28.6467 72.0817 28.8579 72.4209 29.081C72.9336 29.4237 73.3714 29.842 73.829 30.2325C73.9433 30.3281 73.9985 30.4715 74.1129 30.5671C75.375 31.6349 76.3058 32.862 77.0986 34.1609C77.2603 34.4278 77.4851 34.6788 77.7218 34.9099C78.9681 36.0893 79.9896 37.3841 80.9756 38.679C81.4805 39.3404 81.6895 40.1332 82.0051 40.8703C82.1589 41.2289 82.1352 41.6592 82.7663 41.7827C83.0108 42.0855 83.2593 42.3843 83.4999 42.6871C83.7878 43.0457 84.0717 43.4003 84.3636 43.7549C84.478 43.8904 84.6555 44.0099 84.7146 44.1573C85.0223 44.8904 85.7164 45.4402 86.3475 45.9821C87.1087 46.6355 87.3651 47.3606 87.4873 48.1495C87.5544 48.5838 87.6569 49.018 87.6609 49.4483C87.6648 49.783 87.5859 50.1257 87.4637 50.4404C87.1876 51.1735 86.9312 51.9146 86.5526 52.6118C85.9807 53.6676 85.8545 54.7952 85.6494 55.9107C85.5626 56.3928 85.4877 56.8829 85.3575 57.357C85.1879 57.9905 84.6989 58.4407 83.9337 58.7276C83.5432 58.871 83.1686 59.0463 82.8136 59.2336C81.9222 59.7077 80.9086 59.9985 79.9068 60.3133C79.3112 60.5006 78.7157 60.6838 78.1162 60.8671C77.8204 60.9587 77.5758 61.0583 77.426 61.3253C77.3155 61.5125 76.9566 61.648 76.6687 61.7317C76.0653 61.903 75.4381 62.0345 74.815 62.1699C74.1484 62.3174 73.5253 62.5126 72.9258 62.7915C72.0975 63.1779 71.1982 63.4807 70.366 63.8712C69.2577 64.3931 68.1495 64.931 67.1161 65.5446C66.5994 65.8514 66.0394 65.9749 65.4556 66.1063C65.2663 66.1502 65.0534 66.1063 64.8483 66.1183C63.3377 66.2139 63.3337 66.3574 62.048 65.0585C61.6062 64.6123 61.1448 64.186 60.5334 63.8632C60.1351 63.6521 59.7762 63.3931 59.4527 63.1182C58.3405 62.1779 57.0547 61.3572 56.1476 60.2535C55.7847 59.8073 55.1892 59.4846 54.7396 59.0782C54.215 58.6001 53.6313 58.1299 53.2605 57.5761C52.6492 56.6558 51.7776 55.9028 50.9927 55.086C50.9217 55.0143 50.7994 54.9027 50.7245 54.9187C50.1092 55.0223 49.9869 54.6238 49.7463 54.3449C49.3559 53.8907 48.9496 53.4485 48.571 52.9903C48.1884 52.5281 47.8335 52.058 47.8926 51.4484C47.9084 51.305 47.7822 51.1456 47.6875 51.0101C47.4627 50.6994 47.2497 50.3806 46.9736 50.1017C46.5556 49.6754 46.3939 49.1694 46.1848 48.6674C45.9679 48.1415 45.889 47.6554 46.3505 47.1494C46.5319 46.9502 46.5635 46.6434 46.6029 46.3805C46.6778 45.8825 46.7054 45.3804 46.7567 44.8784C46.8159 44.3087 46.9934 43.7788 47.2537 43.233C48.0859 41.4998 49.135 39.8304 49.6359 37.9977C49.8528 37.2048 50.4287 36.6869 51.4423 36.5156C52.2745 36.3761 52.9844 36.0056 53.5445 35.5155C54.5621 34.6231 55.769 33.9457 56.9916 33.2804C57.8002 32.8421 58.5693 32.368 59.2871 31.8222C60.1351 31.1767 61.1093 30.6388 62.2176 30.2723C63.4126 29.8779 64.5564 29.3918 65.7081 28.9336C66.7256 28.5312 67.7945 28.2603 68.9107 28.0889L68.9186 28.085ZM51.3831 38.0057C52.0891 38.93 52.6847 39.8504 53.442 40.6711C55.2641 42.6353 56.6485 44.7748 57.6109 47.0618C58.3681 48.8467 59.7367 50.289 61.1605 51.7074C61.7522 52.2931 62.2846 52.8987 62.6869 53.568C62.9669 54.0342 63.1917 54.5163 63.4797 54.9784C63.7676 55.4366 64.0397 55.9147 64.4381 56.3131C64.9548 56.8271 65.6213 57.1737 66.556 56.9227C67.1753 56.7594 67.8063 56.6398 68.3585 56.353C68.9343 56.0502 69.6245 55.9187 70.228 55.6797C71.0365 55.3609 72.2 55.4127 72.5353 54.5242C72.5629 54.4525 72.7207 54.4127 72.8271 54.3649C74.1208 53.7911 75.3829 53.1736 76.72 52.6756C78.4987 52.0221 80.2065 51.293 81.8276 50.4643C82.5533 50.0978 83.204 49.6475 83.8745 49.2252C83.9929 49.1535 84.123 49.038 84.1309 48.9344C84.1506 48.6077 84.4346 48.4523 84.7146 48.2889C84.9276 48.1614 84.9828 48.006 84.8763 47.7989C84.8566 47.763 84.9079 47.7032 84.9276 47.6594C85.1169 47.7032 85.2984 47.7471 85.5508 47.8068C85.4877 47.52 85.4403 47.3088 85.3891 47.0857C85.6494 47.018 85.8781 46.9582 86.0398 46.9144C85.4246 46.2132 84.7501 45.5797 84.2966 44.8705C83.9337 44.3047 83.4052 43.8545 82.9674 43.3405C82.853 43.2051 82.5651 43.1612 82.3995 43.0935C81.867 42.2688 81.9459 41.3126 80.9678 40.4679C81.3464 41.5676 81.729 42.4959 81.7013 43.4601C81.7013 43.5517 81.7369 43.6513 81.7724 43.7429C82.2259 44.982 82.6755 46.2132 83.137 47.4443C83.1922 47.5957 83.3105 47.7351 83.3815 47.8865C83.4486 48.03 83.492 48.1774 83.5551 48.3407C83.3973 48.4244 83.2829 48.5359 83.1449 48.5519C82.4902 48.6316 81.9459 48.8905 81.4253 49.1575C80.9086 49.4204 80.3485 49.544 79.7451 49.6117C79.6662 49.6197 79.5715 49.544 79.4493 49.4961C80.5378 48.8826 81.7763 48.528 82.7781 47.9025C82.7347 47.6953 82.7189 47.5359 82.6637 47.3885C82.2062 46.1574 81.7447 44.9262 81.2872 43.6872C81.1965 43.4401 81.1255 43.1891 81.0427 42.9421C80.7193 42.0058 80.4077 41.0695 80.0567 40.1332C79.966 39.8902 79.7254 39.679 79.5755 39.444C79.2915 39.0057 78.9602 38.5754 78.7709 38.1132C78.554 37.5913 78.2345 37.161 77.6902 36.8064C77.5167 36.6949 77.2643 36.5753 77.355 36.2924C77.564 36.3084 77.7849 36.3283 78.0846 36.3522C77.777 36.0175 77.5088 35.7307 77.2445 35.4398C76.9724 35.141 76.6371 34.8661 76.4518 34.5434C75.6314 33.1409 74.46 31.9218 73.2649 30.6946C72.5471 29.9536 71.5808 29.5272 70.8236 28.9137C70.3858 29.1248 70.019 29.3001 69.5259 29.5352C69.5772 29.2364 69.6088 29.073 69.6482 28.8539C68.3506 28.9615 67.1319 29.1448 66.063 29.7065C65.7948 29.85 65.5345 29.9575 65.1756 29.9655C64.868 29.9735 64.5525 30.093 64.2803 30.2205C62.2964 31.1528 60.2613 32.0333 58.4904 33.2605C57.9067 33.6708 57.2519 34.0135 56.6288 34.388C56.4 34.5274 56.1752 34.6669 55.9583 34.8183C55.2444 35.3163 54.5305 35.8183 53.8206 36.3203C53.6037 36.4717 53.367 36.6152 53.2014 36.7984C52.874 37.161 52.4757 37.4319 51.9945 37.6431C51.7894 37.7347 51.608 37.8702 51.3831 38.0057ZM65.3097 64.7477C65.2348 64.4529 65.1086 64.1501 65.0967 63.8473C65.0849 63.5047 65.1993 63.162 65.2269 62.8154C65.2584 62.405 65.2624 61.9986 65.2624 61.5882C65.2624 61.0544 65.2151 60.5165 65.2387 59.9826C65.2663 59.3093 65.1638 58.6559 64.9429 58.0104C64.8838 57.8391 64.7378 57.6598 64.5682 57.5443C63.5822 56.8749 63.0419 55.9864 62.5291 55.078C62.0519 54.2294 61.6299 53.3529 60.9318 52.5919C60.3126 51.9106 59.6854 51.2333 59.0031 50.5878C57.9619 49.5958 57.2953 48.4602 56.7747 47.2411C56.4474 46.4642 56.0805 45.6952 55.6309 44.9581C54.9249 43.8027 54.1282 42.6791 53.2014 41.6193C52.6807 41.0217 52.2114 40.3962 51.7223 39.7786C51.5449 39.5555 51.3831 39.3205 51.1899 39.1013C50.9611 38.8423 50.5864 38.8742 50.3971 39.1651C50.3182 39.2846 50.2512 39.4081 50.2039 39.5356C50.0698 39.8902 49.9475 40.2488 49.8213 40.6034C49.5452 41.3843 49.2218 42.1373 48.5158 42.7588C48.2436 42.9979 48.0583 43.3246 47.9163 43.6354C47.2892 44.998 46.9815 46.4084 46.8672 47.8188C48.0977 48.3128 49.3322 48.277 50.6377 47.9702C51.1623 47.3885 51.8919 47.0777 52.8267 47.1136C52.8701 47.4761 52.8464 47.5359 52.6453 47.6156C52.026 47.8586 51.2845 47.8945 50.7994 48.3766C50.7008 48.4722 50.4089 48.4682 50.2117 48.4682C49.4308 48.4682 48.8076 48.767 48.2358 49.0539C48.0977 49.6396 48.5947 49.9703 48.7919 50.3806C48.5828 50.5161 48.433 50.6157 48.2476 50.7352C48.5789 51.4723 48.8708 52.2253 49.4703 52.8469C50.0619 53.4604 50.7245 54.0262 51.3634 54.6079C52.4007 55.5522 53.4656 56.4725 54.2387 57.5761C54.4319 57.851 54.7041 58.11 55.0078 58.3132C55.9977 58.9786 56.8102 59.7635 57.6187 60.5523C58.5535 61.4608 59.6894 62.2297 60.5768 63.166C60.6715 63.2656 60.8056 63.3413 60.9357 63.417C61.6496 63.8274 62.2728 64.3134 62.8486 64.8394C63.8504 65.7518 64.2488 65.7239 65.3334 64.7398L65.3097 64.7477ZM66.4811 64.7477C67.0924 64.9111 67.5578 64.7836 67.972 64.4808C68.9028 63.8075 69.9677 63.2975 71.1036 62.8632C71.6834 62.6441 72.2198 62.3532 72.7995 62.1341C73.4148 61.903 74.0419 61.656 74.7045 61.5404C75.9943 61.3213 77.142 60.903 78.2384 60.377C78.6802 60.1659 79.1259 59.9587 79.5992 59.7953C80.9165 59.3411 82.1628 58.8073 83.3224 58.1578C83.9416 57.8152 84.6042 57.5283 84.5766 56.8311C84.5766 56.7753 84.6121 56.6996 84.6712 56.6677C85.1485 56.4207 85.0578 56.0422 85.0223 55.6757C84.9079 54.5561 84.9552 53.4565 85.393 52.3887C85.7638 51.4962 86.0714 50.5878 85.8979 49.5519C85.673 49.5838 85.4206 49.5758 85.2392 49.6595C84.5884 49.9464 83.9574 50.2571 83.3263 50.5679C81.3661 51.548 79.398 52.5281 77.1578 53.1616C76.9369 53.2254 76.5977 53.321 76.5661 53.4445C76.4478 53.9465 75.8483 53.9903 75.45 54.2015C74.8229 54.5322 74.1011 54.7593 73.474 55.094C72.4959 55.6159 71.3757 55.8868 70.295 56.2374C69.8494 56.3849 69.3761 56.5004 68.9659 56.6956C68.2283 57.0423 67.4592 57.3132 66.627 57.4965C66.3312 57.5642 66.0591 57.6957 65.7081 57.8232C66.1025 58.8272 66.1104 59.8033 66.0039 60.7794C65.9802 60.9667 66.0236 61.1579 66.0236 61.3452C66.0196 61.8472 66.0275 62.3532 65.992 62.8512C65.9644 63.1899 65.7909 63.5325 66.2957 63.7716C66.3904 63.8154 66.3786 63.9987 66.3983 64.1182C66.4338 64.3294 66.4574 64.5445 66.4851 64.7437L66.4811 64.7477ZM80.4826 39.4599C80.033 38.4001 79.9305 38.2806 79.2994 37.9857C79.5321 38.6551 79.5518 38.679 80.4826 39.4599Z" stroke="black" stroke-width="0.911068" stroke-linejoin="round" mask="url(#path-9-outside-3_100_19140)"/>
<path d="M24.0345 50.7635C21.0375 51.9162 20.4803 54.3176 20.5764 55.3742C20.6724 56.1427 21.0375 57.9678 21.7291 59.1205C22.4207 60.2732 22.5936 63.6352 22.5936 65.1721C22.4975 66.0366 22.4783 68.0538 23.17 69.2065C23.8616 70.3592 30.3743 72.1843 33.5442 72.9528H37.2904L42.7657 68.0538C43.5342 67.5736 45.3592 66.4401 46.5119 65.7485C47.6646 65.0568 47.9528 62.0022 47.9528 60.5614V51.9162C47.9528 50.4753 45.6474 50.1871 42.7657 49.3226C40.4603 48.631 37.3865 47.1133 36.1377 46.4409C35.1771 45.6724 33.0831 44.4237 32.3915 45.5764C31.527 47.0172 27.7807 49.3226 24.0345 50.7635Z" fill="white"/>
<mask id="path-11-outside-4_100_19140" maskUnits="userSpaceOnUse" x="19" y="44" width="31" height="31" fill="black">
<rect fill="white" x="19" y="44" width="31" height="31"/>
<path fill-rule="evenodd" clip-rule="evenodd" d="M48.7915 54.128C48.5942 55.9859 48.3828 57.8438 48.2102 59.7052C48.1397 60.4651 48.0939 61.2319 48.1327 61.9918C48.2172 63.7452 47.5091 65.1883 46.4276 66.4885C46.0577 66.9346 45.5434 67.2309 44.9234 67.2344C44.4302 67.2344 44.0462 67.4296 43.6833 67.7503C43.2817 68.1058 42.8484 68.4335 42.3904 68.7158C41.4921 69.2701 40.8791 70.1206 40.1182 70.8143C40.0618 70.8666 39.9984 70.9328 39.9878 70.999C39.854 71.7171 39.2727 72.0343 38.7408 72.4073C38.5223 72.5606 38.3145 72.7384 38.1278 72.9301C37.2541 73.819 36.1761 73.934 35.0241 73.7319C34.6859 73.6726 34.3442 73.568 34.0413 73.4112C32.921 72.836 31.7127 72.6199 30.4832 72.4805C30.1027 72.4352 29.7293 72.4386 29.4017 72.1598C29.2502 72.0308 28.9719 72.0134 28.7499 72.0099C27.5134 71.9994 26.4072 71.6265 25.4032 70.9084C25.1637 70.7376 24.8607 70.647 24.5824 70.5284C24.3006 70.4064 23.9906 70.3298 23.7369 70.1694C22.2045 69.2004 22.3242 69.298 22.2925 67.7398C22.2608 65.9098 22.1833 64.0763 22.0953 62.2498C22.0565 61.4446 21.8451 60.6672 21.5246 59.9248C21.1934 59.1509 20.8728 58.3736 20.5029 57.6172C19.8794 56.3379 19.7984 55.09 20.4712 53.7863C20.7495 53.2426 20.9856 52.7267 21.4893 52.3188C21.898 51.9912 22.1692 51.4962 22.5004 51.0744C22.7646 50.7398 23.0817 50.5272 23.5044 50.3668C24.6176 49.9485 25.6956 49.4396 26.8863 49.2374C27.1787 49.1886 27.4852 49.0457 27.7248 48.8714C28.8979 48.0139 30.2154 47.3238 31.0715 46.0863C31.156 45.9608 31.2793 45.8597 31.3815 45.7482C31.9064 45.1765 32.5159 44.8454 33.3296 45.072C33.5128 45.1242 33.7172 45.1521 33.9039 45.1242C34.7599 44.9918 35.4892 45.3194 36.2113 45.7029C36.7539 45.9887 37.3034 46.2711 37.86 46.529C38.6985 46.9159 39.4876 47.3551 40.2274 47.9303C41.1469 48.6483 42.3094 48.9133 43.4543 49.0945C44.1695 49.2061 44.8917 49.4082 45.6279 49.2061C46.0648 49.6488 46.7588 49.2444 47.2097 49.6801C47.7945 50.2448 48.3335 50.8339 48.5766 51.6322C48.8267 52.4513 48.8478 53.2844 48.7915 54.1314V54.128ZM47.1674 51.0221C47.0829 50.9245 47.0089 50.7572 46.8891 50.7119C46.0753 50.4052 45.325 49.9799 44.3879 49.9555C42.704 49.9137 41.094 49.4466 39.7377 48.4287C39.1071 47.9582 38.466 47.5887 37.7262 47.3551C37.3985 47.2506 37.0885 47.0902 36.7644 46.9612C36.5883 46.8915 36.4086 46.8148 36.2254 46.7765C35.8908 46.7068 35.5913 46.9403 35.6019 47.275C35.6336 48.2649 35.6477 49.2583 35.7393 50.2448C35.8591 51.5729 36.0775 52.894 36.0599 54.229C36.0458 55.2957 35.9894 56.3623 35.9225 57.429C35.9084 57.6416 35.8133 57.8995 35.461 57.7462C35.2214 56.6586 35.3306 55.5536 35.394 54.4556C35.4751 53.0683 35.4152 51.7123 34.8938 50.3982C34.5767 49.6 34.4781 48.7425 34.6366 47.9163C34.774 47.1843 34.6437 46.5743 34.302 45.9713C33.4212 45.661 32.6321 45.9573 31.7831 46.2292C30.9975 47.7525 29.5073 48.5542 28.1687 49.5093C27.8058 49.7673 27.3302 49.8753 26.8969 50.0252C26.062 50.3145 25.213 50.562 24.3816 50.8618C23.4516 51.1964 22.8174 51.9598 22.0283 52.5001C21.3202 52.9846 21.204 53.748 20.9715 54.4521C20.82 54.9192 21.211 55.4595 21.7641 55.4979C22.1411 55.5223 22.5145 55.6408 22.8914 55.7175C23.5713 55.8569 24.2442 56.0556 24.9312 56.1218C25.7661 56.202 26.5059 56.4495 27.1752 56.941C27.7142 57.3349 28.3131 57.6067 28.986 57.6311C30.219 57.673 31.3251 58.0111 32.2869 58.8024C32.7237 59.1614 33.2416 59.1718 33.8158 59.13C34.6437 59.0708 35.4645 58.8058 36.317 59.0115C36.6905 59.1021 37.0568 58.9488 37.4091 58.7431C37.9692 58.412 38.5505 58.1052 39.1529 57.8647C39.5933 57.6869 39.9632 57.4603 40.3014 57.1292C41.2596 56.1915 42.3411 55.4107 43.4896 54.7205C43.9194 54.4626 44.3456 54.2012 44.7648 53.9293C45.7336 53.3053 46.6214 52.2317 47.1674 51.0256V51.0221ZM20.9221 55.8395C20.8693 56.0347 20.8165 56.1148 20.8376 56.1741C20.9398 56.5018 21.0419 56.8294 21.1758 57.1431C21.4788 57.8438 21.8064 58.5374 22.1093 59.2346C22.6061 60.3744 22.8386 61.5596 22.8033 62.8005C22.7857 63.4105 22.7716 64.024 22.7963 64.6305C22.8491 65.8506 22.9126 67.0706 23.0042 68.2871C23.0499 68.9076 23.6171 69.535 24.1878 69.4688C24.7761 69.4025 25.1355 69.65 25.523 69.9742C26.372 70.6888 27.3443 71.1001 28.4646 71.1663C28.7323 71.1838 29.0036 71.2221 29.2572 71.2918C30.8496 71.731 32.4313 72.2121 34.0342 72.6164C34.6437 72.7698 35.2743 73.0452 35.9647 72.8046C36.1057 71.6822 36.2466 70.5947 36.2008 69.4827C36.1268 67.7329 36.007 65.9691 36.1338 64.2297C36.2219 62.9992 36.0669 61.8106 36.0669 60.6637C35.5526 60.0921 35.0171 59.8063 34.2808 59.9143C33.9884 59.9561 33.6537 59.9004 33.3754 59.7923C32.5546 59.4646 31.7303 59.1405 30.9588 58.7152C30.4691 58.4468 29.997 58.2586 29.4404 58.2516C28.4117 58.2342 27.4641 57.9623 26.6151 57.3767C26.0937 57.0176 25.5159 56.8678 24.8818 56.8155C23.6876 56.7214 22.5215 56.4634 21.4153 55.9859C21.278 55.9266 21.13 55.8952 20.9221 55.8325V55.8395ZM37.5395 71.8182C37.8178 71.7485 38.0679 71.7415 38.2476 71.6265C38.5646 71.4208 38.8711 71.1768 39.1247 70.9014C39.8751 70.0858 40.6008 69.2527 41.552 68.6461C41.8409 68.4614 42.1086 68.2313 42.3552 67.9943C43.1161 67.2553 43.9722 66.7115 45.0608 66.5721C45.3074 66.5407 45.5223 66.4222 45.6808 66.0736C44.8106 66.2967 44.0462 66.4919 43.088 66.7325C43.2923 66.485 43.3557 66.342 43.4579 66.2967C43.8771 66.1085 44.3139 65.9516 44.7402 65.7739C45.2686 65.5543 45.642 65.1987 45.7336 64.6096C45.7653 64.3865 45.7618 64.0798 46.0331 64.0519C46.41 64.0136 46.3818 64.3621 46.4347 64.6131C46.4523 64.7037 46.5086 64.7874 46.5544 64.8989C47.1956 63.8114 47.3929 62.675 47.3718 61.462C47.3541 60.5522 47.4528 59.6354 47.5268 58.7257C47.6818 56.7876 47.9812 54.86 47.8227 52.9079C47.8086 52.7267 47.8579 52.5175 47.5902 52.4374C47.5021 52.4827 47.3718 52.5106 47.3048 52.5907C46.1493 53.9711 44.7331 54.9854 43.0245 55.592C42.9224 55.6303 42.8308 55.714 42.7498 55.7907C42.0311 56.4774 41.2983 57.1571 40.6008 57.8647C39.8681 58.6072 39.0719 59.2485 38.0961 59.6564C37.4373 59.9317 37.0744 60.4058 37.0674 61.1518C37.0533 62.2881 36.9969 63.4245 36.937 64.5608C36.8842 65.5508 36.9582 66.5442 36.9159 67.5342C36.8525 68.9633 37.0709 70.3437 37.55 71.8182H37.5395Z"/>
</mask>
<path fill-rule="evenodd" clip-rule="evenodd" d="M48.7915 54.128C48.5942 55.9859 48.3828 57.8438 48.2102 59.7052C48.1397 60.4651 48.0939 61.2319 48.1327 61.9918C48.2172 63.7452 47.5091 65.1883 46.4276 66.4885C46.0577 66.9346 45.5434 67.2309 44.9234 67.2344C44.4302 67.2344 44.0462 67.4296 43.6833 67.7503C43.2817 68.1058 42.8484 68.4335 42.3904 68.7158C41.4921 69.2701 40.8791 70.1206 40.1182 70.8143C40.0618 70.8666 39.9984 70.9328 39.9878 70.999C39.854 71.7171 39.2727 72.0343 38.7408 72.4073C38.5223 72.5606 38.3145 72.7384 38.1278 72.9301C37.2541 73.819 36.1761 73.934 35.0241 73.7319C34.6859 73.6726 34.3442 73.568 34.0413 73.4112C32.921 72.836 31.7127 72.6199 30.4832 72.4805C30.1027 72.4352 29.7293 72.4386 29.4017 72.1598C29.2502 72.0308 28.9719 72.0134 28.7499 72.0099C27.5134 71.9994 26.4072 71.6265 25.4032 70.9084C25.1637 70.7376 24.8607 70.647 24.5824 70.5284C24.3006 70.4064 23.9906 70.3298 23.7369 70.1694C22.2045 69.2004 22.3242 69.298 22.2925 67.7398C22.2608 65.9098 22.1833 64.0763 22.0953 62.2498C22.0565 61.4446 21.8451 60.6672 21.5246 59.9248C21.1934 59.1509 20.8728 58.3736 20.5029 57.6172C19.8794 56.3379 19.7984 55.09 20.4712 53.7863C20.7495 53.2426 20.9856 52.7267 21.4893 52.3188C21.898 51.9912 22.1692 51.4962 22.5004 51.0744C22.7646 50.7398 23.0817 50.5272 23.5044 50.3668C24.6176 49.9485 25.6956 49.4396 26.8863 49.2374C27.1787 49.1886 27.4852 49.0457 27.7248 48.8714C28.8979 48.0139 30.2154 47.3238 31.0715 46.0863C31.156 45.9608 31.2793 45.8597 31.3815 45.7482C31.9064 45.1765 32.5159 44.8454 33.3296 45.072C33.5128 45.1242 33.7172 45.1521 33.9039 45.1242C34.7599 44.9918 35.4892 45.3194 36.2113 45.7029C36.7539 45.9887 37.3034 46.2711 37.86 46.529C38.6985 46.9159 39.4876 47.3551 40.2274 47.9303C41.1469 48.6483 42.3094 48.9133 43.4543 49.0945C44.1695 49.2061 44.8917 49.4082 45.6279 49.2061C46.0648 49.6488 46.7588 49.2444 47.2097 49.6801C47.7945 50.2448 48.3335 50.8339 48.5766 51.6322C48.8267 52.4513 48.8478 53.2844 48.7915 54.1314V54.128ZM47.1674 51.0221C47.0829 50.9245 47.0089 50.7572 46.8891 50.7119C46.0753 50.4052 45.325 49.9799 44.3879 49.9555C42.704 49.9137 41.094 49.4466 39.7377 48.4287C39.1071 47.9582 38.466 47.5887 37.7262 47.3551C37.3985 47.2506 37.0885 47.0902 36.7644 46.9612C36.5883 46.8915 36.4086 46.8148 36.2254 46.7765C35.8908 46.7068 35.5913 46.9403 35.6019 47.275C35.6336 48.2649 35.6477 49.2583 35.7393 50.2448C35.8591 51.5729 36.0775 52.894 36.0599 54.229C36.0458 55.2957 35.9894 56.3623 35.9225 57.429C35.9084 57.6416 35.8133 57.8995 35.461 57.7462C35.2214 56.6586 35.3306 55.5536 35.394 54.4556C35.4751 53.0683 35.4152 51.7123 34.8938 50.3982C34.5767 49.6 34.4781 48.7425 34.6366 47.9163C34.774 47.1843 34.6437 46.5743 34.302 45.9713C33.4212 45.661 32.6321 45.9573 31.7831 46.2292C30.9975 47.7525 29.5073 48.5542 28.1687 49.5093C27.8058 49.7673 27.3302 49.8753 26.8969 50.0252C26.062 50.3145 25.213 50.562 24.3816 50.8618C23.4516 51.1964 22.8174 51.9598 22.0283 52.5001C21.3202 52.9846 21.204 53.748 20.9715 54.4521C20.82 54.9192 21.211 55.4595 21.7641 55.4979C22.1411 55.5223 22.5145 55.6408 22.8914 55.7175C23.5713 55.8569 24.2442 56.0556 24.9312 56.1218C25.7661 56.202 26.5059 56.4495 27.1752 56.941C27.7142 57.3349 28.3131 57.6067 28.986 57.6311C30.219 57.673 31.3251 58.0111 32.2869 58.8024C32.7237 59.1614 33.2416 59.1718 33.8158 59.13C34.6437 59.0708 35.4645 58.8058 36.317 59.0115C36.6905 59.1021 37.0568 58.9488 37.4091 58.7431C37.9692 58.412 38.5505 58.1052 39.1529 57.8647C39.5933 57.6869 39.9632 57.4603 40.3014 57.1292C41.2596 56.1915 42.3411 55.4107 43.4896 54.7205C43.9194 54.4626 44.3456 54.2012 44.7648 53.9293C45.7336 53.3053 46.6214 52.2317 47.1674 51.0256V51.0221ZM20.9221 55.8395C20.8693 56.0347 20.8165 56.1148 20.8376 56.1741C20.9398 56.5018 21.0419 56.8294 21.1758 57.1431C21.4788 57.8438 21.8064 58.5374 22.1093 59.2346C22.6061 60.3744 22.8386 61.5596 22.8033 62.8005C22.7857 63.4105 22.7716 64.024 22.7963 64.6305C22.8491 65.8506 22.9126 67.0706 23.0042 68.2871C23.0499 68.9076 23.6171 69.535 24.1878 69.4688C24.7761 69.4025 25.1355 69.65 25.523 69.9742C26.372 70.6888 27.3443 71.1001 28.4646 71.1663C28.7323 71.1838 29.0036 71.2221 29.2572 71.2918C30.8496 71.731 32.4313 72.2121 34.0342 72.6164C34.6437 72.7698 35.2743 73.0452 35.9647 72.8046C36.1057 71.6822 36.2466 70.5947 36.2008 69.4827C36.1268 67.7329 36.007 65.9691 36.1338 64.2297C36.2219 62.9992 36.0669 61.8106 36.0669 60.6637C35.5526 60.0921 35.0171 59.8063 34.2808 59.9143C33.9884 59.9561 33.6537 59.9004 33.3754 59.7923C32.5546 59.4646 31.7303 59.1405 30.9588 58.7152C30.4691 58.4468 29.997 58.2586 29.4404 58.2516C28.4117 58.2342 27.4641 57.9623 26.6151 57.3767C26.0937 57.0176 25.5159 56.8678 24.8818 56.8155C23.6876 56.7214 22.5215 56.4634 21.4153 55.9859C21.278 55.9266 21.13 55.8952 20.9221 55.8325V55.8395ZM37.5395 71.8182C37.8178 71.7485 38.0679 71.7415 38.2476 71.6265C38.5646 71.4208 38.8711 71.1768 39.1247 70.9014C39.8751 70.0858 40.6008 69.2527 41.552 68.6461C41.8409 68.4614 42.1086 68.2313 42.3552 67.9943C43.1161 67.2553 43.9722 66.7115 45.0608 66.5721C45.3074 66.5407 45.5223 66.4222 45.6808 66.0736C44.8106 66.2967 44.0462 66.4919 43.088 66.7325C43.2923 66.485 43.3557 66.342 43.4579 66.2967C43.8771 66.1085 44.3139 65.9516 44.7402 65.7739C45.2686 65.5543 45.642 65.1987 45.7336 64.6096C45.7653 64.3865 45.7618 64.0798 46.0331 64.0519C46.41 64.0136 46.3818 64.3621 46.4347 64.6131C46.4523 64.7037 46.5086 64.7874 46.5544 64.8989C47.1956 63.8114 47.3929 62.675 47.3718 61.462C47.3541 60.5522 47.4528 59.6354 47.5268 58.7257C47.6818 56.7876 47.9812 54.86 47.8227 52.9079C47.8086 52.7267 47.8579 52.5175 47.5902 52.4374C47.5021 52.4827 47.3718 52.5106 47.3048 52.5907C46.1493 53.9711 44.7331 54.9854 43.0245 55.592C42.9224 55.6303 42.8308 55.714 42.7498 55.7907C42.0311 56.4774 41.2983 57.1571 40.6008 57.8647C39.8681 58.6072 39.0719 59.2485 38.0961 59.6564C37.4373 59.9317 37.0744 60.4058 37.0674 61.1518C37.0533 62.2881 36.9969 63.4245 36.937 64.5608C36.8842 65.5508 36.9582 66.5442 36.9159 67.5342C36.8525 68.9633 37.0709 70.3437 37.55 71.8182H37.5395Z" fill="black"/>
<path fill-rule="evenodd" clip-rule="evenodd" d="M48.7915 54.128C48.5942 55.9859 48.3828 57.8438 48.2102 59.7052C48.1397 60.4651 48.0939 61.2319 48.1327 61.9918C48.2172 63.7452 47.5091 65.1883 46.4276 66.4885C46.0577 66.9346 45.5434 67.2309 44.9234 67.2344C44.4302 67.2344 44.0462 67.4296 43.6833 67.7503C43.2817 68.1058 42.8484 68.4335 42.3904 68.7158C41.4921 69.2701 40.8791 70.1206 40.1182 70.8143C40.0618 70.8666 39.9984 70.9328 39.9878 70.999C39.854 71.7171 39.2727 72.0343 38.7408 72.4073C38.5223 72.5606 38.3145 72.7384 38.1278 72.9301C37.2541 73.819 36.1761 73.934 35.0241 73.7319C34.6859 73.6726 34.3442 73.568 34.0413 73.4112C32.921 72.836 31.7127 72.6199 30.4832 72.4805C30.1027 72.4352 29.7293 72.4386 29.4017 72.1598C29.2502 72.0308 28.9719 72.0134 28.7499 72.0099C27.5134 71.9994 26.4072 71.6265 25.4032 70.9084C25.1637 70.7376 24.8607 70.647 24.5824 70.5284C24.3006 70.4064 23.9906 70.3298 23.7369 70.1694C22.2045 69.2004 22.3242 69.298 22.2925 67.7398C22.2608 65.9098 22.1833 64.0763 22.0953 62.2498C22.0565 61.4446 21.8451 60.6672 21.5246 59.9248C21.1934 59.1509 20.8728 58.3736 20.5029 57.6172C19.8794 56.3379 19.7984 55.09 20.4712 53.7863C20.7495 53.2426 20.9856 52.7267 21.4893 52.3188C21.898 51.9912 22.1692 51.4962 22.5004 51.0744C22.7646 50.7398 23.0817 50.5272 23.5044 50.3668C24.6176 49.9485 25.6956 49.4396 26.8863 49.2374C27.1787 49.1886 27.4852 49.0457 27.7248 48.8714C28.8979 48.0139 30.2154 47.3238 31.0715 46.0863C31.156 45.9608 31.2793 45.8597 31.3815 45.7482C31.9064 45.1765 32.5159 44.8454 33.3296 45.072C33.5128 45.1242 33.7172 45.1521 33.9039 45.1242C34.7599 44.9918 35.4892 45.3194 36.2113 45.7029C36.7539 45.9887 37.3034 46.2711 37.86 46.529C38.6985 46.9159 39.4876 47.3551 40.2274 47.9303C41.1469 48.6483 42.3094 48.9133 43.4543 49.0945C44.1695 49.2061 44.8917 49.4082 45.6279 49.2061C46.0648 49.6488 46.7588 49.2444 47.2097 49.6801C47.7945 50.2448 48.3335 50.8339 48.5766 51.6322C48.8267 52.4513 48.8478 53.2844 48.7915 54.1314V54.128ZM47.1674 51.0221C47.0829 50.9245 47.0089 50.7572 46.8891 50.7119C46.0753 50.4052 45.325 49.9799 44.3879 49.9555C42.704 49.9137 41.094 49.4466 39.7377 48.4287C39.1071 47.9582 38.466 47.5887 37.7262 47.3551C37.3985 47.2506 37.0885 47.0902 36.7644 46.9612C36.5883 46.8915 36.4086 46.8148 36.2254 46.7765C35.8908 46.7068 35.5913 46.9403 35.6019 47.275C35.6336 48.2649 35.6477 49.2583 35.7393 50.2448C35.8591 51.5729 36.0775 52.894 36.0599 54.229C36.0458 55.2957 35.9894 56.3623 35.9225 57.429C35.9084 57.6416 35.8133 57.8995 35.461 57.7462C35.2214 56.6586 35.3306 55.5536 35.394 54.4556C35.4751 53.0683 35.4152 51.7123 34.8938 50.3982C34.5767 49.6 34.4781 48.7425 34.6366 47.9163C34.774 47.1843 34.6437 46.5743 34.302 45.9713C33.4212 45.661 32.6321 45.9573 31.7831 46.2292C30.9975 47.7525 29.5073 48.5542 28.1687 49.5093C27.8058 49.7673 27.3302 49.8753 26.8969 50.0252C26.062 50.3145 25.213 50.562 24.3816 50.8618C23.4516 51.1964 22.8174 51.9598 22.0283 52.5001C21.3202 52.9846 21.204 53.748 20.9715 54.4521C20.82 54.9192 21.211 55.4595 21.7641 55.4979C22.1411 55.5223 22.5145 55.6408 22.8914 55.7175C23.5713 55.8569 24.2442 56.0556 24.9312 56.1218C25.7661 56.202 26.5059 56.4495 27.1752 56.941C27.7142 57.3349 28.3131 57.6067 28.986 57.6311C30.219 57.673 31.3251 58.0111 32.2869 58.8024C32.7237 59.1614 33.2416 59.1718 33.8158 59.13C34.6437 59.0708 35.4645 58.8058 36.317 59.0115C36.6905 59.1021 37.0568 58.9488 37.4091 58.7431C37.9692 58.412 38.5505 58.1052 39.1529 57.8647C39.5933 57.6869 39.9632 57.4603 40.3014 57.1292C41.2596 56.1915 42.3411 55.4107 43.4896 54.7205C43.9194 54.4626 44.3456 54.2012 44.7648 53.9293C45.7336 53.3053 46.6214 52.2317 47.1674 51.0256V51.0221ZM20.9221 55.8395C20.8693 56.0347 20.8165 56.1148 20.8376 56.1741C20.9398 56.5018 21.0419 56.8294 21.1758 57.1431C21.4788 57.8438 21.8064 58.5374 22.1093 59.2346C22.6061 60.3744 22.8386 61.5596 22.8033 62.8005C22.7857 63.4105 22.7716 64.024 22.7963 64.6305C22.8491 65.8506 22.9126 67.0706 23.0042 68.2871C23.0499 68.9076 23.6171 69.535 24.1878 69.4688C24.7761 69.4025 25.1355 69.65 25.523 69.9742C26.372 70.6888 27.3443 71.1001 28.4646 71.1663C28.7323 71.1838 29.0036 71.2221 29.2572 71.2918C30.8496 71.731 32.4313 72.2121 34.0342 72.6164C34.6437 72.7698 35.2743 73.0452 35.9647 72.8046C36.1057 71.6822 36.2466 70.5947 36.2008 69.4827C36.1268 67.7329 36.007 65.9691 36.1338 64.2297C36.2219 62.9992 36.0669 61.8106 36.0669 60.6637C35.5526 60.0921 35.0171 59.8063 34.2808 59.9143C33.9884 59.9561 33.6537 59.9004 33.3754 59.7923C32.5546 59.4646 31.7303 59.1405 30.9588 58.7152C30.4691 58.4468 29.997 58.2586 29.4404 58.2516C28.4117 58.2342 27.4641 57.9623 26.6151 57.3767C26.0937 57.0176 25.5159 56.8678 24.8818 56.8155C23.6876 56.7214 22.5215 56.4634 21.4153 55.9859C21.278 55.9266 21.13 55.8952 20.9221 55.8325V55.8395ZM37.5395 71.8182C37.8178 71.7485 38.0679 71.7415 38.2476 71.6265C38.5646 71.4208 38.8711 71.1768 39.1247 70.9014C39.8751 70.0858 40.6008 69.2527 41.552 68.6461C41.8409 68.4614 42.1086 68.2313 42.3552 67.9943C43.1161 67.2553 43.9722 66.7115 45.0608 66.5721C45.3074 66.5407 45.5223 66.4222 45.6808 66.0736C44.8106 66.2967 44.0462 66.4919 43.088 66.7325C43.2923 66.485 43.3557 66.342 43.4579 66.2967C43.8771 66.1085 44.3139 65.9516 44.7402 65.7739C45.2686 65.5543 45.642 65.1987 45.7336 64.6096C45.7653 64.3865 45.7618 64.0798 46.0331 64.0519C46.41 64.0136 46.3818 64.3621 46.4347 64.6131C46.4523 64.7037 46.5086 64.7874 46.5544 64.8989C47.1956 63.8114 47.3929 62.675 47.3718 61.462C47.3541 60.5522 47.4528 59.6354 47.5268 58.7257C47.6818 56.7876 47.9812 54.86 47.8227 52.9079C47.8086 52.7267 47.8579 52.5175 47.5902 52.4374C47.5021 52.4827 47.3718 52.5106 47.3048 52.5907C46.1493 53.9711 44.7331 54.9854 43.0245 55.592C42.9224 55.6303 42.8308 55.714 42.7498 55.7907C42.0311 56.4774 41.2983 57.1571 40.6008 57.8647C39.8681 58.6072 39.0719 59.2485 38.0961 59.6564C37.4373 59.9317 37.0744 60.4058 37.0674 61.1518C37.0533 62.2881 36.9969 63.4245 36.937 64.5608C36.8842 65.5508 36.9582 66.5442 36.9159 67.5342C36.8525 68.9633 37.0709 70.3437 37.55 71.8182H37.5395Z" stroke="black" stroke-width="0.806883" stroke-linejoin="round" mask="url(#path-11-outside-4_100_19140)"/>
<path d="M13.7571 28.79C13.6171 28.61 13.5471 28.4 13.5471 28.16C13.5471 27.92 13.6371 27.43 13.8171 26.69C13.9171 26.17 14.0371 25.61 14.1771 25.01C14.3171 24.39 14.4271 23.9 14.5071 23.54C14.6671 23.16 14.7871 22.81 14.8671 22.49C14.9671 22.17 15.0171 22.01 15.0171 22.01C15.0171 22.01 14.8871 22.02 14.6271 22.04C14.3671 22.06 14.0571 22.15 13.6971 22.31C12.6971 22.55 11.9171 22.62 11.3571 22.52C10.8171 22.42 10.3871 22.1 10.0671 21.56C9.96707 21.46 9.87707 21.29 9.79707 21.05C9.73707 20.79 9.70707 20.54 9.70707 20.3C9.70707 20.06 9.75707 19.89 9.85707 19.79C9.97707 19.53 10.0971 19.27 10.2171 19.01C10.3571 18.75 10.4671 18.52 10.5471 18.32C10.6471 18.12 10.6971 18 10.6971 17.96C10.6971 17.9 10.7171 17.84 10.7571 17.78C10.8171 17.7 10.8471 17.62 10.8471 17.54C10.9271 17.36 11.1171 17.03 11.4171 16.55C11.7371 16.05 12.0871 15.51 12.4671 14.93C12.8671 14.35 13.2371 13.82 13.5771 13.34C13.9371 12.86 14.1971 12.55 14.3571 12.41C14.5171 12.33 14.6871 12.27 14.8671 12.23C15.0471 12.17 15.1671 12.18 15.2271 12.26C15.2871 12.36 15.3471 12.51 15.4071 12.71C15.4671 12.91 15.5071 13.09 15.5271 13.25C15.5671 13.41 15.5571 13.49 15.4971 13.49C15.4971 13.49 15.4671 13.5 15.4071 13.52C15.3671 13.52 15.3471 13.56 15.3471 13.64C15.3471 13.72 15.2471 13.89 15.0471 14.15C14.8471 14.41 14.6271 14.68 14.3871 14.96C14.1071 15.34 13.8471 15.71 13.6071 16.07C13.3671 16.41 13.1371 16.75 12.9171 17.09C12.6971 17.43 12.4771 17.77 12.2571 18.11C12.0571 18.45 11.8571 18.8 11.6571 19.16C11.4371 19.84 11.3071 20.27 11.2671 20.45C11.2471 20.63 11.2771 20.76 11.3571 20.84C11.4771 20.9 11.7271 20.92 12.1071 20.9C12.5071 20.86 13.0571 20.74 13.7571 20.54C14.1371 20.46 14.4871 20.39 14.8071 20.33C15.1471 20.25 15.3871 20.17 15.5271 20.09C15.6871 20.09 15.8271 20.06 15.9471 20C16.0871 19.94 16.1571 19.87 16.1571 19.79C16.1571 19.71 16.2171 19.54 16.3371 19.28C16.4771 19.02 16.5871 18.78 16.6671 18.56C16.8271 18.26 17.0171 17.86 17.2371 17.36C17.4771 16.84 17.7171 16.39 17.9571 16.01C18.4571 14.89 18.7671 14.17 18.8871 13.85C19.0271 13.51 19.1371 13.34 19.2171 13.34C19.2971 13.34 19.4071 13.38 19.5471 13.46C19.6871 13.52 19.7971 13.63 19.8771 13.79C20.0171 13.93 20.1071 14.07 20.1471 14.21C20.1871 14.33 20.1271 14.53 19.9671 14.81C19.9271 15.05 19.8671 15.26 19.7871 15.44C19.7271 15.6 19.6271 15.8 19.4871 16.04C19.3671 16.28 19.1871 16.63 18.9471 17.09C18.7071 17.57 18.4271 18.14 18.1071 18.8C17.8071 19.46 17.5071 20.14 17.2071 20.84C16.9071 21.54 16.6271 22.2 16.3671 22.82C16.1271 23.42 15.9471 23.9 15.8271 24.26C15.5471 25.06 15.3371 25.69 15.1971 26.15C15.0571 26.59 14.9771 26.94 14.9571 27.2C14.9571 27.44 15.0071 27.66 15.1071 27.86C15.1471 28.22 15.0671 28.53 14.8671 28.79C14.6671 29.03 14.4471 29.16 14.2071 29.18C13.9871 29.22 13.8371 29.09 13.7571 28.79Z" fill="black"/>
</svg>
