<svg width="88" height="37" viewBox="0 0 88 37" fill="none" xmlns="http://www.w3.org/2000/svg">
<path d="M12.5676 9.50045C14.2634 9.50045 15.9591 9.49908 17.6552 9.50113C18.4403 9.50181 19.1952 9.65324 19.8944 10.0265C21.0668 10.6524 21.7747 11.6335 21.9585 12.9782C22.1169 14.138 21.8138 15.1892 21.124 16.1131C20.0836 17.5061 19.1334 18.9585 18.3016 20.4909C18.0479 20.9582 17.821 21.4405 17.566 21.9071C17.1275 22.7094 16.5951 23.4464 16.028 24.1567C15.1624 25.241 14.2226 26.2545 13.2223 27.2096C12.7283 27.6816 12.0008 27.5633 11.6656 26.9638C10.9286 25.645 10.1947 24.3245 9.4481 23.0116C8.77668 21.8305 8.07551 20.668 7.28979 19.5615C6.81154 18.8877 6.30255 18.2407 5.71234 17.6647C5.38916 17.3495 5.03891 17.0713 4.65825 16.8303C3.76357 16.2642 3.21247 15.4548 3.04704 14.3862C2.94945 13.7562 3.00225 13.1324 3.21915 12.5355C3.82808 10.8599 5.01418 9.88159 6.72365 9.55958C6.95759 9.51583 7.19989 9.50386 7.43851 9.50318C9.14798 9.4984 10.8578 9.50045 12.5676 9.50045ZM13.3339 24.2329L13.36 24.2514C13.3797 24.2244 13.3974 24.1956 13.4191 24.1707C13.5899 23.9755 13.7637 23.7831 13.9325 23.5862C14.5598 22.8533 15.1624 22.0989 15.657 21.2641C15.909 20.8392 16.1262 20.3925 16.3558 19.9539C17.2468 18.2519 18.2715 16.6382 19.4155 15.1037C19.6347 14.8097 19.8376 14.5113 19.9449 14.1534C20.2299 13.2011 19.873 12.2853 19.0255 11.8215C18.6044 11.5911 18.1452 11.506 17.6719 11.5053C16.2823 11.5022 14.8927 11.5036 13.503 11.5032C13.4733 11.5032 13.4439 11.506 13.4095 11.5077C13.374 11.8632 13.3359 12.2105 13.3059 12.5588C13.251 13.1939 13.1936 13.829 13.1511 14.4652C13.104 15.1724 13.0532 15.8803 13.0395 16.5886C13.0234 17.4281 13.0375 18.2683 13.0532 19.1082C13.0649 19.7259 13.0953 20.3432 13.1271 20.9602C13.1638 21.674 13.2099 22.387 13.2547 23.1004C13.2784 23.4782 13.3075 23.8555 13.3343 24.2332L13.3339 24.2329ZM11.212 22.1187C11.2217 22.1173 11.2314 22.116 11.2411 22.1146C10.9537 18.5739 11.0236 15.0401 11.4513 11.5029C11.3955 11.5029 11.3658 11.5029 11.336 11.5029C10.066 11.5029 8.7964 11.5005 7.52641 11.5053C7.32722 11.506 7.12336 11.5169 6.92952 11.56C5.98672 11.7695 5.33535 12.3308 5.04325 13.2814C4.81131 14.0369 5.05361 14.7526 5.74709 15.1649C6.15716 15.4086 6.52646 15.7122 6.87805 16.0376C7.52875 16.6399 8.0959 17.3191 8.62294 18.0342C9.52229 19.2542 10.3033 20.5535 11.065 21.8657C11.1141 21.9502 11.1629 22.0346 11.2117 22.1187H11.212Z" fill="black"/>
<path d="M33.6929 17.446C33.6089 17.446 33.4529 17.416 33.2249 17.356C33.0089 17.296 32.7809 17.224 32.5409 17.14C32.3129 17.044 32.1329 16.942 32.0009 16.834C31.5929 16.486 31.2989 16.102 31.1189 15.682C30.9389 15.25 30.8309 14.812 30.7949 14.368C30.7709 13.924 30.7889 13.504 30.8489 13.108C30.9809 12.34 31.2569 11.578 31.6769 10.822C32.0969 10.054 32.6009 9.418 33.1889 8.914C33.5009 8.638 33.8129 8.404 34.1249 8.212C34.4369 8.02 34.7729 7.882 35.1329 7.798C35.2649 7.762 35.4509 7.744 35.6909 7.744C35.9429 7.732 36.1109 7.726 36.1949 7.726C36.4349 7.726 36.6989 7.78 36.9869 7.888C37.2869 7.984 37.5449 8.104 37.7609 8.248C37.9769 8.38 38.0849 8.506 38.0849 8.626C38.0849 8.71 38.0789 8.794 38.0669 8.878C38.0549 8.962 38.0009 8.98 37.9049 8.932H37.7249L37.9049 9.472C37.9529 9.568 37.9949 9.7 38.0309 9.868C38.0669 10.024 38.0849 10.168 38.0849 10.3C38.0849 10.42 38.0669 10.6 38.0309 10.84C38.0069 11.068 37.9649 11.314 37.9049 11.578C37.8569 11.842 37.8029 12.088 37.7429 12.316C37.6949 12.544 37.6469 12.712 37.5989 12.82C37.5629 12.892 37.5389 12.964 37.5269 13.036C37.5269 13.096 37.5269 13.15 37.5269 13.198C37.4789 13.294 37.4009 13.462 37.2929 13.702C37.1849 13.942 37.1069 14.11 37.0589 14.206C37.0109 14.254 36.9689 14.296 36.9329 14.332C36.9089 14.368 36.9209 14.41 36.9689 14.458C36.9689 14.494 36.9389 14.578 36.8789 14.71C36.8189 14.83 36.7529 14.944 36.6809 15.052C36.6209 15.16 36.5729 15.214 36.5369 15.214C36.5369 15.214 36.5189 15.22 36.4829 15.232C36.4589 15.232 36.4469 15.25 36.4469 15.286C36.4469 15.334 36.3629 15.46 36.1949 15.664C36.0389 15.868 35.8529 16.078 35.6369 16.294C35.5169 16.414 35.3249 16.57 35.0609 16.762C34.7969 16.942 34.5329 17.104 34.2689 17.248C34.0169 17.38 33.8249 17.446 33.6929 17.446ZM33.6569 15.718C33.7889 15.718 33.9149 15.7 34.0349 15.664C34.1549 15.616 34.2569 15.55 34.3409 15.466C34.5569 15.322 34.7609 15.13 34.9529 14.89C35.1569 14.65 35.3249 14.374 35.4569 14.062C35.5889 13.882 35.6909 13.696 35.7629 13.504C35.8469 13.3 35.9729 12.958 36.1409 12.478C36.2369 12.346 36.3029 12.184 36.3389 11.992C36.3749 11.8 36.3929 11.638 36.3929 11.506C36.3929 11.374 36.3929 11.194 36.3929 10.966C36.4049 10.738 36.4349 10.546 36.4829 10.39C36.4829 10.078 36.4769 9.898 36.4649 9.85C36.4529 9.79 36.4049 9.712 36.3209 9.616C36.2729 9.58 36.2069 9.544 36.1229 9.508C36.0509 9.472 35.9729 9.454 35.8889 9.454C35.8049 9.454 35.6909 9.478 35.5469 9.526C35.4149 9.562 35.3009 9.61 35.2049 9.67C35.1209 9.718 35.0249 9.724 34.9169 9.688C34.8209 9.652 34.7729 9.604 34.7729 9.544C34.7729 9.376 34.6889 9.388 34.5209 9.58C34.3649 9.76 34.1549 10.012 33.8909 10.336C33.6749 10.552 33.4889 10.774 33.3329 11.002C33.1889 11.218 33.1169 11.35 33.1169 11.398C33.1169 11.446 33.0989 11.506 33.0629 11.578C33.0269 11.65 32.9909 11.734 32.9549 11.83C32.8949 11.914 32.8229 12.052 32.7389 12.244C32.6549 12.436 32.5709 12.628 32.4869 12.82C32.4149 13 32.3669 13.138 32.3429 13.234C32.3429 13.282 32.3429 13.414 32.3429 13.63C32.3429 13.834 32.3429 14.026 32.3429 14.206C32.3429 14.41 32.3489 14.56 32.3609 14.656C32.3729 14.752 32.3909 14.83 32.4149 14.89C32.4509 14.95 32.4989 15.04 32.5589 15.16C32.6069 15.244 32.6789 15.346 32.7749 15.466C32.8829 15.574 32.9549 15.652 32.9909 15.7C33.1229 15.82 33.2069 15.868 33.2429 15.844C33.2909 15.808 33.4289 15.766 33.6569 15.718ZM39.4385 16.564C39.1865 16.648 38.9765 16.69 38.8085 16.69C38.6405 16.678 38.4545 16.6 38.2505 16.456C38.0105 16.216 37.9265 15.976 37.9985 15.736C38.0825 15.484 38.2985 15.238 38.6465 14.998C38.8865 14.854 39.0605 14.782 39.1685 14.782C39.2885 14.77 39.4625 14.812 39.6905 14.908C40.0985 15.16 40.2785 15.442 40.2305 15.754C40.1825 16.054 39.9185 16.324 39.4385 16.564ZM43.1688 17.212C42.9528 17.056 42.8448 16.924 42.8448 16.816C42.7968 16.744 42.7428 16.708 42.6828 16.708C42.6468 16.72 42.6108 16.66 42.5748 16.528C42.5508 16.396 42.5268 16.252 42.5028 16.096C42.4908 15.94 42.4908 15.838 42.5028 15.79C42.5508 15.694 42.6408 15.622 42.7728 15.574C42.9168 15.526 43.0548 15.508 43.1868 15.52C43.3308 15.52 43.4088 15.568 43.4208 15.664C43.4448 15.76 43.5348 15.838 43.6908 15.898C43.8588 15.958 44.0748 15.982 44.3388 15.97C44.6748 15.958 44.9808 15.904 45.2568 15.808C45.5448 15.712 45.8028 15.574 46.0308 15.394C46.2708 15.214 46.4868 14.998 46.6788 14.746C46.7628 14.578 46.8408 14.356 46.9128 14.08C46.9848 13.804 47.0328 13.558 47.0568 13.342C47.0808 13.126 47.0628 13.018 47.0028 13.018C47.0028 13.018 46.9908 12.976 46.9668 12.892C46.9548 12.808 46.9308 12.718 46.8948 12.622C46.8348 12.442 46.6968 12.262 46.4808 12.082C46.2648 11.89 46.0548 11.752 45.8508 11.668C45.7668 11.644 45.5928 11.644 45.3288 11.668C45.0648 11.692 44.8428 11.716 44.6628 11.74C44.4708 11.752 44.3568 11.752 44.3208 11.74C44.2968 11.716 44.2848 11.704 44.2848 11.704C44.2248 11.692 44.1228 11.632 43.9788 11.524C43.8468 11.416 43.7208 11.302 43.6008 11.182C43.4928 11.062 43.4388 10.972 43.4388 10.912C43.4628 10.828 43.5288 10.684 43.6368 10.48C43.7448 10.276 43.8768 10.054 44.0328 9.814C44.2008 9.574 44.3688 9.34 44.5368 9.112C44.7048 8.884 44.8608 8.698 45.0048 8.554C45.3648 8.158 45.7968 7.864 46.3008 7.672C46.8048 7.468 47.3028 7.378 47.7948 7.402C48.1428 7.414 48.4008 7.462 48.5688 7.546C48.7488 7.618 48.9108 7.75 49.0548 7.942C49.1508 8.11 49.1868 8.284 49.1628 8.464C49.1388 8.644 49.0788 8.782 48.9828 8.878C48.8868 8.974 48.7668 8.986 48.6228 8.914C48.4548 8.806 48.2268 8.764 47.9388 8.788C47.6508 8.812 47.3448 8.872 47.0208 8.968C46.7688 9.064 46.5648 9.148 46.4088 9.22C46.2528 9.28 46.1448 9.376 46.0848 9.508C46.0368 9.544 46.0008 9.58 45.9768 9.616C45.9648 9.652 45.9348 9.664 45.8868 9.652C45.8868 9.652 45.8688 9.676 45.8328 9.724C45.7968 9.76 45.7788 9.802 45.7788 9.85C45.7188 9.922 45.6768 9.976 45.6528 10.012C45.6408 10.036 45.6108 10.024 45.5628 9.976C45.5628 9.976 45.5628 9.994 45.5628 10.03C45.5628 10.066 45.5568 10.108 45.5448 10.156C45.5328 10.24 45.5568 10.3 45.6168 10.336C45.6888 10.36 45.8388 10.384 46.0668 10.408C46.3668 10.456 46.5888 10.504 46.7328 10.552C46.8888 10.588 47.1168 10.696 47.4168 10.876C47.7528 11.068 47.9988 11.356 48.1548 11.74C48.3228 12.112 48.4188 12.526 48.4428 12.982C48.4788 13.426 48.4668 13.852 48.4068 14.26C48.3708 14.524 48.3348 14.728 48.2988 14.872C48.2628 15.016 48.1608 15.214 47.9928 15.466C47.7168 15.85 47.3628 16.192 46.9308 16.492C46.4988 16.78 46.0428 17.008 45.5628 17.176C45.0828 17.344 44.6268 17.44 44.1948 17.464C43.7748 17.476 43.4328 17.392 43.1688 17.212ZM51.9275 18.454C51.7115 18.466 51.5315 18.364 51.3875 18.148C51.2435 17.932 51.1775 17.752 51.1895 17.608C51.2015 17.416 51.2555 17.14 51.3515 16.78C51.4475 16.42 51.5555 16.054 51.6755 15.682C51.7955 15.31 51.9035 15.016 51.9995 14.8C52.0475 14.608 52.0895 14.44 52.1255 14.296C52.1735 14.14 52.2035 14.038 52.2155 13.99C52.2515 13.942 52.3055 13.816 52.3775 13.612C52.4615 13.408 52.5275 13.21 52.5755 13.018C52.5995 12.922 52.6475 12.742 52.7195 12.478C52.8035 12.202 52.8995 11.884 53.0075 11.524C53.1275 11.164 53.2415 10.81 53.3495 10.462C53.4695 10.114 53.5715 9.808 53.6555 9.544C53.7395 9.28 53.7935 9.106 53.8175 9.022C53.9135 8.878 53.9855 8.74 54.0335 8.608C54.0815 8.476 54.1115 8.386 54.1235 8.338C54.1955 8.29 54.2375 8.23 54.2495 8.158C54.2615 8.074 54.2675 8.008 54.2675 7.96C54.2675 7.9 54.2855 7.852 54.3215 7.816C54.3695 7.78 54.3935 7.738 54.3935 7.69C54.4415 7.654 54.4715 7.648 54.4835 7.672C54.4955 7.696 54.5315 7.678 54.5915 7.618L54.6815 7.006L56.2835 6.988C56.2595 7.132 56.2235 7.312 56.1755 7.528C56.1275 7.732 56.0135 8.008 55.8335 8.356C55.7735 8.596 55.7015 8.812 55.6175 9.004C55.5455 9.196 55.5155 9.322 55.5275 9.382C55.5035 9.406 55.4495 9.526 55.3655 9.742C55.2935 9.958 55.2035 10.222 55.0955 10.534C54.9995 10.846 54.8975 11.158 54.7895 11.47C54.6935 11.782 54.6035 12.058 54.5195 12.298C54.4475 12.526 54.3995 12.67 54.3755 12.73C54.2795 12.922 54.1715 13.204 54.0515 13.576C53.9315 13.948 53.7515 14.452 53.5115 15.088C53.4155 15.28 53.2955 15.568 53.1515 15.952C53.0195 16.336 52.9115 16.684 52.8275 16.996C52.6955 17.464 52.5755 17.8 52.4675 18.004C52.3715 18.208 52.2815 18.328 52.1975 18.364C52.1135 18.412 52.0235 18.442 51.9275 18.454ZM52.0895 7.87C51.5975 7.918 51.2615 7.858 51.0815 7.69C50.9135 7.522 50.8535 7.342 50.9015 7.15C50.9375 7.006 51.0215 6.886 51.1535 6.79C51.2975 6.682 51.5555 6.592 51.9275 6.52C52.0595 6.496 52.2275 6.466 52.4315 6.43C52.6475 6.394 52.8515 6.358 53.0435 6.322C53.4395 6.274 53.7635 6.232 54.0155 6.196C54.2795 6.16 54.5495 6.13 54.8255 6.106C55.1015 6.082 55.4495 6.058 55.8695 6.034C56.2175 6.01 56.5115 5.992 56.7515 5.98C57.0035 5.956 57.1295 5.944 57.1295 5.944C57.1655 5.944 57.2915 5.956 57.5075 5.98C57.7235 6.004 57.9575 6.034 58.2095 6.07C58.4615 6.106 58.6475 6.148 58.7675 6.196C59.0435 6.256 59.2655 6.364 59.4335 6.52C59.6015 6.676 59.7095 6.856 59.7575 7.06C59.7935 7.204 59.7935 7.318 59.7575 7.402C59.7215 7.474 59.6555 7.534 59.5595 7.582C59.2835 7.666 59.0555 7.738 58.8755 7.798C58.7075 7.846 58.5395 7.84 58.3715 7.78C58.3115 7.72 58.2395 7.666 58.1555 7.618C58.0835 7.57 57.9515 7.534 57.7595 7.51C57.5795 7.474 57.2915 7.444 56.8955 7.42C56.5595 7.456 56.2655 7.474 56.0135 7.474C55.7615 7.474 55.6355 7.504 55.6355 7.564L54.5735 7.618L53.6915 7.708C53.5715 7.72 53.4035 7.738 53.1875 7.762C52.9715 7.774 52.7615 7.792 52.5575 7.816C52.3535 7.828 52.1975 7.846 52.0895 7.87ZM59.5056 18.13C59.0616 17.806 58.7076 17.506 58.4436 17.23C58.1916 16.942 58.0536 16.666 58.0296 16.402C58.0056 16.186 58.0056 15.892 58.0296 15.52C58.0656 15.148 58.1076 14.782 58.1556 14.422C58.2036 14.062 58.2456 13.792 58.2816 13.612C58.3416 13.552 58.3656 13.474 58.3536 13.378C58.3536 13.27 58.3536 13.216 58.3536 13.216C58.3416 13.156 58.3836 13 58.4796 12.748C58.5756 12.484 58.6656 12.148 58.7496 11.74C58.9896 11.02 59.2176 10.42 59.4336 9.94C59.6616 9.448 59.8836 9.028 60.0996 8.68C60.3156 8.332 60.5316 8.014 60.7476 7.726C61.2396 7.222 61.7016 6.82 62.1336 6.52C62.5776 6.22 62.9856 5.986 63.3576 5.818C63.5976 5.674 63.8196 5.56 64.0236 5.476C64.2276 5.392 64.3956 5.38 64.5276 5.44C65.1996 5.584 65.7696 5.878 66.2376 6.322C66.7056 6.766 67.0176 7.408 67.1736 8.248C67.2576 8.776 67.3056 9.256 67.3176 9.688C67.3416 10.108 67.3116 10.528 67.2276 10.948C67.1436 11.356 66.9876 11.806 66.7596 12.298C66.5436 12.79 66.2376 13.366 65.8416 14.026C65.3496 14.998 64.8096 15.814 64.2216 16.474C63.6456 17.122 63.0636 17.614 62.4756 17.95C61.8996 18.286 61.3476 18.466 60.8196 18.49C60.3036 18.526 59.8656 18.406 59.5056 18.13ZM60.9456 16.942C61.2216 16.906 61.4436 16.852 61.6116 16.78C61.7916 16.708 61.9776 16.57 62.1696 16.366C62.3616 16.162 62.6316 15.862 62.9796 15.466C63.2916 15.106 63.5496 14.8 63.7536 14.548C63.9696 14.296 64.1496 14.038 64.2936 13.774C64.4496 13.51 64.5936 13.198 64.7256 12.838C64.8696 12.466 65.0256 11.992 65.1936 11.416C65.2896 11.056 65.3556 10.792 65.3916 10.624C65.4396 10.444 65.4696 10.294 65.4816 10.174C65.4936 10.054 65.4936 9.892 65.4816 9.688C65.4816 9.472 65.4816 9.148 65.4816 8.716C65.4696 8.512 65.4276 8.284 65.3556 8.032C65.2836 7.768 65.1996 7.582 65.1036 7.474C64.9836 7.342 64.8036 7.228 64.5636 7.132C64.3236 7.036 64.0716 7.048 63.8076 7.168C63.6636 7.228 63.4836 7.354 63.2676 7.546C63.0516 7.726 62.8296 7.942 62.6016 8.194C62.3736 8.446 62.1576 8.698 61.9536 8.95C61.7496 9.202 61.5876 9.43 61.4676 9.634C61.3476 9.838 61.2876 9.982 61.2876 10.066C61.2876 10.066 61.2816 10.096 61.2696 10.156C61.2696 10.216 61.2456 10.276 61.1976 10.336C61.0416 10.504 60.8796 10.78 60.7116 11.164C60.5436 11.548 60.3876 11.986 60.2436 12.478C60.0996 12.97 59.9796 13.462 59.8836 13.954C59.7876 14.446 59.7276 14.89 59.7036 15.286C59.7036 15.478 59.7036 15.64 59.7036 15.772C59.7036 15.904 59.7156 16.024 59.7396 16.132C59.7756 16.228 59.8296 16.336 59.9016 16.456C59.9736 16.576 60.1176 16.696 60.3336 16.816C60.5616 16.936 60.7656 16.978 60.9456 16.942ZM67.9095 18.076C67.8495 18.172 67.7895 18.256 67.7295 18.328C67.6815 18.4 67.6275 18.442 67.5675 18.454C67.5315 18.394 67.4355 18.31 67.2795 18.202C67.1235 18.094 66.9735 17.98 66.8295 17.86C66.6855 17.74 66.6015 17.632 66.5775 17.536C66.5775 17.404 66.6255 17.152 66.7215 16.78C66.8175 16.408 66.9435 15.988 67.0995 15.52C67.2555 15.04 67.4115 14.572 67.5675 14.116C67.7355 13.648 67.8795 13.258 67.9995 12.946C68.0835 12.73 68.1555 12.544 68.2155 12.388C68.2755 12.22 68.3235 12.088 68.3595 11.992C68.4075 11.86 68.4915 11.668 68.6115 11.416C68.7315 11.164 68.8575 10.906 68.9895 10.642C69.1335 10.378 69.2535 10.15 69.3495 9.958C69.4455 9.766 69.4935 9.67 69.4935 9.67C69.5055 9.574 69.5715 9.394 69.6915 9.13C69.8115 8.866 69.9615 8.56 70.1415 8.212C70.3215 7.864 70.5075 7.522 70.6995 7.186C70.8915 6.838 71.0655 6.532 71.2215 6.268C71.3655 6.052 71.4735 5.932 71.5455 5.908C71.6295 5.872 71.7015 5.878 71.7615 5.926C72.0255 5.902 72.2535 5.908 72.4455 5.944C72.6495 5.968 72.8055 6.016 72.9135 6.088C73.0335 6.148 73.0995 6.22 73.1115 6.304C73.1355 6.34 73.1355 6.496 73.1115 6.772C73.0995 7.036 73.0755 7.27 73.0395 7.474C72.9675 8.062 72.9315 8.608 72.9315 9.112C72.9315 9.604 72.9615 10.15 73.0215 10.75C73.0935 11.338 73.1715 12.07 73.2555 12.946L73.5255 14.692L73.8495 13.99C73.9695 13.726 74.0775 13.462 74.1735 13.198C74.2695 12.922 74.3655 12.688 74.4615 12.496C74.5575 12.22 74.6595 11.956 74.7675 11.704C74.8875 11.44 74.9475 11.308 74.9475 11.308C75.0555 11.152 75.1575 10.942 75.2535 10.678C75.3615 10.414 75.4575 10.15 75.5415 9.886C75.6375 9.622 75.7095 9.424 75.7575 9.292C75.7815 9.208 75.8175 9.082 75.8655 8.914C75.9255 8.746 75.9855 8.56 76.0455 8.356C76.1175 8.152 76.1835 7.954 76.2435 7.762C76.3155 7.522 76.3815 7.306 76.4415 7.114C76.5015 6.922 76.5555 6.76 76.6035 6.628C76.6515 6.484 76.6815 6.388 76.6935 6.34C76.6935 6.34 76.7175 6.31 76.7655 6.25C76.8135 6.19 76.8675 6.094 76.9275 5.962L77.5755 5.818C77.8515 6.046 78.0075 6.262 78.0435 6.466C78.0915 6.658 78.0555 6.91 77.9355 7.222C77.9235 7.342 77.8935 7.474 77.8455 7.618C77.7975 7.75 77.7735 7.816 77.7735 7.816C77.8455 7.816 77.8515 7.9 77.7915 8.068C77.7435 8.224 77.7075 8.362 77.6835 8.482C77.6595 8.566 77.6175 8.71 77.5575 8.914C77.5095 9.118 77.4555 9.334 77.3955 9.562C77.3355 9.79 77.2815 9.988 77.2335 10.156C77.2095 10.252 77.1435 10.432 77.0355 10.696C76.9275 10.948 76.8015 11.236 76.6575 11.56C76.5135 11.884 76.3635 12.214 76.2075 12.55C76.0635 12.874 75.9315 13.156 75.8115 13.396C75.6915 13.636 75.6075 13.798 75.5595 13.882C75.5235 13.954 75.4815 14.044 75.4335 14.152C75.3975 14.26 75.3495 14.344 75.2895 14.404C75.2295 14.596 75.1215 14.812 74.9655 15.052C74.8095 15.292 74.6415 15.526 74.4615 15.754C74.2935 15.982 74.1435 16.174 74.0115 16.33C73.8555 16.498 73.6995 16.624 73.5435 16.708C73.3875 16.792 73.2075 16.786 73.0035 16.69C72.8115 16.594 72.5715 16.378 72.2835 16.042C72.2235 15.946 72.1575 15.736 72.0855 15.412C72.0135 15.088 71.9355 14.716 71.8515 14.296C71.7795 13.864 71.7075 13.438 71.6355 13.018C71.5635 12.586 71.5095 12.22 71.4735 11.92C71.4255 11.68 71.4075 11.494 71.4195 11.362C71.4315 11.218 71.4375 11.068 71.4375 10.912C71.4375 10.72 71.4375 10.576 71.4375 10.48C71.4495 10.372 71.4615 10.27 71.4735 10.174C71.4855 10.066 71.4915 9.928 71.4915 9.76C71.5035 9.628 71.4975 9.55 71.4735 9.526C71.4495 9.49 71.4015 9.52 71.3295 9.616C71.1255 9.916 70.9515 10.192 70.8075 10.444C70.6635 10.696 70.5555 10.9 70.4835 11.056C70.4355 11.188 70.3455 11.41 70.2135 11.722C70.0815 12.022 69.9375 12.358 69.7815 12.73C69.6255 13.102 69.4755 13.45 69.3315 13.774C69.1995 14.098 69.0975 14.344 69.0255 14.512C68.9415 14.692 68.8515 14.938 68.7555 15.25C68.6715 15.55 68.5875 15.868 68.5035 16.204C68.4195 16.528 68.3475 16.816 68.2875 17.068C68.2395 17.32 68.2035 17.482 68.1795 17.554C68.1675 17.566 68.1255 17.638 68.0535 17.77C67.9935 17.902 67.9455 18.004 67.9095 18.076Z" fill="black"/>
<rect x="28" y="21.5" width="35" height="15" rx="7.5" fill="#A0E5E2"/>
<path d="M34.2392 30.436C34.1912 30.436 34.1312 30.436 34.0592 30.436C33.9872 30.428 33.9072 30.408 33.8192 30.376C33.6992 30.376 33.6032 30.352 33.5312 30.304C33.4672 30.248 33.4192 30.192 33.3872 30.136C33.2992 30.016 33.3032 29.924 33.3992 29.86C33.5032 29.788 33.7032 29.736 33.9992 29.704C34.1352 29.672 34.3352 29.648 34.5992 29.632C34.8712 29.608 35.1632 29.592 35.4752 29.584C35.7872 29.568 36.0832 29.556 36.3632 29.548C36.6432 29.54 36.8632 29.536 37.0232 29.536C37.2312 29.536 37.4152 29.556 37.5752 29.596C37.7432 29.636 37.8712 29.7 37.9592 29.788C38.0792 29.908 38.1072 30.036 38.0432 30.172C37.9792 30.3 37.8552 30.348 37.6712 30.316C37.6312 30.316 37.5552 30.32 37.4432 30.328C37.3312 30.336 37.2072 30.344 37.0712 30.352C36.9432 30.36 36.8312 30.368 36.7352 30.376C36.6872 30.376 36.5552 30.38 36.3392 30.388C36.1232 30.396 35.8712 30.404 35.5832 30.412C35.3032 30.42 35.0352 30.428 34.7792 30.436C34.5312 30.436 34.3512 30.436 34.2392 30.436ZM35.8472 32.308C35.7272 32.396 35.6312 32.392 35.5592 32.296C35.4952 32.192 35.4472 31.992 35.4152 31.696C35.3832 31.56 35.3552 31.36 35.3312 31.096C35.3152 30.824 35.2992 30.532 35.2832 30.22C35.2752 29.908 35.2672 29.612 35.2592 29.332C35.2512 29.052 35.2472 28.832 35.2472 28.672C35.2472 28.464 35.2672 28.28 35.3072 28.12C35.3472 27.952 35.4072 27.824 35.4872 27.736C35.6072 27.616 35.7352 27.588 35.8712 27.652C36.0072 27.716 36.0592 27.84 36.0272 28.024C36.0352 28.064 36.0392 28.14 36.0392 28.252C36.0472 28.364 36.0552 28.488 36.0632 28.624C36.0712 28.752 36.0792 28.864 36.0872 28.96C36.0872 29.008 36.0912 29.14 36.0992 29.356C36.1072 29.572 36.1152 29.824 36.1232 30.112C36.1312 30.392 36.1352 30.66 36.1352 30.916C36.1432 31.164 36.1472 31.344 36.1472 31.456C36.1472 31.504 36.1432 31.564 36.1352 31.636C36.1352 31.708 36.1192 31.788 36.0872 31.876C36.0872 31.996 36.0592 32.092 36.0032 32.164C35.9552 32.228 35.9032 32.276 35.8472 32.308ZM43.9769 32.464C43.9209 32.464 43.8169 32.444 43.6649 32.404C43.5209 32.364 43.3689 32.316 43.2089 32.26C43.0569 32.196 42.9369 32.128 42.8489 32.056C42.5769 31.824 42.3809 31.568 42.2609 31.288C42.1409 31 42.0689 30.708 42.0449 30.412C42.0289 30.116 42.0409 29.836 42.0809 29.572C42.1689 29.06 42.3529 28.552 42.6329 28.048C42.9129 27.536 43.2489 27.112 43.6409 26.776C43.8489 26.592 44.0569 26.436 44.2649 26.308C44.4729 26.18 44.6969 26.088 44.9369 26.032C45.0249 26.008 45.1489 25.996 45.3089 25.996C45.4769 25.988 45.5889 25.984 45.6449 25.984C45.8049 25.984 45.9809 26.02 46.1729 26.092C46.3729 26.156 46.5449 26.236 46.6889 26.332C46.8329 26.42 46.9049 26.504 46.9049 26.584C46.9049 26.64 46.9009 26.696 46.8929 26.752C46.8849 26.808 46.8489 26.82 46.7849 26.788H46.6649L46.7849 27.148C46.8169 27.212 46.8449 27.3 46.8689 27.412C46.8929 27.516 46.9049 27.612 46.9049 27.7C46.9049 27.78 46.8929 27.9 46.8689 28.06C46.8529 28.212 46.8249 28.376 46.7849 28.552C46.7529 28.728 46.7169 28.892 46.6769 29.044C46.6449 29.196 46.6129 29.308 46.5809 29.38C46.5569 29.428 46.5409 29.476 46.5329 29.524C46.5329 29.564 46.5329 29.6 46.5329 29.632C46.5009 29.696 46.4489 29.808 46.3769 29.968C46.3049 30.128 46.2529 30.24 46.2209 30.304C46.1889 30.336 46.1609 30.364 46.1369 30.388C46.1209 30.412 46.1289 30.44 46.1609 30.472C46.1609 30.496 46.1409 30.552 46.1009 30.64C46.0609 30.72 46.0169 30.796 45.9689 30.868C45.9289 30.94 45.8969 30.976 45.8729 30.976C45.8729 30.976 45.8609 30.98 45.8369 30.988C45.8209 30.988 45.8129 31 45.8129 31.024C45.8129 31.056 45.7569 31.14 45.6449 31.276C45.5409 31.412 45.4169 31.552 45.2729 31.696C45.1929 31.776 45.0649 31.88 44.8889 32.008C44.7129 32.128 44.5369 32.236 44.3609 32.332C44.1929 32.42 44.0649 32.464 43.9769 32.464ZM43.9529 31.312C44.0409 31.312 44.1249 31.3 44.2049 31.276C44.2849 31.244 44.3529 31.2 44.4089 31.144C44.5529 31.048 44.6889 30.92 44.8169 30.76C44.9529 30.6 45.0649 30.416 45.1529 30.208C45.2409 30.088 45.3089 29.964 45.3569 29.836C45.4129 29.7 45.4969 29.472 45.6089 29.152C45.6729 29.064 45.7169 28.956 45.7409 28.828C45.7649 28.7 45.7769 28.592 45.7769 28.504C45.7769 28.416 45.7769 28.296 45.7769 28.144C45.7849 27.992 45.8049 27.864 45.8369 27.76C45.8369 27.552 45.8329 27.432 45.8249 27.4C45.8169 27.36 45.7849 27.308 45.7289 27.244C45.6969 27.22 45.6529 27.196 45.5969 27.172C45.5489 27.148 45.4969 27.136 45.4409 27.136C45.3849 27.136 45.3089 27.152 45.2129 27.184C45.1249 27.208 45.0489 27.24 44.9849 27.28C44.9289 27.312 44.8649 27.316 44.7929 27.292C44.7289 27.268 44.6969 27.236 44.6969 27.196C44.6969 27.084 44.6409 27.092 44.5289 27.22C44.4249 27.34 44.2849 27.508 44.1089 27.724C43.9649 27.868 43.8409 28.016 43.7369 28.168C43.6409 28.312 43.5929 28.4 43.5929 28.432C43.5929 28.464 43.5809 28.504 43.5569 28.552C43.5329 28.6 43.5089 28.656 43.4849 28.72C43.4449 28.776 43.3969 28.868 43.3409 28.996C43.2849 29.124 43.2289 29.252 43.1729 29.38C43.1249 29.5 43.0929 29.592 43.0769 29.656C43.0769 29.688 43.0769 29.776 43.0769 29.92C43.0769 30.056 43.0769 30.184 43.0769 30.304C43.0769 30.44 43.0809 30.54 43.0889 30.604C43.0969 30.668 43.1089 30.72 43.1249 30.76C43.1489 30.8 43.1809 30.86 43.2209 30.94C43.2529 30.996 43.3009 31.064 43.3649 31.144C43.4369 31.216 43.4849 31.268 43.5089 31.3C43.5969 31.38 43.6529 31.412 43.6769 31.396C43.7089 31.372 43.8009 31.344 43.9529 31.312ZM47.8073 31.876C47.6393 31.932 47.4993 31.96 47.3873 31.96C47.2753 31.952 47.1513 31.9 47.0153 31.804C46.8553 31.644 46.7993 31.484 46.8473 31.324C46.9033 31.156 47.0473 30.992 47.2793 30.832C47.4393 30.736 47.5553 30.688 47.6273 30.688C47.7073 30.68 47.8233 30.708 47.9753 30.772C48.2473 30.94 48.3673 31.128 48.3353 31.336C48.3033 31.536 48.1273 31.716 47.8073 31.876ZM51.0862 32.812C50.9902 32.796 50.8782 32.728 50.7502 32.608C50.6222 32.488 50.5342 32.372 50.4862 32.26C50.4542 32.108 50.5182 31.844 50.6782 31.468C50.8382 31.084 51.0542 30.636 51.3262 30.124C51.5022 29.836 51.5902 29.668 51.5902 29.62C51.5902 29.572 51.5102 29.548 51.3502 29.548C51.2782 29.532 51.1782 29.512 51.0502 29.488C50.9302 29.456 50.8582 29.424 50.8342 29.392C50.7062 29.328 50.6302 29.26 50.6062 29.188C50.5902 29.108 50.6182 29.064 50.6902 29.056C50.7702 29.016 50.7942 28.964 50.7622 28.9C50.7382 28.828 50.7342 28.772 50.7502 28.732C50.7902 28.732 50.8222 28.736 50.8462 28.744C50.8702 28.744 50.9142 28.752 50.9782 28.768C51.0902 28.768 51.1942 28.772 51.2902 28.78C51.3942 28.788 51.4902 28.792 51.5782 28.792C51.6182 28.792 51.6662 28.792 51.7222 28.792C51.7862 28.792 51.8422 28.796 51.8902 28.804C52.0022 28.82 52.0782 28.812 52.1182 28.78C52.1582 28.74 52.2342 28.648 52.3462 28.504C52.4102 28.392 52.4942 28.272 52.5982 28.144C52.7022 28.008 52.8062 27.84 52.9102 27.64C53.1902 27.24 53.3462 26.972 53.3782 26.836C53.4102 26.7 53.3462 26.64 53.1862 26.656C53.0582 26.672 52.9142 26.704 52.7542 26.752C52.6022 26.792 52.3742 26.868 52.0702 26.98C51.8462 27.068 51.6702 27.124 51.5422 27.148C51.4222 27.164 51.3182 27.148 51.2302 27.1C51.1822 27.092 51.1422 27.044 51.1102 26.956C51.0862 26.868 51.0702 26.772 51.0622 26.668C51.0622 26.556 51.0662 26.472 51.0742 26.416C51.0902 26.328 51.2542 26.232 51.5662 26.128C51.8782 26.024 52.2382 25.92 52.6462 25.816C52.8302 25.784 53.0382 25.764 53.2702 25.756C53.5022 25.748 53.7102 25.756 53.8942 25.78C54.0862 25.804 54.1982 25.848 54.2302 25.912C54.2302 25.912 54.2382 25.924 54.2542 25.948C54.2782 25.964 54.2942 25.956 54.3022 25.924C54.3342 25.932 54.3582 25.964 54.3742 26.02C54.3902 26.068 54.4222 26.132 54.4702 26.212C54.5502 26.348 54.5982 26.448 54.6142 26.512C54.6382 26.576 54.6382 26.668 54.6142 26.788C54.5902 26.876 54.5502 26.964 54.4942 27.052C54.4382 27.14 54.3942 27.196 54.3622 27.22C54.3222 27.252 54.2902 27.288 54.2662 27.328C54.2502 27.368 54.2422 27.388 54.2422 27.388C54.2342 27.42 54.2102 27.452 54.1702 27.484C54.1302 27.508 54.0902 27.544 54.0502 27.592C54.0422 27.624 54.0222 27.66 53.9902 27.7C53.9662 27.74 53.9502 27.772 53.9422 27.796C53.9342 27.804 53.9022 27.852 53.8462 27.94C53.7902 28.02 53.7262 28.116 53.6542 28.228C53.5822 28.34 53.5142 28.444 53.4502 28.54C53.3862 28.636 53.3422 28.704 53.3182 28.744C53.2062 28.848 53.1502 28.924 53.1502 28.972C53.1502 29.02 53.2022 29.068 53.3062 29.116C53.4422 29.172 53.5542 29.24 53.6422 29.32C53.7302 29.392 53.7902 29.484 53.8222 29.596C53.8302 29.78 53.7982 29.888 53.7262 29.92C53.6862 29.976 53.6182 30.016 53.5222 30.04C53.4342 30.064 53.3782 30.06 53.3542 30.028C53.3302 29.98 53.2742 29.936 53.1862 29.896C53.1062 29.848 53.0262 29.812 52.9462 29.788C52.8662 29.764 52.8142 29.752 52.7902 29.752C52.7582 29.768 52.7262 29.8 52.6942 29.848C52.6622 29.888 52.6262 29.932 52.5862 29.98C52.5302 30.06 52.4582 30.184 52.3702 30.352C52.2822 30.512 52.1942 30.672 52.1062 30.832C52.0182 30.984 51.9502 31.1 51.9022 31.18C51.8942 31.22 51.8702 31.26 51.8302 31.3C51.7982 31.34 51.7742 31.388 51.7582 31.444C51.7262 31.5 51.6982 31.584 51.6742 31.696C51.6502 31.8 51.6382 31.896 51.6382 31.984C51.6382 32.064 51.6502 32.108 51.6742 32.116C51.7382 32.1 51.7822 32.108 51.8062 32.14C51.8382 32.164 51.8622 32.208 51.8782 32.272C51.9182 32.328 51.8862 32.404 51.7822 32.5C51.6862 32.588 51.5662 32.664 51.4222 32.728C51.2862 32.8 51.1742 32.828 51.0862 32.812ZM55.6497 32.308C55.5057 32.204 55.4337 32.116 55.4337 32.044C55.4017 31.996 55.3657 31.972 55.3257 31.972C55.3017 31.98 55.2777 31.94 55.2537 31.852C55.2377 31.764 55.2217 31.668 55.2057 31.564C55.1977 31.46 55.1977 31.392 55.2057 31.36C55.2377 31.296 55.2977 31.248 55.3857 31.216C55.4817 31.184 55.5737 31.172 55.6617 31.18C55.7577 31.18 55.8097 31.212 55.8177 31.276C55.8337 31.34 55.8937 31.392 55.9977 31.432C56.1097 31.472 56.2537 31.488 56.4297 31.48C56.6537 31.472 56.8577 31.436 57.0417 31.372C57.2337 31.308 57.4057 31.216 57.5577 31.096C57.7177 30.976 57.8617 30.832 57.9897 30.664C58.0457 30.552 58.0977 30.404 58.1457 30.22C58.1937 30.036 58.2257 29.872 58.2417 29.728C58.2577 29.584 58.2457 29.512 58.2057 29.512C58.2057 29.512 58.1977 29.484 58.1817 29.428C58.1737 29.372 58.1577 29.312 58.1337 29.248C58.0937 29.128 58.0017 29.008 57.8577 28.888C57.7137 28.76 57.5737 28.668 57.4377 28.612C57.3817 28.596 57.2657 28.596 57.0897 28.612C56.9137 28.628 56.7657 28.644 56.6457 28.66C56.5177 28.668 56.4417 28.668 56.4177 28.66C56.4017 28.644 56.3937 28.636 56.3937 28.636C56.3537 28.628 56.2857 28.588 56.1897 28.516C56.1017 28.444 56.0177 28.368 55.9377 28.288C55.8657 28.208 55.8297 28.148 55.8297 28.108C55.8457 28.052 55.8897 27.956 55.9617 27.82C56.0337 27.684 56.1217 27.536 56.2257 27.376C56.3377 27.216 56.4497 27.06 56.5617 26.908C56.6737 26.756 56.7777 26.632 56.8737 26.536C57.1137 26.272 57.4017 26.076 57.7377 25.948C58.0737 25.812 58.4057 25.752 58.7337 25.768C58.9657 25.776 59.1377 25.808 59.2497 25.864C59.3697 25.912 59.4777 26 59.5737 26.128C59.6377 26.24 59.6617 26.356 59.6457 26.476C59.6297 26.596 59.5897 26.688 59.5257 26.752C59.4617 26.816 59.3817 26.824 59.2857 26.776C59.1737 26.704 59.0217 26.676 58.8297 26.692C58.6377 26.708 58.4337 26.748 58.2177 26.812C58.0497 26.876 57.9137 26.932 57.8097 26.98C57.7057 27.02 57.6337 27.084 57.5937 27.172C57.5617 27.196 57.5377 27.22 57.5217 27.244C57.5137 27.268 57.4937 27.276 57.4617 27.268C57.4617 27.268 57.4497 27.284 57.4257 27.316C57.4017 27.34 57.3897 27.368 57.3897 27.4C57.3497 27.448 57.3217 27.484 57.3057 27.508C57.2977 27.524 57.2777 27.516 57.2457 27.484C57.2457 27.484 57.2457 27.496 57.2457 27.52C57.2457 27.544 57.2417 27.572 57.2337 27.604C57.2257 27.66 57.2417 27.7 57.2817 27.724C57.3297 27.74 57.4297 27.756 57.5817 27.772C57.7817 27.804 57.9297 27.836 58.0257 27.868C58.1297 27.892 58.2817 27.964 58.4817 28.084C58.7057 28.212 58.8697 28.404 58.9737 28.66C59.0857 28.908 59.1497 29.184 59.1657 29.488C59.1897 29.784 59.1817 30.068 59.1417 30.34C59.1177 30.516 59.0937 30.652 59.0697 30.748C59.0457 30.844 58.9777 30.976 58.8657 31.144C58.6817 31.4 58.4457 31.628 58.1577 31.828C57.8697 32.02 57.5657 32.172 57.2457 32.284C56.9257 32.396 56.6217 32.46 56.3337 32.476C56.0537 32.484 55.8257 32.428 55.6497 32.308Z" fill="black"/>
</svg>
