<svg width="98" height="89" viewBox="0 0 98 89" fill="none" xmlns="http://www.w3.org/2000/svg">
<path d="M25.4496 42.9685C32.3622 41.438 46.1815 38.0763 51.7437 34.9863C55.3939 40.6512 70.2278 41.3997 76.6292 44.8466C82.7332 48.1334 77.5683 50.0115 74.8079 52.0718C69.6222 55.9423 82.7332 57.0546 80.8046 62.1141C78.753 67.4964 66.4646 63.9165 57.0784 70.3539C44.0731 79.2733 39.0662 62.1141 16.5282 62.1141C-1.81147 62.1141 14.9836 45.2857 25.4496 42.9685Z" fill="black"/>
<path d="M44.0415 62.8293C46.0224 63.8169 51.1419 65.4046 55.7727 63.855" stroke="white" stroke-width="1.87815" stroke-linecap="round" stroke-linejoin="round"/>
<path d="M55.6394 18.8609C51.6365 17.4313 42.2962 19.2183 38.1264 20.2905C36.9827 20.2905 34.0757 24.5795 32.7653 26.7239C31.0973 29.3449 27.4041 35.2303 25.9745 37.8036C24.5448 40.3769 25.8553 43.8796 26.6893 45.3092L32.7653 48.8833L40.6283 54.9592L48.8487 56.7463L54.2098 54.6018L63.145 52.4574L65.6469 51.3851L68.8636 45.6666L72.4377 32.7999C71.7228 31.132 69.7214 27.7247 67.4339 27.4387C65.1465 27.1528 60.7623 23.9838 58.8561 22.435C59.4518 21.8393 59.6424 20.2905 55.6394 18.8609Z" fill="white"/>
<path d="M71.8237 32.8278C71.8237 32.8278 71.8281 32.8452 71.8324 32.8539C71.8367 32.8365 71.8454 32.8191 71.8497 32.8018L71.8237 32.8278Z" fill="white"/>
<mask id="path-5-outside-1_100_19120" maskUnits="userSpaceOnUse" x="24.2598" y="16.7886" width="50" height="42" fill="black">
<rect fill="white" x="24.2598" y="16.7886" width="50" height="42"/>
<path fill-rule="evenodd" clip-rule="evenodd" d="M54.3084 18.4167C55.1264 18.5395 55.9444 18.6712 56.7668 18.7853C57.248 18.8511 57.5979 19.0749 57.9217 19.4523C58.8797 20.5669 59.8289 21.6728 60.5857 22.9542C61.1762 23.9547 62.1692 24.6042 63.1797 25.1791C64.269 25.7934 65.4413 26.2016 66.6268 26.5658C67.8166 26.93 68.954 27.404 70.017 28.071C70.4194 28.3211 70.7344 28.602 70.9881 29.0101C71.3293 29.5498 71.7405 30.0545 72.1692 30.5328C72.926 31.3666 73.2672 32.2969 73.1185 33.4379C72.9697 34.5876 72.7073 35.6891 72.2523 36.7686C71.3949 38.8092 70.7388 40.9156 70.2226 43.0747C69.8683 44.5448 69.2383 45.9446 68.8009 47.3972C68.3372 48.9375 67.3354 50.1487 66.4606 51.43C65.8875 52.2726 65.0257 52.8475 63.9584 52.9747C63.0966 53.0757 62.2261 53.1283 61.3643 53.2205C60.6819 53.2907 60.0039 53.3653 59.3521 53.6374C58.206 54.1201 57.0074 54.4317 55.7782 54.6423C55.192 54.7432 54.6452 54.9583 54.1159 55.2742C53.171 55.8359 52.1693 56.3099 51.1938 56.8233C51.0319 56.9067 50.8307 56.955 50.7082 57.0778C49.6933 58.1003 48.4466 57.8941 47.353 57.4684C46.3206 57.069 45.2139 56.9725 44.2209 56.4635C43.3941 56.0378 42.5105 55.8228 41.5569 55.9939C41.2507 56.0466 40.9182 55.9325 40.5989 55.9061C40.0696 55.8579 39.6409 55.6516 39.2865 55.2391C38.9322 54.8178 38.5341 54.4361 38.1492 54.0367C36.5131 52.3516 34.8596 50.6884 32.9524 49.3017C31.7975 48.4591 30.5464 47.7702 29.2341 47.2041C27.948 46.6468 26.9506 45.677 25.8264 44.8827C25.6645 44.7686 25.577 44.4965 25.5333 44.2771C25.4414 43.8251 25.3889 43.3687 25.3452 42.9123C25.3146 42.5437 25.3539 42.1707 25.3102 41.8064C25.0127 39.1383 26.0582 36.9486 27.7293 34.9914C28.0005 34.6754 28.3111 34.4077 28.4423 33.9996C29.0241 32.2223 30.0565 30.6864 31.137 29.1944C32.1693 27.777 33.0617 26.2762 33.9497 24.771C34.0897 24.534 34.2034 24.2795 34.3084 24.0249C34.9602 22.4583 35.997 21.1725 37.2481 20.0667C37.9523 19.4435 38.8447 19.1846 39.7634 19.031C40.2577 18.9476 40.7563 18.8818 41.2419 18.7589C42.2655 18.5088 43.276 18.1753 44.3084 17.969C45.6251 17.7057 46.9637 17.7716 48.2891 17.9076C49.2865 18.0085 50.2533 18.2236 51.29 18.0568C52.0293 17.9383 52.8342 18.2148 53.6085 18.3201C53.8359 18.3508 54.0634 18.3859 54.2909 18.421L54.3084 18.4167ZM71.8455 32.806C71.7799 32.9771 71.7536 33.1702 71.6486 33.3106C70.5857 34.7193 69.1508 35.4565 67.4142 35.5224C66.4824 35.5575 65.6032 35.7198 64.7327 36.049C64.059 36.3035 63.381 36.6458 62.6023 36.3649C62.4186 36.2991 62.1386 36.3825 61.9461 36.479C61.255 36.8257 60.5813 37.2119 59.877 37.5937C59.7895 38.1817 59.7677 38.7434 59.6058 39.2656C59.444 39.7878 59.0984 40.2486 58.9059 40.7664C58.5297 41.7713 57.8998 42.6227 57.3661 43.5354C56.255 45.4444 55.122 47.3445 54.0284 49.2666C53.6435 49.9424 53.3547 50.6709 53.0135 51.3686C52.9348 51.531 52.8604 51.7153 52.7336 51.8294C51.7974 52.6412 51.4081 53.8041 50.8001 54.831C50.717 54.9714 50.7082 55.1513 50.6513 55.362C50.8744 55.3708 51.0188 55.4146 51.1325 55.3752C51.9987 55.0899 52.8998 54.8749 53.6653 54.3351C54.3215 53.8743 55.0695 53.6505 55.8438 53.5364C56.8499 53.3829 57.8298 53.1503 58.7615 52.7422C59.7064 52.3297 60.6951 52.198 61.7143 52.1497C62.4448 52.1146 63.1797 52.0181 63.8971 51.8733C64.7808 51.6977 65.5332 51.3072 65.9225 50.3944C66.08 50.0214 66.3818 49.7142 66.6224 49.3763C66.8324 49.0779 67.0992 48.8014 67.2436 48.4723C68.1535 46.3528 69.0021 44.2113 69.3346 41.9074C69.3871 41.5431 69.4789 41.1833 69.5927 40.8322C70.1832 38.9935 70.7519 37.146 71.5437 35.3732C71.898 34.5789 72.143 33.7188 71.828 32.8279C72.3792 31.5729 72.3398 31.4851 71.1981 30.7786C70.975 30.6425 70.7825 30.4231 70.6294 30.2081C70.2838 29.721 69.9732 29.2119 69.6627 28.7424C69.1115 28.5493 68.5953 28.3738 68.0835 28.1982C67.4361 27.9788 66.7755 27.7814 66.1325 27.5356C65.1045 27.1407 64.0634 26.7676 63.0791 26.2937C61.255 25.4117 59.8377 24.0557 58.779 22.3354C58.3679 21.664 57.8385 21.133 57.2349 20.6503C56.9899 20.8478 56.7974 21.1067 56.5568 21.1725C56.0144 21.313 55.7213 21.6904 55.4326 22.116C55.0739 22.647 54.6933 23.1648 54.3215 23.6914C54.1815 23.8845 54.024 24.0469 53.7572 23.8889C53.5166 23.3053 53.7747 22.8313 54.0765 22.3574C54.3959 21.8527 54.6627 21.313 54.9908 20.8127C55.2751 20.3826 55.7826 20.1369 56.1238 19.5927C54.3565 19.3645 52.7423 18.895 51.0757 19.2153C50.4239 19.3426 49.7939 19.2943 49.1596 19.1802C47.0949 18.8116 45.0433 18.8379 43.0092 19.3558C42.3399 19.5269 41.6794 19.7244 41.0276 19.9482C40.6557 20.0754 40.5639 20.5845 40.8526 20.861C41.0844 21.0804 41.3688 21.2471 41.6094 21.4578C42.0599 21.8483 42.5717 22.1994 42.9304 22.6602C44.1028 24.1698 45.6645 25.1089 47.3749 25.8198C48.4641 26.2718 49.3871 26.851 50.1352 27.7945C50.8132 28.6459 51.5568 29.4577 52.7161 29.7605C53.2804 29.9053 53.7616 30.309 54.1728 30.7698C54.8814 31.5553 55.612 32.3233 56.3731 33.0561C56.6924 33.3677 57.0861 33.6266 57.4842 33.8285C58.2191 34.2015 59.0371 34.3989 59.6452 35.0089C59.737 35.1011 59.877 35.1757 60.0039 35.1932C61.1719 35.3468 62.3223 35.7988 63.5253 35.36C63.9934 35.1888 64.5052 35.1142 64.9995 35.0221C65.6732 34.8948 66.3512 34.7193 67.0336 34.7017C68.2235 34.6666 69.269 34.2717 70.2707 33.6617C70.7781 33.3545 71.3162 33.0956 71.8368 32.8235L71.8455 32.806ZM58.4641 35.5092C57.7773 35.202 57.1911 34.9387 56.6049 34.6754C56.2287 34.5043 55.8963 34.298 55.6251 33.9513C55.0039 33.1527 54.3259 32.4023 53.6784 31.6255C53.1973 31.0419 52.6023 30.6513 51.8893 30.3968C51.465 30.2432 51.0407 30.0238 50.6951 29.7385C50.2401 29.3568 49.8071 28.9223 49.4702 28.4352C48.8053 27.4742 47.8648 26.9783 46.8106 26.5746C45.0739 25.9119 43.5429 24.9377 42.3311 23.472C41.8718 22.9147 41.2769 22.4495 40.6907 22.0151C39.9165 21.4358 38.9541 21.4929 38.0486 21.3876C37.9305 21.3744 37.7905 21.4665 37.6724 21.528C37.3443 21.6947 37.0075 21.8483 36.7056 22.0546C36.4869 22.2038 36.2638 22.3969 36.1457 22.6251C35.7082 23.4852 35.3102 24.3672 34.899 25.2405C34.549 25.9909 34.2078 26.7457 33.8579 27.4961C33.7441 27.7462 33.6041 27.9306 33.3067 28.0534C32.6505 28.3167 32.1431 28.8521 31.8281 29.4445C30.9839 31.0243 30.0433 32.5515 29.3566 34.2234C28.7004 35.8339 27.9874 37.4401 26.745 38.7302C26.5088 38.976 26.3732 39.3621 26.2988 39.7088C26.0451 40.8542 26.1982 42.0127 26.4257 43.1273C26.5657 43.8163 26.8631 44.5623 27.4974 45.0055C28.2498 45.5277 28.9847 46.0675 29.8334 46.4537C31.9725 47.4323 33.9847 48.6303 35.6776 50.3022C37.0512 51.6582 38.451 52.9879 39.8027 54.3615C40.1877 54.752 40.5595 54.9758 41.1238 54.9232C42.1955 54.8222 43.2279 55.0065 44.2209 55.4234C44.5577 55.5639 44.9077 55.6955 45.2577 55.8008C46.57 56.2045 47.8648 56.402 48.9759 55.2918C49.0415 55.226 49.1203 55.1689 49.2034 55.1338C49.6408 54.967 49.8508 54.6072 49.9164 54.1859C49.9777 53.791 50.1701 53.5233 50.4457 53.2556C50.6732 53.0362 50.8438 52.7553 51.0057 52.4789C51.9637 50.8552 52.9129 49.2227 53.8622 47.5946C55.0651 45.5277 56.2637 43.4521 57.4623 41.3808C57.5979 41.1438 57.7292 40.8937 57.8254 40.6348C57.9042 40.4285 57.9435 40.2003 57.9698 39.9809C58.0354 39.4806 58.0529 38.976 58.1448 38.4801C58.3197 37.5278 58.4335 36.5756 58.4553 35.5004L58.4641 35.5092Z"/>
</mask>
<path fill-rule="evenodd" clip-rule="evenodd" d="M54.3084 18.4167C55.1264 18.5395 55.9444 18.6712 56.7668 18.7853C57.248 18.8511 57.5979 19.0749 57.9217 19.4523C58.8797 20.5669 59.8289 21.6728 60.5857 22.9542C61.1762 23.9547 62.1692 24.6042 63.1797 25.1791C64.269 25.7934 65.4413 26.2016 66.6268 26.5658C67.8166 26.93 68.954 27.404 70.017 28.071C70.4194 28.3211 70.7344 28.602 70.9881 29.0101C71.3293 29.5498 71.7405 30.0545 72.1692 30.5328C72.926 31.3666 73.2672 32.2969 73.1185 33.4379C72.9697 34.5876 72.7073 35.6891 72.2523 36.7686C71.3949 38.8092 70.7388 40.9156 70.2226 43.0747C69.8683 44.5448 69.2383 45.9446 68.8009 47.3972C68.3372 48.9375 67.3354 50.1487 66.4606 51.43C65.8875 52.2726 65.0257 52.8475 63.9584 52.9747C63.0966 53.0757 62.2261 53.1283 61.3643 53.2205C60.6819 53.2907 60.0039 53.3653 59.3521 53.6374C58.206 54.1201 57.0074 54.4317 55.7782 54.6423C55.192 54.7432 54.6452 54.9583 54.1159 55.2742C53.171 55.8359 52.1693 56.3099 51.1938 56.8233C51.0319 56.9067 50.8307 56.955 50.7082 57.0778C49.6933 58.1003 48.4466 57.8941 47.353 57.4684C46.3206 57.069 45.2139 56.9725 44.2209 56.4635C43.3941 56.0378 42.5105 55.8228 41.5569 55.9939C41.2507 56.0466 40.9182 55.9325 40.5989 55.9061C40.0696 55.8579 39.6409 55.6516 39.2865 55.2391C38.9322 54.8178 38.5341 54.4361 38.1492 54.0367C36.5131 52.3516 34.8596 50.6884 32.9524 49.3017C31.7975 48.4591 30.5464 47.7702 29.2341 47.2041C27.948 46.6468 26.9506 45.677 25.8264 44.8827C25.6645 44.7686 25.577 44.4965 25.5333 44.2771C25.4414 43.8251 25.3889 43.3687 25.3452 42.9123C25.3146 42.5437 25.3539 42.1707 25.3102 41.8064C25.0127 39.1383 26.0582 36.9486 27.7293 34.9914C28.0005 34.6754 28.3111 34.4077 28.4423 33.9996C29.0241 32.2223 30.0565 30.6864 31.137 29.1944C32.1693 27.777 33.0617 26.2762 33.9497 24.771C34.0897 24.534 34.2034 24.2795 34.3084 24.0249C34.9602 22.4583 35.997 21.1725 37.2481 20.0667C37.9523 19.4435 38.8447 19.1846 39.7634 19.031C40.2577 18.9476 40.7563 18.8818 41.2419 18.7589C42.2655 18.5088 43.276 18.1753 44.3084 17.969C45.6251 17.7057 46.9637 17.7716 48.2891 17.9076C49.2865 18.0085 50.2533 18.2236 51.29 18.0568C52.0293 17.9383 52.8342 18.2148 53.6085 18.3201C53.8359 18.3508 54.0634 18.3859 54.2909 18.421L54.3084 18.4167ZM71.8455 32.806C71.7799 32.9771 71.7536 33.1702 71.6486 33.3106C70.5857 34.7193 69.1508 35.4565 67.4142 35.5224C66.4824 35.5575 65.6032 35.7198 64.7327 36.049C64.059 36.3035 63.381 36.6458 62.6023 36.3649C62.4186 36.2991 62.1386 36.3825 61.9461 36.479C61.255 36.8257 60.5813 37.2119 59.877 37.5937C59.7895 38.1817 59.7677 38.7434 59.6058 39.2656C59.444 39.7878 59.0984 40.2486 58.9059 40.7664C58.5297 41.7713 57.8998 42.6227 57.3661 43.5354C56.255 45.4444 55.122 47.3445 54.0284 49.2666C53.6435 49.9424 53.3547 50.6709 53.0135 51.3686C52.9348 51.531 52.8604 51.7153 52.7336 51.8294C51.7974 52.6412 51.4081 53.8041 50.8001 54.831C50.717 54.9714 50.7082 55.1513 50.6513 55.362C50.8744 55.3708 51.0188 55.4146 51.1325 55.3752C51.9987 55.0899 52.8998 54.8749 53.6653 54.3351C54.3215 53.8743 55.0695 53.6505 55.8438 53.5364C56.8499 53.3829 57.8298 53.1503 58.7615 52.7422C59.7064 52.3297 60.6951 52.198 61.7143 52.1497C62.4448 52.1146 63.1797 52.0181 63.8971 51.8733C64.7808 51.6977 65.5332 51.3072 65.9225 50.3944C66.08 50.0214 66.3818 49.7142 66.6224 49.3763C66.8324 49.0779 67.0992 48.8014 67.2436 48.4723C68.1535 46.3528 69.0021 44.2113 69.3346 41.9074C69.3871 41.5431 69.4789 41.1833 69.5927 40.8322C70.1832 38.9935 70.7519 37.146 71.5437 35.3732C71.898 34.5789 72.143 33.7188 71.828 32.8279C72.3792 31.5729 72.3398 31.4851 71.1981 30.7786C70.975 30.6425 70.7825 30.4231 70.6294 30.2081C70.2838 29.721 69.9732 29.2119 69.6627 28.7424C69.1115 28.5493 68.5953 28.3738 68.0835 28.1982C67.4361 27.9788 66.7755 27.7814 66.1325 27.5356C65.1045 27.1407 64.0634 26.7676 63.0791 26.2937C61.255 25.4117 59.8377 24.0557 58.779 22.3354C58.3679 21.664 57.8385 21.133 57.2349 20.6503C56.9899 20.8478 56.7974 21.1067 56.5568 21.1725C56.0144 21.313 55.7213 21.6904 55.4326 22.116C55.0739 22.647 54.6933 23.1648 54.3215 23.6914C54.1815 23.8845 54.024 24.0469 53.7572 23.8889C53.5166 23.3053 53.7747 22.8313 54.0765 22.3574C54.3959 21.8527 54.6627 21.313 54.9908 20.8127C55.2751 20.3826 55.7826 20.1369 56.1238 19.5927C54.3565 19.3645 52.7423 18.895 51.0757 19.2153C50.4239 19.3426 49.7939 19.2943 49.1596 19.1802C47.0949 18.8116 45.0433 18.8379 43.0092 19.3558C42.3399 19.5269 41.6794 19.7244 41.0276 19.9482C40.6557 20.0754 40.5639 20.5845 40.8526 20.861C41.0844 21.0804 41.3688 21.2471 41.6094 21.4578C42.0599 21.8483 42.5717 22.1994 42.9304 22.6602C44.1028 24.1698 45.6645 25.1089 47.3749 25.8198C48.4641 26.2718 49.3871 26.851 50.1352 27.7945C50.8132 28.6459 51.5568 29.4577 52.7161 29.7605C53.2804 29.9053 53.7616 30.309 54.1728 30.7698C54.8814 31.5553 55.612 32.3233 56.3731 33.0561C56.6924 33.3677 57.0861 33.6266 57.4842 33.8285C58.2191 34.2015 59.0371 34.3989 59.6452 35.0089C59.737 35.1011 59.877 35.1757 60.0039 35.1932C61.1719 35.3468 62.3223 35.7988 63.5253 35.36C63.9934 35.1888 64.5052 35.1142 64.9995 35.0221C65.6732 34.8948 66.3512 34.7193 67.0336 34.7017C68.2235 34.6666 69.269 34.2717 70.2707 33.6617C70.7781 33.3545 71.3162 33.0956 71.8368 32.8235L71.8455 32.806ZM58.4641 35.5092C57.7773 35.202 57.1911 34.9387 56.6049 34.6754C56.2287 34.5043 55.8963 34.298 55.6251 33.9513C55.0039 33.1527 54.3259 32.4023 53.6784 31.6255C53.1973 31.0419 52.6023 30.6513 51.8893 30.3968C51.465 30.2432 51.0407 30.0238 50.6951 29.7385C50.2401 29.3568 49.8071 28.9223 49.4702 28.4352C48.8053 27.4742 47.8648 26.9783 46.8106 26.5746C45.0739 25.9119 43.5429 24.9377 42.3311 23.472C41.8718 22.9147 41.2769 22.4495 40.6907 22.0151C39.9165 21.4358 38.9541 21.4929 38.0486 21.3876C37.9305 21.3744 37.7905 21.4665 37.6724 21.528C37.3443 21.6947 37.0075 21.8483 36.7056 22.0546C36.4869 22.2038 36.2638 22.3969 36.1457 22.6251C35.7082 23.4852 35.3102 24.3672 34.899 25.2405C34.549 25.9909 34.2078 26.7457 33.8579 27.4961C33.7441 27.7462 33.6041 27.9306 33.3067 28.0534C32.6505 28.3167 32.1431 28.8521 31.8281 29.4445C30.9839 31.0243 30.0433 32.5515 29.3566 34.2234C28.7004 35.8339 27.9874 37.4401 26.745 38.7302C26.5088 38.976 26.3732 39.3621 26.2988 39.7088C26.0451 40.8542 26.1982 42.0127 26.4257 43.1273C26.5657 43.8163 26.8631 44.5623 27.4974 45.0055C28.2498 45.5277 28.9847 46.0675 29.8334 46.4537C31.9725 47.4323 33.9847 48.6303 35.6776 50.3022C37.0512 51.6582 38.451 52.9879 39.8027 54.3615C40.1877 54.752 40.5595 54.9758 41.1238 54.9232C42.1955 54.8222 43.2279 55.0065 44.2209 55.4234C44.5577 55.5639 44.9077 55.6955 45.2577 55.8008C46.57 56.2045 47.8648 56.402 48.9759 55.2918C49.0415 55.226 49.1203 55.1689 49.2034 55.1338C49.6408 54.967 49.8508 54.6072 49.9164 54.1859C49.9777 53.791 50.1701 53.5233 50.4457 53.2556C50.6732 53.0362 50.8438 52.7553 51.0057 52.4789C51.9637 50.8552 52.9129 49.2227 53.8622 47.5946C55.0651 45.5277 56.2637 43.4521 57.4623 41.3808C57.5979 41.1438 57.7292 40.8937 57.8254 40.6348C57.9042 40.4285 57.9435 40.2003 57.9698 39.9809C58.0354 39.4806 58.0529 38.976 58.1448 38.4801C58.3197 37.5278 58.4335 36.5756 58.4553 35.5004L58.4641 35.5092Z" fill="black"/>
<path fill-rule="evenodd" clip-rule="evenodd" d="M54.3084 18.4167C55.1264 18.5395 55.9444 18.6712 56.7668 18.7853C57.248 18.8511 57.5979 19.0749 57.9217 19.4523C58.8797 20.5669 59.8289 21.6728 60.5857 22.9542C61.1762 23.9547 62.1692 24.6042 63.1797 25.1791C64.269 25.7934 65.4413 26.2016 66.6268 26.5658C67.8166 26.93 68.954 27.404 70.017 28.071C70.4194 28.3211 70.7344 28.602 70.9881 29.0101C71.3293 29.5498 71.7405 30.0545 72.1692 30.5328C72.926 31.3666 73.2672 32.2969 73.1185 33.4379C72.9697 34.5876 72.7073 35.6891 72.2523 36.7686C71.3949 38.8092 70.7388 40.9156 70.2226 43.0747C69.8683 44.5448 69.2383 45.9446 68.8009 47.3972C68.3372 48.9375 67.3354 50.1487 66.4606 51.43C65.8875 52.2726 65.0257 52.8475 63.9584 52.9747C63.0966 53.0757 62.2261 53.1283 61.3643 53.2205C60.6819 53.2907 60.0039 53.3653 59.3521 53.6374C58.206 54.1201 57.0074 54.4317 55.7782 54.6423C55.192 54.7432 54.6452 54.9583 54.1159 55.2742C53.171 55.8359 52.1693 56.3099 51.1938 56.8233C51.0319 56.9067 50.8307 56.955 50.7082 57.0778C49.6933 58.1003 48.4466 57.8941 47.353 57.4684C46.3206 57.069 45.2139 56.9725 44.2209 56.4635C43.3941 56.0378 42.5105 55.8228 41.5569 55.9939C41.2507 56.0466 40.9182 55.9325 40.5989 55.9061C40.0696 55.8579 39.6409 55.6516 39.2865 55.2391C38.9322 54.8178 38.5341 54.4361 38.1492 54.0367C36.5131 52.3516 34.8596 50.6884 32.9524 49.3017C31.7975 48.4591 30.5464 47.7702 29.2341 47.2041C27.948 46.6468 26.9506 45.677 25.8264 44.8827C25.6645 44.7686 25.577 44.4965 25.5333 44.2771C25.4414 43.8251 25.3889 43.3687 25.3452 42.9123C25.3146 42.5437 25.3539 42.1707 25.3102 41.8064C25.0127 39.1383 26.0582 36.9486 27.7293 34.9914C28.0005 34.6754 28.3111 34.4077 28.4423 33.9996C29.0241 32.2223 30.0565 30.6864 31.137 29.1944C32.1693 27.777 33.0617 26.2762 33.9497 24.771C34.0897 24.534 34.2034 24.2795 34.3084 24.0249C34.9602 22.4583 35.997 21.1725 37.2481 20.0667C37.9523 19.4435 38.8447 19.1846 39.7634 19.031C40.2577 18.9476 40.7563 18.8818 41.2419 18.7589C42.2655 18.5088 43.276 18.1753 44.3084 17.969C45.6251 17.7057 46.9637 17.7716 48.2891 17.9076C49.2865 18.0085 50.2533 18.2236 51.29 18.0568C52.0293 17.9383 52.8342 18.2148 53.6085 18.3201C53.8359 18.3508 54.0634 18.3859 54.2909 18.421L54.3084 18.4167ZM71.8455 32.806C71.7799 32.9771 71.7536 33.1702 71.6486 33.3106C70.5857 34.7193 69.1508 35.4565 67.4142 35.5224C66.4824 35.5575 65.6032 35.7198 64.7327 36.049C64.059 36.3035 63.381 36.6458 62.6023 36.3649C62.4186 36.2991 62.1386 36.3825 61.9461 36.479C61.255 36.8257 60.5813 37.2119 59.877 37.5937C59.7895 38.1817 59.7677 38.7434 59.6058 39.2656C59.444 39.7878 59.0984 40.2486 58.9059 40.7664C58.5297 41.7713 57.8998 42.6227 57.3661 43.5354C56.255 45.4444 55.122 47.3445 54.0284 49.2666C53.6435 49.9424 53.3547 50.6709 53.0135 51.3686C52.9348 51.531 52.8604 51.7153 52.7336 51.8294C51.7974 52.6412 51.4081 53.8041 50.8001 54.831C50.717 54.9714 50.7082 55.1513 50.6513 55.362C50.8744 55.3708 51.0188 55.4146 51.1325 55.3752C51.9987 55.0899 52.8998 54.8749 53.6653 54.3351C54.3215 53.8743 55.0695 53.6505 55.8438 53.5364C56.8499 53.3829 57.8298 53.1503 58.7615 52.7422C59.7064 52.3297 60.6951 52.198 61.7143 52.1497C62.4448 52.1146 63.1797 52.0181 63.8971 51.8733C64.7808 51.6977 65.5332 51.3072 65.9225 50.3944C66.08 50.0214 66.3818 49.7142 66.6224 49.3763C66.8324 49.0779 67.0992 48.8014 67.2436 48.4723C68.1535 46.3528 69.0021 44.2113 69.3346 41.9074C69.3871 41.5431 69.4789 41.1833 69.5927 40.8322C70.1832 38.9935 70.7519 37.146 71.5437 35.3732C71.898 34.5789 72.143 33.7188 71.828 32.8279C72.3792 31.5729 72.3398 31.4851 71.1981 30.7786C70.975 30.6425 70.7825 30.4231 70.6294 30.2081C70.2838 29.721 69.9732 29.2119 69.6627 28.7424C69.1115 28.5493 68.5953 28.3738 68.0835 28.1982C67.4361 27.9788 66.7755 27.7814 66.1325 27.5356C65.1045 27.1407 64.0634 26.7676 63.0791 26.2937C61.255 25.4117 59.8377 24.0557 58.779 22.3354C58.3679 21.664 57.8385 21.133 57.2349 20.6503C56.9899 20.8478 56.7974 21.1067 56.5568 21.1725C56.0144 21.313 55.7213 21.6904 55.4326 22.116C55.0739 22.647 54.6933 23.1648 54.3215 23.6914C54.1815 23.8845 54.024 24.0469 53.7572 23.8889C53.5166 23.3053 53.7747 22.8313 54.0765 22.3574C54.3959 21.8527 54.6627 21.313 54.9908 20.8127C55.2751 20.3826 55.7826 20.1369 56.1238 19.5927C54.3565 19.3645 52.7423 18.895 51.0757 19.2153C50.4239 19.3426 49.7939 19.2943 49.1596 19.1802C47.0949 18.8116 45.0433 18.8379 43.0092 19.3558C42.3399 19.5269 41.6794 19.7244 41.0276 19.9482C40.6557 20.0754 40.5639 20.5845 40.8526 20.861C41.0844 21.0804 41.3688 21.2471 41.6094 21.4578C42.0599 21.8483 42.5717 22.1994 42.9304 22.6602C44.1028 24.1698 45.6645 25.1089 47.3749 25.8198C48.4641 26.2718 49.3871 26.851 50.1352 27.7945C50.8132 28.6459 51.5568 29.4577 52.7161 29.7605C53.2804 29.9053 53.7616 30.309 54.1728 30.7698C54.8814 31.5553 55.612 32.3233 56.3731 33.0561C56.6924 33.3677 57.0861 33.6266 57.4842 33.8285C58.2191 34.2015 59.0371 34.3989 59.6452 35.0089C59.737 35.1011 59.877 35.1757 60.0039 35.1932C61.1719 35.3468 62.3223 35.7988 63.5253 35.36C63.9934 35.1888 64.5052 35.1142 64.9995 35.0221C65.6732 34.8948 66.3512 34.7193 67.0336 34.7017C68.2235 34.6666 69.269 34.2717 70.2707 33.6617C70.7781 33.3545 71.3162 33.0956 71.8368 32.8235L71.8455 32.806ZM58.4641 35.5092C57.7773 35.202 57.1911 34.9387 56.6049 34.6754C56.2287 34.5043 55.8963 34.298 55.6251 33.9513C55.0039 33.1527 54.3259 32.4023 53.6784 31.6255C53.1973 31.0419 52.6023 30.6513 51.8893 30.3968C51.465 30.2432 51.0407 30.0238 50.6951 29.7385C50.2401 29.3568 49.8071 28.9223 49.4702 28.4352C48.8053 27.4742 47.8648 26.9783 46.8106 26.5746C45.0739 25.9119 43.5429 24.9377 42.3311 23.472C41.8718 22.9147 41.2769 22.4495 40.6907 22.0151C39.9165 21.4358 38.9541 21.4929 38.0486 21.3876C37.9305 21.3744 37.7905 21.4665 37.6724 21.528C37.3443 21.6947 37.0075 21.8483 36.7056 22.0546C36.4869 22.2038 36.2638 22.3969 36.1457 22.6251C35.7082 23.4852 35.3102 24.3672 34.899 25.2405C34.549 25.9909 34.2078 26.7457 33.8579 27.4961C33.7441 27.7462 33.6041 27.9306 33.3067 28.0534C32.6505 28.3167 32.1431 28.8521 31.8281 29.4445C30.9839 31.0243 30.0433 32.5515 29.3566 34.2234C28.7004 35.8339 27.9874 37.4401 26.745 38.7302C26.5088 38.976 26.3732 39.3621 26.2988 39.7088C26.0451 40.8542 26.1982 42.0127 26.4257 43.1273C26.5657 43.8163 26.8631 44.5623 27.4974 45.0055C28.2498 45.5277 28.9847 46.0675 29.8334 46.4537C31.9725 47.4323 33.9847 48.6303 35.6776 50.3022C37.0512 51.6582 38.451 52.9879 39.8027 54.3615C40.1877 54.752 40.5595 54.9758 41.1238 54.9232C42.1955 54.8222 43.2279 55.0065 44.2209 55.4234C44.5577 55.5639 44.9077 55.6955 45.2577 55.8008C46.57 56.2045 47.8648 56.402 48.9759 55.2918C49.0415 55.226 49.1203 55.1689 49.2034 55.1338C49.6408 54.967 49.8508 54.6072 49.9164 54.1859C49.9777 53.791 50.1701 53.5233 50.4457 53.2556C50.6732 53.0362 50.8438 52.7553 51.0057 52.4789C51.9637 50.8552 52.9129 49.2227 53.8622 47.5946C55.0651 45.5277 56.2637 43.4521 57.4623 41.3808C57.5979 41.1438 57.7292 40.8937 57.8254 40.6348C57.9042 40.4285 57.9435 40.2003 57.9698 39.9809C58.0354 39.4806 58.0529 38.976 58.1448 38.4801C58.3197 37.5278 58.4335 36.5756 58.4553 35.5004L58.4641 35.5092Z" stroke="black" stroke-width="1.00075" stroke-linejoin="round" mask="url(#path-5-outside-1_100_19120)"/>
<path d="M9.01707 28.31C8.93707 28.27 8.81707 28.2 8.65707 28.1C8.51707 27.98 8.36707 27.85 8.20707 27.71C8.06707 27.55 7.96707 27.41 7.90707 27.29C7.84707 27.19 7.84707 27.01 7.90707 26.75C7.98707 26.49 8.06707 26.36 8.14707 26.36C8.20707 26.4 8.30707 26.33 8.44707 26.15C8.58707 25.97 8.72707 25.78 8.86707 25.58C9.00707 25.36 9.07707 25.23 9.07707 25.19C9.09707 25.11 9.14707 25.05 9.22707 25.01C9.32707 24.95 9.41707 24.89 9.49707 24.83C9.59707 24.67 9.72707 24.51 9.88707 24.35C10.0671 24.17 10.2071 24.02 10.3071 23.9C10.4671 23.7 10.7571 23.4 11.1771 23C11.5971 22.6 12.0071 22.19 12.4071 21.77C12.8271 21.31 13.1971 20.91 13.5171 20.57C13.8371 20.21 14.0071 19.96 14.0271 19.82C14.0271 19.82 14.0571 19.79 14.1171 19.73C14.1971 19.65 14.2871 19.58 14.3871 19.52C14.4871 19.46 14.6171 19.36 14.7771 19.22C14.9571 19.08 15.1071 18.95 15.2271 18.83C15.2671 18.67 15.3771 18.45 15.5571 18.17C15.7571 17.87 15.9571 17.62 16.1571 17.42C16.3171 17.18 16.4671 16.92 16.6071 16.64C16.7471 16.34 16.8371 16.12 16.8771 15.98C16.9371 15.76 16.9371 15.63 16.8771 15.59C16.8171 15.53 16.5671 15.43 16.1271 15.29C15.6471 15.13 15.1171 15.07 14.5371 15.11C13.9771 15.13 13.3471 15.39 12.6471 15.89C12.3671 15.95 12.1071 16.03 11.8671 16.13C11.6471 16.23 11.4571 16.27 11.2971 16.25C11.2171 16.21 11.1271 16.12 11.0271 15.98C10.9271 15.84 10.8171 15.71 10.6971 15.59L10.3971 14.96L11.3271 14.45C12.1471 13.93 12.8871 13.57 13.5471 13.37C14.2271 13.17 14.8471 13.16 15.4071 13.34C15.6271 13.34 15.8271 13.37 16.0071 13.43C16.1871 13.47 16.2771 13.49 16.2771 13.49C16.4371 13.47 16.6371 13.56 16.8771 13.76C17.1171 13.94 17.3471 14.17 17.5671 14.45C17.8071 14.73 17.9871 15.01 18.1071 15.29C18.4271 15.77 18.5271 16.28 18.4071 16.82C18.3071 17.34 18.0071 17.97 17.5071 18.71C17.4071 18.83 17.1871 19.08 16.8471 19.46C16.5071 19.84 16.1171 20.27 15.6771 20.75C15.2571 21.21 14.8671 21.62 14.5071 21.98C14.1671 22.34 13.9471 22.57 13.8471 22.67C13.7071 22.73 13.4671 22.94 13.1271 23.3C12.8071 23.64 12.4571 24.02 12.0771 24.44C11.7171 24.84 11.4071 25.2 11.1471 25.52C10.9071 25.82 10.8071 25.97 10.8471 25.97C10.8271 26.05 10.8571 26.09 10.9371 26.09C11.0171 26.07 11.1471 26.03 11.3271 25.97C11.6271 25.87 12.0171 25.77 12.4971 25.67C12.9971 25.57 13.5071 25.49 14.0271 25.43C14.5471 25.35 14.9971 25.3 15.3771 25.28C15.7771 25.26 16.0071 25.28 16.0671 25.34C16.1071 25.44 16.1371 25.48 16.1571 25.46C16.1971 25.42 16.2171 25.4 16.2171 25.4C16.2571 25.26 16.5071 25.22 16.9671 25.28C17.4471 25.34 17.8771 25.43 18.2571 25.55C18.4771 25.61 18.6471 25.66 18.7671 25.7C18.9071 25.74 18.9771 25.8 18.9771 25.88C18.9771 25.88 18.9971 25.93 19.0371 26.03C19.0971 26.11 19.1871 26.22 19.3071 26.36C19.6271 26.62 19.6671 26.79 19.4271 26.87C19.1871 26.95 18.6671 26.92 17.8671 26.78C17.3471 26.78 16.9171 26.81 16.5771 26.87C16.4971 26.91 16.3271 26.93 16.0671 26.93C15.8071 26.93 15.5571 26.94 15.3171 26.96C14.9571 26.92 14.5971 26.94 14.2371 27.02C13.8771 27.08 13.4471 27.19 12.9471 27.35C12.7671 27.41 12.4871 27.5 12.1071 27.62C11.7271 27.74 11.3171 27.86 10.8771 27.98C10.4371 28.1 10.0371 28.19 9.67707 28.25C9.33707 28.31 9.11707 28.33 9.01707 28.31Z" fill="black"/>
</svg>
