<svg width="98" height="89" viewBox="0 0 98 89" fill="none" xmlns="http://www.w3.org/2000/svg">
<path d="M15.1914 51.4658C21.7746 53.7253 34.7464 49.4484 40.4094 47.0276C44.1257 51.4658 79.1709 48.6979 87.2495 50.5351C91.3421 51.4658 93.9966 53.2814 91.3421 57.9213C88.6875 62.5613 100.663 60.2455 97.4475 65.7891C94.512 70.8505 64.9748 69.3431 55.4186 74.3865C42.1776 81.3746 31.9149 65.9909 13.3332 64.5787C-5.24841 63.1666 6.96239 48.6415 15.1914 51.4658Z" fill="black"/>
<path d="M48.2471 67.0823C49.2889 65.6103 52.2059 62.8429 55.5397 63.5494" stroke="white" stroke-width="1.82316" stroke-linecap="round" stroke-linejoin="round"/>
<path d="M72.0859 17.6463L65.0465 16.2137L57.234 17.763L43.5152 21.7482L40.8211 40.8847L37.5776 51.3781L46.071 56.2827L55.696 58.1676L63.2075 60.638L74.1335 57.6726L82.1532 54.6512L82.5299 51.3486L88.3194 34.0608L88.9592 26.3799L72.0859 17.6463Z" fill="white"/>
<mask id="path-4-outside-1_100_19130" maskUnits="userSpaceOnUse" x="31.8449" y="11.9006" width="62.6111" height="52.8259" fill="black">
<rect fill="white" x="31.8449" y="11.9006" width="62.6111" height="52.8259"/>
<path fill-rule="evenodd" clip-rule="evenodd" d="M80.9198 55.8904C82.1994 55.5874 83.3121 54.2058 83.2584 52.8589C83.2331 52.2427 83.3384 51.6923 83.4918 51.1369C84.6904 46.8024 85.8886 42.4635 87.1057 38.1359C87.3718 37.184 87.6926 36.2484 88.0419 35.3319C88.9994 32.813 89.6968 30.2155 90.1106 27.5241C90.1815 27.0658 90.082 26.7094 89.75 26.4085C88.7505 25.515 87.7553 24.621 86.4156 24.3115C85.9312 24.199 85.4627 24.0275 84.9873 23.8743C84.4707 23.7078 83.9711 23.535 83.5074 23.1994C82.4311 22.4157 81.3094 21.703 80.2219 20.9381C79.0488 20.1159 77.8124 19.4463 76.4661 18.9916C74.8362 18.4431 73.1585 18.0278 71.6493 17.1173C71.4937 17.0232 71.3091 16.9896 71.1387 16.9236C69.683 16.3523 68.1542 16.3014 66.6556 16.0352C66.1294 15.9448 65.592 15.9573 65.0802 15.7107C64.6986 15.5256 64.3028 15.5408 63.8969 15.6278C63.0331 15.8118 62.1675 15.9783 61.3005 16.1316C59.9873 16.3674 58.7034 16.6708 57.5695 17.3916C57.3544 17.5292 57.0912 17.5879 56.8377 17.6545C56.2019 17.8232 55.5639 17.9701 54.9281 18.1388C54.5459 18.241 54.1812 18.4254 53.7886 18.4712C50.6547 18.8195 47.6755 19.8808 44.5147 20.0994C44.1203 20.1277 43.828 20.2868 43.6255 20.5866C43.3811 20.9483 43.1288 21.3197 42.9869 21.7325C42.7228 22.4941 42.5512 23.2946 42.3142 24.0622C41.8028 25.703 41.8974 27.4788 41.4312 29.1281C41.4089 29.2101 41.4326 29.3092 41.4292 29.4024C41.3175 30.9392 41.2059 32.4759 41.0942 34.0127C41.0464 34.6896 40.9457 35.3677 40.9731 36.0455C41.0083 36.8816 40.924 37.6729 40.6889 38.458C39.8584 41.2596 39.055 44.0672 38.211 46.8659C38.005 47.5507 37.6791 48.1862 37.4363 48.8572C37.2202 49.4457 36.9551 50.0307 36.8747 50.6491C36.7165 51.8283 37.1164 52.4801 37.9947 52.9356C38.56 53.2296 39.1219 53.5327 39.6937 53.8039C40.5581 54.2122 41.4398 54.5745 42.2934 55.006C43.3105 55.522 44.3138 56.0747 45.3054 56.642C46.5973 57.3765 47.9906 57.8174 49.3897 58.1029C51.2354 58.4784 53.1167 58.6468 54.9826 58.8787C56.3832 59.0536 57.7184 59.4874 58.9537 60.1881C59.766 60.6461 60.6024 61.0396 61.4736 61.1776C62.7 61.3753 63.9696 61.48 65.1302 60.9288C66.093 60.4692 67.1041 60.2167 68.1791 60.1519C68.5255 60.1286 68.8811 60.0248 69.198 59.8897C71.0151 59.1145 72.9014 58.5353 74.8254 58.0627C76.3493 57.6898 77.7196 57.0325 78.8061 56.1973C79.62 56.0849 80.2822 56.0416 80.9154 55.8908L80.9198 55.8904ZM39.0484 49.4871C39.5387 47.6894 40.0107 45.8848 40.4876 44.0841C40.5445 43.8703 40.6281 43.6582 40.6443 43.4354C40.7649 41.858 41.2405 40.3801 41.6749 38.8888C41.9502 37.9404 42.1018 36.9917 42.0258 35.9786C41.9873 35.4876 42.0457 34.9952 42.0823 34.5052C42.2043 32.8568 42.335 31.2075 42.4613 29.5587C42.4776 29.336 42.5069 29.1119 42.5275 28.8887C42.6274 27.8262 43.2137 26.9377 43.2451 25.8117C43.2718 24.8099 43.7397 23.8455 44.0249 22.8651C44.0476 22.7875 44.1207 22.7268 44.2204 22.5837C44.7643 22.5484 45.2901 22.8023 45.7694 23.1186C47.6738 24.3852 49.7445 25.2188 51.8791 25.9042C52.8163 26.2075 53.7492 26.5113 54.686 26.8103C55.0699 26.9334 55.4488 27.0923 55.8433 27.1479C57.7002 27.4206 59.453 28.1285 61.2369 28.7139C62.0831 28.9915 62.9142 29.2928 63.706 29.7662C64.3141 30.1308 65.0364 30.28 65.7112 30.5227C66.216 30.7037 66.7289 30.8352 67.1389 31.2472C67.3217 31.4313 67.5994 31.5523 67.8488 31.6144C68.6886 31.8308 69.3758 32.3594 70.1136 32.7811C70.7764 33.162 70.8927 33.552 70.6547 34.2268C70.2921 35.2685 69.9479 36.317 69.5993 37.366C69.3977 37.9664 69.357 38.5851 69.517 39.2224C69.9048 40.7639 69.6019 42.1617 68.9031 43.4908C68.6605 43.954 68.4841 44.4588 68.3349 44.9696C67.869 46.5393 67.454 48.1302 66.9745 49.6969C66.4517 51.3964 66.1857 53.1439 65.9626 54.9223C65.7959 56.2306 65.3113 57.4973 64.873 58.7414C64.604 59.4991 64.0021 59.8632 63.1314 59.8136C62.3275 59.7702 61.6136 59.6997 60.9263 59.0871C60.0971 58.3435 59.0073 58.1005 57.9636 57.9189C56.92 57.7372 55.8547 57.6861 54.8015 57.5806C53.0875 57.4078 51.3663 57.333 49.6695 57.0302C48.3735 56.8001 47.1118 56.3099 45.8906 55.7006C44.4454 54.9779 43.1017 54.0455 41.5649 53.5004C40.6931 53.1902 39.8877 52.6298 39.1035 52.1025C38.8039 51.8999 38.6477 51.4655 38.4754 51.214C38.7248 50.4805 38.9205 49.9913 39.0571 49.4862L39.0484 49.4871ZM66.5104 57.0172C66.8835 55.8241 66.9504 54.575 67.0843 53.332C67.1262 52.9342 67.1948 52.538 67.3002 52.1556C67.9391 49.7985 68.5877 47.4492 69.245 45.099C69.377 44.6343 69.5444 44.1702 69.7505 43.7373C70.4122 42.3503 70.7175 40.8904 70.4146 39.3178C70.2887 38.668 70.3404 38.0702 70.5372 37.466C70.8904 36.3767 71.0505 35.215 71.6142 34.1963C71.7964 33.8721 71.7896 33.4308 71.8786 33.0192C72.6035 32.8587 73.3246 32.7031 74.0408 32.5435C75.0586 32.3124 76.0687 32.0511 77.0989 31.854C78.0383 31.6754 78.9934 31.5613 79.9436 31.4434C80.9899 31.3153 81.9619 30.9432 82.9543 30.6395C83.4508 30.4899 83.9383 30.297 84.4405 30.1601C85.239 29.9432 86.0213 29.7413 86.7204 29.2521C87.0865 28.9969 87.5416 28.7897 88.1199 28.8304C88.1529 29.017 88.2334 29.1941 88.2049 29.343C87.9977 30.4345 87.8094 31.5374 87.5383 32.6091C87.3108 33.5084 86.9782 34.3744 86.6917 35.2578C86.5284 35.7612 86.3516 36.2617 86.2067 36.772C84.9006 41.4273 83.5988 46.0821 82.297 50.7369C82.0824 51.5066 81.8392 52.2572 81.3236 52.8111C80.8282 52.8456 80.3998 52.8864 79.9681 52.8966C79.7566 52.9012 79.5141 52.9047 79.3235 52.8143C78.0025 52.1801 76.6509 52.3448 75.297 52.4037C74.9895 52.4185 74.6845 52.4993 74.385 52.4646C74.1034 52.4324 73.8277 52.2891 73.4433 52.1617C73.5296 52.3515 73.5496 52.4996 73.6246 52.5404C73.8591 52.6703 74.1464 52.7152 74.3536 52.8789C75.0905 53.4598 75.9054 53.4401 76.7292 53.3798C77.7806 53.2998 78.8212 53.243 79.7891 53.8791C79.8617 54.3577 79.5572 54.6108 79.2234 54.6283C78.5996 54.6588 78.1724 55.0044 77.7312 55.3427C76.9301 55.9532 76.057 56.4255 75.0755 56.6661C74.1927 56.8786 73.374 57.323 72.4245 57.3215C72.2169 57.3213 72.0144 57.4531 71.8103 57.5277C70.7572 57.9261 69.7161 58.3542 68.651 58.723C67.8712 58.9909 67.031 58.9381 66.027 59.0484C66.2216 58.2146 66.3244 57.5982 66.5095 57.0084L66.5104 57.0172ZM45.9453 21.0182C47.1049 20.8339 48.267 20.6318 49.419 20.4174C50.7924 20.1664 52.16 19.9028 53.5262 19.626C53.9933 19.5326 54.4638 19.4299 54.9103 19.2678C55.5566 19.0317 56.1443 18.7001 56.8992 18.7398C57.3035 18.7634 57.7259 18.4978 58.1068 18.2985C59.1189 17.763 60.2277 17.5576 61.3547 17.3989C62.3031 17.2635 63.2358 17.0634 64.1775 16.9066C64.4333 16.8619 64.6972 16.8518 64.9576 16.8508C65.3946 16.8489 65.8344 16.8733 66.2713 16.8714C66.9372 16.863 67.5864 16.905 68.2019 17.2556C68.4272 17.3821 68.7023 17.437 68.9616 17.4672C69.9 17.5715 70.7646 17.94 71.6297 18.3128C72.4528 18.6636 73.2733 19.0323 74.1023 19.3559C74.7285 19.5993 75.3819 19.7646 76.0042 20.0128C76.7509 20.3097 77.4882 20.643 78.2177 20.986C78.8683 21.2931 79.5194 21.6045 80.1401 21.9634C80.6434 22.2551 81.1782 22.5523 81.5799 22.9696C82.4932 23.9252 83.5798 24.5134 84.772 24.9313C85.3224 25.1252 85.8633 25.3555 86.4208 25.4911C87.2141 25.6859 87.7216 26.2689 88.2487 26.8277C88.4372 27.0244 88.3932 27.3605 88.1924 27.5497C88.1324 27.6091 88.0694 27.682 87.9931 27.7122C86.8008 28.2137 85.7374 28.9756 84.451 29.297C83.401 29.5581 82.358 29.8847 81.3463 30.2567C80.5216 30.5603 79.6638 30.7171 78.794 30.7602C77.9504 30.8006 77.154 30.9951 76.3519 31.177C75.1661 31.448 73.9821 31.7364 72.7906 31.9947C72.0176 32.1603 71.2352 32.2782 70.5291 31.6543C68.8193 30.9771 67.1179 30.2947 65.4051 29.6311C64.6961 29.3567 63.9428 29.2063 63.3248 28.7058C63.291 28.6784 63.2494 28.6607 63.2034 28.6434C61.0429 27.921 58.9303 27.0256 56.7074 26.5484C56.4046 26.4831 56.092 26.4498 55.7947 26.353C53.0289 25.4602 50.2799 24.517 47.6511 23.2074C46.663 22.7149 45.7059 22.1396 44.5991 21.5271C45.0831 21.1754 45.4929 21.0836 45.9269 21.0113L45.9453 21.0182Z"/>
</mask>
<path fill-rule="evenodd" clip-rule="evenodd" d="M80.9198 55.8904C82.1994 55.5874 83.3121 54.2058 83.2584 52.8589C83.2331 52.2427 83.3384 51.6923 83.4918 51.1369C84.6904 46.8024 85.8886 42.4635 87.1057 38.1359C87.3718 37.184 87.6926 36.2484 88.0419 35.3319C88.9994 32.813 89.6968 30.2155 90.1106 27.5241C90.1815 27.0658 90.082 26.7094 89.75 26.4085C88.7505 25.515 87.7553 24.621 86.4156 24.3115C85.9312 24.199 85.4627 24.0275 84.9873 23.8743C84.4707 23.7078 83.9711 23.535 83.5074 23.1994C82.4311 22.4157 81.3094 21.703 80.2219 20.9381C79.0488 20.1159 77.8124 19.4463 76.4661 18.9916C74.8362 18.4431 73.1585 18.0278 71.6493 17.1173C71.4937 17.0232 71.3091 16.9896 71.1387 16.9236C69.683 16.3523 68.1542 16.3014 66.6556 16.0352C66.1294 15.9448 65.592 15.9573 65.0802 15.7107C64.6986 15.5256 64.3028 15.5408 63.8969 15.6278C63.0331 15.8118 62.1675 15.9783 61.3005 16.1316C59.9873 16.3674 58.7034 16.6708 57.5695 17.3916C57.3544 17.5292 57.0912 17.5879 56.8377 17.6545C56.2019 17.8232 55.5639 17.9701 54.9281 18.1388C54.5459 18.241 54.1812 18.4254 53.7886 18.4712C50.6547 18.8195 47.6755 19.8808 44.5147 20.0994C44.1203 20.1277 43.828 20.2868 43.6255 20.5866C43.3811 20.9483 43.1288 21.3197 42.9869 21.7325C42.7228 22.4941 42.5512 23.2946 42.3142 24.0622C41.8028 25.703 41.8974 27.4788 41.4312 29.1281C41.4089 29.2101 41.4326 29.3092 41.4292 29.4024C41.3175 30.9392 41.2059 32.4759 41.0942 34.0127C41.0464 34.6896 40.9457 35.3677 40.9731 36.0455C41.0083 36.8816 40.924 37.6729 40.6889 38.458C39.8584 41.2596 39.055 44.0672 38.211 46.8659C38.005 47.5507 37.6791 48.1862 37.4363 48.8572C37.2202 49.4457 36.9551 50.0307 36.8747 50.6491C36.7165 51.8283 37.1164 52.4801 37.9947 52.9356C38.56 53.2296 39.1219 53.5327 39.6937 53.8039C40.5581 54.2122 41.4398 54.5745 42.2934 55.006C43.3105 55.522 44.3138 56.0747 45.3054 56.642C46.5973 57.3765 47.9906 57.8174 49.3897 58.1029C51.2354 58.4784 53.1167 58.6468 54.9826 58.8787C56.3832 59.0536 57.7184 59.4874 58.9537 60.1881C59.766 60.6461 60.6024 61.0396 61.4736 61.1776C62.7 61.3753 63.9696 61.48 65.1302 60.9288C66.093 60.4692 67.1041 60.2167 68.1791 60.1519C68.5255 60.1286 68.8811 60.0248 69.198 59.8897C71.0151 59.1145 72.9014 58.5353 74.8254 58.0627C76.3493 57.6898 77.7196 57.0325 78.8061 56.1973C79.62 56.0849 80.2822 56.0416 80.9154 55.8908L80.9198 55.8904ZM39.0484 49.4871C39.5387 47.6894 40.0107 45.8848 40.4876 44.0841C40.5445 43.8703 40.6281 43.6582 40.6443 43.4354C40.7649 41.858 41.2405 40.3801 41.6749 38.8888C41.9502 37.9404 42.1018 36.9917 42.0258 35.9786C41.9873 35.4876 42.0457 34.9952 42.0823 34.5052C42.2043 32.8568 42.335 31.2075 42.4613 29.5587C42.4776 29.336 42.5069 29.1119 42.5275 28.8887C42.6274 27.8262 43.2137 26.9377 43.2451 25.8117C43.2718 24.8099 43.7397 23.8455 44.0249 22.8651C44.0476 22.7875 44.1207 22.7268 44.2204 22.5837C44.7643 22.5484 45.2901 22.8023 45.7694 23.1186C47.6738 24.3852 49.7445 25.2188 51.8791 25.9042C52.8163 26.2075 53.7492 26.5113 54.686 26.8103C55.0699 26.9334 55.4488 27.0923 55.8433 27.1479C57.7002 27.4206 59.453 28.1285 61.2369 28.7139C62.0831 28.9915 62.9142 29.2928 63.706 29.7662C64.3141 30.1308 65.0364 30.28 65.7112 30.5227C66.216 30.7037 66.7289 30.8352 67.1389 31.2472C67.3217 31.4313 67.5994 31.5523 67.8488 31.6144C68.6886 31.8308 69.3758 32.3594 70.1136 32.7811C70.7764 33.162 70.8927 33.552 70.6547 34.2268C70.2921 35.2685 69.9479 36.317 69.5993 37.366C69.3977 37.9664 69.357 38.5851 69.517 39.2224C69.9048 40.7639 69.6019 42.1617 68.9031 43.4908C68.6605 43.954 68.4841 44.4588 68.3349 44.9696C67.869 46.5393 67.454 48.1302 66.9745 49.6969C66.4517 51.3964 66.1857 53.1439 65.9626 54.9223C65.7959 56.2306 65.3113 57.4973 64.873 58.7414C64.604 59.4991 64.0021 59.8632 63.1314 59.8136C62.3275 59.7702 61.6136 59.6997 60.9263 59.0871C60.0971 58.3435 59.0073 58.1005 57.9636 57.9189C56.92 57.7372 55.8547 57.6861 54.8015 57.5806C53.0875 57.4078 51.3663 57.333 49.6695 57.0302C48.3735 56.8001 47.1118 56.3099 45.8906 55.7006C44.4454 54.9779 43.1017 54.0455 41.5649 53.5004C40.6931 53.1902 39.8877 52.6298 39.1035 52.1025C38.8039 51.8999 38.6477 51.4655 38.4754 51.214C38.7248 50.4805 38.9205 49.9913 39.0571 49.4862L39.0484 49.4871ZM66.5104 57.0172C66.8835 55.8241 66.9504 54.575 67.0843 53.332C67.1262 52.9342 67.1948 52.538 67.3002 52.1556C67.9391 49.7985 68.5877 47.4492 69.245 45.099C69.377 44.6343 69.5444 44.1702 69.7505 43.7373C70.4122 42.3503 70.7175 40.8904 70.4146 39.3178C70.2887 38.668 70.3404 38.0702 70.5372 37.466C70.8904 36.3767 71.0505 35.215 71.6142 34.1963C71.7964 33.8721 71.7896 33.4308 71.8786 33.0192C72.6035 32.8587 73.3246 32.7031 74.0408 32.5435C75.0586 32.3124 76.0687 32.0511 77.0989 31.854C78.0383 31.6754 78.9934 31.5613 79.9436 31.4434C80.9899 31.3153 81.9619 30.9432 82.9543 30.6395C83.4508 30.4899 83.9383 30.297 84.4405 30.1601C85.239 29.9432 86.0213 29.7413 86.7204 29.2521C87.0865 28.9969 87.5416 28.7897 88.1199 28.8304C88.1529 29.017 88.2334 29.1941 88.2049 29.343C87.9977 30.4345 87.8094 31.5374 87.5383 32.6091C87.3108 33.5084 86.9782 34.3744 86.6917 35.2578C86.5284 35.7612 86.3516 36.2617 86.2067 36.772C84.9006 41.4273 83.5988 46.0821 82.297 50.7369C82.0824 51.5066 81.8392 52.2572 81.3236 52.8111C80.8282 52.8456 80.3998 52.8864 79.9681 52.8966C79.7566 52.9012 79.5141 52.9047 79.3235 52.8143C78.0025 52.1801 76.6509 52.3448 75.297 52.4037C74.9895 52.4185 74.6845 52.4993 74.385 52.4646C74.1034 52.4324 73.8277 52.2891 73.4433 52.1617C73.5296 52.3515 73.5496 52.4996 73.6246 52.5404C73.8591 52.6703 74.1464 52.7152 74.3536 52.8789C75.0905 53.4598 75.9054 53.4401 76.7292 53.3798C77.7806 53.2998 78.8212 53.243 79.7891 53.8791C79.8617 54.3577 79.5572 54.6108 79.2234 54.6283C78.5996 54.6588 78.1724 55.0044 77.7312 55.3427C76.9301 55.9532 76.057 56.4255 75.0755 56.6661C74.1927 56.8786 73.374 57.323 72.4245 57.3215C72.2169 57.3213 72.0144 57.4531 71.8103 57.5277C70.7572 57.9261 69.7161 58.3542 68.651 58.723C67.8712 58.9909 67.031 58.9381 66.027 59.0484C66.2216 58.2146 66.3244 57.5982 66.5095 57.0084L66.5104 57.0172ZM45.9453 21.0182C47.1049 20.8339 48.267 20.6318 49.419 20.4174C50.7924 20.1664 52.16 19.9028 53.5262 19.626C53.9933 19.5326 54.4638 19.4299 54.9103 19.2678C55.5566 19.0317 56.1443 18.7001 56.8992 18.7398C57.3035 18.7634 57.7259 18.4978 58.1068 18.2985C59.1189 17.763 60.2277 17.5576 61.3547 17.3989C62.3031 17.2635 63.2358 17.0634 64.1775 16.9066C64.4333 16.8619 64.6972 16.8518 64.9576 16.8508C65.3946 16.8489 65.8344 16.8733 66.2713 16.8714C66.9372 16.863 67.5864 16.905 68.2019 17.2556C68.4272 17.3821 68.7023 17.437 68.9616 17.4672C69.9 17.5715 70.7646 17.94 71.6297 18.3128C72.4528 18.6636 73.2733 19.0323 74.1023 19.3559C74.7285 19.5993 75.3819 19.7646 76.0042 20.0128C76.7509 20.3097 77.4882 20.643 78.2177 20.986C78.8683 21.2931 79.5194 21.6045 80.1401 21.9634C80.6434 22.2551 81.1782 22.5523 81.5799 22.9696C82.4932 23.9252 83.5798 24.5134 84.772 24.9313C85.3224 25.1252 85.8633 25.3555 86.4208 25.4911C87.2141 25.6859 87.7216 26.2689 88.2487 26.8277C88.4372 27.0244 88.3932 27.3605 88.1924 27.5497C88.1324 27.6091 88.0694 27.682 87.9931 27.7122C86.8008 28.2137 85.7374 28.9756 84.451 29.297C83.401 29.5581 82.358 29.8847 81.3463 30.2567C80.5216 30.5603 79.6638 30.7171 78.794 30.7602C77.9504 30.8006 77.154 30.9951 76.3519 31.177C75.1661 31.448 73.9821 31.7364 72.7906 31.9947C72.0176 32.1603 71.2352 32.2782 70.5291 31.6543C68.8193 30.9771 67.1179 30.2947 65.4051 29.6311C64.6961 29.3567 63.9428 29.2063 63.3248 28.7058C63.291 28.6784 63.2494 28.6607 63.2034 28.6434C61.0429 27.921 58.9303 27.0256 56.7074 26.5484C56.4046 26.4831 56.092 26.4498 55.7947 26.353C53.0289 25.4602 50.2799 24.517 47.6511 23.2074C46.663 22.7149 45.7059 22.1396 44.5991 21.5271C45.0831 21.1754 45.4929 21.0836 45.9269 21.0113L45.9453 21.0182Z" fill="black"/>
<path fill-rule="evenodd" clip-rule="evenodd" d="M80.9198 55.8904C82.1994 55.5874 83.3121 54.2058 83.2584 52.8589C83.2331 52.2427 83.3384 51.6923 83.4918 51.1369C84.6904 46.8024 85.8886 42.4635 87.1057 38.1359C87.3718 37.184 87.6926 36.2484 88.0419 35.3319C88.9994 32.813 89.6968 30.2155 90.1106 27.5241C90.1815 27.0658 90.082 26.7094 89.75 26.4085C88.7505 25.515 87.7553 24.621 86.4156 24.3115C85.9312 24.199 85.4627 24.0275 84.9873 23.8743C84.4707 23.7078 83.9711 23.535 83.5074 23.1994C82.4311 22.4157 81.3094 21.703 80.2219 20.9381C79.0488 20.1159 77.8124 19.4463 76.4661 18.9916C74.8362 18.4431 73.1585 18.0278 71.6493 17.1173C71.4937 17.0232 71.3091 16.9896 71.1387 16.9236C69.683 16.3523 68.1542 16.3014 66.6556 16.0352C66.1294 15.9448 65.592 15.9573 65.0802 15.7107C64.6986 15.5256 64.3028 15.5408 63.8969 15.6278C63.0331 15.8118 62.1675 15.9783 61.3005 16.1316C59.9873 16.3674 58.7034 16.6708 57.5695 17.3916C57.3544 17.5292 57.0912 17.5879 56.8377 17.6545C56.2019 17.8232 55.5639 17.9701 54.9281 18.1388C54.5459 18.241 54.1812 18.4254 53.7886 18.4712C50.6547 18.8195 47.6755 19.8808 44.5147 20.0994C44.1203 20.1277 43.828 20.2868 43.6255 20.5866C43.3811 20.9483 43.1288 21.3197 42.9869 21.7325C42.7228 22.4941 42.5512 23.2946 42.3142 24.0622C41.8028 25.703 41.8974 27.4788 41.4312 29.1281C41.4089 29.2101 41.4326 29.3092 41.4292 29.4024C41.3175 30.9392 41.2059 32.4759 41.0942 34.0127C41.0464 34.6896 40.9457 35.3677 40.9731 36.0455C41.0083 36.8816 40.924 37.6729 40.6889 38.458C39.8584 41.2596 39.055 44.0672 38.211 46.8659C38.005 47.5507 37.6791 48.1862 37.4363 48.8572C37.2202 49.4457 36.9551 50.0307 36.8747 50.6491C36.7165 51.8283 37.1164 52.4801 37.9947 52.9356C38.56 53.2296 39.1219 53.5327 39.6937 53.8039C40.5581 54.2122 41.4398 54.5745 42.2934 55.006C43.3105 55.522 44.3138 56.0747 45.3054 56.642C46.5973 57.3765 47.9906 57.8174 49.3897 58.1029C51.2354 58.4784 53.1167 58.6468 54.9826 58.8787C56.3832 59.0536 57.7184 59.4874 58.9537 60.1881C59.766 60.6461 60.6024 61.0396 61.4736 61.1776C62.7 61.3753 63.9696 61.48 65.1302 60.9288C66.093 60.4692 67.1041 60.2167 68.1791 60.1519C68.5255 60.1286 68.8811 60.0248 69.198 59.8897C71.0151 59.1145 72.9014 58.5353 74.8254 58.0627C76.3493 57.6898 77.7196 57.0325 78.8061 56.1973C79.62 56.0849 80.2822 56.0416 80.9154 55.8908L80.9198 55.8904ZM39.0484 49.4871C39.5387 47.6894 40.0107 45.8848 40.4876 44.0841C40.5445 43.8703 40.6281 43.6582 40.6443 43.4354C40.7649 41.858 41.2405 40.3801 41.6749 38.8888C41.9502 37.9404 42.1018 36.9917 42.0258 35.9786C41.9873 35.4876 42.0457 34.9952 42.0823 34.5052C42.2043 32.8568 42.335 31.2075 42.4613 29.5587C42.4776 29.336 42.5069 29.1119 42.5275 28.8887C42.6274 27.8262 43.2137 26.9377 43.2451 25.8117C43.2718 24.8099 43.7397 23.8455 44.0249 22.8651C44.0476 22.7875 44.1207 22.7268 44.2204 22.5837C44.7643 22.5484 45.2901 22.8023 45.7694 23.1186C47.6738 24.3852 49.7445 25.2188 51.8791 25.9042C52.8163 26.2075 53.7492 26.5113 54.686 26.8103C55.0699 26.9334 55.4488 27.0923 55.8433 27.1479C57.7002 27.4206 59.453 28.1285 61.2369 28.7139C62.0831 28.9915 62.9142 29.2928 63.706 29.7662C64.3141 30.1308 65.0364 30.28 65.7112 30.5227C66.216 30.7037 66.7289 30.8352 67.1389 31.2472C67.3217 31.4313 67.5994 31.5523 67.8488 31.6144C68.6886 31.8308 69.3758 32.3594 70.1136 32.7811C70.7764 33.162 70.8927 33.552 70.6547 34.2268C70.2921 35.2685 69.9479 36.317 69.5993 37.366C69.3977 37.9664 69.357 38.5851 69.517 39.2224C69.9048 40.7639 69.6019 42.1617 68.9031 43.4908C68.6605 43.954 68.4841 44.4588 68.3349 44.9696C67.869 46.5393 67.454 48.1302 66.9745 49.6969C66.4517 51.3964 66.1857 53.1439 65.9626 54.9223C65.7959 56.2306 65.3113 57.4973 64.873 58.7414C64.604 59.4991 64.0021 59.8632 63.1314 59.8136C62.3275 59.7702 61.6136 59.6997 60.9263 59.0871C60.0971 58.3435 59.0073 58.1005 57.9636 57.9189C56.92 57.7372 55.8547 57.6861 54.8015 57.5806C53.0875 57.4078 51.3663 57.333 49.6695 57.0302C48.3735 56.8001 47.1118 56.3099 45.8906 55.7006C44.4454 54.9779 43.1017 54.0455 41.5649 53.5004C40.6931 53.1902 39.8877 52.6298 39.1035 52.1025C38.8039 51.8999 38.6477 51.4655 38.4754 51.214C38.7248 50.4805 38.9205 49.9913 39.0571 49.4862L39.0484 49.4871ZM66.5104 57.0172C66.8835 55.8241 66.9504 54.575 67.0843 53.332C67.1262 52.9342 67.1948 52.538 67.3002 52.1556C67.9391 49.7985 68.5877 47.4492 69.245 45.099C69.377 44.6343 69.5444 44.1702 69.7505 43.7373C70.4122 42.3503 70.7175 40.8904 70.4146 39.3178C70.2887 38.668 70.3404 38.0702 70.5372 37.466C70.8904 36.3767 71.0505 35.215 71.6142 34.1963C71.7964 33.8721 71.7896 33.4308 71.8786 33.0192C72.6035 32.8587 73.3246 32.7031 74.0408 32.5435C75.0586 32.3124 76.0687 32.0511 77.0989 31.854C78.0383 31.6754 78.9934 31.5613 79.9436 31.4434C80.9899 31.3153 81.9619 30.9432 82.9543 30.6395C83.4508 30.4899 83.9383 30.297 84.4405 30.1601C85.239 29.9432 86.0213 29.7413 86.7204 29.2521C87.0865 28.9969 87.5416 28.7897 88.1199 28.8304C88.1529 29.017 88.2334 29.1941 88.2049 29.343C87.9977 30.4345 87.8094 31.5374 87.5383 32.6091C87.3108 33.5084 86.9782 34.3744 86.6917 35.2578C86.5284 35.7612 86.3516 36.2617 86.2067 36.772C84.9006 41.4273 83.5988 46.0821 82.297 50.7369C82.0824 51.5066 81.8392 52.2572 81.3236 52.8111C80.8282 52.8456 80.3998 52.8864 79.9681 52.8966C79.7566 52.9012 79.5141 52.9047 79.3235 52.8143C78.0025 52.1801 76.6509 52.3448 75.297 52.4037C74.9895 52.4185 74.6845 52.4993 74.385 52.4646C74.1034 52.4324 73.8277 52.2891 73.4433 52.1617C73.5296 52.3515 73.5496 52.4996 73.6246 52.5404C73.8591 52.6703 74.1464 52.7152 74.3536 52.8789C75.0905 53.4598 75.9054 53.4401 76.7292 53.3798C77.7806 53.2998 78.8212 53.243 79.7891 53.8791C79.8617 54.3577 79.5572 54.6108 79.2234 54.6283C78.5996 54.6588 78.1724 55.0044 77.7312 55.3427C76.9301 55.9532 76.057 56.4255 75.0755 56.6661C74.1927 56.8786 73.374 57.323 72.4245 57.3215C72.2169 57.3213 72.0144 57.4531 71.8103 57.5277C70.7572 57.9261 69.7161 58.3542 68.651 58.723C67.8712 58.9909 67.031 58.9381 66.027 59.0484C66.2216 58.2146 66.3244 57.5982 66.5095 57.0084L66.5104 57.0172ZM45.9453 21.0182C47.1049 20.8339 48.267 20.6318 49.419 20.4174C50.7924 20.1664 52.16 19.9028 53.5262 19.626C53.9933 19.5326 54.4638 19.4299 54.9103 19.2678C55.5566 19.0317 56.1443 18.7001 56.8992 18.7398C57.3035 18.7634 57.7259 18.4978 58.1068 18.2985C59.1189 17.763 60.2277 17.5576 61.3547 17.3989C62.3031 17.2635 63.2358 17.0634 64.1775 16.9066C64.4333 16.8619 64.6972 16.8518 64.9576 16.8508C65.3946 16.8489 65.8344 16.8733 66.2713 16.8714C66.9372 16.863 67.5864 16.905 68.2019 17.2556C68.4272 17.3821 68.7023 17.437 68.9616 17.4672C69.9 17.5715 70.7646 17.94 71.6297 18.3128C72.4528 18.6636 73.2733 19.0323 74.1023 19.3559C74.7285 19.5993 75.3819 19.7646 76.0042 20.0128C76.7509 20.3097 77.4882 20.643 78.2177 20.986C78.8683 21.2931 79.5194 21.6045 80.1401 21.9634C80.6434 22.2551 81.1782 22.5523 81.5799 22.9696C82.4932 23.9252 83.5798 24.5134 84.772 24.9313C85.3224 25.1252 85.8633 25.3555 86.4208 25.4911C87.2141 25.6859 87.7216 26.2689 88.2487 26.8277C88.4372 27.0244 88.3932 27.3605 88.1924 27.5497C88.1324 27.6091 88.0694 27.682 87.9931 27.7122C86.8008 28.2137 85.7374 28.9756 84.451 29.297C83.401 29.5581 82.358 29.8847 81.3463 30.2567C80.5216 30.5603 79.6638 30.7171 78.794 30.7602C77.9504 30.8006 77.154 30.9951 76.3519 31.177C75.1661 31.448 73.9821 31.7364 72.7906 31.9947C72.0176 32.1603 71.2352 32.2782 70.5291 31.6543C68.8193 30.9771 67.1179 30.2947 65.4051 29.6311C64.6961 29.3567 63.9428 29.2063 63.3248 28.7058C63.291 28.6784 63.2494 28.6607 63.2034 28.6434C61.0429 27.921 58.9303 27.0256 56.7074 26.5484C56.4046 26.4831 56.092 26.4498 55.7947 26.353C53.0289 25.4602 50.2799 24.517 47.6511 23.2074C46.663 22.7149 45.7059 22.1396 44.5991 21.5271C45.0831 21.1754 45.4929 21.0836 45.9269 21.0113L45.9453 21.0182Z" stroke="black" stroke-width="1.00952" stroke-linejoin="round" mask="url(#path-4-outside-1_100_19130)"/>
<path d="M36.2305 26.1955L49.18 32.0244L54.6576 41.7253L53.1249 46.6838L47.4017 54.1401L39.7168 62.4886L37.0418 63.1135L29.2652 60.8503L15.8168 56.7871L13.3718 49.8499L12.907 45.4448L17.9168 37.7211L22.5162 29.3555L26.7954 24.4499L36.2305 26.1955Z" fill="white"/>
<path fill-rule="evenodd" clip-rule="evenodd" d="M18.2325 37.3073C19.116 36.3918 19.1298 36.3652 19.3027 35.6421C18.6779 36.0185 18.5884 36.1538 18.2325 37.3073Z" fill="#D8F3FF"/>
<mask id="path-7-outside-2_100_19130" maskUnits="userSpaceOnUse" x="7.99501" y="20.259" width="50.1527" height="46.5945" fill="black">
<rect fill="white" x="7.99501" y="20.259" width="50.1527" height="46.5945"/>
<path fill-rule="evenodd" clip-rule="evenodd" d="M29.03 24.1904C28.4481 24.1469 27.8673 24.0739 27.2771 24.0691C26.7739 24.0634 26.3493 24.2509 26.2122 24.7226C26.1057 25.0905 25.8208 25.3429 25.4921 25.6125C24.9958 26.0257 24.5858 26.5094 24.1522 26.9663C24.0436 27.0785 24.0019 27.2339 23.8933 27.346C22.6962 28.5967 21.8617 29.9769 21.1788 31.4166C21.0398 31.7124 20.8332 31.9985 20.6122 32.2652C19.4438 33.6303 18.5222 35.091 17.6377 36.5478C17.1846 37.292 17.054 38.1407 16.8064 38.943C16.6856 39.3333 16.7575 39.7788 16.1139 39.9767C15.8925 40.319 15.6666 40.6574 15.4493 40.9992C15.1889 41.4043 14.9321 41.8048 14.6671 42.2061C14.5629 42.3597 14.3912 42.5037 14.3457 42.6637C14.1059 43.461 13.4434 44.1098 12.8458 44.7435C12.1248 45.5076 11.9375 46.2909 11.8969 47.1259C11.8748 47.5855 11.8157 48.049 11.8588 48.4976C11.8915 48.8465 12.0113 49.1947 12.1732 49.509C12.5413 50.2422 12.8897 50.9857 13.3606 51.6702C14.0722 52.7069 14.3275 53.8673 14.6636 55.0065C14.807 55.4991 14.9389 56.0012 15.1265 56.4806C15.3727 57.1217 15.9315 57.5368 16.7599 57.7515C17.1822 57.858 17.5917 57.9994 17.982 58.1554C18.9623 58.5512 20.0499 58.7427 21.1277 58.9605C21.7685 59.09 22.4089 59.2155 23.0533 59.3405C23.3715 59.4034 23.6371 59.4803 23.8225 59.7418C23.9581 59.9247 24.3467 60.0263 24.6557 60.0818C25.303 60.1939 25.9705 60.2619 26.6344 60.3345C27.3447 60.4148 28.0151 60.5497 28.6701 60.7742C29.5751 61.0857 30.5449 61.3023 31.4544 61.6174C32.666 62.0392 33.8792 62.4776 35.0228 63.003C35.5946 63.2657 36.1914 63.3328 36.8137 63.4056C37.0157 63.4305 37.2327 63.3614 37.4476 63.3513C39.0312 63.285 39.0511 63.4339 40.2474 61.94C40.6584 61.4267 41.0921 60.9321 41.6933 60.5288C42.0849 60.2652 42.4303 59.956 42.7369 59.6342C43.7919 58.5328 45.0407 57.5368 45.8641 56.2878C46.193 55.7832 46.7777 55.3817 47.2013 54.9091C47.6951 54.3535 48.2513 53.7998 48.5766 53.1823C49.1121 52.1567 49.9371 51.2767 50.6647 50.3399C50.7308 50.2574 50.8459 50.1278 50.9257 50.1362C51.5778 50.1765 51.6613 49.7481 51.8813 49.4312C52.238 48.9153 52.6125 48.4101 52.9564 47.8914C53.3041 47.368 53.6221 46.8394 53.4935 46.2111C53.4613 46.0635 53.5752 45.8836 53.6589 45.7322C53.8589 45.3838 54.0457 45.0285 54.3026 44.7077C54.6911 44.2178 54.8039 43.6731 54.9664 43.1273C55.1346 42.5558 55.1633 42.0409 54.6272 41.5647C54.4163 41.3772 54.3498 41.0612 54.2798 40.7916C54.147 40.2812 54.0631 39.7615 53.9546 39.2443C53.8304 38.6575 53.5873 38.1251 53.2563 37.5853C52.1992 35.8718 50.9232 34.2486 50.2002 32.395C49.8872 31.5931 49.2306 31.117 48.1562 31.05C47.2742 30.9962 46.4941 30.6883 45.857 30.2395C44.6993 29.4219 43.368 28.8491 42.0216 28.2905C41.1314 27.9229 40.2784 27.5137 39.4709 27.0241C38.5169 26.4451 37.4433 25.992 36.2488 25.7321C34.9609 25.4526 33.7164 25.0721 32.4667 24.7214C31.3628 24.4142 30.2199 24.2495 29.0387 24.1937L29.03 24.1904ZM48.3815 32.5953C47.7478 33.6354 47.2287 34.6593 46.5303 35.5973C44.8485 37.843 43.6418 40.2232 42.8909 42.7106C42.2984 44.6526 41.0316 46.305 39.7047 47.9386C39.1529 48.6135 38.6649 49.3027 38.3195 50.0439C38.0791 50.5601 37.898 51.0869 37.6489 51.5998C37.3994 52.1086 37.1685 52.6364 36.7974 53.0951C36.3158 53.6871 35.6598 54.1213 34.6588 53.9626C33.9959 53.8606 33.3256 53.8054 32.7191 53.5673C32.0861 53.3153 31.3529 53.2542 30.6982 53.0715C29.8212 52.8284 28.6152 53.0102 28.1684 52.1218C28.1318 52.0501 27.9631 52.026 27.847 51.9879C26.4367 51.5325 25.0545 51.0281 23.6074 50.6563C21.6831 50.1713 19.8245 49.5996 18.0453 48.9147C17.2493 48.6127 16.5221 48.2153 15.7774 47.8492C15.6463 47.7875 15.4981 47.6815 15.4785 47.5745C15.4221 47.2364 15.1093 47.1058 14.7997 46.9664C14.5639 46.8571 14.4893 46.7013 14.5774 46.4739C14.594 46.4343 14.5341 46.3777 14.5087 46.3343C14.3164 46.4007 14.1323 46.4663 13.876 46.5563C13.9102 46.2506 13.9362 46.0255 13.9651 45.7875C13.6866 45.7456 13.4418 45.7084 13.2686 45.6806C13.8323 44.8827 14.4651 44.1489 14.8595 43.3605C15.1752 42.7315 15.6761 42.2045 16.0756 41.6212C16.1798 41.4675 16.4748 41.3903 16.6399 41.3015C17.1038 40.3841 16.9166 39.397 17.8424 38.4099C17.5689 39.5967 17.2725 40.6055 17.4072 41.6066C17.4173 41.702 17.3912 41.8096 17.3643 41.9089C17.0281 43.2492 16.6952 44.5807 16.3498 45.9135C16.309 46.0772 16.2011 46.2354 16.1438 46.4009C16.0897 46.5576 16.0607 46.7159 16.013 46.893C16.1864 46.9628 16.3178 47.0664 16.4633 47.0678C17.1539 47.0789 17.7492 47.2888 18.3207 47.5096C18.8876 47.7266 19.4845 47.7937 20.1203 47.798C20.2034 47.7976 20.2936 47.7084 20.4157 47.6451C19.2147 47.1258 17.886 46.8926 16.774 46.3512C16.7964 46.1307 16.7953 45.963 16.8366 45.8034C17.1778 44.471 17.5231 43.1382 17.8634 41.7976C17.9308 41.5303 17.9771 41.2611 18.0362 40.9948C18.2702 39.9842 18.4918 38.9749 18.7545 37.9613C18.8222 37.6982 19.0496 37.4519 19.1798 37.1906C19.4274 36.703 19.7252 36.2185 19.8715 35.7164C20.0401 35.149 20.3255 34.6658 20.8534 34.2367C21.0218 34.1015 21.2716 33.9493 21.146 33.6646C20.9301 33.7042 20.7023 33.7492 20.3927 33.807C20.6763 33.4247 20.9241 33.0965 21.1674 32.7646C21.418 32.4235 21.7369 32.1004 21.8945 31.7439C22.5947 30.1933 23.6807 28.7949 24.7904 27.3856C25.4565 26.535 26.416 25.9849 27.1372 25.2627C27.6163 25.4345 28.0176 25.5768 28.5568 25.7674C28.4706 25.4619 28.4198 25.2952 28.3546 25.0714C29.7178 25.0408 31.0071 25.0978 32.1819 25.5654C32.477 25.6853 32.7599 25.7687 33.1345 25.7376C33.4558 25.7121 33.7975 25.8019 34.0949 25.9048C36.2634 26.6577 38.4796 27.3511 40.4586 28.4344C41.1116 28.7977 41.8311 29.0826 42.5212 29.4041C42.7747 29.5242 43.0242 29.6447 43.2667 29.7786C44.0649 30.2188 44.8635 30.6632 45.658 31.1079C45.9005 31.2418 46.1627 31.3652 46.3553 31.5378C46.7361 31.8794 47.1807 32.1178 47.705 32.2848C47.9287 32.3577 48.1325 32.4789 48.3815 32.5953ZM36.8164 61.9747C36.8621 61.6594 36.9602 61.3302 36.9393 61.0136C36.914 60.6555 36.7572 60.3112 36.6904 59.9533C36.6124 59.5294 36.5637 59.1066 36.5186 58.6792C36.4599 58.1232 36.4501 57.5579 36.3668 57.0045C36.2641 56.3063 36.2991 55.6146 36.4582 54.9181C36.501 54.7332 36.6333 54.5305 36.7972 54.3915C37.7505 53.5861 38.2156 52.6015 38.6497 51.5991C39.0535 50.6629 39.3967 49.7037 40.0401 48.8345C40.6101 48.057 41.1887 47.2827 41.8284 46.5356C42.8038 45.388 43.3731 44.1323 43.7814 42.8054C44.0369 41.9604 44.3344 41.1193 44.7217 40.3023C45.33 39.0215 46.0362 37.7639 46.885 36.5583C47.3615 35.8788 47.7816 35.1758 48.223 34.4789C48.3834 34.2271 48.5259 33.9645 48.7031 33.715C48.9129 33.4202 49.3066 33.4122 49.5357 33.6943C49.631 33.8101 49.7144 33.9314 49.7777 34.059C49.9563 34.4135 50.123 34.7735 50.2934 35.1289C50.6667 35.9118 51.0863 36.6605 51.8898 37.2302C52.1995 37.4492 52.4284 37.7691 52.6104 38.0772C53.4132 39.4273 53.8885 40.8623 54.1626 42.3185C52.9354 42.9682 51.6458 43.0665 50.2526 42.8905C49.6424 42.3423 48.8484 42.0989 47.8789 42.2389C47.8735 42.6212 47.9047 42.6809 48.123 42.7418C48.7945 42.9268 49.5707 42.8827 50.1288 43.3315C50.242 43.4202 50.5455 43.384 50.7509 43.3623C51.5642 43.2765 52.246 43.5192 52.8731 43.7551C53.0812 44.3499 52.6 44.7489 52.4397 45.1979C52.6723 45.316 52.8393 45.4033 53.0455 45.5074C52.7814 46.3114 52.5602 47.1277 52.0042 47.8408C51.4555 48.5448 50.8276 49.2068 50.2261 49.8828C49.2496 50.9801 48.2417 52.0555 47.558 53.2898C47.3869 53.5973 47.1319 53.8969 46.838 54.1419C45.8801 54.9436 45.1202 55.8502 44.3649 56.7606C43.4913 57.8093 42.3928 58.7349 41.5715 59.8075C41.4839 59.9216 41.3525 60.0152 41.2253 60.1083C40.527 60.6141 39.9314 61.1888 39.3895 61.7997C38.4465 62.86 38.0286 62.8747 36.7909 61.969L36.8164 61.9747ZM35.5965 62.1034C34.9778 62.3407 34.4791 62.2591 34.0146 61.9892C32.9713 61.3903 31.8062 60.9762 30.5756 60.6487C29.9477 60.4842 29.3572 60.2403 28.7293 60.0758C28.0632 59.9027 27.383 59.7144 26.6802 59.6668C25.313 59.5803 24.0718 59.2708 22.8722 58.8435C22.3889 58.6722 21.902 58.5054 21.3912 58.3873C19.9694 58.059 18.6128 57.6399 17.3339 57.091C16.6514 56.8022 15.9298 56.5763 15.882 55.8471C15.8759 55.789 15.8306 55.7141 15.7655 55.6874C15.2413 55.4826 15.2942 55.0785 15.2909 54.6928C15.287 53.5143 15.1169 52.3744 14.5437 51.3105C14.0595 50.4218 13.6393 49.5096 13.7062 48.4117C13.9439 48.4202 14.2059 48.3842 14.404 48.4514C15.1132 48.6786 15.8046 48.9329 16.4959 49.1872C18.645 49.9926 20.8022 50.797 23.2048 51.2106C23.4418 51.2527 23.8056 51.3151 23.852 51.4402C24.0304 51.95 24.6595 51.9298 25.0976 52.1059C25.787 52.3814 26.5636 52.5386 27.2534 52.8182C28.3294 53.2543 29.5257 53.4134 30.6896 53.6598C31.17 53.7643 31.6756 53.8327 32.1242 53.9909C32.9303 54.2709 33.7611 54.4685 34.6479 54.5679C34.9634 54.606 35.2612 54.713 35.6408 54.8072C35.3403 55.8961 35.4394 56.9135 35.6575 57.9184C35.7027 58.1108 35.6786 58.3147 35.6992 58.5097C35.7584 59.0321 35.8058 59.5599 35.8975 60.0747C35.9634 60.4243 36.1818 60.7621 35.6823 61.0665C35.5886 61.1225 35.621 61.3121 35.6136 61.4387C35.5999 61.6626 35.5988 61.8892 35.592 62.0997L35.5965 62.1034ZM18.2369 37.3069C18.5887 36.1538 18.6824 36.018 19.3071 35.6417C19.1383 36.3643 19.1204 36.3914 18.2369 37.3069Z"/>
</mask>
<path fill-rule="evenodd" clip-rule="evenodd" d="M29.03 24.1904C28.4481 24.1469 27.8673 24.0739 27.2771 24.0691C26.7739 24.0634 26.3493 24.2509 26.2122 24.7226C26.1057 25.0905 25.8208 25.3429 25.4921 25.6125C24.9958 26.0257 24.5858 26.5094 24.1522 26.9663C24.0436 27.0785 24.0019 27.2339 23.8933 27.346C22.6962 28.5967 21.8617 29.9769 21.1788 31.4166C21.0398 31.7124 20.8332 31.9985 20.6122 32.2652C19.4438 33.6303 18.5222 35.091 17.6377 36.5478C17.1846 37.292 17.054 38.1407 16.8064 38.943C16.6856 39.3333 16.7575 39.7788 16.1139 39.9767C15.8925 40.319 15.6666 40.6574 15.4493 40.9992C15.1889 41.4043 14.9321 41.8048 14.6671 42.2061C14.5629 42.3597 14.3912 42.5037 14.3457 42.6637C14.1059 43.461 13.4434 44.1098 12.8458 44.7435C12.1248 45.5076 11.9375 46.2909 11.8969 47.1259C11.8748 47.5855 11.8157 48.049 11.8588 48.4976C11.8915 48.8465 12.0113 49.1947 12.1732 49.509C12.5413 50.2422 12.8897 50.9857 13.3606 51.6702C14.0722 52.7069 14.3275 53.8673 14.6636 55.0065C14.807 55.4991 14.9389 56.0012 15.1265 56.4806C15.3727 57.1217 15.9315 57.5368 16.7599 57.7515C17.1822 57.858 17.5917 57.9994 17.982 58.1554C18.9623 58.5512 20.0499 58.7427 21.1277 58.9605C21.7685 59.09 22.4089 59.2155 23.0533 59.3405C23.3715 59.4034 23.6371 59.4803 23.8225 59.7418C23.9581 59.9247 24.3467 60.0263 24.6557 60.0818C25.303 60.1939 25.9705 60.2619 26.6344 60.3345C27.3447 60.4148 28.0151 60.5497 28.6701 60.7742C29.5751 61.0857 30.5449 61.3023 31.4544 61.6174C32.666 62.0392 33.8792 62.4776 35.0228 63.003C35.5946 63.2657 36.1914 63.3328 36.8137 63.4056C37.0157 63.4305 37.2327 63.3614 37.4476 63.3513C39.0312 63.285 39.0511 63.4339 40.2474 61.94C40.6584 61.4267 41.0921 60.9321 41.6933 60.5288C42.0849 60.2652 42.4303 59.956 42.7369 59.6342C43.7919 58.5328 45.0407 57.5368 45.8641 56.2878C46.193 55.7832 46.7777 55.3817 47.2013 54.9091C47.6951 54.3535 48.2513 53.7998 48.5766 53.1823C49.1121 52.1567 49.9371 51.2767 50.6647 50.3399C50.7308 50.2574 50.8459 50.1278 50.9257 50.1362C51.5778 50.1765 51.6613 49.7481 51.8813 49.4312C52.238 48.9153 52.6125 48.4101 52.9564 47.8914C53.3041 47.368 53.6221 46.8394 53.4935 46.2111C53.4613 46.0635 53.5752 45.8836 53.6589 45.7322C53.8589 45.3838 54.0457 45.0285 54.3026 44.7077C54.6911 44.2178 54.8039 43.6731 54.9664 43.1273C55.1346 42.5558 55.1633 42.0409 54.6272 41.5647C54.4163 41.3772 54.3498 41.0612 54.2798 40.7916C54.147 40.2812 54.0631 39.7615 53.9546 39.2443C53.8304 38.6575 53.5873 38.1251 53.2563 37.5853C52.1992 35.8718 50.9232 34.2486 50.2002 32.395C49.8872 31.5931 49.2306 31.117 48.1562 31.05C47.2742 30.9962 46.4941 30.6883 45.857 30.2395C44.6993 29.4219 43.368 28.8491 42.0216 28.2905C41.1314 27.9229 40.2784 27.5137 39.4709 27.0241C38.5169 26.4451 37.4433 25.992 36.2488 25.7321C34.9609 25.4526 33.7164 25.0721 32.4667 24.7214C31.3628 24.4142 30.2199 24.2495 29.0387 24.1937L29.03 24.1904ZM48.3815 32.5953C47.7478 33.6354 47.2287 34.6593 46.5303 35.5973C44.8485 37.843 43.6418 40.2232 42.8909 42.7106C42.2984 44.6526 41.0316 46.305 39.7047 47.9386C39.1529 48.6135 38.6649 49.3027 38.3195 50.0439C38.0791 50.5601 37.898 51.0869 37.6489 51.5998C37.3994 52.1086 37.1685 52.6364 36.7974 53.0951C36.3158 53.6871 35.6598 54.1213 34.6588 53.9626C33.9959 53.8606 33.3256 53.8054 32.7191 53.5673C32.0861 53.3153 31.3529 53.2542 30.6982 53.0715C29.8212 52.8284 28.6152 53.0102 28.1684 52.1218C28.1318 52.0501 27.9631 52.026 27.847 51.9879C26.4367 51.5325 25.0545 51.0281 23.6074 50.6563C21.6831 50.1713 19.8245 49.5996 18.0453 48.9147C17.2493 48.6127 16.5221 48.2153 15.7774 47.8492C15.6463 47.7875 15.4981 47.6815 15.4785 47.5745C15.4221 47.2364 15.1093 47.1058 14.7997 46.9664C14.5639 46.8571 14.4893 46.7013 14.5774 46.4739C14.594 46.4343 14.5341 46.3777 14.5087 46.3343C14.3164 46.4007 14.1323 46.4663 13.876 46.5563C13.9102 46.2506 13.9362 46.0255 13.9651 45.7875C13.6866 45.7456 13.4418 45.7084 13.2686 45.6806C13.8323 44.8827 14.4651 44.1489 14.8595 43.3605C15.1752 42.7315 15.6761 42.2045 16.0756 41.6212C16.1798 41.4675 16.4748 41.3903 16.6399 41.3015C17.1038 40.3841 16.9166 39.397 17.8424 38.4099C17.5689 39.5967 17.2725 40.6055 17.4072 41.6066C17.4173 41.702 17.3912 41.8096 17.3643 41.9089C17.0281 43.2492 16.6952 44.5807 16.3498 45.9135C16.309 46.0772 16.2011 46.2354 16.1438 46.4009C16.0897 46.5576 16.0607 46.7159 16.013 46.893C16.1864 46.9628 16.3178 47.0664 16.4633 47.0678C17.1539 47.0789 17.7492 47.2888 18.3207 47.5096C18.8876 47.7266 19.4845 47.7937 20.1203 47.798C20.2034 47.7976 20.2936 47.7084 20.4157 47.6451C19.2147 47.1258 17.886 46.8926 16.774 46.3512C16.7964 46.1307 16.7953 45.963 16.8366 45.8034C17.1778 44.471 17.5231 43.1382 17.8634 41.7976C17.9308 41.5303 17.9771 41.2611 18.0362 40.9948C18.2702 39.9842 18.4918 38.9749 18.7545 37.9613C18.8222 37.6982 19.0496 37.4519 19.1798 37.1906C19.4274 36.703 19.7252 36.2185 19.8715 35.7164C20.0401 35.149 20.3255 34.6658 20.8534 34.2367C21.0218 34.1015 21.2716 33.9493 21.146 33.6646C20.9301 33.7042 20.7023 33.7492 20.3927 33.807C20.6763 33.4247 20.9241 33.0965 21.1674 32.7646C21.418 32.4235 21.7369 32.1004 21.8945 31.7439C22.5947 30.1933 23.6807 28.7949 24.7904 27.3856C25.4565 26.535 26.416 25.9849 27.1372 25.2627C27.6163 25.4345 28.0176 25.5768 28.5568 25.7674C28.4706 25.4619 28.4198 25.2952 28.3546 25.0714C29.7178 25.0408 31.0071 25.0978 32.1819 25.5654C32.477 25.6853 32.7599 25.7687 33.1345 25.7376C33.4558 25.7121 33.7975 25.8019 34.0949 25.9048C36.2634 26.6577 38.4796 27.3511 40.4586 28.4344C41.1116 28.7977 41.8311 29.0826 42.5212 29.4041C42.7747 29.5242 43.0242 29.6447 43.2667 29.7786C44.0649 30.2188 44.8635 30.6632 45.658 31.1079C45.9005 31.2418 46.1627 31.3652 46.3553 31.5378C46.7361 31.8794 47.1807 32.1178 47.705 32.2848C47.9287 32.3577 48.1325 32.4789 48.3815 32.5953ZM36.8164 61.9747C36.8621 61.6594 36.9602 61.3302 36.9393 61.0136C36.914 60.6555 36.7572 60.3112 36.6904 59.9533C36.6124 59.5294 36.5637 59.1066 36.5186 58.6792C36.4599 58.1232 36.4501 57.5579 36.3668 57.0045C36.2641 56.3063 36.2991 55.6146 36.4582 54.9181C36.501 54.7332 36.6333 54.5305 36.7972 54.3915C37.7505 53.5861 38.2156 52.6015 38.6497 51.5991C39.0535 50.6629 39.3967 49.7037 40.0401 48.8345C40.6101 48.057 41.1887 47.2827 41.8284 46.5356C42.8038 45.388 43.3731 44.1323 43.7814 42.8054C44.0369 41.9604 44.3344 41.1193 44.7217 40.3023C45.33 39.0215 46.0362 37.7639 46.885 36.5583C47.3615 35.8788 47.7816 35.1758 48.223 34.4789C48.3834 34.2271 48.5259 33.9645 48.7031 33.715C48.9129 33.4202 49.3066 33.4122 49.5357 33.6943C49.631 33.8101 49.7144 33.9314 49.7777 34.059C49.9563 34.4135 50.123 34.7735 50.2934 35.1289C50.6667 35.9118 51.0863 36.6605 51.8898 37.2302C52.1995 37.4492 52.4284 37.7691 52.6104 38.0772C53.4132 39.4273 53.8885 40.8623 54.1626 42.3185C52.9354 42.9682 51.6458 43.0665 50.2526 42.8905C49.6424 42.3423 48.8484 42.0989 47.8789 42.2389C47.8735 42.6212 47.9047 42.6809 48.123 42.7418C48.7945 42.9268 49.5707 42.8827 50.1288 43.3315C50.242 43.4202 50.5455 43.384 50.7509 43.3623C51.5642 43.2765 52.246 43.5192 52.8731 43.7551C53.0812 44.3499 52.6 44.7489 52.4397 45.1979C52.6723 45.316 52.8393 45.4033 53.0455 45.5074C52.7814 46.3114 52.5602 47.1277 52.0042 47.8408C51.4555 48.5448 50.8276 49.2068 50.2261 49.8828C49.2496 50.9801 48.2417 52.0555 47.558 53.2898C47.3869 53.5973 47.1319 53.8969 46.838 54.1419C45.8801 54.9436 45.1202 55.8502 44.3649 56.7606C43.4913 57.8093 42.3928 58.7349 41.5715 59.8075C41.4839 59.9216 41.3525 60.0152 41.2253 60.1083C40.527 60.6141 39.9314 61.1888 39.3895 61.7997C38.4465 62.86 38.0286 62.8747 36.7909 61.969L36.8164 61.9747ZM35.5965 62.1034C34.9778 62.3407 34.4791 62.2591 34.0146 61.9892C32.9713 61.3903 31.8062 60.9762 30.5756 60.6487C29.9477 60.4842 29.3572 60.2403 28.7293 60.0758C28.0632 59.9027 27.383 59.7144 26.6802 59.6668C25.313 59.5803 24.0718 59.2708 22.8722 58.8435C22.3889 58.6722 21.902 58.5054 21.3912 58.3873C19.9694 58.059 18.6128 57.6399 17.3339 57.091C16.6514 56.8022 15.9298 56.5763 15.882 55.8471C15.8759 55.789 15.8306 55.7141 15.7655 55.6874C15.2413 55.4826 15.2942 55.0785 15.2909 54.6928C15.287 53.5143 15.1169 52.3744 14.5437 51.3105C14.0595 50.4218 13.6393 49.5096 13.7062 48.4117C13.9439 48.4202 14.2059 48.3842 14.404 48.4514C15.1132 48.6786 15.8046 48.9329 16.4959 49.1872C18.645 49.9926 20.8022 50.797 23.2048 51.2106C23.4418 51.2527 23.8056 51.3151 23.852 51.4402C24.0304 51.95 24.6595 51.9298 25.0976 52.1059C25.787 52.3814 26.5636 52.5386 27.2534 52.8182C28.3294 53.2543 29.5257 53.4134 30.6896 53.6598C31.17 53.7643 31.6756 53.8327 32.1242 53.9909C32.9303 54.2709 33.7611 54.4685 34.6479 54.5679C34.9634 54.606 35.2612 54.713 35.6408 54.8072C35.3403 55.8961 35.4394 56.9135 35.6575 57.9184C35.7027 58.1108 35.6786 58.3147 35.6992 58.5097C35.7584 59.0321 35.8058 59.5599 35.8975 60.0747C35.9634 60.4243 36.1818 60.7621 35.6823 61.0665C35.5886 61.1225 35.621 61.3121 35.6136 61.4387C35.5999 61.6626 35.5988 61.8892 35.592 62.0997L35.5965 62.1034ZM18.2369 37.3069C18.5887 36.1538 18.6824 36.018 19.3071 35.6417C19.1383 36.3643 19.1204 36.3914 18.2369 37.3069Z" fill="black"/>
<path fill-rule="evenodd" clip-rule="evenodd" d="M29.03 24.1904C28.4481 24.1469 27.8673 24.0739 27.2771 24.0691C26.7739 24.0634 26.3493 24.2509 26.2122 24.7226C26.1057 25.0905 25.8208 25.3429 25.4921 25.6125C24.9958 26.0257 24.5858 26.5094 24.1522 26.9663C24.0436 27.0785 24.0019 27.2339 23.8933 27.346C22.6962 28.5967 21.8617 29.9769 21.1788 31.4166C21.0398 31.7124 20.8332 31.9985 20.6122 32.2652C19.4438 33.6303 18.5222 35.091 17.6377 36.5478C17.1846 37.292 17.054 38.1407 16.8064 38.943C16.6856 39.3333 16.7575 39.7788 16.1139 39.9767C15.8925 40.319 15.6666 40.6574 15.4493 40.9992C15.1889 41.4043 14.9321 41.8048 14.6671 42.2061C14.5629 42.3597 14.3912 42.5037 14.3457 42.6637C14.1059 43.461 13.4434 44.1098 12.8458 44.7435C12.1248 45.5076 11.9375 46.2909 11.8969 47.1259C11.8748 47.5855 11.8157 48.049 11.8588 48.4976C11.8915 48.8465 12.0113 49.1947 12.1732 49.509C12.5413 50.2422 12.8897 50.9857 13.3606 51.6702C14.0722 52.7069 14.3275 53.8673 14.6636 55.0065C14.807 55.4991 14.9389 56.0012 15.1265 56.4806C15.3727 57.1217 15.9315 57.5368 16.7599 57.7515C17.1822 57.858 17.5917 57.9994 17.982 58.1554C18.9623 58.5512 20.0499 58.7427 21.1277 58.9605C21.7685 59.09 22.4089 59.2155 23.0533 59.3405C23.3715 59.4034 23.6371 59.4803 23.8225 59.7418C23.9581 59.9247 24.3467 60.0263 24.6557 60.0818C25.303 60.1939 25.9705 60.2619 26.6344 60.3345C27.3447 60.4148 28.0151 60.5497 28.6701 60.7742C29.5751 61.0857 30.5449 61.3023 31.4544 61.6174C32.666 62.0392 33.8792 62.4776 35.0228 63.003C35.5946 63.2657 36.1914 63.3328 36.8137 63.4056C37.0157 63.4305 37.2327 63.3614 37.4476 63.3513C39.0312 63.285 39.0511 63.4339 40.2474 61.94C40.6584 61.4267 41.0921 60.9321 41.6933 60.5288C42.0849 60.2652 42.4303 59.956 42.7369 59.6342C43.7919 58.5328 45.0407 57.5368 45.8641 56.2878C46.193 55.7832 46.7777 55.3817 47.2013 54.9091C47.6951 54.3535 48.2513 53.7998 48.5766 53.1823C49.1121 52.1567 49.9371 51.2767 50.6647 50.3399C50.7308 50.2574 50.8459 50.1278 50.9257 50.1362C51.5778 50.1765 51.6613 49.7481 51.8813 49.4312C52.238 48.9153 52.6125 48.4101 52.9564 47.8914C53.3041 47.368 53.6221 46.8394 53.4935 46.2111C53.4613 46.0635 53.5752 45.8836 53.6589 45.7322C53.8589 45.3838 54.0457 45.0285 54.3026 44.7077C54.6911 44.2178 54.8039 43.6731 54.9664 43.1273C55.1346 42.5558 55.1633 42.0409 54.6272 41.5647C54.4163 41.3772 54.3498 41.0612 54.2798 40.7916C54.147 40.2812 54.0631 39.7615 53.9546 39.2443C53.8304 38.6575 53.5873 38.1251 53.2563 37.5853C52.1992 35.8718 50.9232 34.2486 50.2002 32.395C49.8872 31.5931 49.2306 31.117 48.1562 31.05C47.2742 30.9962 46.4941 30.6883 45.857 30.2395C44.6993 29.4219 43.368 28.8491 42.0216 28.2905C41.1314 27.9229 40.2784 27.5137 39.4709 27.0241C38.5169 26.4451 37.4433 25.992 36.2488 25.7321C34.9609 25.4526 33.7164 25.0721 32.4667 24.7214C31.3628 24.4142 30.2199 24.2495 29.0387 24.1937L29.03 24.1904ZM48.3815 32.5953C47.7478 33.6354 47.2287 34.6593 46.5303 35.5973C44.8485 37.843 43.6418 40.2232 42.8909 42.7106C42.2984 44.6526 41.0316 46.305 39.7047 47.9386C39.1529 48.6135 38.6649 49.3027 38.3195 50.0439C38.0791 50.5601 37.898 51.0869 37.6489 51.5998C37.3994 52.1086 37.1685 52.6364 36.7974 53.0951C36.3158 53.6871 35.6598 54.1213 34.6588 53.9626C33.9959 53.8606 33.3256 53.8054 32.7191 53.5673C32.0861 53.3153 31.3529 53.2542 30.6982 53.0715C29.8212 52.8284 28.6152 53.0102 28.1684 52.1218C28.1318 52.0501 27.9631 52.026 27.847 51.9879C26.4367 51.5325 25.0545 51.0281 23.6074 50.6563C21.6831 50.1713 19.8245 49.5996 18.0453 48.9147C17.2493 48.6127 16.5221 48.2153 15.7774 47.8492C15.6463 47.7875 15.4981 47.6815 15.4785 47.5745C15.4221 47.2364 15.1093 47.1058 14.7997 46.9664C14.5639 46.8571 14.4893 46.7013 14.5774 46.4739C14.594 46.4343 14.5341 46.3777 14.5087 46.3343C14.3164 46.4007 14.1323 46.4663 13.876 46.5563C13.9102 46.2506 13.9362 46.0255 13.9651 45.7875C13.6866 45.7456 13.4418 45.7084 13.2686 45.6806C13.8323 44.8827 14.4651 44.1489 14.8595 43.3605C15.1752 42.7315 15.6761 42.2045 16.0756 41.6212C16.1798 41.4675 16.4748 41.3903 16.6399 41.3015C17.1038 40.3841 16.9166 39.397 17.8424 38.4099C17.5689 39.5967 17.2725 40.6055 17.4072 41.6066C17.4173 41.702 17.3912 41.8096 17.3643 41.9089C17.0281 43.2492 16.6952 44.5807 16.3498 45.9135C16.309 46.0772 16.2011 46.2354 16.1438 46.4009C16.0897 46.5576 16.0607 46.7159 16.013 46.893C16.1864 46.9628 16.3178 47.0664 16.4633 47.0678C17.1539 47.0789 17.7492 47.2888 18.3207 47.5096C18.8876 47.7266 19.4845 47.7937 20.1203 47.798C20.2034 47.7976 20.2936 47.7084 20.4157 47.6451C19.2147 47.1258 17.886 46.8926 16.774 46.3512C16.7964 46.1307 16.7953 45.963 16.8366 45.8034C17.1778 44.471 17.5231 43.1382 17.8634 41.7976C17.9308 41.5303 17.9771 41.2611 18.0362 40.9948C18.2702 39.9842 18.4918 38.9749 18.7545 37.9613C18.8222 37.6982 19.0496 37.4519 19.1798 37.1906C19.4274 36.703 19.7252 36.2185 19.8715 35.7164C20.0401 35.149 20.3255 34.6658 20.8534 34.2367C21.0218 34.1015 21.2716 33.9493 21.146 33.6646C20.9301 33.7042 20.7023 33.7492 20.3927 33.807C20.6763 33.4247 20.9241 33.0965 21.1674 32.7646C21.418 32.4235 21.7369 32.1004 21.8945 31.7439C22.5947 30.1933 23.6807 28.7949 24.7904 27.3856C25.4565 26.535 26.416 25.9849 27.1372 25.2627C27.6163 25.4345 28.0176 25.5768 28.5568 25.7674C28.4706 25.4619 28.4198 25.2952 28.3546 25.0714C29.7178 25.0408 31.0071 25.0978 32.1819 25.5654C32.477 25.6853 32.7599 25.7687 33.1345 25.7376C33.4558 25.7121 33.7975 25.8019 34.0949 25.9048C36.2634 26.6577 38.4796 27.3511 40.4586 28.4344C41.1116 28.7977 41.8311 29.0826 42.5212 29.4041C42.7747 29.5242 43.0242 29.6447 43.2667 29.7786C44.0649 30.2188 44.8635 30.6632 45.658 31.1079C45.9005 31.2418 46.1627 31.3652 46.3553 31.5378C46.7361 31.8794 47.1807 32.1178 47.705 32.2848C47.9287 32.3577 48.1325 32.4789 48.3815 32.5953ZM36.8164 61.9747C36.8621 61.6594 36.9602 61.3302 36.9393 61.0136C36.914 60.6555 36.7572 60.3112 36.6904 59.9533C36.6124 59.5294 36.5637 59.1066 36.5186 58.6792C36.4599 58.1232 36.4501 57.5579 36.3668 57.0045C36.2641 56.3063 36.2991 55.6146 36.4582 54.9181C36.501 54.7332 36.6333 54.5305 36.7972 54.3915C37.7505 53.5861 38.2156 52.6015 38.6497 51.5991C39.0535 50.6629 39.3967 49.7037 40.0401 48.8345C40.6101 48.057 41.1887 47.2827 41.8284 46.5356C42.8038 45.388 43.3731 44.1323 43.7814 42.8054C44.0369 41.9604 44.3344 41.1193 44.7217 40.3023C45.33 39.0215 46.0362 37.7639 46.885 36.5583C47.3615 35.8788 47.7816 35.1758 48.223 34.4789C48.3834 34.2271 48.5259 33.9645 48.7031 33.715C48.9129 33.4202 49.3066 33.4122 49.5357 33.6943C49.631 33.8101 49.7144 33.9314 49.7777 34.059C49.9563 34.4135 50.123 34.7735 50.2934 35.1289C50.6667 35.9118 51.0863 36.6605 51.8898 37.2302C52.1995 37.4492 52.4284 37.7691 52.6104 38.0772C53.4132 39.4273 53.8885 40.8623 54.1626 42.3185C52.9354 42.9682 51.6458 43.0665 50.2526 42.8905C49.6424 42.3423 48.8484 42.0989 47.8789 42.2389C47.8735 42.6212 47.9047 42.6809 48.123 42.7418C48.7945 42.9268 49.5707 42.8827 50.1288 43.3315C50.242 43.4202 50.5455 43.384 50.7509 43.3623C51.5642 43.2765 52.246 43.5192 52.8731 43.7551C53.0812 44.3499 52.6 44.7489 52.4397 45.1979C52.6723 45.316 52.8393 45.4033 53.0455 45.5074C52.7814 46.3114 52.5602 47.1277 52.0042 47.8408C51.4555 48.5448 50.8276 49.2068 50.2261 49.8828C49.2496 50.9801 48.2417 52.0555 47.558 53.2898C47.3869 53.5973 47.1319 53.8969 46.838 54.1419C45.8801 54.9436 45.1202 55.8502 44.3649 56.7606C43.4913 57.8093 42.3928 58.7349 41.5715 59.8075C41.4839 59.9216 41.3525 60.0152 41.2253 60.1083C40.527 60.6141 39.9314 61.1888 39.3895 61.7997C38.4465 62.86 38.0286 62.8747 36.7909 61.969L36.8164 61.9747ZM35.5965 62.1034C34.9778 62.3407 34.4791 62.2591 34.0146 61.9892C32.9713 61.3903 31.8062 60.9762 30.5756 60.6487C29.9477 60.4842 29.3572 60.2403 28.7293 60.0758C28.0632 59.9027 27.383 59.7144 26.6802 59.6668C25.313 59.5803 24.0718 59.2708 22.8722 58.8435C22.3889 58.6722 21.902 58.5054 21.3912 58.3873C19.9694 58.059 18.6128 57.6399 17.3339 57.091C16.6514 56.8022 15.9298 56.5763 15.882 55.8471C15.8759 55.789 15.8306 55.7141 15.7655 55.6874C15.2413 55.4826 15.2942 55.0785 15.2909 54.6928C15.287 53.5143 15.1169 52.3744 14.5437 51.3105C14.0595 50.4218 13.6393 49.5096 13.7062 48.4117C13.9439 48.4202 14.2059 48.3842 14.404 48.4514C15.1132 48.6786 15.8046 48.9329 16.4959 49.1872C18.645 49.9926 20.8022 50.797 23.2048 51.2106C23.4418 51.2527 23.8056 51.3151 23.852 51.4402C24.0304 51.95 24.6595 51.9298 25.0976 52.1059C25.787 52.3814 26.5636 52.5386 27.2534 52.8182C28.3294 53.2543 29.5257 53.4134 30.6896 53.6598C31.17 53.7643 31.6756 53.8327 32.1242 53.9909C32.9303 54.2709 33.7611 54.4685 34.6479 54.5679C34.9634 54.606 35.2612 54.713 35.6408 54.8072C35.3403 55.8961 35.4394 56.9135 35.6575 57.9184C35.7027 58.1108 35.6786 58.3147 35.6992 58.5097C35.7584 59.0321 35.8058 59.5599 35.8975 60.0747C35.9634 60.4243 36.1818 60.7621 35.6823 61.0665C35.5886 61.1225 35.621 61.3121 35.6136 61.4387C35.5999 61.6626 35.5988 61.8892 35.592 62.0997L35.5965 62.1034ZM18.2369 37.3069C18.5887 36.1538 18.6824 36.018 19.3071 35.6417C19.1383 36.3643 19.1204 36.3914 18.2369 37.3069Z" stroke="black" stroke-width="0.954057" stroke-linejoin="round" mask="url(#path-7-outside-2_100_19130)"/>
<path d="M11.5371 28.52C11.0371 28.52 10.5471 28.47 10.0671 28.37C9.60707 28.25 9.23707 28.1 8.95707 27.92C8.67707 27.72 8.54707 27.5 8.56707 27.26C8.58707 26.94 8.65707 26.77 8.77707 26.75C8.89707 26.71 9.17707 26.72 9.61707 26.78C10.2971 26.92 11.0271 26.93 11.8071 26.81C12.5871 26.69 13.3171 26.48 13.9971 26.18C14.6771 25.88 15.2071 25.54 15.5871 25.16C16.1271 24.64 16.3671 24.12 16.3071 23.6C16.2671 23.08 15.9571 22.63 15.3771 22.25C15.1171 22.07 14.7571 21.9 14.2971 21.74C13.8371 21.58 13.3771 21.46 12.9171 21.38C12.4771 21.28 12.1171 21.24 11.8371 21.26C11.6571 21.28 11.5071 21.28 11.3871 21.26C11.2871 21.24 11.1071 21.16 10.8471 21.02C10.7271 20.88 10.6171 20.73 10.5171 20.57C10.4171 20.39 10.3471 20.26 10.3071 20.18C10.2871 20.08 10.3371 19.98 10.4571 19.88C10.5971 19.78 10.8871 19.61 11.3271 19.37C11.7671 19.11 12.4471 18.73 13.3671 18.23C14.2071 17.77 14.8671 17.4 15.3471 17.12C15.8471 16.82 16.2371 16.58 16.5171 16.4C16.8171 16.2 17.0571 16.02 17.2371 15.86C17.5971 15.38 17.7771 15.07 17.7771 14.93C17.7771 14.79 17.5171 14.67 16.9971 14.57C16.4971 14.53 16.0171 14.5 15.5571 14.48C15.0971 14.46 14.8671 14.49 14.8671 14.57C14.8671 14.57 14.8571 14.57 14.8371 14.57C14.8371 14.57 14.8071 14.57 14.7471 14.57C14.6471 14.53 14.4271 14.54 14.0871 14.6C13.7471 14.66 13.4171 14.73 13.0971 14.81C12.7971 14.89 12.6371 14.96 12.6171 15.02C12.5971 15.06 12.4771 15.13 12.2571 15.23C12.0571 15.31 11.8471 15.38 11.6271 15.44C11.4271 15.5 11.2971 15.53 11.2371 15.53C11.1371 15.49 11.0171 15.39 10.8771 15.23C10.7571 15.05 10.6571 14.87 10.5771 14.69C10.4971 14.49 10.4771 14.34 10.5171 14.24C10.5571 14.16 10.6771 14.06 10.8771 13.94C11.0971 13.8 11.3471 13.66 11.6271 13.52C11.9071 13.36 12.1571 13.23 12.3771 13.13C12.6571 13.05 13.0471 12.99 13.5471 12.95C14.0671 12.91 14.5871 12.89 15.1071 12.89C15.6271 12.87 16.0071 12.87 16.2471 12.89C17.1671 12.99 17.8771 13.23 18.3771 13.61C18.8771 13.99 19.1871 14.5 19.3071 15.14C19.3671 15.42 19.3871 15.65 19.3671 15.83C19.3471 16.01 19.2571 16.2 19.0971 16.4C18.9371 16.58 18.6571 16.85 18.2571 17.21C17.7571 17.53 17.3471 17.8 17.0271 18.02C16.7071 18.24 16.2271 18.52 15.5871 18.86C15.4471 18.96 15.2571 19.09 15.0171 19.25C14.7771 19.41 14.5571 19.56 14.3571 19.7C14.1571 19.82 14.0571 19.9 14.0571 19.94C14.0571 19.94 14.0971 19.97 14.1771 20.03C14.2571 20.07 14.3571 20.13 14.4771 20.21C14.5971 20.29 14.7071 20.38 14.8071 20.48C15.3871 20.68 15.9171 21 16.3971 21.44C16.8771 21.88 17.2171 22.24 17.4171 22.52C17.6971 23.14 17.8071 23.74 17.7471 24.32C17.7071 24.9 17.5071 25.45 17.1471 25.97C16.7871 26.47 16.2571 26.93 15.5571 27.35C14.9971 27.67 14.3471 27.94 13.6071 28.16C12.8671 28.36 12.1771 28.48 11.5371 28.52Z" fill="black"/>
</svg>
