<svg width="88" height="37" viewBox="0 0 88 37" fill="none" xmlns="http://www.w3.org/2000/svg">
<path d="M12.5676 9.50045C14.2634 9.50045 15.9591 9.49908 17.6552 9.50113C18.4403 9.50181 19.1952 9.65324 19.8944 10.0265C21.0668 10.6524 21.7747 11.6335 21.9585 12.9782C22.1169 14.138 21.8138 15.1892 21.124 16.1131C20.0836 17.5061 19.1334 18.9585 18.3016 20.4909C18.0479 20.9582 17.821 21.4405 17.566 21.9071C17.1275 22.7094 16.5951 23.4464 16.028 24.1567C15.1624 25.241 14.2226 26.2545 13.2223 27.2096C12.7283 27.6816 12.0008 27.5633 11.6656 26.9638C10.9286 25.645 10.1947 24.3245 9.4481 23.0116C8.77668 21.8305 8.07551 20.668 7.28979 19.5615C6.81154 18.8877 6.30255 18.2407 5.71234 17.6647C5.38916 17.3495 5.03891 17.0713 4.65825 16.8303C3.76357 16.2642 3.21247 15.4548 3.04704 14.3862C2.94945 13.7562 3.00225 13.1324 3.21915 12.5355C3.82808 10.8599 5.01418 9.88159 6.72365 9.55958C6.95759 9.51583 7.19989 9.50386 7.43851 9.50318C9.14798 9.4984 10.8578 9.50045 12.5676 9.50045ZM13.3339 24.2329L13.36 24.2514C13.3797 24.2244 13.3974 24.1956 13.4191 24.1707C13.5899 23.9755 13.7637 23.7831 13.9325 23.5862C14.5598 22.8533 15.1624 22.0989 15.657 21.2641C15.909 20.8392 16.1262 20.3925 16.3558 19.9539C17.2468 18.2519 18.2715 16.6382 19.4155 15.1037C19.6347 14.8097 19.8376 14.5113 19.9449 14.1534C20.2299 13.2011 19.873 12.2853 19.0255 11.8215C18.6044 11.5911 18.1452 11.506 17.6719 11.5053C16.2823 11.5022 14.8927 11.5036 13.503 11.5032C13.4733 11.5032 13.4439 11.506 13.4095 11.5077C13.374 11.8632 13.3359 12.2105 13.3059 12.5588C13.251 13.1939 13.1936 13.829 13.1511 14.4652C13.104 15.1724 13.0532 15.8803 13.0395 16.5886C13.0234 17.4281 13.0375 18.2683 13.0532 19.1082C13.0649 19.7259 13.0953 20.3432 13.1271 20.9602C13.1638 21.674 13.2099 22.387 13.2547 23.1004C13.2784 23.4782 13.3075 23.8555 13.3343 24.2332L13.3339 24.2329ZM11.212 22.1187C11.2217 22.1173 11.2314 22.116 11.2411 22.1146C10.9537 18.5739 11.0236 15.0401 11.4513 11.5029C11.3955 11.5029 11.3658 11.5029 11.336 11.5029C10.066 11.5029 8.7964 11.5005 7.52641 11.5053C7.32722 11.506 7.12336 11.5169 6.92952 11.56C5.98672 11.7695 5.33535 12.3308 5.04325 13.2814C4.81131 14.0369 5.05361 14.7526 5.74709 15.1649C6.15716 15.4086 6.52646 15.7122 6.87805 16.0376C7.52875 16.6399 8.0959 17.3191 8.62294 18.0342C9.52229 19.2542 10.3033 20.5535 11.065 21.8657C11.1141 21.9502 11.1629 22.0346 11.2117 22.1187H11.212Z" fill="black"/>
<path d="M34.6395 17.824C34.6035 17.848 34.5135 17.854 34.3695 17.842C34.2375 17.83 34.0935 17.794 33.9375 17.734C33.7935 17.686 33.6795 17.626 33.5955 17.554C33.5475 17.506 33.4995 17.452 33.4515 17.392C33.4035 17.32 33.3795 17.2 33.3795 17.032C33.3915 16.864 33.4335 16.594 33.5055 16.222C33.5535 15.982 33.6135 15.73 33.6855 15.466C33.7575 15.202 33.8235 14.974 33.8835 14.782C33.9435 14.59 33.9735 14.494 33.9735 14.494C34.0335 14.47 34.1175 14.29 34.2255 13.954C34.3455 13.618 34.4775 13.21 34.6215 12.73C34.6695 12.562 34.7535 12.28 34.8735 11.884C34.9935 11.488 35.1135 11.104 35.2335 10.732C35.3415 10.384 35.4435 10.114 35.5395 9.922C35.6355 9.73 35.6835 9.634 35.6835 9.634C35.6835 9.634 35.6115 9.676 35.4675 9.76C35.3235 9.844 35.1375 9.958 34.9095 10.102C34.6815 10.246 34.4415 10.414 34.1895 10.606C33.9855 10.726 33.7515 10.894 33.4875 11.11C33.2355 11.314 33.0015 11.482 32.7855 11.614C32.4615 11.866 32.2395 12.028 32.1195 12.1C32.0115 12.172 31.9035 12.178 31.7955 12.118C31.6395 11.986 31.4895 11.794 31.3455 11.542C31.2135 11.278 31.1835 11.086 31.2555 10.966C31.2795 10.954 31.3575 10.9 31.4895 10.804C31.6335 10.708 31.7955 10.594 31.9755 10.462C32.1555 10.33 32.3175 10.21 32.4615 10.102C32.6175 9.994 32.7255 9.922 32.7855 9.886C32.8215 9.886 32.8875 9.844 32.9835 9.76C33.0795 9.676 33.1815 9.598 33.2895 9.526C33.3495 9.454 33.5595 9.292 33.9195 9.04C34.2795 8.788 34.6695 8.506 35.0895 8.194C35.5335 7.918 35.9295 7.696 36.2775 7.528C36.6255 7.36 36.8235 7.282 36.8715 7.294C36.9075 7.294 36.9915 7.336 37.1235 7.42C37.2675 7.504 37.4055 7.6 37.5375 7.708C37.6695 7.816 37.7415 7.906 37.7535 7.978C37.8255 8.062 37.7895 8.254 37.6455 8.554C37.5975 8.662 37.5195 8.86 37.4115 9.148C37.3035 9.424 37.1835 9.748 37.0515 10.12C36.9315 10.48 36.8115 10.84 36.6915 11.2C36.5835 11.548 36.4935 11.848 36.4215 12.1C36.3255 12.472 36.2355 12.76 36.1515 12.964C36.0795 13.168 36.0075 13.366 35.9355 13.558C35.8755 13.738 35.8035 13.99 35.7195 14.314C35.6355 14.506 35.5455 14.752 35.4495 15.052C35.3655 15.34 35.2875 15.628 35.2155 15.916C35.1435 16.192 35.0895 16.42 35.0535 16.6C34.9575 16.864 34.8795 17.122 34.8195 17.374C34.7595 17.626 34.6995 17.776 34.6395 17.824ZM40.241 18.454C40.025 18.466 39.845 18.364 39.701 18.148C39.557 17.932 39.491 17.752 39.503 17.608C39.515 17.416 39.569 17.14 39.665 16.78C39.761 16.42 39.869 16.054 39.989 15.682C40.109 15.31 40.217 15.016 40.313 14.8C40.361 14.608 40.403 14.44 40.439 14.296C40.487 14.14 40.517 14.038 40.529 13.99C40.565 13.942 40.619 13.816 40.691 13.612C40.775 13.408 40.841 13.21 40.889 13.018C40.913 12.922 40.961 12.742 41.033 12.478C41.117 12.202 41.213 11.884 41.321 11.524C41.441 11.164 41.555 10.81 41.663 10.462C41.783 10.114 41.885 9.808 41.969 9.544C42.053 9.28 42.107 9.106 42.131 9.022C42.227 8.878 42.299 8.74 42.347 8.608C42.395 8.476 42.425 8.386 42.437 8.338C42.509 8.29 42.551 8.23 42.563 8.158C42.575 8.074 42.581 8.008 42.581 7.96C42.581 7.9 42.599 7.852 42.635 7.816C42.683 7.78 42.707 7.738 42.707 7.69C42.755 7.654 42.785 7.648 42.797 7.672C42.809 7.696 42.845 7.678 42.905 7.618L42.995 7.006L44.597 6.988C44.573 7.132 44.537 7.312 44.489 7.528C44.441 7.732 44.327 8.008 44.147 8.356C44.087 8.596 44.015 8.812 43.931 9.004C43.859 9.196 43.829 9.322 43.841 9.382C43.817 9.406 43.763 9.526 43.679 9.742C43.607 9.958 43.517 10.222 43.409 10.534C43.313 10.846 43.211 11.158 43.103 11.47C43.007 11.782 42.917 12.058 42.833 12.298C42.761 12.526 42.713 12.67 42.689 12.73C42.593 12.922 42.485 13.204 42.365 13.576C42.245 13.948 42.065 14.452 41.825 15.088C41.729 15.28 41.609 15.568 41.465 15.952C41.333 16.336 41.225 16.684 41.141 16.996C41.009 17.464 40.889 17.8 40.781 18.004C40.685 18.208 40.595 18.328 40.511 18.364C40.427 18.412 40.337 18.442 40.241 18.454ZM40.403 7.87C39.911 7.918 39.575 7.858 39.395 7.69C39.227 7.522 39.167 7.342 39.215 7.15C39.251 7.006 39.335 6.886 39.467 6.79C39.611 6.682 39.869 6.592 40.241 6.52C40.373 6.496 40.541 6.466 40.745 6.43C40.961 6.394 41.165 6.358 41.357 6.322C41.753 6.274 42.077 6.232 42.329 6.196C42.593 6.16 42.863 6.13 43.139 6.106C43.415 6.082 43.763 6.058 44.183 6.034C44.531 6.01 44.825 5.992 45.065 5.98C45.317 5.956 45.443 5.944 45.443 5.944C45.479 5.944 45.605 5.956 45.821 5.98C46.037 6.004 46.271 6.034 46.523 6.07C46.775 6.106 46.961 6.148 47.081 6.196C47.357 6.256 47.579 6.364 47.747 6.52C47.915 6.676 48.023 6.856 48.071 7.06C48.107 7.204 48.107 7.318 48.071 7.402C48.035 7.474 47.969 7.534 47.873 7.582C47.597 7.666 47.369 7.738 47.189 7.798C47.021 7.846 46.853 7.84 46.685 7.78C46.625 7.72 46.553 7.666 46.469 7.618C46.397 7.57 46.265 7.534 46.073 7.51C45.893 7.474 45.605 7.444 45.209 7.42C44.873 7.456 44.579 7.474 44.327 7.474C44.075 7.474 43.949 7.504 43.949 7.564L42.887 7.618L42.005 7.708C41.885 7.72 41.717 7.738 41.501 7.762C41.285 7.774 41.075 7.792 40.871 7.816C40.667 7.828 40.511 7.846 40.403 7.87ZM47.8191 18.13C47.3751 17.806 47.0211 17.506 46.7571 17.23C46.5051 16.942 46.3671 16.666 46.3431 16.402C46.3191 16.186 46.3191 15.892 46.3431 15.52C46.3791 15.148 46.4211 14.782 46.4691 14.422C46.5171 14.062 46.5591 13.792 46.5951 13.612C46.6551 13.552 46.6791 13.474 46.6671 13.378C46.6671 13.27 46.6671 13.216 46.6671 13.216C46.6551 13.156 46.6971 13 46.7931 12.748C46.8891 12.484 46.9791 12.148 47.0631 11.74C47.3031 11.02 47.5311 10.42 47.7471 9.94C47.9751 9.448 48.1971 9.028 48.4131 8.68C48.6291 8.332 48.8451 8.014 49.0611 7.726C49.5531 7.222 50.0151 6.82 50.4471 6.52C50.8911 6.22 51.2991 5.986 51.6711 5.818C51.9111 5.674 52.1331 5.56 52.3371 5.476C52.5411 5.392 52.7091 5.38 52.8411 5.44C53.5131 5.584 54.0831 5.878 54.5511 6.322C55.0191 6.766 55.3311 7.408 55.4871 8.248C55.5711 8.776 55.6191 9.256 55.6311 9.688C55.6551 10.108 55.6251 10.528 55.5411 10.948C55.4571 11.356 55.3011 11.806 55.0731 12.298C54.8571 12.79 54.5511 13.366 54.1551 14.026C53.6631 14.998 53.1231 15.814 52.5351 16.474C51.9591 17.122 51.3771 17.614 50.7891 17.95C50.2131 18.286 49.6611 18.466 49.1331 18.49C48.6171 18.526 48.1791 18.406 47.8191 18.13ZM49.2591 16.942C49.5351 16.906 49.7571 16.852 49.9251 16.78C50.1051 16.708 50.2911 16.57 50.4831 16.366C50.6751 16.162 50.9451 15.862 51.2931 15.466C51.6051 15.106 51.8631 14.8 52.0671 14.548C52.2831 14.296 52.4631 14.038 52.6071 13.774C52.7631 13.51 52.9071 13.198 53.0391 12.838C53.1831 12.466 53.3391 11.992 53.5071 11.416C53.6031 11.056 53.6691 10.792 53.7051 10.624C53.7531 10.444 53.7831 10.294 53.7951 10.174C53.8071 10.054 53.8071 9.892 53.7951 9.688C53.7951 9.472 53.7951 9.148 53.7951 8.716C53.7831 8.512 53.7411 8.284 53.6691 8.032C53.5971 7.768 53.5131 7.582 53.4171 7.474C53.2971 7.342 53.1171 7.228 52.8771 7.132C52.6371 7.036 52.3851 7.048 52.1211 7.168C51.9771 7.228 51.7971 7.354 51.5811 7.546C51.3651 7.726 51.1431 7.942 50.9151 8.194C50.6871 8.446 50.4711 8.698 50.2671 8.95C50.0631 9.202 49.9011 9.43 49.7811 9.634C49.6611 9.838 49.6011 9.982 49.6011 10.066C49.6011 10.066 49.5951 10.096 49.5831 10.156C49.5831 10.216 49.5591 10.276 49.5111 10.336C49.3551 10.504 49.1931 10.78 49.0251 11.164C48.8571 11.548 48.7011 11.986 48.5571 12.478C48.4131 12.97 48.2931 13.462 48.1971 13.954C48.1011 14.446 48.0411 14.89 48.0171 15.286C48.0171 15.478 48.0171 15.64 48.0171 15.772C48.0171 15.904 48.0291 16.024 48.0531 16.132C48.0891 16.228 48.1431 16.336 48.2151 16.456C48.2871 16.576 48.4311 16.696 48.6471 16.816C48.8751 16.936 49.0791 16.978 49.2591 16.942ZM56.223 18.076C56.163 18.172 56.103 18.256 56.043 18.328C55.995 18.4 55.941 18.442 55.881 18.454C55.845 18.394 55.749 18.31 55.593 18.202C55.437 18.094 55.287 17.98 55.143 17.86C54.999 17.74 54.915 17.632 54.891 17.536C54.891 17.404 54.939 17.152 55.035 16.78C55.131 16.408 55.257 15.988 55.413 15.52C55.569 15.04 55.725 14.572 55.881 14.116C56.049 13.648 56.193 13.258 56.313 12.946C56.397 12.73 56.469 12.544 56.529 12.388C56.589 12.22 56.637 12.088 56.673 11.992C56.721 11.86 56.805 11.668 56.925 11.416C57.045 11.164 57.171 10.906 57.303 10.642C57.447 10.378 57.567 10.15 57.663 9.958C57.759 9.766 57.807 9.67 57.807 9.67C57.819 9.574 57.885 9.394 58.005 9.13C58.125 8.866 58.275 8.56 58.455 8.212C58.635 7.864 58.821 7.522 59.013 7.186C59.205 6.838 59.379 6.532 59.535 6.268C59.679 6.052 59.787 5.932 59.859 5.908C59.943 5.872 60.015 5.878 60.075 5.926C60.339 5.902 60.567 5.908 60.759 5.944C60.963 5.968 61.119 6.016 61.227 6.088C61.347 6.148 61.413 6.22 61.425 6.304C61.449 6.34 61.449 6.496 61.425 6.772C61.413 7.036 61.389 7.27 61.353 7.474C61.281 8.062 61.245 8.608 61.245 9.112C61.245 9.604 61.275 10.15 61.335 10.75C61.407 11.338 61.485 12.07 61.569 12.946L61.839 14.692L62.163 13.99C62.283 13.726 62.391 13.462 62.487 13.198C62.583 12.922 62.679 12.688 62.775 12.496C62.871 12.22 62.973 11.956 63.081 11.704C63.201 11.44 63.261 11.308 63.261 11.308C63.369 11.152 63.471 10.942 63.567 10.678C63.675 10.414 63.771 10.15 63.855 9.886C63.951 9.622 64.023 9.424 64.071 9.292C64.095 9.208 64.131 9.082 64.179 8.914C64.239 8.746 64.299 8.56 64.359 8.356C64.431 8.152 64.497 7.954 64.557 7.762C64.629 7.522 64.695 7.306 64.755 7.114C64.815 6.922 64.869 6.76 64.917 6.628C64.965 6.484 64.995 6.388 65.007 6.34C65.007 6.34 65.031 6.31 65.079 6.25C65.127 6.19 65.181 6.094 65.241 5.962L65.889 5.818C66.165 6.046 66.321 6.262 66.357 6.466C66.405 6.658 66.369 6.91 66.249 7.222C66.237 7.342 66.207 7.474 66.159 7.618C66.111 7.75 66.087 7.816 66.087 7.816C66.159 7.816 66.165 7.9 66.105 8.068C66.057 8.224 66.021 8.362 65.997 8.482C65.973 8.566 65.931 8.71 65.871 8.914C65.823 9.118 65.769 9.334 65.709 9.562C65.649 9.79 65.595 9.988 65.547 10.156C65.523 10.252 65.457 10.432 65.349 10.696C65.241 10.948 65.115 11.236 64.971 11.56C64.827 11.884 64.677 12.214 64.521 12.55C64.377 12.874 64.245 13.156 64.125 13.396C64.005 13.636 63.921 13.798 63.873 13.882C63.837 13.954 63.795 14.044 63.747 14.152C63.711 14.26 63.663 14.344 63.603 14.404C63.543 14.596 63.435 14.812 63.279 15.052C63.123 15.292 62.955 15.526 62.775 15.754C62.607 15.982 62.457 16.174 62.325 16.33C62.169 16.498 62.013 16.624 61.857 16.708C61.701 16.792 61.521 16.786 61.317 16.69C61.125 16.594 60.885 16.378 60.597 16.042C60.537 15.946 60.471 15.736 60.399 15.412C60.327 15.088 60.249 14.716 60.165 14.296C60.093 13.864 60.021 13.438 59.949 13.018C59.877 12.586 59.823 12.22 59.787 11.92C59.739 11.68 59.721 11.494 59.733 11.362C59.745 11.218 59.751 11.068 59.751 10.912C59.751 10.72 59.751 10.576 59.751 10.48C59.763 10.372 59.775 10.27 59.787 10.174C59.799 10.066 59.805 9.928 59.805 9.76C59.817 9.628 59.811 9.55 59.787 9.526C59.763 9.49 59.715 9.52 59.643 9.616C59.439 9.916 59.265 10.192 59.121 10.444C58.977 10.696 58.869 10.9 58.797 11.056C58.749 11.188 58.659 11.41 58.527 11.722C58.395 12.022 58.251 12.358 58.095 12.73C57.939 13.102 57.789 13.45 57.645 13.774C57.513 14.098 57.411 14.344 57.339 14.512C57.255 14.692 57.165 14.938 57.069 15.25C56.985 15.55 56.901 15.868 56.817 16.204C56.733 16.528 56.661 16.816 56.601 17.068C56.553 17.32 56.517 17.482 56.493 17.554C56.481 17.566 56.439 17.638 56.367 17.77C56.307 17.902 56.259 18.004 56.223 18.076Z" fill="black"/>
<rect x="28" y="21.5" width="30" height="15" rx="7.5" fill="#A0E5E2"/>
<path d="M34.417 30.436C34.369 30.436 34.309 30.436 34.237 30.436C34.165 30.428 34.085 30.408 33.997 30.376C33.877 30.376 33.781 30.352 33.709 30.304C33.645 30.248 33.597 30.192 33.565 30.136C33.477 30.016 33.481 29.924 33.577 29.86C33.681 29.788 33.881 29.736 34.177 29.704C34.313 29.672 34.513 29.648 34.777 29.632C35.049 29.608 35.341 29.592 35.653 29.584C35.965 29.568 36.261 29.556 36.541 29.548C36.821 29.54 37.041 29.536 37.201 29.536C37.409 29.536 37.593 29.556 37.753 29.596C37.921 29.636 38.049 29.7 38.137 29.788C38.257 29.908 38.285 30.036 38.221 30.172C38.157 30.3 38.033 30.348 37.849 30.316C37.809 30.316 37.733 30.32 37.621 30.328C37.509 30.336 37.385 30.344 37.249 30.352C37.121 30.36 37.009 30.368 36.913 30.376C36.865 30.376 36.733 30.38 36.517 30.388C36.301 30.396 36.049 30.404 35.761 30.412C35.481 30.42 35.213 30.428 34.957 30.436C34.709 30.436 34.529 30.436 34.417 30.436ZM36.025 32.308C35.905 32.396 35.809 32.392 35.737 32.296C35.673 32.192 35.625 31.992 35.593 31.696C35.561 31.56 35.533 31.36 35.509 31.096C35.493 30.824 35.477 30.532 35.461 30.22C35.453 29.908 35.445 29.612 35.437 29.332C35.429 29.052 35.425 28.832 35.425 28.672C35.425 28.464 35.445 28.28 35.485 28.12C35.525 27.952 35.585 27.824 35.665 27.736C35.785 27.616 35.913 27.588 36.049 27.652C36.185 27.716 36.237 27.84 36.205 28.024C36.213 28.064 36.217 28.14 36.217 28.252C36.225 28.364 36.233 28.488 36.241 28.624C36.249 28.752 36.257 28.864 36.265 28.96C36.265 29.008 36.269 29.14 36.277 29.356C36.285 29.572 36.293 29.824 36.301 30.112C36.309 30.392 36.313 30.66 36.313 30.916C36.321 31.164 36.325 31.344 36.325 31.456C36.325 31.504 36.321 31.564 36.313 31.636C36.313 31.708 36.297 31.788 36.265 31.876C36.265 31.996 36.237 32.092 36.181 32.164C36.133 32.228 36.081 32.276 36.025 32.308ZM44.9947 32.716C44.9707 32.732 44.9107 32.736 44.8147 32.728C44.7267 32.72 44.6307 32.696 44.5267 32.656C44.4307 32.624 44.3547 32.584 44.2987 32.536C44.2667 32.504 44.2347 32.468 44.2027 32.428C44.1707 32.38 44.1547 32.3 44.1547 32.188C44.1627 32.076 44.1907 31.896 44.2387 31.648C44.2707 31.488 44.3107 31.32 44.3587 31.144C44.4067 30.968 44.4507 30.816 44.4907 30.688C44.5307 30.56 44.5507 30.496 44.5507 30.496C44.5907 30.48 44.6467 30.36 44.7187 30.136C44.7987 29.912 44.8867 29.64 44.9827 29.32C45.0147 29.208 45.0707 29.02 45.1507 28.756C45.2307 28.492 45.3107 28.236 45.3907 27.988C45.4627 27.756 45.5307 27.576 45.5947 27.448C45.6587 27.32 45.6907 27.256 45.6907 27.256C45.6907 27.256 45.6427 27.284 45.5467 27.34C45.4507 27.396 45.3267 27.472 45.1747 27.568C45.0227 27.664 44.8627 27.776 44.6947 27.904C44.5587 27.984 44.4027 28.096 44.2267 28.24C44.0587 28.376 43.9027 28.488 43.7587 28.576C43.5427 28.744 43.3947 28.852 43.3147 28.9C43.2427 28.948 43.1707 28.952 43.0987 28.912C42.9947 28.824 42.8947 28.696 42.7987 28.528C42.7107 28.352 42.6907 28.224 42.7387 28.144C42.7547 28.136 42.8067 28.1 42.8947 28.036C42.9907 27.972 43.0987 27.896 43.2187 27.808C43.3387 27.72 43.4467 27.64 43.5427 27.568C43.6467 27.496 43.7187 27.448 43.7587 27.424C43.7827 27.424 43.8267 27.396 43.8907 27.34C43.9547 27.284 44.0227 27.232 44.0947 27.184C44.1347 27.136 44.2747 27.028 44.5147 26.86C44.7547 26.692 45.0147 26.504 45.2947 26.296C45.5907 26.112 45.8547 25.964 46.0867 25.852C46.3187 25.74 46.4507 25.688 46.4827 25.696C46.5067 25.696 46.5627 25.724 46.6507 25.78C46.7467 25.836 46.8387 25.9 46.9267 25.972C47.0147 26.044 47.0627 26.104 47.0707 26.152C47.1187 26.208 47.0947 26.336 46.9987 26.536C46.9667 26.608 46.9147 26.74 46.8427 26.932C46.7707 27.116 46.6907 27.332 46.6027 27.58C46.5227 27.82 46.4427 28.06 46.3627 28.3C46.2907 28.532 46.2307 28.732 46.1827 28.9C46.1187 29.148 46.0587 29.34 46.0027 29.476C45.9547 29.612 45.9067 29.744 45.8587 29.872C45.8187 29.992 45.7707 30.16 45.7147 30.376C45.6587 30.504 45.5987 30.668 45.5347 30.868C45.4787 31.06 45.4267 31.252 45.3787 31.444C45.3307 31.628 45.2947 31.78 45.2707 31.9C45.2067 32.076 45.1547 32.248 45.1147 32.416C45.0747 32.584 45.0347 32.684 44.9947 32.716ZM47.985 31.876C47.817 31.932 47.677 31.96 47.565 31.96C47.453 31.952 47.329 31.9 47.193 31.804C47.033 31.644 46.977 31.484 47.025 31.324C47.081 31.156 47.225 30.992 47.457 30.832C47.617 30.736 47.733 30.688 47.805 30.688C47.885 30.68 48.001 30.708 48.153 30.772C48.425 30.94 48.545 31.128 48.513 31.336C48.481 31.536 48.305 31.716 47.985 31.876ZM50.4719 32.308C50.3279 32.204 50.2559 32.116 50.2559 32.044C50.2239 31.996 50.1879 31.972 50.1479 31.972C50.1239 31.98 50.0999 31.94 50.0759 31.852C50.0599 31.764 50.0439 31.668 50.0279 31.564C50.0199 31.46 50.0199 31.392 50.0279 31.36C50.0599 31.296 50.1199 31.248 50.2079 31.216C50.3039 31.184 50.3959 31.172 50.4839 31.18C50.5799 31.18 50.6319 31.212 50.6399 31.276C50.6559 31.34 50.7159 31.392 50.8199 31.432C50.9319 31.472 51.0759 31.488 51.2519 31.48C51.4759 31.472 51.6799 31.436 51.8639 31.372C52.0559 31.308 52.2279 31.216 52.3799 31.096C52.5399 30.976 52.6839 30.832 52.8119 30.664C52.8679 30.552 52.9199 30.404 52.9679 30.22C53.0159 30.036 53.0479 29.872 53.0639 29.728C53.0799 29.584 53.0679 29.512 53.0279 29.512C53.0279 29.512 53.0199 29.484 53.0039 29.428C52.9959 29.372 52.9799 29.312 52.9559 29.248C52.9159 29.128 52.8239 29.008 52.6799 28.888C52.5359 28.76 52.3959 28.668 52.2599 28.612C52.2039 28.596 52.0879 28.596 51.9119 28.612C51.7359 28.628 51.5879 28.644 51.4679 28.66C51.3399 28.668 51.2639 28.668 51.2399 28.66C51.2239 28.644 51.2159 28.636 51.2159 28.636C51.1759 28.628 51.1079 28.588 51.0119 28.516C50.9239 28.444 50.8399 28.368 50.7599 28.288C50.6879 28.208 50.6519 28.148 50.6519 28.108C50.6679 28.052 50.7119 27.956 50.7839 27.82C50.8559 27.684 50.9439 27.536 51.0479 27.376C51.1599 27.216 51.2719 27.06 51.3839 26.908C51.4959 26.756 51.5999 26.632 51.6959 26.536C51.9359 26.272 52.2239 26.076 52.5599 25.948C52.8959 25.812 53.2279 25.752 53.5559 25.768C53.7879 25.776 53.9599 25.808 54.0719 25.864C54.1919 25.912 54.2999 26 54.3959 26.128C54.4599 26.24 54.4839 26.356 54.4679 26.476C54.4519 26.596 54.4119 26.688 54.3479 26.752C54.2839 26.816 54.2039 26.824 54.1079 26.776C53.9959 26.704 53.8439 26.676 53.6519 26.692C53.4599 26.708 53.2559 26.748 53.0399 26.812C52.8719 26.876 52.7359 26.932 52.6319 26.98C52.5279 27.02 52.4559 27.084 52.4159 27.172C52.3839 27.196 52.3599 27.22 52.3439 27.244C52.3359 27.268 52.3159 27.276 52.2839 27.268C52.2839 27.268 52.2719 27.284 52.2479 27.316C52.2239 27.34 52.2119 27.368 52.2119 27.4C52.1719 27.448 52.1439 27.484 52.1279 27.508C52.1199 27.524 52.0999 27.516 52.0679 27.484C52.0679 27.484 52.0679 27.496 52.0679 27.52C52.0679 27.544 52.0639 27.572 52.0559 27.604C52.0479 27.66 52.0639 27.7 52.1039 27.724C52.1519 27.74 52.2519 27.756 52.4039 27.772C52.6039 27.804 52.7519 27.836 52.8479 27.868C52.9519 27.892 53.1039 27.964 53.3039 28.084C53.5279 28.212 53.6919 28.404 53.7959 28.66C53.9079 28.908 53.9719 29.184 53.9879 29.488C54.0119 29.784 54.0039 30.068 53.9639 30.34C53.9399 30.516 53.9159 30.652 53.8919 30.748C53.8679 30.844 53.7999 30.976 53.6879 31.144C53.5039 31.4 53.2679 31.628 52.9799 31.828C52.6919 32.02 52.3879 32.172 52.0679 32.284C51.7479 32.396 51.4439 32.46 51.1559 32.476C50.8759 32.484 50.6479 32.428 50.4719 32.308Z" fill="black"/>
</svg>
