<svg width="88" height="37" viewBox="0 0 88 37" fill="none" xmlns="http://www.w3.org/2000/svg">
<path d="M12.5676 9.50045C14.2634 9.50045 15.9591 9.49908 17.6552 9.50113C18.4403 9.50181 19.1952 9.65324 19.8944 10.0265C21.0668 10.6524 21.7747 11.6335 21.9585 12.9782C22.1169 14.138 21.8138 15.1892 21.124 16.1131C20.0836 17.5061 19.1334 18.9585 18.3016 20.4909C18.0479 20.9582 17.821 21.4405 17.566 21.9071C17.1275 22.7094 16.5951 23.4464 16.028 24.1567C15.1624 25.241 14.2226 26.2545 13.2223 27.2096C12.7283 27.6816 12.0008 27.5633 11.6656 26.9638C10.9286 25.645 10.1947 24.3245 9.4481 23.0116C8.77668 21.8305 8.07551 20.668 7.28979 19.5615C6.81154 18.8877 6.30255 18.2407 5.71234 17.6647C5.38916 17.3495 5.03891 17.0713 4.65825 16.8303C3.76357 16.2642 3.21247 15.4548 3.04704 14.3862C2.94945 13.7562 3.00225 13.1324 3.21915 12.5355C3.82808 10.8599 5.01418 9.88159 6.72365 9.55958C6.95759 9.51583 7.19989 9.50386 7.43851 9.50318C9.14798 9.4984 10.8578 9.50045 12.5676 9.50045ZM13.3339 24.2329L13.36 24.2514C13.3797 24.2244 13.3974 24.1956 13.4191 24.1707C13.5899 23.9755 13.7637 23.7831 13.9325 23.5862C14.5598 22.8533 15.1624 22.0989 15.657 21.2641C15.909 20.8392 16.1262 20.3925 16.3558 19.9539C17.2468 18.2519 18.2715 16.6382 19.4155 15.1037C19.6347 14.8097 19.8376 14.5113 19.9449 14.1534C20.2299 13.2011 19.873 12.2853 19.0255 11.8215C18.6044 11.5911 18.1452 11.506 17.6719 11.5053C16.2823 11.5022 14.8927 11.5036 13.503 11.5032C13.4733 11.5032 13.4439 11.506 13.4095 11.5077C13.374 11.8632 13.3359 12.2105 13.3059 12.5588C13.251 13.1939 13.1936 13.829 13.1511 14.4652C13.104 15.1724 13.0532 15.8803 13.0395 16.5886C13.0234 17.4281 13.0375 18.2683 13.0532 19.1082C13.0649 19.7259 13.0953 20.3432 13.1271 20.9602C13.1638 21.674 13.2099 22.387 13.2547 23.1004C13.2784 23.4782 13.3075 23.8555 13.3343 24.2332L13.3339 24.2329ZM11.212 22.1187C11.2217 22.1173 11.2314 22.116 11.2411 22.1146C10.9537 18.5739 11.0236 15.0401 11.4513 11.5029C11.3955 11.5029 11.3658 11.5029 11.336 11.5029C10.066 11.5029 8.7964 11.5005 7.52641 11.5053C7.32722 11.506 7.12336 11.5169 6.92952 11.56C5.98672 11.7695 5.33535 12.3308 5.04325 13.2814C4.81131 14.0369 5.05361 14.7526 5.74709 15.1649C6.15716 15.4086 6.52646 15.7122 6.87805 16.0376C7.52875 16.6399 8.0959 17.3191 8.62294 18.0342C9.52229 19.2542 10.3033 20.5535 11.065 21.8657C11.1141 21.9502 11.1629 22.0346 11.2117 22.1187H11.212Z" fill="black"/>
<path d="M31.3329 17.212C31.1169 17.056 31.0089 16.924 31.0089 16.816C30.9609 16.744 30.9069 16.708 30.8469 16.708C30.8109 16.72 30.7749 16.66 30.7389 16.528C30.7149 16.396 30.6909 16.252 30.6669 16.096C30.6549 15.94 30.6549 15.838 30.6669 15.79C30.7149 15.694 30.8049 15.622 30.9369 15.574C31.0809 15.526 31.2189 15.508 31.3509 15.52C31.4949 15.52 31.5729 15.568 31.5849 15.664C31.6089 15.76 31.6989 15.838 31.8549 15.898C32.0229 15.958 32.2389 15.982 32.5029 15.97C32.8389 15.958 33.1449 15.904 33.4209 15.808C33.7089 15.712 33.9669 15.574 34.1949 15.394C34.4349 15.214 34.6509 14.998 34.8429 14.746C34.9269 14.578 35.0049 14.356 35.0769 14.08C35.1489 13.804 35.1969 13.558 35.2209 13.342C35.2449 13.126 35.2269 13.018 35.1669 13.018C35.1669 13.018 35.1549 12.976 35.1309 12.892C35.1189 12.808 35.0949 12.718 35.0589 12.622C34.9989 12.442 34.8609 12.262 34.6449 12.082C34.4289 11.89 34.2189 11.752 34.0149 11.668C33.9309 11.644 33.7569 11.644 33.4929 11.668C33.2289 11.692 33.0069 11.716 32.8269 11.74C32.6349 11.752 32.5209 11.752 32.4849 11.74C32.4609 11.716 32.4489 11.704 32.4489 11.704C32.3889 11.692 32.2869 11.632 32.1429 11.524C32.0109 11.416 31.8849 11.302 31.7649 11.182C31.6569 11.062 31.6029 10.972 31.6029 10.912C31.6269 10.828 31.6929 10.684 31.8009 10.48C31.9089 10.276 32.0409 10.054 32.1969 9.814C32.3649 9.574 32.5329 9.34 32.7009 9.112C32.8689 8.884 33.0249 8.698 33.1689 8.554C33.5289 8.158 33.9609 7.864 34.4649 7.672C34.9689 7.468 35.4669 7.378 35.9589 7.402C36.3069 7.414 36.5649 7.462 36.7329 7.546C36.9129 7.618 37.0749 7.75 37.2189 7.942C37.3149 8.11 37.3509 8.284 37.3269 8.464C37.3029 8.644 37.2429 8.782 37.1469 8.878C37.0509 8.974 36.9309 8.986 36.7869 8.914C36.6189 8.806 36.3909 8.764 36.1029 8.788C35.8149 8.812 35.5089 8.872 35.1849 8.968C34.9329 9.064 34.7289 9.148 34.5729 9.22C34.4169 9.28 34.3089 9.376 34.2489 9.508C34.2009 9.544 34.1649 9.58 34.1409 9.616C34.1289 9.652 34.0989 9.664 34.0509 9.652C34.0509 9.652 34.0329 9.676 33.9969 9.724C33.9609 9.76 33.9429 9.802 33.9429 9.85C33.8829 9.922 33.8409 9.976 33.8169 10.012C33.8049 10.036 33.7749 10.024 33.7269 9.976C33.7269 9.976 33.7269 9.994 33.7269 10.03C33.7269 10.066 33.7209 10.108 33.7089 10.156C33.6969 10.24 33.7209 10.3 33.7809 10.336C33.8529 10.36 34.0029 10.384 34.2309 10.408C34.5309 10.456 34.7529 10.504 34.8969 10.552C35.0529 10.588 35.2809 10.696 35.5809 10.876C35.9169 11.068 36.1629 11.356 36.3189 11.74C36.4869 12.112 36.5829 12.526 36.6069 12.982C36.6429 13.426 36.6309 13.852 36.5709 14.26C36.5349 14.524 36.4989 14.728 36.4629 14.872C36.4269 15.016 36.3249 15.214 36.1569 15.466C35.8809 15.85 35.5269 16.192 35.0949 16.492C34.6629 16.78 34.2069 17.008 33.7269 17.176C33.2469 17.344 32.7909 17.44 32.3589 17.464C31.9389 17.476 31.5969 17.392 31.3329 17.212ZM40.0916 18.454C39.8756 18.466 39.6956 18.364 39.5516 18.148C39.4076 17.932 39.3416 17.752 39.3536 17.608C39.3656 17.416 39.4196 17.14 39.5156 16.78C39.6116 16.42 39.7196 16.054 39.8396 15.682C39.9596 15.31 40.0676 15.016 40.1636 14.8C40.2116 14.608 40.2536 14.44 40.2896 14.296C40.3376 14.14 40.3676 14.038 40.3796 13.99C40.4156 13.942 40.4696 13.816 40.5416 13.612C40.6256 13.408 40.6916 13.21 40.7396 13.018C40.7636 12.922 40.8116 12.742 40.8836 12.478C40.9676 12.202 41.0636 11.884 41.1716 11.524C41.2916 11.164 41.4056 10.81 41.5136 10.462C41.6336 10.114 41.7356 9.808 41.8196 9.544C41.9036 9.28 41.9576 9.106 41.9816 9.022C42.0776 8.878 42.1496 8.74 42.1976 8.608C42.2456 8.476 42.2756 8.386 42.2876 8.338C42.3596 8.29 42.4016 8.23 42.4136 8.158C42.4256 8.074 42.4316 8.008 42.4316 7.96C42.4316 7.9 42.4496 7.852 42.4856 7.816C42.5336 7.78 42.5576 7.738 42.5576 7.69C42.6056 7.654 42.6356 7.648 42.6476 7.672C42.6596 7.696 42.6956 7.678 42.7556 7.618L42.8456 7.006L44.4476 6.988C44.4236 7.132 44.3876 7.312 44.3396 7.528C44.2916 7.732 44.1776 8.008 43.9976 8.356C43.9376 8.596 43.8656 8.812 43.7816 9.004C43.7096 9.196 43.6796 9.322 43.6916 9.382C43.6676 9.406 43.6136 9.526 43.5296 9.742C43.4576 9.958 43.3676 10.222 43.2596 10.534C43.1636 10.846 43.0616 11.158 42.9536 11.47C42.8576 11.782 42.7676 12.058 42.6836 12.298C42.6116 12.526 42.5636 12.67 42.5396 12.73C42.4436 12.922 42.3356 13.204 42.2156 13.576C42.0956 13.948 41.9156 14.452 41.6756 15.088C41.5796 15.28 41.4596 15.568 41.3156 15.952C41.1836 16.336 41.0756 16.684 40.9916 16.996C40.8596 17.464 40.7396 17.8 40.6316 18.004C40.5356 18.208 40.4456 18.328 40.3616 18.364C40.2776 18.412 40.1876 18.442 40.0916 18.454ZM40.2536 7.87C39.7616 7.918 39.4256 7.858 39.2456 7.69C39.0776 7.522 39.0176 7.342 39.0656 7.15C39.1016 7.006 39.1856 6.886 39.3176 6.79C39.4616 6.682 39.7196 6.592 40.0916 6.52C40.2236 6.496 40.3916 6.466 40.5956 6.43C40.8116 6.394 41.0156 6.358 41.2076 6.322C41.6036 6.274 41.9276 6.232 42.1796 6.196C42.4436 6.16 42.7136 6.13 42.9896 6.106C43.2656 6.082 43.6136 6.058 44.0336 6.034C44.3816 6.01 44.6756 5.992 44.9156 5.98C45.1676 5.956 45.2936 5.944 45.2936 5.944C45.3296 5.944 45.4556 5.956 45.6716 5.98C45.8876 6.004 46.1216 6.034 46.3736 6.07C46.6256 6.106 46.8116 6.148 46.9316 6.196C47.2076 6.256 47.4296 6.364 47.5976 6.52C47.7656 6.676 47.8736 6.856 47.9216 7.06C47.9576 7.204 47.9576 7.318 47.9216 7.402C47.8856 7.474 47.8196 7.534 47.7236 7.582C47.4476 7.666 47.2196 7.738 47.0396 7.798C46.8716 7.846 46.7036 7.84 46.5356 7.78C46.4756 7.72 46.4036 7.666 46.3196 7.618C46.2476 7.57 46.1156 7.534 45.9236 7.51C45.7436 7.474 45.4556 7.444 45.0596 7.42C44.7236 7.456 44.4296 7.474 44.1776 7.474C43.9256 7.474 43.7996 7.504 43.7996 7.564L42.7376 7.618L41.8556 7.708C41.7356 7.72 41.5676 7.738 41.3516 7.762C41.1356 7.774 40.9256 7.792 40.7216 7.816C40.5176 7.828 40.3616 7.846 40.2536 7.87ZM47.6697 18.13C47.2257 17.806 46.8717 17.506 46.6077 17.23C46.3557 16.942 46.2177 16.666 46.1937 16.402C46.1697 16.186 46.1697 15.892 46.1937 15.52C46.2297 15.148 46.2717 14.782 46.3197 14.422C46.3677 14.062 46.4097 13.792 46.4457 13.612C46.5057 13.552 46.5297 13.474 46.5177 13.378C46.5177 13.27 46.5177 13.216 46.5177 13.216C46.5057 13.156 46.5477 13 46.6437 12.748C46.7397 12.484 46.8297 12.148 46.9137 11.74C47.1537 11.02 47.3817 10.42 47.5977 9.94C47.8257 9.448 48.0477 9.028 48.2637 8.68C48.4797 8.332 48.6957 8.014 48.9117 7.726C49.4037 7.222 49.8657 6.82 50.2977 6.52C50.7417 6.22 51.1497 5.986 51.5217 5.818C51.7617 5.674 51.9837 5.56 52.1877 5.476C52.3917 5.392 52.5597 5.38 52.6917 5.44C53.3637 5.584 53.9337 5.878 54.4017 6.322C54.8697 6.766 55.1817 7.408 55.3377 8.248C55.4217 8.776 55.4697 9.256 55.4817 9.688C55.5057 10.108 55.4757 10.528 55.3917 10.948C55.3077 11.356 55.1517 11.806 54.9237 12.298C54.7077 12.79 54.4017 13.366 54.0057 14.026C53.5137 14.998 52.9737 15.814 52.3857 16.474C51.8097 17.122 51.2277 17.614 50.6397 17.95C50.0637 18.286 49.5117 18.466 48.9837 18.49C48.4677 18.526 48.0297 18.406 47.6697 18.13ZM49.1097 16.942C49.3857 16.906 49.6077 16.852 49.7757 16.78C49.9557 16.708 50.1417 16.57 50.3337 16.366C50.5257 16.162 50.7957 15.862 51.1437 15.466C51.4557 15.106 51.7137 14.8 51.9177 14.548C52.1337 14.296 52.3137 14.038 52.4577 13.774C52.6137 13.51 52.7577 13.198 52.8897 12.838C53.0337 12.466 53.1897 11.992 53.3577 11.416C53.4537 11.056 53.5197 10.792 53.5557 10.624C53.6037 10.444 53.6337 10.294 53.6457 10.174C53.6577 10.054 53.6577 9.892 53.6457 9.688C53.6457 9.472 53.6457 9.148 53.6457 8.716C53.6337 8.512 53.5917 8.284 53.5197 8.032C53.4477 7.768 53.3637 7.582 53.2677 7.474C53.1477 7.342 52.9677 7.228 52.7277 7.132C52.4877 7.036 52.2357 7.048 51.9717 7.168C51.8277 7.228 51.6477 7.354 51.4317 7.546C51.2157 7.726 50.9937 7.942 50.7657 8.194C50.5377 8.446 50.3217 8.698 50.1177 8.95C49.9137 9.202 49.7517 9.43 49.6317 9.634C49.5117 9.838 49.4517 9.982 49.4517 10.066C49.4517 10.066 49.4457 10.096 49.4337 10.156C49.4337 10.216 49.4097 10.276 49.3617 10.336C49.2057 10.504 49.0437 10.78 48.8757 11.164C48.7077 11.548 48.5517 11.986 48.4077 12.478C48.2637 12.97 48.1437 13.462 48.0477 13.954C47.9517 14.446 47.8917 14.89 47.8677 15.286C47.8677 15.478 47.8677 15.64 47.8677 15.772C47.8677 15.904 47.8797 16.024 47.9037 16.132C47.9397 16.228 47.9937 16.336 48.0657 16.456C48.1377 16.576 48.2817 16.696 48.4977 16.816C48.7257 16.936 48.9297 16.978 49.1097 16.942ZM56.0736 18.076C56.0136 18.172 55.9536 18.256 55.8936 18.328C55.8456 18.4 55.7916 18.442 55.7316 18.454C55.6956 18.394 55.5996 18.31 55.4436 18.202C55.2876 18.094 55.1376 17.98 54.9936 17.86C54.8496 17.74 54.7656 17.632 54.7416 17.536C54.7416 17.404 54.7896 17.152 54.8856 16.78C54.9816 16.408 55.1076 15.988 55.2636 15.52C55.4196 15.04 55.5756 14.572 55.7316 14.116C55.8996 13.648 56.0436 13.258 56.1636 12.946C56.2476 12.73 56.3196 12.544 56.3796 12.388C56.4396 12.22 56.4876 12.088 56.5236 11.992C56.5716 11.86 56.6556 11.668 56.7756 11.416C56.8956 11.164 57.0216 10.906 57.1536 10.642C57.2976 10.378 57.4176 10.15 57.5136 9.958C57.6096 9.766 57.6576 9.67 57.6576 9.67C57.6696 9.574 57.7356 9.394 57.8556 9.13C57.9756 8.866 58.1256 8.56 58.3056 8.212C58.4856 7.864 58.6716 7.522 58.8636 7.186C59.0556 6.838 59.2296 6.532 59.3856 6.268C59.5296 6.052 59.6376 5.932 59.7096 5.908C59.7936 5.872 59.8656 5.878 59.9256 5.926C60.1896 5.902 60.4176 5.908 60.6096 5.944C60.8136 5.968 60.9696 6.016 61.0776 6.088C61.1976 6.148 61.2636 6.22 61.2756 6.304C61.2996 6.34 61.2996 6.496 61.2756 6.772C61.2636 7.036 61.2396 7.27 61.2036 7.474C61.1316 8.062 61.0956 8.608 61.0956 9.112C61.0956 9.604 61.1256 10.15 61.1856 10.75C61.2576 11.338 61.3356 12.07 61.4196 12.946L61.6896 14.692L62.0136 13.99C62.1336 13.726 62.2416 13.462 62.3376 13.198C62.4336 12.922 62.5296 12.688 62.6256 12.496C62.7216 12.22 62.8236 11.956 62.9316 11.704C63.0516 11.44 63.1116 11.308 63.1116 11.308C63.2196 11.152 63.3216 10.942 63.4176 10.678C63.5256 10.414 63.6216 10.15 63.7056 9.886C63.8016 9.622 63.8736 9.424 63.9216 9.292C63.9456 9.208 63.9816 9.082 64.0296 8.914C64.0896 8.746 64.1496 8.56 64.2096 8.356C64.2816 8.152 64.3476 7.954 64.4076 7.762C64.4796 7.522 64.5456 7.306 64.6056 7.114C64.6656 6.922 64.7196 6.76 64.7676 6.628C64.8156 6.484 64.8456 6.388 64.8576 6.34C64.8576 6.34 64.8816 6.31 64.9296 6.25C64.9776 6.19 65.0316 6.094 65.0916 5.962L65.7396 5.818C66.0156 6.046 66.1716 6.262 66.2076 6.466C66.2556 6.658 66.2196 6.91 66.0996 7.222C66.0876 7.342 66.0576 7.474 66.0096 7.618C65.9616 7.75 65.9376 7.816 65.9376 7.816C66.0096 7.816 66.0156 7.9 65.9556 8.068C65.9076 8.224 65.8716 8.362 65.8476 8.482C65.8236 8.566 65.7816 8.71 65.7216 8.914C65.6736 9.118 65.6196 9.334 65.5596 9.562C65.4996 9.79 65.4456 9.988 65.3976 10.156C65.3736 10.252 65.3076 10.432 65.1996 10.696C65.0916 10.948 64.9656 11.236 64.8216 11.56C64.6776 11.884 64.5276 12.214 64.3716 12.55C64.2276 12.874 64.0956 13.156 63.9756 13.396C63.8556 13.636 63.7716 13.798 63.7236 13.882C63.6876 13.954 63.6456 14.044 63.5976 14.152C63.5616 14.26 63.5136 14.344 63.4536 14.404C63.3936 14.596 63.2856 14.812 63.1296 15.052C62.9736 15.292 62.8056 15.526 62.6256 15.754C62.4576 15.982 62.3076 16.174 62.1756 16.33C62.0196 16.498 61.8636 16.624 61.7076 16.708C61.5516 16.792 61.3716 16.786 61.1676 16.69C60.9756 16.594 60.7356 16.378 60.4476 16.042C60.3876 15.946 60.3216 15.736 60.2496 15.412C60.1776 15.088 60.0996 14.716 60.0156 14.296C59.9436 13.864 59.8716 13.438 59.7996 13.018C59.7276 12.586 59.6736 12.22 59.6376 11.92C59.5896 11.68 59.5716 11.494 59.5836 11.362C59.5956 11.218 59.6016 11.068 59.6016 10.912C59.6016 10.72 59.6016 10.576 59.6016 10.48C59.6136 10.372 59.6256 10.27 59.6376 10.174C59.6496 10.066 59.6556 9.928 59.6556 9.76C59.6676 9.628 59.6616 9.55 59.6376 9.526C59.6136 9.49 59.5656 9.52 59.4936 9.616C59.2896 9.916 59.1156 10.192 58.9716 10.444C58.8276 10.696 58.7196 10.9 58.6476 11.056C58.5996 11.188 58.5096 11.41 58.3776 11.722C58.2456 12.022 58.1016 12.358 57.9456 12.73C57.7896 13.102 57.6396 13.45 57.4956 13.774C57.3636 14.098 57.2616 14.344 57.1896 14.512C57.1056 14.692 57.0156 14.938 56.9196 15.25C56.8356 15.55 56.7516 15.868 56.6676 16.204C56.5836 16.528 56.5116 16.816 56.4516 17.068C56.4036 17.32 56.3676 17.482 56.3436 17.554C56.3316 17.566 56.2896 17.638 56.2176 17.77C56.1576 17.902 56.1096 18.004 56.0736 18.076Z" fill="black"/>
<rect x="28" y="21.5" width="35" height="15" rx="7.5" fill="#A0E5E2"/>
<path d="M34.0927 30.436C34.0447 30.436 33.9847 30.436 33.9127 30.436C33.8407 30.428 33.7607 30.408 33.6727 30.376C33.5527 30.376 33.4567 30.352 33.3847 30.304C33.3207 30.248 33.2727 30.192 33.2407 30.136C33.1527 30.016 33.1567 29.924 33.2527 29.86C33.3567 29.788 33.5567 29.736 33.8527 29.704C33.9887 29.672 34.1887 29.648 34.4527 29.632C34.7247 29.608 35.0167 29.592 35.3287 29.584C35.6407 29.568 35.9367 29.556 36.2167 29.548C36.4967 29.54 36.7167 29.536 36.8767 29.536C37.0847 29.536 37.2687 29.556 37.4287 29.596C37.5967 29.636 37.7247 29.7 37.8127 29.788C37.9327 29.908 37.9607 30.036 37.8967 30.172C37.8327 30.3 37.7087 30.348 37.5247 30.316C37.4847 30.316 37.4087 30.32 37.2967 30.328C37.1847 30.336 37.0607 30.344 36.9247 30.352C36.7967 30.36 36.6847 30.368 36.5887 30.376C36.5407 30.376 36.4087 30.38 36.1927 30.388C35.9767 30.396 35.7247 30.404 35.4367 30.412C35.1567 30.42 34.8887 30.428 34.6327 30.436C34.3847 30.436 34.2047 30.436 34.0927 30.436ZM35.7007 32.308C35.5807 32.396 35.4847 32.392 35.4127 32.296C35.3487 32.192 35.3007 31.992 35.2687 31.696C35.2367 31.56 35.2087 31.36 35.1847 31.096C35.1687 30.824 35.1527 30.532 35.1367 30.22C35.1287 29.908 35.1207 29.612 35.1127 29.332C35.1047 29.052 35.1007 28.832 35.1007 28.672C35.1007 28.464 35.1207 28.28 35.1607 28.12C35.2007 27.952 35.2607 27.824 35.3407 27.736C35.4607 27.616 35.5887 27.588 35.7247 27.652C35.8607 27.716 35.9127 27.84 35.8807 28.024C35.8887 28.064 35.8927 28.14 35.8927 28.252C35.9007 28.364 35.9087 28.488 35.9167 28.624C35.9247 28.752 35.9327 28.864 35.9407 28.96C35.9407 29.008 35.9447 29.14 35.9527 29.356C35.9607 29.572 35.9687 29.824 35.9767 30.112C35.9847 30.392 35.9887 30.66 35.9887 30.916C35.9967 31.164 36.0007 31.344 36.0007 31.456C36.0007 31.504 35.9967 31.564 35.9887 31.636C35.9887 31.708 35.9727 31.788 35.9407 31.876C35.9407 31.996 35.9127 32.092 35.8567 32.164C35.8087 32.228 35.7567 32.276 35.7007 32.308ZM43.8785 32.308C43.6145 32.38 43.3625 32.408 43.1225 32.392C42.8905 32.368 42.6905 32.276 42.5225 32.116C42.4105 32.028 42.2945 31.908 42.1745 31.756C42.0625 31.604 41.9945 31.448 41.9705 31.288C41.9305 31.168 41.9065 31.072 41.8985 31C41.8905 30.928 41.8945 30.84 41.9105 30.736C41.9345 30.632 41.9665 30.472 42.0065 30.256C42.0705 29.968 42.1265 29.744 42.1745 29.584C42.2225 29.416 42.3185 29.232 42.4625 29.032C42.5265 28.864 42.5985 28.696 42.6785 28.528C42.7665 28.352 42.8305 28.24 42.8705 28.192C42.9105 28.136 42.9705 28.052 43.0505 27.94C43.1305 27.828 43.2145 27.724 43.3025 27.628C43.3825 27.524 43.4545 27.428 43.5185 27.34C43.5905 27.244 43.6265 27.196 43.6265 27.196C43.6665 27.172 43.7025 27.148 43.7345 27.124C43.7745 27.1 43.8145 27.06 43.8545 27.004C43.9185 26.932 44.0225 26.844 44.1665 26.74C44.3105 26.628 44.4745 26.516 44.6585 26.404C44.8425 26.292 45.0225 26.2 45.1985 26.128C45.3745 26.048 45.5265 26 45.6545 25.984C45.9105 25.896 46.0305 25.9 46.0145 25.996C46.0145 25.996 46.0545 26.04 46.1345 26.128C46.2225 26.208 46.2985 26.256 46.3625 26.272C46.3945 26.28 46.4185 26.308 46.4345 26.356C46.4585 26.396 46.4825 26.436 46.5065 26.476C46.5225 26.54 46.4905 26.628 46.4105 26.74C46.3305 26.844 46.2345 26.948 46.1225 27.052C46.0105 27.132 45.9305 27.176 45.8825 27.184C45.8425 27.192 45.8065 27.18 45.7745 27.148C45.7825 27.116 45.7665 27.096 45.7265 27.088C45.6865 27.072 45.6665 27.064 45.6665 27.064C45.6185 27.048 45.5265 27.064 45.3905 27.112C45.2625 27.152 45.1225 27.22 44.9705 27.316C44.8265 27.404 44.6945 27.512 44.5745 27.64C44.5025 27.704 44.4385 27.768 44.3825 27.832C44.3265 27.896 44.2905 27.944 44.2745 27.976C44.1705 28.08 44.0785 28.184 43.9985 28.288C43.9185 28.384 43.8785 28.432 43.8785 28.432C43.9025 28.48 43.9585 28.492 44.0465 28.468C44.1425 28.444 44.1945 28.416 44.2025 28.384C44.2025 28.352 44.2905 28.312 44.4665 28.264C44.6505 28.208 44.8345 28.172 45.0185 28.156C45.0905 28.124 45.1865 28.12 45.3065 28.144C45.4345 28.168 45.5385 28.188 45.6185 28.204C45.7945 28.236 45.9145 28.268 45.9785 28.3C46.0425 28.332 46.1225 28.408 46.2185 28.528C46.3785 28.68 46.4865 28.844 46.5425 29.02C46.6065 29.196 46.6345 29.388 46.6265 29.596C46.6265 29.724 46.6145 29.836 46.5905 29.932C46.5665 30.028 46.5105 30.128 46.4225 30.232C46.3585 30.336 46.2745 30.468 46.1705 30.628C46.0665 30.78 45.9625 30.92 45.8585 31.048C45.7625 31.176 45.6785 31.264 45.6065 31.312C45.5745 31.328 45.5425 31.348 45.5105 31.372C45.4865 31.388 45.4745 31.396 45.4745 31.396C45.4665 31.444 45.4025 31.512 45.2825 31.6C45.1705 31.68 45.0265 31.772 44.8505 31.876C44.6825 31.972 44.5105 32.06 44.3345 32.14C44.1585 32.22 44.0065 32.276 43.8785 32.308ZM43.1585 31.384C43.2865 31.4 43.3825 31.412 43.4465 31.42C43.5105 31.42 43.6305 31.384 43.8065 31.312C43.8705 31.296 43.9265 31.28 43.9745 31.264C44.0225 31.248 44.0585 31.244 44.0825 31.252C44.0825 31.252 44.1305 31.22 44.2265 31.156C44.3305 31.084 44.4465 31.008 44.5745 30.928C44.9505 30.696 45.2305 30.444 45.4145 30.172C45.5985 29.892 45.6705 29.656 45.6305 29.464C45.6385 29.416 45.6305 29.364 45.6065 29.308C45.5825 29.244 45.5705 29.204 45.5705 29.188C45.5545 29.188 45.5185 29.18 45.4625 29.164C45.4145 29.148 45.3545 29.136 45.2825 29.128C45.2025 29.104 45.1265 29.092 45.0545 29.092C44.9825 29.092 44.8705 29.108 44.7185 29.14C44.5745 29.164 44.3425 29.216 44.0225 29.296C43.9665 29.304 43.9065 29.324 43.8425 29.356C43.7865 29.38 43.7265 29.4 43.6625 29.416C43.6465 29.44 43.6065 29.468 43.5425 29.5C43.4785 29.532 43.4265 29.556 43.3865 29.572C43.3065 29.58 43.2385 29.644 43.1825 29.764C43.1265 29.884 43.0585 30.12 42.9785 30.472C42.9385 30.72 42.9105 30.884 42.8945 30.964C42.8865 31.044 42.8985 31.112 42.9305 31.168C42.9465 31.248 42.9745 31.3 43.0145 31.324C43.0545 31.348 43.1025 31.368 43.1585 31.384ZM47.9069 31.876C47.7389 31.932 47.5989 31.96 47.4869 31.96C47.3749 31.952 47.2509 31.9 47.1149 31.804C46.9549 31.644 46.8989 31.484 46.9469 31.324C47.0029 31.156 47.1469 30.992 47.3789 30.832C47.5389 30.736 47.6549 30.688 47.7269 30.688C47.8069 30.68 47.9229 30.708 48.0749 30.772C48.3469 30.94 48.4669 31.128 48.4349 31.336C48.4029 31.536 48.2269 31.716 47.9069 31.876ZM50.2858 32.404C50.2538 32.388 50.1978 32.344 50.1178 32.272C50.0458 32.2 49.9738 32.12 49.9018 32.032C49.8298 31.936 49.7818 31.864 49.7578 31.816C49.7338 31.776 49.7338 31.704 49.7578 31.6C49.7898 31.496 49.8218 31.444 49.8538 31.444C49.8778 31.46 49.9098 31.432 49.9498 31.36C49.9898 31.288 50.0298 31.212 50.0698 31.132C50.1098 31.044 50.1298 30.992 50.1298 30.976C50.1378 30.944 50.1578 30.92 50.1898 30.904C50.2298 30.88 50.2658 30.856 50.2978 30.832C50.3378 30.768 50.3898 30.704 50.4538 30.64C50.5258 30.568 50.5818 30.508 50.6218 30.46C50.6858 30.38 50.8018 30.26 50.9698 30.1C51.1378 29.94 51.3018 29.776 51.4618 29.608C51.6298 29.424 51.7778 29.264 51.9058 29.128C52.0338 28.984 52.1018 28.884 52.1098 28.828C52.1098 28.828 52.1218 28.816 52.1458 28.792C52.1778 28.76 52.2138 28.732 52.2538 28.708C52.2938 28.684 52.3458 28.644 52.4098 28.588C52.4818 28.532 52.5418 28.48 52.5898 28.432C52.6058 28.368 52.6418 28.296 52.6978 28.216C52.7618 28.128 52.8338 28.044 52.9138 27.964C52.9778 27.868 53.0378 27.764 53.0938 27.652C53.1498 27.532 53.1858 27.444 53.2018 27.388C53.2258 27.3 53.2178 27.248 53.1778 27.232C53.1378 27.208 53.0298 27.168 52.8538 27.112C52.6618 27.048 52.4818 27.036 52.3138 27.076C52.1458 27.116 51.9218 27.236 51.6418 27.436C51.5298 27.46 51.4258 27.492 51.3298 27.532C51.2418 27.572 51.1658 27.588 51.1018 27.58C51.0698 27.564 51.0338 27.528 50.9938 27.472C50.9538 27.416 50.9098 27.364 50.8618 27.316L50.7418 26.8L51.1138 26.596C51.4418 26.388 51.7538 26.232 52.0498 26.128C52.3538 26.016 52.6178 25.996 52.8418 26.068C52.9298 26.068 53.0098 26.08 53.0818 26.104C53.1538 26.12 53.1898 26.128 53.1898 26.128C53.2538 26.12 53.3458 26.152 53.4658 26.224C53.5938 26.296 53.7178 26.388 53.8378 26.5C53.9658 26.612 54.0538 26.724 54.1018 26.836C54.2298 27.028 54.2778 27.26 54.2458 27.532C54.2138 27.804 54.0978 28.088 53.8978 28.384C53.8578 28.432 53.7698 28.532 53.6338 28.684C53.4978 28.836 53.3418 29.008 53.1658 29.2C52.9978 29.384 52.8418 29.548 52.6978 29.692C52.5618 29.836 52.4738 29.928 52.4338 29.968C52.3778 29.992 52.2818 30.068 52.1458 30.196C52.0178 30.324 51.8778 30.468 51.7258 30.628C51.5818 30.78 51.4578 30.916 51.3538 31.036C51.2578 31.148 51.2178 31.204 51.2338 31.204C51.2258 31.236 51.2658 31.236 51.3538 31.204C51.4498 31.164 51.5338 31.132 51.6058 31.108C51.7258 31.068 51.8658 31.032 52.0258 31C52.1938 30.96 52.3618 30.928 52.5298 30.904C52.6978 30.88 52.8418 30.864 52.9618 30.856C53.0898 30.848 53.1658 30.856 53.1898 30.88C53.2058 30.92 53.2178 30.936 53.2258 30.928C53.2418 30.912 53.2498 30.904 53.2498 30.904C53.2658 30.848 53.3658 30.832 53.5498 30.856C53.7418 30.88 53.9138 30.916 54.0658 30.964C54.1538 30.988 54.2218 31.02 54.2698 31.06C54.3258 31.1 54.3538 31.136 54.3538 31.168C54.3538 31.168 54.3618 31.188 54.3778 31.228C54.4018 31.26 54.4378 31.304 54.4858 31.36C54.6138 31.464 54.6138 31.576 54.4858 31.696C54.3658 31.816 54.1458 31.848 53.8258 31.792C53.6178 31.792 53.4458 31.804 53.3098 31.828C53.2778 31.844 53.2098 31.852 53.1058 31.852C53.0018 31.852 52.9018 31.856 52.8058 31.864C52.6618 31.848 52.5178 31.856 52.3738 31.888C52.2298 31.912 52.0578 31.956 51.8578 32.02C51.7858 32.044 51.6738 32.08 51.5218 32.128C51.3698 32.176 51.2058 32.224 51.0298 32.272C50.8538 32.32 50.6938 32.356 50.5498 32.38C50.4138 32.404 50.3258 32.412 50.2858 32.404ZM55.7961 32.308C55.6521 32.204 55.5801 32.116 55.5801 32.044C55.5481 31.996 55.5121 31.972 55.4721 31.972C55.4481 31.98 55.4241 31.94 55.4001 31.852C55.3841 31.764 55.3681 31.668 55.3521 31.564C55.3441 31.46 55.3441 31.392 55.3521 31.36C55.3841 31.296 55.4441 31.248 55.5321 31.216C55.6281 31.184 55.7201 31.172 55.8081 31.18C55.9041 31.18 55.9561 31.212 55.9641 31.276C55.9801 31.34 56.0401 31.392 56.1441 31.432C56.2561 31.472 56.4001 31.488 56.5761 31.48C56.8001 31.472 57.0041 31.436 57.1881 31.372C57.3801 31.308 57.5521 31.216 57.7041 31.096C57.8641 30.976 58.0081 30.832 58.1361 30.664C58.1921 30.552 58.2441 30.404 58.2921 30.22C58.3401 30.036 58.3721 29.872 58.3881 29.728C58.4041 29.584 58.3921 29.512 58.3521 29.512C58.3521 29.512 58.3441 29.484 58.3281 29.428C58.3201 29.372 58.3041 29.312 58.2801 29.248C58.2401 29.128 58.1481 29.008 58.0041 28.888C57.8601 28.76 57.7201 28.668 57.5841 28.612C57.5281 28.596 57.4121 28.596 57.2361 28.612C57.0601 28.628 56.9121 28.644 56.7921 28.66C56.6641 28.668 56.5881 28.668 56.5641 28.66C56.5481 28.644 56.5401 28.636 56.5401 28.636C56.5001 28.628 56.4321 28.588 56.3361 28.516C56.2481 28.444 56.1641 28.368 56.0841 28.288C56.0121 28.208 55.9761 28.148 55.9761 28.108C55.9921 28.052 56.0361 27.956 56.1081 27.82C56.1801 27.684 56.2681 27.536 56.3721 27.376C56.4841 27.216 56.5961 27.06 56.7081 26.908C56.8201 26.756 56.9241 26.632 57.0201 26.536C57.2601 26.272 57.5481 26.076 57.8841 25.948C58.2201 25.812 58.5521 25.752 58.8801 25.768C59.1121 25.776 59.2841 25.808 59.3961 25.864C59.5161 25.912 59.6241 26 59.7201 26.128C59.7841 26.24 59.8081 26.356 59.7921 26.476C59.7761 26.596 59.7361 26.688 59.6721 26.752C59.6081 26.816 59.5281 26.824 59.4321 26.776C59.3201 26.704 59.1681 26.676 58.9761 26.692C58.7841 26.708 58.5801 26.748 58.3641 26.812C58.1961 26.876 58.0601 26.932 57.9561 26.98C57.8521 27.02 57.7801 27.084 57.7401 27.172C57.7081 27.196 57.6841 27.22 57.6681 27.244C57.6601 27.268 57.6401 27.276 57.6081 27.268C57.6081 27.268 57.5961 27.284 57.5721 27.316C57.5481 27.34 57.5361 27.368 57.5361 27.4C57.4961 27.448 57.4681 27.484 57.4521 27.508C57.4441 27.524 57.4241 27.516 57.3921 27.484C57.3921 27.484 57.3921 27.496 57.3921 27.52C57.3921 27.544 57.3881 27.572 57.3801 27.604C57.3721 27.66 57.3881 27.7 57.4281 27.724C57.4761 27.74 57.5761 27.756 57.7281 27.772C57.9281 27.804 58.0761 27.836 58.1721 27.868C58.2761 27.892 58.4281 27.964 58.6281 28.084C58.8521 28.212 59.0161 28.404 59.1201 28.66C59.2321 28.908 59.2961 29.184 59.3121 29.488C59.3361 29.784 59.3281 30.068 59.2881 30.34C59.2641 30.516 59.2401 30.652 59.2161 30.748C59.1921 30.844 59.1241 30.976 59.0121 31.144C58.8281 31.4 58.5921 31.628 58.3041 31.828C58.0161 32.02 57.7121 32.172 57.3921 32.284C57.0721 32.396 56.7681 32.46 56.4801 32.476C56.2001 32.484 55.9721 32.428 55.7961 32.308Z" fill="black"/>
</svg>
