<svg width="24" height="24" viewBox="0 0 24 24" fill="none" xmlns="http://www.w3.org/2000/svg">
<path fill-rule="evenodd" clip-rule="evenodd" d="M13.3197 4.02185C13.3147 4.0233 13.3092 4.02499 13.3032 4.02697C13.2618 4.04065 13.2061 4.06494 13.1371 4.10476C12.8341 4.27944 12.5046 4.61571 12.3001 4.88844C12.0921 5.1657 11.7554 5.31552 11.4103 5.2844C11.0651 5.25327 10.7606 5.04564 10.6056 4.73565C10.4914 4.50719 10.3662 4.403 10.2608 4.34655C10.1453 4.2847 9.98921 4.24689 9.7812 4.25077C9.70406 4.2522 9.62504 4.25931 9.54546 4.27108C9.92778 5.07378 10.0469 5.93865 10.0375 6.7131C10.0307 7.26685 9.9588 7.8038 9.85408 8.28844H15.7055C15.4703 6.53208 16.1927 5.1816 16.793 4.58134C16.8104 4.5639 16.8459 4.52181 16.879 4.46218C16.9115 4.4038 16.9306 4.34851 16.9381 4.30276C16.9448 4.26143 16.9423 4.22847 16.9318 4.19579C16.9218 4.16446 16.8929 4.0967 16.7974 4.00004C16.7918 4.00032 16.7849 4.00083 16.7766 4.00169C16.6446 4.01559 16.468 4.0783 16.1215 4.21692C16.1073 4.22257 16.0928 4.22841 16.0778 4.23442C15.7975 4.34695 15.3712 4.51806 14.9329 4.5642C14.4062 4.61964 13.8173 4.50299 13.3197 4.02185ZM16.3216 10.2884H8.98594C8.22493 11.2708 6.87591 13.1056 5.85751 14.8029C5.31138 15.7131 5.38887 16.6109 5.72867 17.3876C6.09298 18.2203 6.69819 18.7695 6.94723 18.894C7.08147 18.9611 7.47904 19.0963 8.15375 19.2514C8.79842 19.3996 9.6255 19.5504 10.5655 19.6717C12.4514 19.915 14.7424 20.0331 16.8896 19.7946C18.8553 19.5761 19.7899 18.7407 20.2402 17.8852C20.7231 16.9676 20.7364 15.8568 20.5299 15.031C20.4622 14.7601 20.2721 14.436 19.9118 14.0341C19.5535 13.6346 19.1022 13.2378 18.5916 12.791L18.5678 12.7702C18.0845 12.3474 17.5462 11.8764 17.0993 11.3779C16.8133 11.0589 16.5342 10.6963 16.3216 10.2884ZM8.02222 7.03169C8.03089 6.91843 8.03622 6.80388 8.03762 6.68878C8.04829 5.81111 7.83268 5.03526 7.29296 4.49555C7.07522 4.2778 6.96994 3.97189 7.00756 3.66626C7.04519 3.36063 7.22152 3.08938 7.48557 2.93095C7.99833 2.62329 8.84458 2.26787 9.74394 2.25111C10.2068 2.24249 10.7194 2.32343 11.205 2.58345C11.3218 2.64603 11.4338 2.71724 11.5405 2.79703C11.7245 2.64141 11.9254 2.49478 12.1381 2.37213C12.4523 2.19098 12.8615 2.02189 13.3244 2.01361C13.8234 2.00468 14.3093 2.18575 14.7027 2.57684C14.7083 2.57656 14.7153 2.57606 14.7235 2.57519C14.8555 2.56129 15.0321 2.49858 15.3787 2.35997C15.3928 2.35432 15.4074 2.34847 15.4223 2.34246C15.7027 2.22994 16.129 2.05882 16.5673 2.01268C17.1034 1.95625 17.704 2.07814 18.2072 2.58133C18.8376 3.21179 19.0214 3.95261 18.9121 4.62411C18.8129 5.23361 18.487 5.71573 18.2072 5.99555C17.9558 6.24692 17.2943 7.33145 17.9285 8.91705C17.9453 8.95901 17.9593 9.00206 17.9702 9.0459C18.0379 9.3168 18.2281 9.64089 18.5884 10.0428C18.9466 10.4423 19.3979 10.839 19.9086 11.2859L19.9323 11.3066C20.4156 11.7295 20.9539 12.2005 21.4009 12.699C21.8531 13.2034 22.2879 13.8168 22.4702 14.5459C22.7638 15.7201 22.777 17.3593 22.01 18.8167C21.2103 20.3361 19.6448 21.5007 17.1105 21.7823C14.7577 22.0437 12.2987 21.9119 10.3096 21.6552C9.31207 21.5265 8.42038 21.3648 7.70567 21.2005C7.021 21.0431 6.41856 20.8657 6.0528 20.6829C5.30184 20.3074 4.40705 19.3566 3.89636 18.1893C3.36116 16.966 3.18865 15.3637 4.14252 13.7739C4.99259 12.3572 6.04824 10.8677 6.84489 9.80066C6.54684 9.73084 6.23261 9.67532 5.92123 9.64676C5.04505 9.56641 4.48035 9.72238 4.20718 9.99555C3.81665 10.3861 3.18349 10.3861 2.79296 9.99555C2.40244 9.60502 2.40244 8.97186 2.79296 8.58133C3.05932 8.31497 3.3608 8.11739 3.6797 7.97331C3.17423 7.76362 2.7821 7.45375 2.49884 7.05718C1.99796 6.35595 1.9995 5.58197 2.00004 5.3119C2.00006 5.3036 2.00007 5.29577 2.00007 5.28844C2.00007 4.73616 2.44779 4.28844 3.00007 4.28844C3.55236 4.28844 4.00007 4.73616 4.00007 5.28844C4.00007 5.54257 4.01758 5.74249 4.1263 5.8947C4.18998 5.98385 4.45117 6.28844 5.50007 6.28844C6.57429 6.28844 7.40343 6.59754 8.02222 7.03169Z" fill="black"/>
</svg>
