<svg width="125" height="39" viewBox="0 0 125 39" fill="none" xmlns="http://www.w3.org/2000/svg">
<path d="M6.92691 31.66C6.06691 31.1 5.55691 30.54 5.39691 29.98C5.25691 29.42 5.45691 28.97 5.99691 28.63C6.11691 28.55 6.34691 28.54 6.68691 28.6C7.04691 28.66 7.31691 28.78 7.49691 28.96C7.89691 29.32 8.34691 29.54 8.84691 29.62C9.36691 29.72 9.99691 29.67 10.7369 29.47C11.5769 29.21 12.2169 28.89 12.6569 28.51C13.1169 28.11 13.6269 27.57 14.1869 26.89C14.6069 26.35 14.8969 25.82 15.0569 25.3C15.2369 24.78 15.3169 24.31 15.2969 23.89C15.2969 23.45 15.1969 23.12 14.9969 22.9C14.4969 22.2 13.8769 21.72 13.1369 21.46C12.3969 21.18 11.4269 21.2 10.2269 21.52C10.0869 21.54 9.87691 21.58 9.59691 21.64C9.31691 21.7 9.06691 21.76 8.84691 21.82C8.62691 21.86 8.50691 21.88 8.48691 21.88C8.34691 21.92 8.23691 21.94 8.15691 21.94C8.07691 21.94 7.97691 22.04 7.85691 22.24C7.75691 22.42 7.59691 22.81 7.37691 23.41C7.15691 23.99 6.82691 24.89 6.38691 26.11C5.96691 27.33 5.60691 28.2 5.30691 28.72C5.02691 29.22 4.77691 29.45 4.55691 29.41C4.33691 29.35 4.08691 29.13 3.80691 28.75C3.64691 28.47 3.46691 28.16 3.26691 27.82C3.08691 27.48 3.09691 27.13 3.29691 26.77C3.39691 26.59 3.47691 26.43 3.53691 26.29C3.59691 26.13 3.67691 25.86 3.77691 25.48C3.87691 25.18 4.06691 24.66 4.34691 23.92C4.64691 23.16 4.99691 22.28 5.39691 21.28C5.79691 20.26 6.21691 19.21 6.65691 18.13C7.09691 17.05 7.51691 16.03 7.91691 15.07C8.33691 14.11 8.68691 13.3 8.96691 12.64C9.24691 12.02 9.41691 11.57 9.47691 11.29C9.53691 11.01 9.51691 10.86 9.41691 10.84C9.41691 10.74 9.38691 10.65 9.32691 10.57C9.26691 10.47 9.24691 10.38 9.26691 10.3C9.26691 10.22 9.43691 10.11 9.77691 9.97C10.1369 9.83 10.5169 9.7 10.9169 9.58C11.3169 9.46 11.6069 9.42 11.7869 9.46C11.8869 9.46 12.0069 9.46 12.1469 9.46C12.2869 9.44 12.3569 9.39 12.3569 9.31C12.4169 9.31 12.6069 9.29 12.9269 9.25C13.2469 9.21 13.5969 9.21 13.9769 9.25C15.3169 9.37 16.4169 9.76 17.2769 10.42C18.1369 11.06 18.5569 12.09 18.5369 13.51C18.5169 13.85 18.3769 14.29 18.1169 14.83C17.8569 15.37 17.5269 15.91 17.1269 16.45C16.7469 16.99 16.3369 17.46 15.8969 17.86C15.6369 18.08 15.3569 18.31 15.0569 18.55C14.7769 18.77 14.5269 18.96 14.3069 19.12C14.1069 19.26 14.0069 19.33 14.0069 19.33C14.0069 19.33 14.0869 19.36 14.2469 19.42C14.4069 19.48 14.5769 19.54 14.7569 19.6C15.6769 19.94 16.3969 20.37 16.9169 20.89C17.4569 21.41 17.8369 22.13 18.0569 23.05C18.1369 23.35 18.1369 23.72 18.0569 24.16C17.9969 24.6 17.9069 25.04 17.7869 25.48C17.6669 25.9 17.5369 26.26 17.3969 26.56C17.2569 26.7 17.1469 26.85 17.0669 27.01C16.9869 27.15 16.9469 27.22 16.9469 27.22C16.9469 27.26 16.8669 27.42 16.7069 27.7C16.5469 27.96 16.3569 28.25 16.1369 28.57C15.9169 28.89 15.7069 29.17 15.5069 29.41C15.3069 29.57 15.0169 29.79 14.6369 30.07C14.2769 30.37 13.8769 30.66 13.4369 30.94C13.0169 31.22 12.6169 31.43 12.2369 31.57C11.6769 31.81 11.0469 31.97 10.3469 32.05C9.66691 32.15 9.01691 32.16 8.39691 32.08C7.77691 32.02 7.28691 31.88 6.92691 31.66ZM9.08691 19.21C9.08691 19.21 9.24691 19.18 9.56691 19.12C9.90691 19.04 10.2769 18.96 10.6769 18.88C11.0769 18.78 11.3769 18.69 11.5769 18.61C11.6769 18.55 11.8169 18.47 11.9969 18.37C12.1969 18.27 12.3969 18.12 12.5969 17.92C12.8769 17.66 13.1769 17.37 13.4969 17.05C13.8169 16.71 14.1269 16.35 14.4269 15.97C14.7469 15.59 15.0169 15.18 15.2369 14.74C15.6969 14.02 15.9469 13.5 15.9869 13.18C16.0269 12.86 15.9169 12.57 15.6569 12.31C15.4769 12.09 15.2269 11.93 14.9069 11.83C14.5869 11.71 14.2369 11.65 13.8569 11.65C13.4969 11.63 13.1469 11.67 12.8069 11.77C12.5469 11.85 12.3469 11.95 12.2069 12.07C12.0669 12.17 11.9969 12.33 11.9969 12.55C11.9969 12.73 11.9369 12.92 11.8169 13.12C11.7169 13.3 11.6169 13.44 11.5169 13.54C11.4969 13.68 11.4269 13.82 11.3069 13.96C11.2069 14.08 11.1569 14.14 11.1569 14.14C11.1569 14.22 11.0269 14.47 10.7669 14.89C10.5269 15.29 10.2669 15.87 9.98691 16.63C9.62691 17.49 9.38691 18.11 9.26691 18.49C9.14691 18.87 9.08691 19.11 9.08691 19.21ZM23.2614 29.95C23.0214 29.97 22.7814 29.97 22.5414 29.95C22.3214 29.93 22.1014 29.9 21.8814 29.86C21.1214 29.66 20.5314 29.41 20.1114 29.11C19.6914 28.79 19.2514 28.35 18.7914 27.79C18.7914 27.39 18.8514 26.87 18.9714 26.23C19.1114 25.59 19.2814 24.92 19.4814 24.22C19.6614 23.56 19.8614 22.92 20.0814 22.3C20.3214 21.66 20.5514 21.09 20.7714 20.59C21.0514 19.77 21.3614 18.93 21.7014 18.07C22.0414 17.19 22.4014 16.32 22.7814 15.46C22.9014 15.16 23.0214 14.86 23.1414 14.56C23.2814 14.24 23.4214 13.94 23.5614 13.66C23.7414 13.24 23.9414 12.8 24.1614 12.34C24.4014 11.88 24.6214 11.46 24.8214 11.08C25.0414 10.7 25.2014 10.41 25.3014 10.21C25.5214 9.79 25.6614 9.51 25.7214 9.37C25.8014 9.23 25.8714 9.06 25.9314 8.86C26.0114 8.5 26.1314 8.26 26.2914 8.14C26.4514 8 26.6914 7.84 27.0114 7.66C27.4714 7.72 27.7914 7.83 27.9714 7.99C28.1514 8.15 28.4214 8.45 28.7814 8.89C28.7814 9.15 28.7814 9.41 28.7814 9.67C28.7814 9.93 28.6714 10.2 28.4514 10.48C28.3114 10.74 28.1614 11.02 28.0014 11.32C27.8614 11.62 27.7114 11.92 27.5514 12.22C27.4114 12.52 27.2614 12.81 27.1014 13.09C26.9614 13.37 26.8214 13.63 26.6814 13.87C26.5614 14.11 26.4514 14.31 26.3514 14.47C26.9114 14.61 27.4814 14.86 28.0614 15.22C28.6414 15.58 29.2014 16.04 29.7414 16.6C30.2814 17.14 30.7714 17.76 31.2114 18.46C31.7314 19.28 31.9814 20.15 31.9614 21.07C31.9614 21.97 31.8114 22.82 31.5114 23.62C31.2314 24.4 30.9114 25.03 30.5514 25.51C30.2514 25.93 29.8914 26.35 29.4714 26.77C29.0514 27.17 28.6014 27.56 28.1214 27.94C27.6414 28.3 27.1314 28.63 26.5914 28.93C26.0514 29.21 25.5114 29.44 24.9714 29.62L23.2614 29.95ZM34.9914 29.41C34.7314 29.51 34.4614 29.54 34.1814 29.5C33.9014 29.48 33.5514 29.4 33.1314 29.26C32.8914 29 32.7314 28.76 32.6514 28.54C32.5714 28.3 32.5714 27.96 32.6514 27.52C32.7114 27.26 32.8314 26.82 33.0114 26.2C33.2114 25.58 33.4414 24.87 33.7014 24.07C33.9814 23.25 34.2714 22.41 34.5714 21.55C34.8914 20.67 35.1914 19.85 35.4714 19.09C35.7514 18.31 36.0014 17.66 36.2214 17.14C36.4414 16.6 36.6014 16.26 36.7014 16.12C36.8014 15.96 36.8614 15.79 36.8814 15.61C37.0014 15.29 37.1214 14.97 37.2414 14.65C37.3614 14.33 37.4714 14.02 37.5714 13.72C37.6914 13.4 37.8114 13.08 37.9314 12.76C38.0514 12.44 38.1714 12.12 38.2914 11.8C38.3914 11.52 38.4914 11.25 38.5914 10.99C38.6914 10.73 38.7814 10.47 38.8614 10.21C39.1414 9.83 39.5414 9.73 40.0614 9.91C40.5814 10.07 41.0614 10.44 41.5014 11.02C41.5814 11.32 41.5514 11.66 41.4114 12.04C41.2914 12.42 41.2014 12.69 41.1414 12.85C40.9614 13.35 40.7714 13.84 40.5714 14.32C40.3914 14.78 40.1914 15.24 39.9714 15.7C39.8114 16.1 39.6414 16.5 39.4614 16.9C39.3014 17.3 39.1314 17.71 38.9514 18.13C38.7714 18.55 38.5914 18.97 38.4114 19.39C38.2514 19.81 38.0814 20.24 37.9014 20.68C37.7814 20.98 37.6614 21.28 37.5414 21.58C37.4414 21.86 37.3314 22.16 37.2114 22.48C37.1114 22.78 37.0114 23.09 36.9114 23.41C36.8114 23.71 36.7114 24.02 36.6114 24.34C36.3714 25.08 36.1914 25.68 36.0714 26.14C35.9514 26.6 35.8514 26.99 35.7714 27.31C35.7114 27.61 35.6214 27.92 35.5014 28.24C35.4014 28.54 35.2314 28.93 34.9914 29.41ZM23.0514 27.13C23.4314 27.09 23.8014 27 24.1614 26.86C24.5214 26.7 24.9414 26.46 25.4214 26.14C25.8414 25.88 26.2514 25.59 26.6514 25.27C27.0514 24.93 27.4114 24.59 27.7314 24.25C28.0514 23.91 28.2914 23.6 28.4514 23.32C28.7314 22.86 28.9314 22.42 29.0514 22C29.1714 21.58 29.2114 21.17 29.1714 20.77C29.1714 20.13 29.1014 19.64 28.9614 19.3C28.8414 18.94 28.5614 18.51 28.1214 18.01C28.0214 17.87 27.8514 17.73 27.6114 17.59C27.3914 17.43 27.1014 17.27 26.7414 17.11C26.3814 16.93 25.9314 16.73 25.3914 16.51C25.1914 17.01 24.9814 17.52 24.7614 18.04C24.5414 18.54 24.3514 19.02 24.1914 19.48C24.1314 19.62 24.0714 19.77 24.0114 19.93C23.9514 20.09 23.8914 20.25 23.8314 20.41C23.7714 20.55 23.7114 20.7 23.6514 20.86C23.5914 21 23.5314 21.15 23.4714 21.31C23.1914 22.21 22.8914 23.13 22.5714 24.07C22.2714 24.99 22.0114 25.98 21.7914 27.04C22.0314 27.08 22.2514 27.11 22.4514 27.13C22.6714 27.15 22.8714 27.15 23.0514 27.13ZM42.4347 31.66C41.5747 31.1 41.0647 30.54 40.9047 29.98C40.7647 29.42 40.9647 28.97 41.5047 28.63C41.6247 28.55 41.8547 28.54 42.1947 28.6C42.5547 28.66 42.8247 28.78 43.0047 28.96C43.4047 29.32 43.8547 29.54 44.3547 29.62C44.8747 29.72 45.5047 29.67 46.2447 29.47C47.0847 29.21 47.7247 28.89 48.1647 28.51C48.6247 28.11 49.1347 27.57 49.6947 26.89C50.1147 26.35 50.4047 25.82 50.5647 25.3C50.7447 24.78 50.8247 24.31 50.8047 23.89C50.8047 23.45 50.7047 23.12 50.5047 22.9C50.0047 22.2 49.3847 21.72 48.6447 21.46C47.9047 21.18 46.9347 21.2 45.7347 21.52C45.5947 21.54 45.3847 21.58 45.1047 21.64C44.8247 21.7 44.5747 21.76 44.3547 21.82C44.1347 21.86 44.0147 21.88 43.9947 21.88C43.8547 21.92 43.7447 21.94 43.6647 21.94C43.5847 21.94 43.4847 22.04 43.3647 22.24C43.2647 22.42 43.1047 22.81 42.8847 23.41C42.6647 23.99 42.3347 24.89 41.8947 26.11C41.4747 27.33 41.1147 28.2 40.8147 28.72C40.5347 29.22 40.2847 29.45 40.0647 29.41C39.8447 29.35 39.5947 29.13 39.3147 28.75C39.1547 28.47 38.9747 28.16 38.7747 27.82C38.5947 27.48 38.6047 27.13 38.8047 26.77C38.9047 26.59 38.9847 26.43 39.0447 26.29C39.1047 26.13 39.1847 25.86 39.2847 25.48C39.3847 25.18 39.5747 24.66 39.8547 23.92C40.1547 23.16 40.5047 22.28 40.9047 21.28C41.3047 20.26 41.7247 19.21 42.1647 18.13C42.6047 17.05 43.0247 16.03 43.4247 15.07C43.8447 14.11 44.1947 13.3 44.4747 12.64C44.7547 12.02 44.9247 11.57 44.9847 11.29C45.0447 11.01 45.0247 10.86 44.9247 10.84C44.9247 10.74 44.8947 10.65 44.8347 10.57C44.7747 10.47 44.7547 10.38 44.7747 10.3C44.7747 10.22 44.9447 10.11 45.2847 9.97C45.6447 9.83 46.0247 9.7 46.4247 9.58C46.8247 9.46 47.1147 9.42 47.2947 9.46C47.3947 9.46 47.5147 9.46 47.6547 9.46C47.7947 9.44 47.8647 9.39 47.8647 9.31C47.9247 9.31 48.1147 9.29 48.4347 9.25C48.7547 9.21 49.1047 9.21 49.4847 9.25C50.8247 9.37 51.9247 9.76 52.7847 10.42C53.6447 11.06 54.0647 12.09 54.0447 13.51C54.0247 13.85 53.8847 14.29 53.6247 14.83C53.3647 15.37 53.0347 15.91 52.6347 16.45C52.2547 16.99 51.8447 17.46 51.4047 17.86C51.1447 18.08 50.8647 18.31 50.5647 18.55C50.2847 18.77 50.0347 18.96 49.8147 19.12C49.6147 19.26 49.5147 19.33 49.5147 19.33C49.5147 19.33 49.5947 19.36 49.7547 19.42C49.9147 19.48 50.0847 19.54 50.2647 19.6C51.1847 19.94 51.9047 20.37 52.4247 20.89C52.9647 21.41 53.3447 22.13 53.5647 23.05C53.6447 23.35 53.6447 23.72 53.5647 24.16C53.5047 24.6 53.4147 25.04 53.2947 25.48C53.1747 25.9 53.0447 26.26 52.9047 26.56C52.7647 26.7 52.6547 26.85 52.5747 27.01C52.4947 27.15 52.4547 27.22 52.4547 27.22C52.4547 27.26 52.3747 27.42 52.2147 27.7C52.0547 27.96 51.8647 28.25 51.6447 28.57C51.4247 28.89 51.2147 29.17 51.0147 29.41C50.8147 29.57 50.5247 29.79 50.1447 30.07C49.7847 30.37 49.3847 30.66 48.9447 30.94C48.5247 31.22 48.1247 31.43 47.7447 31.57C47.1847 31.81 46.5547 31.97 45.8547 32.05C45.1747 32.15 44.5247 32.16 43.9047 32.08C43.2847 32.02 42.7947 31.88 42.4347 31.66ZM44.5947 19.21C44.5947 19.21 44.7547 19.18 45.0747 19.12C45.4147 19.04 45.7847 18.96 46.1847 18.88C46.5847 18.78 46.8847 18.69 47.0847 18.61C47.1847 18.55 47.3247 18.47 47.5047 18.37C47.7047 18.27 47.9047 18.12 48.1047 17.92C48.3847 17.66 48.6847 17.37 49.0047 17.05C49.3247 16.71 49.6347 16.35 49.9347 15.97C50.2547 15.59 50.5247 15.18 50.7447 14.74C51.2047 14.02 51.4547 13.5 51.4947 13.18C51.5347 12.86 51.4247 12.57 51.1647 12.31C50.9847 12.09 50.7347 11.93 50.4147 11.83C50.0947 11.71 49.7447 11.65 49.3647 11.65C49.0047 11.63 48.6547 11.67 48.3147 11.77C48.0547 11.85 47.8547 11.95 47.7147 12.07C47.5747 12.17 47.5047 12.33 47.5047 12.55C47.5047 12.73 47.4447 12.92 47.3247 13.12C47.2247 13.3 47.1247 13.44 47.0247 13.54C47.0047 13.68 46.9347 13.82 46.8147 13.96C46.7147 14.08 46.6647 14.14 46.6647 14.14C46.6647 14.22 46.5347 14.47 46.2747 14.89C46.0347 15.29 45.7747 15.87 45.4947 16.63C45.1347 17.49 44.8947 18.11 44.7747 18.49C44.6547 18.87 44.5947 19.11 44.5947 19.21ZM59.1593 30.67C58.5393 30.63 57.9193 30.4 57.2993 29.98C56.6793 29.58 56.1093 29.2 55.5893 28.84C55.2493 28.5 54.9893 28.14 54.8093 27.76C54.6293 27.36 54.4793 26.84 54.3593 26.2C54.2793 25.82 54.2793 25.32 54.3593 24.7C54.4393 24.08 54.5693 23.46 54.7493 22.84C54.9293 22.2 55.0993 21.7 55.2593 21.34C55.4993 20.78 55.7993 20.18 56.1593 19.54C56.5393 18.88 56.9093 18.26 57.2693 17.68C57.6493 17.08 57.9493 16.6 58.1693 16.24C58.3093 16.1 58.3693 16.03 58.3493 16.03C58.3493 16.01 58.3493 16 58.3493 16C58.3493 15.9 58.4493 15.65 58.6493 15.25C58.8693 14.83 59.0593 14.46 59.2193 14.14C59.5193 13.82 59.6893 13.56 59.7293 13.36C59.7693 13.16 59.7393 13 59.6393 12.88C59.5993 12.8 59.6793 12.63 59.8793 12.37C60.0993 12.11 60.3993 11.82 60.7793 11.5C61.1593 11.16 61.5793 10.86 62.0393 10.6C62.5193 10.22 62.9793 10.02 63.4193 10C63.8793 9.96 64.1493 10.05 64.2293 10.27C64.2293 10.33 64.3393 10.35 64.5593 10.33C64.7993 10.29 65.0693 10.24 65.3693 10.18C65.6893 10.1 65.9693 10.04 66.2093 10C66.3093 9.88 66.5393 9.79 66.8993 9.73C67.2793 9.65 67.7193 9.58 68.2193 9.52C68.4793 9.54 68.7693 9.55 69.0893 9.55C69.4093 9.53 69.6893 9.51 69.9293 9.49C70.1893 9.47 70.3193 9.46 70.3193 9.46C70.4593 9.42 70.6593 9.51 70.9193 9.73C71.1993 9.93 71.4193 10.21 71.5793 10.57C71.7193 10.93 71.5993 11.24 71.2193 11.5C70.8393 11.76 70.2393 11.94 69.4193 12.04C68.8193 12.12 68.3493 12.19 68.0093 12.25C67.6893 12.29 67.3393 12.35 66.9593 12.43C66.5993 12.49 66.0693 12.6 65.3693 12.76C64.8693 12.86 64.4493 12.94 64.1093 13C63.7693 13.06 63.4693 13.18 63.2093 13.36C62.9693 13.54 62.6993 13.86 62.3993 14.32C62.2593 14.42 62.0793 14.68 61.8593 15.1C61.6393 15.52 61.4193 15.94 61.1993 16.36C60.6393 17.14 60.2193 17.72 59.9393 18.1C59.6793 18.46 59.5893 18.69 59.6693 18.79C59.6693 18.79 59.8093 18.82 60.0893 18.88C60.3693 18.94 60.5493 18.97 60.6293 18.97C60.8293 18.87 61.0693 18.8 61.3493 18.76C61.6493 18.72 61.8893 18.68 62.0693 18.64C63.3093 18.32 64.2193 18.09 64.7993 17.95C65.3993 17.79 65.8193 17.68 66.0593 17.62C66.3193 17.56 66.5493 17.52 66.7493 17.5C67.0293 17.28 67.3093 17.3 67.5893 17.56C67.8893 17.8 68.0993 18.09 68.2193 18.43C68.3593 18.83 68.3593 19.14 68.2193 19.36C68.0793 19.58 67.7693 19.76 67.2893 19.9C66.8293 20.04 66.1693 20.21 65.3093 20.41C64.4493 20.59 63.3693 20.86 62.0693 21.22C60.9693 21.54 60.0793 21.73 59.3993 21.79C58.7193 21.85 58.3993 21.68 58.4393 21.28C58.2993 21.2 58.1393 21.28 57.9593 21.52C57.7993 21.74 57.6493 22.05 57.5093 22.45C57.3693 22.85 57.2393 23.28 57.1193 23.74C57.0193 24.2 56.9593 24.63 56.9393 25.03C56.9193 25.43 56.9493 25.74 57.0293 25.96C57.1893 26.42 57.4393 26.82 57.7793 27.16C58.1393 27.48 58.6593 27.74 59.3393 27.94C59.7393 27.96 60.1293 27.99 60.5093 28.03C60.8893 28.07 61.3193 27.99 61.7993 27.79C62.9793 27.59 63.7993 27.38 64.2593 27.16C64.7193 26.94 64.9993 26.79 65.0993 26.71C65.2593 26.63 65.3593 26.55 65.3993 26.47C65.4593 26.39 65.5393 26.35 65.6393 26.35C65.5793 26.45 65.5993 26.45 65.6993 26.35C65.7993 26.25 65.9593 26.11 66.1793 25.93C66.5993 25.57 67.0193 25.35 67.4393 25.27C67.8593 25.19 68.2093 25.19 68.4893 25.27C68.7693 25.33 68.9193 25.41 68.9393 25.51C69.0593 25.71 68.9993 26.03 68.7593 26.47C68.5193 26.89 68.1493 27.34 67.6493 27.82C67.1693 28.3 66.5993 28.73 65.9393 29.11C64.8793 29.67 63.7293 30.06 62.4893 30.28C61.2493 30.52 60.1393 30.65 59.1593 30.67ZM79.0085 31.03C78.6885 31.05 78.2285 31.03 77.6285 30.97C77.0485 30.91 76.4285 30.76 75.7685 30.52C75.1285 30.28 74.5485 29.93 74.0285 29.47C73.5285 28.99 73.1985 28.35 73.0385 27.55C72.7985 26.43 72.7485 25.21 72.8885 23.89C73.0285 22.57 73.2685 21.27 73.6085 19.99C73.7085 19.63 73.8985 19.17 74.1785 18.61C74.4585 18.03 74.7885 17.41 75.1685 16.75C75.5685 16.09 75.9785 15.45 76.3985 14.83C76.8185 14.19 77.2085 13.64 77.5685 13.18C77.8285 12.88 78.1585 12.54 78.5585 12.16C78.9785 11.76 79.4085 11.38 79.8485 11.02C80.3085 10.64 80.7185 10.32 81.0785 10.06C81.4585 9.78 81.7285 9.61 81.8885 9.55C82.1485 9.43 82.4085 9.36 82.6685 9.34C82.9285 9.3 83.2385 9.33 83.5985 9.43C83.8785 9.45 84.1785 9.55 84.4985 9.73C84.8185 9.89 85.0985 10.07 85.3385 10.27C85.5785 10.47 85.7085 10.66 85.7285 10.84C85.7485 10.96 85.9685 10.95 86.3885 10.81C86.5285 10.65 86.7385 10.53 87.0185 10.45C87.2985 10.35 87.5585 10.3 87.7985 10.3C88.0385 10.28 88.1685 10.34 88.1885 10.48C88.0685 10.66 88.0885 10.82 88.2485 10.96C88.3085 10.94 88.3185 11.08 88.2785 11.38C88.2385 11.68 88.1685 12.03 88.0685 12.43C87.9685 12.81 87.8485 13.11 87.7085 13.33C87.7085 13.33 87.6885 13.38 87.6485 13.48C87.6285 13.58 87.6185 13.63 87.6185 13.63C87.6585 13.73 87.6385 13.83 87.5585 13.93C87.4785 14.03 87.4085 14.12 87.3485 14.2C87.2885 14.3 87.2085 14.51 87.1085 14.83C87.0285 15.13 86.9385 15.48 86.8385 15.88C86.7585 16.26 86.6885 16.61 86.6285 16.93C86.5685 17.23 86.5385 17.43 86.5385 17.53C86.5785 17.67 86.3985 17.75 85.9985 17.77C85.6185 17.77 85.2585 17.71 84.9185 17.59C84.4785 17.43 84.1985 17.22 84.0785 16.96C83.9785 16.7 84.0385 16.19 84.2585 15.43C84.5385 14.51 84.6985 13.83 84.7385 13.39C84.7785 12.95 84.6585 12.62 84.3785 12.4C84.2785 12.22 84.0585 12.11 83.7185 12.07C83.3785 12.01 83.0985 12.05 82.8785 12.19C82.5785 12.31 82.1685 12.59 81.6485 13.03C81.1285 13.45 80.5885 13.95 80.0285 14.53C79.4685 15.11 78.9685 15.71 78.5285 16.33C77.6085 17.61 76.9085 18.89 76.4285 20.17C75.9485 21.45 75.6785 22.68 75.6185 23.86C75.5585 25.04 75.6985 26.15 76.0385 27.19C76.0785 27.27 76.1985 27.44 76.3985 27.7C76.5985 27.96 76.7585 28.13 76.8785 28.21C77.4985 28.35 78.3885 28.36 79.5485 28.24C80.4085 28.08 81.0385 27.84 81.4385 27.52C81.8585 27.2 82.2585 26.76 82.6385 26.2C82.8585 25.88 83.0985 25.75 83.3585 25.81C83.6185 25.85 83.8485 26.01 84.0485 26.29C84.2485 26.55 84.3685 26.86 84.4085 27.22C84.4085 27.32 84.3185 27.53 84.1385 27.85C83.9785 28.15 83.7885 28.44 83.5685 28.72C83.3685 29 83.2085 29.16 83.0885 29.2C83.0085 29.22 82.9585 29.24 82.9385 29.26C82.9385 29.28 82.9485 29.34 82.9685 29.44C82.9685 29.52 82.8385 29.64 82.5785 29.8C82.3185 29.96 81.9885 30.12 81.5885 30.28C81.1885 30.46 80.7585 30.61 80.2985 30.73C79.8385 30.87 79.4085 30.97 79.0085 31.03ZM92.4504 30.67C92.0904 30.79 91.7604 30.81 91.4604 30.73C91.1604 30.65 90.9304 30.43 90.7704 30.07C90.6304 29.73 90.5904 29.23 90.6504 28.57C90.7304 27.89 90.9604 27.03 91.3404 25.99C91.4004 25.81 91.5204 25.45 91.7004 24.91C91.9004 24.35 92.1204 23.73 92.3604 23.05C92.6004 22.37 92.8304 21.74 93.0504 21.16C93.2904 20.58 93.4804 20.18 93.6204 19.96C93.7004 19.78 93.7404 19.63 93.7404 19.51C93.7604 19.39 93.7704 19.29 93.7704 19.21C93.7704 19.11 93.8104 18.98 93.8904 18.82C93.9904 18.64 94.0804 18.46 94.1604 18.28C94.2604 18.08 94.3404 17.9 94.4004 17.74C94.4804 17.56 94.5204 17.41 94.5204 17.29C94.5204 17.29 94.5704 17.12 94.6704 16.78C94.7704 16.42 94.9004 16.01 95.0604 15.55C95.2204 15.09 95.4004 14.71 95.6004 14.41C95.7804 13.95 95.9304 13.63 96.0504 13.45C96.1904 13.25 96.2604 13.09 96.2604 12.97C96.2604 12.93 96.0504 12.91 95.6304 12.91C95.2304 12.91 94.7504 12.93 94.1904 12.97C93.6304 12.99 93.0904 13.02 92.5704 13.06C92.0704 13.1 91.7104 13.15 91.4904 13.21C91.3104 13.25 91.1504 13.29 91.0104 13.33C90.8704 13.35 90.7804 13.35 90.7404 13.33C90.6604 13.29 90.5304 13.14 90.3504 12.88C90.1904 12.6 90.0704 12.3 89.9904 11.98C89.9304 11.66 90.0104 11.44 90.2304 11.32C90.5904 11.1 90.9504 10.96 91.3104 10.9C91.6904 10.84 92.0904 10.8 92.5104 10.78C92.9304 10.76 93.3904 10.72 93.8904 10.66C94.3504 10.66 94.7504 10.64 95.0904 10.6C95.4304 10.54 95.6404 10.51 95.7204 10.51C95.9204 10.51 96.1604 10.47 96.4404 10.39C96.7404 10.31 97.0804 10.27 97.4604 10.27C97.7204 10.27 97.9804 10.25 98.2404 10.21C98.5004 10.15 98.7304 10.12 98.9304 10.12C99.0304 10.12 99.2704 10.12 99.6504 10.12C100.03 10.12 100.41 10.12 100.79 10.12C101.07 10.12 101.45 10.08 101.93 10C102.41 9.92 102.8 9.84 103.1 9.76C104.02 9.56 104.78 9.53 105.38 9.67C105.98 9.81 106.35 10.15 106.49 10.69C106.57 11.13 106.28 11.51 105.62 11.83C104.96 12.15 103.74 12.36 101.96 12.46C101.1 12.54 100.51 12.6 100.19 12.64C99.8704 12.68 99.7104 12.79 99.7104 12.97C99.7104 13.09 99.6604 13.2 99.5604 13.3C99.4804 13.38 99.4004 13.47 99.3204 13.57C99.2404 13.61 99.1204 13.78 98.9604 14.08C98.8004 14.36 98.6404 14.7 98.4804 15.1C98.3404 15.48 98.2104 15.83 98.0904 16.15C97.9904 16.47 97.9404 16.68 97.9404 16.78C97.9404 16.78 97.9004 16.85 97.8204 16.99C97.7604 17.11 97.7304 17.21 97.7304 17.29C97.6504 17.49 97.5404 17.72 97.4004 17.98C97.2804 18.24 97.1704 18.47 97.0704 18.67C96.7704 19.47 96.5204 20.11 96.3204 20.59C96.1404 21.07 95.9904 21.45 95.8704 21.73C95.7704 21.99 95.6804 22.22 95.6004 22.42C95.5204 22.68 95.3904 23.12 95.2104 23.74C95.0304 24.36 94.8404 24.91 94.6404 25.39C94.5404 25.53 94.4504 25.63 94.3704 25.69C94.3104 25.73 94.2804 25.83 94.2804 25.99C94.2804 26.01 94.2204 26.19 94.1004 26.53C94.0004 26.85 93.8604 27.24 93.6804 27.7C93.5004 28.16 93.3204 28.62 93.1404 29.08C92.9804 29.52 92.8304 29.89 92.6904 30.19C92.5704 30.51 92.4904 30.67 92.4504 30.67ZM118.491 30.76C118.331 31.06 118.091 31.2 117.771 31.18C117.451 31.18 117.121 31.07 116.781 30.85C116.461 30.65 116.181 30.41 115.941 30.13C115.701 29.85 115.581 29.59 115.581 29.35C115.601 29.21 115.611 29.08 115.611 28.96C115.611 28.84 115.621 28.71 115.641 28.57C115.801 28.15 115.941 27.72 116.061 27.28C116.201 26.82 116.321 26.36 116.421 25.9C116.621 25.12 116.801 24.33 116.961 23.53C117.141 22.73 117.331 21.96 117.531 21.22C117.631 20.8 117.731 20.4 117.831 20.02C117.951 19.64 118.071 19.24 118.191 18.82C118.331 18.4 118.471 17.94 118.611 17.44C118.771 16.92 118.951 16.33 119.151 15.67C119.371 15.01 119.621 14.24 119.901 13.36C119.841 13.44 119.771 13.52 119.691 13.6C119.631 13.68 119.571 13.77 119.511 13.87C119.191 14.27 118.861 14.68 118.521 15.1C118.201 15.52 117.871 15.95 117.531 16.39C117.091 16.95 116.631 17.53 116.151 18.13C115.691 18.71 115.231 19.3 114.771 19.9C114.411 20.36 114.051 20.82 113.691 21.28C113.331 21.74 112.981 22.2 112.641 22.66C112.381 23.02 112.121 23.37 111.861 23.71C111.601 24.05 111.341 24.39 111.081 24.73C110.881 25.01 110.541 25.43 110.061 25.99C109.601 26.55 109.091 27.14 108.531 27.76C107.991 28.38 107.471 28.95 106.971 29.47C106.491 29.97 106.131 30.3 105.891 30.46C105.631 30.64 105.311 30.72 104.931 30.7C104.571 30.7 104.241 30.61 103.941 30.43C103.661 30.25 103.491 29.98 103.431 29.62C103.391 29.32 103.411 28.92 103.491 28.42C103.571 27.9 103.681 27.32 103.821 26.68C103.981 26.02 104.161 25.34 104.361 24.64C104.421 24.44 104.471 24.25 104.511 24.07C104.571 23.87 104.631 23.68 104.691 23.5C104.731 23.38 104.771 23.26 104.811 23.14C104.851 23 104.891 22.87 104.931 22.75C105.051 22.37 105.161 22.01 105.261 21.67C105.381 21.31 105.491 20.97 105.591 20.65C105.691 20.35 105.771 20.08 105.831 19.84C105.911 19.58 105.981 19.35 106.041 19.15C106.121 18.93 106.181 18.74 106.221 18.58C106.301 18.36 106.371 18.14 106.431 17.92C106.511 17.68 106.591 17.44 106.671 17.2C106.691 17.14 106.711 17.08 106.731 17.02C106.751 16.96 106.771 16.91 106.791 16.87C106.911 16.51 107.031 16.15 107.151 15.79C107.291 15.43 107.431 15.07 107.571 14.71L107.721 14.35C107.821 14.11 107.921 13.88 108.021 13.66C108.121 13.42 108.211 13.19 108.291 12.97C108.251 12.85 108.251 12.73 108.291 12.61C108.331 12.47 108.391 12.36 108.471 12.28C108.471 12.24 108.481 12.17 108.501 12.07C108.541 11.97 108.591 11.85 108.651 11.71C108.771 11.45 108.891 11.17 109.011 10.87C109.151 10.57 109.281 10.29 109.401 10.03C109.521 9.77 109.601 9.59 109.641 9.49C109.701 9.27 109.781 9.08 109.881 8.92C109.981 8.76 110.081 8.63 110.181 8.53C110.481 8.25 110.811 8.13 111.171 8.17C111.531 8.19 111.851 8.33 112.131 8.59C112.411 8.85 112.591 9.18 112.671 9.58C112.751 9.98 112.651 10.42 112.371 10.9C112.231 11.14 112.111 11.4 112.011 11.68C111.931 11.94 111.831 12.2 111.711 12.46C111.511 12.94 111.311 13.43 111.111 13.93C110.911 14.41 110.701 14.91 110.481 15.43C110.261 15.99 110.051 16.56 109.851 17.14C109.651 17.7 109.451 18.26 109.251 18.82C109.051 19.38 108.861 19.94 108.681 20.5C108.501 21.04 108.321 21.58 108.141 22.12C107.981 22.66 107.821 23.18 107.661 23.68C107.521 24.18 107.391 24.67 107.271 25.15C107.571 24.79 107.871 24.43 108.171 24.07C108.491 23.71 108.801 23.35 109.101 22.99C109.461 22.59 109.821 22.18 110.181 21.76C110.541 21.34 110.891 20.91 111.231 20.47C111.731 19.79 112.261 19.08 112.821 18.34C113.401 17.58 113.991 16.82 114.591 16.06C114.771 15.84 114.941 15.62 115.101 15.4C115.281 15.18 115.461 14.96 115.641 14.74C116.221 14.02 116.801 13.31 117.381 12.61C117.961 11.89 118.511 11.22 119.031 10.6C119.231 10.34 119.501 10.04 119.841 9.7C120.201 9.36 120.571 9.04 120.951 8.74C121.331 8.42 121.661 8.2 121.941 8.08C122.221 7.94 122.511 7.92 122.811 8.02C123.131 8.12 123.401 8.28 123.621 8.5C124.001 8.88 124.221 9.31 124.281 9.79C124.301 9.89 124.301 10 124.281 10.12C124.281 10.22 124.261 10.32 124.221 10.42C124.141 10.62 124.001 10.96 123.801 11.44C123.621 11.9 123.411 12.43 123.171 13.03C122.951 13.61 122.731 14.18 122.511 14.74C122.471 14.86 122.421 14.98 122.361 15.1C122.321 15.22 122.281 15.33 122.241 15.43C122.081 15.85 121.951 16.22 121.851 16.54C121.751 16.86 121.701 17.08 121.701 17.2C121.701 17.28 121.641 17.55 121.521 18.01C121.441 18.33 121.331 18.73 121.191 19.21C121.071 19.69 120.931 20.19 120.771 20.71C120.591 21.39 120.401 22.07 120.201 22.75C120.021 23.41 119.861 23.99 119.721 24.49C119.581 24.99 119.481 25.32 119.421 25.48C119.201 26.34 119.021 27.22 118.881 28.12C118.741 29 118.611 29.88 118.491 30.76Z" fill="black"/>
</svg>
