<svg width="129" height="53" viewBox="0 0 129 53" fill="none" xmlns="http://www.w3.org/2000/svg">
<g filter="url(#filter0_d_100_14572)">
<rect x="0.5" y="0.5" width="124" height="48" rx="24" fill="#94DEFF" shape-rendering="crispEdges"/>
<path fill-rule="evenodd" clip-rule="evenodd" d="M24.9892 16.5C21.6242 16.4631 19.7408 16.6246 16.4312 17.2336C15.888 17.3335 15.3666 16.9743 15.2667 16.4311C15.1667 15.8879 15.526 15.3666 16.0692 15.2666C19.5055 14.6343 21.5174 14.4618 25.0111 14.5002C26.5872 14.5175 28.5684 14.7104 30.1323 14.8945C30.9192 14.9871 31.6098 15.0786 32.104 15.1471C32.3511 15.1813 32.5494 15.2098 32.6863 15.2297C32.7547 15.2397 32.8079 15.2476 32.8441 15.253L32.8856 15.2592L32.9005 15.2615C33.4465 15.3446 33.8219 15.8545 33.7388 16.4005C33.6557 16.9465 33.1458 17.3218 32.5998 17.2387L32.5875 17.2369L32.549 17.2311L32.3975 17.2088C32.2649 17.1894 32.0715 17.1616 31.8297 17.1282C31.3457 17.0612 30.669 16.9715 29.8985 16.8808C28.3475 16.6982 26.4537 16.5161 24.9892 16.5Z" fill="black"/>
<path fill-rule="evenodd" clip-rule="evenodd" d="M20.6906 20.0955L20.719 20.1315L20.8035 20.2382C20.8775 20.3315 20.9856 20.4672 21.1214 20.6364C21.3931 20.9747 21.775 21.4459 22.2153 21.9766C23.1008 23.0441 24.2041 24.3302 25.1186 25.2636C26.2862 26.4552 27.7569 27.7431 28.9482 28.7421C28.9881 28.7755 29.0277 28.8086 29.0669 28.8414C28.9643 27.9025 28.8817 26.8332 28.9047 25.9377C28.9271 25.0647 29.0594 23.9851 29.1802 23.1495C29.2415 22.7262 29.3013 22.355 29.3459 22.0894C29.3682 21.9564 29.3867 21.8496 29.3997 21.7756L29.415 21.69L29.4191 21.6671L29.4205 21.6591C29.4205 21.6591 29.4207 21.6583 30.3672 21.8316L29.4205 21.6591C29.52 21.1159 30.0412 20.7553 30.5845 20.8548C31.1277 20.9543 31.4874 21.4753 31.388 22.0185L31.3869 22.0242L31.3834 22.0439L31.3694 22.1226C31.3572 22.1918 31.3396 22.2932 31.3183 22.4203C31.2756 22.6747 31.2182 23.0306 31.1597 23.4357C31.0409 24.2571 30.9232 25.2399 30.904 25.9891C30.8796 26.9398 30.9963 28.1905 31.1268 29.2367C31.1912 29.7527 31.2572 30.2063 31.3071 30.5305C31.3188 30.6066 31.3297 30.6754 31.3393 30.7362C31.426 31.2808 31.3949 31.6245 31.1268 31.9037C30.874 32.1671 30.651 32.2134 30.034 32.2134H21.0293C20.4771 32.2134 20.0293 31.7657 20.0293 31.2134C20.0293 30.6611 20.4771 30.2134 21.0293 30.2134H27.5903C26.3942 29.2083 24.9013 27.8995 23.6901 26.6633C22.7148 25.6679 21.568 24.3289 20.676 23.2536C20.2275 22.7129 19.8387 22.2333 19.562 21.8886C19.4236 21.7162 19.313 21.5775 19.2369 21.4815L19.1493 21.3709L19.1187 21.3322L19.1181 21.3313C18.7768 20.8971 18.8522 20.2684 19.2864 19.9272C19.7206 19.5859 20.3493 19.6613 20.6906 20.0955Z" fill="black"/>
<path d="M44.3561 31.296C43.8401 30.96 43.5341 30.624 43.4381 30.288C43.3541 29.952 43.4741 29.682 43.7981 29.478C43.8701 29.43 44.0081 29.424 44.2121 29.46C44.4281 29.496 44.5901 29.568 44.6981 29.676C44.9381 29.892 45.2081 30.024 45.5081 30.072C45.8201 30.132 46.1981 30.102 46.6421 29.982C47.1461 29.826 47.5301 29.634 47.7941 29.406C48.0701 29.166 48.3761 28.842 48.7121 28.434C48.9641 28.11 49.1381 27.792 49.2341 27.48C49.3421 27.168 49.3901 26.886 49.3781 26.634C49.3781 26.37 49.3181 26.172 49.1981 26.04C48.8981 25.62 48.5261 25.332 48.0821 25.176C47.6381 25.008 47.0561 25.02 46.3361 25.212C46.2521 25.224 46.1261 25.248 45.9581 25.284C45.7901 25.32 45.6401 25.356 45.5081 25.392C45.3761 25.416 45.3041 25.428 45.2921 25.428C45.2081 25.452 45.1421 25.464 45.0941 25.464C45.0461 25.464 44.9861 25.524 44.9141 25.644C44.8541 25.752 44.7581 25.986 44.6261 26.346C44.4941 26.694 44.2961 27.234 44.0321 27.966C43.7801 28.698 43.5641 29.22 43.3841 29.532C43.2161 29.832 43.0661 29.97 42.9341 29.946C42.8021 29.91 42.6521 29.778 42.4841 29.55C42.3881 29.382 42.2801 29.196 42.1601 28.992C42.0521 28.788 42.0581 28.578 42.1781 28.362C42.2381 28.254 42.2861 28.158 42.3221 28.074C42.3581 27.978 42.4061 27.816 42.4661 27.588C42.5261 27.408 42.6401 27.096 42.8081 26.652C42.9881 26.196 43.1981 25.668 43.4381 25.068C43.6781 24.456 43.9301 23.826 44.1941 23.178C44.4581 22.53 44.7101 21.918 44.9501 21.342C45.2021 20.766 45.4121 20.28 45.5801 19.884C45.7481 19.512 45.8501 19.242 45.8861 19.074C45.9221 18.906 45.9101 18.816 45.8501 18.804C45.8501 18.744 45.8321 18.69 45.7961 18.642C45.7601 18.582 45.7481 18.528 45.7601 18.48C45.7601 18.432 45.8621 18.366 46.0661 18.282C46.2821 18.198 46.5101 18.12 46.7501 18.048C46.9901 17.976 47.1641 17.952 47.2721 17.976C47.3321 17.976 47.4041 17.976 47.4881 17.976C47.5721 17.964 47.6141 17.934 47.6141 17.886C47.6501 17.886 47.7641 17.874 47.9561 17.85C48.1481 17.826 48.3581 17.826 48.5861 17.85C49.3901 17.922 50.0501 18.156 50.5661 18.552C51.0821 18.936 51.3341 19.554 51.3221 20.406C51.3101 20.61 51.2261 20.874 51.0701 21.198C50.9141 21.522 50.7161 21.846 50.4761 22.17C50.2481 22.494 50.0021 22.776 49.7381 23.016C49.5821 23.148 49.4141 23.286 49.2341 23.43C49.0661 23.562 48.9161 23.676 48.7841 23.772C48.6641 23.856 48.6041 23.898 48.6041 23.898C48.6041 23.898 48.6521 23.916 48.7481 23.952C48.8441 23.988 48.9461 24.024 49.0541 24.06C49.6061 24.264 50.0381 24.522 50.3501 24.834C50.6741 25.146 50.9021 25.578 51.0341 26.13C51.0821 26.31 51.0821 26.532 51.0341 26.796C50.9981 27.06 50.9441 27.324 50.8721 27.588C50.8001 27.84 50.7221 28.056 50.6381 28.236C50.5541 28.32 50.4881 28.41 50.4401 28.506C50.3921 28.59 50.3681 28.632 50.3681 28.632C50.3681 28.656 50.3201 28.752 50.2241 28.92C50.1281 29.076 50.0141 29.25 49.8821 29.442C49.7501 29.634 49.6241 29.802 49.5041 29.946C49.3841 30.042 49.2101 30.174 48.9821 30.342C48.7661 30.522 48.5261 30.696 48.2621 30.864C48.0101 31.032 47.7701 31.158 47.5421 31.242C47.2061 31.386 46.8281 31.482 46.4081 31.53C46.0001 31.59 45.6101 31.596 45.2381 31.548C44.8661 31.512 44.5721 31.428 44.3561 31.296ZM45.6521 23.826C45.6521 23.826 45.7481 23.808 45.9401 23.772C46.1441 23.724 46.3661 23.676 46.6061 23.628C46.8461 23.568 47.0261 23.514 47.1461 23.466C47.2061 23.43 47.2901 23.382 47.3981 23.322C47.5181 23.262 47.6381 23.172 47.7581 23.052C47.9261 22.896 48.1061 22.722 48.2981 22.53C48.4901 22.326 48.6761 22.11 48.8561 21.882C49.0481 21.654 49.2101 21.408 49.3421 21.144C49.6181 20.712 49.7681 20.4 49.7921 20.208C49.8161 20.016 49.7501 19.842 49.5941 19.686C49.4861 19.554 49.3361 19.458 49.1441 19.398C48.9521 19.326 48.7421 19.29 48.5141 19.29C48.2981 19.278 48.0881 19.302 47.8841 19.362C47.7281 19.41 47.6081 19.47 47.5241 19.542C47.4401 19.602 47.3981 19.698 47.3981 19.83C47.3981 19.938 47.3621 20.052 47.2901 20.172C47.2301 20.28 47.1701 20.364 47.1101 20.424C47.0981 20.508 47.0561 20.592 46.9841 20.676C46.9241 20.748 46.8941 20.784 46.8941 20.784C46.8941 20.832 46.8161 20.982 46.6601 21.234C46.5161 21.474 46.3601 21.822 46.1921 22.278C45.9761 22.794 45.8321 23.166 45.7601 23.394C45.6881 23.622 45.6521 23.766 45.6521 23.826ZM54.1569 30.27C54.0129 30.282 53.8689 30.282 53.7249 30.27C53.5929 30.258 53.4609 30.24 53.3289 30.216C52.8729 30.096 52.5189 29.946 52.2669 29.766C52.0149 29.574 51.7509 29.31 51.4749 28.974C51.4749 28.734 51.5109 28.422 51.5829 28.038C51.6669 27.654 51.7689 27.252 51.8889 26.832C51.9969 26.436 52.1169 26.052 52.2489 25.68C52.3929 25.296 52.5309 24.954 52.6629 24.654C52.8309 24.162 53.0169 23.658 53.2209 23.142C53.4249 22.614 53.6409 22.092 53.8689 21.576C53.9409 21.396 54.0129 21.216 54.0849 21.036C54.1689 20.844 54.2529 20.664 54.3369 20.496C54.4449 20.244 54.5649 19.98 54.6969 19.704C54.8409 19.428 54.9729 19.176 55.0929 18.948C55.2249 18.72 55.3209 18.546 55.3809 18.426C55.5129 18.174 55.5969 18.006 55.6329 17.922C55.6809 17.838 55.7229 17.736 55.7589 17.616C55.8069 17.4 55.8789 17.256 55.9749 17.184C56.0709 17.1 56.2149 17.004 56.4069 16.896C56.6829 16.932 56.8749 16.998 56.9829 17.094C57.0909 17.19 57.2529 17.37 57.4689 17.634C57.4689 17.79 57.4689 17.946 57.4689 18.102C57.4689 18.258 57.4029 18.42 57.2709 18.588C57.1869 18.744 57.0969 18.912 57.0009 19.092C56.9169 19.272 56.8269 19.452 56.7309 19.632C56.6469 19.812 56.5569 19.986 56.4609 20.154C56.3769 20.322 56.2929 20.478 56.2089 20.622C56.1369 20.766 56.0709 20.886 56.0109 20.982C56.3469 21.066 56.6889 21.216 57.0369 21.432C57.3849 21.648 57.7209 21.924 58.0449 22.26C58.3689 22.584 58.6629 22.956 58.9269 23.376C59.2389 23.868 59.3889 24.39 59.3769 24.942C59.3769 25.482 59.2869 25.992 59.1069 26.472C58.9389 26.94 58.7469 27.318 58.5309 27.606C58.3509 27.858 58.1349 28.11 57.8829 28.362C57.6309 28.602 57.3609 28.836 57.0729 29.064C56.7849 29.28 56.4789 29.478 56.1549 29.658C55.8309 29.826 55.5069 29.964 55.1829 30.072L54.1569 30.27ZM61.1949 29.946C61.0389 30.006 60.8769 30.024 60.7089 30C60.5409 29.988 60.3309 29.94 60.0789 29.856C59.9349 29.7 59.8389 29.556 59.7909 29.424C59.7429 29.28 59.7429 29.076 59.7909 28.812C59.8269 28.656 59.8989 28.392 60.0069 28.02C60.1269 27.648 60.2649 27.222 60.4209 26.742C60.5889 26.25 60.7629 25.746 60.9429 25.23C61.1349 24.702 61.3149 24.21 61.4829 23.754C61.6509 23.286 61.8009 22.896 61.9329 22.584C62.0649 22.26 62.1609 22.056 62.2209 21.972C62.2809 21.876 62.3169 21.774 62.3289 21.666C62.4009 21.474 62.4729 21.282 62.5449 21.09C62.6169 20.898 62.6829 20.712 62.7429 20.532C62.8149 20.34 62.8869 20.148 62.9589 19.956C63.0309 19.764 63.1029 19.572 63.1749 19.38C63.2349 19.212 63.2949 19.05 63.3549 18.894C63.4149 18.738 63.4689 18.582 63.5169 18.426C63.6849 18.198 63.9249 18.138 64.2369 18.246C64.5489 18.342 64.8369 18.564 65.1009 18.912C65.1489 19.092 65.1309 19.296 65.0469 19.524C64.9749 19.752 64.9209 19.914 64.8849 20.01C64.7769 20.31 64.6629 20.604 64.5429 20.892C64.4349 21.168 64.3149 21.444 64.1829 21.72C64.0869 21.96 63.9849 22.2 63.8769 22.44C63.7809 22.68 63.6789 22.926 63.5709 23.178C63.4629 23.43 63.3549 23.682 63.2469 23.934C63.1509 24.186 63.0489 24.444 62.9409 24.708C62.8689 24.888 62.7969 25.068 62.7249 25.248C62.6649 25.416 62.5989 25.596 62.5269 25.788C62.4669 25.968 62.4069 26.154 62.3469 26.346C62.2869 26.526 62.2269 26.712 62.1669 26.904C62.0229 27.348 61.9149 27.708 61.8429 27.984C61.7709 28.26 61.7109 28.494 61.6629 28.686C61.6269 28.866 61.5729 29.052 61.5009 29.244C61.4409 29.424 61.3389 29.658 61.1949 29.946ZM54.0309 28.578C54.2589 28.554 54.4809 28.5 54.6969 28.416C54.9129 28.32 55.1649 28.176 55.4529 27.984C55.7049 27.828 55.9509 27.654 56.1909 27.462C56.4309 27.258 56.6469 27.054 56.8389 26.85C57.0309 26.646 57.1749 26.46 57.2709 26.292C57.4389 26.016 57.5589 25.752 57.6309 25.5C57.7029 25.248 57.7269 25.002 57.7029 24.762C57.7029 24.378 57.6609 24.084 57.5769 23.88C57.5049 23.664 57.3369 23.406 57.0729 23.106C57.0129 23.022 56.9109 22.938 56.7669 22.854C56.6349 22.758 56.4609 22.662 56.2449 22.566C56.0289 22.458 55.7589 22.338 55.4349 22.206C55.3149 22.506 55.1889 22.812 55.0569 23.124C54.9249 23.424 54.8109 23.712 54.7149 23.988C54.6789 24.072 54.6429 24.162 54.6069 24.258C54.5709 24.354 54.5349 24.45 54.4989 24.546C54.4629 24.63 54.4269 24.72 54.3909 24.816C54.3549 24.9 54.3189 24.99 54.2829 25.086C54.1149 25.626 53.9349 26.178 53.7429 26.742C53.5629 27.294 53.4069 27.888 53.2749 28.524C53.4189 28.548 53.5509 28.566 53.6709 28.578C53.8029 28.59 53.9229 28.59 54.0309 28.578ZM65.6608 31.296C65.1448 30.96 64.8388 30.624 64.7428 30.288C64.6588 29.952 64.7788 29.682 65.1028 29.478C65.1748 29.43 65.3128 29.424 65.5168 29.46C65.7328 29.496 65.8948 29.568 66.0028 29.676C66.2428 29.892 66.5128 30.024 66.8128 30.072C67.1248 30.132 67.5028 30.102 67.9468 29.982C68.4508 29.826 68.8348 29.634 69.0988 29.406C69.3748 29.166 69.6808 28.842 70.0168 28.434C70.2688 28.11 70.4428 27.792 70.5388 27.48C70.6468 27.168 70.6948 26.886 70.6828 26.634C70.6828 26.37 70.6228 26.172 70.5028 26.04C70.2028 25.62 69.8308 25.332 69.3868 25.176C68.9428 25.008 68.3608 25.02 67.6408 25.212C67.5568 25.224 67.4308 25.248 67.2628 25.284C67.0948 25.32 66.9448 25.356 66.8128 25.392C66.6808 25.416 66.6088 25.428 66.5968 25.428C66.5128 25.452 66.4468 25.464 66.3988 25.464C66.3508 25.464 66.2908 25.524 66.2188 25.644C66.1588 25.752 66.0628 25.986 65.9308 26.346C65.7988 26.694 65.6008 27.234 65.3368 27.966C65.0848 28.698 64.8688 29.22 64.6888 29.532C64.5208 29.832 64.3708 29.97 64.2388 29.946C64.1068 29.91 63.9568 29.778 63.7888 29.55C63.6928 29.382 63.5848 29.196 63.4648 28.992C63.3568 28.788 63.3628 28.578 63.4828 28.362C63.5428 28.254 63.5908 28.158 63.6268 28.074C63.6628 27.978 63.7108 27.816 63.7708 27.588C63.8308 27.408 63.9448 27.096 64.1128 26.652C64.2928 26.196 64.5028 25.668 64.7428 25.068C64.9828 24.456 65.2348 23.826 65.4988 23.178C65.7628 22.53 66.0148 21.918 66.2548 21.342C66.5068 20.766 66.7168 20.28 66.8848 19.884C67.0528 19.512 67.1548 19.242 67.1908 19.074C67.2268 18.906 67.2148 18.816 67.1548 18.804C67.1548 18.744 67.1368 18.69 67.1008 18.642C67.0648 18.582 67.0528 18.528 67.0648 18.48C67.0648 18.432 67.1668 18.366 67.3708 18.282C67.5868 18.198 67.8148 18.12 68.0548 18.048C68.2948 17.976 68.4688 17.952 68.5768 17.976C68.6368 17.976 68.7088 17.976 68.7928 17.976C68.8768 17.964 68.9188 17.934 68.9188 17.886C68.9548 17.886 69.0688 17.874 69.2608 17.85C69.4528 17.826 69.6628 17.826 69.8908 17.85C70.6948 17.922 71.3548 18.156 71.8708 18.552C72.3868 18.936 72.6388 19.554 72.6268 20.406C72.6148 20.61 72.5308 20.874 72.3748 21.198C72.2188 21.522 72.0208 21.846 71.7808 22.17C71.5528 22.494 71.3068 22.776 71.0428 23.016C70.8868 23.148 70.7188 23.286 70.5388 23.43C70.3708 23.562 70.2208 23.676 70.0888 23.772C69.9688 23.856 69.9088 23.898 69.9088 23.898C69.9088 23.898 69.9568 23.916 70.0528 23.952C70.1488 23.988 70.2508 24.024 70.3588 24.06C70.9108 24.264 71.3428 24.522 71.6548 24.834C71.9788 25.146 72.2068 25.578 72.3388 26.13C72.3868 26.31 72.3868 26.532 72.3388 26.796C72.3028 27.06 72.2488 27.324 72.1768 27.588C72.1048 27.84 72.0268 28.056 71.9428 28.236C71.8588 28.32 71.7928 28.41 71.7448 28.506C71.6968 28.59 71.6728 28.632 71.6728 28.632C71.6728 28.656 71.6248 28.752 71.5288 28.92C71.4328 29.076 71.3188 29.25 71.1868 29.442C71.0548 29.634 70.9288 29.802 70.8088 29.946C70.6888 30.042 70.5148 30.174 70.2868 30.342C70.0708 30.522 69.8308 30.696 69.5668 30.864C69.3148 31.032 69.0748 31.158 68.8468 31.242C68.5108 31.386 68.1328 31.482 67.7128 31.53C67.3048 31.59 66.9148 31.596 66.5428 31.548C66.1708 31.512 65.8768 31.428 65.6608 31.296ZM66.9568 23.826C66.9568 23.826 67.0528 23.808 67.2448 23.772C67.4488 23.724 67.6708 23.676 67.9108 23.628C68.1508 23.568 68.3308 23.514 68.4508 23.466C68.5108 23.43 68.5948 23.382 68.7028 23.322C68.8228 23.262 68.9428 23.172 69.0628 23.052C69.2308 22.896 69.4108 22.722 69.6028 22.53C69.7948 22.326 69.9808 22.11 70.1608 21.882C70.3528 21.654 70.5148 21.408 70.6468 21.144C70.9228 20.712 71.0728 20.4 71.0968 20.208C71.1208 20.016 71.0548 19.842 70.8988 19.686C70.7908 19.554 70.6408 19.458 70.4488 19.398C70.2568 19.326 70.0468 19.29 69.8188 19.29C69.6028 19.278 69.3928 19.302 69.1888 19.362C69.0328 19.41 68.9128 19.47 68.8288 19.542C68.7448 19.602 68.7028 19.698 68.7028 19.83C68.7028 19.938 68.6668 20.052 68.5948 20.172C68.5348 20.28 68.4748 20.364 68.4148 20.424C68.4028 20.508 68.3608 20.592 68.2888 20.676C68.2288 20.748 68.1988 20.784 68.1988 20.784C68.1988 20.832 68.1208 20.982 67.9648 21.234C67.8208 21.474 67.6648 21.822 67.4968 22.278C67.2808 22.794 67.1368 23.166 67.0648 23.394C66.9928 23.622 66.9568 23.766 66.9568 23.826ZM75.6956 30.702C75.3236 30.678 74.9516 30.54 74.5796 30.288C74.2076 30.048 73.8656 29.82 73.5536 29.604C73.3496 29.4 73.1936 29.184 73.0856 28.956C72.9776 28.716 72.8876 28.404 72.8156 28.02C72.7676 27.792 72.7676 27.492 72.8156 27.12C72.8636 26.748 72.9416 26.376 73.0496 26.004C73.1576 25.62 73.2596 25.32 73.3556 25.104C73.4996 24.768 73.6796 24.408 73.8956 24.024C74.1236 23.628 74.3456 23.256 74.5616 22.908C74.7896 22.548 74.9696 22.26 75.1016 22.044C75.1856 21.96 75.2216 21.918 75.2096 21.918C75.2096 21.906 75.2096 21.9 75.2096 21.9C75.2096 21.84 75.2696 21.69 75.3896 21.45C75.5216 21.198 75.6356 20.976 75.7316 20.784C75.9116 20.592 76.0136 20.436 76.0376 20.316C76.0616 20.196 76.0436 20.1 75.9836 20.028C75.9596 19.98 76.0076 19.878 76.1276 19.722C76.2596 19.566 76.4396 19.392 76.6676 19.2C76.8956 18.996 77.1476 18.816 77.4236 18.66C77.7116 18.432 77.9876 18.312 78.2516 18.3C78.5276 18.276 78.6896 18.33 78.7376 18.462C78.7376 18.498 78.8036 18.51 78.9356 18.498C79.0796 18.474 79.2416 18.444 79.4216 18.408C79.6136 18.36 79.7816 18.324 79.9256 18.3C79.9856 18.228 80.1236 18.174 80.3396 18.138C80.5676 18.09 80.8316 18.048 81.1316 18.012C81.2876 18.024 81.4616 18.03 81.6536 18.03C81.8456 18.018 82.0136 18.006 82.1576 17.994C82.3136 17.982 82.3916 17.976 82.3916 17.976C82.4756 17.952 82.5956 18.006 82.7516 18.138C82.9196 18.258 83.0516 18.426 83.1476 18.642C83.2316 18.858 83.1596 19.044 82.9316 19.2C82.7036 19.356 82.3436 19.464 81.8516 19.524C81.4916 19.572 81.2096 19.614 81.0056 19.65C80.8136 19.674 80.6036 19.71 80.3756 19.758C80.1596 19.794 79.8416 19.86 79.4216 19.956C79.1216 20.016 78.8696 20.064 78.6656 20.1C78.4616 20.136 78.2816 20.208 78.1256 20.316C77.9816 20.424 77.8196 20.616 77.6396 20.892C77.5556 20.952 77.4476 21.108 77.3156 21.36C77.1836 21.612 77.0516 21.864 76.9196 22.116C76.5836 22.584 76.3316 22.932 76.1636 23.16C76.0076 23.376 75.9536 23.514 76.0016 23.574C76.0016 23.574 76.0856 23.592 76.2536 23.628C76.4216 23.664 76.5296 23.682 76.5776 23.682C76.6976 23.622 76.8416 23.58 77.0096 23.556C77.1896 23.532 77.3336 23.508 77.4416 23.484C78.1856 23.292 78.7316 23.154 79.0796 23.07C79.4396 22.974 79.6916 22.908 79.8356 22.872C79.9916 22.836 80.1296 22.812 80.2496 22.8C80.4176 22.668 80.5856 22.68 80.7536 22.836C80.9336 22.98 81.0596 23.154 81.1316 23.358C81.2156 23.598 81.2156 23.784 81.1316 23.916C81.0476 24.048 80.8616 24.156 80.5736 24.24C80.2976 24.324 79.9016 24.426 79.3856 24.546C78.8696 24.654 78.2216 24.816 77.4416 25.032C76.7816 25.224 76.2476 25.338 75.8396 25.374C75.4316 25.41 75.2396 25.308 75.2636 25.068C75.1796 25.02 75.0836 25.068 74.9756 25.212C74.8796 25.344 74.7896 25.53 74.7056 25.77C74.6216 26.01 74.5436 26.268 74.4716 26.544C74.4116 26.82 74.3756 27.078 74.3636 27.318C74.3516 27.558 74.3696 27.744 74.4176 27.876C74.5136 28.152 74.6636 28.392 74.8676 28.596C75.0836 28.788 75.3956 28.944 75.8036 29.064C76.0436 29.076 76.2776 29.094 76.5056 29.118C76.7336 29.142 76.9916 29.094 77.2796 28.974C77.9876 28.854 78.4796 28.728 78.7556 28.596C79.0316 28.464 79.1996 28.374 79.2596 28.326C79.3556 28.278 79.4156 28.23 79.4396 28.182C79.4756 28.134 79.5236 28.11 79.5836 28.11C79.5476 28.17 79.5596 28.17 79.6196 28.11C79.6796 28.05 79.7756 27.966 79.9076 27.858C80.1596 27.642 80.4116 27.51 80.6636 27.462C80.9156 27.414 81.1256 27.414 81.2936 27.462C81.4616 27.498 81.5516 27.546 81.5636 27.606C81.6356 27.726 81.5996 27.918 81.4556 28.182C81.3116 28.434 81.0896 28.704 80.7896 28.992C80.5016 29.28 80.1596 29.538 79.7636 29.766C79.1276 30.102 78.4376 30.336 77.6936 30.468C76.9496 30.612 76.2836 30.69 75.6956 30.702ZM87.6051 30.918C87.4131 30.93 87.1371 30.918 86.7771 30.882C86.4291 30.846 86.0571 30.756 85.6611 30.612C85.2771 30.468 84.9291 30.258 84.6171 29.982C84.3171 29.694 84.1191 29.31 84.0231 28.83C83.8791 28.158 83.8491 27.426 83.9331 26.634C84.0171 25.842 84.1611 25.062 84.3651 24.294C84.4251 24.078 84.5391 23.802 84.7071 23.466C84.8751 23.118 85.0731 22.746 85.3011 22.35C85.5411 21.954 85.7871 21.57 86.0391 21.198C86.2911 20.814 86.5251 20.484 86.7411 20.208C86.8971 20.028 87.0951 19.824 87.3351 19.596C87.5871 19.356 87.8451 19.128 88.1091 18.912C88.3851 18.684 88.6311 18.492 88.8471 18.336C89.0751 18.168 89.2371 18.066 89.3331 18.03C89.4891 17.958 89.6451 17.916 89.8011 17.904C89.9571 17.88 90.1431 17.898 90.3591 17.958C90.5271 17.97 90.7071 18.03 90.8991 18.138C91.0911 18.234 91.2591 18.342 91.4031 18.462C91.5471 18.582 91.6251 18.696 91.6371 18.804C91.6491 18.876 91.7811 18.87 92.0331 18.786C92.1171 18.69 92.2431 18.618 92.4111 18.57C92.5791 18.51 92.7351 18.48 92.8791 18.48C93.0231 18.468 93.1011 18.504 93.1131 18.588C93.0411 18.696 93.0531 18.792 93.1491 18.876C93.1851 18.864 93.1911 18.948 93.1671 19.128C93.1431 19.308 93.1011 19.518 93.0411 19.758C92.9811 19.986 92.9091 20.166 92.8251 20.298C92.8251 20.298 92.8131 20.328 92.7891 20.388C92.7771 20.448 92.7711 20.478 92.7711 20.478C92.7951 20.538 92.7831 20.598 92.7351 20.658C92.6871 20.718 92.6451 20.772 92.6091 20.82C92.5731 20.88 92.5251 21.006 92.4651 21.198C92.4171 21.378 92.3631 21.588 92.3031 21.828C92.2551 22.056 92.2131 22.266 92.1771 22.458C92.1411 22.638 92.1231 22.758 92.1231 22.818C92.1471 22.902 92.0391 22.95 91.7991 22.962C91.5711 22.962 91.3551 22.926 91.1511 22.854C90.8871 22.758 90.7191 22.632 90.6471 22.476C90.5871 22.32 90.6231 22.014 90.7551 21.558C90.9231 21.006 91.0191 20.598 91.0431 20.334C91.0671 20.07 90.9951 19.872 90.8271 19.74C90.7671 19.632 90.6351 19.566 90.4311 19.542C90.2271 19.506 90.0591 19.53 89.9271 19.614C89.7471 19.686 89.5011 19.854 89.1891 20.118C88.8771 20.37 88.5531 20.67 88.2171 21.018C87.8811 21.366 87.5811 21.726 87.3171 22.098C86.7651 22.866 86.3451 23.634 86.0571 24.402C85.7691 25.17 85.6071 25.908 85.5711 26.616C85.5351 27.324 85.6191 27.99 85.8231 28.614C85.8471 28.662 85.9191 28.764 86.0391 28.92C86.1591 29.076 86.2551 29.178 86.3271 29.226C86.6991 29.31 87.2331 29.316 87.9291 29.244C88.4451 29.148 88.8231 29.004 89.0631 28.812C89.3151 28.62 89.5551 28.356 89.7831 28.02C89.9151 27.828 90.0591 27.75 90.2151 27.786C90.3711 27.81 90.5091 27.906 90.6291 28.074C90.7491 28.23 90.8211 28.416 90.8451 28.632C90.8451 28.692 90.7911 28.818 90.6831 29.01C90.5871 29.19 90.4731 29.364 90.3411 29.532C90.2211 29.7 90.1251 29.796 90.0531 29.82C90.0051 29.832 89.9751 29.844 89.9631 29.856C89.9631 29.868 89.9691 29.904 89.9811 29.964C89.9811 30.012 89.9031 30.084 89.7471 30.18C89.5911 30.276 89.3931 30.372 89.1531 30.468C88.9131 30.576 88.6551 30.666 88.3791 30.738C88.1031 30.822 87.8451 30.882 87.6051 30.918ZM95.6702 30.702C95.4542 30.774 95.2562 30.786 95.0762 30.738C94.8962 30.69 94.7582 30.558 94.6622 30.342C94.5782 30.138 94.5542 29.838 94.5902 29.442C94.6382 29.034 94.7762 28.518 95.0042 27.894C95.0402 27.786 95.1122 27.57 95.2202 27.246C95.3402 26.91 95.4722 26.538 95.6162 26.13C95.7602 25.722 95.8982 25.344 96.0302 24.996C96.1742 24.648 96.2882 24.408 96.3722 24.276C96.4202 24.168 96.4442 24.078 96.4442 24.006C96.4562 23.934 96.4622 23.874 96.4622 23.826C96.4622 23.766 96.4862 23.688 96.5342 23.592C96.5942 23.484 96.6482 23.376 96.6962 23.268C96.7562 23.148 96.8042 23.04 96.8402 22.944C96.8882 22.836 96.9122 22.746 96.9122 22.674C96.9122 22.674 96.9422 22.572 97.0022 22.368C97.0622 22.152 97.1402 21.906 97.2362 21.63C97.3322 21.354 97.4402 21.126 97.5602 20.946C97.6682 20.67 97.7582 20.478 97.8302 20.37C97.9142 20.25 97.9562 20.154 97.9562 20.082C97.9562 20.058 97.8302 20.046 97.5782 20.046C97.3382 20.046 97.0502 20.058 96.7142 20.082C96.3782 20.094 96.0542 20.112 95.7422 20.136C95.4422 20.16 95.2262 20.19 95.0942 20.226C94.9862 20.25 94.8902 20.274 94.8062 20.298C94.7222 20.31 94.6682 20.31 94.6442 20.298C94.5962 20.274 94.5182 20.184 94.4102 20.028C94.3142 19.86 94.2422 19.68 94.1942 19.488C94.1582 19.296 94.2062 19.164 94.3382 19.092C94.5542 18.96 94.7702 18.876 94.9862 18.84C95.2142 18.804 95.4542 18.78 95.7062 18.768C95.9582 18.756 96.2342 18.732 96.5342 18.696C96.8102 18.696 97.0502 18.684 97.2542 18.66C97.4582 18.624 97.5842 18.606 97.6322 18.606C97.7522 18.606 97.8962 18.582 98.0642 18.534C98.2442 18.486 98.4482 18.462 98.6762 18.462C98.8322 18.462 98.9882 18.45 99.1442 18.426C99.3002 18.39 99.4382 18.372 99.5582 18.372C99.6182 18.372 99.7622 18.372 99.9902 18.372C100.218 18.372 100.446 18.372 100.674 18.372C100.842 18.372 101.07 18.348 101.358 18.3C101.646 18.252 101.88 18.204 102.06 18.156C102.612 18.036 103.068 18.018 103.428 18.102C103.788 18.186 104.01 18.39 104.094 18.714C104.142 18.978 103.968 19.206 103.572 19.398C103.176 19.59 102.444 19.716 101.376 19.776C100.86 19.824 100.506 19.86 100.314 19.884C100.122 19.908 100.026 19.974 100.026 20.082C100.026 20.154 99.9962 20.22 99.9362 20.28C99.8882 20.328 99.8402 20.382 99.7922 20.442C99.7442 20.466 99.6722 20.568 99.5762 20.748C99.4802 20.916 99.3842 21.12 99.2882 21.36C99.2042 21.588 99.1262 21.798 99.0542 21.99C98.9942 22.182 98.9642 22.308 98.9642 22.368C98.9642 22.368 98.9402 22.41 98.8922 22.494C98.8562 22.566 98.8382 22.626 98.8382 22.674C98.7902 22.794 98.7242 22.932 98.6402 23.088C98.5682 23.244 98.5022 23.382 98.4422 23.502C98.2622 23.982 98.1122 24.366 97.9922 24.654C97.8842 24.942 97.7942 25.17 97.7222 25.338C97.6622 25.494 97.6082 25.632 97.5602 25.752C97.5122 25.908 97.4342 26.172 97.3262 26.544C97.2182 26.916 97.1042 27.246 96.9842 27.534C96.9242 27.618 96.8702 27.678 96.8222 27.714C96.7862 27.738 96.7682 27.798 96.7682 27.894C96.7682 27.906 96.7322 28.014 96.6602 28.218C96.6002 28.41 96.5162 28.644 96.4082 28.92C96.3002 29.196 96.1922 29.472 96.0842 29.748C95.9882 30.012 95.8982 30.234 95.8142 30.414C95.7422 30.606 95.6942 30.702 95.6702 30.702ZM111.295 30.756C111.199 30.936 111.055 31.02 110.863 31.008C110.671 31.008 110.473 30.942 110.269 30.81C110.077 30.69 109.909 30.546 109.765 30.378C109.621 30.21 109.549 30.054 109.549 29.91C109.561 29.826 109.567 29.748 109.567 29.676C109.567 29.604 109.573 29.526 109.585 29.442C109.681 29.19 109.765 28.932 109.837 28.668C109.921 28.392 109.993 28.116 110.053 27.84C110.173 27.372 110.281 26.898 110.377 26.418C110.485 25.938 110.599 25.476 110.719 25.032C110.779 24.78 110.839 24.54 110.899 24.312C110.971 24.084 111.043 23.844 111.115 23.592C111.199 23.34 111.283 23.064 111.367 22.764C111.463 22.452 111.571 22.098 111.691 21.702C111.823 21.306 111.973 20.844 112.141 20.316C112.105 20.364 112.063 20.412 112.015 20.46C111.979 20.508 111.943 20.562 111.907 20.622C111.715 20.862 111.517 21.108 111.313 21.36C111.121 21.612 110.923 21.87 110.719 22.134C110.455 22.47 110.179 22.818 109.891 23.178C109.615 23.526 109.339 23.88 109.063 24.24C108.847 24.516 108.631 24.792 108.415 25.068C108.199 25.344 107.989 25.62 107.785 25.896C107.629 26.112 107.473 26.322 107.317 26.526C107.161 26.73 107.005 26.934 106.849 27.138C106.729 27.306 106.525 27.558 106.237 27.894C105.961 28.23 105.655 28.584 105.319 28.956C104.995 29.328 104.683 29.67 104.383 29.982C104.095 30.282 103.879 30.48 103.735 30.576C103.579 30.684 103.387 30.732 103.159 30.72C102.943 30.72 102.745 30.666 102.565 30.558C102.397 30.45 102.295 30.288 102.259 30.072C102.235 29.892 102.247 29.652 102.295 29.352C102.343 29.04 102.409 28.692 102.493 28.308C102.589 27.912 102.697 27.504 102.817 27.084C102.853 26.964 102.883 26.85 102.907 26.742C102.943 26.622 102.979 26.508 103.015 26.4C103.039 26.328 103.063 26.256 103.087 26.184C103.111 26.1 103.135 26.022 103.159 25.95C103.231 25.722 103.297 25.506 103.357 25.302C103.429 25.086 103.495 24.882 103.555 24.69C103.615 24.51 103.663 24.348 103.699 24.204C103.747 24.048 103.789 23.91 103.825 23.79C103.873 23.658 103.909 23.544 103.933 23.448C103.981 23.316 104.023 23.184 104.059 23.052C104.107 22.908 104.155 22.764 104.203 22.62C104.215 22.584 104.227 22.548 104.239 22.512C104.251 22.476 104.263 22.446 104.275 22.422C104.347 22.206 104.419 21.99 104.491 21.774C104.575 21.558 104.659 21.342 104.743 21.126L104.833 20.91C104.893 20.766 104.953 20.628 105.013 20.496C105.073 20.352 105.127 20.214 105.175 20.082C105.151 20.01 105.151 19.938 105.175 19.866C105.199 19.782 105.235 19.716 105.283 19.668C105.283 19.644 105.289 19.602 105.301 19.542C105.325 19.482 105.355 19.41 105.391 19.326C105.463 19.17 105.535 19.002 105.607 18.822C105.691 18.642 105.769 18.474 105.841 18.318C105.913 18.162 105.961 18.054 105.985 17.994C106.021 17.862 106.069 17.748 106.129 17.652C106.189 17.556 106.249 17.478 106.309 17.418C106.489 17.25 106.687 17.178 106.903 17.202C107.119 17.214 107.311 17.298 107.479 17.454C107.647 17.61 107.755 17.808 107.803 18.048C107.851 18.288 107.791 18.552 107.623 18.84C107.539 18.984 107.467 19.14 107.407 19.308C107.359 19.464 107.299 19.62 107.227 19.776C107.107 20.064 106.987 20.358 106.867 20.658C106.747 20.946 106.621 21.246 106.489 21.558C106.357 21.894 106.231 22.236 106.111 22.584C105.991 22.92 105.871 23.256 105.751 23.592C105.631 23.928 105.517 24.264 105.409 24.6C105.301 24.924 105.193 25.248 105.085 25.572C104.989 25.896 104.893 26.208 104.797 26.508C104.713 26.808 104.635 27.102 104.563 27.39C104.743 27.174 104.923 26.958 105.103 26.742C105.295 26.526 105.481 26.31 105.661 26.094C105.877 25.854 106.093 25.608 106.309 25.356C106.525 25.104 106.735 24.846 106.939 24.582C107.239 24.174 107.557 23.748 107.893 23.304C108.241 22.848 108.595 22.392 108.955 21.936C109.063 21.804 109.165 21.672 109.261 21.54C109.369 21.408 109.477 21.276 109.585 21.144C109.933 20.712 110.281 20.286 110.629 19.866C110.977 19.434 111.307 19.032 111.619 18.66C111.739 18.504 111.901 18.324 112.105 18.12C112.321 17.916 112.543 17.724 112.771 17.544C112.999 17.352 113.197 17.22 113.365 17.148C113.533 17.064 113.707 17.052 113.887 17.112C114.079 17.172 114.241 17.268 114.373 17.4C114.601 17.628 114.733 17.886 114.769 18.174C114.781 18.234 114.781 18.3 114.769 18.372C114.769 18.432 114.757 18.492 114.733 18.552C114.685 18.672 114.601 18.876 114.481 19.164C114.373 19.44 114.247 19.758 114.103 20.118C113.971 20.466 113.839 20.808 113.707 21.144C113.683 21.216 113.653 21.288 113.617 21.36C113.593 21.432 113.569 21.498 113.545 21.558C113.449 21.81 113.371 22.032 113.311 22.224C113.251 22.416 113.221 22.548 113.221 22.62C113.221 22.668 113.185 22.83 113.113 23.106C113.065 23.298 112.999 23.538 112.915 23.826C112.843 24.114 112.759 24.414 112.663 24.726C112.555 25.134 112.441 25.542 112.321 25.95C112.213 26.346 112.117 26.694 112.033 26.994C111.949 27.294 111.889 27.492 111.853 27.588C111.721 28.104 111.613 28.632 111.529 29.172C111.445 29.7 111.367 30.228 111.295 30.756Z" fill="black"/>
</g>
<defs>
<filter id="filter0_d_100_14572" x="0.5" y="0.5" width="128" height="52" filterUnits="userSpaceOnUse" color-interpolation-filters="sRGB">
<feFlood flood-opacity="0" result="BackgroundImageFix"/>
<feColorMatrix in="SourceAlpha" type="matrix" values="0 0 0 0 0 0 0 0 0 0 0 0 0 0 0 0 0 0 127 0" result="hardAlpha"/>
<feOffset dx="4" dy="4"/>
<feComposite in2="hardAlpha" operator="out"/>
<feColorMatrix type="matrix" values="0 0 0 0 0 0 0 0 0 0 0 0 0 0 0 0 0 0 1 0"/>
<feBlend mode="normal" in2="BackgroundImageFix" result="effect1_dropShadow_100_14572"/>
<feBlend mode="normal" in="SourceGraphic" in2="effect1_dropShadow_100_14572" result="shape"/>
</filter>
</defs>
</svg>
