<svg width="24" height="24" viewBox="0 0 24 24" fill="none" xmlns="http://www.w3.org/2000/svg">
<path fill-rule="evenodd" clip-rule="evenodd" d="M12.4892 4.00005C9.12416 3.96314 7.24083 4.12457 3.93115 4.7336C3.38799 4.83355 2.86664 4.47425 2.76669 3.93109C2.66674 3.38792 3.02603 2.86657 3.5692 2.76662C7.00549 2.13429 9.01737 1.96185 12.5111 2.00017C14.0872 2.01746 16.0684 2.21038 17.6323 2.39447C18.4192 2.48711 19.1098 2.57865 19.604 2.64706C19.8511 2.68128 20.0494 2.70975 20.1863 2.72973C20.2547 2.73972 20.3079 2.74759 20.3441 2.753L20.3856 2.75922L20.4005 2.76147C20.9465 2.84455 21.3219 3.35455 21.2388 3.90055C21.1557 4.44654 20.6458 4.8218 20.0998 4.73873L20.0875 4.73688L20.049 4.73111L19.8975 4.70877C19.7649 4.68942 19.5715 4.66165 19.3297 4.62816C18.8457 4.56116 18.169 4.47146 17.3985 4.38076C15.8475 4.19819 13.9537 4.01611 12.4892 4.00005Z" fill="black"/>
<path fill-rule="evenodd" clip-rule="evenodd" d="M8.19058 7.5955L8.21895 7.63148L8.30348 7.73824C8.37748 7.83147 8.48562 7.96724 8.62142 8.13636C8.89314 8.47472 9.27504 8.94592 9.7153 9.47665C10.6008 10.5441 11.7041 11.8302 12.6186 12.7636C13.7862 13.9552 15.2569 15.2431 16.4482 16.2421C16.4881 16.2755 16.5277 16.3086 16.5669 16.3414C16.4643 15.4025 16.3817 14.3332 16.4047 13.4377C16.4271 12.5647 16.5594 11.4851 16.6802 10.6495C16.7415 10.2262 16.8013 9.85498 16.8459 9.58936C16.8682 9.45643 16.8867 9.34964 16.8997 9.27563L16.915 9.18996L16.9191 9.16706L16.9205 9.15912C16.9205 9.15912 16.9207 9.15828 17.8672 9.33161L16.9205 9.15912C17.02 8.61587 17.5412 8.25529 18.0845 8.35477C18.6277 8.45426 18.9874 8.97526 18.888 9.51848L18.8869 9.52423L18.8834 9.54388L18.8694 9.62262C18.8572 9.69182 18.8396 9.79324 18.8183 9.9203C18.7756 10.1747 18.7182 10.5306 18.6597 10.9357C18.5409 11.7571 18.4232 12.7399 18.404 13.4891C18.3796 14.4398 18.4963 15.6905 18.6268 16.7367C18.6912 17.2527 18.7572 17.7063 18.8071 18.0305C18.8188 18.1066 18.8297 18.1754 18.8393 18.2362C18.926 18.7808 18.8949 19.1245 18.6268 19.4037C18.374 19.6671 18.151 19.7134 17.534 19.7134H8.52934C7.97706 19.7134 7.52934 19.2657 7.52934 18.7134C7.52934 18.1611 7.97706 17.7134 8.52934 17.7134H15.0903C13.8942 16.7083 12.4013 15.3995 11.1901 14.1633C10.2148 13.1679 9.06802 11.8289 8.17599 10.7536C7.72749 10.2129 7.33873 9.73325 7.06199 9.38862C6.92356 9.21624 6.81302 9.07747 6.73689 8.98154L6.64928 8.87089L6.61874 8.83215L6.6181 8.83133C6.27683 8.3971 6.35219 7.76844 6.78642 7.42717C7.22065 7.08591 7.84931 7.16128 8.19058 7.5955Z" fill="black"/>
</svg>
