<svg width="24" height="24" viewBox="0 0 24 24" fill="none" xmlns="http://www.w3.org/2000/svg">
<path fill-rule="evenodd" clip-rule="evenodd" d="M7.78629 6.38212L7.81465 6.4181L7.89918 6.52486C7.97318 6.6181 8.08132 6.75386 8.21713 6.92298C8.48884 7.26134 8.87074 7.73254 9.311 8.26327C10.1965 9.33074 11.2998 10.6168 12.2143 11.5502C13.3819 12.7418 14.8526 14.0298 16.0439 15.0287C16.0838 15.0622 16.1234 15.0953 16.1626 15.128C16.06 14.1891 15.9774 13.1198 16.0004 12.2244C16.0228 11.3514 16.1551 10.2717 16.276 9.43612C16.3372 9.01279 16.397 8.6416 16.4416 8.37598C16.4639 8.24306 16.4824 8.13626 16.4954 8.06226L16.5107 7.97658L16.5148 7.95368L16.5162 7.94574C16.5162 7.94574 16.5164 7.9449 17.4629 8.11823L16.5162 7.94574C16.6157 7.40249 17.1369 7.04191 17.6802 7.14139C18.2234 7.24088 18.5831 7.76188 18.4837 8.30511L18.4826 8.31085L18.4791 8.3305L18.4651 8.40924C18.4529 8.47844 18.4353 8.57986 18.414 8.70692C18.3713 8.96127 18.314 9.31717 18.2554 9.72233C18.1366 10.5437 18.0189 11.5265 17.9997 12.2757C17.9753 13.2264 18.092 14.4772 18.2225 15.5233C18.2869 16.0394 18.3529 16.4929 18.4028 16.8171C18.4145 16.8932 18.4254 16.962 18.435 17.0228C18.5217 17.5674 18.4906 17.9111 18.2225 18.1903C17.9697 18.4537 17.7467 18.5 17.1297 18.5H8.12504C7.57276 18.5 7.12504 18.0523 7.12504 17.5C7.12504 16.9478 7.57276 16.5 8.12504 16.5H14.686C13.4899 15.495 11.997 14.1861 10.7858 12.9499C9.81046 11.9545 8.66372 10.6155 7.77169 9.54019C7.32319 8.99953 6.93444 8.51987 6.65769 8.17524C6.51926 8.00286 6.40872 7.86409 6.33259 7.76816L6.24498 7.65751L6.21444 7.61877L6.2138 7.61795C5.87253 7.18372 5.9479 6.55506 6.38213 6.21379C6.81635 5.87253 7.44502 5.9479 7.78629 6.38212Z" fill="black"/>
</svg>
