<svg width="78" height="25" viewBox="0 0 78 25" fill="none" xmlns="http://www.w3.org/2000/svg">
<path d="M12.777 24.79C12.277 24.59 11.907 24.31 11.667 23.95C11.427 23.61 11.357 23.21 11.457 22.75C11.417 22.91 11.447 22.88 11.547 22.66C11.667 22.44 11.817 22.11 11.997 21.67C12.197 21.23 12.407 20.74 12.627 20.2C12.847 19.64 13.057 19.09 13.257 18.55C13.477 18.01 13.657 17.55 13.797 17.17C14.137 16.31 14.447 15.53 14.727 14.83C15.007 14.13 15.237 13.53 15.417 13.03C15.617 12.53 15.767 12.14 15.867 11.86C15.967 11.58 16.017 11.43 16.017 11.41C16.217 10.95 16.407 10.42 16.587 9.82C16.787 9.2 16.997 8.67 17.217 8.23C17.337 7.95 17.447 7.66 17.547 7.36C17.667 7.06 17.777 6.76 17.877 6.46C17.357 7.06 16.797 7.72 16.197 8.44C15.617 9.14 15.007 9.86 14.367 10.6C13.747 11.34 13.117 12.08 12.477 12.82C11.857 13.56 11.257 14.27 10.677 14.95C10.117 15.63 9.59699 16.26 9.11699 16.84C8.63699 17.4 8.22699 17.88 7.88699 18.28C7.54699 18.66 7.29699 18.94 7.13699 19.12C6.69699 19.46 6.28699 19.83 5.90699 20.23C5.54699 20.61 5.14699 20.97 4.70699 21.31C4.52699 21.45 4.28699 21.64 3.98699 21.88C3.70699 22.1 3.42699 22.3 3.14699 22.48C2.88699 22.66 2.66699 22.75 2.48699 22.75C1.68699 22.61 1.17699 22.37 0.956992 22.03C0.756992 21.71 0.716992 21.33 0.836992 20.89C0.976992 20.43 1.13699 19.96 1.31699 19.48C1.41699 19.2 1.50699 18.91 1.58699 18.61C1.66699 18.31 1.72699 17.99 1.76699 17.65C1.92699 16.95 2.08699 16.34 2.24699 15.82C2.40699 15.3 2.55699 14.83 2.69699 14.41C2.83699 13.93 2.96699 13.46 3.08699 13C3.22699 12.54 3.30699 12.09 3.32699 11.65C3.52699 11.29 3.72699 10.87 3.92699 10.39C4.12699 9.89 4.30699 9.41 4.46699 8.95C4.64699 8.49 4.78699 8.15 4.88699 7.93C5.10699 7.45 5.28699 6.95 5.42699 6.43C5.58699 5.91 5.77699 5.4 5.99699 4.9C6.13699 4.62 6.32699 4.26 6.56699 3.82C6.80699 3.36 7.02699 2.9 7.22699 2.44C7.42699 1.98 7.52699 1.61 7.52699 1.33C7.52699 1.03 7.63699 0.819999 7.85699 0.699999C8.07699 0.579999 8.33699 0.539999 8.63699 0.579999C8.93699 0.599998 9.20699 0.699998 9.44699 0.879998C9.70699 1.04 9.86699 1.27 9.92699 1.57C10.007 1.79 10.047 2.03 10.047 2.29C10.067 2.55 10.027 2.8 9.92699 3.04L7.43699 9.37L4.70699 16.57C4.58699 16.87 4.46699 17.17 4.34699 17.47C4.22699 17.77 4.10699 18.07 3.98699 18.37L10.047 12.31C10.387 11.95 10.717 11.58 11.037 11.2C11.377 10.82 11.687 10.44 11.967 10.06C12.367 9.52 12.767 9.03 13.167 8.59C13.567 8.13 13.937 7.72 14.277 7.36C14.637 7 14.957 6.68 15.237 6.4C15.517 6.12 15.747 5.89 15.927 5.71L19.737 1.66L20.487 1.36C20.867 1.32 21.187 1.41 21.447 1.63C21.707 1.85 21.877 2.13 21.957 2.47C22.057 2.79 22.047 3.1 21.927 3.4C21.847 3.58 21.717 3.88 21.537 4.3C21.357 4.72 21.147 5.23 20.907 5.83C20.667 6.41 20.407 7.05 20.127 7.75C19.847 8.45 19.557 9.18 19.257 9.94C18.977 10.68 18.687 11.43 18.387 12.19C18.107 12.93 17.837 13.64 17.577 14.32C17.437 14.74 17.287 15.16 17.127 15.58C16.987 15.98 16.847 16.39 16.707 16.81C16.567 17.23 16.427 17.65 16.287 18.07C16.147 18.49 15.997 18.91 15.837 19.33C15.697 19.73 15.557 20.14 15.417 20.56C15.337 20.84 15.237 21.11 15.117 21.37C14.997 21.63 14.887 21.88 14.787 22.12C14.667 22.34 14.567 22.55 14.487 22.75C14.407 22.97 14.327 23.28 14.247 23.68C14.127 24.1 13.917 24.42 13.617 24.64C13.337 24.88 13.057 24.93 12.777 24.79ZM21.7121 24.73C21.7121 24.73 21.6121 24.69 21.4121 24.61C21.2121 24.55 20.9921 24.49 20.7521 24.43C20.5321 24.37 20.3621 24.34 20.2421 24.34C19.9221 24.26 19.6921 24.08 19.5521 23.8C19.4121 23.54 19.3821 23.25 19.4621 22.93C19.5421 22.85 19.6021 22.68 19.6421 22.42C19.6821 22.16 19.7021 21.95 19.7021 21.79C19.7821 21.63 19.8321 21.52 19.8521 21.46C19.8721 21.38 19.9221 21.18 20.0021 20.86C20.0621 20.52 20.1621 20.05 20.3021 19.45C20.4621 18.83 20.6321 18.17 20.8121 17.47C21.0121 16.77 21.2021 16.1 21.3821 15.46C21.5621 14.82 21.7221 14.28 21.8621 13.84C22.0221 13.4 22.1321 13.15 22.1921 13.09C22.1921 13.09 22.1921 13.06 22.1921 13C22.1921 12.92 22.1921 12.84 22.1921 12.76C22.1921 12.76 22.2021 12.67 22.2221 12.49C22.2621 12.29 22.3621 12.07 22.5221 11.83C22.6021 11.61 22.6721 11.37 22.7321 11.11C22.7921 10.85 22.8221 10.68 22.8221 10.6C22.9021 10.5 23.0121 10.26 23.1521 9.88C23.3121 9.48 23.4621 9.09 23.6021 8.71C23.7221 8.39 23.8521 8.05 23.9921 7.69C24.1521 7.33 24.2821 7.02 24.3821 6.76C24.5021 6.5 24.5621 6.37 24.5621 6.37C24.5621 6.29 24.5621 6.25 24.5621 6.25C24.5621 6.23 24.5621 6.22 24.5621 6.22C24.6421 6.14 24.8321 5.74 25.1321 5.02C25.4521 4.28 25.8821 3.33 26.4221 2.17C26.5021 2.01 26.6221 1.76 26.7821 1.42C26.9421 1.06 27.0221 0.839999 27.0221 0.76C27.3221 0.459999 27.6121 0.359998 27.8921 0.459998C28.1921 0.539999 28.4521 0.709999 28.6721 0.969999C28.9121 1.23 29.0821 1.47 29.1821 1.69L29.4821 2.17L28.3721 4.33C28.0521 4.89 27.7721 5.4 27.5321 5.86C27.3121 6.32 27.2021 6.59 27.2021 6.67C27.2021 6.67 27.1521 6.79 27.0521 7.03C26.9721 7.27 26.8721 7.58 26.7521 7.96C26.6321 8.32 26.5121 8.68 26.3921 9.04C26.1721 9.66 25.9621 10.18 25.7621 10.6C25.5621 11 25.4621 11.24 25.4621 11.32C25.4621 11.28 25.6621 11.25 26.0621 11.23C26.4821 11.21 27.0021 11.2 27.6221 11.2C28.2421 11.2 28.8721 11.2 29.5121 11.2C30.1721 11.18 30.7621 11.17 31.2821 11.17C31.8021 11.15 32.1621 11.12 32.3621 11.08L33.9221 10.93L34.7621 8.26C34.9221 7.7 35.1321 7.02 35.3921 6.22C35.6521 5.42 35.8821 4.74 36.0821 4.18C36.4021 3.26 36.7421 2.62 37.1021 2.26C37.4621 1.88 37.7621 1.69 38.0021 1.69C38.0621 1.69 38.1721 1.75 38.3321 1.87C38.5121 1.97 38.6921 2.09 38.8721 2.23C39.0521 2.37 39.1621 2.5 39.2021 2.62C39.4421 2.84 39.5521 3.09 39.5321 3.37C39.5321 3.65 39.3721 4.02 39.0521 4.48C38.7321 5.02 38.4621 5.61 38.2421 6.25C38.0421 6.87 37.8621 7.38 37.7021 7.78C37.7021 8.02 37.6721 8.22 37.6121 8.38C37.5521 8.52 37.4821 8.63 37.4021 8.71C37.3621 8.75 37.2821 8.9 37.1621 9.16C37.0421 9.42 36.9321 9.68 36.8321 9.94C36.7321 10.2 36.6821 10.36 36.6821 10.42C36.6821 10.56 36.6521 10.73 36.5921 10.93C36.5321 11.13 36.4621 11.27 36.3821 11.35C36.3421 11.47 36.2521 11.77 36.1121 12.25C35.9721 12.73 35.8121 13.3 35.6321 13.96C35.4521 14.6 35.2621 15.23 35.0621 15.85C34.8621 16.45 34.6821 16.95 34.5221 17.35C34.5221 17.49 34.4721 17.67 34.3721 17.89C34.2721 18.09 34.2221 18.27 34.2221 18.43C34.1421 18.67 34.0421 18.97 33.9221 19.33C33.8021 19.69 33.7421 19.92 33.7421 20.02C33.6421 20.48 33.5321 21.01 33.4121 21.61C33.3121 22.21 33.2221 22.74 33.1421 23.2C33.0821 23.66 33.0521 23.92 33.0521 23.98C32.5321 24.04 32.1421 23.97 31.8821 23.77C31.6221 23.57 31.3821 23.43 31.1621 23.35C30.7821 23.13 30.5521 22.85 30.4721 22.51C30.4121 22.19 30.4921 21.8 30.7121 21.34C30.8121 21.18 30.9321 20.79 31.0721 20.17C31.2321 19.53 31.3921 18.9 31.5521 18.28C31.6721 17.98 31.8021 17.6 31.9421 17.14C32.0821 16.68 32.2121 16.23 32.3321 15.79C32.4721 15.33 32.5921 14.94 32.6921 14.62C32.7921 14.3 32.8621 14.12 32.9021 14.08C32.9021 14 32.9021 13.93 32.9021 13.87C32.9021 13.81 32.9021 13.78 32.9021 13.78C32.8621 13.74 32.6621 13.71 32.3021 13.69C31.9421 13.65 31.4821 13.64 30.9221 13.66C30.3821 13.66 29.7921 13.68 29.1521 13.72C28.5121 13.74 27.9021 13.79 27.3221 13.87C27.1021 13.87 26.7821 13.87 26.3621 13.87C25.9621 13.87 25.6821 13.87 25.5221 13.87C25.3021 13.87 25.1121 13.87 24.9521 13.87C24.8121 13.87 24.7421 13.87 24.7421 13.87C24.7021 13.93 24.6221 14.13 24.5021 14.47C24.4021 14.81 24.2721 15.22 24.1121 15.7C23.9721 16.18 23.8221 16.67 23.6621 17.17C23.5221 17.67 23.3921 18.13 23.2721 18.55C23.1721 18.95 23.1021 19.24 23.0621 19.42C22.9821 19.78 22.8721 20.23 22.7321 20.77C22.6121 21.31 22.4721 21.86 22.3121 22.42C22.1721 23 22.0421 23.5 21.9221 23.92C21.8221 24.34 21.7521 24.61 21.7121 24.73ZM50.0393 7.15L50.0993 6.97C48.9793 7.03 47.9293 7.27 46.9493 7.69C45.9893 8.09 45.1393 8.61 44.3993 9.25C43.6793 9.89 43.1093 10.59 42.6893 11.35C42.2893 12.09 42.0893 12.84 42.0893 13.6C42.0893 14.48 42.4193 15.32 43.0793 16.12C43.7393 16.9 44.7993 17.51 46.2593 17.95C46.3593 17.97 46.4693 18 46.5893 18.04C46.7093 18.06 46.8293 18.09 46.9493 18.13C47.0293 17.69 47.1293 17.28 47.2493 16.9C47.3693 16.5 47.4793 16.1 47.5793 15.7C47.6993 15.28 47.7793 14.83 47.8193 14.35C47.9793 13.75 48.1393 13.15 48.2993 12.55C48.4793 11.93 48.6593 11.32 48.8393 10.72C49.0193 10.12 49.2093 9.52 49.4093 8.92C49.6093 8.32 49.8193 7.73 50.0393 7.15ZM53.1893 7.21C52.9893 7.69 52.7693 8.25 52.5293 8.89C52.2893 9.53 52.0493 10.21 51.8093 10.93C51.5693 11.63 51.3393 12.34 51.1193 13.06C50.8993 13.76 50.7093 14.44 50.5493 15.1C50.3893 15.74 50.2793 16.31 50.2193 16.81C50.1993 16.99 50.1593 17.18 50.0993 17.38C50.0593 17.58 50.0093 17.78 49.9493 17.98C49.9093 18.18 49.8593 18.37 49.7993 18.55C50.6193 18.67 51.4293 18.58 52.2293 18.28C53.0293 17.98 53.7693 17.53 54.4493 16.93C55.1493 16.33 55.7493 15.64 56.2493 14.86C56.7493 14.08 57.1093 13.27 57.3293 12.43C57.4893 11.89 57.5693 11.35 57.5693 10.81C57.5693 10.27 57.4893 9.75 57.3293 9.25C57.2493 9.01 57.1293 8.72 56.9693 8.38C56.8093 8.02 56.5993 7.79 56.3393 7.69C55.9593 7.53 55.4393 7.41 54.7793 7.33C54.1393 7.23 53.6093 7.19 53.1893 7.21ZM51.1793 4.36C51.1593 4.28 51.2093 4.12 51.3293 3.88C51.4693 3.64 51.6293 3.38 51.8093 3.1C51.9893 2.82 52.1693 2.57 52.3493 2.35C52.5293 2.13 52.6693 2 52.7693 1.96H53.7893C54.0493 2.28 54.2293 2.49 54.3293 2.59C54.4293 2.67 54.5193 2.73 54.5993 2.77C54.7393 3.01 54.8093 3.24 54.8093 3.46C54.8293 3.68 54.7993 3.89 54.7193 4.09C54.6393 4.29 54.5193 4.5 54.3593 4.72C56.1993 4.98 57.6293 5.47 58.6493 6.19C59.6893 6.91 60.3693 7.79 60.6893 8.83C61.0093 9.87 61.0093 11.04 60.6893 12.34C60.5493 12.88 60.3493 13.44 60.0893 14.02C59.8493 14.6 59.5593 15.19 59.2193 15.79C58.1593 17.61 56.8293 18.99 55.2293 19.93C53.6293 20.87 51.7593 21.34 49.6193 21.34H49.2293C49.1693 21.56 49.1193 21.78 49.0793 22C49.0393 22.24 48.9993 22.47 48.9593 22.69C48.9193 22.91 48.8493 23.14 48.7493 23.38C48.5493 23.84 48.3693 24.16 48.2093 24.34C48.0493 24.52 47.8393 24.61 47.5793 24.61C47.3193 24.63 46.9393 24.61 46.4393 24.55L45.8093 23.68C45.7893 23.54 45.7993 23.35 45.8393 23.11C45.8793 22.87 45.9293 22.61 45.9893 22.33C46.0693 22.05 46.1493 21.79 46.2293 21.55C46.3093 21.29 46.3593 21.09 46.3793 20.95C46.1393 20.89 45.8793 20.84 45.5993 20.8C45.3193 20.76 45.0393 20.71 44.7593 20.65C44.4993 20.57 44.2493 20.47 44.0093 20.35C43.2693 19.95 42.5593 19.51 41.8793 19.03C41.1993 18.55 40.6093 17.97 40.1093 17.29C39.9293 17.05 39.7793 16.7 39.6593 16.24C39.5393 15.78 39.4593 15.32 39.4193 14.86C39.3993 14.58 39.3893 14.31 39.3893 14.05C39.3893 13.79 39.3993 13.57 39.4193 13.39C39.4993 12.95 39.5793 12.54 39.6593 12.16C39.7393 11.76 39.8393 11.35 39.9593 10.93C40.0393 10.65 40.2193 10.32 40.4993 9.94C40.7993 9.54 41.1193 9.15 41.4593 8.77C41.7993 8.39 42.0793 8.1 42.2993 7.9C43.1393 7.1 44.0193 6.42 44.9393 5.86C45.8593 5.3 46.8393 4.89 47.8793 4.63C48.9193 4.35 50.0193 4.26 51.1793 4.36ZM66.3366 22.27C65.2966 21.89 64.4866 21.14 63.9066 20.02C63.3266 18.88 63.1666 17.55 63.4266 16.03C63.4666 15.45 63.5566 14.93 63.6966 14.47C63.8566 14.01 63.9766 13.55 64.0566 13.09C64.0566 13.05 64.0766 12.99 64.1166 12.91C64.1566 12.81 64.1666 12.72 64.1466 12.64C64.1866 12.52 64.2766 12.3 64.4166 11.98C64.5566 11.64 64.6966 11.32 64.8366 11.02C64.9766 10.7 65.0666 10.52 65.1066 10.48C65.2066 10.44 65.2566 10.39 65.2566 10.33C65.2566 10.25 65.2566 10.21 65.2566 10.21C65.2566 10.05 65.3666 9.76 65.5866 9.34C65.8066 8.92 66.0866 8.46 66.4266 7.96C66.7866 7.44 67.1466 6.94 67.5066 6.46C67.8666 5.98 68.1866 5.58 68.4666 5.26C68.7466 4.94 68.9266 4.78 69.0066 4.78C69.0666 4.78 69.1166 4.74 69.1566 4.66C69.1966 4.58 69.2366 4.53 69.2766 4.51C69.3366 4.43 69.5166 4.31 69.8166 4.15C70.1366 3.99 70.5066 3.82 70.9266 3.64C71.3666 3.44 71.7966 3.26 72.2166 3.1C72.6366 2.94 72.9966 2.83 73.2966 2.77C74.1766 2.45 74.9666 2.45 75.6666 2.77C76.3666 3.09 76.9266 3.69 77.3466 4.57C77.7666 5.45 77.9866 6.57 78.0066 7.93C77.9266 8.37 77.8766 8.79 77.8566 9.19C77.8566 9.57 77.8266 9.85 77.7666 10.03C77.7466 10.47 77.6766 10.97 77.5566 11.53C77.4366 12.09 77.3166 12.58 77.1966 13C77.0766 13.4 76.9866 13.61 76.9266 13.63C76.9266 13.71 76.9066 13.79 76.8666 13.87C76.8266 13.93 76.8066 13.99 76.8066 14.05C76.8266 14.15 76.7566 14.38 76.5966 14.74C76.4366 15.1 76.2466 15.5 76.0266 15.94C75.8066 16.38 75.6066 16.76 75.4266 17.08C75.2466 17.4 75.1366 17.56 75.0966 17.56C75.0966 17.56 75.0766 17.57 75.0366 17.59C74.9966 17.59 74.9866 17.63 75.0066 17.71C75.0266 17.75 74.9566 17.85 74.7966 18.01C74.6366 18.17 74.4566 18.33 74.2566 18.49C74.0766 18.63 73.9366 18.7 73.8366 18.7C73.8366 18.7 73.8166 18.71 73.7766 18.73C73.7566 18.75 73.7766 18.79 73.8366 18.85C73.8566 18.89 73.6966 19.05 73.3566 19.33C73.0366 19.59 72.6266 19.9 72.1266 20.26C71.6266 20.6 71.1266 20.92 70.6266 21.22C70.1266 21.5 69.7266 21.67 69.4266 21.73C69.3666 21.81 69.3066 21.86 69.2466 21.88C69.1866 21.88 69.1066 21.89 69.0066 21.91C68.8666 22.05 68.6166 22.16 68.2566 22.24C67.9166 22.34 67.5666 22.39 67.2066 22.39C66.8466 22.41 66.5566 22.37 66.3366 22.27ZM69.3666 19.12C69.7666 18.98 70.1666 18.79 70.5666 18.55C70.9866 18.29 71.3466 18.02 71.6466 17.74C71.9666 17.44 72.1666 17.16 72.2466 16.9C72.3066 16.68 72.3666 16.52 72.4266 16.42C72.5066 16.3 72.5866 16.21 72.6666 16.15C72.8266 15.99 73.0266 15.69 73.2666 15.25C73.5266 14.81 73.7766 14.33 74.0166 13.81C74.2566 13.29 74.4566 12.8 74.6166 12.34C74.7966 11.86 74.8966 11.51 74.9166 11.29C74.9166 11.25 74.9466 11.08 75.0066 10.78C75.0666 10.48 75.1366 10.26 75.2166 10.12C75.2566 10.04 75.2666 9.97 75.2466 9.91C75.2466 9.83 75.2366 9.62 75.2166 9.28C75.2166 8.94 75.2266 8.33 75.2466 7.45C75.2266 6.73 75.1566 6.2 75.0366 5.86C74.9366 5.5 74.8066 5.28 74.6466 5.2C74.6066 5.16 74.5066 5.12 74.3466 5.08C74.2066 5.04 74.0566 5.02 73.8966 5.02C73.7366 5 73.5866 5.02 73.4466 5.08C73.3466 5.1 73.2066 5.15 73.0266 5.23C72.8666 5.29 72.7266 5.32 72.6066 5.32C72.4466 5.4 72.3366 5.5 72.2766 5.62C72.2166 5.72 72.1866 5.8 72.1866 5.86C72.1866 6.02 72.1166 6.17 71.9766 6.31C71.8366 6.43 71.6766 6.44 71.4966 6.34C71.1766 6.36 70.9566 6.4 70.8366 6.46C70.7366 6.52 70.6366 6.65 70.5366 6.85C70.4566 7.03 70.2866 7.34 70.0266 7.78C69.4666 8.22 69.0666 8.65 68.8266 9.07C68.5866 9.49 68.4466 9.81 68.4066 10.03C67.9866 10.79 67.6766 11.38 67.4766 11.8C67.2766 12.2 67.1366 12.56 67.0566 12.88C66.9766 13.2 66.9166 13.59 66.8766 14.05C66.6966 14.39 66.5666 14.75 66.4866 15.13C66.4066 15.51 66.3366 15.76 66.2766 15.88C66.2366 15.98 66.2166 16.17 66.2166 16.45C66.2166 16.71 66.2266 17.01 66.2466 17.35C66.2866 17.67 66.3266 17.97 66.3666 18.25C66.4266 18.51 66.4866 18.7 66.5466 18.82C66.6666 19.28 66.9566 19.54 67.4166 19.6C67.8766 19.66 68.5266 19.5 69.3666 19.12Z" fill="black"/>
</svg>
